<svg
  xmlns="http://www.w3.org/2000/svg"
  xmlns:xlink="http://www.w3.org/1999/xlink"
  viewBox="0 0 290 199.38"
><defs /><linearGradient
    id="a"
    x2="290"
    y1="99.688"
    y2="99.688"
    gradientUnits="userSpaceOnUse"
  ><stop offset="0" stop-color="#cfedf9" /><stop offset=".324" stop-color="#d5eff9" /><stop
      offset=".775"
      stop-color="#e7f6fc"
    /><stop offset="1" stop-color="#f3fafd" /></linearGradient><path
    fill="url(#a)"
    d="M0 109.61c0-23.83 19.32-43.15 43.15-43.15.84 0 1.67.03 2.5.08 50.97.93 97.15-41.41 97.15-41.41l-.01.05C158.4 9.62 179.92 0 203.69 0 251.36 0 290 38.64 290 86.31c0 45.66-31.46 78.8-80.34 86.1-5.45.81-24.31 5.21-34.63 12.1-14.89 9.94-25.57 14.86-41.26 14.86-21.74 0-40.96-10.73-52.69-27.17-5.96-6.13-18.47-16.14-38.89-19.46C18.81 152.23 0 133.12 0 109.61z"
  /><path
    fill="#00de91"
    d="M61.93 86.47h-9.28v-9.28a3.91 3.91 0 10-7.82 0v9.28h-9.28a3.91 3.91 0 100 7.82h9.28v9.28a3.91 3.91 0 107.82 0v-9.28h9.28a3.91 3.91 0 003.91-3.91c-.01-2.16-1.76-3.91-3.91-3.91z"
  /><defs><circle id="b" cx="158.99" cy="90.58" r="77.11" /></defs><use
    fill="#fff"
    overflow="visible"
    xlink:href="#b"
  /><clipPath id="c"><use overflow="visible" xlink:href="#b" /></clipPath><path
    fill="#0058b0"
    d="M180.74 123.42h-43.51c-5.7 0-10.32-4.62-10.32-10.32V72.35c0-17.71 14.36-32.07 32.07-32.07s32.07 14.36 32.07 32.07v40.75c.01 5.7-4.61 10.32-10.31 10.32z"
    clip-path="url(#c)"
  /><g clip-path="url(#c)"><path
      fill="#ffd840"
      d="M202.67 188.43h-87.36v-30.45c-2.41-26.86 17.98-40.17 40.17-40.17h7.02c22.18 0 40.17 22.07 40.17 44.25v26.37z"
    /></g><path
    fill="#94c5fa"
    d="M160.68 130.73h-3.38c-4.44 0-8.05-3.6-8.05-8.05v-16.29h19.47v16.29c0 4.45-3.6 8.05-8.04 8.05z"
    clip-path="url(#c)"
  /><use
    fill="none"
    stroke="#dbecfe"
    stroke-miterlimit="10"
    stroke-width="4"
    overflow="visible"
    xlink:href="#b"
  /><path
    fill="#dbecfe"
    d="M177.68 76.92h-14.51l-2.57-9.83-3.65 9.83h-16.66c-2.47 0-4.48 2.01-4.48 4.48v9.09c0 12.8 10.38 23.17 23.17 23.17 12.8 0 23.17-10.38 23.17-23.17V81.4a4.464 4.464 0 00-4.47-4.48z"
  /></svg>
