<svg xmlns="http://www.w3.org/2000/svg" data-name="Layer 1" viewBox="0 0 206.44 158.21"><defs/><defs><clipPath id="a" transform="translate(-31.65 -11.47)"><circle cx="158.99" cy="90.58" r="77.11" fill="#fff" stroke="#dbecfe" stroke-miterlimit="10" stroke-width="4"/></clipPath></defs><path fill="#00de91" d="M30.28 75H21v-9.28a3.9 3.9 0 00-3.91-3.9 3.9 3.9 0 00-3.9 3.9V75H3.91A3.91 3.91 0 000 78.91a3.91 3.91 0 003.91 3.9h9.28v9.28a3.91 3.91 0 003.9 3.91A3.91 3.91 0 0021 92.09v-9.28h9.28a3.91 3.91 0 003.9-3.9 3.91 3.91 0 00-3.9-3.91z"/><circle cx="127.33" cy="79.11" r="77.11" fill="#fff"/><g clip-path="url(#a)"><path fill="#0058b0" d="M149.09 111.95h-43.51a10.32 10.32 0 01-10.31-10.32V60.88a32.07 32.07 0 0132.08-32.07 32.07 32.07 0 0132.07 32.07v40.75a10.32 10.32 0 01-10.33 10.32z"/><path fill="#ffd840" d="M153.88 152.39l-26.5 4.6-26.92-5-15.45-8.14c-2.41-26.86 16.63-37.51 38.82-37.51h7c22.18 0 37.43 17.2 37.43 39.39z"/><path fill="#94c5fa" d="M117.6 94.92h19.47v16.29a8 8 0 01-8 8h-3.38a8 8 0 01-8-8V94.92z"/></g><circle cx="127.33" cy="79.11" r="77.11" fill="none" stroke="#dbecfe" stroke-miterlimit="10" stroke-width="4"/><path fill="#dbecfe" d="M146.03 65.45h-14.5l-2.58-9.83-3.6 9.83h-16.71a4.49 4.49 0 00-4.48 4.48v9.09a23.17 23.17 0 0023.19 23.17 23.17 23.17 0 0023.17-23.17v-9.09a4.48 4.48 0 00-4.49-4.48z"/></svg>