<svg
  xmlns="http://www.w3.org/2000/svg"
  xmlns:xlink="http://www.w3.org/1999/xlink"
  viewBox="0 0 290 199.38"
><linearGradient id="a" gradientUnits="userSpaceOnUse" y1="99.688" x2="290" y2="99.688"><stop
      offset="0"
      stop-color="#cfedf9"
    /><stop offset=".324" stop-color="#d5eff9" /><stop offset=".775" stop-color="#e7f6fc" /><stop
      offset="1"
      stop-color="#f3fafd"
    /></linearGradient><path
    d="M0 109.61c0-23.83 19.32-43.15 43.15-43.15.84 0 1.67.03 2.5.08 50.97.93 97.15-41.41 97.15-41.41l-.01.05C158.4 9.62 179.92 0 203.69 0 251.36 0 290 38.64 290 86.31c0 45.66-31.46 78.8-80.34 86.1-5.45.81-24.31 5.21-34.63 12.1-14.89 9.94-25.57 14.86-41.26 14.86-21.74 0-40.96-10.73-52.69-27.17-5.96-6.13-18.47-16.14-38.89-19.46C18.81 152.23 0 133.12 0 109.61z"
    fill="url(#a)"
  /><circle
    cx="232.69"
    cy="96.99"
    r="55"
    fill="#fff"
    stroke="#dbecfe"
    stroke-width="4"
    stroke-miterlimit="10"
  /><path
    d="M242.3 94.14h-6.76v-6.76c0-1.57-1.27-2.85-2.85-2.85-1.57 0-2.85 1.27-2.85 2.85v6.76h-6.76c-1.57 0-2.85 1.27-2.85 2.85 0 1.57 1.27 2.85 2.85 2.85h6.76v6.76c0 1.57 1.27 2.85 2.85 2.85 1.57 0 2.85-1.27 2.85-2.85v-6.76h6.76c1.57 0 2.85-1.27 2.85-2.85-.01-1.57-1.28-2.85-2.85-2.85z"
    fill="#00de91"
  /><defs><circle id="b" cx="156.01" cy="96.99" r="55" /></defs><use
    xlink:href="#b"
    overflow="visible"
    fill="#fff"
  /><clipPath id="c"><use xlink:href="#b" overflow="visible" /></clipPath><path
    d="M190.97 170.35H125.9v-22.37c0-15.82 12.83-30.24 28.65-30.24h7.77c16.17 2.42 28.65 10.24 28.65 28.65v23.96z"
    clip-path="url(#c)"
    fill="#0058b0"
  /><path
    d="M158.43 127.57c-4.37 0-7.92-3.54-7.92-7.92v-11.87h15.83v11.87a7.898 7.898 0 01-7.91 7.92z"
    clip-path="url(#c)"
    fill="#94c5fa"
  /><path
    d="M158.43 114.18c-8.9 0-16.53-9.1-16.53-18.23V75.29h33.06v20.67c.01 9.13-8.59 18.22-16.53 18.22z"
    clip-path="url(#c)"
    fill="#dbecfe"
  /><path
    class="st6"
    d="M175.16 77.48s-.91-15.33-16.67-15.33c-16.92 0-12.34 10.35-26.28 10.55 0 0 5.38 9.76 15.33 8.96 9.96-.8 17.02-10.75 27.62-4.18z"
  /><path
    class="st6"
    d="M137.57 78.19l3.99 18.3 1.83-18.64zm40.32 5.32l-3.04 12.98-2.26-23.32 1.93 1.38a8.577 8.577 0 013.37 8.96z"
  /><use
    xlink:href="#b"
    overflow="visible"
    fill="none"
    stroke="#dbecfe"
    stroke-width="4"
    stroke-miterlimit="10"
  /><defs><circle id="d" cx="71.12" cy="96.99" r="55" /></defs><use
    xlink:href="#d"
    overflow="visible"
    fill="#fff"
  /><clipPath id="e"><use xlink:href="#d" overflow="visible" /></clipPath><path
    d="M86.64 120.41H55.61a7.36 7.36 0 01-7.36-7.36V83.99c0-12.63 10.24-22.88 22.88-22.88C83.76 61.11 94 71.35 94 83.99v29.07c0 4.06-3.29 7.35-7.36 7.35z"
    clip-path="url(#e)"
    fill="#0058b0"
  /><g clip-path="url(#e)"><path
      d="M102.28 166.79H39.97v-21.72c-1.72-19.16 12.83-28.65 28.65-28.65h5.01c15.82 0 28.65 15.74 28.65 31.57v18.8z"
      fill="#ffd840"
    /></g><path
    d="M71.12 125.63c-3.84 0-6.95-3.11-6.95-6.95v-10.42h13.89v10.42c.01 3.84-3.1 6.95-6.94 6.95z"
    clip-path="url(#e)"
    fill="#94c5fa"
  /><use
    xlink:href="#d"
    overflow="visible"
    fill="none"
    stroke="#dbecfe"
    stroke-width="4"
    stroke-miterlimit="10"
  /><path
    d="M84.46 87.25H74.11l-1.84-7.01-2.61 7.01H57.79c-1.76 0-3.2 1.43-3.2 3.2v6.48c0 9.13 7.4 16.53 16.53 16.53s16.53-7.4 16.53-16.53v-6.48c.01-1.77-1.43-3.2-3.19-3.2z"
    fill="#dbecfe"
  /></svg>
