<svg xmlns="http://www.w3.org/2000/svg" id="prefix__Layer_1" data-name="Layer 1" viewBox="0 0 290 199.38"><defs/><defs><clipPath id="prefix__clip-path"><circle cx="71.12" cy="96.99" r="55" class="prefix__cls-1"/></clipPath><clipPath id="prefix__clip-path-2"><circle cx="233.13" cy="96.73" r="55" class="prefix__cls-1"/></clipPath><clipPath id="prefix__clip-path-3"><circle cx="156.01" cy="96.99" r="55" class="prefix__cls-1"/></clipPath><linearGradient id="prefix__linear-gradient" x2="290" y1="99.69" y2="99.69" gradientUnits="userSpaceOnUse"><stop offset="0" stop-color="#cfedf9"/><stop offset=".33" stop-color="#d5effa"/><stop offset=".78" stop-color="#e8f6fc"/><stop offset="1" stop-color="#f3fafd"/></linearGradient><style>.prefix__cls-1,.prefix__cls-3{fill:#fff}.prefix__cls-1,.prefix__cls-8{stroke:#dbecfe;stroke-miterlimit:10;stroke-width:4px}.prefix__cls-5{fill:#0058b0}.prefix__cls-7{fill:#94c5fa}.prefix__cls-8{fill:none}.prefix__cls-9{fill:#dbecfe}.prefix__cls-11{fill:#00de91}.prefix__cls-13{fill:#3397f5}</style></defs><path fill="url(#prefix__linear-gradient)" d="M0 109.61a43.15 43.15 0 0143.15-43.15c.84 0 1.68 0 2.5.08 51 .92 97.15-41.42 97.15-41.42v.05A86.3 86.3 0 01290 86.31c0 45.66-31.46 78.8-80.34 86.1-5.45.81-24.31 5.21-34.62 12.1-14.89 9.94-25.58 14.87-41.26 14.87a64.6 64.6 0 01-52.69-27.17c-6-6.13-18.48-16.14-38.9-19.47A43.15 43.15 0 010 109.61z"/><circle cx="71.12" cy="96.99" r="55" class="prefix__cls-3"/><g clip-path="url(#prefix__clip-path)"><path d="M86.64 120.41h-31a7.35 7.35 0 01-7.36-7.35V84a22.87 22.87 0 0122.84-22.89A22.88 22.88 0 0194 84v29.07a7.35 7.35 0 01-7.36 7.34z" class="prefix__cls-5"/><path fill="#ffd840" d="M102.28 166.79H40v-21.73c-1.72-19.16 12.83-28.65 28.65-28.65h5c15.82 0 28.65 15.74 28.65 31.56z"/><path d="M64.18 108.27h13.89v10.42a6.95 6.95 0 01-6.95 6.95 6.95 6.95 0 01-6.95-6.95v-10.42h.01z" class="prefix__cls-7"/></g><circle cx="71.12" cy="96.99" r="55" class="prefix__cls-8"/><path d="M84.46 87.25H74.11l-1.83-7-2.61 7H57.79a3.19 3.19 0 00-3.2 3.19v6.48a16.53 16.53 0 0016.53 16.53 16.54 16.54 0 0016.54-16.53v-6.48a3.2 3.2 0 00-3.2-3.19z" class="prefix__cls-9"/><circle cx="233.13" cy="96.73" r="55" class="prefix__cls-3"/><g clip-path="url(#prefix__clip-path-2)"><path d="M246.42 111.44l-4.88-1.08c2.29 2.94-1.45 3.6-5.79-2.48l-4.55-5.75s-5-8.56-5.79-11.73c-3.4-13.3 5.08-26.54 17.72-26.54 12.63 0 22.13 13 18.87 22.87-1.39 4.23-8.38 15.7-8.38 15.7 0 4.06-3.14 9.01-7.2 9.01z" class="prefix__cls-5"/><path d="M274.28 166.53H212v-21.72c-1.72-19.16 12.83-28.66 28.65-28.66h5c15.82 0 28.65 15.75 28.65 31.57z" class="prefix__cls-11"/><path d="M236.18 108h13.89v10.42a6.95 6.95 0 01-6.95 6.95 6.95 6.95 0 01-6.95-6.95V108z" class="prefix__cls-11"/></g><circle cx="233.13" cy="96.73" r="55" class="prefix__cls-8"/><path d="M226.59 87.67c0 9.13 7.41 25.53 16.54 25.53 9.13 0 16.53-16.4 16.53-25.53 0 0 1.51-5.91 0-6.48-3.39-1.29-5.64-8.66-7.25-8.86s-4.35 6.91-25.82 15.34" class="prefix__cls-7"/><circle cx="156.01" cy="96.99" r="55" class="prefix__cls-3"/><g clip-path="url(#prefix__clip-path-3)"><path d="M191 170.35h-65.1V148c0-15.82 12.82-30.23 28.65-30.23h7.77C178.49 120.16 191 128 191 146.39z" class="prefix__cls-5"/><path d="M150.52 107.78h15.83v11.87a7.92 7.92 0 01-7.92 7.92 7.92 7.92 0 01-7.92-7.92v-11.87h.01z" class="prefix__cls-7"/><path d="M158.43 114.18c-8.89 0-16.53-9.09-16.53-18.22V75.29H175V96c0 9.09-8.63 18.18-16.57 18.18z" class="prefix__cls-9"/><path d="M175.16 77.48s-.9-15.33-16.66-15.33c-16.93 0-12.35 10.35-26.29 10.55 0 0 5.38 9.76 15.33 9s17.02-10.79 27.62-4.22z" class="prefix__cls-13"/><path d="M137.57 78.19l3.99 18.3 1.83-18.64-5.82.34zm40.32 5.32l-3 13-2.26-23.32 1.93 1.38a8.58 8.58 0 013.33 8.94z" class="prefix__cls-13"/></g><circle cx="156.01" cy="96.99" r="55" class="prefix__cls-8"/><path d="M241.84 53.83c-2.93-.35-3.71-1-6.26.42a37.61 37.61 0 00-3.33 2.59c-1.45 1.08-3.16 1.8-4.48 3s-2.19 3.26-1.34 4.85c.71 1.32 2.29 1.86 3.75 2.14a21.68 21.68 0 0016.87-4c1.19-.9 2.38-2.14 2.32-3.63a3.81 3.81 0 00-.39-1.44c-1-2.14-2.2-3.7-5.13-4.14" class="prefix__cls-5"/></svg>