<svg xmlns="http://www.w3.org/2000/svg" xmlns:xlink="http://www.w3.org/1999/xlink" viewBox="0 0 305 195"><defs/><defs><linearGradient id="b" x1="0%" x2="100%" y1="50%" y2="50%"><stop offset="0%" stop-color="#CFEDF9"/><stop offset="100%" stop-color="#F2F9FD"/></linearGradient><path id="a" d="M83.873.253C37.552.253 0 37.805 0 84.126c0 44.37 30.568 76.574 78.068 83.67 5.3.792 23.627 5.065 33.649 11.759C126.183 189.217 136.57 194 151.81 194c21.126 0 39.803-10.424 51.207-26.4 5.787-5.952 17.949-15.684 37.792-18.915 22.729-.498 41.004-19.065 41.004-41.913 0-23.161-18.775-41.936-41.936-41.936-.815 0-1.624.03-2.428.076-49.531.901-94.403-40.244-94.403-40.244l.005.043C127.885 9.602 106.974.253 83.873.253z"/></defs><g fill="none" fill-rule="evenodd"><g transform="translate(0 .746)"><mask id="c" fill="#fff"><use xlink:href="#a"/></mask><path fill="url(#b)" d="M83.873.253C37.552.253 0 37.805 0 84.126c0 44.37 30.568 76.574 78.068 83.67 5.3.792 23.627 5.065 33.649 11.759C126.183 189.217 136.57 194 151.81 194c21.126 0 39.803-10.424 51.207-26.4 5.787-5.952 17.949-15.684 37.792-18.915 22.729-.498 41.004-19.065 41.004-41.913 0-23.161-18.775-41.936-41.936-41.936-.815 0-1.624.03-2.428.076-49.531.901-94.403-40.244-94.403-40.244l.005.043C127.885 9.602 106.974.253 83.873.253z" mask="url(#c)"/></g><path fill="#0058B0" d="M221.343 129.33h-3.355a.42.42 0 010-.839h3.355a.42.42 0 010 .838m6.71 0h-3.356a.419.419 0 010-.839h3.356a.42.42 0 010 .84m6.709 0h-3.355a.419.419 0 010-.839h3.355a.42.42 0 110 .838m6.71 0h-3.355a.42.42 0 110-.839h3.355a.42.42 0 110 .84m6.71 0h-3.355a.42.42 0 110-.84h3.355a.42.42 0 110 .84m6.71 0h-3.355a.42.42 0 110-.84h3.355a.42.42 0 010 .84M66.467 85.742h-3.182a.419.419 0 110-.839h3.182a.42.42 0 110 .84m6.365 0H69.65a.418.418 0 110-.84h3.18a.42.42 0 110 .84m6.366 0h-3.182a.418.418 0 110-.84h3.182a.42.42 0 010 .84m6.366 0h-3.184a.419.419 0 110-.84h3.184a.42.42 0 010 .84M59.594 106.321L17.779 107.7l-1.838-43.837 45.491 1.654zM169.931 51.098a.42.42 0 01-.242-.763l2.744-1.93a.42.42 0 11.483.686l-2.743 1.93a.414.414 0 01-.242.077m-5.486 3.864a.419.419 0 01-.242-.762l2.744-1.932a.419.419 0 11.482.686l-2.743 1.932a.42.42 0 01-.24.076m-5.488 3.864a.42.42 0 01-.24-.763l2.743-1.933a.422.422 0 01.584.102.423.423 0 01-.1.585l-2.743 1.932a.424.424 0 01-.244.077m-5.484 3.862a.419.419 0 01-.242-.763l2.744-1.931a.422.422 0 01.584.102.422.422 0 01-.102.585l-2.743 1.93a.425.425 0 01-.242.077m-5.486 3.864a.419.419 0 01-.242-.763l2.744-1.931a.422.422 0 01.585.1.422.422 0 01-.102.586l-2.743 1.932a.425.425 0 01-.242.076M151.106 106.022a.417.417 0 01-.26-.09l-2.634-2.077a.422.422 0 01-.07-.59.422.422 0 01.59-.068l2.634 2.077a.42.42 0 01-.26.748m5.268 4.156a.417.417 0 01-.26-.09l-2.634-2.078a.419.419 0 11.52-.658l2.633 2.078a.42.42 0 01-.259.748m5.268 4.157a.423.423 0 01-.26-.09l-2.634-2.078a.42.42 0 01.52-.66l2.633 2.078a.418.418 0 01.07.589.417.417 0 01-.329.16m5.268 4.156a.423.423 0 01-.26-.09l-2.634-2.078a.42.42 0 01.52-.658l2.633 2.077a.42.42 0 01-.259.749m3.884 3.064a.416.416 0 01-.259-.09l-1.25-.987a.42.42 0 01-.07-.59.422.422 0 01.588-.068l1.251.987a.42.42 0 01.071.589.42.42 0 01-.33.159"/><path fill="#94C5FA" d="M190.698 67.246l-22.015-38.13h44.03z"/><path fill="#00DE91" d="M281.757 151.808l-23.243-23.243 23.243-23.244L305 128.565z"/><path fill="#FFD840" d="M214.093 126.212c0-11.274-9.605-18.387-20.881-18.387-11.274 0-20.88 9.294-20.88 20.57 0 11.273 10.853 22.75 22.127 22.75 11.275 0 19.634-13.658 19.634-24.933"/><path fill="#3397F5" d="M116.519 52.621L88.161 68.907l-.076 32.701 28.284 16.416 28.358-16.286.075-32.701z"/></g></svg>