<svg
  xmlns="http://www.w3.org/2000/svg"
  xmlns:xlink="http://www.w3.org/1999/xlink"
  viewBox="0 0 700 459"
><defs><style
    >.cls-1{isolation:isolate;}.cls-2{fill:#cfedf9;}.cls-3{fill:url(#linear-gradient);}.cls-10,.cls-4{opacity:0.49;}.cls-4{fill:url(#linear-gradient-2);}.cls-5{fill:#4e97ee;}.cls-6{fill:#7cb2f2;mix-blend-mode:multiply;}.cls-7{fill:#95c1f4;}.cls-8{opacity:0.5;}.cls-10,.cls-9{fill:#73c5e8;}.cls-11{fill:none;stroke:#fff;stroke-miterlimit:10;stroke-width:1.369px;}.cls-12{fill:#67a6f0;}.cls-13{fill:#306bc4;}.cls-14{fill:#128ce0;}.cls-15{fill:#00d283;}.cls-16{fill:#00de91;}.cls-17{fill:#00bf74;}.cls-18{fill:#00b265;}.cls-19{fill:#2e89c4;opacity:0.3;}</style><linearGradient
      id="linear-gradient"
      x1="246.389"
      y1="218.155"
      x2="452.312"
      y2="218.155"
      gradientUnits="userSpaceOnUse"
    ><stop offset="0" stop-color="#73c5e8" /><stop offset="0.449" stop-color="#cfedf9" /><stop
        offset="1"
        stop-color="#73c5e8"
      /></linearGradient><linearGradient
      id="linear-gradient-2"
      x1="-18.672"
      y1="219.303"
      x2="791.178"
      y2="216.78"
      gradientUnits="userSpaceOnUse"
    ><stop offset="0" stop-color="#73c5e8" /><stop offset="0.11" stop-color="#92d2ee" /><stop
        offset="0.251"
        stop-color="#b3e1f4"
      /><stop offset="0.369" stop-color="#c8eaf8" /><stop
        offset="0.447"
        stop-color="#cfedf9"
      /><stop offset="0.508" stop-color="#c4e8f7" /><stop
        offset="0.841"
        stop-color="#8acfec"
      /><stop offset="1" stop-color="#73c5e8" /></linearGradient></defs><g class="cls-1"><g
      id="Layer_1"
      data-name="Layer 1"
    ><ellipse class="cls-2" cx="350" cy="378" rx="139.614" ry="29.086" /><path
        class="cls-3"
        d="M452.312,346.321c-12.015,11.7-46.1,23.147-102.961,23.147s-90.071-6.813-102.962-23.147V169.805a102.962,102.962,0,1,1,205.923,0V346.321Z"
      /><path
        class="cls-4"
        d="M452.312,346.321c-12.015,11.7-46.1,23.147-102.961,23.147s-90.071-6.813-102.962-23.147V169.805a102.962,102.962,0,1,1,205.923,0V346.321Z"
      /><path
        class="cls-5"
        d="M461.928,360.005c0,16.478-50.378,29.836-112.523,29.836s-112.523-13.358-112.523-29.836c0-.77-.119-10.512-.119-10.512,4.41-15.408,53.4-6.242,112.642-6.242,57.977,0,106.381-8.172,112.523,6.767Z"
      /><ellipse class="cls-6" cx="349.405" cy="350.62" rx="112.523" ry="29.836" /><ellipse
        class="cls-7"
        cx="349.405"
        cy="348.914"
        rx="112.523"
        ry="29.836"
      /><g class="cls-8"><path
          class="cls-9"
          d="M349.351,369.468c56.864,0,90.946-11.449,102.961-23.147v-9.492c-17.492-10.457-56.986-17.751-102.907-17.751-46.016,0-85.579,7.324-103.016,17.815v9.428C259.28,362.655,292.486,369.468,349.351,369.468Z"
        /><path
          class="cls-10"
          d="M349.351,369.468c56.864,0,90.946-11.449,102.961-23.147v-9.492c-17.492-10.457-56.986-17.751-102.907-17.751-46.016,0-85.579,7.324-103.016,17.815v9.428C259.28,362.655,292.486,369.468,349.351,369.468Z"
        /></g><path
        class="cls-11"
        d="M452.312,345.391c-12.015,11.7-46.1,23.147-102.961,23.147s-90.071-6.813-102.962-23.147V168.875a102.962,102.962,0,1,1,205.923,0V345.391Z"
      /><g class="cls-1"><polygon
          class="cls-12"
          points="318.964 116.182 378.143 122.536 417.765 142.303 358.586 135.949 318.964 116.182"
        /><polygon
          class="cls-13"
          points="358.586 135.949 365.547 196.175 332.888 236.626 293.267 216.858 286.304 156.639 318.964 116.182 358.586 135.949"
        /><polygon
          class="cls-5"
          points="358.586 135.949 417.765 142.303 424.726 202.529 365.547 196.175 358.586 135.949"
        /><polygon
          class="cls-14"
          points="365.547 196.175 424.726 202.529 392.067 242.98 332.888 236.626 365.547 196.175"
        /></g><g class="cls-1"><polygon
          class="cls-15"
          points="327.461 240.095 294.896 245.164 323.359 230.274 355.924 225.204 327.461 240.095"
        /><polygon
          class="cls-16"
          points="355.924 225.204 380.393 249.96 376.406 289.61 347.944 304.5 323.468 279.741 327.461 240.095 355.924 225.204"
        /><polygon
          class="cls-17"
          points="347.944 304.5 315.378 309.569 290.903 284.81 323.468 279.741 347.944 304.5"
        /><polygon
          class="cls-18"
          points="323.468 279.741 290.903 284.81 294.896 245.164 327.461 240.095 323.468 279.741"
        /></g><path
        class="cls-19"
        d="M413.174,335.2c0-7.241-25.093-13.111-56.046-13.111s-56.047,5.87-56.047,13.111c0,3.238,5.02,6.2,13.335,8.488-11.4,1.212-19.378,4.006-19.378,7.259,0,4.365,14.361,7.9,32.076,7.9s32.077-3.538,32.077-7.9a3.47,3.47,0,0,0-1.832-2.636C388.206,348.277,413.174,342.419,413.174,335.2Z"
      /></g></g></svg>
