<svg
  xmlns="http://www.w3.org/2000/svg"
  xmlns:xlink="http://www.w3.org/1999/xlink"
  viewBox="0 0 700 459"
><defs><style
    >.cls-1{isolation:isolate;}.cls-2,.cls-63{fill:#cfedf9;}.cls-3{fill:#fff;}.cls-3,.cls-30,.cls-35{opacity:0.49;}.cls-4{fill:#00bf74;}.cls-5{fill:#00de91;}.cls-6{fill:#00b265;}.cls-7{fill:#00d283;}.cls-8{fill:#deecfc;}.cls-9{fill:#14d997;}.cls-10{fill:#72e8c1;}.cls-11{fill:#4e97ee;}.cls-12{fill:#58e4b5;}.cls-13{fill:#8cbbf4;}.cls-14{fill:#6691d3;}.cls-15{fill:#e5f0fd;}.cls-16{fill:#77aff2;}.cls-17{fill:#559bef;}.cls-18{fill:#aec5e8;}.cls-19{opacity:0.15;}.cls-19,.cls-31{mix-blend-mode:multiply;}.cls-20{fill:#306bc4;}.cls-21{fill:#6db2f8;}.cls-22{fill:#186acb;}.cls-23{fill:#4b8bd6;}.cls-24{fill:#5491d8;}.cls-25{fill:#b7d1ef;}.cls-26{fill:#4d8cd7;}.cls-27{fill:#2170cd;}.cls-28{fill:#a5c5eb;}.cls-29{fill:url(#linear-gradient);}.cls-30{fill:url(#linear-gradient-2);}.cls-31{fill:#7cb2f2;}.cls-32{fill:#95c1f4;}.cls-33{opacity:0.5;}.cls-34,.cls-35,.cls-60{fill:#73c5e8;}.cls-36{fill:none;stroke:#fff;stroke-miterlimit:10;stroke-width:1.369px;}.cls-37{fill:#67a6f0;}.cls-38{fill:#128ce0;}.cls-39,.cls-41{fill:#2e89c4;}.cls-39,.cls-60{opacity:0.3;}.cls-40{fill:url(#linear-gradient-3);}.cls-42{fill:url(#radial-gradient);}.cls-43{fill:#36b2e5;}.cls-44{fill:#a0d8ef;}.cls-45,.cls-47{fill:#e7f6fc;}.cls-45,.cls-47,.cls-63{opacity:0.35;}.cls-45,.cls-63{mix-blend-mode:overlay;}.cls-46{fill:url(#linear-gradient-4);}.cls-47{mix-blend-mode:screen;}.cls-48{fill:url(#linear-gradient-5);}.cls-49{fill:url(#radial-gradient-2);}.cls-50{fill:#ecb855;}.cls-51{fill:#ffd85f;}.cls-52{fill:#ffe080;}.cls-53{fill:#ffe8a0;}.cls-54{fill:#fff7df;}.cls-55{fill:url(#linear-gradient-6);}.cls-56{fill:url(#linear-gradient-7);}.cls-57{fill:url(#radial-gradient-3);}.cls-58{fill:url(#linear-gradient-9);}.cls-59{fill:url(#linear-gradient-10);}.cls-61{fill:#0fa371;}.cls-62{fill:url(#linear-gradient-11);}.cls-64{fill:#a1f0d5;}</style><linearGradient
      id="linear-gradient"
      x1="208.471"
      y1="219.571"
      x2="414.395"
      y2="219.571"
      gradientUnits="userSpaceOnUse"
    ><stop offset="0" stop-color="#73c5e8" /><stop offset="0.449" stop-color="#cfedf9" /><stop
        offset="1"
        stop-color="#73c5e8"
      /></linearGradient><linearGradient
      id="linear-gradient-2"
      x1="123.7"
      y1="219.989"
      x2="542.087"
      y2="219.059"
      gradientUnits="userSpaceOnUse"
    ><stop offset="0" stop-color="#73c5e8" /><stop offset="0.11" stop-color="#92d2ee" /><stop
        offset="0.251"
        stop-color="#b3e1f4"
      /><stop offset="0.369" stop-color="#c8eaf8" /><stop
        offset="0.447"
        stop-color="#cfedf9"
      /><stop offset="0.508" stop-color="#c4e8f7" /><stop
        offset="0.841"
        stop-color="#8acfec"
      /><stop offset="1" stop-color="#73c5e8" /></linearGradient><linearGradient
      id="linear-gradient-3"
      x1="522.104"
      y1="308.741"
      x2="379.211"
      y2="308.741"
      xlink:href="#linear-gradient"
    /><radialGradient
      id="radial-gradient"
      cx="455.678"
      cy="392.71"
      r="29.499"
      gradientTransform="translate(0 274.897) scale(1 0.3)"
      gradientUnits="userSpaceOnUse"
    ><stop offset="0" stop-color="#cbeaf6" /><stop
        offset="1"
        stop-color="#73c5e8"
      /></radialGradient><linearGradient
      id="linear-gradient-4"
      x1="456.838"
      y1="220.873"
      x2="456.838"
      y2="211.199"
      gradientUnits="userSpaceOnUse"
    ><stop offset="0.002" stop-color="#f3fafd" stop-opacity="0" /><stop
        offset="1"
        stop-color="#80ceef"
      /></linearGradient><linearGradient
      id="linear-gradient-5"
      x1="-529.39"
      y1="-4605.967"
      x2="-665.524"
      y2="-4605.967"
      gradientTransform="translate(1119.614 4846.149) rotate(-4.537)"
      xlink:href="#linear-gradient"
    /><radialGradient
      id="radial-gradient-2"
      cx="-2571.448"
      cy="-2960.239"
      r="24.199"
      gradientTransform="translate(1851.55 1666.122) scale(0.653 0.432)"
      xlink:href="#radial-gradient"
    /><linearGradient
      id="linear-gradient-6"
      x1="-592.175"
      y1="-4702.623"
      x2="-592.175"
      y2="-4710.85"
      gradientTransform="translate(1119.614 4846.149) rotate(-4.537)"
      xlink:href="#linear-gradient-4"
    /><linearGradient
      id="linear-gradient-7"
      x1="1890.558"
      y1="-8996.726"
      x2="1968.298"
      y2="-8996.726"
      gradientTransform="translate(9687.643 -920.313) rotate(-108.49)"
      xlink:href="#linear-gradient"
    /><radialGradient
      id="radial-gradient-3"
      cx="1228.949"
      cy="-6211.256"
      r="11.388"
      gradientTransform="matrix(0, -2.007, 0.454, 0, 3445.809, 2542.096)"
      xlink:href="#radial-gradient"
    /><linearGradient
      id="linear-gradient-9"
      x1="1890.558"
      y1="-9087.527"
      x2="1968.298"
      y2="-9087.527"
      gradientTransform="translate(9687.643 -920.313) rotate(-108.49)"
      xlink:href="#linear-gradient"
    /><linearGradient
      id="linear-gradient-10"
      x1="1890.558"
      y1="-9083.808"
      x2="1968.298"
      y2="-9083.808"
      gradientTransform="translate(9687.643 -920.313) rotate(-108.49)"
      xlink:href="#linear-gradient"
    /><linearGradient
      id="linear-gradient-11"
      x1="1929.193"
      y1="-9075.164"
      x2="1929.518"
      y2="-9089.938"
      gradientTransform="translate(9544.839 2061.29) rotate(-90)"
      xlink:href="#linear-gradient-4"
    /></defs><g class="cls-1"><g id="Layer_1" data-name="Layer 1"><ellipse
        class="cls-2"
        cx="323.856"
        cy="379.416"
        rx="139.614"
        ry="29.086"
      /><ellipse class="cls-2" cx="173.488" cy="389.507" rx="69.858" ry="18.693" /><ellipse
        class="cls-2"
        cx="456.053"
        cy="397.076"
        rx="69.858"
        ry="18.693"
      /><path
        class="cls-2"
        d="M232.165,379.641c0,7.043-25.184,12.884-58.141,13.961-3.58.117-81.792.178-85.533.178-38.182,0-69.135-6.33-69.135-14.139S50.309,365.5,88.491,365.5c3.785,0,82.039.062,85.659.182C207.045,366.771,232.165,372.606,232.165,379.641Z"
      /><path
        class="cls-2"
        d="M444.465,368.288c0-7.044,25.183-12.885,58.141-13.962,3.58-.117,81.792-.178,85.533-.178,38.182,0,69.134,6.331,69.134,14.14s-30.952,14.139-69.134,14.139c-3.785,0-82.039-.062-85.659-.182C469.584,381.157,444.465,375.322,444.465,368.288Z"
      /><path
        class="cls-3"
        d="M690.384,332.227c-5.56-44.445-38.38-80-80.466-87.962a74.673,74.673,0,0,0,3.514-22.713c0-39.861-31.106-72.175-69.478-72.175-30.24,0-55.963,20.071-65.509,48.086-6.166-25.977-28.74-45.243-55.65-45.243-21.482,0-40.2,12.278-50.015,30.445l-96.387,43.726-48.77-42.122C218.1,165.106,198.854,152,176.662,152c-31.656,0-57.318,26.658-57.318,59.543a61.273,61.273,0,0,0,5.152,24.7,75.866,75.866,0,0,0-37.2-9.72c-43.363,0-78.515,36.517-78.515,81.563a84.033,84.033,0,0,0,6.145,31.683c1.154,2.842,20.154,31.156,21.6,33.823H492.858c95.385,0,154.209,2.523,188.268-8.83.018-.8,10.092-18.328,10.092-19.131A108,108,0,0,0,690.384,332.227Z"
      /><circle class="cls-3" cx="82.569" cy="169.873" r="19.552" /><circle
        class="cls-3"
        cx="62.406"
        cy="256.893"
        r="37.863"
      /><circle class="cls-3" cx="653.375" cy="227.712" r="13.452" /><circle
        class="cls-3"
        cx="550.283"
        cy="201.057"
        r="30.218"
      /><g class="cls-1"><polygon
          class="cls-4"
          points="100.855 383.99 67.803 369.287 38.859 326.83 71.911 341.534 100.855 383.99"
        /><polygon
          class="cls-5"
          points="148.862 283.935 177.812 326.391 153.805 376.419 100.855 383.99 71.911 341.534 95.911 291.506 148.862 283.935"
        /><polygon
          class="cls-6"
          points="71.911 341.534 38.859 326.83 62.859 276.802 95.911 291.506 71.911 341.534"
        /><polygon
          class="cls-7"
          points="95.911 291.506 62.859 276.802 115.81 269.231 148.862 283.935 95.911 291.506"
        /></g><rect
        class="cls-8"
        x="552.843"
        y="223.176"
        width="26.885"
        height="61.867"
        transform="translate(312.176 820.395) rotate(-90)"
      /><rect
        class="cls-9"
        x="444.884"
        y="174.997"
        width="32.372"
        height="158.225"
        transform="translate(715.179 -206.961) rotate(90)"
      /><path
        class="cls-10"
        d="M521.581,251.694h32.372a0,0,0,0,1,0,0v0a4.83,4.83,0,0,1-4.83,4.83H526.412a4.83,4.83,0,0,1-4.83-4.83v0a0,0,0,0,1,0,0Z"
        transform="translate(791.877 -283.658) rotate(90)"
      /><path
        class="cls-10"
        d="M570.816,209.817h.432a2.527,2.527,0,0,1,2.527,2.527v59.173a0,0,0,0,1,0,0h-5.486a0,0,0,0,1,0,0V212.344A2.527,2.527,0,0,1,570.816,209.817Z"
        transform="translate(811.699 -330.366) rotate(90)"
      /><path
        class="cls-10"
        d="M570.816,236.7h.432a2.527,2.527,0,0,1,2.527,2.527V298.4a0,0,0,0,1,0,0h-5.486a0,0,0,0,1,0,0V239.229A2.527,2.527,0,0,1,570.816,236.7Z"
        transform="translate(838.584 -303.48) rotate(90)"
      /><rect
        class="cls-11"
        x="568.331"
        y="233.499"
        width="0.74"
        height="57.037"
        transform="translate(830.718 -306.683) rotate(90)"
      /><rect
        class="cls-11"
        x="568.331"
        y="229.545"
        width="0.74"
        height="57.037"
        transform="translate(826.764 -310.637) rotate(90)"
      /><rect
        class="cls-11"
        x="568.331"
        y="225.591"
        width="0.74"
        height="57.037"
        transform="translate(822.81 -314.591) rotate(90)"
      /><rect
        class="cls-11"
        x="568.331"
        y="221.637"
        width="0.74"
        height="57.037"
        transform="translate(818.856 -318.545) rotate(90)"
      /><rect
        class="cls-11"
        x="568.331"
        y="217.683"
        width="0.74"
        height="57.037"
        transform="translate(814.902 -322.499) rotate(90)"
      /><rect
        class="cls-12"
        x="497.769"
        y="250.36"
        width="32.372"
        height="7.498"
        transform="translate(768.064 -259.845) rotate(90)"
      /><rect
        class="cls-12"
        x="479.409"
        y="244.351"
        width="32.372"
        height="19.517"
        transform="translate(749.705 -241.486) rotate(90)"
      /><rect
        class="cls-11"
        x="439.218"
        y="253.16"
        width="53.396"
        height="167.918"
        transform="translate(128.797 803.036) rotate(-90)"
      /><rect
        class="cls-13"
        x="420.051"
        y="335.358"
        width="53.396"
        height="3.523"
        transform="translate(109.63 783.868) rotate(-90)"
      /><rect
        class="cls-13"
        x="409.877"
        y="335.358"
        width="53.396"
        height="3.523"
        transform="translate(99.456 773.695) rotate(-90)"
      /><rect
        class="cls-13"
        x="477.328"
        y="335.358"
        width="53.396"
        height="3.523"
        transform="translate(166.908 841.146) rotate(-90)"
      /><ellipse class="cls-14" cx="475.711" cy="337.209" rx="15.013" ry="17.686" /><rect
        class="cls-15"
        x="559.601"
        y="303.161"
        width="46.389"
        height="67.002"
        transform="translate(246.133 919.457) rotate(-90)"
      /><path
        class="cls-16"
        d="M520.282,334.907h53.195a0,0,0,0,1,0,0v0a4.83,4.83,0,0,1-4.83,4.83H525.112a4.83,4.83,0,0,1-4.83-4.83v0A0,0,0,0,1,520.282,334.907Z"
        transform="translate(884.201 -209.557) rotate(90)"
      /><path
        class="cls-17"
        d="M521.688,334.907h53.195a0,0,0,0,1,0,0v0a4.83,4.83,0,0,1-4.83,4.83H526.518a4.83,4.83,0,0,1-4.83-4.83v0A0,0,0,0,1,521.688,334.907Z"
        transform="translate(885.608 -210.964) rotate(90)"
      /><path
        class="cls-17"
        d="M585.614,278.339h.432a2.527,2.527,0,0,1,2.527,2.527V348.6a0,0,0,0,1,0,0h-5.486a0,0,0,0,1,0,0V280.866A2.527,2.527,0,0,1,585.614,278.339Z"
        transform="translate(899.298 -272.362) rotate(90)"
      /><path
        class="cls-17"
        d="M585.614,325.945h.432a2.527,2.527,0,0,1,2.527,2.527V396.2a0,0,0,0,1,0,0h-5.486a0,0,0,0,1,0,0V328.472A2.527,2.527,0,0,1,585.614,325.945Z"
        transform="translate(946.904 -224.756) rotate(90)"
      /><rect
        class="cls-18"
        x="583.128"
        y="313.921"
        width="0.74"
        height="65.595"
        transform="translate(930.216 -236.78) rotate(90)"
      /><rect
        class="cls-18"
        x="583.128"
        y="304.747"
        width="0.74"
        height="65.595"
        transform="translate(921.043 -245.954) rotate(90)"
      /><rect
        class="cls-18"
        x="583.128"
        y="295.574"
        width="0.74"
        height="65.595"
        transform="translate(911.87 -255.127) rotate(90)"
      /><rect
        class="cls-18"
        x="583.128"
        y="318.507"
        width="0.74"
        height="65.595"
        transform="translate(934.803 -232.194) rotate(90)"
      /><rect
        class="cls-18"
        x="583.128"
        y="323.094"
        width="0.74"
        height="65.595"
        transform="translate(939.39 -227.607) rotate(90)"
      /><rect
        class="cls-18"
        x="583.128"
        y="309.334"
        width="0.74"
        height="65.595"
        transform="translate(925.63 -241.367) rotate(90)"
      /><rect
        class="cls-18"
        x="583.128"
        y="300.161"
        width="0.74"
        height="65.595"
        transform="translate(916.457 -250.54) rotate(90)"
      /><rect
        class="cls-18"
        x="583.128"
        y="290.987"
        width="0.74"
        height="65.595"
        transform="translate(907.283 -259.714) rotate(90)"
      /><rect
        class="cls-18"
        x="583.128"
        y="286.401"
        width="0.74"
        height="65.595"
        transform="translate(902.697 -264.3) rotate(90)"
      /><g class="cls-19"><polygon
          class="cls-20"
          points="528.992 310.421 381.957 310.421 381.957 363.817 528.992 310.421"
        /></g><rect
        class="cls-11"
        x="440.847"
        y="147.312"
        width="32.176"
        height="149.954"
        transform="translate(234.646 679.224) rotate(-90)"
      /><rect
        class="cls-11"
        x="428.904"
        y="220.804"
        width="32.176"
        height="2.969"
        transform="translate(222.703 667.281) rotate(-90)"
      /><rect
        class="cls-11"
        x="420.329"
        y="220.804"
        width="32.176"
        height="2.969"
        transform="translate(214.128 658.706) rotate(-90)"
      /><rect
        class="cls-11"
        x="477.18"
        y="220.804"
        width="32.176"
        height="2.969"
        transform="translate(270.979 715.557) rotate(-90)"
      /><ellipse class="cls-11" cx="469.403" cy="222.343" rx="12.653" ry="10.657" /><rect
        class="cls-15"
        x="545.682"
        y="193.777"
        width="27.953"
        height="56.473"
        transform="translate(337.644 781.672) rotate(-90)"
      /><path
        class="cls-11"
        d="M513.359,220.376h32.054a0,0,0,0,1,0,0V221a3.442,3.442,0,0,1-3.442,3.442H516.8A3.442,3.442,0,0,1,513.359,221v-.629A0,0,0,0,1,513.359,220.376Z"
        transform="translate(751.798 -306.975) rotate(90)"
      /><path
        class="cls-11"
        d="M514.545,220.376H546.6a0,0,0,0,1,0,0V221a3.442,3.442,0,0,1-3.442,3.442h-25.17A3.442,3.442,0,0,1,514.545,221v-.629a0,0,0,0,1,0,0Z"
        transform="translate(752.983 -308.16) rotate(90)"
      /><path
        class="cls-11"
        d="M562.216,178.429h0a1.653,1.653,0,0,1,1.653,1.653v57.564a0,0,0,0,1,0,0h-3.306a0,0,0,0,1,0,0V180.082A1.653,1.653,0,0,1,562.216,178.429Z"
        transform="translate(770.253 -354.179) rotate(90)"
      /><path
        class="cls-11"
        d="M562.216,207.115h0a1.653,1.653,0,0,1,1.653,1.653v57.564a0,0,0,0,1,0,0h-3.306a0,0,0,0,1,0,0V208.768A1.653,1.653,0,0,1,562.216,207.115Z"
        transform="translate(798.94 -325.492) rotate(90)"
      /><rect
        class="cls-11"
        x="560.028"
        y="200.43"
        width="0.446"
        height="55.287"
        transform="translate(788.324 -332.178) rotate(90)"
      /><rect
        class="cls-11"
        x="560.028"
        y="194.902"
        width="0.446"
        height="55.287"
        transform="translate(782.797 -337.705) rotate(90)"
      /><rect
        class="cls-11"
        x="560.028"
        y="189.375"
        width="0.446"
        height="55.287"
        transform="translate(777.269 -343.233) rotate(90)"
      /><rect
        class="cls-11"
        x="560.028"
        y="203.194"
        width="0.446"
        height="55.287"
        transform="translate(791.088 -329.414) rotate(90)"
      /><rect
        class="cls-11"
        x="560.028"
        y="205.957"
        width="0.446"
        height="55.287"
        transform="translate(793.852 -326.65) rotate(90)"
      /><rect
        class="cls-11"
        x="560.028"
        y="197.666"
        width="0.446"
        height="55.287"
        transform="translate(785.56 -334.942) rotate(90)"
      /><rect
        class="cls-11"
        x="560.028"
        y="192.138"
        width="0.446"
        height="55.287"
        transform="translate(780.033 -340.469) rotate(90)"
      /><rect
        class="cls-11"
        x="560.028"
        y="186.611"
        width="0.446"
        height="55.287"
        transform="translate(774.505 -345.997) rotate(90)"
      /><rect
        class="cls-11"
        x="560.028"
        y="183.847"
        width="0.446"
        height="55.287"
        transform="translate(771.741 -348.761) rotate(90)"
      /><g class="cls-19"><polygon
          class="cls-21"
          points="514.31 206.201 381.957 206.201 381.957 238.377 514.31 206.201"
        /></g><polygon
        class="cls-22"
        points="381.957 309.316 382.901 270.295 555.712 270.295 555.712 309.316 381.957 309.316"
      /><rect
        class="cls-23"
        x="397.023"
        y="279.223"
        width="22.737"
        height="20.222"
        rx="2.574"
        transform="translate(697.726 -119.057) rotate(90)"
      /><g class="cls-19"><polygon
          class="cls-22"
          points="539.755 270.295 381.957 270.295 381.957 289.939 539.755 270.295"
        /></g><rect
        class="cls-24"
        x="434.352"
        y="273.786"
        width="5.739"
        height="24.439"
        transform="translate(723.227 -151.216) rotate(90)"
      /><rect
        class="cls-24"
        x="455.251"
        y="262.511"
        width="5.472"
        height="65.97"
        transform="translate(753.483 -162.492) rotate(90)"
      /><rect
        class="cls-25"
        x="571.039"
        y="256.305"
        width="33.534"
        height="67.002"
        transform="translate(298.001 877.611) rotate(-90)"
      /><path
        class="cls-26"
        d="M532.38,287.39H571.4a0,0,0,0,1,0,0v0a4.83,4.83,0,0,1-4.83,4.83H537.21a4.83,4.83,0,0,1-4.83-4.83v0A0,0,0,0,1,532.38,287.39Z"
        transform="translate(841.695 -262.085) rotate(90)"
      /><path
        class="cls-27"
        d="M533.786,287.39h39.02a0,0,0,0,1,0,0v0a4.83,4.83,0,0,1-4.83,4.83h-29.36a4.83,4.83,0,0,1-4.83-4.83v0A0,0,0,0,1,533.786,287.39Z"
        transform="translate(843.102 -263.491) rotate(90)"
      /><path
        class="cls-27"
        d="M590.625,237.909h.432a2.527,2.527,0,0,1,2.527,2.527v67.731a0,0,0,0,1,0,0H588.1a0,0,0,0,1,0,0V240.437A2.527,2.527,0,0,1,590.625,237.909Z"
        transform="translate(863.879 -317.803) rotate(90)"
      /><path
        class="cls-27"
        d="M590.625,271.443h.432a2.527,2.527,0,0,1,2.527,2.527V341.7a0,0,0,0,1,0,0H588.1a0,0,0,0,1,0,0V273.971a2.527,2.527,0,0,1,2.527-2.527Z"
        transform="translate(897.413 -284.268) rotate(90)"
      /><rect
        class="cls-28"
        x="588.139"
        y="262.801"
        width="0.74"
        height="65.595"
        transform="translate(884.108 -292.911) rotate(90)"
      /><rect
        class="cls-28"
        x="588.139"
        y="257.126"
        width="0.74"
        height="65.595"
        transform="translate(878.433 -298.586) rotate(90)"
      /><rect
        class="cls-28"
        x="588.139"
        y="251.451"
        width="0.74"
        height="65.595"
        transform="translate(872.758 -304.261) rotate(90)"
      /><rect
        class="cls-28"
        x="588.139"
        y="265.639"
        width="0.74"
        height="65.595"
        transform="translate(886.946 -290.073) rotate(90)"
      /><rect
        class="cls-28"
        x="588.139"
        y="268.476"
        width="0.74"
        height="65.595"
        transform="translate(889.783 -287.235) rotate(90)"
      /><rect
        class="cls-28"
        x="588.139"
        y="259.964"
        width="0.74"
        height="65.595"
        transform="translate(881.271 -295.748) rotate(90)"
      /><rect
        class="cls-28"
        x="588.139"
        y="254.288"
        width="0.74"
        height="65.595"
        transform="translate(875.595 -301.423) rotate(90)"
      /><rect
        class="cls-28"
        x="588.139"
        y="248.613"
        width="0.74"
        height="65.595"
        transform="translate(869.92 -307.098) rotate(90)"
      /><rect
        class="cls-28"
        x="588.139"
        y="245.776"
        width="0.74"
        height="65.595"
        transform="translate(867.083 -309.936) rotate(90)"
      /><path
        class="cls-29"
        d="M414.4,347.737c-12.015,11.7-46.1,23.146-102.962,23.146s-90.071-6.813-102.962-23.146V171.221a102.962,102.962,0,0,1,205.924,0V347.737Z"
      /><path
        class="cls-30"
        d="M414.4,347.737c-12.015,11.7-46.1,23.146-102.962,23.146s-90.071-6.813-102.962-23.146V171.221a102.962,102.962,0,0,1,205.924,0V347.737Z"
      /><path
        class="cls-11"
        d="M424.011,361.421c0,16.478-50.379,29.836-112.523,29.836S198.965,377.9,198.965,361.421c0-.77-.119-10.512-.119-10.512,4.41-15.408,53.4-6.242,112.642-6.242,57.977,0,106.381-8.172,112.523,6.767Z"
      /><ellipse class="cls-31" cx="311.488" cy="352.036" rx="112.523" ry="29.836" /><ellipse
        class="cls-32"
        cx="311.488"
        cy="350.33"
        rx="112.523"
        ry="29.836"
      /><g class="cls-33"><path
          class="cls-34"
          d="M311.433,370.883c56.865,0,90.947-11.448,102.962-23.146v-9.493c-17.492-10.456-56.986-17.75-102.907-17.75-46.016,0-85.579,7.324-103.017,17.815v9.428C221.362,364.07,254.569,370.883,311.433,370.883Z"
        /><path
          class="cls-35"
          d="M311.433,370.883c56.865,0,90.947-11.448,102.962-23.146v-9.493c-17.492-10.456-56.986-17.75-102.907-17.75-46.016,0-85.579,7.324-103.017,17.815v9.428C221.362,364.07,254.569,370.883,311.433,370.883Z"
        /></g><path
        class="cls-36"
        d="M414.4,346.807c-12.015,11.7-46.1,23.147-102.962,23.147s-90.071-6.813-102.962-23.147V170.291a102.962,102.962,0,0,1,205.924,0V346.807Z"
      /><g class="cls-1"><polygon
          class="cls-37"
          points="281.047 117.597 340.226 123.951 379.848 143.719 320.669 137.365 281.047 117.597"
        /><polygon
          class="cls-20"
          points="320.669 137.365 327.63 197.59 294.971 238.042 255.349 218.274 248.387 158.055 281.047 117.597 320.669 137.365"
        /><polygon
          class="cls-11"
          points="320.669 137.365 379.848 143.719 386.809 203.945 327.63 197.59 320.669 137.365"
        /><polygon
          class="cls-38"
          points="327.63 197.59 386.809 203.945 354.15 244.396 294.971 238.042 327.63 197.59"
        /></g><g class="cls-1"><polygon
          class="cls-7"
          points="289.544 241.511 256.979 246.58 285.442 231.689 318.007 226.62 289.544 241.511"
        /><polygon
          class="cls-5"
          points="318.007 226.62 342.476 251.376 338.489 291.025 310.026 305.916 285.55 281.157 289.544 241.511 318.007 226.62"
        /><polygon
          class="cls-4"
          points="310.026 305.916 277.461 310.985 252.985 286.226 285.55 281.157 310.026 305.916"
        /><polygon
          class="cls-6"
          points="285.55 281.157 252.985 286.226 256.979 246.58 289.544 241.511 285.55 281.157"
        /></g><path
        class="cls-39"
        d="M375.257,336.612c0-7.241-25.093-13.111-56.047-13.111s-56.046,5.87-56.046,13.111c0,3.238,5.02,6.2,13.335,8.488-11.4,1.212-19.378,4.006-19.378,7.259,0,4.365,14.361,7.9,32.076,7.9s32.076-3.538,32.076-7.9a3.47,3.47,0,0,0-1.831-2.637C350.289,349.693,375.257,343.835,375.257,336.612Z"
      /><path
        class="cls-40"
        d="M511.963,375.859,476.216,263.443V214.094H435.559v49.349L399.811,375.859a19.4,19.4,0,0,0,15.806,24.957s25.55,2.573,41.812,2.573c16.824,0,38.728-2.573,38.728-2.573C509.582,399.974,515.364,386.555,511.963,375.859Z"
      /><path
        class="cls-41"
        d="M433.316,309.147s41.217-17.945,47.106-1.963,8.411,25.236,8.411,25.236S446.214,353.169,433.316,309.147Z"
      /><ellipse class="cls-42" cx="455.678" cy="392.71" rx="41.218" ry="6.443" /><path
        class="cls-43"
        d="M431.353,302.418,408.1,376.443c-2.1,6.67,1.8,12.055,9.879,13.457a276.466,276.466,0,0,0,40.1,3.345c17.221,0,36.637-3.345,36.637-3.345,7.082-1.4,12.125-7.037,9.775-13.767l-24.073-68.949s-2.8,6.169-11.777,4.206S448.457,293.725,431.353,302.418Z"
      /><path
        class="cls-34"
        d="M466.141,279.925a4.007,4.007,0,1,1-4.006,4.006,4.007,4.007,0,0,1,4.006-4.006m0-1.287a5.293,5.293,0,1,0,5.293,5.293,5.3,5.3,0,0,0-5.293-5.293Z"
      /><circle class="cls-2" cx="461.842" cy="295.007" r="3.278" /><circle
        class="cls-34"
        cx="456.308"
        cy="266.247"
        r="2.804"
      /><path
        class="cls-34"
        d="M465.981,318.68a4.627,4.627,0,1,1-4.626,4.627,4.628,4.628,0,0,1,4.626-4.627m0-1.286a5.913,5.913,0,1,0,5.913,5.913,5.92,5.92,0,0,0-5.913-5.913Z"
      /><circle class="cls-34" cx="461.355" cy="347" r="8.412" /><circle
        class="cls-34"
        cx="477.477"
        cy="335.924"
        r="3.225"
      /><path
        class="cls-34"
        d="M476.917,363.123a2.383,2.383,0,1,1-2.384,2.383,2.383,2.383,0,0,1,2.384-2.383m0-1.287a3.67,3.67,0,1,0,3.67,3.67,3.674,3.674,0,0,0-3.67-3.67Z"
      /><circle class="cls-2" cx="469.486" cy="345.318" r="3.344" /><path
        class="cls-44"
        d="M480.281,220.192c0,2.672-10.639,4.837-23.763,4.837s-23.763-2.165-23.763-4.837V213.6s14.07,1.757,23.763,1.757c8.527,0,23.763-2.344,23.763-2.344Z"
      /><path
        class="cls-45"
        d="M444.531,227.272v43.461L414.8,370.593c-4.2,11.736.568,14.075,10.667,16.4,0,0,29.675,2.577,34.764,2.205.982-.072-30.843-13.6-26.076-41.36s8.972-38.694,15.982-63.929c3.193-11.494,4.206-56.079,4.206-56.079Z"
      /><ellipse class="cls-8" cx="456.518" cy="213.463" rx="23.763" ry="4.837" /><path
        class="cls-2"
        d="M480.281,213.463c0-2.671-10.639-4.837-23.763-4.837s-23.763,2.166-23.763,4.837c0,1.082,1.746,2.081,4.695,2.887,0-1.628-.09-3.176-.09-3.176,5.068-1.393,11.3-1.975,19.158-1.975,8.263,0,15.541.859,19.8,2.161l-.182,2.833C478.75,215.416,480.281,214.476,480.281,213.463Z"
      /><path
        class="cls-8"
        d="M456.518,211.2c-7.862,0-14.09.582-19.158,1.975,0,0,.095,1.548.09,3.176,4.332,1.183,11.26,1.95,19.068,1.95,8.148,0,15.336-.835,19.617-2.107l.182-2.833C472.059,212.058,464.781,211.2,456.518,211.2Z"
      /><path
        class="cls-46"
        d="M456.518,211.2c-7.862,0-14.09.582-19.158,1.975,0,0,.095,1.548.09,3.176,4.332,1.183,11.26,1.95,19.068,1.95,8.148,0,15.336-.835,19.617-2.107l.182-2.833C472.059,212.058,464.781,211.2,456.518,211.2Z"
      /><path
        class="cls-47"
        d="M440.606,222.786a64.559,64.559,0,0,0,11.5,1.122l-.14-4.066s-6.87.28-11.637-1.122Z"
      /><path
        class="cls-48"
        d="M179.739,290.946l-6.338-87.3-32.815,2.6,7.5,87.037s-6.207,3.032-9.092,4.711c-16.849,9.807-26.751,29.412-25.1,50.2a54.3,54.3,0,1,0,75.881-54.06C189.007,293.8,179.739,290.946,179.739,290.946Z"
      /><ellipse
        class="cls-49"
        cx="172.3"
        cy="387.968"
        rx="22.081"
        ry="7.607"
        transform="translate(-30.152 14.846) rotate(-4.537)"
      /><path
        class="cls-50"
        d="M121.345,328.036s7.866-10.656,29.362.772,41.055,7.392,41.055,7.392-32.129,24.559-48.62,18.058S117.879,340.473,121.345,328.036Z"
      /><path
        class="cls-51"
        d="M216.859,339.62a49.078,49.078,0,1,1-95.514-11.584s11.768,17.64,31.893,14.771c22.465-3.2,25.166-14.418,35.725-19.519,12.307-5.947,22.54-2.407,22.54-2.407A48.93,48.93,0,0,1,216.859,339.62Z"
      /><path
        class="cls-52"
        d="M192.858,330.771a2.866,2.866,0,0,1,0,5.731,2.866,2.866,0,0,1,0-5.731m0-.92h0a3.806,3.806,0,0,0-3.626,2.7,3.786,3.786,0,0,0,3.628,4.866,3.806,3.806,0,0,0,3.626-2.705,3.787,3.787,0,0,0-3.628-4.866Z"
      /><circle class="cls-53" cx="203.087" cy="336.489" r="2.344" /><circle
        class="cls-53"
        cx="180.189"
        cy="377.406"
        r="2.005"
      /><path
        class="cls-52"
        d="M188.236,356.274a6.811,6.811,0,1,1-6.524,4.868,6.814,6.814,0,0,1,6.524-4.868m0-1.894h0a8.709,8.709,0,1,0,2.488.364,8.756,8.756,0,0,0-2.488-.364Z"
      /><circle class="cls-53" cx="204.183" cy="351.114" r="6.015" /><circle
        class="cls-53"
        cx="194.872"
        cy="318.204"
        r="2.306"
      /><path
        class="cls-52"
        d="M201.263,365.411a1.7,1.7,0,1,1-1.633,1.218,1.714,1.714,0,0,1,1.633-1.218m0-.92h0a2.627,2.627,0,1,0,.75.11,2.64,2.64,0,0,0-.75-.11Z"
      /><circle class="cls-54" cx="187.321" cy="367.1" r="2.392" /><path
        class="cls-44"
        d="M176.711,202.988c.18,2.264-8.516,4.8-19.423,5.667s-19.9-.268-20.075-2.533l-.443-5.589a196.714,196.714,0,0,0,19.867-.078c7.087-.563,19.591-3.555,19.591-3.555Z"
      /><ellipse
        class="cls-8"
        cx="156.51"
        cy="198.85"
        rx="19.811"
        ry="4.113"
        transform="translate(-15.24 13.005) rotate(-4.537)"
      /><path
        class="cls-2"
        d="M176.259,197.283c-.18-2.265-9.168-3.4-20.075-2.533s-19.6,3.4-19.423,5.667c.072.918,1.591,1.649,4.1,2.138-.1-1.38-.289-2.686-.289-2.686,4.119-1.516,9.255-2.419,15.789-2.938,6.868-.545,12.974-.3,16.6.526l.04,2.414C175.118,199.04,176.327,198.142,176.259,197.283Z"
      /><path
        class="cls-8"
        d="M156.357,196.931c-6.534.519-11.67,1.422-15.789,2.938,0,0,.184,1.306.289,2.686a64.539,64.539,0,0,0,15.978.395c6.771-.537,12.689-1.719,16.162-3.079l-.04-2.414C169.331,196.634,163.225,196.386,156.357,196.931Z"
      /><path
        class="cls-55"
        d="M156.357,196.931c-6.534.519-11.67,1.422-15.789,2.938,0,0,.184,1.306.289,2.686a64.539,64.539,0,0,0,15.978.395c6.771-.537,12.689-1.719,16.162-3.079l-.04-2.414C169.331,196.634,163.225,196.386,156.357,196.931Z"
      /><path
        class="cls-47"
        d="M143.913,207.8a52.867,52.867,0,0,0,9.629.193l-.39-3.438a35.99,35.99,0,0,1-9.746-.183Z"
      /><path
        class="cls-56"
        d="M445,99.639s-.825-3.833.68-4.793,3.667,4.252,3.667,4.252l95.169-31.825c72.8-24.345,74.346-23.8,75.145-22.552,2.306,3.6,7.1,12.23,12.608,28.69s6.859,26.233,7.185,30.5a3.233,3.233,0,0,1-2.2,3.314L471.953,162.5s.143,5.887-1.637,6.026-3.426-3.419-3.426-3.419S462,154.874,454.624,132.815C447.24,110.733,445,99.639,445,99.639Z"
      /><path
        class="cls-56"
        d="M445,99.639s-.825-3.833.68-4.793,4.933,3.829,4.933,3.829L615.906,43.4a3.235,3.235,0,0,1,3.751,1.323c2.306,3.6,7.1,12.23,12.608,28.69s6.859,26.233,7.185,30.5a3.233,3.233,0,0,1-2.2,3.314L471.953,162.5s.143,5.887-1.637,6.026-3.426-3.419-3.426-3.419S462,154.874,454.624,132.815C447.24,110.733,445,99.639,445,99.639Z"
      /><ellipse
        class="cls-57"
        cx="626.788"
        cy="74.99"
        rx="3.763"
        ry="31.942"
        transform="translate(8.574 202.653) rotate(-18.49)"
      /><path
        class="cls-58"
        d="M445.676,94.846c-1.5.96-.68,4.793-.68,4.793s2.244,11.094,9.628,33.176c7.377,22.059,12.266,32.294,12.266,32.294s1.646,3.558,3.426,3.419c.789-.061,1.2-1.252,1.413-2.558-3.466-1.719-10.368-15.735-16.3-33.461-5.911-17.677-8.829-32.99-7.124-36.5C447.362,95.107,446.335,94.426,445.676,94.846Z"
      /><path
        class="cls-59"
        d="M471.729,165.97a21.769,21.769,0,0,0,.224-3.468l1.913-.639c-.086-6.312-2.895-18.893-7.6-32.975-4.692-14.03-9.994-25.736-13.72-30.859l-1.933.646a21.669,21.669,0,0,0-2.3-2.669c-1.705,3.513,1.213,18.826,7.124,36.5C461.361,150.235,468.263,164.251,471.729,165.97Z"
      /><path
        class="cls-60"
        d="M471.729,165.97a21.769,21.769,0,0,0,.224-3.468l1.913-.639c-.086-6.312-2.895-18.893-7.6-32.975-4.692-14.03-9.994-25.736-13.72-30.859l-1.933.646a21.669,21.669,0,0,0-2.3-2.669c-1.705,3.513,1.213,18.826,7.124,36.5C461.361,150.235,468.263,164.251,471.729,165.97Z"
      /><path
        class="cls-61"
        d="M547.792,114.52s-64.167,28.486-44.48,24.111c52.379-11.64,77.321-22.864,77.321-22.864l49.052-28.683-4.157-17.875s-13.345,11.733-18.29,14.965C593.27,93.3,547.792,114.52,547.792,114.52Z"
      /><path
        class="cls-9"
        d="M469.641,160.247,631.825,105.5a2.911,2.911,0,0,0,1.981-2.982c-.292-3.839-1.514-12.641-6.468-27.457,0,0-18.874,27.964-42.548,29.9C539.063,108.7,482.471,131.778,468.6,150.27A6.927,6.927,0,0,0,469.641,160.247Z"
      /><ellipse
        class="cls-62"
        cx="457.469"
        cy="131.829"
        rx="3.6"
        ry="37.328"
        transform="translate(-18.193 151.888) rotate(-18.49)"
      /><path
        class="cls-2"
        d="M460.929,130.824c-6.538-19.551-13.367-34.89-15.253-34.259-.9.3.165,7.021.165,7.021-1.386-5.737-1.1-6.251-1.079-6.924.048-1.475,1.559-3.356,3.49-1.282,4.157,4.469,10.72,18.748,15.624,33.412l.584,1.746c4.9,14.664,8.25,30.019,7.617,36.089-.294,2.818-2.633,2.224-3.559,1.076-.423-.525-.959-.764-3.3-6.181,0,0,3.189,6.01,4.092,5.708,1.886-.631-1.886-16.992-8.424-36.543"
      /><path
        class="cls-63"
        d="M475.8,153.462l153.071-51.188a171.335,171.335,0,0,0-11.431-40.865s-20.849,37.881-65.281,56.464c-50.98,21.321-77.369,30.341-77.369,30.341Z"
      /><path
        class="cls-10"
        d="M560.948,118.77a3.366,3.366,0,1,1-1.152.2,3.365,3.365,0,0,1,1.152-.2m0-1.08a4.446,4.446,0,1,0,4.176,2.923,4.43,4.43,0,0,0-4.176-2.923Z"
      /><circle class="cls-10" cx="535.51" cy="114.44" r="2.752" /><path
        class="cls-10"
        d="M519.885,119.382a3.888,3.888,0,1,1-1.33.236,3.887,3.887,0,0,1,1.33-.236m0-1.08h0a4.966,4.966,0,1,0,4.665,3.266,4.944,4.944,0,0,0-4.665-3.266Z"
      /><circle class="cls-10" cx="513.237" cy="135.967" r="2.708" /><path
        class="cls-10"
        d="M489.738,142.03a2,2,0,1,1-.686.122,2,2,0,0,1,.686-.122m0-1.08a3.082,3.082,0,1,0,2.895,2.027,3.08,3.08,0,0,0-2.895-2.027Z"
      /><circle class="cls-64" cx="503.528" cy="132.364" r="2.808" /><circle
        class="cls-64"
        cx="571.615"
        cy="113.571"
        r="2.585"
      /><path
        class="cls-9"
        d="M469.433,161.7l-2.494-10.184c-21.825,22.863-23.859,46.974-20.534,56.119,3.705,10.188,15.919,7.483,19.661,0S455.923,182.7,469.433,161.7Z"
      /></g></g></svg>
