<svg
  xmlns="http://www.w3.org/2000/svg"
  xmlns:xlink="http://www.w3.org/1999/xlink"
  viewBox="0 0 700 459"
><defs><style
    >.cls-1{isolation:isolate;}.cls-2,.cls-34{fill:#cfedf9;}.cls-3{fill:#deecfc;}.cls-4{fill:#14d997;}.cls-5{fill:#72e8c1;}.cls-6{fill:#4e97ee;}.cls-7{fill:#58e4b5;}.cls-8{fill:#e5f0fd;}.cls-9{opacity:0.15;}.cls-13,.cls-9{mix-blend-mode:multiply;}.cls-10{fill:#6db2f8;}.cls-11{fill:url(#linear-gradient);}.cls-12,.cls-17{opacity:0.49;}.cls-12{fill:url(#linear-gradient-2);}.cls-13{fill:#7cb2f2;}.cls-14{fill:#95c1f4;}.cls-15{opacity:0.5;}.cls-16,.cls-17,.cls-31{fill:#73c5e8;}.cls-18{fill:none;stroke:#fff;stroke-miterlimit:10;stroke-width:1.369px;}.cls-19{fill:#67a6f0;}.cls-20{fill:#306bc4;}.cls-21{fill:#128ce0;}.cls-22{fill:#00d283;}.cls-23{fill:#00de91;}.cls-24{fill:#00bf74;}.cls-25{fill:#00b265;}.cls-26,.cls-37{fill:#2e89c4;}.cls-26,.cls-31{opacity:0.3;}.cls-27{fill:url(#linear-gradient-3);}.cls-28{fill:url(#radial-gradient);}.cls-29{fill:url(#linear-gradient-5);}.cls-30{fill:url(#linear-gradient-6);}.cls-32{fill:#0fa371;}.cls-33{fill:url(#linear-gradient-7);}.cls-34,.cls-41,.cls-43{opacity:0.35;}.cls-34,.cls-41{mix-blend-mode:overlay;}.cls-35{fill:#a1f0d5;}.cls-36{fill:url(#linear-gradient-8);}.cls-38{fill:url(#radial-gradient-2);}.cls-39{fill:#36b2e5;}.cls-40{fill:#a0d8ef;}.cls-41,.cls-43{fill:#e7f6fc;}.cls-42{fill:url(#linear-gradient-9);}.cls-43{mix-blend-mode:screen;}</style><linearGradient
      id="linear-gradient"
      x1="271.203"
      y1="218.463"
      x2="477.127"
      y2="218.463"
      gradientUnits="userSpaceOnUse"
    ><stop offset="0" stop-color="#73c5e8" /><stop offset="0.449" stop-color="#cfedf9" /><stop
        offset="1"
        stop-color="#73c5e8"
      /></linearGradient><linearGradient
      id="linear-gradient-2"
      x1="186.431"
      y1="218.88"
      x2="604.818"
      y2="217.951"
      gradientUnits="userSpaceOnUse"
    ><stop offset="0" stop-color="#73c5e8" /><stop offset="0.11" stop-color="#92d2ee" /><stop
        offset="0.251"
        stop-color="#b3e1f4"
      /><stop offset="0.369" stop-color="#c8eaf8" /><stop
        offset="0.447"
        stop-color="#cfedf9"
      /><stop offset="0.508" stop-color="#c4e8f7" /><stop
        offset="0.841"
        stop-color="#8acfec"
      /><stop offset="1" stop-color="#73c5e8" /></linearGradient><linearGradient
      id="linear-gradient-3"
      x1="516.109"
      y1="286.923"
      x2="590.427"
      y2="286.923"
      xlink:href="#linear-gradient"
    /><radialGradient
      id="radial-gradient"
      cx="921.347"
      cy="-77.312"
      r="10.886"
      gradientTransform="translate(-1296.101 406.099) scale(2.007 0.454)"
      gradientUnits="userSpaceOnUse"
    ><stop offset="0" stop-color="#cbeaf6" /><stop
        offset="1"
        stop-color="#73c5e8"
      /></radialGradient><linearGradient
      id="linear-gradient-5"
      x1="516.109"
      y1="200.118"
      x2="590.427"
      y2="200.118"
      xlink:href="#linear-gradient"
    /><linearGradient
      id="linear-gradient-6"
      x1="516.109"
      y1="203.674"
      x2="590.427"
      y2="203.674"
      xlink:href="#linear-gradient"
    /><linearGradient
      id="linear-gradient-7"
      x1="553.043"
      y1="211.938"
      x2="553.354"
      y2="197.813"
      gradientUnits="userSpaceOnUse"
    ><stop offset="0.002" stop-color="#f3fafd" stop-opacity="0" /><stop
        offset="1"
        stop-color="#80ceef"
      /></linearGradient><linearGradient
      id="linear-gradient-8"
      x1="548.458"
      y1="312.682"
      x2="431.128"
      y2="312.682"
      xlink:href="#linear-gradient"
    /><radialGradient
      id="radial-gradient-2"
      cx="493.915"
      cy="381.629"
      r="24.222"
      gradientTransform="translate(0 267.14) scale(1 0.3)"
      xlink:href="#radial-gradient"
    /><linearGradient
      id="linear-gradient-9"
      x1="494.868"
      y1="240.533"
      x2="494.868"
      y2="232.59"
      xlink:href="#linear-gradient-7"
    /></defs><g class="cls-1"><g id="Layer_1" data-name="Layer 1"><ellipse
        class="cls-2"
        cx="377.757"
        cy="378.307"
        rx="139.614"
        ry="29.086"
      /><ellipse class="cls-2" cx="484.444" cy="386.581" rx="69.134" ry="14.403" /><ellipse
        class="cls-2"
        cx="541.209"
        cy="371.444"
        rx="69.134"
        ry="14.403"
      /><path
        class="cls-2"
        d="M302.465,358.349c0,7.044-25.184,12.885-58.141,13.962-3.58.117-81.792.178-85.533.178-38.182,0-69.135-6.331-69.135-14.14s30.953-14.139,69.135-14.139c3.785,0,82.039.062,85.659.182C277.345,345.479,302.465,351.314,302.465,358.349Z"
      /><rect
        class="cls-3"
        x="135.727"
        y="288.262"
        width="48.746"
        height="73.729"
        transform="translate(-165.027 485.226) rotate(-90)"
      /><rect
        class="cls-4"
        x="256.143"
        y="230.845"
        width="58.693"
        height="188.564"
        transform="translate(610.617 39.637) rotate(90)"
      /><path
        class="cls-5"
        d="M170.5,322.249h47.18A5.756,5.756,0,0,1,223.432,328v0a0,0,0,0,1,0,0H164.74a0,0,0,0,1,0,0v0a5.756,5.756,0,0,1,5.756-5.756Z"
        transform="translate(519.213 131.041) rotate(90)"
      /><path
        class="cls-5"
        d="M149.469,263.989h9.947a0,0,0,0,1,0,0V333.8a3.715,3.715,0,0,1-3.715,3.715h-2.517a3.715,3.715,0,0,1-3.715-3.715V263.989A0,0,0,0,1,149.469,263.989Z"
        transform="translate(455.196 146.311) rotate(90)"
      /><path
        class="cls-5"
        d="M149.469,312.734h9.947a0,0,0,0,1,0,0V382.55a3.715,3.715,0,0,1-3.715,3.715h-2.517a3.715,3.715,0,0,1-3.715-3.715V312.734a0,0,0,0,1,0,0Z"
        transform="translate(503.942 195.057) rotate(90)"
      /><rect
        class="cls-6"
        x="156.55"
        y="305.478"
        width="1.342"
        height="67.973"
        transform="translate(496.686 182.243) rotate(90)"
      /><rect
        class="cls-6"
        x="156.55"
        y="298.309"
        width="1.342"
        height="67.973"
        transform="translate(489.517 175.075) rotate(90)"
      /><rect
        class="cls-6"
        x="156.55"
        y="291.14"
        width="1.342"
        height="67.973"
        transform="translate(482.348 167.906) rotate(90)"
      /><rect
        class="cls-6"
        x="156.55"
        y="283.971"
        width="1.342"
        height="67.973"
        transform="translate(475.179 160.737) rotate(90)"
      /><rect
        class="cls-6"
        x="156.55"
        y="276.803"
        width="1.342"
        height="67.973"
        transform="translate(468.01 153.568) rotate(90)"
      /><rect
        class="cls-7"
        x="193.118"
        y="320.659"
        width="58.693"
        height="8.936"
        transform="translate(547.592 102.662) rotate(90)"
      /><rect
        class="cls-7"
        x="214.998"
        y="313.497"
        width="58.693"
        height="23.259"
        transform="translate(569.471 80.783) rotate(90)"
      /><rect
        class="cls-6"
        x="261.25"
        y="178.08"
        width="58.337"
        height="178.708"
        transform="translate(22.984 557.852) rotate(-90)"
      /><rect
        class="cls-6"
        x="275.482"
        y="265.665"
        width="58.337"
        height="3.539"
        transform="translate(37.217 572.085) rotate(-90)"
      /><rect
        class="cls-6"
        x="285.702"
        y="265.665"
        width="58.337"
        height="3.539"
        transform="translate(47.436 582.304) rotate(-90)"
      /><rect
        class="cls-6"
        x="217.949"
        y="265.665"
        width="58.337"
        height="3.539"
        transform="translate(-20.316 514.552) rotate(-90)"
      /><ellipse class="cls-6" cx="275.56" cy="267.532" rx="15.08" ry="19.323" /><rect
        class="cls-8"
        x="142.657"
        y="233.284"
        width="50.681"
        height="67.301"
        transform="translate(-98.937 434.932) rotate(-90)"
      /><path
        class="cls-6"
        d="M179.867,265.23h48.413a4.852,4.852,0,0,1,4.852,4.852v0a0,0,0,0,1,0,0H175.016a0,0,0,0,1,0,0v0A4.852,4.852,0,0,1,179.867,265.23Z"
        transform="translate(471.73 63.582) rotate(90)"
      /><path
        class="cls-6"
        d="M178.454,265.23h48.413a4.852,4.852,0,0,1,4.852,4.852v0a0,0,0,0,1,0,0H173.6a0,0,0,0,1,0,0v0A4.852,4.852,0,0,1,178.454,265.23Z"
        transform="translate(470.317 64.994) rotate(90)"
      /><path
        class="cls-6"
        d="M161.952,206.308h5.994a0,0,0,0,1,0,0v68.142a2.43,2.43,0,0,1-2.43,2.43h-1.134a2.43,2.43,0,0,1-2.43-2.43V206.308A0,0,0,0,1,161.952,206.308Z"
        transform="translate(406.543 76.645) rotate(90)"
      /><path
        class="cls-6"
        d="M161.952,258.319h5.994a0,0,0,0,1,0,0v68.142a2.43,2.43,0,0,1-2.43,2.43h-1.134a2.43,2.43,0,0,1-2.43-2.43V258.319A0,0,0,0,1,161.952,258.319Z"
        transform="translate(458.555 128.656) rotate(90)"
      /><rect
        class="cls-6"
        x="166.887"
        y="244.977"
        width="0.809"
        height="65.888"
        transform="translate(445.212 110.63) rotate(90)"
      /><rect
        class="cls-6"
        x="166.887"
        y="234.955"
        width="0.809"
        height="65.888"
        transform="translate(435.19 100.608) rotate(90)"
      /><rect
        class="cls-6"
        x="166.887"
        y="224.933"
        width="0.809"
        height="65.888"
        transform="translate(425.168 90.586) rotate(90)"
      /><rect
        class="cls-6"
        x="166.887"
        y="249.988"
        width="0.809"
        height="65.888"
        transform="translate(450.223 115.641) rotate(90)"
      /><rect
        class="cls-6"
        x="166.887"
        y="254.999"
        width="0.809"
        height="65.888"
        transform="translate(455.234 120.652) rotate(90)"
      /><rect
        class="cls-6"
        x="166.887"
        y="239.966"
        width="0.809"
        height="65.888"
        transform="translate(440.201 105.619) rotate(90)"
      /><rect
        class="cls-6"
        x="166.887"
        y="229.944"
        width="0.809"
        height="65.888"
        transform="translate(430.179 95.597) rotate(90)"
      /><rect
        class="cls-6"
        x="166.887"
        y="219.922"
        width="0.809"
        height="65.888"
        transform="translate(420.157 85.575) rotate(90)"
      /><rect
        class="cls-6"
        x="166.887"
        y="214.911"
        width="0.809"
        height="65.888"
        transform="translate(415.146 80.564) rotate(90)"
      /><g class="cls-9"><polygon
          class="cls-10"
          points="222.041 238.265 379.772 238.265 379.772 296.603 222.041 238.265"
        /></g><path
        class="cls-11"
        d="M477.127,346.629c-12.016,11.7-46.1,23.146-102.962,23.146s-90.071-6.813-102.962-23.146V170.112a102.962,102.962,0,1,1,205.924,0V346.629Z"
      /><path
        class="cls-12"
        d="M477.127,346.629c-12.016,11.7-46.1,23.146-102.962,23.146s-90.071-6.813-102.962-23.146V170.112a102.962,102.962,0,1,1,205.924,0V346.629Z"
      /><path
        class="cls-6"
        d="M486.742,360.313c0,16.478-50.378,29.836-112.523,29.836S261.7,376.791,261.7,360.313c0-.771-.119-10.513-.119-10.513,4.41-15.408,53.4-6.241,112.642-6.241,57.977,0,106.381-8.173,112.523,6.767Z"
      /><ellipse class="cls-13" cx="374.219" cy="350.928" rx="112.523" ry="29.836" /><ellipse
        class="cls-14"
        cx="374.219"
        cy="349.221"
        rx="112.523"
        ry="29.836"
      /><g class="cls-15"><path
          class="cls-16"
          d="M374.165,369.775c56.864,0,90.946-11.448,102.962-23.146v-9.493c-17.493-10.457-56.987-17.751-102.908-17.751-46.016,0-85.579,7.324-103.016,17.816v9.428C284.094,362.962,317.3,369.775,374.165,369.775Z"
        /><path
          class="cls-17"
          d="M374.165,369.775c56.864,0,90.946-11.448,102.962-23.146v-9.493c-17.493-10.457-56.987-17.751-102.908-17.751-46.016,0-85.579,7.324-103.016,17.816v9.428C284.094,362.962,317.3,369.775,374.165,369.775Z"
        /></g><path
        class="cls-18"
        d="M477.127,345.7c-12.016,11.7-46.1,23.146-102.962,23.146S284.094,362.032,271.2,345.7V169.183a102.962,102.962,0,1,1,205.924,0V345.7Z"
      /><g class="cls-1"><polygon
          class="cls-19"
          points="343.779 116.489 402.958 122.843 442.579 142.611 383.4 136.257 343.779 116.489"
        /><polygon
          class="cls-20"
          points="383.4 136.257 390.361 196.482 357.702 236.933 318.081 217.166 311.118 156.947 343.779 116.489 383.4 136.257"
        /><polygon
          class="cls-6"
          points="383.4 136.257 442.579 142.611 449.54 202.836 390.361 196.482 383.4 136.257"
        /><polygon
          class="cls-21"
          points="390.361 196.482 449.54 202.836 416.881 243.287 357.702 236.933 390.361 196.482"
        /></g><g class="cls-1"><polygon
          class="cls-22"
          points="352.275 240.402 319.71 245.472 348.173 230.581 380.738 225.512 352.275 240.402"
        /><polygon
          class="cls-23"
          points="380.738 225.512 405.207 250.267 401.22 289.917 372.758 304.808 348.282 280.048 352.275 240.402 380.738 225.512"
        /><polygon
          class="cls-24"
          points="372.758 304.808 340.193 309.877 315.717 285.118 348.282 280.048 372.758 304.808"
        /><polygon
          class="cls-25"
          points="348.282 280.048 315.717 285.118 319.71 245.472 352.275 240.402 348.282 280.048"
        /></g><path
        class="cls-26"
        d="M437.988,335.5c0-7.241-25.093-13.111-56.046-13.111S325.9,328.262,325.9,335.5c0,3.238,5.02,6.2,13.335,8.489-11.4,1.212-19.378,4.006-19.378,7.259,0,4.364,14.361,7.9,32.076,7.9s32.077-3.539,32.077-7.9a3.472,3.472,0,0,0-1.832-2.637C413.02,348.585,437.988,342.726,437.988,335.5Z"
      /><path
        class="cls-27"
        d="M586.265,198.72s3.726.414,4.139,2.069-4.966,2.035-4.966,2.035v95.932c0,73.384-.962,74.621-2.337,74.967-3.965,1-13.242,2.732-29.833,2.732s-25.864-1.735-29.832-2.733a3.092,3.092,0,0,1-2.337-3V204.1s-5.381-1.655-4.967-3.311,4.139-2.069,4.139-2.069,10.761-1.33,33-1.33C575.527,197.39,586.265,198.72,586.265,198.72Z"
      /><path
        class="cls-27"
        d="M586.265,198.72s3.726.414,4.139,2.069-4.966,3.311-4.966,3.311V370.723a3.093,3.093,0,0,1-2.337,3c-3.965,1-13.242,2.732-29.833,2.732s-25.864-1.735-29.832-2.733a3.092,3.092,0,0,1-2.337-3V204.1s-5.381-1.655-4.967-3.311,4.139-2.069,4.139-2.069,10.761-1.33,33-1.33C575.527,197.39,586.265,198.72,586.265,198.72Z"
      /><ellipse class="cls-28" cx="553.497" cy="371.01" rx="30.536" ry="3.597" /><path
        class="cls-29"
        d="M590.4,200.789c-.413-1.655-4.139-2.069-4.139-2.069s-10.738-1.33-33-1.33c-22.236,0-33,1.33-33,1.33s-3.725.414-4.139,2.069c-.184.734.771,1.467,1.891,2.057,2.609-2.621,17.409-4.63,35.277-4.63,17.818,0,32.586,2,35.255,4.608C589.657,202.239,590.586,201.514,590.4,200.789Z"
      /><path
        class="cls-30"
        d="M518.023,202.846A20.735,20.735,0,0,0,521.1,204.1v1.929c5.748,1.835,18.006,3.1,32.2,3.1,14.142,0,26.363-1.259,32.138-3.083V204.1a20.635,20.635,0,0,0,3.117-1.276c-2.669-2.61-17.437-4.608-35.255-4.608C535.432,198.216,520.632,200.225,518.023,202.846Z"
      /><path
        class="cls-31"
        d="M518.023,202.846A20.735,20.735,0,0,0,521.1,204.1v1.929c5.748,1.835,18.006,3.1,32.2,3.1,14.142,0,26.363-1.259,32.138-3.083V204.1a20.635,20.635,0,0,0,3.117-1.276c-2.669-2.61-17.437-4.608-35.255-4.608C535.432,198.216,520.632,200.225,518.023,202.846Z"
      /><path
        class="cls-32"
        d="M582.225,257.825s-1-8.574-20.073-5.787-29.8,2.358-29.8,2.358l-1.072,80.969,36.012,4.716,9.646-2.358Z"
      /><path
        class="cls-4"
        d="M524.311,256.025v110.3a2.784,2.784,0,0,0,2.1,2.7c3.569.9,11.92,2.459,26.854,2.459s23.281-1.562,26.853-2.46a2.782,2.782,0,0,0,2.1-2.7v-108.5s-3,6.753-27.988-4.276A30.374,30.374,0,0,0,524.311,256.025Z"
      /><ellipse class="cls-33" cx="553.3" cy="200.268" rx="35.685" ry="3.442" /><path
        class="cls-2"
        d="M553.161,203.71c19.709,0,35.685-1.541,35.685-3.442,0-.91-6.416-1.979-6.416-1.979,5.623.482,6,.9,6.606,1.121,1.322.491,2.569,2.431.1,3.552-5.311,2.415-20.247,4.036-35.028,4.036H552.35c-14.781,0-29.717-1.621-35.028-4.036-2.466-1.121-1.219-3.061.1-3.552.6-.225.983-.639,6.605-1.121,0,0-6.415,1.069-6.415,1.979,0,1.9,15.976,3.442,35.685,3.442"
      /><path
        class="cls-34"
        d="M528.127,210.332v154.3a163.8,163.8,0,0,0,40.516,2.026s-28.023-30.387-31.4-76.305c-3.874-52.684-4.051-79.344-4.051-79.344Z"
      /><path
        class="cls-5"
        d="M574.639,236.827a3.217,3.217,0,1,1-3.216,3.216,3.216,3.216,0,0,1,3.216-3.216m0-1.033a4.249,4.249,0,1,0,4.249,4.249,4.254,4.254,0,0,0-4.249-4.249Z"
      /><circle class="cls-5" cx="559.398" cy="260.371" r="2.631" /><path
        class="cls-5"
        d="M562.212,273.582A3.714,3.714,0,1,1,558.5,277.3a3.714,3.714,0,0,1,3.714-3.714m0-1.033a4.747,4.747,0,1,0,4.746,4.747,4.752,4.752,0,0,0-4.746-4.747Z"
      /><circle class="cls-5" cx="558.498" cy="296.316" r="6.753" /><circle
        class="cls-5"
        cx="571.44"
        cy="287.425"
        r="2.589"
      /><path
        class="cls-5"
        d="M570.99,309.258a1.914,1.914,0,1,1-1.913,1.913,1.914,1.914,0,0,1,1.913-1.913m0-1.033a2.946,2.946,0,1,0,2.946,2.946,2.95,2.95,0,0,0-2.946-2.946Z"
      /><circle class="cls-35" cx="565.025" cy="294.965" r="2.685" /><circle
        class="cls-35"
        cx="570.439"
        cy="227.659"
        r="2.472"
      /><path
        class="cls-36"
        d="M540.131,367.793l-29.352-92.306V234.966H477.4v40.521l-29.352,92.306a15.93,15.93,0,0,0,12.978,20.492S482,390.4,495.353,390.4c13.814,0,31.8-2.113,31.8-2.113C538.177,387.594,542.924,376.576,540.131,367.793Z"
      /><path
        class="cls-37"
        d="M475.554,313.015S509.4,298.28,514.233,311.4s6.907,20.72,6.907,20.72S486.144,349.162,475.554,313.015Z"
      /><ellipse class="cls-38" cx="493.915" cy="381.629" rx="33.844" ry="5.29" /><path
        class="cls-39"
        d="M473.942,307.49,454.85,368.272c-1.721,5.477,1.479,9.9,8.111,11.05a226.986,226.986,0,0,0,32.929,2.747,207.936,207.936,0,0,0,30.083-2.747c5.815-1.151,9.956-5.778,8.026-11.3L514.233,311.4s-2.3,5.065-9.67,3.453S487.986,300.352,473.942,307.49Z"
      /><path
        class="cls-16"
        d="M502.507,289.021a3.29,3.29,0,1,1-3.29,3.289,3.29,3.29,0,0,1,3.29-3.289m0-1.057a4.347,4.347,0,1,0,4.346,4.346,4.351,4.351,0,0,0-4.346-4.346Z"
      /><circle class="cls-2" cx="498.977" cy="301.405" r="2.691" /><circle
        class="cls-16"
        cx="494.433"
        cy="277.79"
        r="2.302"
      /><path
        class="cls-16"
        d="M502.376,320.843a3.8,3.8,0,1,1-3.8,3.8,3.8,3.8,0,0,1,3.8-3.8m0-1.056a4.855,4.855,0,1,0,4.855,4.855,4.861,4.861,0,0,0-4.855-4.855Z"
      /><circle class="cls-16" cx="498.577" cy="344.097" r="6.907" /><circle
        class="cls-16"
        cx="511.815"
        cy="335.002"
        r="2.648"
      /><path
        class="cls-16"
        d="M511.355,357.335a1.957,1.957,0,1,1-1.957,1.957,1.957,1.957,0,0,1,1.957-1.957m0-1.056a3.013,3.013,0,1,0,3.013,3.013,3.016,3.016,0,0,0-3.013-3.013Z"
      /><circle class="cls-2" cx="505.253" cy="342.715" r="2.746" /><path
        class="cls-40"
        d="M514.117,239.974c0,2.193-8.735,3.971-19.512,3.971s-19.512-1.778-19.512-3.971V234.56S486.646,236,494.605,236c7,0,19.512-1.924,19.512-1.924Z"
      /><path
        class="cls-41"
        d="M484.763,245.787v35.686l-24.411,82c-3.447,9.637.467,11.557,8.758,13.469,0,0,24.367,2.115,28.546,1.81.806-.059-25.326-11.168-21.412-33.961s7.368-31.772,13.123-52.493c2.622-9.437,3.454-46.046,3.454-46.046Z"
      /><ellipse class="cls-3" cx="494.605" cy="234.448" rx="19.512" ry="3.972" /><path
        class="cls-2"
        d="M514.117,234.448c0-2.193-8.735-3.971-19.512-3.971s-19.512,1.778-19.512,3.971c0,.889,1.434,1.709,3.855,2.371,0-1.337-.074-2.608-.074-2.608,4.162-1.144,9.275-1.621,15.731-1.621,6.785,0,12.761.7,16.257,1.774l-.149,2.326C512.86,236.052,514.117,235.28,514.117,234.448Z"
      /><path
        class="cls-3"
        d="M494.605,232.59c-6.456,0-11.569.477-15.731,1.621,0,0,.078,1.271.074,2.608a64.847,64.847,0,0,0,15.657,1.6c6.69,0,12.593-.686,16.108-1.73l.149-2.326C507.366,233.294,501.39,232.59,494.605,232.59Z"
      /><path
        class="cls-42"
        d="M494.605,232.59c-6.456,0-11.569.477-15.731,1.621,0,0,.078,1.271.074,2.608a64.847,64.847,0,0,0,15.657,1.6c6.69,0,12.593-.686,16.108-1.73l.149-2.326C507.366,233.294,501.39,232.59,494.605,232.59Z"
      /><path
        class="cls-43"
        d="M481.54,242.1a53.024,53.024,0,0,0,9.439.921l-.115-3.339a36.15,36.15,0,0,1-9.555-.921Z"
      /></g></g></svg>
