<svg version="1.1" id="Layer_1" xmlns="http://www.w3.org/2000/svg" xmlns:xlink="http://www.w3.org/1999/xlink" x="0" y="0" viewBox="0 0 780 670" xml:space="preserve"><style>.st1{fill:#4e97ee}.st14{fill:#3d6cbe}.st19{fill:#14d997}.st36{fill:#e3eefa}</style><linearGradient id="SVGID_1_" gradientUnits="userSpaceOnUse" x1="-831" y1="-98" x2="-830" y2="-98" gradientTransform="matrix(587.9644 0 0 -587.9644 488675.219 -57268.348)"><stop offset="0" stop-color="#cfedf9"/><stop offset="1" stop-color="#f5fafd"/></linearGradient><path d="M435.6 464.6c-8.6 1-17 1.7-25 1.9v16.9c9.5-2.7 17.9-9 25-18.8m33-5.7c-8.8 2-18.1 3.7-27.4 5-4 6.1-8.4 11.1-13.1 14.9 15.3-4.9 28.8-11.6 40.5-19.9m-122.7-1.5c12.3 9.1 26.7 16.2 43 21.4 5.6 1.8 11.5 3.3 17.5 4.6v-17c-18.4-.1-40.6-3.8-60.5-9m132.5-.9l-.2.1c-12.3 10.3-27.9 19.3-47.6 25.7 16.8-2.5 32.7-7.8 47.1-15.4l.7-10.4m-170.6-11.9c21.4 19.6 48.5 33.1 78.5 37.7-19.7-6.4-36.6-15.7-50.6-27.7-10.1-3-19.3-6.2-26.7-9.5-.4-.2-.8-.3-1.2-.5M426 190.5c14.4 10.5 25.3 30.6 32.6 60.2 7.8 31.5 9.1 65 9.6 76 0 1 .1 1.9.1 2.6.1 1.6 0 11.4 0 11.8 0 .7-.1 1.5-.1 2.5-.4 11-1.7 44.5-9.4 76.1-3.9 15.9-8.9 29.1-14.9 39.6 11.2-1.7 22.3-3.9 32.4-6.5l2.4-2.1.6-8.8c.6-8.8 7.8-15.6 16.6-15.6h3.4c2.1-3.3 4-6.7 5.8-10.3 14.8-29.1 16.2-59.9 16.8-74.6 0 0 .1-10.3 0-13.4-.7-14.8-2.1-45.6-17-74.6-15.6-30.5-42.1-51.6-78.9-62.9m-39.7-2.8c-71.6 10.7-126.7 72.7-126.7 147.3 0 39.3 15.3 75.1 40.3 101.8 1.7.7 3.4 1.5 5 2.1 2.1.9 4 1.7 5.8 2.5 5.3 2.3 11.4 4.6 18.2 6.8-8.8-8.8-16.2-18.8-22.3-30.1-15.2-28.3-18.1-57.1-19-76.4 0-.5-.1-10.6 0-13.8.9-19.2 3.9-48.1 19.2-76.3 16.5-30.7 43.3-52.1 79.5-63.9m44.3 0c36.1 11.8 62.3 33.2 78 63.9 15.3 29.8 16.8 61.2 17.5 76.3.2 3.2 0 13.3 0 13.7-.7 16.8-2.3 52.4-22 84.8h6.2c5.3 0 10.5 0 15.8-.1 19.6-25.2 31.3-56.9 31.3-91.3.1-74.6-55.1-136.6-126.8-147.3m-20-.2v274.8c8.9-.2 18.5-1 28.1-2.3 14.7-23.5 23.5-63.1 25.5-116.6 0-1 .1-1.8.1-2.5 0-2.7.1-10.2 0-11.5 0-.7-.1-1.6-.1-2.6-3.3-81.4-22.3-130.7-53.6-139.3m-4.1-1c-5.4 1.2-10.5 2.5-15.5 4-37 11.3-64 32.4-80.6 63-14.9 27.5-17.8 55.7-18.7 74.6-.1 3.1 0 13.4 0 13.5.8 18.8 3.7 47 18.5 74.5 7.2 13.4 16.5 25.1 27.7 34.8 21.7 6.3 47.6 11.3 68.6 11.4V186.5m72.4-56.8c-4.2 0-8.3.1-12.5.4-44.7 3-84.6 21.5-114.9 50v-.1c-57.2 46.5-147.4 50.4-175.9 50.4h-.7c-1.7-.1-3.4-.1-5.2-.1h-3.1v.1c-1 0-2 .1-3 .1-51.3 3.4-90 47.7-86.6 99 2.1 32.3 20.6 59.7 46.7 74.6 55.3 35.4 89.1 98.5 89.1 98.5l.3-.6c23.8 43.7 70.1 72.8 122.4 72.8 3.1 0 6.2-.1 9.4-.3 18.4-1.2 35.7-6 51.3-13.5l-.4.8c2.4-1.5 4.9-2.9 7.4-4.4 1.8-1 3.5-2 5.2-3 22.2-12.7 45.3-24.3 65.8-33.8l3.2-48.8c-20.7 10.5-44.1 16.4-68.8 16.4-84.4 0-153-68.6-153-153s68.6-153 153-153 153 68.6 153 153c0 34.1-11.2 65.7-30.2 91.2 18.8-.5 37.3-1.8 55.2-5.3.3-.1.6-.1.9-.1 7.7 0 21.7 15.8 22.3 16.4-.6 4.4-1.3 8.6-2.1 12.5 30.9-29.7 51.3-69.8 56.1-114.3-15.2 7-37.2-75.8-36-84.3.4-3.2 2.7-5.9 6.1-7.2 4.9-1.9 9.6-3.8 14.1-5.7-29.7-64.7-94.9-108.7-169.1-108.7" fill="url(#SVGID_1_)"/><circle class="st1" cx="408" cy="340.5" r="101.5"/><path class="st14" d="M407.9 213.4c18.4 0 35.8-3.8 48.9-10.6 4-2.1 7.5-4.4 10.4-6.9-1.4-.6-2.8-1.2-4.3-1.8-2.3 1.8-5 3.5-8 5.1-12.5 6.5-29.2 10.2-47 10.2s-34.5-3.6-47-10.2c-3.1-1.6-5.9-3.4-8.2-5.3-1.4.6-2.9 1.1-4.3 1.8 3 2.6 6.5 5 10.6 7.1 13.1 6.9 30.4 10.6 48.9 10.6zM327.9 239.6c11.4 8.3 24.3 13.5 33.2 16.5 14.8 5 32.2 8 46.6 8 15.3 0 33.4-2.9 47.3-7.6 20.5-6.9 42.9-20.4 51-36.2l-3.3-2.7c-5.7 11.6-22.1 25.9-49.1 35.1-13.5 4.6-31.1 7.4-46 7.4-14 0-31-2.9-45.3-7.7-19.9-6.7-42.4-19.4-49.2-35.5l-3.3 2.7c3.4 6.9 9.4 13.6 18.1 20z"/><path class="st14" d="M307.5 283.4c14.1 9.3 29.8 15.9 40.5 19.9 14.1 5.2 38.2 11.3 59.5 11.3 18.8 0 43.7-4.3 60.5-10.6 20.1-7.4 55.9-25.4 68.7-47.5-.8-1.3-1.6-2.7-2.5-4-4.6 9-14.1 18.4-27.8 27.5-11.7 7.7-26.2 15.1-39.9 20.1-13.4 5-37.7 10.3-59.1 10.3-20.8 0-44.3-6-58.1-11-16.9-6.2-57-23.4-67.4-49-.9 1.4-1.8 2.7-2.7 4.1 5.1 10.2 14.5 19.9 28.3 28.9z"/><path class="st14" d="M335 350.6c18.5 7.3 48 14.6 72.4 14.6 25.6 0 57.1-6.9 73.8-13.5 5.9-2.3 49.5-20 74.9-44.4-.3-1.6-.6-3.2-1-4.9-7 7.1-16.4 14.4-27.8 21.5-20.1 12.6-40 20.9-47.7 23.9-16.3 6.4-47.1 13.2-72.3 13.2-23.7 0-53.4-7.4-70.9-14.4-36.6-14.4-62.1-30.1-76.2-46.5-.4 1.6-.7 3.3-1.1 4.9 15.1 16.4 40.4 31.6 75.9 45.6z"/><path class="st14" d="M407.3 415.8c29.5 0 67.4-8.3 87-16.4 9.1-3.8 32.8-14 56-28 1.5-.9 3-1.8 4.5-2.8.4-1.9.8-3.8 1.2-5.6-26.1 16.8-54.9 29.2-63.2 32.6-19.2 7.9-56.4 16.1-85.4 16.1-27 0-62.6-8.9-83.7-17.7-16-6.7-42.3-17.5-64.9-32.6.3 1.9.7 3.8 1.1 5.6 22.1 14.1 46.8 24.4 62.2 30.8 21.5 9 57.7 18 85.2 18zM309 445.1c24 10.3 66.5 21.3 98.2 21.3 34 0 78.5-10 100.2-19.3.8-.3 1.5-.7 2.3-1 2.8-2.6 5.5-5.3 8.1-8.1-4.3 1.9-8.3 3.7-12.1 5.3-21.3 9.1-65.1 19-98.6 19-31.1 0-73-10.8-96.6-21-1.8-.8-3.7-1.6-5.8-2.5-3.5-1.5-7.4-3.2-11.4-4.9 2.2 2.6 4.5 5.1 6.9 7.5 1 .4 1.9.8 2.9 1.2 2.2.9 4.1 1.7 5.9 2.5"/><path class="st14" d="M408.5 181.9c-84.4 0-153 68.6-153 153s68.6 153 153 153 153-68.6 153-153c0-84.3-68.6-153-153-153m2.1 5.6c31.3 8.6 50.3 57.9 53.6 139.4 0 1 .1 1.9.1 2.6.1 1.3 0 8.8 0 11.5 0 .7-.1 1.5-.1 2.5-3.1 81.8-22.1 131.2-53.6 139.9V187.5m-4.1-1V483.4c-6.1-1.3-11.9-2.9-17.5-4.6-36.1-11.4-62.5-32.5-78.8-62.7-14.8-27.6-17.6-55.8-18.5-74.5 0-.1-.1-10.4 0-13.5.9-18.8 3.8-47.1 18.7-74.6 16.6-30.6 43.6-51.7 80.6-63 5-1.5 10.1-2.8 15.5-4m52.3 233.2c7.8-31.6 9-65.1 9.4-76.1 0-1 .1-1.8.1-2.5 0-.4.1-10.1 0-11.8 0-.7-.1-1.5-.1-2.6-.4-11-1.8-44.6-9.6-76-7.3-29.5-18.3-49.7-32.6-60.2 36.8 11.2 63.3 32.3 79 62.9 14.9 29 16.3 59.8 17 74.6.1 3.1 0 13.4 0 13.4-.7 14.8-2 45.6-16.8 74.6-15.4 30.2-41.3 51.2-77.2 62.7 13.5-10.8 23.8-30.6 30.8-59M259.6 335c0-74.6 55.1-136.5 126.7-147.3-36.3 11.8-63 33.2-79.6 63.9-15.3 28.2-18.3 57.1-19.2 76.3-.2 3.2 0 13.3 0 13.8.8 19.2 3.7 48.1 19 76.4 16.6 30.8 43.4 52.4 79.8 64.2-71.6-10.8-126.7-72.7-126.7-147.3m170.9 147.3c90.7-29.7 94.3-112.2 95.6-140.7 0-.4.1-10.5 0-13.7-.7-15.1-2.2-46.5-17.5-76.3-15.7-30.7-41.9-52.1-78-63.9 71.7 10.7 126.8 72.7 126.8 147.3.1 74.6-55.1 136.6-126.9 147.3"/><path class="st14" d="M406.5 483.3c-13.3-3.6-24.4-14.3-33.2-31.8-4.8-9.5-8.9-21.1-12.3-34.7-5.3-21.2-8.6-46.3-9.8-74.7V341c0-2.8-.1-10.2 0-11.5l.1-1.3c1.3-28.5 4.6-53.6 9.9-74.6 9.7-38.3 24.9-60.5 45.4-66.1v-1c-5.4 1.2-10.5 2.5-15.5 4-14.8 10.7-26.1 31.5-33.8 62-5.4 21.3-8.8 46.7-10 75.5l-.1 1.3c-.1 1.6 0 11.3 0 11.8l.1 1.2c1.2 28.7 4.5 54.1 9.9 75.5 3.4 13.8 7.6 25.6 12.5 35.4 5.6 11.1 12 19.6 19.4 25.6 5.4 1.8 11.3 3.3 17.4 4.5z"/><path class="st1" d="M125.8 426.5c-.1-1.4-1.5 3.4-2.2-7 0 0-1.7-7 4.7-12.1 4.9-3.9 15.1-8.9 21-6.8 33.6 12.1 63.5 25.2 110.9 38.2 7.4 2 16.8 3.3 25.2 5.6 6.2 1.7 11.7 7.9 13.2 17.7 6 38.7 11.1 64.1 16.1 98.5 3.1 20.8-19.8 31.2-24.5 30.2l-11.3-5.6s-20-11.8-41.6-19.1c-22.6-7.7-51.7-17.6-83.4-29.9-14.2-44.9-24.5-77.2-28.1-109.7z"/><path class="st14" d="M123.8 427.8c-.1-1.4-1.5 3.4-2.2-7 0 0-1.7-7 4.7-12.1 4.9-3.9 15.1-8.9 21-6.8 33.6 12.1 63.5 25.2 110.9 38.2 7.4 2 16.8 3.3 25.2 5.6 6.2 1.7 11.7 7.9 13.2 17.7 6 38.7 11.1 64.1 16.1 98.5 3.1 20.8-18.6 31.5-28.3 30.5l-7.5-5.8s-20-11.8-41.6-19.1c-22.6-7.7-51.7-17.6-83.4-29.9-14.2-44.9-24.5-77.2-28.1-109.8z"/><path class="st1" d="M117.4 426.8c0-.2 0-.5-.1-1-1-13.3 12.4-23 24.7-17.9 31.7 13.3 66.9 26.6 106.9 40.3 6.9 2.4 14.5 4.5 22.4 6.6 6.9 1.9 12.1 7.7 13.1 14.7 5.1 35.8 12.3 69.2 18 101 2.6 14.2-8.2 24.4-21.1 21.3-20.8-4.9-40-10.3-56.5-15.9-20.6-7-46.7-15.9-75.2-26.8-5.2-2-9.2-6.3-10.7-11.6-12.5-41.6-18.1-80.2-21.5-110.7z"/><path d="M476.4 443.2c.1-9.1 7.3-16.6 16.4-17.1 31.9-1.6 63.6-3.3 93.3-10.8 7.8-2 25 15.6 25 15.6-3.2 41.7-19 58.8-25.7 92.3-31.4 6.1-57 23.6-88.3 24.8 0 0-19.6-9.7-21.5-22.3l.8-82.5" fill="#51e3b2"/><linearGradient id="SVGID_2_" gradientUnits="userSpaceOnUse" x1="-831" y1="-98" x2="-830" y2="-98" gradientTransform="matrix(85.9375 0 0 -85.9375 71980.875 -7984.626)"><stop offset="0" stop-color="#ace6e6"/><stop offset="1" stop-color="#ccf3ea"/></linearGradient><path d="M609.8 437.2" fill="url(#SVGID_2_)"/><path d="M558.7 530.9c-20 7.2-38.8 15.9-60.3 17.1 21.5-1.2 40.4-9.9 60.3-17.1m25.6-7.4h-.1.1m1-.2c-.3.1-.6.1-.9.2.3-.1.6-.2.9-.2" fill="#d4f8ec"/><path d="M599.5 422.4c-.8 0-1.5.1-2.3.3-28.9 5.9-60.7 10.5-91.1 12.2l-5.7.3h-.2c-8.1.5-14.5 7.2-14.6 15.4l-.9 84.8c0 1.8.3 3.5.8 5.1 5.6 4.6 11.4 7.5 11.5 7.6.5 0 1 0 1.4-.1 21.5-1.2 40.3-9.9 60.3-17.1 7.9-2.8 16-5.4 24.5-7.2h.1c.3-.1.5-.1.8-.2h.2c.3-.1.6-.1.9-.2 6.7-33.5 22.6-50.6 25.7-92.3-.3-.3-4.4-4.5-9.5-8.5-.6-.1-1.2-.1-1.9-.1" fill="#43dda5"/><path class="st19" d="M500.9 440c32.7-1.2 67.9-6.2 99.1-12.9 7.1-1.5 13.7 4.2 13 11.5-2.9 33-7.1 63.4-12.3 91-.8 4.4-4.3 7.8-8.7 8.6-30 5.5-61.9 9.4-91.4 10.5-6.1.2-11.2-4.8-11.1-10.9l.9-87.1c.2-5.8 4.8-10.5 10.5-10.7z"/><path class="st14" d="M373.2 451.5c-4.8-9.5-8.9-21.1-12.3-34.7-5.3-21.2-8.6-46.3-9.8-74.7V341c0-2.8-.1-10.2 0-11.5l.1-1.3c1.3-28.5 4.6-53.6 9.9-74.6 9.7-38.3 24.9-60.5 45.4-66.1v-1c-5.4 1.2-10.5 2.5-15.5 4-14.8 10.7-26.1 31.5-33.8 62-5.4 21.3-8.8 46.7-10 75.5l-.1 1.3c-.1 1.6 0 11.3 0 11.8l.1 1.2c1.2 28.7 4.5 54.1 9.9 75.5 3.4 13.8 7.6 25.6 12.5 35.4"/><path d="M690.1 267.8c.4-14.3 10-30.4 10.4-44.4.1-3.4-21.4-6.7-26.7-3-12.9 9.1-27.8 18-44.5 26.6-3.2 1.7-5.2 4.6-5.3 7.8-.2 8.6-.6 24.9-.6 25.6v.2c-1.4 18.1-1.9 34.8-7.6 58.9-1.4 6 11.7 12.8 18.3 15.3 3.7 1.4 27.3-16.7 44.6-25.4 2.1-1.1 3.6-2.8 4-4.8 4.4-18.6 6.9-37.6 7.4-56.8" fill="#ffd85f"/><path d="M690.1 267.8c.4-14.3 10-30.4 10.4-44.4.1-3.4-21.4-6.7-26.7-3-12.9 9.1-27.8 18-44.5 26.6-3.2 1.7-5.2 4.6-5.3 7.8-.2 8.6-.6 24.9-.6 25.6v.2c-1.4 18.1-1.9 34.8-7.6 58.9-1.4 6 11.7 12.8 18.3 15.3 3.7 1.4 27.3-16.7 44.6-25.4 2.1-1.1 3.6-2.8 4-4.8 4.4-18.6 6.9-37.6 7.4-56.8" fill="#ffdc6d"/><defs><path id="SVGID_7_" d="M690.1 267.8c.4-14.3 10-30.4 10.4-44.4.1-3.4-21.4-6.7-26.7-3-12.9 9.1-27.8 18-44.5 26.6-3.2 1.7-5.2 4.6-5.3 7.8-.2 8.6-.6 24.9-.6 25.6v.2c-1.4 18.1-1.9 34.8-7.6 58.9-1.4 6 11.7 12.8 18.3 15.3 3.7 1.4 27.3-16.7 44.6-25.4 2.1-1.1 3.6-2.8 4-4.8 4.4-18.6 6.9-37.6 7.4-56.8"/></defs><clipPath id="SVGID_3_"><use xlink:href="#SVGID_7_" overflow="visible"/></clipPath><path d="M685.1 218.8c-13.6 9.6-29.3 18.9-46.9 27.9-3.5 1.8-5.6 5-5.7 8.4-.2 9.2-.6 26.7-.7 27.5v.2c-1.5 18.7-4 41.2-9.7 65.8 3.9 2.7 8.6 4.9 11.9 6.1.2.1.4.1.8.1 5.4-.6 27.5-17.3 43.8-25.5 2.1-1.1 3.6-2.8 4-4.8 4.4-18.5 6.9-37.5 7.4-56.7.4-14.3 10-30.4 10.4-44.4v-.1c-.1-2.1-8-4.1-15.3-4.5" clip-path="url(#SVGID_3_)" fill="#ffd661"/><path d="M704.8 269.3c.4-14.3-.3-28.5-2.1-42.5-.7-5.9-8.9-8.7-14.2-4.9-12.9 9.1-27.8 18-44.5 26.6-3.2 1.7-5.2 4.6-5.3 7.8-.2 8.6-.6 24.9-.6 25.6v.2c-1.4 18.1-4 40.2-9.7 64.3-1.4 6 5.9 10.8 12.3 8.2 17.6-7.2 35.4-15.1 52.7-23.8 2.1-1.1 3.6-2.8 4-4.8 4.4-18.5 6.8-37.4 7.4-56.7z" fill="#ffe491"/><path d="M222 334.1c-7.1-33.9-7-57.2-8.4-82.6v-.3c0-1 .1-23.7.1-35.7 0-4.5-2.7-8.7-7.1-11.2-21.3-11.5-41.7-24.5-61.2-38.9-2.8-2.1-9.1-2.8-15.7-2.6 20.5 15 42 28.7 64.4 40.8 4.8 2.6 7.7 7.1 7.6 12 0 12.9-.1 37.4-.1 38.4v.3c1.4 26.1 4.1 57.7 11 92.4 5.8-3.8 10.3-8.3 9.4-12.6z" fill="#33b186"/><path d="M201.6 254c0-1 .1-25.5.1-38.4 0-4.9-2.8-9.4-7.6-12-22.4-12.1-43.9-25.7-64.4-40.8-4.8.1-9.8.7-13.8 1.7 3.1-.2 6.3.6 8.9 2.6 19.5 14.4 39.9 27.3 61.2 38.9 4.5 2.4 7.1 6.7 7.1 11.2 0 12-.1 34.8-.1 35.8v.3c1.3 25.4 4 56.3 11.1 90.3.9 4.2-1.2 7.8-4.6 10 4.1-1.7 9-4 13.1-6.7-6.9-34.7-9.6-66.2-11-92.4v-.5z" fill="#3fb58d"/><path class="st19" d="M134.4 317.5c-2.8-1.4-4.8-3.9-5.5-6.9-5.5-26.2-8.2-52.8-8.2-79.5 0-20-12.9-42.8-12.9-62.5 0-1.6 3.3-3 8-4.1-5.4.3-10.3 3.7-11.1 8.9-3 19.6-4.5 39.5-4.5 59.3 0 26.7 2.7 53.4 8.2 79.5.7 3 2.7 5.5 5.5 6.9 23.8 12.8 48.4 24.6 72.7 35.2 4.5 2 9.4 1.3 12.9-1-1.3.5-2.6 1-3.7 1.4-5.2 1.9-37.6-24.4-61.4-37.2z"/><path class="st19" d="M204.1 343.4c-7.1-33.9-9.8-64.8-11.1-90.3v-.3c0-1 .1-23.8.1-35.8 0-4.5-2.7-8.7-7.1-11.2-21.3-11.5-41.7-24.5-61.2-38.9-2.6-2-5.9-2.8-8.9-2.6-4.7 1.1-8 2.5-8 4.1 0 19.7 12.9 42.5 12.9 62.5 0 26.7 2.7 53.4 8.2 79.5.7 3 2.7 5.5 5.5 6.9 23.8 12.8 56.1 39 61.3 37.3 1.1-.4 2.4-.9 3.7-1.4 3.4-2 5.5-5.7 4.6-9.8z"/><g><path d="M162 599.6c.4-1.3.5-2.6.5-3.9l-2.7-63.8c-.3-6.2-5.3-11.1-11.5-11.2-24.1-.3-49.8-3.1-73.1-7.1-1.1-.2-2.1-.2-3.2-.1 3.9-3.2 8.5-6.3 11.4-5.7 22.5 4.9 46.4 5.5 70.5 5.9 6.9.1 12.4 5.6 12.7 12.5l2.6 62.1c-.8 7-8.7 12.9-13 15.7l.1-.1c2-1.3 3.9-2.7 5.7-4.3z" fill="#5e97e7"/><path d="M149 519.9c6.2.1 11.3 5 11.5 11.2l2.9 63.8c.1 1.3-.1 2.6-.5 3.9-1.8 1.6-4.6 3.7-6.6 5 1.6-1.5 2.6-3.6 2.6-5.9v-.4l-2.7-65.6c-.2-4.3-3.8-7.8-8.1-7.8-24.6-.1-51.3-3.1-74.9-7.3-3-.5-5.8 1.5-7.6 3.8-.2.2-.5.1-.5-.2 0-.3 0 0 0 0s4.1-4.8 8-8c1.1-.1 1.9-.1 3 .1 23.2 4.2 48.7 7.2 72.9 7.4z" fill="#6c9fe9"/><path class="st36" d="M63.7 523.5c.2-1.2.7-2.2 1.3-3.1 3.4 31.1 15.7 43.6 21.5 68.6 20.1 3.3 37.2 12.7 56.2 15.7 3.5.6 7.1.9 10.8.9 0 0 1.1-.6 2.7-1.6-1.4 1.3-3.3 2.1-5.4 2.1-22.2-.1-46.3-2.3-69-5.7-3.3-.5-6-3-6.7-6.3-4.6-20.7-8.4-43.4-11.4-68.2-.2-.8-.1-1.6 0-2.4z"/><path class="st36" d="M142.8 604.7c3.5.6 7.1.9 10.8.9 1-.5 1.9-1.1 2.8-1.7l-.1.1c-1.6 1-2.7 1.6-2.7 1.6-3.7-.1-7.3-.4-10.8-.9zM86.6 589c20 3.3 37.2 12.7 56.2 15.7-19.1-3-36.2-12.5-56.2-15.7-5.9-25-18.1-37.5-21.5-68.6 3.3 31 15.6 43.5 21.5 68.6z"/><path class="st36" d="M65 520.3c1.8-2.5 4.9-4 8.1-3.4 23.6 4.3 50.3 7.3 74.9 7.3 4.3 0 7.9 3.4 8.1 7.8l2.7 65.6v.4c0 2.3-1 4.4-2.6 5.9-.9.6-1.9 1.2-2.8 1.7-3.7 0-7.3-.4-10.8-.9-19-3-36.2-12.4-56.2-15.7-5.7-25.1-18-37.6-21.4-68.7z"/></g></svg>