<svg xmlns="http://www.w3.org/2000/svg" data-name="Layer 1" viewBox="0 0 310.41 222.51"><defs/><defs><linearGradient id="a" x1="16.56" x2="306.56" y1="107.52" y2="107.52" gradientUnits="userSpaceOnUse"><stop offset="0" stop-color="#cfedf9"/><stop offset=".33" stop-color="#d5effa"/><stop offset=".78" stop-color="#e8f6fc"/><stop offset="1" stop-color="#f3fafd"/></linearGradient></defs><path fill="url(#a)" d="M16.56 117.44a43.15 43.15 0 0143.15-43.15c.84 0 1.67 0 2.5.08 51 .92 97.15-41.42 97.15-41.42a86.3 86.3 0 01147.2 61.19c0 45.66-31.46 78.8-80.34 86.1-5.45.81-24.31 5.21-34.63 12.1-14.88 9.94-25.57 14.87-41.25 14.87A64.63 64.63 0 0197.64 180c-6-6.13-18.47-16.14-38.89-19.47a43.14 43.14 0 01-42.19-43.09z"/><path fill="#3397f5" d="M141.34 134.84l-41-19s-.5 81.25 0 81.48l41 19z"/><path fill="#0058b0" d="M134.86 139.15l-41-19s-.5 81.25 0 81.48l41 19z"/><path fill="none" stroke="#0058b0" stroke-dasharray="4" stroke-linecap="round" stroke-linejoin="round" d="M126.4 125.14l28.11-28.12m-.47-13.5h-52.82"/><path fill="#3397f5" d="M192.67 164.99h-16.09l-8.04-13.93 8.04-13.93h16.09l8.04 13.93-8.04 13.93z"/><path fill="none" stroke="#0058b0" stroke-dasharray="4" stroke-linecap="round" stroke-linejoin="round" d="M184.62 98.29v37.56"/><path fill="#3397f5" d="M222 76.11a37.39 37.39 0 10-37.39 37.39A37.39 37.39 0 00222 76.11zm-17.83 0a19.56 19.56 0 11-19.56-19.56 19.55 19.55 0 0119.57 19.56z"/><path fill="#ffd840" d="M257.43 105.21l-23.47 40.65h46.94l-23.47-40.65z"/><path fill="#bde6d6" d="M39.394 74.325l29.112-29.111 29.112 29.111-29.112 29.112z"/><path fill="#00de91" d="M39.39 82.7l29.112-29.11L97.613 82.7l-29.111 29.113z"/><path fill="none" stroke="#0058b0" stroke-dasharray="4" stroke-linecap="round" stroke-linejoin="round" d="M242.51 125.14L214.4 97.02"/></svg>