<svg xmlns="http://www.w3.org/2000/svg" viewBox="0 0 280 207.58"><defs/><linearGradient id="a" x1="1.31" x2="280" y1="104.39" y2="104.39" gradientUnits="userSpaceOnUse"><stop offset="0" stop-color="#cfedf9"/><stop offset=".32" stop-color="#d5eff9"/><stop offset=".78" stop-color="#e7f6fc"/><stop offset="1" stop-color="#f3fafd"/></linearGradient><path fill="url(#a)" d="M260.24 88.79c-25.05-18.47-39.23-49.13-39.23-49.13a66.13 66.13 0 00-60.07-38.45 71.03 71.03 0 00-24.71 4.78c-6.29 2.57-39.67 19.69-69.42 28.16-37.74 10.75-65.5 44.37-65.5 85.24a88.18 88.18 0 0088.19 88.19c31.02 0 55.91-19.97 55.91-19.97 28.74-20.37 72.03-19.18 85.15-18.28 1.14.14 4.86.33 5.33.33a44.1 44.1 0 0024.35-80.87z"/><path fill="#0058B0" d="M75.68 14.55h99.03v138.87H75.68z"/><path fill="#dbecfe" d="M68.76 7.63h99.03V146.5H68.76z"/><path fill="#fff" d="M71.42 10.29h99.03v138.87H71.42z"/><path fill="#00de91" d="M153.49 71.97h-32.55V64.3h32.55a3.66 3.66 0 013.66 3.66v.35a3.66 3.66 0 01-3.66 3.66z"/><path fill="#ffd840" d="M153.49 90.1h-32.55v-7.67h32.55a3.66 3.66 0 013.66 3.66v.35a3.66 3.66 0 01-3.66 3.66z"/><path fill="none" stroke="#00de91" stroke-linecap="round" stroke-miterlimit="10" stroke-width="2" d="M116.56 68.14H89.97"/><path fill="none" stroke="#ffd840" stroke-linecap="round" stroke-miterlimit="10" stroke-width="2" d="M116.56 86.26H89.97"/><path fill="#0058B0" d="M181.473 108.56l6.88-6.88 12.82 12.82-6.88 6.88z"/><path fill="#3397f5" d="M127.84 48.04a41.81 41.81 0 0059.12 59.12 41.81 41.81 0 00-59.12-59.12zM178.3 98.5a29.56 29.56 0 11-41.8-41.81 29.56 29.56 0 0141.8 41.81z"/><path fill="#6eb2f8" d="M237.94 158.13a6.7 6.7 0 01-9.48 0l-35.12-35.12a6.7 6.7 0 119.48-9.48l35.12 35.12a6.72 6.72 0 010 9.48z"/></svg>