<svg
  xmlns="http://www.w3.org/2000/svg"
  xmlns:xlink="http://www.w3.org/1999/xlink"
  viewBox="0 0 1400 868.201"
><defs><style
    >.cls-1{isolation:isolate;}.cls-2{fill:#e1eefc;}.cls-3{fill:url(#linear-gradient);}.cls-4{fill:url(#linear-gradient-2);}.cls-5{fill:#14d997;}.cls-6,.cls-7{fill:#0fa371;mix-blend-mode:multiply;}.cls-6{opacity:0.3;}.cls-7{opacity:0.2;}.cls-8{fill:#e5a17f;}.cls-9{fill:#dd966f;}.cls-10{fill:#d18965;}.cls-11{fill:#4193e5;}.cls-12{fill:#2f88d1;}.cls-13{fill:#67a6f0;}.cls-14{fill:#306bc4;}.cls-15{fill:#4e97ee;}.cls-16{fill:#3e8ddb;}.cls-17{fill:#11ce8a;}.cls-18{fill:#0fbc7a;}.cls-19{fill:#0caf6c;}.cls-20{fill:none;}.cls-21{fill:#ffd85f;}.cls-22{fill:#ecb855;}.cls-23{fill:#fff;}.cls-24{fill:#eef1f2;}.cls-25{fill:#0959aa;}.cls-26{fill:#084887;}.cls-27{fill:#034491;}.cls-28{fill:#1c70c4;}.cls-29{fill:#70abf1;}.cls-30{fill:#5e3d16;}.cls-31{fill:#4f3212;}.cls-32{fill:#579cef;}.cls-33{fill:#5ea0f0;}</style><linearGradient
      id="linear-gradient"
      x1="412.47"
      y1="893.635"
      x2="504.91"
      y2="893.635"
      gradientTransform="translate(309.295 -707.071) rotate(23.447)"
      gradientUnits="userSpaceOnUse"
    ><stop offset="0" stop-color="#d5ecf7" /><stop offset="0.351" stop-color="#dbeff8" /><stop
        offset="0.842"
        stop-color="#eef7fc"
      /><stop offset="1" stop-color="#f5fafd" /></linearGradient><linearGradient
      id="linear-gradient-2"
      x1="3100.635"
      y1="1687.245"
      x2="3599.211"
      y2="1188.67"
      gradientTransform="matrix(-0.874, 0.486, -0.425, -0.765, 4269.13, -147.139)"
      xlink:href="#linear-gradient"
    /></defs><g class="cls-1"><g id="Artwork"><path
        class="cls-2"
        d="M192.672,741.454l-52.23,4.417c-5.743.485-11.527.978-17.079,2.528-3.462.966-6.991,2.477-9.1,5.387-14.06,19.4,88.581,32.275,99.8,33.124C247.352,789.431,275,783.272,285.007,776c10.113-7.354,20.92-28.651,23.194-28.651,8.44,0,32.125,1.954,40.432.463,6.205-1.114,11.8-6.452,17.932-4.978,4.789,1.152,7.583,5.987,11.387,9.116,4.7,3.865,10.881,5.055,17.026,5.647,1.228.118,2.455.212,3.668.3q45.111,3.241,90.381,2.991c19.067-.106,38.662-.789,56.2-8.267,9.918-4.228,16.288-11.184,20.381-20.735,13.643,0,33.876.3,38.682.341,24.216.2,261.981-2.1,269.822,1.979,7.444,3.872,24.6,25.176,11.24,28.992l-37.986,10.85c-2.536.724-5.38,1.707-6.433,4.124-1.759,4.037,2.721,7.875,6.564,10.024,11.27,6.3,74.7,37.871,86.032,41.469,18.124,5.758,124.565-3.525,142.807-3.816,14.454-.23,27.034-3.956,38.652-12.556,5.282-3.91,10.006-10.915-.454-16.827-4.005-2.264-40.6-18.137-44.569-20.466-20.732-12.166,1.907-4.77-21.6-9.089-16.734-3.074-32.025-.567-48.148-1.918,16.171-16.874,43.809-15.2,64.744-11.277,22.671,4.251,37.719,8.047,70.037,14.1,12.229,2.29,15.917,3.639,45.024-6.821,5.909-2.124,31.024-12.45,35.928-16.373,9.1-7.276,13.434-10.758,6.367-14.553-3.374-1.812-20.946-6-24.559-7.276-59.653-21-102.817-26.931-165.028-32.37-51.461-4.5-102.258-15.761-153.553-22.228q-83.44-10.519-167.35-16.722a3257.168,3257.168,0,0,0-336.172-7.453"
      /><path
        class="cls-3"
        d="M353.6,334.788c8.472,3.471,17.9,3.888,27.029,3.165,7.249-.575,14.619-1.9,20.9-5.567,30.914-18.038,13.774-62.383-10.191-77.85-27.191-17.55-61.45,8.145-63.075,37.964C327.314,309.825,337.227,328.084,353.6,334.788Z"
      /><path
        class="cls-4"
        d="M728.571,226.042c-21.255,17.137-42.912,30.711-66.4,44.032-22.37,12.69-41.444,32.012-63.129,46.288-43.942,28.929-94.612,89.031-146.916,94.692-58.014,6.28-128.443-35.8-184.147-18.415C176.793,421.1,177.365,523.08,236.47,589.655c12.518,14.1,28.36,25.956,46.7,30.321,16.282,3.875,33.318,1.648,49.9-.6l79.151-10.714c99.016-13.4,192.819,26.255,284.824,57.883C757.6,687.365,820.783,739.1,889.44,717.316c29.262-9.282,102.194-22.288,129.239-37.576,38.709-21.881,31.794-20.217,66.8-47.72,67.125-52.732,119.352-151.622,133.608-226.286,21.078-110.39-25.759-243.92-131.23-281.844-55.449-19.937-142.907-28.154-203.822-10.82C813.254,133.213,783.725,181.573,728.571,226.042Z"
      /><polygon
        class="cls-5"
        points="911.52 69.803 548.236 69.803 366.595 384.415 548.236 699.028 911.52 699.028 1093.162 384.415 911.52 69.803"
      /><polygon
        class="cls-6"
        points="893.358 101.795 567.016 101.795 403.845 384.415 567.016 667.036 893.358 667.036 1056.53 384.415 893.358 101.795"
      /><path
        class="cls-7"
        d="M893.4,103.191S730.174,75.11,665.237,219.9C561.64,450.9,450.384,464.326,450.384,464.326l116.632,202.71H893.358L1056.53,384.415Z"
      /><path
        class="cls-6"
        d="M892.517,100.558S749.48,146.189,708.236,280.451C663.194,427.078,577,550.7,490.609,530.547l76.407,136.489H893.358L1056.53,384.415Z"
      /><path
        class="cls-8"
        d="M735.446,132.237q-5.1,15.382-9.092,31.1l26.379,6.517,6.072-41.36c13.622.222,26.123,1.373,39.525-1.86,10.3-2.485,20.569-5.752,31.165-5.859,2.239-.022,4.567.08,6.611-.834s3.669-3.245,2.934-5.359l8.688-1.463a5.6,5.6,0,0,0,2.542-.87c1.968-1.516,1.109-4.625-.01-6.842a11.437,11.437,0,0,0,4.125-1.6,3.977,3.977,0,0,0,1.765-3.825c-.486-2.319-3.35-3.118-5.708-3.353-13.2-1.32-27.458.966-40.64,1.735-9.745.568-19.489,1.151-29.235,1.681-9.81.534-19.145,2.589-28.92,2.4a8.583,8.583,0,0,0-3.47.412c-2.085.864-3.127,3.16-3.959,5.259Q739.49,120.05,735.446,132.237Z"
      /><path
        class="cls-9"
        d="M766.029,127.739c7.2,4.713,24.456.792,32.3-1.1,10.3-2.485,20.568-5.752,31.164-5.859,3.773-.038,11.125-.467,10-6.034C814.635,117.438,791.45,128.645,766.029,127.739Z"
      /><path
        class="cls-9"
        d="M737.8,132.951q-4.69,15.522-8,31.416c6.115,2.184,12.923,4.539,19.34,5.516a215.522,215.522,0,0,1,5.605-39.151c.56-2.348,1.2-4.77,2.736-6.633a12.405,12.405,0,0,1,4.816-3.314c7.577-3.233,14.559-4.914,22.621-6.611,24.532-5.165,28.406-5.165,43.9-7.747a199.047,199.047,0,0,0,27.115-6.456c0-7.747-32.209-2.416-46.13-1.6-9.745.568-19.489,1.151-29.235,1.681-6.194.337-12.3,1.459-18.482,1.906-4.508.327-10.221-.6-13.72,2.958a14.251,14.251,0,0,0-2.814,5.141Q741.3,121.371,737.8,132.951Z"
      /><path
        class="cls-10"
        d="M752.637,107.718c5.309-1.627,2.878,4.577,7.87,5.528,4,.762,8.323,2.429,12.332,1.487,13.369-3.142,11.242-3.219,21.116-5.724,17.632-4.487,43.546-7.788,61.656-9.541a13.41,13.41,0,0,0-5.343-2,143.37,143.37,0,0,0-34.7-3.005c-19.73.7-39.061,2.827-58.007,8.28C752.9,104.08,754.892,103.426,752.637,107.718Z"
      /><path
        class="cls-11"
        d="M699.441,363.394c-5.945-1.965-12.6-4.579-14.84-10.425-1.36-3.55-.729-7.513-.08-11.258,5.232-30.171,14.669-77.214,22.55-108.74,5.623-22.489,12.61-50.441,18.915-72.509,12.215,1.164,21.6,2.032,33.812,3.2,2.443,42.518-7.015,92.959-5.438,140.247,33.1,0,91.191-5.335,126.425.7,8,1.37,16.124,2.82,23.377,6.463s13.636,9.854,15.534,17.745c4.021,16.709-46.191,37.765-57.368,48.392-11.131,10.583-21.584,7.075-34.985,2.738C786.731,366.8,739.959,376.823,699.441,363.394Z"
      /><path
        class="cls-12"
        d="M827.343,379.943c-40.612-13.141-87.384-3.12-127.9-16.549-5.945-1.965-12.6-4.579-14.84-10.425-1.36-3.55-.729-7.513-.08-11.258,5.232-30.171,20.947-84.434,28.306-114.157,6.854-27.685,11.767-47.547,16.815-66.756,10.767,1.025,10.648,1.167,21.365,2.147-1.611,16.426-3.208,28.98-5.8,51.21a837.958,837.958,0,0,0-5.863,85.29c-.074,4.741.07,9.932,3.147,13.54,4.162,4.878,11.621,4.687,18,4.088l80.457-7.549c15.209-1.427,27.392-.962,42.314,2.263a25.675,25.675,0,0,1,7.8,2.6,17.434,17.434,0,0,1,5.715,5.891c7.543,12.072,3.861,28.623-5.11,39.675s-22.136,17.739-35.1,23.608C848.41,387.25,835.358,382.537,827.343,379.943Z"
      /><g class="cls-1"><polygon
          class="cls-13"
          points="296.547 517.43 400.146 499.363 477.073 513.612 373.473 531.679 296.547 517.43"
        /><polygon
          class="cls-14"
          points="373.473 531.679 414.663 630.563 378.926 715.184 301.999 700.935 260.81 602.063 296.547 517.43 373.473 531.679"
        /><polygon
          class="cls-15"
          points="373.473 531.679 477.073 513.612 518.262 612.496 414.663 630.563 373.473 531.679"
        /><polygon
          class="cls-16"
          points="414.663 630.563 518.262 612.496 482.525 697.118 378.926 715.184 414.663 630.563"
        /></g><g class="cls-1"><polygon
          class="cls-13"
          points="1066.616 629.319 1125.305 619.084 1168.884 627.156 1110.195 637.391 1066.616 629.319"
        /><polygon
          class="cls-14"
          points="1110.195 637.391 1133.529 693.409 1113.284 741.348 1069.704 733.275 1046.37 677.264 1066.616 629.319 1110.195 637.391"
        /><polygon
          class="cls-15"
          points="1110.195 637.391 1168.884 627.156 1192.218 683.174 1133.529 693.409 1110.195 637.391"
        /><polygon
          class="cls-16"
          points="1133.529 693.409 1192.218 683.174 1171.973 731.113 1113.284 741.348 1133.529 693.409"
        /></g><g class="cls-1"><polygon
          class="cls-17"
          points="244.057 640.917 187.027 629.148 243.347 622.125 300.377 633.894 244.057 640.917"
        /><polygon
          class="cls-5"
          points="300.377 633.894 325.547 690.009 294.405 753.157 238.085 760.18 212.907 704.055 244.057 640.917 300.377 633.894"
        /><polygon
          class="cls-18"
          points="238.085 760.18 181.056 748.411 155.877 692.286 212.907 704.055 238.085 760.18"
        /><polygon
          class="cls-19"
          points="212.907 704.055 155.877 692.286 187.027 629.148 244.057 640.917 212.907 704.055"
        /></g><path
        class="cls-14"
        d="M896.228,315.164c20.6-8.809,43.967-8.97,66.087-5.433,7.223,1.155,14.908,2.977,19.771,8.441,5.906,6.636,5.752,17.235,1.239,24.887s-12.557,12.656-20.956,15.553c-9.833,3.39-20.781,4.225-30.623.86s-18.352-11.295-21.032-21.344"
      /><path
        class="cls-9"
        d="M911.062,261.168c4.8,31.81-23.271,56.879-43.018,64.777-1.166.467,19.268,28.748,19.126,30a6.3,6.3,0,0,0,.966,3.568c5.2,9.756,16.279,15.051,27.173,16.922,28.994,4.977,60.3-12.2,71.682-39.331a9.8,9.8,0,0,0,1.031-4.423c-.151-2.068-1.482-3.835-2.759-5.469-6.306-8.067-16.528.526-22.835-7.541-3.918-5.013-8.379-16.458-10.239-22.543-2.788-9.118-3.8-27.2-3.218-38.318.054-1.018,4.492-2.685,4.244-1.7"
      /><path
        class="cls-10"
        d="M951.019,291.567c1.67,10.734,8.257,20.218,12.986,23.371,8.519,5.68,7.115,3.492,18.915,6.305,2.017.481,4.951,9.366,5.1,11.434a9.8,9.8,0,0,1-1.031,4.423c-6.79,16.19-20.7,28.829-36.878,35.321a67.487,67.487,0,0,1-26.094,4.85c-4.76-.065-8.233-.024-12.857-1.609a93.749,93.749,0,0,1-15.475-6.927c-2.623-1.473-5.48-3.578-5.531-6.586a8.671,8.671,0,0,1,1.345-4.129c7.617-14.177,33.922,19.819,37.826,4.206,11.034-44.136,12.917-85.87,10.284-107.516-1.482-12.189-6.728-12.285-10.96-15.855-.835-.7,14.463-1.365,16.236-1.206,5.2.467,6.806,5.206,7.822,9.806,1.333,6.041-3.227,7.2-3.153,13.4C949.64,267.79,949.36,280.9,951.019,291.567Z"
      /><path
        class="cls-20"
        d="M1161.7,566.405a9.443,9.443,0,0,0-6.639,5.561,7.13,7.13,0,0,0,2.177,8.1,9.05,9.05,0,0,0,5.19,1.477c4.822.09,9.789-2.18,12.309-6.293s2.087-10.007-1.464-13.271-9.992-2.907-12.715,1.074l1.063,3.077"
      /><path
        class="cls-21"
        d="M543.223,204.472c2.186-8.065-.242-16.556-4.072-23.982-1.971-3.822-7.2-6.991-10.607-9.06-1.439-.873-56.41,104.444-72.033,126.808-.628.9,1.08,5.482,1.589,6.326,6.814,11.3,18.338,14.941,31.513,14.166,26.8-1.576,53.279,8.089,53.593,7.881.725-.479,6.538-29.605,18.916-36.254-18.916,1.576-36.255-6.305-37.131-8.008-.464-.9-1.607-1.3-2.032-2.22C522.426,278.975,541.685,210.149,543.223,204.472Z"
      /><path
        class="cls-22"
        d="M520.987,190.632q5.208-8.365,10.484-16.688l-3.5-2c-27.61,39.813-45.256,86.524-73.035,126.292-.629.9,2.656,5.482,3.165,6.326,6.814,11.3,18.338,14.941,31.513,14.166,18.429-1.084,36.022,3.155,53.606,7.875,1.124-3.972,4.394-7.837,4.624-11.855-12.661-1.254-25-2.188-37.354-5.644-11.29-3.115-22.589-7.76-30.66-16.246a23.948,23.948,0,0,1-5.857-9.349c-2.632-8.715,2.05-17.793,6.616-25.669Q500.256,223.921,520.987,190.632Z"
      /><circle class="cls-23" cx="489.613" cy="288.781" r="11.034" /><path
        class="cls-23"
        d="M517.222,194.03s20.535,1.232,25.624,13.313c0,0,12.971-24.173-13.826-35.207Z"
      /><path
        class="cls-24"
        d="M457.885,300.126l73.139-126.011a2.384,2.384,0,0,0-.782-3.208h0a2.383,2.383,0,0,0-3.341.815L453.762,297.733a2.383,2.383,0,0,0,.781,3.207h0A2.383,2.383,0,0,0,457.885,300.126Z"
      /><path
        class="cls-25"
        d="M828.965,635.1a414.341,414.341,0,0,1-50.759-10.323c-21.645-5.727-43.488-13.137-60.7-27.451-23.685-19.693-35.89-50.538-39.163-81.165s.913-46.883,5.887-77.28c4.1-25.077,23.68-63.7,33.055-87.321-54.645-4.726-142.164-3.852-194.434-20.474-.1-12.866,4.448-36.719,5.888-49.5,42.2-5.4,206.557-13.657,245.842-5.983,7.914,1.546,16.117,3.222,22.6,8.023,14.5,10.746,12.321,52.95,10.083,70.858-6.828,54.64-5,154.571-29.252,234.766"
      /><path
        class="cls-26"
        d="M828.965,635.1a414.341,414.341,0,0,1-50.759-10.323c-21.645-5.727-43.488-13.137-60.7-27.451-23.685-19.693-35.89-50.538-39.163-81.165s.913-46.883,5.887-77.28c4.1-25.077,23.68-63.7,33.055-87.321-54.642-4.726-142.158-3.852-194.426-20.471-1.432-.455,3.486-19.477,3.747-20.751,32.511,13.681,94.529,9.952,129.484,5.232S726,303.187,761.2,305.436c4.645.3,9.416.806,13.53,2.982,6.6,3.491,10.462,10.841,11.578,18.225s-.116,14.9-1.44,22.25c-3.593,19.937-35.83,184.9-22.749,200.366,5.828,6.89,64.013-49.772,66.469-41.088,1.623,5.739-16.608-8.919-17.476-3.019l-6.466,43.986"
      /><path
        class="cls-14"
        d="M791.689,625.486c8.3,13.67,16.933,27.709,29.853,37.133a61.057,61.057,0,0,0,27.483,11.1,32.824,32.824,0,0,0,10.6,0c10.342-1.965,17.989-10.905,22.665-20.336a72.271,72.271,0,0,0-48.394-102.5"
      /><path
        class="cls-23"
        d="M514.587,571.672q-6.645,39.52-14.221,78.878a166.753,166.753,0,0,0,33.909,1.891A613.63,613.63,0,0,0,550.321,576.5c.253-1.738.221-4-1.406-4.657"
      /><path
        class="cls-25"
        d="M882.678,612.128c-16.383,24.822-18.3,40.981-44.8,54.473-11.774,5.993-24.342,10.655-37.429,12.457-41.753,5.749-82.493-18.4-111.077-49.374-16.1-17.443-96.823-172.783-95.089-180.757-13.14,49.569-20.233,124.824-45.569,169.41-.906,1.6-34.186-4.593-46.459-12.533,6.5-67.468,9.628-107.876,18.436-165.551,4.29-28.091,13.834-77.846,28.946-92.73,9.982-9.831,21.012-12.662,34.83-10.392,30.736,5.048,49.387,22.771,70.116,44.761,22.988,24.384,61.2,71.527,79.286,95.4,39.407,52.017,85.723,108.432,126.1,148.17"
      /><path
        class="cls-27"
        d="M837.877,666.6c-11.774,5.993-24.342,10.655-37.429,12.457-41.753,5.749-82.493-18.4-111.077-49.374-16.1-17.443-96.823-172.783-95.089-180.757-13.139,49.565-19.028,122.594-44.36,167.183-2.322,4.087-18.947-1.586-21.9-2.577,8.239-1.536,30.92-78.587,39.372-170.284,1.288-13.971-2.343-28.047-1.335-42.042s5.818-28.562,16.842-37.24c-3.576,10.741-2.267,22.575,1.029,33.406,8.323,27.341,28.278,49.345,47.674,70.335,14.9,16.127,55.165,65.457,72.96,78.32,39.619,28.638,92.241,38.474,139.529,26.081,11.695-3.065,25.755-6.882,34.586,1.376,3.261,3.05,5.13,7.32,6.261,11.639,5.071,19.362-4.633,31.023-14.522,45.852C860.628,645.655,854.781,658,837.877,666.6Z"
      /><path
        class="cls-15"
        d="M937.21,362.558c18.333,1.639,45.71-20.823,42.558-47.62,12.168,6.509,39.227,22.869,41.453,37.276,3.147,20.366-13.2,27.024-18.748,46.9-7.326,26.221-39.095,181.266-87.333,229.5-11.034,11.034-46.934,47.52-55.17,45.712,9.684-16.786,4.744-42.157-8.464-56.34-23.5-25.228-70.156-18.27-85.722-51.072-10.269-21.639-12.751-32.562-5.481-55.384,11.429,6.5,21.938-1.755,30.128-10.238,9.133-9.459,16.53-30.379,19.013-43.291,7.882-40.984,4.381-77.088,12.512-107.006,3.692-13.583,10.54-31.406,22.251-39.214,23.645-15.762,41.482-8.012,53.575-2.375-2.632,8.483-5.542,21.752,1.595,33.9C905.527,353.828,924.946,361.462,937.21,362.558Z"
      /><path
        class="cls-12"
        d="M929.327,360.65c22.068,9.458,53.593-18.915,50.441-45.712,12.168,6.509,38.057,21.7,40.283,36.106,3.147,20.366-12.025,28.194-17.578,48.07-7.326,26.221-39.095,181.266-87.333,229.5-11.034,11.034-46.934,47.52-55.17,45.712,9.684-16.786,4.744-42.157-8.464-56.34-10.65-11.434-26.027-16.205-40.438-20.928-7.439-2.438-14.955-4.806-22.01-8.239-7.51-3.654-11.849-10.02-18.854-14.437,12.434.356,24.842-2.312,36.436-6.817,27.241-10.583,49.857-31.135,66.406-55.223S900.462,460.7,908.828,432.7C912.091,421.778,929.327,360.65,929.327,360.65Z"
      /><path
        class="cls-28"
        d="M886.522,482.958q.612.213,1.223.429c10.953,3.87,21.588,8.578,32.209,13.281l50.088,22.179c-17.032,37.09-24.764,79.633-54.9,109.771-9.185,9.185-18.369,18.378-28,27.1-6.759,6.12-17.156,18.046-26.981,18.708,2.227-6.859,6.746-10.647,7-18.664a12.508,12.508,0,0,1,.587-4.485,10.955,10.955,0,0,1,3.344-3.825,137.053,137.053,0,0,0,44.347-71.768c2.052-8.458,3.238-17.614-.047-25.674-3-7.369-9.325-12.807-15.634-17.656a266.232,266.232,0,0,0-48.384-29.562c-16.815-7.951-32.859-17.583-47.192-26.651,3.951-9.924,2.978-12.348,4.973-16.965,13.343,3.094,28.4,10.259,41.688,13.6C862.841,475.785,874.834,478.9,886.522,482.958Z"
      /><path
        class="cls-29"
        d="M891.5,333.456c2.757,9.814,10.848,25.431,20.323,29.191s20.857,5.037,30.489,1.7c10.659-3.7,24.12-13.68,29.014-19.088,13.17-14.556,11.829-25.276,9.021-30.008s-8.316-4.377-14.264-4.815c7.215,1.462,18.413,9.233,4.134,27.141-12.483,15.656-59.857,39.7-72.035-3.557-1.7-6.023-3.029-11.786-1.923-17.73.643-3.462,7.42-7.707,2.4-7.463C888.1,309.337,889.558,326.541,891.5,333.456Z"
      /><path
        class="cls-30"
        d="M852.5,191.767c3.536,12.967,12.448,24.854,16.686,37.634-.25-.754,10.926-14.489,12.123-17.281,3.283-7.665,6.625-15.6,6.577-23.943-.111-19.443-13.3-32.629-30.837-38.379.384,7.838-3.021,15.29-4.962,22.894A36.5,36.5,0,0,0,852.5,191.767Z"
      /><path
        class="cls-8"
        d="M863.871,200.175c1.081,11.883-7.57,37.294-5.948,49.188,1.018,7.467,15.412,41.422,18.382,45.957,4.366,6.668,11.046,10.94,16.642,10.092,23.063-3.5,41.358-26.567,51.385-45.1s13.58-33.323,13.469-54.4c-.009-1.781-.039-3.563-.069-5.345"
      /><path
        class="cls-9"
        d="M932.24,173.748c10.133,4.5,20.719,12.583,22.636,24.156.751,4.533.717,8.487,2.086,12.975,1.609,5.279,2.953,10.6,2.586,16.17-.535,8.127-4.465,15.589-8.31,22.769l-10.71,20a91.14,91.14,0,0,1-5.218,8.913c-7.855,11.349-21.211,18.457-34.9,19.383-6.9.467-13.672-.147-19.054-4.821a34.953,34.953,0,0,1-6.792-8.612c-1.5-2.5-2.642-7.359-4.681-9.287,5.565,5.261,13.931,5.941,21.589,6.092,5.982.117,12.384-.036,17.305-3.441,3.565-2.467,5.9-6.382,7.374-10.459,5.475-15.135.176-31.838-5.407-46.933-.767-2.074-1.646-4.284-3.488-5.507-2.411-1.6-5.591-.987-8.443-.5a66.521,66.521,0,0,1-27.945-1.2c-1.42-.37-6.372-.8-7.431-1.811,0,0-.261-4.978-.1-11.476.1-3.947-.966-8.873.317-12.994.774-2.489,2.591.451,4.447-1.379,15.184-14.975,38.946-20.567,59.215-13.937A52.318,52.318,0,0,1,932.24,173.748Z"
      /><path
        class="cls-30"
        d="M877.088,310.253c.68,3.458,6.291,6.643,7.858,7.075,7.6,2.1,21.589-7.771,32.122-15.66,3.273-2.451,9.426-10.836,12.121-13.969,5.587-6.5,5.105-11.777,5.544-20.4s-6.719-24.7-2.555-35.387c-8.7-4.037-3.247,28.426-9.881,37.634-4.994,6.931-11.723,12.9-19.671,16.193s-18.134.831-25.249-3.5a95.567,95.567,0,0,1-10.133-7.411C872.324,286.045,875.149,300.4,877.088,310.253Z"
      /><path
        class="cls-30"
        d="M866.146,272.15q.045.258.1.522c.689,3.248,3.317,5.395,4.006,8.643,1.155-2.277.747-7.709,1.287-10.2,1.061-4.894,3.8-7.189,11.634-6.6,4.635.349,16.513,4.976,18.211,6.454a11.687,11.687,0,0,1,3.478,7.269c.389,2.717.228,5.479.364,8.22a1.658,1.658,0,0,0,.425,1.241c.422.352,6.183-2.189,8.018-3.951-6.649-6.883-1.439-16.413-10.165-21.8-5.611-3.461-19.319-8.183-27.77-6.031C868.874,257.664,864.8,264.612,866.146,272.15Z"
      /><path
        class="cls-30"
        d="M908.733,130.647a132.2,132.2,0,0,0-14.686.488c-17.7,1.335-37.119,3.452-49.34,16.32a3.072,3.072,0,0,0-1.016,1.764,3.384,3.384,0,0,0,.965,2.147c9.562,12.589,9.449,29.786,19.594,42.094,10.97,13.308,34.269,10.567,49.078,6.237,3.47-1.015,7.6-2.14,10.387.159,1.9,1.569,2.459,4.3,2.173,6.75a46.983,46.983,0,0,1-1.934,7.128c-1.14,4.058-.633,11.273-.439,15.483.1,2.191,2.271,16.406,3.457,18.251s.937-11.794,2.976-12.6c4.035-1.6,10.038-17.135,16.683-10.3,9.97,10.262.152,17.941-2.139,31.984-1.752,10.744-.509,15.032,5.606,20.362,14.174-12.1,22.039-26.338,30.531-42.923,7.487-14.622,15.773-28.285,12.811-45.474-2.124-12.33-8.455-23.584-16.059-33.521-5.407-7.064-11.6-13.678-19.16-18.362s-16.633-7.326-25.435-6.045l-1.664,7.067C924.841,132.613,916.924,130.949,908.733,130.647Z"
      /><path
        class="cls-31"
        d="M878.591,190.688c12.324,8.348,28.72,5.773,43.344,3,2.083-.4,4.4-.75,6.192.379,1.713,1.078,2.427,3.189,2.888,5.16a46.8,46.8,0,0,1-2.008,27.607c6.389.421,11.472,5.829,13.955,11.73s3.023,12.408,4.486,18.64-.748,10.14,4.645,13.591c11.213-8.739,22.473-29.894,29.153-47.088,2.543-6.543,5.106-13.169,5.977-20.135s-.115-14.42-4.162-20.156c-1.506,5.53-3.167,11.334-7.244,15.363s-11.4,5.374-15.4,1.274c-2.52-2.581-3.049-6.434-3.778-9.967a59.465,59.465,0,0,0-11.824-25.11c.708,3.095-2.439,5.624-5.275,7.051a63.169,63.169,0,0,1-43.9,4.637,62.435,62.435,0,0,1-17.3-7.5c-3.56-2.23-8.377-8.866-12.375-5.525C858.1,170.2,873.59,187.3,878.591,190.688Z"
      /><path
        class="cls-9"
        d="M932.932,233.068c2.8-8.135,9.02-13.244,14.048-13.258a7.6,7.6,0,0,1,6.1,2.649c2.684,3.33,2.281,8.989,1.189,13.781a66.774,66.774,0,0,1-4.306,12.786,19.207,19.207,0,0,1-4.485,6.737c-4.068,3.472-10.159,1.714-12.068-3.482"
      /><path
        class="cls-23"
        d="M717.055,469.255,590.684,342.809a14.309,14.309,0,0,1-.037-20.236l3.04-3.892L741.493,465.945l-4.2,3.272A14.309,14.309,0,0,1,717.055,469.255Z"
      /><path
        class="cls-23"
        d="M576.343,300.356l41.549-175.167c1.824-7.689,15.978-12.444,23.667-10.62h1.074L594.547,320.233l-7.584-2.651A14.31,14.31,0,0,1,576.343,300.356Z"
      /><path
        class="cls-8"
        d="M724,384.326c-2.3.508-4.172,2.132-5.934,3.7-7.22,6.422-14.4,12.871-21.682,19.221a5.729,5.729,0,0,0-2.107,2.8,3.516,3.516,0,0,0,1.08,3.2,6.135,6.135,0,0,0,3.141,1.5c3.687.715,7.46-.717,10.718-2.587a39.853,39.853,0,0,0,5.728-3.994q1.341-1.122,2.58-2.358c.618-.617,1.605-2.238,2.493-2.4,2.468-.454,5.939,5.634,6.952,7.374,3.585,6.159,5.44,13.244,9.553,19.11a19.9,19.9,0,0,0,6.327,5.978c5.625,3.209,12.514,2.763,18.916,3.742a42.056,42.056,0,0,1,30.775,22.472A63.331,63.331,0,0,0,811.5,431.706a96.88,96.88,0,0,1-35.329-29.5c-2.983-4.055-5.643-8.335-8.424-12.531q-5.207-7.856-10.979-15.315c-1.282-1.656-2.668-3.361-4.6-4.169-4.151-1.735-8.638,1.292-12.117,4.145l-12.139,9.953Z"
      /><path
        class="cls-10"
        d="M720.874,397.173a4.24,4.24,0,0,0-1.963-.073,5.5,5.5,0,0,0-1.974,1.1c-7.117,5.433-13.6,12.345-22.239,14.69,2.665,1.306,4.525,2.348,7.554,1.907a19.988,19.988,0,0,0,6.959-2.64,39.853,39.853,0,0,0,5.728-3.994q1.341-1.122,2.58-2.358c.618-.617,1.605-2.238,2.493-2.4,2.468-.454,5.939,5.634,6.952,7.374,3.585,6.159,5.44,13.244,9.553,19.11a19.9,19.9,0,0,0,6.327,5.978c5.625,3.209,12.514,2.763,18.916,3.742a42.056,42.056,0,0,1,30.775,22.472,45,45,0,0,1,3.3-3.261c1.587-1.262,34.066-10.353,35.758-11.474-5.773-8.715-44.557-7.758-53.985-12.278-10.582-5.073-22.9-7.076-31.768-14.758-4.286-3.711-7.457-8.507-11.062-12.882s-7.918-8.507-13.357-10.106C721.244,397.268,721.06,397.217,720.874,397.173Z"
      /><path
        class="cls-9"
        d="M727.679,384.4a53.022,53.022,0,0,1,10.391,6.113,10.688,10.688,0,0,1,7.08-3.7,3.057,3.057,0,0,0,1.012-.195,3.008,3.008,0,0,0,.829-.679,12.044,12.044,0,0,1,6.494-3.376,26.763,26.763,0,0,0-7.187-5.288c-2.72-1.24-6.42-1.716-9.2-.622-.145-.212-9.273,7.959-9.418,7.747"
      /><path
        class="cls-10"
        d="M738.07,390.51a11.463,11.463,0,0,1,3.154-2.393,22.49,22.49,0,0,0-13.964-3.78C728.235,384.737,738.419,390.1,738.07,390.51Z"
      /><path
        class="cls-10"
        d="M746.187,386.619a12.494,12.494,0,0,1,3.178-2.639c-4.033-4.184-10.341-6.239-16.138-4.042C737.837,380.163,746.536,386.206,746.187,386.619Z"
      /><path
        class="cls-20"
        d="M1023.914,121.4a13.036,13.036,0,0,0,1.789,6.013,13.6,13.6,0,0,0,5.91-3.83,3.037,3.037,0,0,0-4.338-1.662"
      /><path
        class="cls-32"
        d="M784.321,457.937c33.09,20.934,165.128,75.365,173.379,74.528,10.261-1.042,13.721-1.823,22.068-7.882,5.83-4.232,39.407-86.695,42.559-104.034,7.7-42.33,9.479-58.27-6.548-78.564-2.127-2.693-4.5-5.314-7.571-6.852-8.148-4.085-18.447,1.088-23.328,8.785S976,358.2,973.462,366.955c-9.139,31.529-17.339,77.238-26.8,110.34-10.566-3.491-91.7-33.322-99.306-36.255-9.361-3.611-34.264-12.61-39.407-12.61-1.576,0-6.48,8.61-8.967,12.445A82.044,82.044,0,0,1,784.321,457.937Z"
      /><path
        class="cls-12"
        d="M926.315,521.38c6.741,4.385,22.878,11.948,31.385,11.085,10.261-1.042,13.721-1.823,22.068-7.882,5.83-4.232,37.323-87.207,42.559-104.034,7.445-23.923,8.105-28.593,7.081-44.629-.35-5.481-2.88-14.377-4.935-19.485a65.462,65.462,0,0,0-3.955-7.745c-.969-1.715-5.456-6.734-5.519-7.974,18.768,42.833,1.7,80.248-16.83,135.1A193.1,193.1,0,0,1,983.9,507.963c-5.391,9.306-13.939,17.331-24.457,19.578C948.287,529.924,936.909,525.613,926.315,521.38Z"
      /><path
        class="cls-33"
        d="M984.314,359.544c2.218-3.661,4.7-7.566,8.367-9.877a40.963,40.963,0,0,1,19.544-6.209,9.825,9.825,0,0,0-7.232-4.413,20.439,20.439,0,0,0-8.638,1.048c-13.753,4.2-19.011,13.473-22.893,26.863-9.139,31.529-17.339,77.237-26.8,110.339-10.566-3.491-91.7-33.322-99.306-36.255-9.344-3.6-34.176-12.578-39.38-12.61-2.661-.016-5.91,7.634-6.918,9.292,8.834-1.773,17.818,1.659,26.018,5.393,33.756,15.368,65.134,37.168,101.348,45.178,8.583,1.9,19.072,2.358,24.562-4.509,2.292-2.867,3.255-6.555,3.979-10.154,1.834-9.117,2.513-18.424,3.9-27.62,1.819-12.04,4.849-23.86,7.874-35.655l6.967-27.162C977.8,375.036,979.95,366.746,984.314,359.544Z"
      /><g class="cls-1"><polygon
          class="cls-18"
          points="935.975 799.529 873.281 764.152 823.973 674.573 886.667 709.951 935.975 799.529"
        /><polygon
          class="cls-5"
          points="1049.995 610.401 1099.314 699.979 1042.299 794.543 935.975 799.529 886.667 709.951 943.671 615.387 1049.995 610.401"
        /><polygon
          class="cls-19"
          points="886.667 709.951 823.973 674.573 880.977 580.01 943.671 615.387 886.667 709.951"
        /><polygon
          class="cls-17"
          points="943.671 615.387 880.977 580.01 987.301 575.024 1049.995 610.401 943.671 615.387"
        /></g><rect class="cls-5" x="724.41" y="84.225" width="165.509" height="17.339" /><path
        class="cls-8"
        d="M808.8,100.1a11.174,11.174,0,0,0-9.923-6.271c-4.4.08-9,.565-13.483.726a154.4,154.4,0,0,0-31.73,4.465c-2.511.625-5.366,1.633-6.2,4.081a5.286,5.286,0,0,0,.647,4.332c1.69,2.835,4.992,4.215,8.094,5.342,3.319,1.206,6.794,2.349,10.308,2,4.476-.441,8.317-3.2,12.229-5.423,9.011-5.112,17.832-6.425,27.895-6.848,1.011-.042,2.315-.319,2.441-1.322A1.968,1.968,0,0,0,808.8,100.1Z"
      /><path
        class="cls-21"
        d="M422.318,700.619c-8.669,2.455-16.87,9.412-21.61,17.074-2.439,3.942-.769,10.531-.788,14.833-.008,1.815,107.685-3.665,137.03-1.634,1.18.081,3.946-7.645,4.444-8.584,6.667-12.572,3.72-25.3-4.394-36.994-1.555-2.24,6.8-55.442,6.436-55.617-.845-.4-21.588,9.187-44.013,2.634-1.369,13.351-16,42.677-16.614,43.58C482.038,677.045,428.42,698.89,422.318,700.619Z"
      /><path
        class="cls-22"
        d="M431.769,720.465c-4.923.56-17.349,2.256-22.1,3.4-2.99.72-13.055,8.972-8.5,8.875,13.4-.286,43.4-.738,56.8-1.127,26.176-.758,52.813-2.53,78.978-.72,1.18.081,3.946-7.645,4.444-8.584,6.667-12.572,3.72-25.3-4.394-36.994-1.555-2.24,6.8-55.442,6.436-55.617-1.82-.871-12.015,2.975-13.856,3.628-6.016,2.131-8.824,5.377-10.226,11.769-4.894,22.306-12.4,46.2-31.3,59.012C469.824,716.454,453.974,717.942,431.769,720.465Z"
      /><circle class="cls-23" cx="511.651" cy="691.572" r="11.897" /><rect
        class="cls-23"
        x="399.477"
        y="727.263"
        width="141.067"
        height="6.798"
        rx="3.399"
      /><path
        class="cls-23"
        d="M428.243,698.721s-4.972,4.748,5.226,30.242l-33.992-1.7S389.024,700.771,428.243,698.721Z"
      /></g></g></svg>
