<?xml version="1.0" encoding="utf-8" ?>
<!-- Generator: Adobe Illustrator 24.1.0, SVG Export Plug-In . SVG Version: 6.00 Build 0)  -->
<svg
  version="1.1"
  id="Layer_1"
  xmlns="http://www.w3.org/2000/svg"
  xmlns:xlink="http://www.w3.org/1999/xlink"
  x="0px"
  y="0px"
  viewBox="0 0 615 390"
  style="enable-background:new 0 0 615 390;"
  xml:space="preserve"
>
<style type="text/css">
	.st0{fill:url(#SVGID_1_);}
	.st1{fill:none;}
	.st2{fill:#DBECFE;}
	.st3{fill:#FFD840;}
	.st4{fill:#FFE068;}
	.st5{fill:#FFE080;}
	.st6{fill:#FFDB51;}
	.st7{fill:#FFEA98;}
	.st8{fill:#FFDC53;}
	.st9{fill:#FFDF64;}
	.st10{fill:#4E97EE;}
	.st11{fill:#63A3F0;}
	.st12{fill:#61A2F0;}
	.st13{fill:#6CA9F1;}
	.st14{fill:#5EA0F0;}
	.st15{fill:#599DEF;}
	.st16{fill:#75AEF2;}
	.st17{fill:#81B5F3;}
	.st18{fill:#C5E0FC;}
	.st19{fill:#7CB2F2;}
	.st20{fill:#6FABF1;}
	.st21{fill:#14D997;}
	.st22{fill:#29DCA0;}
	.st23{fill:#22DB9D;}
	.st24{fill:#48E1AE;}
	.st25{fill:#58E4B5;}
	.st26{fill:#30DEA3;}
	.st27{fill:#51E3B2;}
	.st28{fill:#40E0AB;}
	.st29{fill:#2EDDA2;}
	.st30{fill:#3CDFA9;}
	.st31{opacity:0.2;}
	.st32{fill:#0FA371;}
	.st33{fill:#ECB855;}
	.st34{fill:#9DBCE1;}
	.st35{fill:#ADA8A3;}
	.st36{opacity:0.26;}
	.st37{fill:#73ADF2;}
	.st38{fill:#0959AA;}
	.st39{fill:#276DB4;}
	.st40{fill:#246BB3;}
	.st41{fill:#3375B8;}
	.st42{fill:#1F68B2;}
	.st43{fill:#1863AF;}
	.st44{opacity:0.2;fill:#276DB4;enable-background:new    ;}
	.st45{fill:#FFDA4B;}
	.st46{fill:#FFE377;}
	.st47{fill:#FFDC57;}
	.st48{fill:#FFE272;}
	.st49{fill:#FFDC55;}
	.st50{fill:#FFDE60;}
	.st51{fill:#93C5FA;}
	.st52{opacity:0.3;}
	.st53{fill:#306BC4;}
	.st54{fill:#004699;}
	.st55{fill:#00459F;}
	.st56{fill:#BA9857;}
	.st57{fill:#3ADFA8;}
	.st58{fill:#B18A40;}
	.st59{fill:#0ECC87;}
</style>
<g id="Layer_1_1_">
</g>
<g id="Layer_2_1_">
	<g>
		<g>
			
				<linearGradient
          id="SVGID_1_"
          gradientUnits="userSpaceOnUse"
          x1="312.8322"
          y1="-50.4093"
          x2="269.9561"
          y2="193.5757"
          gradientTransform="matrix(0.999 4.492839e-02 4.492839e-02 -0.999 16.8017 366.2148)"
        >
				<stop offset="0.1564" style="stop-color:#9EDAF2" />
				<stop offset="0.5022" style="stop-color:#C7EAF8" />
				<stop offset="0.8226" style="stop-color:#E7F6FC" />
				<stop offset="1" style="stop-color:#F3FAFD" />
			</linearGradient>
			<path
          class="st0"
          d="M555.6,98.4c-33.8-60.9-150.8-85.5-213.2-53.5c-48.8,25-127,87.2-181.4,93.7
				c-96.6,11.6-131.4,27.2-137.8,80.8c-5,42.3,33.8,84.9,76.6,101.7c125.9,49.3,281.2,58.2,386.7-15.3
				C574,244.8,581.1,144.3,555.6,98.4z"
        />
			<g>
				<path
            class="st1"
            d="M22.4,219.4c-2.7,22.8,7.3,45.6,23.8,64.5h466.1c29-28.4,45.2-61.8,51.8-93.5H30.4
					C26.3,198.7,23.7,208.2,22.4,219.4z"
          />
				<path
            class="st1"
            d="M99,321.2c125.9,49.3,281.2,58.2,386.7-15.3c6.6-4.6,12.8-9.5,18.6-14.5H53.1
					C66.2,304.2,82.3,314.6,99,321.2z"
          />
				<path class="st2" d="M564.1,190.5c0.5-2.5,1-4.9,1.4-7.4H34.8c-1.6,2.3-3.1,4.8-4.4,7.4H564.1z" />
				<path
            class="st2"
            d="M53.1,291.3h451.2c2.7-2.4,5.4-4.9,7.9-7.4h-466C48.4,286.5,50.7,288.9,53.1,291.3z"
          />
			</g>
			<g>
				<g>
					<g>
						<rect x="142.4" y="232.2" class="st3" width="17.1" height="52.6" />
					</g>
					<g>
						<path
                class="st4"
                d="M153.8,247.3h-6.3c-0.6,0-1.1-0.5-1.1-1.1v-7.6c0-0.6,0.5-1.1,1.1-1.1h6.3c0.6,0,1.1,0.5,1.1,1.1v7.6
							C154.9,246.8,154.4,247.3,153.8,247.3z"
              />
						<path
                class="st5"
                d="M153.8,247.6h-6.3c-0.7,0-1.3-0.6-1.3-1.3v-7.6c0-0.7,0.6-1.3,1.3-1.3h6.3c0.7,0,1.3,0.6,1.3,1.3v7.6
							C155.1,247,154.5,247.6,153.8,247.6z M147.6,237.8c-0.5,0-0.9,0.4-0.9,0.9v7.6c0,0.5,0.4,0.9,0.9,0.9h6.3
							c0.5,0,0.9-0.4,0.9-0.9v-7.6c0-0.5-0.4-0.9-0.9-0.9H147.6z"
              />
					</g>
				</g>
				<g>
					<rect x="159.5" y="228.3" class="st4" width="11" height="56.4" />
				</g>
				<g>
					<g>
						<rect x="183.3" y="229.1" class="st6" width="18.1" height="55.6" />
					</g>
					<g>
						<path
                class="st5"
                d="M194.8,276.3h-5.6c-1.4,0-2.5-1.1-2.5-2.5v-36.4c0-1.4,1.1-2.5,2.5-2.5h5.6c1.4,0,2.5,1.1,2.5,2.5v36.4
							C197.4,275.2,196.2,276.3,194.8,276.3z"
              />
						<path
                class="st7"
                d="M194.8,276.8h-5.6c-1.7,0-3-1.4-3-3v-36.4c0-1.7,1.4-3,3-3h5.6c1.7,0,3,1.4,3,3v36.4
							C197.9,275.5,196.5,276.8,194.8,276.8z M189.3,235.4c-1.1,0-2,0.9-2,2v36.4c0,1.1,0.9,2,2,2h5.6c1.1,0,2-0.9,2-2v-36.4
							c0-1.1-0.9-2-2-2H189.3z"
              />
					</g>
				</g>
				<g>
					<rect x="170.5" y="234.9" class="st8" width="12.7" height="49.8" />
				</g>
				<g>
					<g>
						<rect x="125.9" y="224.1" class="st9" width="17.1" height="60.7" />
					</g>
					<g>
						<circle class="st3" cx="134.4" cy="233.7" r="5" />
					</g>
					<g>
						<rect x="125.8" y="241.8" class="st3" width="17.2" height="8.7" />
					</g>
				</g>
			</g>
			<rect x="70.8" y="132.3" class="st10" width="9.9" height="50.7" />
			<g>
				<rect x="133.6" y="122.1" class="st10" width="19.8" height="61" />
			</g>
			<g>
				<g>
					<path
              class="st11"
              d="M146.2,174.3h-6.1c-1.8,0-3.3-1.5-3.3-3.3v-39.9c0-1.8,1.5-3.3,3.3-3.3h6.1c1.8,0,3.3,1.5,3.3,3.3V171
						C149.5,172.9,148,174.3,146.2,174.3z M140.1,128.9c-1.2,0-2.2,1-2.2,2.2V171c0,1.2,1,2.2,2.2,2.2h6.1c1.2,0,2.2-1,2.2-2.2
						v-39.9c0-1.2-1-2.2-2.2-2.2L140.1,128.9L140.1,128.9z"
            />
				</g>
			</g>
			<rect x="122.1" y="138.3" class="st12" width="11.5" height="44.8" />
			<g>
				<rect x="108.7" y="130.6" class="st13" width="13.4" height="52.5" />
			</g>
			<g>
				<rect x="108.7" y="141.5" class="st11" width="13.4" height="2.6" />
			</g>
			<g>
				<rect x="108.7" y="145.8" class="st11" width="13.4" height="2.6" />
			</g>
			<g>
				<rect x="92.2" y="124.9" class="st10" width="16.5" height="58.2" />
			</g>
			<g>
				<rect x="92.2" y="127" class="st11" width="16.5" height="1.3" />
			</g>
			<g>
				<rect x="92.2" y="144.1" class="st11" width="16.5" height="1.3" />
			</g>
			<g>
				<rect x="92.2" y="178" class="st11" width="16.5" height="1.3" />
			</g>
			<g>
				<circle class="st11" cx="100.5" cy="136.1" r="5.5" />
			</g>
			<g>
				<rect x="80.7" y="142.5" class="st12" width="11.5" height="40.5" />
			</g>
			<g>
				<ellipse class="st10" cx="86.5" cy="156.2" rx="3.3" ry="5.6" />
			</g>
			<rect x="179" y="130.1" class="st10" width="10.4" height="52.9" />
			<g>
				<rect x="256.7" y="130.9" class="st14" width="17" height="52.2" />
			</g>
			<g>
				<path
            class="st11"
            d="M267.5,175.6h-5.2c-1.6,0-2.8-1.3-2.8-2.8v-34.2c0-1.6,1.3-2.8,2.8-2.8h5.2c1.6,0,2.8,1.3,2.8,2.8v34.2
					C270.3,174.3,269.1,175.6,267.5,175.6z M262.3,136.7c-1,0-1.9,0.8-1.9,1.9v34.2c0,1,0.8,1.9,1.9,1.9h5.2c1,0,1.9-0.8,1.9-1.9
					v-34.2c0-1-0.8-1.9-1.9-1.9H262.3z"
          />
			</g>
			<rect x="244.7" y="136.3" class="st15" width="12" height="46.7" />
			<g>
				<rect x="230.8" y="128.3" class="st10" width="14" height="54.7" />
			</g>
			<g>
				<rect x="230.8" y="139.7" class="st13" width="14" height="2.7" />
			</g>
			<g>
				<rect x="230.8" y="144.2" class="st13" width="14" height="2.7" />
			</g>
			<g>
				<rect x="205.2" y="118" class="st10" width="17.2" height="65.1" />
			</g>
			<g>
				<rect x="205.2" y="155.9" class="st11" width="17.2" height="1.3" />
			</g>
			<g>
				<rect x="205.2" y="152" class="st11" width="17.2" height="1.3" />
			</g>
			<g>
				<rect x="205.2" y="177.8" class="st11" width="17.2" height="1.3" />
			</g>
			<g>
				<circle class="st11" cx="213.8" cy="167.6" r="5.7" />
			</g>
			<g>
				<rect x="189.4" y="127" class="st12" width="15.8" height="56" />
			</g>
			<g>
				<ellipse class="st10" cx="197.3" cy="146" rx="4.6" ry="7.7" />
			</g>
			<g>
				<rect x="222.2" y="127" class="st12" width="8.8" height="56" />
			</g>
			<g>
				<rect x="225" y="144.2" class="st13" width="3.3" height="22.9" />
			</g>
			<g>
				<ellipse class="st13" cx="226.7" cy="137.6" rx="2.5" ry="4.3" />
			</g>
			<polygon class="st11" points="108.7,130.6 108.7,183.1 113.3,183.1 			" />
			<polygon class="st11" points="178.3,130.6 178.3,183.1 182.9,183.1 			" />
			<polygon class="st11" points="245.1,136.1 245.1,183.1 249.7,183.1 			" />
			<g>
				<rect x="328.7" y="122" class="st10" width="19.8" height="61" />
			</g>
			<g>
				<path
            class="st16"
            d="M342.7,173.8h-8.8c-0.8,0-1.4-0.6-1.4-1.4V163c0-0.8,0.6-1.4,1.4-1.4h8.8c0.8,0,1.4,0.6,1.4,1.4v9.3
					C344.1,173.1,343.5,173.8,342.7,173.8z"
          />
			</g>
			<g>
				<rect x="404.2" y="122" class="st10" width="19.8" height="61" />
			</g>
			<g>
				<path
            class="st17"
            d="M416.9,174.3h-6.1c-1.8,0-3.3-1.5-3.3-3.3v-39.9c0-1.8,1.5-3.3,3.3-3.3h6.1c1.8,0,3.3,1.5,3.3,3.3V171
					C420.2,172.8,418.7,174.3,416.9,174.3z M410.7,128.9c-1.2,0-2.2,1-2.2,2.2V171c0,1.2,1,2.2,2.2,2.2h6.1c1.2,0,2.2-1,2.2-2.2
					v-39.9c0-1.2-1-2.2-2.2-2.2L410.7,128.9L410.7,128.9z"
          />
			</g>
			<rect x="273.8" y="130.1" class="st10" width="10.4" height="52.9" />
			<g>
				<rect x="311.8" y="130.9" class="st14" width="17" height="52.2" />
			</g>
			<g>
				<path
            class="st16"
            d="M323,161.6h-6.1c-1.1,0-1.9-0.9-1.9-1.9v-21.5c0-1.1,0.9-1.9,1.9-1.9h6.1c1.1,0,1.9,0.9,1.9,1.9v21.5
					C325,160.7,324.1,161.6,323,161.6z"
          />
			</g>
			<rect x="284.1" y="136.3" class="st15" width="12" height="46.7" />
			<rect x="440" y="130.1" class="st10" width="10.4" height="52.9" />
			<g>
				<rect x="462.3" y="130.9" class="st14" width="17" height="52.2" />
			</g>
			<g>
				<path
            class="st10"
            d="M473.1,175.1h-5.2c-1.3,0-2.4-1.1-2.4-2.4v-34.2c0-1.3,1.1-2.4,2.4-2.4h5.2c1.3,0,2.4,1.1,2.4,2.4v34.2
					C475.5,174,474.4,175.1,473.1,175.1z"
          />
				<path
            class="st18"
            d="M473.1,175.6h-5.2c-1.6,0-2.8-1.3-2.8-2.8v-34.2c0-1.6,1.3-2.8,2.8-2.8h5.2c1.6,0,2.8,1.3,2.8,2.8v34.2
					C475.9,174.3,474.7,175.6,473.1,175.6z M467.9,136.7c-1,0-1.9,0.8-1.9,1.9v34.2c0,1,0.8,1.9,1.9,1.9h5.2c1,0,1.9-0.8,1.9-1.9
					v-34.2c0-1-0.8-1.9-1.9-1.9H467.9z"
          />
			</g>
			<rect x="450.3" y="136.3" class="st15" width="12" height="46.7" />
			<g>
				<rect x="348.5" y="128.3" class="st10" width="14" height="54.7" />
			</g>
			<g>
				<rect x="348.5" y="139.7" class="st17" width="14" height="2.7" />
			</g>
			<g>
				<rect x="348.5" y="144.1" class="st17" width="14" height="2.7" />
			</g>
			<g>
				<rect x="378.3" y="118" class="st10" width="17.2" height="65.1" />
			</g>
			<g>
				<rect x="378.3" y="177.7" class="st11" width="17.2" height="1.3" />
			</g>
			<g>
				<rect x="424.1" y="117.9" class="st10" width="17.2" height="65.1" />
			</g>
			<g>
				<rect x="424.1" y="143.8" class="st11" width="17.2" height="1.3" />
			</g>
			<g>
				<rect x="424.1" y="147.7" class="st11" width="17.2" height="1.3" />
			</g>
			<g>
				<rect x="424.1" y="122" class="st11" width="17.2" height="1.3" />
			</g>
			<g>
				<circle class="st19" cx="432.6" cy="133.4" r="5.7" />
			</g>
			<g>
				<rect x="362.5" y="127" class="st20" width="15.8" height="56" />
			</g>
			<g>
				<ellipse class="st10" cx="370.4" cy="171.4" rx="3.3" ry="5.5" />
			</g>
			<g>
				<rect x="395.4" y="127" class="st12" width="8.8" height="56" />
			</g>
			<g>
				<rect x="398.1" y="144.2" class="st13" width="3.3" height="22.9" />
			</g>
			<g>
				<ellipse class="st13" cx="399.8" cy="137.6" rx="2.5" ry="4.3" />
			</g>
			<g>
				<rect x="517.8" y="122" class="st10" width="19.8" height="61" />
			</g>
			<g>
				<path
            class="st17"
            d="M531.1,174.3H525c-1.8,0-3.3-1.5-3.3-3.3v-39.9c0-1.8,1.5-3.3,3.3-3.3h6.1c1.8,0,3.3,1.5,3.3,3.3V171
					C534.4,172.9,532.9,174.3,531.1,174.3z M525,128.9c-1.2,0-2.2,1-2.2,2.2V171c0,1.2,1,2.2,2.2,2.2h6.1c1.2,0,2.2-1,2.2-2.2v-39.9
					c0-1.2-1-2.2-2.2-2.2L525,128.9L525,128.9z"
          />
			</g>
			<rect x="491.4" y="130.2" class="st10" width="10.4" height="52.9" />
			<g>
				<rect x="462.5" y="130.8" class="st14" width="17" height="52.2" />
			</g>
			<g>
				<path
            class="st16"
            d="M468.7,175.1h5.2c1.3,0,2.4-1.1,2.4-2.4v-34.2c0-1.3-1.1-2.4-2.4-2.4h-5.2c-1.3,0-2.4,1.1-2.4,2.4v34.2
					C466.3,174.1,467.4,175.1,468.7,175.1z"
          />
			</g>
			<rect x="479.5" y="136.4" class="st15" width="12" height="46.7" />
			<g>
				<rect x="546.3" y="117.9" class="st10" width="17.2" height="65.1" />
			</g>
			<g>
				<rect x="546.3" y="156" class="st11" width="17.2" height="1.3" />
			</g>
			<g>
				<rect x="546.3" y="152.1" class="st11" width="17.2" height="1.3" />
			</g>
			<g>
				<rect x="546.3" y="177.8" class="st11" width="17.2" height="1.3" />
			</g>
			<g>
				<circle class="st19" cx="554.9" cy="146" r="3.5" />
			</g>
			<g>
				<rect x="500.6" y="118" class="st10" width="17.2" height="65.1" />
			</g>
			<g>
				<rect x="500.6" y="143.8" class="st11" width="17.2" height="1.3" />
			</g>
			<g>
				<rect x="500.6" y="147.7" class="st11" width="17.2" height="1.3" />
			</g>
			<g>
				<rect x="500.6" y="121.9" class="st11" width="17.2" height="1.3" />
			</g>
			<g>
				<circle class="st19" cx="509.2" cy="133.4" r="5.7" />
			</g>
			<g>
				<rect x="537.6" y="127.1" class="st12" width="8.8" height="56" />
			</g>
			<g>
				<rect x="540.3" y="144.2" class="st13" width="3.3" height="22.9" />
			</g>
			<g>
				<ellipse class="st13" cx="542" cy="137.6" rx="2.5" ry="4.3" />
			</g>
			<polygon class="st10" points="284.1,136 284.1,183 291.6,183 			" />
			<polygon class="st10" points="348.4,128.3 348.4,183.4 363.7,183.4 			" />
			<polygon class="st10" points="450.3,136.2 450.3,183.4 465.6,183.4 			" />
			<rect x="335.2" y="130.6" class="st19" width="2.9" height="27.1" />
			<rect x="339.9" y="130.6" class="st19" width="2.9" height="27.1" />
			<g>
				<g>
					<rect x="511.7" y="43.9" class="st21" width="10.4" height="52.9" />
				</g>
				<g>
					<g>
						<rect x="482.8" y="44.6" class="st22" width="17" height="52.2" />
					</g>
					<g>
						<path
                class="st21"
                d="M488.9,88.9h5.2c1.3,0,2.4-1.1,2.4-2.4V52.4c0-1.3-1.1-2.4-2.4-2.4h-5.2c-1.3,0-2.4,1.1-2.4,2.4v34.2
							C486.6,87.8,487.6,88.9,488.9,88.9z"
              />
						<path
                class="st18"
                d="M494.2,89.4H489c-1.6,0-2.8-1.3-2.8-2.8V52.4c0-1.6,1.3-2.8,2.8-2.8h5.2c1.6,0,2.8,1.3,2.8,2.8v34.2
							C497,88.1,495.7,89.4,494.2,89.4z M488.9,50.5c-1,0-1.9,0.8-1.9,1.9v34.2c0,1,0.8,1.9,1.9,1.9h5.2c1,0,1.9-0.8,1.9-1.9V52.4
							c0-1-0.8-1.9-1.9-1.9H488.9z"
              />
					</g>
				</g>
				<g>
					<rect x="499.7" y="50.1" class="st23" width="12" height="46.7" />
				</g>
				<g>
					<g>
						<rect x="325.7" y="35.9" class="st21" width="19.8" height="61" />
					</g>
					<g>
						<path
                class="st24"
                d="M339.7,87.6h-8.8c-0.8,0-1.4-0.6-1.4-1.4v-9.3c0-0.8,0.6-1.4,1.4-1.4h8.8c0.8,0,1.4,0.6,1.4,1.4v9.3
							C341.1,86.9,340.5,87.6,339.7,87.6z"
              />
					</g>
				</g>
				<g>
					<g>
						<rect x="401.2" y="28.4" class="st21" width="19.8" height="68.5" />
					</g>
					<g>
						<path
                class="st25"
                d="M413.7,87h-5.8c-1.9,0-3.5-1.6-3.5-3.5V38.3c0-1.9,1.6-3.5,3.5-3.5h5.8c1.9,0,3.5,1.6,3.5,3.5v45.2
							C417.2,85.5,415.6,87,413.7,87z M407.9,36c-1.3,0-2.3,1-2.3,2.3v45.2c0,1.3,1,2.3,2.3,2.3h5.8c1.3,0,2.3-1,2.3-2.3V38.3
							c0-1.3-1-2.3-2.3-2.3H407.9z"
              />
					</g>
				</g>
				<g>
					<rect x="286.5" y="43.9" class="st21" width="10.4" height="52.9" />
				</g>
				<g>
					<g>
						<rect x="308.8" y="44.7" class="st22" width="17" height="52.2" />
					</g>
					<g>
						<path
                class="st24"
                d="M320,75.4h-6.1c-1.1,0-1.9-0.9-1.9-1.9V52c0-1.1,0.9-1.9,1.9-1.9h6.1c1.1,0,1.9,0.9,1.9,1.9v21.5
							C322,74.5,321.1,75.4,320,75.4z"
              />
					</g>
				</g>
				<g>
					<rect x="296.8" y="50.1" class="st23" width="12" height="46.7" />
				</g>
				<g>
					<rect x="460.2" y="43.9" class="st21" width="10.4" height="52.9" />
				</g>
				<g>
					<g>
						<rect x="482.5" y="44.7" class="st22" width="17" height="52.2" />
					</g>
					<g>
						<path
                class="st24"
                d="M493.3,88.9h-5.2c-1.3,0-2.4-1.1-2.4-2.4V52.4c0-1.3,1.1-2.4,2.4-2.4h5.2c1.3,0,2.4,1.1,2.4,2.4v34.2
							C495.7,87.9,494.6,88.9,493.3,88.9z"
              />
					</g>
				</g>
				<g>
					<rect x="470.6" y="50.1" class="st23" width="12" height="46.7" />
				</g>
				<g>
					<g>
						<rect x="345.5" y="42.1" class="st21" width="14" height="54.7" />
					</g>
					<g>
						<rect x="345.5" y="53.5" class="st25" width="14" height="2.7" />
					</g>
					<g>
						<rect x="345.5" y="58" class="st25" width="14" height="2.7" />
					</g>
				</g>
				<g>
					<g>
						<rect x="375.3" y="31.8" class="st21" width="17.2" height="65.1" />
					</g>
					<g>
						<rect x="375.3" y="69.7" class="st26" width="17.2" height="1.3" />
					</g>
					<g>
						<rect x="375.3" y="65.8" class="st26" width="17.2" height="1.3" />
					</g>
					<g>
						<rect x="375.3" y="91.6" class="st26" width="17.2" height="1.3" />
					</g>
					<g>
						<circle class="st27" cx="384" cy="59.8" r="3.5" />
					</g>
				</g>
				<g>
					<g>
						<rect x="421.1" y="23.7" class="st21" width="17.2" height="73.1" />
					</g>
					<g>
						<rect x="421.1" y="52.8" class="st26" width="17.2" height="1.5" />
					</g>
					<g>
						<rect x="421.1" y="57.1" class="st26" width="17.2" height="1.5" />
					</g>
					<g>
						<rect x="421.1" y="28.2" class="st26" width="17.2" height="1.5" />
					</g>
					<g>
						<ellipse class="st27" cx="429.6" cy="41.1" rx="5.7" ry="6.4" />
					</g>
				</g>
				<g>
					<g>
						<rect x="359.5" y="40.8" class="st28" width="15.8" height="56" />
					</g>
					<g>
						<ellipse class="st21" cx="367.4" cy="85.3" rx="3.3" ry="5.5" />
					</g>
				</g>
				<g>
					<g>
						<rect x="392.4" y="34" class="st29" width="8.8" height="62.9" />
					</g>
					<g>
						<rect x="395.1" y="53.2" class="st30" width="3.3" height="25.7" />
					</g>
					<g>
						<ellipse class="st30" cx="396.8" cy="45.8" rx="2.5" ry="4.8" />
					</g>
				</g>
				<g class="st31">
					<polygon class="st32" points="511.7,50 511.7,97.2 496.4,97.2 					" />
				</g>
			</g>
			<g>
				<g>
					<g>
						<path
                class="st3"
                d="M84.4,282.8c-0.1-0.1-0.1-0.3-0.1-0.4c0.2,0,0.3,0,0.5-0.1c1-0.2,1.7-1.1,1.7-2.1c0-0.9,0-1.8,0-2.7
							c0.1,0,0.1,0,0.2,0c1.7,0,3.5,0,5.2,0H92c0.2,0,0.2,0,0.2-0.2c0-0.3,0-0.6,0-0.9c0-1,0-2,0-3c1.4,0,3.7,0.4,4.7,1.3
							c0.9,0.7,1.6,1.7,2.1,2.7c0.6,1.2,1.1,2.6,1.4,3.9c0.4,1.5,0.6,2.9,0.7,4.4c0,0.3,0,0.3,0.3,0.3c0.7,0,0.3,0,1,0
							c0.4,0,0.8,0,1.2,0c0.2,0,0.2,0,0.2-0.2v-0.1c0-1.5,0-3,0.1-4.5c0-1.8,0.1-3.7,0-5.5c-0.1-1.2-0.2-2.3-0.3-3.5
							c-0.3-2.1-0.9-4.1-1.8-5.9c-1.4-3-3.4-5.4-6.2-7.2c-1-0.6-2-1.1-3.2-1.5c0-1.5,0-3.1,0-4.6c0-0.8-0.1-1.6-0.1-2.4
							c0-0.3,0-0.7,0-1c-0.1-1.1-0.2-2.3-0.3-3.4c-0.1-1-0.2-2.1-0.3-3.1c-0.1-0.8-0.2-1.7-0.3-2.5c-0.2-1.5-0.4-2.9-0.7-4.4
							c-0.1-0.6-0.2-1.1-0.3-1.7c-0.1-0.4-0.2-0.9-0.3-1.3c0-0.2,0-0.3-0.1-0.5c-0.6-2.5-1.2-5-2-7.4c-0.8-2.6-1.8-5.2-3-7.7
							c-1.3-2.9-2.9-5.6-4.8-8.1c-0.1-0.1-0.1-0.2-0.2-0.3s-0.1-0.1-0.2,0s-0.1,0.2-0.2,0.3c-0.7,0.9-1.4,1.9-2.1,2.9
							c-0.6,1-1.2,2-1.8,3c-0.4,0.7-0.7,1.4-1.1,2c-0.6,1.2-1.2,2.5-1.7,3.8c-0.6,1.4-1.1,2.8-1.6,4.3c-0.4,1.1-0.8,2.3-1.1,3.5
							c-0.3,0.9-0.5,1.9-0.8,2.8c-0.1,0.4-0.2,0.7-0.2,1.1c0,0.1-0.1,0.2-0.1,0.3c-0.1,0.6-0.3,1.3-0.4,1.9c-0.2,1-0.4,1.9-0.6,2.9
							c-0.2,1.2-0.4,2.5-0.6,3.7c-0.1,1.1-0.3,2.1-0.4,3.2c-0.1,1-0.2,2.1-0.3,3.1c-0.1,1-0.2,2-0.2,3c-0.1,0.8-0.1,1.5-0.1,2.3
							c0,1.1-0.1,2.3-0.1,3.4c0,0.3,0,0.6,0,0.8c-0.3,0-0.5,0.1-0.7,0.2c-2.5,0.9-4.6,2.4-6.3,4.3s-2.8,4-3.7,6.3
							c-0.5,1.6-0.9,3.2-1.1,4.9c-0.1,1-0.2,1.9-0.2,2.9c-0.1,2.1-0.1,4.3-0.1,6.4c0,1,0,2,0,3.1c0,0.3,0,0.3,0.2,0.3
							c1.1,0,1.2,0,2.3,0c0.2,0,0.2,0,0.3-0.2c0-0.5,0.1-1,0.2-1.5c0.2-1.7,0.6-3.3,1.2-4.9c0.5-1.3,1.1-2.5,2-3.6
							c1.2-1.5,3.9-2.4,5.9-2.4c0,0.5,0,1.1-0.1,1.6c0,0.7,0,1.4,0,2.1c0,0.4,0,0.4,0.4,0.4c1.8,0,3.6,0,5.4,0c0,0.8,0,1.7,0,2.5
							c0,0.7,0.2,1.3,0.8,1.8c0.4,0.3,0.9,0.5,1.4,0.6c0,0.1,0,0.2-0.1,0.3"
              />
					</g>
					<g>
						<path
                class="st33"
                d="M90.2,233.1c0,0-4.9,1-10.4,1s-10.4-1.3-10.4-1.3c0-0.4,0.2-0.7,0.2-1.1c0.2-0.9,0.5-1.9,0.8-2.8
							c0.3-1.2,0.7-2.3,1.1-3.5c0.5-1.4,1-2.9,1.6-4.3c0.5-1.3,1.1-2.6,1.7-3.8c0.4-0.7,0.7-1.4,1.1-2c0.6-1,1.2-2,1.8-3
							c0.6-1,1.3-2,2.1-2.9c0.1-0.1,0.1-0.2,0.2-0.3s0.1-0.1,0.2,0s0.1,0.2,0.2,0.3c1.9,2.5,3.4,5.3,4.8,8.1c1.2,2.5,2.1,5.1,3,7.7
							c0.8,2.4,1.4,4.9,2,7.4C90.2,232.8,90.2,233,90.2,233.1z"
              />
					</g>
					<g>
						<path
                class="st5"
                d="M66.3,267.6c0,0.1,0,0.3,0,0.4c0,1.7,0,3.5-0.1,5.2c-2,0-4.7,0.9-5.9,2.4c-0.9,1.1-1.5,2.3-2,3.6
							c-0.6,1.6-1,3.2-1.2,4.9c-0.1,0.5-0.1,1-0.2,1.5c0,0.2,0,0.2-0.3,0.2c-1.1,0-1.2,0-2.3,0c-0.2,0-0.2,0-0.2-0.3c0-1,0-2,0-3.1
							c0-2.1,0-4.3,0.1-6.4c0-1,0.1-1.9,0.2-2.9c0.2-1.7,0.6-3.3,1.1-4.9c0.8-2.3,2-4.5,3.7-6.3c1.8-1.9,3.8-3.4,6.3-4.3
							c0.2-0.1,0.5-0.2,0.7-0.2c0,0.1,0,0.3,0,0.4c0,2.3,0,4.6-0.1,6.9v0.1l0,0c0,0,0,0,0,0.1c0,0.5,0,1.1,0,1.6c0,0,0,0,0,0.1
							s0,0.3,0,0.4v0.1C66.3,267.3,66.3,267.5,66.3,267.6z"
              />
					</g>
					<g>
						<path
                class="st5"
                d="M92.4,273.5c0-0.1,0-0.3,0-0.4c0-1.6,0-3.1,0-4.7c0-0.1,0-0.2,0-0.3c0-0.9,0-1.8,0-2.7v-0.1
							c0-0.6,0-1.3,0-1.9c0.1-1.8,0-3.5,0.1-5.3c0-0.1,0-0.2,0-0.3c1.1,0.3,2.2,0.8,3.2,1.5c2.8,1.8,4.8,4.2,6.2,7.2
							c0.9,1.9,1.5,3.9,1.8,5.9c0.2,1.2,0.3,2.3,0.3,3.5c0.1,1.8,0,3.7,0,5.5c0,1.5,0,3-0.1,4.5v0.1c0,0.2,0,0.2-0.2,0.2
							c-0.4,0-0.8,0-1.2,0c-0.7,0-0.3,0-1,0c-0.3,0-0.3,0-0.3-0.3c-0.1-1.5-0.3-3-0.7-4.4c-0.3-1.4-0.8-2.7-1.4-3.9
							c-0.5-1-1.2-2-2.1-2.7C96,273.9,93.7,273.5,92.4,273.5z"
              />
					</g>
					<g>
						<path
                class="st34"
                d="M79.5,253.8c3.8,0,6.6-3,6.7-6.4c0.1-3.7-2.8-6.8-6.5-6.9c-3.7-0.1-6.6,2.8-6.7,6.4
							C72.9,250.7,75.8,253.7,79.5,253.8z"
              />
					</g>
					<g>
						<path class="st35" d="M66.3,267.1v0.1C66.3,267.2,66.3,267.2,66.3,267.1z" />
					</g>
					<g>
						<path
                class="st35"
                d="M66.3,266.6C66.3,266.6,66.4,266.7,66.3,266.6C66.4,266.7,66.3,266.7,66.3,266.6
							C66.3,266.7,66.3,266.7,66.3,266.6z"
              />
					</g>
					<g>
						<path class="st35" d="M66.4,264.9C66.4,265,66.4,265,66.4,264.9C66.4,265,66.4,265,66.4,264.9z" />
					</g>
					<g class="st36">
						<path
                class="st3"
                d="M72.1,277.4c0,1.4-0.1,4.4,1.3,5.2c1,0.6,2.2-0.1,3.1-0.9c1.8-1.7,3.1-3.9,4.3-6.1
							c5.6-11.1,6.3-24.9,0.7-36c-1.5-2.9-3.3-5.6-4.3-8.6c-1.2-3.5-1.1-7.4-0.4-11c0.7-3.7,2-7.2,3.3-10.6c-1.8,1.7-3,3.9-4.2,6
							c-0.4,0.7-0.7,1.4-1.1,2c-0.6,1.2-1.2,2.5-1.7,3.8c-0.6,1.4-1.1,2.8-1.6,4.3c-0.4,1.1-0.8,2.3-1.1,3.5
							c-0.3,0.9-0.5,1.9-0.8,2.8c-0.1,0.4-0.2,0.7-0.2,1.1c0,0.1-0.1,0.2-0.1,0.3c-0.1,0.6-0.3,1.3-0.4,1.9c-0.2,1-0.4,1.9-0.6,2.9
							c-0.2,1.2-0.4,2.5-0.6,3.7c-0.1,1.1-0.3,2.1-0.4,3.2c-0.1,1-0.2,2.1-0.3,3.1c-0.1,1-0.2,2-0.2,3c-0.1,0.8-0.1,1.5-0.1,2.3
							c0,1.1-0.1,2.3-0.1,3.4c0,0.3,0,0.6,0,0.8c-0.3,0-0.5,0.1-0.7,0.2c-2.5,0.9-4.6,2.4-6.3,4.3s-2.8,4-3.7,6.3
							c-0.5,1.6-0.9,3.2-1.1,4.9c-0.1,1-0.2,1.9-0.2,2.9c-0.1,2.1-0.1,4.3-0.1,6.4c0,1,0,2,0,3.1c0,0.3,0,0.3,0.2,0.3
							c1.1,0,1.2,0,2.3,0c0.2,0,0.2,0,0.3-0.2c0-0.5,0.1-1,0.2-1.5c0.2-1.7,0.6-3.3,1.2-4.9c0.5-1.3,1.1-2.5,2-3.6
							c1.2-1.5,3.9-2.4,5.9-2.4c0,0.5,0,1.1-0.1,1.6c0,0.7,0,1.4,0,2.1c0,0.4,0,0.4,0.4,0.4C68.5,277.4,70.3,277.4,72.1,277.4z"
              />
					</g>
					<g>
						<path
                class="st10"
                d="M79.5,253.8c-3.7-0.1-6.7-3.1-6.5-6.9c0.1-3.6,3-6.5,6.7-6.4c3.8,0.1,6.7,3.2,6.5,6.9
							C86.2,250.8,83.3,253.8,79.5,253.8z"
              />
					</g>
					<g>
						<path
                class="st37"
                d="M79.6,252.6c-3-0.1-5.4-2.5-5.3-5.6c0.1-2.9,2.4-5.2,5.4-5.2c3,0.1,5.4,2.6,5.3,5.6
							C84.9,250.1,82.6,252.6,79.6,252.6z"
              />
					</g>
				</g>
			</g>
			<g>
				<path class="st38" d="M285.5,334.9v-10.2h-9.9v34.5c3.3,0.1,6.6,0.2,9.9,0.3V334.9z" />
				<path
            class="st38"
            d="M353.2,323.5c0-1.2-1-2.2-2.2-2.2h-6.1c-1.2,0-2.2,1-2.2,2.2v33.4c3.5-0.4,7-0.9,10.5-1.3L353.2,323.5
					L353.2,323.5z"
          />
				<path
            class="st38"
            d="M341.5,357v-33.5c0-1.8,1.5-3.3,3.3-3.3h6.1c1.8,0,3.3,1.5,3.3,3.3v31.9c1-0.2,2.1-0.3,3.1-0.5v-32
					l0.7,8.2v-8.6v-8.1h-19.8v16.2v26.7C339.4,357.3,340.5,357.2,341.5,357z"
          />
				<path
            class="st39"
            d="M351,320.2h-6.1c-1.8,0-3.3,1.5-3.3,3.3V357c0.4,0,0.7-0.1,1.1-0.1v-33.4c0-1.2,1-2.2,2.2-2.2h6.1
					c1.2,0,2.2,1,2.2,2.2v32.1c0.4-0.1,0.7-0.1,1.1-0.2v-31.9C354.3,321.7,352.8,320.2,351,320.2z"
          />
				<path class="st40" d="M326.9,336.5v1.7v2.6v17.6c3.8-0.3,7.7-0.6,11.5-1v-26.7h-11.5v3.3V336.5z" />
				<path class="st41" d="M315,340.8l1.6,18.3c3.4-0.2,6.8-0.4,10.2-0.6v-17.6L315,340.8L315,340.8z" />
				<polygon class="st41" points="314.8,338.2 326.9,338.2 326.9,336.5 314.6,336.5 				" />
				<polygon class="st41" points="326.9,333.9 326.9,330.7 326.9,323 313.5,323 314.4,333.9 				" />
				<polygon class="st39" points="326.9,336.5 326.9,333.9 314.4,333.9 314.6,336.5 				" />
				<polygon class="st39" points="315,340.8 326.9,340.8 326.9,338.2 314.8,338.2 				" />
				<path
            class="st38"
            d="M313.5,336.5v-2.6v-11v-2.2H297v14.2v1.6H313.5z M305.2,323c3,0,5.5,2.5,5.5,5.5s-2.5,5.5-5.5,5.5
					s-5.5-2.5-5.5-5.5C299.7,325.4,302.2,323,305.2,323z"
          />
				<path class="st38" d="M313.5,338.2v-0.4H297v21.8c5.5,0,11-0.2,16.5-0.4v-18.4V338.2z" />
				<rect x="296.9" y="317.3" class="st38" width="16.5" height="2.2" />
				<rect x="296.9" y="319.5" class="st39" width="16.5" height="1.3" />
				<rect x="296.9" y="336.5" class="st39" width="16.5" height="1.3" />
				<circle class="st39" cx="305.2" cy="328.5" r="5.5" />
				<path
            class="st40"
            d="M296.9,359.6v-21.8v-1.3v-1.6h-11.5v24.6C289.3,359.6,293.1,359.6,296.9,359.6z M291.2,343.1
					c1.8,0,3.3,2.5,3.3,5.6s-1.5,5.6-3.3,5.6s-3.3-2.5-3.3-5.6S289.4,343.1,291.2,343.1z"
          />
				<path
            class="st38"
            d="M291.2,354.2c1.8,0,3.3-2.5,3.3-5.6s-1.5-5.6-3.3-5.6s-3.3,2.5-3.3,5.6S289.4,354.2,291.2,354.2z"
          />
				<path class="st38" d="M360.2,354.5c2.8-0.4,5.5-0.9,8.3-1.4v-30.6h-10.4v8.6L360.2,354.5z" />
				<path
            class="st42"
            d="M435.8,323.3v5.4v4.5c1.1-0.5,2.2-0.9,3.2-1.4V331c0-1.3,1.1-2.4,2.4-2.4h4.7c2.2-1.1,4.5-2.1,6.7-3.2
					v-2.1H435.8z"
          />
				<path
            class="st42"
            d="M441.4,328.7c-1.3,0-2.4,1.1-2.4,2.4v0.8c2.4-1,4.7-2.1,7-3.2L441.4,328.7L441.4,328.7z"
          />
				<path class="st43" d="M423.8,334.8v1.7v1.4c0.1,0,0.2-0.1,0.4-0.1v-9.1h-0.4v3.4V334.8z" />
				<path class="st43" d="M435.8,333.2v-4.5h-11.6l0.9,8.8C428.7,336.1,432.3,334.7,435.8,333.2z" />
				<path class="st38" d="M410.2,342.7c3.4-1.1,6.8-2.2,10.1-3.4h-10.1V342.7z" />
				<rect x="410.2" y="334.8" class="st38" width="13.7" height="1.7" />
				<polygon class="st38" points="423.8,332.2 423.8,328.7 423.8,320.7 410.2,320.7 410.2,332.2 				" />
				<rect x="410.2" y="332.2" class="st41" width="13.7" height="2.7" />
				<path
            class="st41"
            d="M410.2,336.6v2.7h10.1c1.2-0.4,2.4-0.9,3.6-1.3v-1.4L410.2,336.6L410.2,336.6z"
          />
				<path class="st38" d="M399.9,345.8h-15.5v2.5h6C393.5,347.5,396.7,346.7,399.9,345.8z" />
				<path class="st38" d="M384.3,349.7v0.1c0.2,0,0.3-0.1,0.5-0.1H384.3z" />
				<polygon
            class="st38"
            points="401.4,344.4 401.4,319.5 401.5,319.5 401.5,310.4 384.3,310.4 384.3,319.5 384.3,344.4 				"
          />
				<path class="st39" d="M390.4,348.3h-6v1.3h0.5C386.7,349.2,388.5,348.8,390.4,348.3z" />
				<path class="st39" d="M401.4,345.4v-0.9h-17v1.3h15.5C400.4,345.6,400.9,345.5,401.4,345.4z" />
				<path
            class="st40"
            d="M384.3,349.8v-0.1v-1.3v-2.5v-1.3v-25h-15.8v3.1v30.6C373.8,352.1,379.1,351,384.3,349.8z M376.4,330.7
					c2.5,0,4.6,3.4,4.6,7.7s-2,7.7-4.6,7.7s-4.6-3.4-4.6-7.7S373.9,330.7,376.4,330.7z"
          />
				<ellipse class="st38" cx="376.4" cy="338.4" rx="4.6" ry="7.7" />
				<path
            class="st40"
            d="M401.5,345.3c0.9-0.2,1.7-0.5,2.6-0.7v-7.9h3.3v6.9c0.8-0.3,1.6-0.5,2.4-0.8v-3.5v-2.7v-1.7v-2.7v-11.4
					h0.3v-1.3h-8.6v25L401.5,345.3L401.5,345.3z M405.8,325.7c1.4,0,2.5,1.9,2.5,4.3s-1.1,4.3-2.5,4.3s-2.5-1.9-2.5-4.3
					S404.4,325.7,405.8,325.7z"
          />
				<rect x="409.9" y="320.7" class="st40" width="0.3" height="11.4" />
				<path class="st40" d="M409.9,339.3v3.5c0.1,0,0.2-0.1,0.3-0.1v-3.4H409.9z" />
				<rect x="409.9" y="334.8" class="st40" width="0.3" height="1.7" />
				<rect x="409.9" y="332.2" class="st40" width="0.3" height="2.7" />
				<rect x="409.9" y="336.6" class="st40" width="0.3" height="2.7" />
				<rect x="401.4" y="319.5" class="st40" width="0.2" height="25" />
				<path class="st40" d="M401.4,344.4v0.9c0.1,0,0.1,0,0.2-0.1v-0.9h-0.2V344.4z" />
				<path class="st41" d="M404.1,336.6v7.9c1.1-0.3,2.2-0.7,3.3-1v-6.9H404.1z" />
				<ellipse class="st41" cx="405.8" cy="330" rx="2.5" ry="4.3" />
				<polygon class="st41" points="314.4,333.9 313.5,323 313.5,333.9 				" />
				<polygon class="st44" points="314.4,333.9 313.5,323 313.5,333.9 				" />
				<polygon class="st41" points="313.5,338.2 314.8,338.2 314.6,336.5 313.5,336.5 313.5,337.8 				" />
				<polygon class="st44" points="313.5,338.2 314.8,338.2 314.6,336.5 313.5,336.5 313.5,337.8 				" />
				<path class="st41" d="M313.5,340.8v18.4c1.1,0,2.1-0.1,3.2-0.2l-1.6-18.3h-1.6V340.8z" />
				<path class="st44" d="M313.5,340.8v18.4c1.1,0,2.1-0.1,3.2-0.2l-1.6-18.3h-1.6V340.8z" />
				<polygon class="st39" points="314.4,333.9 313.5,333.9 313.5,336.5 314.6,336.5 				" />
				<polygon class="st44" points="314.4,333.9 313.5,333.9 313.5,336.5 314.6,336.5 				" />
				<polygon class="st39" points="313.5,338.2 313.5,340.8 315,340.8 314.8,338.2 				" />
				<polygon class="st44" points="313.5,338.2 313.5,340.8 315,340.8 314.8,338.2 				" />
				<path class="st38" d="M357.4,323v32c0.2,0,0.5-0.1,0.7-0.1v-23.7L357.4,323z" />
				<path class="st44" d="M357.4,323v32c0.2,0,0.5-0.1,0.7-0.1v-23.7L357.4,323z" />
				<path class="st38" d="M358.1,354.8c0.7-0.1,1.4-0.2,2.1-0.3l-2.1-23.3V354.8z" />
				<path class="st44" d="M358.1,354.8c0.7-0.1,1.4-0.2,2.1-0.3l-2.1-23.3V354.8z" />
				<polygon class="st44" points="424.2,328.5 424.2,328.7 424.2,328.7 				" />
				<path class="st43" d="M425.1,337.5l-0.9-8.8l0,0v9.1C424.5,337.7,424.8,337.6,425.1,337.5z" />
				<path class="st44" d="M425.1,337.5l-0.9-8.8l0,0v9.1C424.5,337.7,424.8,337.6,425.1,337.5z" />
				<path
            class="st3"
            d="M402.6,243.3v-1.9v-2.9v-12.2v-6.7h-21.1v9.4v55.6h21.1V246V243.3z M394.6,248.7c0,0.6-0.5,1.1-1.1,1.1
					h-3.6c-0.6,0-1.1-0.5-1.1-1.1v-8.8c0-0.6,0.5-1.1,1.1-1.1h3.6c0.6,0,1.1,0.5,1.1,1.1V248.7z M394.6,236.1c0,0.6-0.5,1.1-1.1,1.1
					h-3.6c-0.6,0-1.1-0.5-1.1-1.1v-8.8c0-0.6,0.5-1.1,1.1-1.1h3.6c0.6,0,1.1,0.5,1.1,1.1V236.1z"
          />
				<path
            class="st7"
            d="M393.5,226.6h-3.6c-0.4,0-0.7,0.3-0.7,0.7v8.8c0,0.4,0.3,0.7,0.7,0.7h3.6c0.4,0,0.7-0.3,0.7-0.7v-8.8
					C394.3,226.9,393.9,226.6,393.5,226.6z"
          />
				<path
            class="st5"
            d="M393.5,226.2h-3.6c-0.6,0-1.1,0.5-1.1,1.1v8.8c0,0.6,0.5,1.1,1.1,1.1h3.6c0.6,0,1.1-0.5,1.1-1.1v-8.8
					C394.6,226.7,394.2,226.2,393.5,226.2z M394.5,236.1c0,0.5-0.4,0.9-0.9,0.9H390c-0.5,0-0.9-0.4-0.9-0.9v-8.8
					c0-0.5,0.4-0.9,0.9-0.9h3.6c0.5,0,0.9,0.4,0.9,0.9V236.1z"
          />
				<path
            class="st5"
            d="M393.5,226.4h-3.6c-0.5,0-0.9,0.4-0.9,0.9v8.8c0,0.5,0.4,0.9,0.9,0.9h3.6c0.5,0,0.9-0.4,0.9-0.9v-8.8
					C394.5,226.8,394.1,226.4,393.5,226.4z M394.3,236.1c0,0.4-0.3,0.7-0.7,0.7H390c-0.4,0-0.7-0.3-0.7-0.7v-8.8
					c0-0.4,0.3-0.7,0.7-0.7h3.6c0.4,0,0.7,0.3,0.7,0.7V236.1z"
          />
				<path
            class="st7"
            d="M393.5,239.2h-3.6c-0.4,0-0.7,0.3-0.7,0.7v8.8c0,0.4,0.3,0.7,0.7,0.7h3.6c0.4,0,0.7-0.3,0.7-0.7v-8.8
					C394.3,239.5,393.9,239.2,393.5,239.2z"
          />
				<path
            class="st5"
            d="M393.5,238.8h-3.6c-0.6,0-1.1,0.5-1.1,1.1v8.8c0,0.6,0.5,1.1,1.1,1.1h3.6c0.6,0,1.1-0.5,1.1-1.1v-8.8
					C394.6,239.3,394.2,238.8,393.5,238.8z M394.5,248.7c0,0.5-0.4,0.9-0.9,0.9H390c-0.5,0-0.9-0.4-0.9-0.9v-8.8
					c0-0.5,0.4-0.9,0.9-0.9h3.6c0.5,0,0.9,0.4,0.9,0.9V248.7z"
          />
				<path
            class="st5"
            d="M393.5,239h-3.6c-0.5,0-0.9,0.4-0.9,0.9v8.8c0,0.5,0.4,0.9,0.9,0.9h3.6c0.5,0,0.9-0.4,0.9-0.9v-8.8
					C394.5,239.4,394.1,239,393.5,239z M394.3,248.7c0,0.4-0.3,0.7-0.7,0.7H390c-0.4,0-0.7-0.3-0.7-0.7v-8.8c0-0.4,0.3-0.7,0.7-0.7
					h3.6c0.4,0,0.7,0.3,0.7,0.7V248.7z"
          />
				<path
            class="st3"
            d="M323.1,232.2v9.7v8.7v34.3h16.5v-52.6L323.1,232.2L323.1,232.2z M335.3,246.2c0,0.7-0.6,1.3-1.3,1.3h-6.3
					c-0.7,0-1.3-0.6-1.3-1.3v-7.6c0-0.7,0.6-1.3,1.3-1.3h6.3c0.7,0,1.3,0.6,1.3,1.3V246.2z"
          />
				<path
            class="st4"
            d="M333.9,237.8h-6.3c-0.5,0-0.9,0.4-0.9,0.9v7.6c0,0.5,0.4,0.9,0.9,0.9h6.3c0.5,0,0.9-0.4,0.9-0.9v-7.6
					C334.8,238.2,334.4,237.8,333.9,237.8z"
          />
				<path
            class="st5"
            d="M333.9,237.3h-6.3c-0.7,0-1.3,0.6-1.3,1.3v7.6c0,0.7,0.6,1.3,1.3,1.3h6.3c0.7,0,1.3-0.6,1.3-1.3v-7.6
					C335.3,237.9,334.7,237.3,333.9,237.3z M335,246.2c0,0.6-0.5,1.1-1.1,1.1h-6.3c-0.6,0-1.1-0.5-1.1-1.1v-7.6
					c0-0.6,0.5-1.1,1.1-1.1h6.3c0.6,0,1.1,0.5,1.1,1.1V246.2z"
          />
				<path
            class="st5"
            d="M333.9,237.6h-6.3c-0.6,0-1.1,0.5-1.1,1.1v7.6c0,0.6,0.5,1.1,1.1,1.1h6.3c0.6,0,1.1-0.5,1.1-1.1v-7.6
					C335,238.1,334.5,237.6,333.9,237.6z M334.8,246.2c0,0.5-0.4,0.9-0.9,0.9h-6.3c-0.5,0-0.9-0.4-0.9-0.9v-7.6
					c0-0.5,0.4-0.9,0.9-0.9h6.3c0.5,0,0.9,0.4,0.9,0.9V246.2z"
          />
				<path
            class="st3"
            d="M483.1,247v-2.7v-1.4V221v-1.3H462v5.3v59.7h21.1v-36.3V247z M477,256.4c0,1.3-1,2.3-2.3,2.3h-4.3
					c-1.3,0-2.3-1-2.3-2.3v-28.1c0-1.3,1-2.3,2.3-2.3h4.3c1.3,0,2.3,1,2.3,2.3V256.4z"
          />
				<path
            class="st4"
            d="M474.7,226.8h-4.3c-0.9,0-1.5,0.7-1.5,1.5v28.1c0,0.9,0.7,1.5,1.5,1.5h4.3c0.9,0,1.5-0.7,1.5-1.5v-28.1
					C476.3,227.5,475.6,226.8,474.7,226.8z"
          />
				<path
            class="st5"
            d="M474.7,226h-4.3c-1.3,0-2.3,1-2.3,2.3v28.1c0,1.3,1,2.3,2.3,2.3h4.3c1.3,0,2.3-1,2.3-2.3v-28.1
					C477,227.1,476,226,474.7,226z M476.6,256.4c0,1.1-0.9,1.9-1.9,1.9h-4.3c-1.1,0-1.9-0.9-1.9-1.9v-28.1c0-1.1,0.9-1.9,1.9-1.9
					h4.3c1.1,0,1.9,0.9,1.9,1.9V256.4z"
          />
				<path
            class="st5"
            d="M474.7,226.4h-4.3c-1.1,0-1.9,0.9-1.9,1.9v28.1c0,1.1,0.9,1.9,1.9,1.9h4.3c1.1,0,1.9-0.9,1.9-1.9v-28.1
					C476.6,227.3,475.8,226.4,474.7,226.4z M476.3,256.4c0,0.9-0.7,1.5-1.5,1.5h-4.3c-0.9,0-1.5-0.7-1.5-1.5v-28.1
					c0-0.9,0.7-1.5,1.5-1.5h4.3c0.9,0,1.5,0.7,1.5,1.5V256.4z"
          />
				<polygon
            class="st4"
            points="350.7,228.3 339.6,228.3 339.6,232.2 339.6,284.8 350.7,284.8 350.7,234.9 				"
          />
				<path
            class="st6"
            d="M363.4,229.1v5.8v49.8h18.1v-55.6H363.4z M378,273.8c0,1.7-1.4,3-3,3h-5.6c-1.7,0-3-1.4-3-3v-36.4
					c0-1.7,1.4-3,3-3h5.6c1.7,0,3,1.4,3,3V273.8z"
          />
				<path
            class="st5"
            d="M375,235.4h-5.6c-1.1,0-2,0.9-2,2v36.4c0,1.1,0.9,2,2,2h5.6c1.1,0,2-0.9,2-2v-36.4
					C377,236.3,376.1,235.4,375,235.4z"
          />
				<path
            class="st7"
            d="M375,234.3h-5.6c-1.7,0-3,1.4-3,3v36.4c0,1.7,1.4,3,3,3h5.6c1.7,0,3-1.4,3-3v-36.4
					C378,235.7,376.6,234.3,375,234.3z M377.5,273.8c0,1.4-1.1,2.5-2.5,2.5h-5.6c-1.4,0-2.5-1.1-2.5-2.5v-36.4
					c0-1.4,1.1-2.5,2.5-2.5h5.6c1.4,0,2.5,1.1,2.5,2.5V273.8z"
          />
				<path
            class="st7"
            d="M375,234.9h-5.6c-1.4,0-2.5,1.1-2.5,2.5v36.4c0,1.4,1.1,2.5,2.5,2.5h5.6c1.4,0,2.5-1.1,2.5-2.5v-36.4
					C377.5,236,376.4,234.9,375,234.9z M377,273.8c0,1.1-0.9,2-2,2h-5.6c-1.1,0-2-0.9-2-2v-36.4c0-1.1,0.9-2,2-2h5.6
					c1.1,0,2,0.9,2,2V273.8z"
          />
				<rect x="350.7" y="234.9" class="st8" width="12.7" height="49.8" />
				<polygon
            class="st3"
            points="511.2,228.3 501.5,228.3 501.5,242.9 501.5,244.3 501.5,247 501.5,248.5 501.5,284.8 511.2,284.8 
					511.2,234.9 				"
          />
				<path
            class="st6"
            d="M523.9,229.1v5.8v36.5c1-1.2,2-2.3,2.9-3.5v-30.5c0-1.7,1.4-3,3-3h5.6c1.7,0,3,1.4,3,3V252
					c1.2-1.9,2.4-3.7,3.5-5.6v-17.2L523.9,229.1L523.9,229.1z"
          />
				<path
            class="st5"
            d="M537.5,237.4c0-1.1-0.9-2-2-2h-5.6c-1.1,0-2,0.9-2,2v29.3c3.4-4.3,6.6-8.7,9.6-13.1V237.4z"
          />
				<path
            class="st7"
            d="M527.4,237.4c0-1.4,1.1-2.5,2.5-2.5h5.6c1.4,0,2.5,1.1,2.5,2.5v15.4c0.2-0.3,0.3-0.5,0.5-0.8v-14.6
					c0-1.7-1.4-3-3-3h-5.6c-1.7,0-3,1.4-3,3v30.5c0.2-0.2,0.3-0.4,0.5-0.6V237.4z"
          />
				<path
            class="st7"
            d="M535.5,234.9h-5.6c-1.4,0-2.5,1.1-2.5,2.5v29.9c0.2-0.2,0.3-0.4,0.5-0.6v-29.3c0-1.1,0.9-2,2-2h5.6
					c1.1,0,2,0.9,2,2v16.1c0.2-0.3,0.3-0.5,0.5-0.8v-15.4C538,236,536.9,234.9,535.5,234.9z"
          />
				<path class="st45" d="M523.9,271.4v-36.5h-12.7v49.8h0.2C515.9,280.4,520,276,523.9,271.4z" />
				<rect x="402.6" y="246.2" class="st3" width="14.9" height="38.6" />
				<rect x="402.6" y="226.4" class="st3" width="14.9" height="12.2" />
				<rect x="402.6" y="241.5" class="st3" width="14.9" height="1.9" />
				<rect x="402.6" y="238.6" class="st46" width="14.9" height="2.9" />
				<rect x="402.6" y="243.3" class="st46" width="14.9" height="2.9" />
				<rect x="434.4" y="280.6" class="st3" width="18.2" height="4.2" />
				<polygon
            class="st3"
            points="452.6,251.7 452.6,225 452.8,225 452.8,215.4 434.4,215.4 434.4,225 434.4,251.7 				"
          />
				<rect x="434.4" y="253.1" class="st3" width="18.2" height="2.7" />
				<path
            class="st3"
            d="M452.6,257.3h-18.2v21.9h18.2V257.3z M443.6,274.4c-3.4,0-6.1-2.7-6.1-6.1s2.7-6.1,6.1-6.1s6.1,2.7,6.1,6.1
					S447,274.4,443.6,274.4z"
          />
				<rect x="434.4" y="255.8" class="st47" width="18.2" height="1.4" />
				<rect x="434.4" y="251.7" class="st47" width="18.2" height="1.4" />
				<rect x="434.4" y="279.1" class="st47" width="18.2" height="1.4" />
				<circle class="st48" cx="443.6" cy="268.3" r="6.1" />
				<rect x="483.1" y="244.3" class="st3" width="17" height="2.7" />
				<path
            class="st3"
            d="M483.1,242.9h17v-14.6h1.4V221h-18.4V242.9z M492.3,225.7c3.4,0,6.1,2.7,6.1,6.1s-2.7,6.1-6.1,6.1
					s-6.1-2.7-6.1-6.1S489,225.7,492.3,225.7z"
          />
				<rect x="483.1" y="248.5" class="st3" width="17" height="36.3" />
				<rect x="483.1" y="215.4" class="st3" width="18.4" height="4.2" />
				<rect x="500.1" y="228.3" class="st3" width="1.4" height="14.6" />
				<rect x="500.1" y="248.5" class="st3" width="1.4" height="36.3" />
				<rect x="500.1" y="244.3" class="st3" width="1.4" height="2.7" />
				<rect x="483.1" y="242.9" class="st47" width="17" height="1.4" />
				<rect x="500.1" y="242.9" class="st47" width="1.4" height="1.4" />
				<rect x="483.1" y="247" class="st47" width="17" height="1.4" />
				<rect x="500.1" y="247" class="st47" width="1.4" height="1.4" />
				<polygon class="st47" points="501.5,221 501.5,219.6 483.1,219.6 483.1,219.7 483.1,221 				" />
				<ellipse class="st48" cx="492.3" cy="231.8" rx="6.1" ry="6.1" />
				<path
            class="st9"
            d="M434.4,279.1v-21.9v-1.4v-2.7v-1.4V225h-16.9v1.3v12.2v2.9v1.9v2.9v38.6h16.9v-4.2V279.1z M426,253.4
					c-2.7,0-4.9-3.7-4.9-8.2s2.2-8.2,4.9-8.2c2.7,0,4.9,3.7,4.9,8.2C430.9,249.8,428.7,253.4,426,253.4z"
          />
				<ellipse class="st3" cx="426" cy="245.2" rx="4.9" ry="8.2" />
				<path
            class="st9"
            d="M322.5,232.2h0.6v-8H306v17.7h16.5V232.2z M314.6,238.6c-2.7,0-5-2.2-5-5s2.2-5,5-5s5,2.2,5,5
					S317.3,238.6,314.6,238.6z"
          />
				<rect x="306" y="250.5" class="st9" width="16.5" height="34.3" />
				<rect x="322.5" y="250.5" class="st9" width="0.6" height="34.3" />
				<rect x="322.5" y="232.2" class="st9" width="0.6" height="9.7" />
				<circle class="st3" cx="314.6" cy="233.7" r="5" />
				<rect x="305.9" y="241.8" class="st3" width="0.1" height="8.7" />
				<rect x="306" y="241.8" class="st3" width="16.5" height="8.7" />
				<rect x="322.5" y="241.8" class="st3" width="0.6" height="8.7" />
				<path
            class="st49"
            d="M452.8,225v26.6v1.4v2.7v1.4V279v1.4v4.2h9.2V225H452.8z M459.1,267.7h-3.5v-24.4h3.5V267.7z M457.3,240.8
					c-1.5,0-2.7-2-2.7-4.6s1.2-4.6,2.7-4.6s2.7,2,2.7,4.6S458.8,240.8,457.3,240.8z"
          />
				<rect x="452.6" y="280.6" class="st49" width="0.2" height="4.2" />
				<rect x="452.6" y="225" class="st49" width="0.2" height="26.6" />
				<rect x="452.6" y="257.3" class="st49" width="0.2" height="21.9" />
				<rect x="452.6" y="253.1" class="st49" width="0.2" height="2.7" />
				<rect x="452.6" y="255.8" class="st49" width="0.2" height="1.4" />
				<rect x="452.6" y="251.7" class="st49" width="0.2" height="1.4" />
				<rect x="452.6" y="279.1" class="st49" width="0.2" height="1.4" />
				<rect x="455.5" y="243.3" class="st50" width="3.5" height="24.4" />
				<path
            class="st50"
            d="M457.3,231.7c-1.5,0-2.7,2-2.7,4.6s1.2,4.6,2.7,4.6s2.7-2,2.7-4.6S458.8,231.7,457.3,231.7z"
          />
				<path class="st20" d="M563.5,183.1h2c3.3-20.2,2.9-39.4-0.5-56h-1.5V183.1z" />
			</g>
		</g>
		<path
        class="st2"
        d="M552.4,93.1H262.9l-13.5,8.1h306.8c-0.5-0.9-1-1.9-1.5-2.8C554,97,553.2,95.1,552.4,93.1z"
      />
		<g>
			<g>
				<g>
					<rect x="378.2" y="165.3" class="st47" width="17.8" height="1.4" />
				</g>
			</g>
			<g>
				<g>
					<rect x="378.2" y="161.3" class="st47" width="17.8" height="1.4" />
				</g>
			</g>
			<g>
				<g>
					<rect x="362.5" y="150" class="st47" width="15.7" height="1.4" />
				</g>
			</g>
			<g>
				<g>
					<rect x="362.5" y="143.3" class="st47" width="15.7" height="5.7" />
				</g>
			</g>
			<g>
				<g>
					<circle class="st48" cx="387.1" cy="155" r="3.6" />
				</g>
			</g>
			<g class="st31">
				<g>
					<path
              class="st51"
              d="M365.5,150.5c2.9-11.2,11.2-18.9,19.6-18.7c-0.9-0.4-1.8-0.8-2.7-1.1c-9.2-2.4-19.3,5.9-22.5,18.4
						s1.7,24.5,11,26.9c1,0.2,1.9,0.3,2.9,0.4C366.3,172.6,362.7,161.7,365.5,150.5z"
            />
				</g>
			</g>
			<g class="st52">
				<g>
					<path
              class="st51"
              d="M393.4,157.6c2.9-11.2-0.8-22-8.3-25.8c-8.4-0.2-16.8,7.5-19.6,18.7s0.8,22,8.3,25.8
						C382.2,176.6,390.6,168.8,393.4,157.6z"
            />
				</g>
			</g>
		</g>
	</g>
	<g>
		<g>
			
				<rect
          x="119.1"
          y="94.5"
          transform="matrix(0.9999 -1.180951e-02 1.180951e-02 0.9999 -1.1516 2.0723)"
          class="st53"
          width="111.6"
          height="8.1"
        />
			
				<rect
          x="119.9"
          y="192.7"
          transform="matrix(0.9999 -1.180951e-02 1.180951e-02 0.9999 -2.3112 2.0886)"
          class="st53"
          width="111.6"
          height="8.1"
        />
			
				<rect
          x="121.2"
          y="290.9"
          transform="matrix(0.9999 -1.180951e-02 1.180951e-02 0.9999 -3.4708 2.1108)"
          class="st53"
          width="111.6"
          height="8.1"
        />
		</g>
		<path
        class="st53"
        d="M116.8,49.5L116.8,49.5c-3.7,0-6.7,3.1-6.6,6.8L109,324.6l12.8,4.7l1.8-273.1
			C123.6,52.5,120.5,49.5,116.8,49.5z"
      />
		<path
        class="st53"
        d="M236.9,48.2L236.9,48.2c-3.7,0-6.7,3.1-6.6,6.8L229,354.4l13.4-0.2l1.3-299.4
			C243.6,51.1,240.6,48.1,236.9,48.2z"
      />
	</g>
	<g>
		<g>
			<g>
				<g>
					<g>
						<path
                class="st54"
                d="M376.9,184.5c-1.5,0.1-3.1,0-4.6-0.3c-12.9-2.4-20.9-18.2-17.8-35.2s16.2-28.9,29.2-26.5
							c6.4,1.2,11.8,5.6,15.1,12.4c3.2,6.6,4.2,14.7,2.7,22.8C398.7,172.7,388.3,183.7,376.9,184.5z M379.4,127.3
							c-9,0.6-17.5,10-19.8,22.6c-2.6,14.3,3.5,27.4,13.7,29.3c10.2,1.9,20.6-8.2,23.2-22.4l0,0c1.3-7,0.5-14-2.2-19.6
							c-2.6-5.3-6.7-8.8-11.5-9.7C381.7,127.3,380.5,127.2,379.4,127.3z"
              />
					</g>
				</g>
				<g>
					<g>
						<path class="st55" d="M372.2,217.5l-9.6-1.8l6.1-33l6.4,1.2c1.8,0.3,2.9,2,2.6,3.8L372.2,217.5z" />
					</g>
				</g>
				<g>
					<g>
						<path
                class="st39"
                d="M368.4,216.8l-6.4-1.2c-1.8-0.3-2.9-2-2.6-3.8l4.9-26.6c0.3-1.8,2-2.9,3.8-2.6l6.4,1.2L368.4,216.8z"
              />
					</g>
				</g>
				<g>
					<g>
						<path
                class="st39"
                d="M373.6,183.9c-1.5,0.1-3.1,0-4.6-0.3c-12.9-2.4-20.9-18.2-17.8-35.2s16.2-28.9,29.2-26.5
							c6.4,1.2,11.8,5.6,15.1,12.4c3.2,6.6,4.2,14.7,2.7,22.8C395.4,172.1,384.9,183.1,373.6,183.9z M376.1,126.7
							c-9,0.6-17.5,10-19.8,22.6c-2.6,14.3,3.5,27.4,13.7,29.3c10.2,1.9,20.6-8.2,23.2-22.4l0,0c1.3-7,0.5-14-2.2-19.6
							c-2.6-5.3-6.7-8.8-11.5-9.7C378.3,126.7,377.2,126.6,376.1,126.7z"
              />
					</g>
				</g>
			</g>
			<g>
				<path
            class="st32"
            d="M365.9,229.1c1.3,0.8,2.9,1,3.3,2.4c0.1,0.3-0.2,1.3-0.3,1.6c-0.1,0.2-0.2,0.4-0.4,0.6
					c-1,0.9-2.3,1.1-3.6,1.3c-2.5,0.3-5.1,0.3-7.5-0.5c-1.8-0.6-4.2-1.6-5.5-3c-1.2-1.3-1-3.7,0.4-4.8c1.6-1.2,4.8-0.6,6.6-0.3
					C361.3,226.9,363.8,227.8,365.9,229.1z"
          />
			</g>
			<g>
				<path
            class="st29"
            d="M294.6,289.7c-6.6-6.3-12.3-13.6-17.4-21.2c-3.7-5.5-7.1-11.3-8.4-17.8c-0.8-4-0.7-8.7,2.1-11.7
					c1-1,2.2-1.8,3.4-2.5c2.8-1.7,5.8-3.2,9.1-3.6c4.4-0.6,8.9,1.1,12.8,3.2c6.7,3.6,12.5,8.7,18.2,13.7c5.4,4.8,10.9,9.6,16.3,14.4
					c3.7-6,6.1-12.5,9.4-18.7c1.6-3,5.6-9.8,9-10.5c3.9-0.8,13.9-1.2,17.2,2.2c2.4,2.6,3.3,8.1,3,11.4c-1,11.3-2.1,23-8.3,32.6
					c-5.6,8.8-12.9,16.5-21.4,22.6c-3.4,2.4-7.1,4.7-11.3,4.8c-3,0.1-6-0.9-8.8-2.1C310.1,302.7,301.9,296.8,294.6,289.7z"
          />
			</g>
			<g>
				<path
            class="st21"
            d="M295.7,289.2c-0.4-0.9-0.7-1.8-0.8-2.8c-1.9-11.9,2.2-23.9,6-34.9c4.2,5.7,7,12.4,8.1,19.4
					c0.7,4.5,0.8,9.3,2.9,13.4c1.5,2.9,3.8,5.2,6.2,7.3c3.2,2.7,6.8,5.2,10.9,5.9c4.3,0.7,8.7-0.5,12.4-2.7
					c5.9-3.4,10.3-8.9,13.4-14.9s5-12.6,6.7-19.1c2.1-7.9,4-16.2,2.5-24.3c-0.1-0.4,2.3,0.9,2.4,1c0.7,0.6,1.2,2.4,1.6,3.3
					c0.9,2.5,1.3,5.3,1.1,8c-1,11.3-2.1,23-8.3,32.6c-5.6,8.8-12.9,16.5-21.4,22.6c-3.4,2.4-7.1,4.7-11.3,4.8c-3,0.1-6-0.9-8.8-2.1
					C311.8,303.4,299.3,297.5,295.7,289.2z"
          />
			</g>
			<g>
				<path
            class="st56"
            d="M366.9,231.1c-0.3,1.7-0.7,3.6-0.7,5.4c0,1.3,0.2,2.4-1.1,3.3c-1,0.7-2.2,0.8-3.3,0.7
					c-1.3-0.1-2.5-0.5-3.7-0.9c-1.5-0.5-3-1-4.1-2.2c-2-2-0.8-4.8-0.5-7.3c0.4-3,0.3-6.1-0.1-9.1c-0.4-2.8-2.8-9.6,0.9-15.2
					c2.9-4.3,8-8.4,9.6-11.3c1-1.7,1.9-3.6,3.6-4.6c2.5-1.5,2.4,1.5,2.1,3.1c-0.9,4.5-5.8,10.7-5.1,12.6c3.1-1.3,9.4-6.1,10.4-9.3
					c0.6-1.9,1.9-5.8,2-7.3c2.1,0.5,4.1,3.3,3.3,5.9c2.7,0,3,3.8,1.3,6c1.5,0.2,2.4,1.5,2.3,3c-0.1,1.6-1.3,3-1.3,3
					c0.8,0.9,0.2,2.5,0.1,3.2c-0.1,1-0.9,1.7-1.7,2.3c-2.3,2-4.4,4.3-6.7,6.3c-2.3,1.9-4.7,4-6,6.7
					C367.5,227.1,367.2,229.1,366.9,231.1z"
          />
			</g>
			<g>
				<path
            class="st57"
            d="M369,243.3c0,0,0.2-4.4-0.1-7c-0.2-1.5,0.6-3.3,0.4-4.8c-3.3,4.1-16.1-1.4-16.6-1.9
					c-1.8-1.6-0.2-3,0.4-3.4c-0.6-0.5-2.1,1-2.2,1.7c-1.1,5.9-4,11-4,11.3s1.5,9,8.1,9.7C363.4,249.9,368,245.8,369,243.3z"
          />
			</g>
			<g>
				<path
            class="st38"
            d="M299.9,191.1c-0.7,0-1.4,0-2.1-0.2c-4.1-0.9-6.7-4.9-5.8-9c0.9-4.1,4.9-6.7,9-5.8c2,0.4,3.7,1.6,4.8,3.3
					c1.1,1.7,1.5,3.7,1,5.7l0,0C306.1,188.6,303.2,190.9,299.9,191.1z M299,177.6c-2.6,0.2-4.8,2-5.4,4.7c-0.7,3.2,1.3,6.4,4.5,7.1
					c3.2,0.7,6.4-1.3,7.1-4.5c0.3-1.6,0.1-3.1-0.8-4.5c-0.9-1.3-2.2-2.3-3.7-2.6C300.1,177.6,299.6,177.6,299,177.6z"
          />
			</g>
			<g>
				<path
            class="st56"
            d="M253.9,202.8c6.5,7.8,16.8,15.4,27,17.3c5.1,0.9,9.3,2.8,13.3-0.6c3.2-2.7,6-19.1,3.7-27.1
					c-3.9-13.9,0.7-17.5-3.5-25.7c-0.7-1.4,0,0-0.8-1.4c-0.9-1.6-2.2-2.9-3.6-4.2c-2.5-2.4-5.3-4.5-8.6-5.7c-2.7-1-5.7-1.3-8.6-1.2
					c-7.3,0.3-14.4,3.5-19.3,8.6C241.8,174.8,243.7,190.6,253.9,202.8z"
          />
			</g>
			<g>
				<path
            class="st58"
            d="M259.9,205.4c-0.3,0.6-0.5,1.2-0.5,1.9c-0.2,2.2,3.6,4.2,5.3,5.4c4.8,3.4,10.3,6.3,16.3,7.4
					c2.5,0.5,5,1.3,7.5,1.4c1.2,0,2.3-0.1,3.4-0.5c0.9-0.3,1.9-1.5,2.7-1.6c-5.8,0.9-11.6-3.2-13.7-8.4s-0.9-11.2,1.8-16.1
					c1-1.8,2.4-3.6,4.4-4.3c-4.6,1.4-9.5,1.5-13.9,3.4c-3.4,1.5-6.3,4-9,6.5C262.8,201.7,260.8,203.4,259.9,205.4z"
          />
			</g>
			<g>
				<path
            class="st56"
            d="M242.9,235.5c-0.7,1.2,31.9,8.6,37.2,5.2c0.3-0.2-1.3-8.2-1.4-9.1c-0.3-3.3-0.6-21.4,3.4-26.5
					c1.1-1.4,9.2-13.4,9.6-18.7c0.4-5.4-0.9-10.9-3.7-15.5c-0.1-0.2-0.3-0.4-0.5-0.5s-0.5,0-0.7,0.1c-6.8,2.9-13.7,5.8-19.5,10.4
					c-3.9,3.1-15.5,20-15.8,24.8C250.9,214.9,247.9,227.6,242.9,235.5z"
          />
			</g>
			<g>
				<path
            class="st58"
            d="M277.5,191.1c-0.1-4.7-0.9-9.2-3.4-13.1c-0.7-1-1.7-2.1-2.9-1.8c-0.5,0.1-0.9,0.5-1.2,0.8
					c-3.3,3-6.1,7.5-8.7,11.1c-2.3,3.2-4.5,6.5-6.5,10c-1.3,2.2-3.1,5-3.2,7.7c-0.3,4.6-1.9,9.5-3.1,13.9c-1.4,5-3.3,9.9-6.3,14.2
					c-0.2,0.2-0.4,0.5-0.3,0.8c0,0.3,0.3,0.5,0.5,0.7c4.6,3.8,10.5,4.8,12.1,3.5c16.8-13.9,21-26.9,22.4-38
					C277.1,197.6,277.5,194.3,277.5,191.1z"
          />
			</g>
			<g>
				<path
            class="st38"
            d="M235.4,163.7c2.1-4.9,2.3-8.6,2.4-12.9c1.3,0.2,2.6,0.5,3.9,0.7c7.6-8.7,19.7-11.7,31.1-13
					c2.7-0.3,13.1-3.6,15.6-3.7c2.1-0.1,4.1,1.4,5.1,3.3s1.4,4.1,1.7,6.2c2.5-0.9,4.9-1.8,7.4-2.7c0.3,7.7,0.3,16.1-4.5,22.1
					c-5.4,6.9-14.7,9.9-13.7,20.4c0.2,1.9,0.3,4.5-1.6,5c-2,0.6-3.5-2.2-5.5-2.4c-1.6-0.1-3.8,11.4-3.9,13
					c-0.4,8.2-0.4,8.2-3.2,15.5c-1.4,3.6-5.6,4.6-9.4,5.3s-10.9-1.3-12.7-4.7c-2.6-5.1-12.8-11.1-15.1-17.4c0.9-0.8,1.5-1.8,1.9-2.9
					c-5.1-4.9-9.9-22-9.2-23C230.5,165.8,235.4,163.7,235.4,163.7z"
          />
			</g>
			<g>
				<path
            class="st32"
            d="M154.5,224.2c-2.3-1.6-5.6-1.3-7.7-3.2c-0.8-0.7-1.4-1.6-1.8-2.6c-0.6-1.3-1.2-2.7-1.5-4.1
					c0-0.2-0.1-0.3,0-0.5s0.2-0.3,0.3-0.3c1.1-0.6,2.4-0.1,3.6,0.3c1.2,0.4,2.4,0.5,3.5,0.7c2.1,0.3,4.2,0.6,6.3,1
					c1.1,0.2,2.1,0.3,3.2,0.2c0.7-0.1,1.3-0.3,2-0.3s1.4,0.3,1.7,0.9c0.3,0.7-0.1,1.5-0.6,2.1c-1.1,1.3-2.6,2.1-4,3
					c-2.3,1.3-4.8,2.6-7.3,2.3"
          />
			</g>
			<g>
				<path
            class="st56"
            d="M154.5,183.7c2.3-1.9,2.4-1.5,5.2-2.1c1.4-0.3,3.3,1.5,3.3,1.5s2.3-2.3,5.6-1.5c0.5,0.1,2.1,1.5,2.1,1.5
					c0.8-0.4,2.5-0.8,2.8-0.8c3.2-0.2,5.4,3.7,7.1,5.3c1.1,1.1,3.5,4.6,3.5,4.6c-1.5,0.3-10.5-0.3-12.6,0.1
					c-2.4,0.5-3.8,1.6-4.7,3.9c-0.2,0.6-0.4,1.2-0.4,1.9c0,0.9,0.5,1.8,1.2,2.4c1.9,1.5,4.8,0.3,6.7-0.6c2.6-1.3,5.2-3.8,8.2-4
					c1.1-0.1,2.3,0.2,2.9,1.2c1.1,1.8-0.3,3.5-1.6,4.5c-1.4,1.1-2.7,2.1-4.1,3.2c-1.7,1.4-3.5,2.8-5.6,3.6c-2.7,1.1-5.8,1.2-8.3,2.6
					c-1.7,1-3.1,2.5-3.8,4.3c-1.1,2.7-0.8,5.7-1.8,8.5c-1.1,2.9-3.5,5-6.5,5.7c-3.1,0.7-6.6-0.2-8.8-2.5c-0.4-0.4-0.7-0.8-0.8-1.3
					c-0.4-1.6,0.6-3.9,0.9-5.5c0.3-1.9,0.6-3.9,0.8-5.9c0.5-4.6,0.9-9.5,0.2-14.1C145.1,195.4,151,186.6,154.5,183.7z"
          />
			</g>
			<g>
				<path
            class="st21"
            d="M143.2,219.3c0.7-2-0.3-3.4,0.2-5.5c1.1,1.3,4.6,1.5,6.2,2c2.8,1,5.8,1.5,8.8,1.5c1.4,0,3.2,0.1,4.3-0.8
					c0.2-0.1,0.3-0.3,0.4-0.5c0-0.2-0.1-0.5-0.3-0.5c0.4-0.2,0.9,0.1,1.1,0.5c0.2,0.4,0.2,0.9,0.2,1.3c-0.2,2.2-1.5,4-1.7,6.1
					c-0.2,1.8,0.1,3.5,0.5,5.3c-1.7,1-3.4,2-5.3,2.4c-2.1,0.5-4.3,0.2-6.5-0.4c-2.6-0.7-5.2-1.7-7.2-3.6c-1-0.9-1.4-1.6-1.5-3
					C142.3,222.5,142.7,220.8,143.2,219.3z"
          />
			</g>
			<g>
				<path
            class="st58"
            d="M164.6,192.3c1.7-2,3.8-3.7,6.1-5c1.2-0.6,2.4-1.2,3.7-1.2c2.3-0.1,4.5,1.1,6.5,2.3c1.3,0.8,2.5,3,3.3,4.3
					c-1.8,0.1-10.8,0.1-12.9,0.5c-2.4,0.5-3.7,0.8-4.6,3.1c-0.2,0.6-0.4,1.2-0.4,1.9c0,0.9,0.5,1.8,1.2,2.4c1,0.8,2.4,0.8,3.6,0.6
					c0.6-0.1,1.3-0.4,1.9-0.6c0.4-0.2,1.2-0.8,1.6-0.8c-0.7,0.5-1.4,1-2.1,1.5c-0.5,0.4-1,0.7-1.6,1c-0.5,0.2-1.1,0.3-1.7,0.4
					c-1.1,0.1-2.2,0.3-3.2,0.1c-1.3-0.3-2.4-1-3.1-2.1c-0.7-1.1-1-2.4-0.8-3.7c0.2-1.2,0.9-2.2,1.6-3.2
					C164,193,164.3,192.7,164.6,192.3z"
          />
			</g>
			<g>
				<path
            class="st21"
            d="M237.9,248.1c-0.4,2.4-0.9,4.8-1.9,7.2c-2.5,5.7-6.5,10.7-10.9,15.1c-5.6,5.6-24.6,20.9-28.1,23.3
					c-10.9,7.5-23.6,12.7-36.8,13.2c-5.8,0.2-11.8-0.5-16.6-3.7c-3.3-2.2-4.8-5.8-6.9-9c-2.3-3.7-3.6-8.1-4-12.5
					c-0.6-5.9,2.5-25.3,3.1-29.2c1.1-6.5,4.6-26.4,6.8-29c2.8-3.2,6.8-3.1,10.9-3.8c0.8-0.1,2.9-0.3,3.7-0.2
					c2.1,0.5,4.1,0.1,5.1,2.1c1.9,3.9,5.7,38.3,6.1,43.7c0-0.1,3.8-3.3,4.2-3.6c7.1-6.6,13.5-13.9,20.6-20.5
					c4.9-4.7,9.8-9.5,15.5-13.1s18-5.1,24.6-3.7c2.7,0.6,10.6,2.5,11.9,4.9c1.2,2.2-4.3,4.1-4.7,6.5c-0.6,3.6-1.9,7-2.5,10.6
					C238.1,246.8,238,247.4,237.9,248.1z"
          />
			</g>
			<g>
				<path
            class="st59"
            d="M140.2,258.8c0.4,7.9,1.6,16,6.3,22.3c2,2.7,4.7,5,8,5.8c1.4,0.3,2.9,0.4,4.4,0.2
					c3.8-0.4,7.4-2.3,10.6-4.4c2.4-1.5,4.7-3.3,6.6-5.4c2.2-2.3,3.8-5.1,5.4-7.9c2.1-3.6,4.3-7.2,6.9-10.6c2.6-3.4,5.7-6.4,8.6-9.6
					c3.4-3.8,6.6-7.9,10.7-10.9c5.4-4,12.3-6,19-5.6c2,0.1,4.1,0.5,5.8,1.5c2.7,1.6,4.2,4.6,4.9,7.7c0.9,4.3,0.4,9.1-1.3,13.1
					c-2.5,5.7-6.5,10.7-10.9,15.1c-5.6,5.6-24.6,20.9-28.1,23.3c-10.9,7.5-23.6,12.7-36.8,13.2c-5.8,0.2-11.8-0.5-16.6-3.7
					c-3.3-2.2-4.8-5.8-6.9-9c-2.3-3.7-3.6-8.1-4-12.5c-0.7-7.2,1-15,2-22.1c1.3-9.3,2.5-18.6,4.1-27.9c0.5-2.7,1.1-6.8,4.1-8
					c-2.7,10.2-3.2,20.8-3,31.3C140.1,256.2,140.1,257.5,140.2,258.8z"
          />
			</g>
			<g class="st31">
				<path
            class="st38"
            d="M243.7,191.2c0.4,0.3,0.6,0.6,0.7,1c0.1,0.5-0.2,0.9-0.4,1.4c-1.1,2.2-3.7,4.8-3.2,7.3
					c0.4,2,2.3,3.7,3.7,5c3.4,2.9,7.5,4.8,11.5,6.6c5,2.2,9.8,1.8,12.3-3.7c1.1-2.4,1.4-5.1,2-7.7c0.8-3.6,1.9-7.5,4-10.5
					c1.8-2.5,4.1-3.7,5.2-6.8c0.7-2.1,1.1-4.3,2-6.4c2-4.8,6.4-8.2,10.3-11.6s7.8-7.7,8.2-12.8c0.1-1.5-0.4-3.4-1.9-3.7
					c-0.8-0.1-1.5,0.2-2.2,0.6c-2.3,1.1-4.6,2.3-6.9,3.4c-2.4,1.2-5.3,2.4-7.6,1c-1.3-0.8-2.1-2.3-3.3-3.4c-2.4-2.3-6.4-2.2-9.3-0.6
					c-3.9,2.1-5,6.1-8,9c-3.6,3.6-9.4,3.3-14.3,4.7c-5.5,1.6-10.1,5.9-12.3,11.2c-1.5,3.7-1.6,8.2,0.9,11.2c1.8,2.2,4.7,3.3,7.4,4.3
					C243,190.7,243.4,190.9,243.7,191.2z"
          />
			</g>
			<g>
				<path
            class="st38"
            d="M234.8,167c0.3-4.4-0.3-9-1.8-13.2c0.5-0.2,1,0,1.4,0.4s0.5,0.9,0.7,1.3c1.2,3.2,2.2,6.4,2.9,9.8"
          />
			</g>
			<g>
				<path
            class="st38"
            d="M291.1,144.4c3.6-2.7,6.6-6.1,8.8-10c0.5,0.2,0.7,0.8,0.6,1.3s-0.3,1-0.5,1.4c-1.6,3-3.4,5.9-5.5,8.6"
          />
			</g>
			<g>
				
					<rect
            x="277.4"
            y="183.1"
            transform="matrix(0.9808 -0.1952 0.1952 0.9808 -30.2859 60.4769)"
            class="st38"
            width="28.6"
            height="1.6"
          />
			</g>
			<g>
				<path
            class="st56"
            d="M279,188c-0.3-0.9-1.3-1.4-2.3-1.8c-1.5-0.6-3.1-1.2-4.6-0.8c-1.4,0.4-2.4,1.7-2.9,3.1
					c-0.4,1.4-0.3,2.9,0,4.3c0.6,2.7,1.9,5.4,4.2,6.9c2.3,1.5,5.7,1.5,7.6-0.4"
          />
			</g>
		</g>
	</g>
	<g>
		<path
        class="st29"
        d="M242.7,247.4c-4.7,7-7.4,15.3-8.2,23.7c-1.3,13.2,1.6,26.4,5.3,39.1s8.2,25.2,10.2,38.3c0.5,3,0.8,6.1,1,9.1
			c12.1,1.1,24.3,1.8,36.4,2c20.3-59.7,19-92.2,19.1-99.7c0.1-5.7-1.3-12.6-4.6-17.2c-2.5-3.7-15.7-10.6-20.1-9.6
			c-8.5,2-15.2,1.2-20.7-0.7l0,0C258.6,231.8,244.3,245.1,242.7,247.4z"
      />
		<path class="st29" d="M257.4,230.8L257.4,230.8L257.4,230.8L257.4,230.8z" />
		<path
        class="st29"
        d="M231.5,226.1L231.5,226.1c-11.7,0.8-17.3,4.8-20.3,10.6C214.2,230.9,219.8,227,231.5,226.1z"
      />
		<path class="st29" d="M231.5,226.1c0.3,0,0.6,0,0.9,0C232.1,226.1,231.8,226.1,231.5,226.1z" />
		<path class="st29" d="M209.8,240.2c0.3-0.9,0.7-1.8,1-2.7C210.4,238.4,210.1,239.3,209.8,240.2z" />
		<path class="st21" d="M231.5,226.1L231.5,226.1L231.5,226.1z" />
		<path class="st21" d="M257.5,230.8c1.2,0.6,2.5,1.1,3.8,1.6C260.3,231.9,258.9,231.4,257.5,230.8z" />
		<path class="st21" d="M257.4,230.8c-6.7-2.4-17.2-5-25-4.7C240.5,226,257.2,230.7,257.4,230.8z" />
		<path
        class="st21"
        d="M250.1,348.4c-2.1-13.1-6.5-25.6-10.2-38.3s-6.6-25.9-5.3-39.1c0.8-8.3,3.4-16.7,8.2-23.7
			c1.6-2.3,15.8-15.6,18.6-15l0,0c-1.4-0.5-2.6-1-3.8-1.6l0,0c-0.2-0.1-16.9-4.8-25-4.7c-0.3,0-0.6,0-0.9,0l0,0
			c-11.7,0.8-17.3,4.8-20.3,10.6c-0.1,0.3-0.3,0.6-0.4,0.8c-0.4,0.9-0.7,1.7-1,2.7c-0.7,2.2-1.2,4.5-1.6,7
			c-1.4,8.1-0.4,21.4,0.7,29.3c0.9,6.5-1.6,51.3-3,74.9c15.1,2.7,30.2,4.8,45.3,6.2C250.9,354.5,250.6,351.5,250.1,348.4z"
      />
	</g>
</g>
</svg>
