<?xml version="1.0" encoding="UTF-8" ?>
<svg
  width="409px"
  height="281px"
  viewBox="0 0 409 281"
  version="1.1"
  xmlns="http://www.w3.org/2000/svg"
  xmlns:xlink="http://www.w3.org/1999/xlink"
>
    <!-- Generator: Sketch 55 (78076) - https://sketchapp.com -->
    <title>Group 107</title>
    <desc>Created with Sketch.</desc>
    <defs>
        <path
      d="M287.025931,0.574371069 C253.526883,0.574371069 223.205996,14.1047862 201.212065,35.9750692 L201.212065,35.9750692 L201.220918,35.9079119 C201.220918,35.9079119 136.156277,95.462239 64.3298571,94.1615094 L64.3298571,94.1615094 C63.1630563,94.0943522 61.9944848,94.0484025 60.8117489,94.0484025 L60.8117489,94.0484025 C27.2241732,94.0484025 0,121.224107 0,154.747937 L0,154.747937 C0,187.815805 26.500013,214.691069 59.459039,215.412126 L59.459039,215.412126 C88.230684,220.090157 105.86726,234.173736 114.259727,242.789302 L114.259727,242.789302 C130.795013,265.912597 157.877541,281 188.513589,281 L188.513589,281 C210.611983,281 230.86545,273.146138 246.651788,260.092893 L246.651788,260.092893 C263.027723,243.250566 279.550615,221.853918 300.087372,218.764686 L300.087372,218.764686 C363.330104,214.44895 408.645887,170.448591 408.645887,121.968138 L408.645887,121.968138 C408.645887,54.9240126 354.195771,0.574371069 287.025931,0.574371069 Z"
      id="path-1"
    />
        <linearGradient
      x1="20.4900497%"
      y1="70.5992766%"
      x2="83.7524669%"
      y2="27.2667294%"
      id="linearGradient-3"
    >
            <stop stop-color="#CFEDF9" offset="0%" />
            <stop stop-color="#F2F9FD" offset="100%" />
        </linearGradient>
        <polygon
      id="path-4"
      points="0.55825 47.1449526 43.883 58.9124641 54.51075 7.09118301 12.81175 0.706264706"
    />
        <polygon
      id="path-6"
      points="0.223111111 50.777675 58.8791111 68.5037339 107.597333 61.3935304 109.538667 36.5502036 47.1493333 0.0260803571"
    />
        <polyline
      id="path-8"
      points="0.223111111 50.777675 58.8791111 68.5037339 107.597333 61.3935304 109.538667 36.5502036 47.1493333 0.0260803571"
    />
        <polygon
      id="path-10"
      points="0.223111111 50.777675 58.8791111 68.5037339 107.597333 61.3935304 109.538667 36.5502036 47.1493333 0.0260803571"
    />
        <path
      d="M1.04575,1.74644628 C1.04575,1.74644628 0.127,1.95530579 0.442,7.21606612 L0.442,7.21606612 C0.75875,12.4768264 2.37225,13.5550413 2.37225,13.5550413 L2.37225,13.5550413 L47.41025,16.4219504 L47.41025,0.0755702479 L1.04575,1.74644628 Z"
      id="path-12"
    />
    </defs>
    <g id="Iconography" stroke="none" stroke-width="1" fill="none" fill-rule="evenodd">
        <g id="IC-1-Send-your-developers-the-key" transform="translate(-12.000000, -26.000000)">
            <g id="Group-107" transform="translate(12.000000, 26.000000)">
                <g id="Group-3">
                    <mask id="mask-2" fill="white">
                        <use xlink:href="#path-1" />
                    </mask>
                    <g id="Clip-2" />
                    <path
            d="M287.025931,0.574371069 C253.526883,0.574371069 223.205996,14.1047862 201.212065,35.9750692 L201.212065,35.9750692 L201.220918,35.9079119 C201.220918,35.9079119 136.156277,95.462239 64.3298571,94.1615094 L64.3298571,94.1615094 C63.1630563,94.0943522 61.9944848,94.0484025 60.8117489,94.0484025 L60.8117489,94.0484025 C27.2241732,94.0484025 0,121.224107 0,154.747937 L0,154.747937 C0,187.815805 26.500013,214.691069 59.459039,215.412126 L59.459039,215.412126 C88.230684,220.090157 105.86726,234.173736 114.259727,242.789302 L114.259727,242.789302 C130.795013,265.912597 157.877541,281 188.513589,281 L188.513589,281 C210.611983,281 230.86545,273.146138 246.651788,260.092893 L246.651788,260.092893 C263.027723,243.250566 279.550615,221.853918 300.087372,218.764686 L300.087372,218.764686 C363.330104,214.44895 408.645887,170.448591 408.645887,121.968138 L408.645887,121.968138 C408.645887,54.9240126 354.195771,0.574371069 287.025931,0.574371069 Z"
            id="Fill-1"
            fill="url(#linearGradient-3)"
            mask="url(#mask-2)"
          />
                </g>
                <g id="Group-14" transform="translate(108.000000, 26.000000)">
                    <path
            d="M98.0672348,14.4829825 C95.8924174,15.0882456 26.7931826,68.1970175 26.7931826,68.1970175 L24.8560696,80.0935088 L53.9677565,80.9514035 L124.491443,66.19 L169.293391,27.0584211 L168.649461,17.2759649 L152.943235,15.3215789"
            id="Fill-4"
            fill="#174562"
          />
                    <polygon
            id="Fill-6"
            fill="#236793"
            points="127.691937 81.7749123 16.3700243 97.7784211 11.4899896 76.5292982 2.79958957 73.6977193 109.888946 62.5854386 127.567763 67.6310526"
          />
                    <polygon
            id="Fill-8"
            fill="#2E89C4"
            points="203.90953 22.9910526 127.691583 81.7752632 109.888591 62.5840351 170.134226 14.1822807"
          />
                    <path
            d="M190.347078,8.27929825 C186.087913,3.65649123 180.074348,0.998596491 173.752122,0.937192982 L81.2070783,0.0529824561 C75.1580348,-0.00666666667 69.3431478,2.36526316 65.0946261,6.62140351 L3.54516522,66.4231579 C-0.969443478,70.9442105 -1.16989565,78.1512281 3.08572174,82.9126316 L16.3705565,97.7792982 L93.4009565,24.2091228 L203.910417,22.9915789 L190.347078,8.27929825 Z"
            id="Fill-10"
            fill="#4E97EE"
          />
                    <path
            d="M93.400247,24.2091228 L203.909708,22.9915789 L190.346369,8.27929825 C186.087203,3.65649123 180.073638,0.998596491 173.751412,0.937192982 L81.2063687,0.0512280702 C75.1590991,-0.00666666667 69.3424383,2.36526316 65.0939165,6.62140351 C65.0939165,6.62140351 76.2873078,-6.26631579 93.400247,24.2091228"
            id="Fill-12"
            fill="#7CB2F2"
          />
                </g>
                <path
          d="M312,47 L202.00322,48.2417365 L125,123 L236.135646,106.952255 L312,47 Z M301.580702,50.6947924 L234.707208,103.543742 L135.369859,117.886336 L203.43872,51.8059139 L301.580702,50.6947924 Z"
          id="Fill-15"
          fill="#4E97EE"
        />
                <g id="Group-38" transform="translate(67.000000, 32.000000)">
                    <path
            d="M169.727477,76.3634992 L58.265,92.4441099 L87.6693856,117.751591 L114.691451,128.981453 C114.691451,128.981453 95.2325882,129.870492 143.68668,123.108843 L192.140771,116.345423 L190.22783,96.7865832"
            id="Fill-16"
            fill="#174562"
          />
                    <polygon
            id="Fill-18"
            fill="#236793"
            points="240.528795 94.2429069 168.722652 76.5347542 171.956939 124.110693"
          />
                    <polygon
            id="Fill-20"
            fill="#7CB2F2"
            points="250.083759 205.908757 131.670929 230.447627 121.652786 110.145887 243.360125 92.3013679"
          />
                    <polygon
            id="Fill-22"
            fill="#4E97EE"
            points="121.65314 110.145533 131.671284 230.449044 68.398983 199.577105 56.4944667 90.6734718"
          />
                    <path
            d="M169.727477,74.5925069 L56.4937582,90.6731176 L121.652431,110.145179 L243.358,92.3006595 L169.727477,74.5925069 Z M169.555667,78.1947053 L224.70151,91.4558962 L121.916346,106.527041 L72.9946471,91.9074992 L169.555667,78.1947053 Z"
            id="Fill-24"
            fill="#96C1F5"
          />
                    <path
            d="M207.049845,51.8480061 C207.435976,53.7482809 206.208505,55.6007389 204.307963,55.9868153 C202.409192,56.3746626 200.554701,55.1455939 200.168571,53.2470901 C199.780669,51.3468153 201.00991,49.4943573 202.908682,49.1082809 C204.809224,48.7204336 206.661943,49.9495023 207.049845,51.8480061"
            id="Fill-26"
            fill="#FFFFFF"
          />
                    <path
            d="M199.132925,39.5497038 C199.55271,41.6146809 198.218965,43.6282992 196.155468,44.0480244 C194.0902,44.4677496 192.078069,43.1341924 191.656514,41.0692153 C191.236729,39.0042382 192.570475,36.9923908 194.635742,36.5708947 C196.699239,36.1529405 198.714912,37.4847267 199.132925,39.5497038"
            id="Fill-28"
            fill="#FFFFFF"
          />
                    <path
            d="M7.82322092,3.19069924 C8.24123399,5.25390534 6.90748889,7.26929466 4.84399216,7.68724885 C2.77872418,8.10697405 0.766593464,6.77341679 0.345037908,4.71021069 C-0.0747464052,2.64523359 1.25899869,0.63338626 3.32426667,0.211890076 C5.3877634,-0.207835115 7.4034366,1.12572214 7.82322092,3.19069924"
            id="Fill-30"
            fill="#FFFFFF"
          />
                    <polygon
            id="Fill-32"
            fill="#4E97EE"
            points="269.164462 55.2672611 244.464495 71.6188336 270.20241 84.056513"
          />
                    <polygon
            id="Fill-34"
            fill="#9ECBFA"
            points="85.697285 175.132629 35.5552 161.768721 49.7375333 109.042736 97.9967882 116.287866"
          />
                    <polygon
            id="Fill-36"
            fill="#FFFFFF"
            points="83.3829804 170.843463 39.5323464 159.156684 51.9345817 113.045356 94.139732 119.383737"
          />
                </g>
                <g id="Group-41" transform="translate(107.000000, 145.000000)">
                    <mask id="mask-5" fill="white">
                        <use xlink:href="#path-4" />
                    </mask>
                    <g id="Clip-40" />
                    <path
            d="M-8.916075,25.7180229 C3.713675,30.01625 9.842175,43.139219 22.715175,43.0232917 C35.588175,42.9091479 36.795675,33.1016993 56.287175,31.1505539 L46.163425,63.2677631 L-5.801075,48.0349175 L-8.916075,25.7180229 Z"
            id="Fill-39"
            fill="#3397F5"
            mask="url(#mask-5)"
          />
                </g>
                <g id="Group-50" transform="translate(121.000000, 60.000000)">
                    <path
            d="M22.0146312,105.979855 C21.4130461,101.092783 16.936755,97.6148986 12.0172843,98.2107536 C7.09603385,98.8083768 3.59509363,103.256957 4.19667868,108.144029 C4.79826373,113.031101 9.27455487,116.508986 14.1940255,115.911362 C19.115276,115.313739 22.6162162,110.868696 22.0146312,105.979855"
            id="Fill-42"
            fill="#FFD840"
          />
                    <path
            d="M25.4717874,105.560281 C24.6370437,98.7760203 18.4236312,93.9490638 11.594395,94.776542 C4.76515875,95.6057884 -0.0937974326,101.778281 0.739166485,108.562542 C1.57391024,115.348571 7.78732271,120.177296 14.6165589,119.346281 C21.447575,118.517035 26.308311,112.344542 25.4717874,105.560281 Z"
            id="Stroke-44"
            stroke="#FFD740"
            stroke-width="0.75"
            stroke-linejoin="round"
            stroke-dasharray="3"
          />
                    <polygon
            id="Fill-46"
            fill="#B1D1F7"
            points="138.354239 59.041858 124.669069 7.10875652 156.246944 0.220176812 170.903906 48.2209884"
          />
                    <path
            d="M150.97293,29.7850203 L146.987874,23.2712812 L146.932699,23.283658 L145.966248,30.8724116 L150.97293,29.7850203 Z M148.137649,18.0641797 L159.585564,35.6887594 L155.175126,36.6470783 L152.774126,32.6900348 L145.549766,34.2583536 L144.973098,38.8625275 L140.699709,39.7890203 L143.782387,19.0101217 L148.137649,18.0641797 Z"
            id="Fill-48"
            fill="#4E97EE"
          />
                </g>
                <g id="Group-60" transform="translate(131.000000, 71.000000)">
                    <g id="Group-53">
                        <mask id="mask-7" fill="white">
                            <use xlink:href="#path-6" />
                        </mask>
                        <g id="Clip-52" />
                        <polygon
              id="Fill-51"
              fill="#00DE91"
              mask="url(#mask-7)"
              points="25.3781333 43.8474341 76.6616889 84.9845359 100.729244 50.9505734 49.1345778 12.4767073"
            />
                    </g>
                    <g id="Group-56">
                        <mask id="mask-9" fill="white">
                            <use xlink:href="#path-8" />
                        </mask>
                        <g id="Clip-55" />
                        <path
              d="M74.5672889,55.0750566 C78.2472889,49.2841084 76.5050667,41.6264227 70.6757333,37.9688887 C64.8446222,34.3131209 57.1361778,36.045637 53.4579556,41.8365852 C49.7779556,47.6275334 51.5201778,55.2852191 57.3495111,58.940987 C63.1806222,62.5967548 70.8890667,60.8660048 74.5672889,55.0750566"
              id="Fill-54"
              fill="#FFFFFF"
              mask="url(#mask-9)"
            />
                    </g>
                    <g id="Group-59">
                        <mask id="mask-11" fill="white">
                            <use xlink:href="#path-10" />
                        </mask>
                        <g id="Clip-58" />
                        <polygon
              id="Fill-57"
              fill="#00DE91"
              mask="url(#mask-11)"
              points="69.8156444 52.093045 63.9080889 40.9350057 57.1329778 51.5967789"
            />
                    </g>
                </g>
                <g id="Group-87" transform="translate(64.000000, 52.000000)" fill="#FAFCFF">
                    <path
            d="M83.4566464,52.3711768 C83.8756286,54.4324982 82.5444321,56.4425518 80.4831107,56.8615339 C78.4235571,57.2805161 76.4135036,55.9493196 75.9945214,53.8879982 C75.5755393,51.8284446 76.9067357,49.8183911 78.9662893,49.3994089 C81.0276107,48.9804268 83.0376643,50.3116232 83.4566464,52.3711768"
            id="Fill-61"
          />
                    <path
            d="M261.664955,66.3292929 C262.08217,68.3906143 260.750973,70.4006679 258.69142,70.81965 C256.630098,71.2386321 254.621813,69.9074357 254.201063,67.8461143 C253.78208,65.7865607 255.113277,63.7765071 257.174598,63.357525 C259.234152,62.9385429 261.245973,64.2697393 261.664955,66.3292929"
            id="Fill-63"
          />
                    <path
            d="M138.686625,21.1608964 C139.105607,23.2222179 137.774411,25.2322714 135.713089,25.6512536 C133.653536,26.0702357 131.643482,24.7390393 131.2245,22.6777179 C130.805518,20.6181643 132.136714,18.6081107 134.196268,18.1873607 C136.257589,17.7701464 138.267643,19.1013429 138.686625,21.1608964"
            id="Fill-65"
          />
                    <path
            d="M171.720096,23.8231125 C172.139079,25.8844339 170.807882,27.8962554 168.746561,28.3134696 C166.687007,28.7324518 164.676954,27.4012554 164.256204,25.3417018 C163.838989,23.2803804 165.170186,21.2703268 167.229739,20.8513446 C169.291061,20.4323625 171.301114,21.7635589 171.720096,23.8231125"
            id="Fill-67"
          />
                    <path
            d="M8.50056429,71.059725 C8.91954643,73.1210464 7.58835,75.1311 5.52879643,75.5500821 C3.467475,75.9690643 1.45918929,74.6378679 1.03843929,72.5765464 C0.619457143,70.515225 1.95065357,68.5069393 4.011975,68.0861893 C6.07152857,67.668975 8.08335,68.9984036 8.50056429,71.059725"
            id="Fill-69"
          />
                    <path
            d="M296.664637,56.1796714 C297.081852,58.2409929 295.750655,60.2510464 293.691102,60.6700286 C291.62978,61.0890107 289.621495,59.7578143 289.200745,57.6964929 C288.781762,55.6369393 290.112959,53.6268857 292.17428,53.2061357 C294.233834,52.7889214 296.245655,54.1201179 296.664637,56.1796714"
            id="Fill-71"
          />
                    <path
            d="M106.946341,13.1072464 C107.365323,15.1685679 106.034127,17.1786214 103.972805,17.5976036 C101.913252,18.0148179 99.9031982,16.6853893 99.4842161,14.6240679 C99.0652339,12.5627464 100.39643,10.5544607 102.455984,10.1337107 C104.517305,9.71472857 106.527359,11.045925 106.946341,13.1072464"
            id="Fill-73"
          />
                    <path
            d="M134.87813,3.60660536 C135.297112,5.66792679 133.965916,7.67798036 131.904595,8.0969625 C129.845041,8.51594464 127.834987,7.18474821 127.416005,5.12342679 C126.997023,3.06210536 128.32822,1.05381964 130.387773,0.633069643 C132.449095,0.215855357 134.459148,1.54528393 134.87813,3.60660536"
            id="Fill-75"
          />
                    <path
            d="M233.462154,7.4151 C233.881136,9.47642143 232.549939,11.486475 230.490386,11.9054571 C228.429064,12.3226714 226.420779,10.9932429 226.000029,8.93192143 C225.581046,6.8706 226.912243,4.86231429 228.973564,4.44156429 C231.033118,4.02258214 233.044939,5.35377857 233.462154,7.4151"
            id="Fill-77"
          />
                    <path
            d="M35.7158411,93.6654911 C36.1348232,95.7268125 34.8036268,97.7368661 32.7440732,98.1558482 C30.6827518,98.5748304 28.6744661,97.2436339 28.2537161,95.1823125 C27.8347339,93.1227589 29.1659304,91.1127054 31.2272518,90.6937232 C33.2868054,90.2747411 35.2986268,91.6059375 35.7158411,93.6654911"
            id="Fill-79"
          />
                    <path
            d="M50.0849839,75.3619821 C50.5039661,77.4233036 49.1727696,79.4333571 47.1114482,79.8523393 C45.0501268,80.2713214 43.0418411,78.940125 42.6210911,76.8788036 C42.2038768,74.81925 43.5333054,72.8091964 45.5946268,72.3902143 C47.6559482,71.9712321 49.6660018,73.3024286 50.0849839,75.3619821"
            id="Fill-81"
          />
                    <path
            d="M246.353368,19.2636321 C246.77235,21.3249536 245.441154,23.3350071 243.379832,23.7539893 C241.318511,24.1729714 239.310225,22.841775 238.889475,20.7804536 C238.472261,18.7191321 239.801689,16.7108464 241.863011,16.2900964 C243.924332,15.8728821 245.934386,17.2023107 246.353368,19.2636321"
            id="Fill-83"
          />
                    <path
            d="M21.6627911,47.6251875 C22.0817732,49.6865089 20.7505768,51.6965625 18.6892554,52.1155446 C16.6297018,52.5345268 14.6196482,51.2033304 14.2006661,49.1420089 C13.7816839,47.0824554 15.1128804,45.0724018 17.1724339,44.6534196 C19.2337554,44.2344375 21.2438089,45.5656339 21.6627911,47.6251875"
            id="Fill-85"
          />
                </g>
                <g id="Group-92" transform="translate(236.000000, 159.000000)">
                    <path
            d="M32.9875739,13.970773 C31.3137043,5.03936757 22.7215304,-0.841767568 13.7977913,0.834989189 C4.87405217,2.50817838 -1.0032087,11.1060162 0.67066087,20.0356378 C2.12348696,27.7826108 8.78687826,33.2178 16.3540522,33.4300703 L10.8475739,64.4358 L39.5796609,59.0434216 L23.2206609,32.1421784 C30.1960087,29.2007189 34.4386174,21.7177459 32.9875739,13.970773"
            id="Fill-88"
            fill="#2E5078"
          />
                    <path
            d="M39.578413,59.0427081 L23.219413,32.1432486 C30.1947609,29.2000054 34.4373696,21.7170324 32.9898913,13.9682757 C31.3124565,5.04043784 22.7220652,-0.840697297 13.7965435,0.832491892 C12.6271522,1.0518973 11.5148043,1.40508649 10.4559348,1.84924865 C16.2137609,3.53314054 20.8610217,8.24768108 22.0428913,14.5497892 C23.4850217,22.2432486 19.2941087,29.6530865 12.4078913,32.6373568 C13.6931522,33.0012486 14.9801957,33.3918973 16.354587,33.4311405 L15.5310217,38.0707622 L28.7401522,58.0384378 L11.2260217,61.3259514 L10.8498913,64.4333027 L39.578413,59.0427081 Z"
            id="Fill-90"
            fill="#236793"
          />
                </g>
                <path
          d="M236.684958,172.635292 L284,171 L284,187 L238.038704,184.1924 C238.038704,184.1924 236.390277,183.138895 236.067021,177.988425 C235.745551,172.839703 236.684958,172.635292 236.684958,172.635292"
          id="Fill-93"
          fill="#FFD840"
        />
                <g id="Group-97" transform="translate(236.000000, 171.000000)">
                    <mask id="mask-13" fill="white">
                        <use xlink:href="#path-12" />
                    </mask>
                    <g id="Clip-96" />
                    <path
            d="M0.12595,5.52519669 L42.8627,5.78939504 L47.41095,19.9918413 L2.37295,17.1249322 C2.37295,17.1249322 0.7577,16.0485025 0.4427,10.785957 L0.12595,5.52519669 Z"
            id="Fill-95"
            fill="#ECB855"
            mask="url(#mask-13)"
          />
                </g>
                <g id="Group-102" transform="translate(276.000000, 168.000000)">
                    <path
            d="M14.1444375,22.9016308 C7.6888125,23.6995538 1.7656875,19.4091692 0.9181875,13.3159385 C0.0706875,7.22447692 4.6194375,1.63370769 11.0750625,0.835784615"
            id="Fill-98"
            fill="#FFD840"
          />
                    <path
            d="M14.1444375,22.9016308 C9.4156875,23.4872462 5.0769375,20.3433231 4.4563125,15.8795538 C3.8356875,11.4175538 7.1675625,7.32355385 11.8981875,6.73793846"
            id="Fill-100"
            fill="#ECB855"
          />
                </g>
                <path
          d="M319.824692,206.786903 C313.110526,209.146546 303.717089,199.641679 298.843589,185.550109 C293.970089,171.46033 295.460744,158.124849 302.17491,155.763413 C308.889076,153.401978 318.282513,162.910428 323.156013,176.998416 C328.029513,191.088194 326.537082,204.425467 319.824692,206.786903 M331.227581,171.884958 C324.097666,151.273461 309.262184,137.749853 298.092043,141.679009 C286.918349,145.608166 283.642106,165.502991 290.770244,186.114488 C297.900159,206.727777 312.737418,220.251385 323.909336,216.320437 C335.081253,212.391281 338.359273,192.494664 331.227581,171.884958"
          id="Fill-103"
          fill="#FFD840"
        />
                <path
          d="M316.824692,209.786903 C310.110526,212.146546 300.717089,202.641679 295.843589,188.550109 C290.970089,174.46033 292.460744,161.124849 299.17491,158.763413 C305.889076,156.401978 315.282513,165.910428 320.156013,179.998416 C325.029513,194.088194 323.537082,207.425467 316.824692,209.786903 M328.227581,174.884958 C321.097666,154.273461 306.262184,140.749853 295.092043,144.679009 C283.918349,148.608166 280.642106,168.502991 287.770244,189.114488 C294.900159,209.727777 309.737418,223.251385 320.909336,219.320437 C332.081253,215.391281 335.359273,195.494664 328.227581,174.884958"
          id="Fill-105"
          fill="#ECB855"
        />
            </g>
        </g>
    </g>
</svg>
