<svg xmlns="http://www.w3.org/2000/svg" data-name="Layer 1" viewBox="0 0 239.12 166.43"><defs
  /><path
    fill="#94c5fa"
    d="M177.61 127.03s-24.85-18.13-30-27.49c0 0-22 1.69-51-3.2-5-.74-8.37-2.37-7.55-3.7 1.18-1.92 5.14-.57 9.14 3.65 14.39 15.15 28.15 40 28.15 40 10.67-.8 38.77 8.47 38.77 8.47"
  /><path
    fill="#0058B0"
    d="M238.96 146.61c1.52-1.55-8.25-5.32-10.33-5.95-8.4-2.53-23.62-7.24-32.18-10.66-6.67-2.66-16.09-7.3-16.09-7.3l-18.21 26.54s14 8.13 22.86 17c1.48 1.44 38.8-4.1 53.95-19.63zM100.569 98.202l.429-.768L138.02 118.1l-.43.768zM87.32 90.47C62.25 75.66 44.31 57.32 33.99 35.86l.79-.38c10.24 21.27 28.07 39.51 53 54.23z"
  /><path
    fill="#0058B0"
    d="M86.92 91.08l-1.79-.94c-15.42-8.09-25.61-13.44-43-17.1l.18-.86c17.51 3.69 27.74 9.06 43.25 17.19l1.79.94zm-54.75 8.58l-.56-.68c13.49-11.11 37.88-14.29 55.52-7.23l-.32.82c-17.37-6.95-41.38-3.84-54.64 7.09z"
  /><path
    fill="#00DE91"
    d="M26.73 75.94a23.22 23.22 0 00-10.25-3.28c2.19.31 11.21-3.56 10.94-1.1-.69 2.46-13.68-5.76-17.22-7 2.48 1.31 18.71-1 17.35 1.37-1.23 2.19-6.94-3.94-8.74-5.19 3 .4 9.76-.63 14.51-.53 6.12.12 10.94 6.64 8.78 13.14-2.23 6.72-10.83 5.32-15.37 2.59z"
  /><path
    fill="#FFD840"
    d="M49.19 26.97a12.61 12.61 0 00-3.14-1.51 16.61 16.61 0 002.61-1.14c3.09-1.72 5.21-4.85 4-8.17-1.07-3-3.36-4.94-7.4-5.24a13.31 13.31 0 00-7.73 2c.59-2.75.83-5.67.37-7.29-1.13-4.06-5-5.56-9.52-5.6s-7.7 4.13-7.55 8.51a15.07 15.07 0 00.59 3.42c-4.55-3.63-11.19-6.22-15.14.18-4.79 7.78 1.65 12.72 7.64 14.7-2.36 1.21-4.54 3-5.39 5.3a6.71 6.71 0 002.67 7.63 9.88 9.88 0 008.5.56 7.2 7.2 0 001.67-.89c-.94 3.58-.94 7.82 1.92 9.93 2.56 1.89 5.33 2.54 7.85.6a7.72 7.72 0 002.17-3c1.45-3.17 1.33-8.64.58-12.64a26.27 26.27 0 004.48 3.61c3.23 1.83 8.77 3.06 12 .36 4.87-4.08 1.06-9.61-1.18-11.32zm-22 1.21a3.29 3.29 0 114.46-1.33 3.31 3.31 0 01-4.49 1.33z"
  /><path
    fill="#00DE91"
    d="M32.11 99.81a9.53 9.53 0 00-4.75-2.13c-1-.14-2.43.29-2.28 1.3a1.5 1.5 0 00.56.86 5 5 0 005.66.58 9.14 9.14 0 00-4.3 3.41c-.64 1-1.07 2.28-.4 3.21a2.35 2.35 0 003.27.12 6.75 6.75 0 001.81-3.13c.49-1.38 0-3.62.52-5m7.14-5.02a12.6 12.6 0 01-7.44-2.42 3.5 3.5 0 01-1.59-2.12 2.67 2.67 0 012.47-2.74 5.86 5.86 0 013.83 1.25c1.62 1.08 3.55 4.18 2.56 5.86m1.39 10.63a4 4 0 003.2 3.65 4.53 4.53 0 003.76-2.09c1.88-2.49 3.23-9.79-1.24-10.79-3.72-.83-6.04 6.44-5.72 9.23zm5.07-20.15c-1.15-.79-2.35-1.76-2.55-3.14-.28-2 1.9-3.64 3.89-3.46 2.81.25 7.35 4.68 6.31 7.82-1.31 3.94-5.64.16-7.65-1.22zm10.74 11.42c-.81 1.7-1.59 3.78-.58 5.36a3.58 3.58 0 003.57 1.37 6.93 6.93 0 003.49-1.91c2.54-2.33 4.61-7.3.94-9.75s-6.06 2.05-7.42 4.93zm30.9-6.21c-7.78-5.45-14.71-12.74-17.39-21.86-2.47-8.62-.81-17.86 1.63-26.49 1.05-3.86 2.36-7.86 1.78-11.86 4.76 9.69 9.59 19.64 10.67 30.37 1.13 11.1-.7 19.55 3.23 30-1-1.38-1.91-2.74-2.8-4.11"
  /><circle cx="2.01" cy="43.42" r="2.01" fill="#00DE91" /><circle
    cx="9.34"
    cy="52.27"
    r="3.12"
    fill="#FFD840"
  /><circle cx="54.64" cy="43.48" r="1.34" fill="#00DE91" /><circle
    cx="62.29"
    cy="36.04"
    r="1.78"
    fill="#00DE91"
  /><circle cx="55.02" cy="111.02" r="2.67" fill="#00DE91" /><circle
    cx="141.4"
    cy="120.44"
    r="4.5"
    fill="#fff"
  /><path
    fill="#0058B0"
    d="M87.18 90.32c-9.69-14.9-13.41-28.77-11.07-41.23l.86.16c-2.3 12.23 1.38 25.89 10.94 40.59zM185.01 146.61h53.95v19.59h-53.95z"
  /></svg>
