<svg xmlns="http://www.w3.org/2000/svg" viewBox="0 0 750 161"><defs/><g fill="none" fill-rule="evenodd"><path fill="#E8F7FF" d="M2 0h746a2 2 0 012 2v152H0V2a2 2 0 012-2z"/><path fill="#CCECFF" d="M438.432 88.304v19.822h6.918v-9.31c0-3.06 2.468-5.542 5.512-5.542h78.723c3.044 0 5.512 2.482 5.512 5.542v9.31h.187V79.31a3.644 3.644 0 00-3.642-3.647h-10.344a5.459 5.459 0 00-1.473-1.278 1.715 1.715 0 00-.187-.113 4.78 4.78 0 00-.725-.361h-3.934c-1.13.496-1.93 1.324-2.304 1.752h-7.479a3.638 3.638 0 00-3.635 3.647v2.632c0 1.03-.837 1.873-1.862 1.873h-55.867a5.49 5.49 0 00-5.4 4.489"/><path fill="#CBEBFF" d="M255.734 107.022h37.42V92.674h-37.42z"/><path fill="#707493" stroke="#707493" stroke-width=".55" d="M370.82 126.635c0 .36.29.652.648.652h11.286a.65.65 0 00.648-.652v-6.384a.65.65 0 00-.648-.651h-3.301l-.027-6.562a.498.498 0 00-.497-.497h-13.74a.498.498 0 00-.497.499v18.734a2.827 2.827 0 002.815 2.83l13.078.01c1.553 0 2.816-1.268 2.816-2.84a.498.498 0 00-.496-.498h-13.076a.498.498 0 00-.497.498 1.83 1.83 0 01-1.824 1.832 1.83 1.83 0 01-1.823-1.832v-18.236h12.75l.025 6.062h-6.992a.65.65 0 00-.648.65v6.385zm-.54 5.638h12.064a1.827 1.827 0 01-1.757 1.345l-10.935-.01a2.83 2.83 0 00.629-1.335"/><path fill="#FFCD7B" d="M233.722 117.053c0 .614.106 1.2.304 1.75.995-1.926 3.131-3.26 5.593-3.26 2.615 0 4.849 1.496 5.768 3.62.282-.65.441-1.362.441-2.11 0-3.104-2.713-5.616-6.057-5.616-3.336 0-6.05 2.512-6.05 5.616"/><path fill="#FFCC7B" d="M319.72 142.34l-1.504-12.274s4.027-5.895 10.157-1.436c0 0-.822-3.293-4.277-4.558l-.006-.005a7.642 7.642 0 00-1.78-.42 9.476 9.476 0 00-1.21-.069s-.262.013-.658.095c-.08.016-.15.031-.214.052-.086.021-.16.042-.236.063a4.714 4.714 0 00-.542.196 4.958 4.958 0 00-.919.5c-.011.011-.021.011-.032.022a4.872 4.872 0 00-1.733 2.18c-.327.797-.522 1.79-.498 3.04 0 .077.004.15.008.232l1.203 9.82 2.241 2.563z"/><path fill="#E4F2FE" d="M231.742 86.846l-7.502-.794-.188 1.88-1.029 10.179c.07.062.162.1.273.115l1.571.16c.023.005.044-.012.059-.005l.044-.004a.548.548 0 00.375-.209 2.034 2.034 0 011.73-.687c1.112.118 1.937 1.147 1.815 2.3-.11 1.138-1.123 1.974-2.235 1.863a2.057 2.057 0 01-1.476-.89s-.008.001-.016-.013a.434.434 0 00-.087-.084l-.063-.055c-.03-.02-.068-.033-.099-.045-.037-.013-.067-.018-.105-.03l-1.735-.185a.52.52 0 00-.284.044l-1.145 11.316-.03.304.193.023 11.958 1.262.105-.987a.605.605 0 00-.074-.318c-.008-.007-.009-.014-.01-.022-.032-.042-.057-.078-.088-.106-.016-.021-.025-.043-.041-.057a2.135 2.135 0 01-.689-1.792c.116-1.145 1.123-1.974 2.25-1.856 1.112.12 1.936 1.14 1.813 2.286a2.099 2.099 0 01-.863 1.503c-.028.017-.033.048-.06.072a.544.544 0 00-.437.477l-.105.987h.007l11.898 1.258.141.012.023-.197.21-2.086 2.385-23.662-7.91-.839-.86-.093"/><path fill="#CBEBFF" d="M232.621 68.607c0 .282.137.535.345.697.201.162.46.233.733.17l.1-.022c.367-.098.848-.246 1.337-.796.071-.077.078-.324.114-.422.187-.507.977-2.205 3.276-2.677a.796.796 0 01.316-.007c.165.021.682.261 1.372.62a38.794 38.794 0 013.44 2.043c.288.197.568.387.82.577.69.514-.216-1.521-.467-2.331-.338-1.085-1.07-2.24-2.608-2.775 0 0-3.132-2.317-6.371.887a.992.992 0 00-.122.127c-.403.416-.805.909-1.2 1.507 0 0-1.085 1.247-1.085 2.402m17.609 71.526h38.521v-14.348h-38.52zm113.362-33.111h38.52V92.674h-38.52zm-4.402-8.829c0-2.439-2.71-4.415-6.054-4.415-3.343 0-6.053 1.976-6.053 4.415 0 2.438 2.71 4.414 6.053 4.414s6.053-1.976 6.053-4.414m176.095 27.592h12.107v-14.348h-12.107z"/><path fill="#E4F2FE" d="M453.84 125.785v26.49h26.414v-12.308a.516.516 0 00-.289-.084h-1.594c-.022 0-.044.015-.06.015-.014 0-.029.008-.044.008a.535.535 0 00-.356.251 2.055 2.055 0 01-1.668.877c-1.135 0-2.062-.953-2.062-2.126 0-1.166.927-2.119 2.062-2.119.608 0 1.164.26 1.572.74 0 0 .007 0 .014.007.03.03.06.053.097.076l.074.054c.03.015.067.023.104.03l.104.023h1.765c.104 0 .2-.03.281-.076v-11.858h-12.346v1.006a.58.58 0 00.104.313c.007.007.007.015.015.022a.567.567 0 00.096.1c.015.015.03.037.044.053.55.396.875 1.044.875 1.73 0 1.173-.927 2.118-2.069 2.118-1.134 0-2.061-.945-2.061-2.118 0-.618.26-1.197.72-1.609.021-.022.029-.053.051-.075a.563.563 0 00.393-.534v-1.006H453.84z"/><path fill="#707493" stroke="#707493" stroke-width=".55" d="M452.742 127.197a.558.558 0 00.51.615h.008c.014.007.022.007.045.007.285 0 .532-.22.554-.516.008-.06.165-1.482 1.177-1.482h9.47v.38c-.023.015-.053.023-.068.038a3.299 3.299 0 00-1.11 2.462c0 1.793 1.44 3.252 3.209 3.252 1.776 0 3.216-1.459 3.216-3.252a3.27 3.27 0 00-1.147-2.485v-.395h9.468c.33 0 .57.091.735.274.352.387.315 1.102.315 1.109v9.042h-.99c-.607-.585-1.394-.927-2.226-.927-1.77 0-3.209 1.459-3.209 3.252 0 1.8 1.44 3.26 3.209 3.26.944 0 1.829-.426 2.436-1.148h.765v8.814c0 .311.255.57.562.57a.564.564 0 00.562-.57v-9.376a.576.576 0 00-.27-.494.53.53 0 00-.292-.084h-1.612c-.022 0-.045.015-.06.015s-.03.008-.045.008a.542.542 0 00-.36.251 2.087 2.087 0 01-1.686.874c-1.147 0-2.085-.95-2.085-2.12 0-1.163.938-2.113 2.085-2.113.614 0 1.177.259 1.589.738 0 0 .007 0 .015.007.03.03.06.053.098.076.03.023.052.038.074.053.03.016.068.023.105.03.038.008.068.016.105.023h1.785a.564.564 0 00.57-.57v-9.565c.007-.061.052-.79-.286-1.46a1.88 1.88 0 00-.195-.303 1.383 1.383 0 00-.127-.167c-.27-.289-.75-.639-1.567-.639h-10.03a.57.57 0 00-.563.57v1.239c0 .114.045.22.105.311.008.008.008.016.015.023a.6.6 0 00.098.099c.014.015.03.038.045.053a2.12 2.12 0 01.884 1.725 2.1 2.1 0 01-2.091 2.112c-1.147 0-2.084-.942-2.084-2.112 0-.616.262-1.193.727-1.603.022-.023.03-.053.052-.076a.562.562 0 00.398-.532v-1.239a.572.572 0 00-.57-.57h-10.024c-.75 0-1.274.35-1.634.806a1.731 1.731 0 00-.142.205 3.574 3.574 0 00-.518 1.505"/><path fill="#CBEBFF" d="M519.876 127.993c0-2.439-2.71-4.415-6.054-4.415-3.343 0-6.053 1.976-6.053 4.415 0 2.438 2.71 4.414 6.053 4.414s6.054-1.976 6.054-4.414"/><path fill="#CCECFF" d="M506.669 146.224c0 3.95 2.956 7.154 6.603 7.154s6.604-3.203 6.604-7.154c0-2.822-2.634-8.413-4.747-11.052-.836.516-1.016-.553-2.044-.553-1.071 0-2.044-.13-2.447 1.065-2.296 2.623-3.97 7.694-3.97 10.54m-161.786-30.483c0 3.718 2.957 6.733 6.603 6.733 3.647 0 6.604-3.015 6.604-6.733 0-2.656-2.633-7.918-4.747-10.402-.836.486-1.016-.52-2.044-.52-1.07 0-2.043-.123-2.447 1.002-2.296 2.469-3.97 7.242-3.97 9.92m39.622-58.457c0 3.696 2.957 6.694 6.603 6.694 3.647 0 6.604-2.998 6.604-6.694 0-2.64-1.951-7.06-4.064-9.529-.837.484-1.219.478-2.246.478a5.68 5.68 0 01-2.928-.81c-2.296 2.454-3.969 7.199-3.969 9.861m33.017 5.519c0 3.696 2.958 6.693 6.604 6.693a6.512 6.512 0 003.692-1.143 6.712 6.712 0 002.912-5.55c0-2.64-1.951-7.06-4.064-9.53-.837.484-1.22.478-2.246.478a5.68 5.68 0 01-2.928-.81c-2.296 2.454-3.97 7.2-3.97 9.862"/><path fill="#CBEBFF" d="M448.337 121.572s-.633-4.986-6.57-5.711c0 0-5.044-.469-5.536 5.454v9.48l1.9 2.716v-11.845s4.692-5.103 10.206-.094"/><path fill="#CCECFF" d="M396.506 45.215s1.177-8.045-4.405-8.778c-5.582-.734-6.497 6.601-6.497 6.601s5.232-6.528 10.902 2.177m34.222-.552c0-3.353-2.71-6.07-6.053-6.07-3.344 0-6.054 2.717-6.054 6.07 0 3.352 2.71 6.07 6.054 6.07 3.343 0 6.053-2.718 6.053-6.07"/><path fill="#CCECFF" d="M434.03 39.696a3.307 3.307 0 00-3.302-3.31 3.306 3.306 0 00-3.302 3.31 3.306 3.306 0 003.302 3.311 3.307 3.307 0 003.302-3.31"/><path fill="#FFCC7B" d="M506.669 86.052l6.842-9.523s6.54-1.272 7.88 6.068c0 0 1.548-2.846-.008-6.121v-.008a7.93 7.93 0 00-.95-1.528 9.642 9.642 0 00-.785-.888s-.188-.173-.512-.391a1.597 1.597 0 00-.18-.113c-.072-.046-.137-.083-.201-.12a4.498 4.498 0 00-.497-.242 4.608 4.608 0 00-.951-.294c-.015 0-.022-.007-.036-.007a4.336 4.336 0 00-2.586.301c-.734.324-1.505.874-2.29 1.754-.05.053-.094.106-.144.166l-5.474 7.618-.108 3.328z"/><path fill="#FFF" d="M318.467 130.644l.671 4.732h.008l.008.006c.148.036 1.255.337 2.636.337.413 0 .85-.028 1.302-.099 1.506-.238 3.12-.944 4.197-2.694.428-.707.78-1.589.99-2.667.008-.006.008-.014 0-.02.039-.161.07-.33.094-.504 0 0-.07-.064-.203-.154-.484-.364-1.786-1.225-3.471-1.498-1.825-.308-4.095.084-6.232 2.561m192.604-49.395s0 .007.008.007a8.487 8.487 0 001.63 1.953c1.302 1.16 3.354 2.256 6.115 1.477.99-.28 2.083-.807 3.253-1.657 0 0-.304-6.695-7.816-5.707l-3.19 3.927z"/><path fill="#FFF" d="M507.77 93.778h13.206s-2.478-8.14-3.317-8.285c-2.75.87-4.793-.353-6.09-1.649 0 0-3.83 6.314-3.8 9.934"/><path stroke="#707493" stroke-linecap="round" stroke-linejoin="round" stroke-width="1.65" d="M250.23 103.711l1.101-12.14m75.827 45.251c.386.494.749 1.03 1.09 1.574 1.12 1.832 1.946 3.843 2.217 5.288 0 .014.007.036.007.05.634 3.506-1.761 6.798-5.339 7.356-3.585.558-7.008-1.839-7.641-5.345-.178-.966-.163-2.254.023-3.628m.952-11.473l.671 4.732h.008l.008.006c.148.036 1.255.337 2.636.337.413 0 .85-.028 1.302-.099 1.506-.238 3.12-.944 4.197-2.694.428-.707.78-1.589.99-2.667.008-.006.008-.014 0-.02.039-.161.07-.33.094-.504 0 0-.07-.064-.203-.154-.484-.364-1.786-1.225-3.471-1.498-1.825-.308-4.095.084-6.232 2.561z"/><path stroke="#707493" stroke-linecap="round" stroke-linejoin="round" stroke-width="1.65" d="M318.467 132.407l.306 2.77.483 4.348.312 2.816"/><path stroke="#707493" stroke-linecap="round" stroke-linejoin="round" stroke-width="1.65" d="M317.561 139.03l-1.249-9.261s-.025-.129-.033-.355c-.034-.544-.033-1.656.444-2.757a4.367 4.367 0 011.935-2.162c.01-.01.022-.01.033-.02.155-.09.331-.17.502-.244 0 0 .144-.08.408-.19.16-.064.353-.138.59-.212.077-.019.153-.039.242-.058a1.74 1.74 0 01.22-.048 6.004 6.004 0 012.005-.106c.541.064 1.13.206 1.74.47l.005.006c.217.095.445.201.668.333m-2.201 6.878l.383 2.207m-12.49-28.696h7.704m2.202-6.622c-1.879.351-3.302 2.072-3.302 4.145 0 .928.284 1.78.776 2.477m22.337-12.141c-.512-1.26-2.641-2.207-5.19-2.207-2.053 0-3.838.608-4.716 1.506m3.302 3.576c-.568-1.5-2.317-2.899-2.317-2.899a6.128 6.128 0 00-3.475-1.08c-3.49 0-6.315 2.933-6.315 6.555v.068m94.651 15.451h7.704m2.201-6.622c-1.878.352-3.301 2.073-3.301 4.146 0 .928.284 1.78.775 2.476m14.633-9.266c-.568-1.5-2.317-2.898-2.317-2.898a6.127 6.127 0 00-3.475-1.08c-3.49 0-6.315 2.932-6.315 6.555v.067m-97.952 43.045V160m-5.503-9.933V160M565 153.378h-39.621m-24.213 0h-166.19m-17.609 0H193m119.457-2.372c.952-.671 1.608-3.147 1.608-3.147H206.207s.703 2.461 2.171 3.311"/><path stroke="#707493" stroke-linecap="round" stroke-linejoin="round" stroke-width="1.65" d="M212.81 147.86V85.9s.327-3.274 3.054-4.264h87.118s2.656.566 3.379 3.298v1.202m-.001 5.434v30.904m0 5.519v16.555m-3.3-39.733v36.422m-9.906-19.867H268.94m24.214-5.518h-36.32m37.42-5.519h-37.42m42.923-24.281h-74.84"/><path stroke="#707493" stroke-linecap="round" stroke-linejoin="round" stroke-width="1.65" d="M218.314 137.926V90.923s-.061-2.488 1.1-2.664m19.811-18.763v2.208m2.201 6.622v9.933m-6.604-9.933v9.933m-2.201-6.622c.689-4.491 3.084-8.131 3.084-8.131 4.268 2.532 6.728.188 7.968-1.922.746-1.266 1.055-2.442 1.055-2.442a12.968 12.968 0 00-.617-.648c-1.291-1.296-2.439-1.944-3.436-2.185-3.098-.776-4.733 2.359-4.733 2.359m6.585-4.432s-5.486-4.998-9.906 4.157m8.805 5.518s2.151 5.274 2.201 7.726m7.704 48.399s-5.666 1.022-11.006-2.043m-14.847-27.307l-1.445-.15-.764 10.725 11.403 1.183.215-1.932m-11.114-22.245l-.706 8.023 1.534.166m13.435 14.678l-.19 1.857 10.883 1.122.537-7.535"/><path stroke="#707493" stroke-linecap="round" stroke-linejoin="round" stroke-width="1.65" d="M234.64 110.678c-1.117-1.117-1.165-2.882-.107-3.94 1.058-1.059 2.824-1.01 3.94.106 1.118 1.118 1.166 2.883.108 3.941M224.833 96.67c1.172-.984 2.93-.822 3.923.362.994 1.184.848 2.943-.324 3.927-1.171.983-2.929.82-3.922-.363m10.312 25.189s-4.805-3.207-5.502-9.933m14.307 22.074v9.933m-6.603-9.933v9.933m9.905.065l2.564 2.143H269.6l2.643-2.208m-36.409-35.253a5.491 5.491 0 013.39-1.169c3.039 0 5.504 2.472 5.504 5.519a5.523 5.523 0 01-2.776 4.795 5.514 5.514 0 01-5.545-.05 5.517 5.517 0 01-2.685-4.745m8.805-1.104v3.311m268.455 5.584a5.49 5.49 0 013.39-1.17c3.038 0 5.504 2.473 5.504 5.52a5.523 5.523 0 01-2.776 4.795 5.515 5.515 0 01-5.545-.05 5.517 5.517 0 01-2.685-4.746"/><path stroke="#707493" stroke-linecap="round" stroke-linejoin="round" stroke-width="1.65" d="M232.621 132.336c0 3.696 2.957 6.694 6.604 6.694 3.647 0 6.603-2.998 6.603-6.694 0-2.64-1.365-7.34-3.477-9.81a5.68 5.68 0 01-5.76-.052c-2.297 2.454-3.97 7.2-3.97 9.862zm285.054 16.627v9.933m-6.604-8.829V160m-3.301-15.523c0 3.696 2.956 6.693 6.603 6.693s6.603-2.997 6.603-6.693c0-2.64-1.95-7.06-4.064-9.53-.836.484-1.219.478-2.246.478a5.68 5.68 0 01-2.927-.81c-2.297 2.454-3.97 7.2-3.97 9.862zm-158.575-49.53a5.49 5.49 0 013.39-1.17c3.039 0 5.504 2.473 5.504 5.52a5.523 5.523 0 01-2.776 4.795 5.516 5.516 0 01-5.546-.05 5.516 5.516 0 01-2.684-4.746"/><path stroke="#707493" stroke-linecap="round" stroke-linejoin="round" stroke-width="1.65" d="M345.982 113.573c0 3.696 2.957 6.694 6.604 6.694a6.52 6.52 0 004.107-1.453 6.715 6.715 0 002.496-5.24c0-2.641-1.95-7.06-4.064-9.53-.837.484-1.219.478-2.246.478a5.68 5.68 0 01-2.927-.81c-2.297 2.454-3.97 7.199-3.97 9.861zm38.521-56.289c0 3.696 2.957 6.694 6.603 6.694 3.647 0 6.604-2.998 6.604-6.694 0-2.64-1.951-7.06-4.064-9.529-.837.484-1.219.478-2.246.478a5.68 5.68 0 01-2.928-.81c-2.296 2.454-3.969 7.199-3.969 9.861zm33.017 5.519c0 3.696 2.958 6.693 6.604 6.693a6.512 6.512 0 003.692-1.143 6.712 6.712 0 002.912-5.55c0-2.64-1.951-7.06-4.064-9.53-.837.484-1.22.478-2.246.478a5.68 5.68 0 01-2.928-.81c-2.296 2.454-3.97 7.2-3.97 9.862zm117.764 87.264V99.328a5.547 5.547 0 00-5.543-5.55h-79.163a5.547 5.547 0 00-5.542 5.55v9.322"/><path stroke="#707493" stroke-linecap="round" stroke-linejoin="round" stroke-width="1.65" d="M535.284 89.74v-9.951c0-2.029-1.627-3.67-3.638-3.67h-26.415c-2.011 0-3.638 1.641-3.638 3.67v2.648c0 1.037-.833 1.884-1.86 1.884h-55.81c-2.686 0-4.921 1.945-5.393 4.518a4.972 4.972 0 00-.098 1.014v24.895m80.637-7.726l.807-.788-5.972-5.834-6.367 6.22-.868-.855m17.383 12.295l3.528-3.766-5.793-6.168-.81.856m-16.32-.856l.911.832-6.604 6.038 4.563 4.167"/><path stroke="#707493" stroke-linecap="round" stroke-linejoin="round" stroke-width="1.65" d="M504.467 108.126a2.205 2.205 0 01-2.2-2.207c0-1.219.985-2.208 2.2-2.208 1.215 0 2.202.99 2.202 2.208m14.307 3.311a2.205 2.205 0 01-2.2 2.207 2.205 2.205 0 01-2.202-2.208c0-1.218.986-2.207 2.201-2.207m-69.337 14.498s-4.573-5.15-9.905-.225v4.88s7.578 3.404 9.905-4.656zm-9.905 11.991v-9.933"/><path stroke="#707493" stroke-linecap="round" stroke-linejoin="round" stroke-width="1.65" d="M436.231 131.304v-9.712s-.09-4.279 3.372-5.363c0 0 2.784-1.297 5.433.92m66.035-35.9s0 .007.008.007a8.487 8.487 0 001.63 1.953c1.302 1.16 3.354 2.256 6.115 1.477.99-.28 2.083-.807 3.253-1.657 0 0-.304-6.695-7.816-5.707l-3.19 3.927zm-4.402 5.907l6.603-7.726"/><path stroke="#707493" stroke-linecap="round" stroke-linejoin="round" stroke-width="1.65" d="M506.669 83.844l5.681-8.375s.074-.121.228-.309c.36-.464 1.145-1.359 2.246-1.896.8-.399 1.762-.61 2.84-.325.016 0 .023.008.037.008.17.04.345.105.514.17 0 0 .155.041.412.147.154.065.337.146.55.26a11.973 11.973 0 01.389.253c.463.3.977.748 1.439 1.383.323.448.624.993.851 1.652v.008a6.7 6.7 0 01.22.758m-81.443 54.829h11.006m-14.381-2.207s-3.617.818-5.296 7.29a4.156 4.156 0 001.26 4.158c2.518 2.279 6.487 2.427 9.082.23 1.375-1.164 2.56-3.081 2.732-6.24m-11.006 6.702l-6.604 8.83m13.207-8.83s4.73 3.752.324 8.83m66.813-57.392h13.206s-2.478-8.14-3.317-8.285c-2.75.87-4.793-.353-6.09-1.649 0 0-3.83 6.314-3.8 9.934zm-53.93 43.044v12.141m63.835-59.6V100.4m-6.604-11.037V100.4m6.604-18.763l-1.101 2.207m1.206 1.116a.13.13 0 00-.105 0m-8.805 52.966s-5.558-6.87-2.252-17.66m13.258 17.66s7.17-7.749 3.21-18.763M393.308 51.837s1.174 8.542 4.402 12.14M386.704 49.63s-8.504-3.753-9.905-6.623m3.301 5.519s-3.181-1.477-4.402-3.311M379 49.63s-1.34-.473-2.201-1.104m10.471 14.348s-4.084 2.03.535 7.726m4.402-6.622s-4.605.986-.493 6.622m-3.759-33.021c4.014-2.366 6.316-.77 7.533.951 1.139 1.611 1.447 3.731.756 5.585a5.08 5.08 0 01-1.712 2.324c-1.653 1.25-3.896 1.268-5.714.281-2.415-1.312-3.065-2.76-3.197-3.71a1.82 1.82 0 01.569-1.584c1.218-1.136 4.449-3.36 8.077.597m35.36 6.029c-.513 5.028-3.164 6.025-5.267 5.992-1.966-.032-3.842-1.117-4.908-2.907a5.792 5.792 0 01-.83-2.985c-.01-2.246 1.15-4.474 3.026-5.435 2.492-1.278 4.107-.82 5.04-.181 1.474 1.008 2.327 5.483-2.173 7.775m-34.509-7.304v2.208m30.816 29.393v-6.215m-14.307 80.57V88.259m0-5.519v-2.207"/><path stroke="#707493" stroke-linecap="round" stroke-linejoin="round" stroke-width="1.65" d="M406.515 75.976V63.978h-66.036v61.807m.001 4.415v3.311m0 5.519v6.622m61.632-68.43h-39.62m39.62 5.518H379m23.112 5.52h-39.62m39.62 52.977h-36.32m35.22-27.593h-13.207m13.207 19.867h-12.107m13.207-13.244h-8.804m8.804 6.622h-8.804m-35.219-67.326v34.215m0 27.592v27.593m-11.006-89.4V91.57m0 32.008v26.489m11.006-61.807h-11.006m11.006 35.318h-6.604m6.604 8.829h-12.107m14.308 6.623h-11.006m6.604 6.622h-9.906m12.107-64.015h-11.006m11.006-8.83h-11.006m9.905-6.622h-11.006m9.906 57.393v-4.415m-6.604 1.104v11.037m57.231-67.326s16.676 21.353 36.32 19.784"/><path fill="#FFCC7B" d="M314.065 42.456c0 2.463-.903 4.7-2.38 6.365-1.614 1.854-3.94 3.01-6.529 3.016.335-1.313.509-2.69.509-4.116 0-5.178-2.308-9.79-5.908-12.755a8.615 8.615 0 015.381-1.892 8.56 8.56 0 012.416.352c3.749 1.1 6.511 4.725 6.511 9.03"/><path stroke="#707493" stroke-linecap="round" stroke-linejoin="round" stroke-width="1.65" d="M305.26 47.974c0-7.432-4.878-13.681-11.49-15.482a14.893 14.893 0 00-3.918-.522c-8.51 0-15.408 7.165-15.408 16.004 0 2.09.386 4.088 1.088 5.919a16.085 16.085 0 003.575 5.551c2.775 2.806 6.566 4.534 10.745 4.534 1.145 0 2.26-.13 3.334-.376 6.907-1.582 12.074-7.978 12.074-15.628z"/><path stroke="#707493" stroke-linecap="round" stroke-linejoin="round" stroke-width="1.65" d="M279.584 45.343a.429.429 0 00-.611 0 .443.443 0 000 .62.428.428 0 00.611 0 .442.442 0 000-.62zm0 3.311a.428.428 0 00-.611 0 .443.443 0 000 .62.428.428 0 00.611 0 .442.442 0 000-.62zm10.268-6.75h-11.006m17.61 0h-3.302m11.006 0h-4.403m2.202 9.933h-26.415m28.616 4.415h-26.414m5.926-29.8h13.461c.233 0 .423-.215.423-.478v-3.46c0-.262-.19-.477-.423-.477h-13.461c-.233 0-.423.215-.423.478v3.46c0 .262.19.477.423.477zm7.465 47.459h5.937c.265 0 .482-.236.482-.525v-4.469c0-.288-.217-.524-.482-.524H283.73c-.265 0-.481.236-.481.524v4.47c0 .288.216.524.481.524h1.278m2.642-48.563v6.622m2.936-20.533v9.39m2.568 4.521v6.622m0 35.319v-3.311m-5.504 5.518v-5.518m-.366 14.729V73.91m6.604 5.52v-5.52m-6.238 4.416h6.604m7.342-32.983a.428.428 0 00-.611 0 .442.442 0 000 .62.428.428 0 00.611 0 .442.442 0 000-.62zm-3.302 0a.428.428 0 00-.611 0 .442.442 0 000 .62.428.428 0 00.611 0 .442.442 0 000-.62zm-4.402 0a.428.428 0 00-.611 0 .442.442 0 000 .62.428.428 0 00.61 0 .442.442 0 000-.62zm-5.503 0a.428.428 0 00-.611 0 .442.442 0 000 .62.428.428 0 00.611 0 .442.442 0 000-.62zm-4.402 0a.428.428 0 00-.612 0 .442.442 0 000 .62.428.428 0 00.612 0 .442.442 0 000-.62zm17.609 3.311a.428.428 0 00-.611 0 .442.442 0 000 .62.428.428 0 00.611 0 .442.442 0 000-.62zm-3.302 0a.428.428 0 00-.611 0 .442.442 0 000 .62.428.428 0 00.611 0 .442.442 0 000-.62zm-4.402 0a.428.428 0 00-.611 0 .442.442 0 000 .62.428.428 0 00.61 0 .442.442 0 000-.62zm-5.503 0a.428.428 0 00-.611 0 .442.442 0 000 .62.428.428 0 00.611 0 .442.442 0 000-.62zm-4.402 0a.428.428 0 00-.612 0 .442.442 0 000 .62.428.428 0 00.612 0 .442.442 0 000-.62zm211.676 59.472v2.207m-1.101-1.103h2.201M239.225 93.778v2.207m-1.101-2.207h2.201m261.941 5.518v1.104m0-1.104h1.1m22.013 3.311v2.208m0-1.104h2.2m9.906-2.207h14.386c2.388 0 4.324 2.005 4.324 4.48v31.942"/><path stroke="#707493" stroke-linecap="round" stroke-linejoin="round" stroke-width="1.65" d="M535.284 105.919h17.11a.5.5 0 01.5.502v38.127h-17.43m21.832-3.311v7.726m-13.207-.552c0-.914-.74-1.655-1.651-1.655-.912 0-1.651.74-1.651 1.655 0 .914.74 1.656 1.65 1.656.913 0 1.652-.742 1.652-1.656zm3.301-18.211h-7.704m6.604 4.415h-3.302m4.402 4.415h-7.704M237.024 100.4v1.104m-1.101-1.104h1.1M340.48 63.978s-17.063 20.3-36.32 18.67m123.266-13.152v11.037m-7.704-12.711v8.297"/></g></svg>