<svg width="446" height="305" fill="none" xmlns="http://www.w3.org/2000/svg"><path
    d="M0 0h443a3 3 0 013 3v299a3 3 0 01-3 3H0V0z"
    fill="#F1FAFD"
  /><path
    opacity=".1"
    d="M299.928 79.195a4.325 4.325 0 00-1.503-2.51 4.361 4.361 0 00-2.762-.986H68.355a4.36 4.36 0 00-2.762.987 4.324 4.324 0 00-1.503 2.509h-.037v.24a4.336 4.336 0 00-.045.592v9.62h.046V209.79c0 1.667.665 3.266 1.85 4.445a6.328 6.328 0 004.464 1.841H293.75a6.327 6.327 0 004.465-1.841 6.274 6.274 0 001.85-4.445V79.195h-.136z"
    fill="#2E89C4"
  /><path
    d="M286.003 206.919H62.622a6.327 6.327 0 01-4.465-1.841 6.272 6.272 0 01-1.849-4.445V70.037h236.009v130.596a6.269 6.269 0 01-1.849 4.445 6.314 6.314 0 01-4.465 1.841z"
    fill="#F6FCFE"
  /><path
    d="M284.011 206.919h-152.11V70.037h160.418v128.614a8.241 8.241 0 01-2.433 5.847 8.313 8.313 0 01-5.875 2.421z"
    fill="#E8F8FD"
  /><path
    d="M287.916 66.543H60.608a4.358 4.358 0 00-3.073 1.267 4.318 4.318 0 00-1.274 3.06v9.62h236.003v-9.62a4.314 4.314 0 00-1.273-3.06 4.35 4.35 0 00-3.075-1.267z"
    fill="#4E97EE"
  /><path
    d="M63.744 75.585c1.104 0 2-.891 2-1.99 0-1.1-.896-1.99-2-1.99s-2 .89-2 1.99c0 1.099.896 1.99 2 1.99z"
    fill="#EB5A68"
  /><path
    d="M70.966 75.585c1.104 0 2-.891 2-1.99 0-1.1-.896-1.99-2-1.99s-2 .89-2 1.99c0 1.099.896 1.99 2 1.99z"
    fill="#FFD840"
  /><path
    d="M78.188 75.585c1.104 0 2-.891 2-1.99 0-1.1-.896-1.99-2-1.99s-2 .89-2 1.99c0 1.099.896 1.99 2 1.99z"
    fill="#00DE91"
  /><path
    d="M278.666 197.359h-3.506a.325.325 0 01-.328-.327.325.325 0 01.328-.326h3.506a.327.327 0 110 .653zm-8.813 0h-3.506a.327.327 0 110-.653h3.506a.325.325 0 01.328.326.325.325 0 01-.328.327zm-8.812 0h-3.506a.325.325 0 01-.328-.327.325.325 0 01.328-.326h3.506a.327.327 0 110 .653zm-8.813 0h-3.506a.327.327 0 110-.653h3.506a.327.327 0 110 .653zm-8.813 0h-3.506a.327.327 0 110-.653h3.506a.325.325 0 01.328.326.325.325 0 01-.328.327zm-8.813 0h-3.504a.327.327 0 110-.653h3.506a.327.327 0 110 .653h-.002zm-8.812 0h-3.506a.327.327 0 110-.653h3.506a.327.327 0 110 .653zm-8.813 0h-3.506a.323.323 0 01-.231-.096.324.324 0 010-.461.323.323 0 01.231-.096h3.506a.327.327 0 110 .653zm-8.813 0h-3.505a.325.325 0 01-.328-.327.325.325 0 01.328-.326h3.505a.325.325 0 01.328.326.325.325 0 01-.328.327zm-8.812 0h-3.508a.323.323 0 01-.231-.096.324.324 0 010-.461.323.323 0 01.231-.096h3.509a.327.327 0 110 .653h-.001zm-8.813 0h-3.505a.325.325 0 01-.328-.327.325.325 0 01.328-.326h3.505a.327.327 0 110 .653zm-8.813 0h-3.505a.325.325 0 01-.328-.327.325.325 0 01.328-.326h3.505a.327.327 0 110 .653zm-8.812 0h-3.506a.327.327 0 110-.653h3.506a.327.327 0 110 .653zm-8.813 0h-3.505a.325.325 0 01-.328-.327.325.325 0 01.328-.326h3.505a.325.325 0 01.328.326.325.325 0 01-.328.327zm-8.812 0h-3.506a.327.327 0 110-.653h3.506c.087 0 .17.034.231.096a.323.323 0 010 .461.323.323 0 01-.231.096zm-8.813 0h-.589a3.935 3.935 0 01-2.849-1.202.325.325 0 01.241-.554c.087.001.17.037.23.099a3.29 3.29 0 002.378 1.004h.589a.327.327 0 110 .653zm134.741-1.041a.322.322 0 01-.303-.203.322.322 0 01.073-.356 3.28 3.28 0 00.986-2.345v-.62a.326.326 0 01.328-.326.33.33 0 01.232.095.33.33 0 01.096.231v.62a3.912 3.912 0 01-1.181 2.81.331.331 0 01-.231.094zm-138.965-5.077a.341.341 0 01-.126-.025.304.304 0 01-.106-.071.304.304 0 01-.071-.106.314.314 0 01-.025-.125v-3.49a.326.326 0 01.328-.326.33.33 0 01.232.095.33.33 0 01.096.231v3.49a.336.336 0 01-.096.231.332.332 0 01-.232.096zm140.049-3.403a.33.33 0 01-.328-.327v-3.489a.325.325 0 01.328-.326.329.329 0 01.328.326v3.489a.332.332 0 01-.096.231.335.335 0 01-.232.095v.001zm-140.049-5.37a.341.341 0 01-.126-.025.304.304 0 01-.106-.071.304.304 0 01-.071-.106.314.314 0 01-.025-.125v-3.489a.325.325 0 01.328-.327.327.327 0 01.328.327v3.489a.332.332 0 01-.096.231.336.336 0 01-.232.096zm140.049-3.403a.33.33 0 01-.328-.327v-3.487a.33.33 0 01.56-.231.327.327 0 01.096.231v3.489a.326.326 0 01-.328.325zm-140.049-5.371a.322.322 0 01-.232-.096.304.304 0 01-.071-.106.314.314 0 01-.025-.125v-3.489a.33.33 0 01.56-.231.327.327 0 01.096.231v3.489a.332.332 0 01-.096.231.336.336 0 01-.232.096zm140.049-3.403a.325.325 0 01-.328-.327v-3.489a.33.33 0 01.56-.231.327.327 0 01.096.231v3.489a.322.322 0 01-.096.232.322.322 0 01-.232.096v-.001zm-140.049-5.368a.335.335 0 01-.303-.202.317.317 0 01-.025-.125v-3.49a.325.325 0 01.328-.326.327.327 0 01.328.326v3.49a.327.327 0 01-.328.327zm140.049-3.403a.33.33 0 01-.328-.327v-3.489a.33.33 0 01.56-.231.327.327 0 01.096.231v3.49a.33.33 0 01-.096.23.336.336 0 01-.232.096zm-140.049-5.37a.322.322 0 01-.232-.096.322.322 0 01-.096-.231v-3.489a.33.33 0 01.56-.231.327.327 0 01.096.231v3.489a.332.332 0 01-.096.231.318.318 0 01-.107.071.317.317 0 01-.125.025zm140.049-3.403a.325.325 0 01-.328-.326v-3.49a.33.33 0 01.56-.231.327.327 0 01.096.231v3.49a.34.34 0 01-.025.125.33.33 0 01-.303.201zm-140.049-5.37a.34.34 0 01-.126-.024.335.335 0 01-.177-.177.317.317 0 01-.025-.125v-3.49a.326.326 0 01.328-.326.33.33 0 01.232.095.33.33 0 01.096.231v3.49a.336.336 0 01-.096.231.335.335 0 01-.232.095zm140.049-3.402a.33.33 0 01-.328-.327v-3.491a.325.325 0 01.328-.326.329.329 0 01.328.326v3.493a.327.327 0 01-.328.325zm-140.049-5.37a.341.341 0 01-.126-.025.304.304 0 01-.106-.071.304.304 0 01-.071-.106.314.314 0 01-.025-.125v-3.489a.33.33 0 01.56-.231.327.327 0 01.096.231v3.489a.332.332 0 01-.096.231.336.336 0 01-.232.096zm140.049-3.403a.325.325 0 01-.328-.327v-3.489a.33.33 0 01.56-.231.327.327 0 01.096.231v3.489a.332.332 0 01-.096.231.318.318 0 01-.107.071.317.317 0 01-.125.025zm-140.049-5.37a.34.34 0 01-.126-.024.335.335 0 01-.177-.177.317.317 0 01-.025-.125v-3.49a.325.325 0 01.328-.326.329.329 0 01.328.326v3.49a.336.336 0 01-.096.231.33.33 0 01-.232.095zm140.049-3.403a.328.328 0 01-.328-.326v-3.49a.326.326 0 01.328-.326.33.33 0 01.232.095.33.33 0 01.096.231v3.49a.336.336 0 01-.096.231.335.335 0 01-.232.095zm-140.049-5.369a.341.341 0 01-.126-.025.304.304 0 01-.106-.071.304.304 0 01-.071-.106.314.314 0 01-.025-.125v-3.489a.325.325 0 01.328-.327.327.327 0 01.328.327v3.489a.332.332 0 01-.096.231.336.336 0 01-.232.096zm140.049-3.403a.33.33 0 01-.328-.327v-3.489a.33.33 0 01.56-.231.327.327 0 01.096.231v3.489a.332.332 0 01-.096.231.336.336 0 01-.232.096zm-140.049-5.37a.322.322 0 01-.232-.095.324.324 0 01-.096-.231v-3.489a.33.33 0 01.56-.231.327.327 0 01.096.231v3.489a.326.326 0 01-.328.326zm140.049-3.403a.328.328 0 01-.328-.326v-3.49a.328.328 0 01.656 0v3.488a.322.322 0 01-.096.232.322.322 0 01-.232.096zm-140.049-5.369a.335.335 0 01-.303-.202.317.317 0 01-.025-.125v-3.49a.328.328 0 01.656 0v3.49a.336.336 0 01-.096.231.336.336 0 01-.232.096zm140.049-3.403a.33.33 0 01-.328-.327v-3.49a.328.328 0 01.656 0v3.49a.335.335 0 01-.096.231.336.336 0 01-.232.096zm-140.049-5.37a.333.333 0 01-.232-.096.31.31 0 01-.071-.106.316.316 0 01-.025-.125v-1.851a3.894 3.894 0 01.397-1.725.33.33 0 01.607.035.324.324 0 01-.015.25c-.219.448-.333.94-.331 1.44v1.85a.32.32 0 01-.097.233.32.32 0 01-.233.095zm139.722-3.356a.332.332 0 01-.299-.19 3.285 3.285 0 00-.979-1.233 3.316 3.316 0 00-1.442-.641.323.323 0 01-.272-.25.33.33 0 01.257-.393.332.332 0 01.131 0 3.969 3.969 0 012.902 2.245.322.322 0 01-.139.422.328.328 0 01-.157.041h-.002zm-7.965-2.116h-3.506a.333.333 0 01-.232-.096.326.326 0 01.232-.557h3.506a.33.33 0 01.328.326.328.328 0 01-.328.327zm-8.813 0h-3.506a.33.33 0 01-.328-.326.328.328 0 01.328-.327h3.506a.333.333 0 01.232.096.316.316 0 01.071.356.32.32 0 01-.303.201zm-8.812 0h-3.506a.333.333 0 01-.232-.096.316.316 0 01-.071-.356.32.32 0 01.303-.201h3.506a.328.328 0 01.232.557.334.334 0 01-.232.096zm-8.813 0h-3.506a.333.333 0 01-.232-.096.326.326 0 01.232-.557h3.506a.33.33 0 01.328.326.328.328 0 01-.328.327zm-8.813 0h-3.506a.33.33 0 01-.328-.326.328.328 0 01.328-.327h3.506a.33.33 0 01.328.326.328.328 0 01-.328.327zm-8.813 0h-3.505a.333.333 0 01-.232-.096.316.316 0 01-.071-.356.32.32 0 01.303-.201h3.505a.328.328 0 01.328.326.328.328 0 01-.328.326zm-8.812 0h-3.506a.33.33 0 01-.328-.326.328.328 0 01.328-.327h3.506a.328.328 0 01.232.557.334.334 0 01-.232.096zm-8.813 0h-3.506a.326.326 0 01-.231-.096.325.325 0 01.231-.557h3.506a.33.33 0 01.328.326.328.328 0 01-.328.327zm-8.813 0h-3.505a.328.328 0 01-.328-.326.328.328 0 01.328-.326h3.505a.328.328 0 01.328.326.328.328 0 01-.328.326zm-8.812 0h-3.506a.324.324 0 01-.232-.096.335.335 0 01-.071-.356.334.334 0 01.303-.201h3.506a.328.328 0 01.232.557.334.334 0 01-.232.096zm-8.813 0h-3.505a.328.328 0 01-.328-.326.328.328 0 01.328-.326h3.505a.333.333 0 01.232.095.326.326 0 01-.232.557zm-8.813 0h-3.505a.333.333 0 01-.232-.096.326.326 0 01.232-.557h3.505a.33.33 0 01.303.201.316.316 0 010 .25.32.32 0 01-.303.201zm-8.812 0h-3.506a.328.328 0 01-.232-.557.334.334 0 01.232-.096h3.506a.324.324 0 01.232.096.335.335 0 01.071.356.334.334 0 01-.303.201zm-8.813 0h-3.503a.328.328 0 01-.328-.326.328.328 0 01.328-.326h3.505a.333.333 0 01.232.095.316.316 0 01.071.356.32.32 0 01-.303.201h-.002zm-8.812 0h-3.506a.333.333 0 01-.232-.096.326.326 0 01.232-.557h3.506a.328.328 0 01.303.451.328.328 0 01-.303.202zM119.051 115.197h-3.268a.306.306 0 01-.294-.305.304.304 0 01.294-.304h3.27a3.276 3.276 0 001.507-.361.309.309 0 01.411.133.306.306 0 01-.132.41 3.896 3.896 0 01-1.788.427zm-8.218 0h-3.269a.314.314 0 01-.224-.085.31.31 0 01-.094-.22.306.306 0 01.318-.304h3.269a.289.289 0 01.12.02.302.302 0 010 .569.306.306 0 01-.12.02zm-8.219 0h-3.269a.31.31 0 01-.293-.185.308.308 0 010-.239.306.306 0 01.293-.185h3.269a.306.306 0 01.295.304.306.306 0 01-.295.305zm-8.218 0h-3.27a.306.306 0 01-.294-.305.305.305 0 01.294-.304h3.268a.306.306 0 01.21.516.306.306 0 01-.21.093h.002zm-8.219 0h-3.269a.31.31 0 01-.293-.185.308.308 0 010-.239.307.307 0 01.293-.185h3.27a.302.302 0 01.317.304.308.308 0 01-.094.22.318.318 0 01-.224.085zm-8.218 0h-3.27a.31.31 0 01-.292-.185.308.308 0 010-.239.307.307 0 01.293-.185h3.269a.306.306 0 01.295.304.306.306 0 01-.295.305zm-8.215-.049a.288.288 0 01-.051-.005 3.95 3.95 0 01-2.793-1.975.304.304 0 01.12-.414.304.304 0 01.416.12 3.334 3.334 0 002.357 1.667.308.308 0 01.257.326.304.304 0 01-.306.279v.002zm52.925-4.522a.306.306 0 01-.306-.304v-3.254a.326.326 0 01.02-.12.294.294 0 01.066-.103.31.31 0 01.506.103.306.306 0 01.02.12v3.255a.304.304 0 01-.306.303zm-55.945-2.151a.307.307 0 01-.306-.305v-3.254a.3.3 0 01.086-.223.307.307 0 01.526.223v3.254a.303.303 0 01-.09.215.303.303 0 01-.216.09zm55.945-6.03a.306.306 0 01-.306-.304v-3.255a.305.305 0 01.306-.293.306.306 0 01.306.293v3.255a.308.308 0 01-.09.215.313.313 0 01-.216.089zm-55.945-2.151a.307.307 0 01-.306-.305v-3.254a.302.302 0 01.186-.292.307.307 0 01.426.292v3.254c0 .081-.032.158-.09.215a.303.303 0 01-.216.09zm55.945-6.03a.306.306 0 01-.306-.304v-1.434c0-.558-.142-1.108-.413-1.596a.306.306 0 11.535-.295c.322.58.49 1.231.49 1.894v1.433a.305.305 0 01-.306.302zm-55.874-2.146a.306.306 0 01-.3-.365 3.929 3.929 0 012.076-2.712.307.307 0 01.405.136.303.303 0 01-.129.407 3.333 3.333 0 00-1.752 2.29.304.304 0 01-.3.244zm51.163-2.888h-3.269a.31.31 0 01-.224-.085.312.312 0 01-.093-.22.305.305 0 01.317-.304h3.269a.307.307 0 01.295.304.304.304 0 01-.295.305zm-8.218 0h-3.27a.303.303 0 01-.209-.516.307.307 0 01.209-.093h3.269a.307.307 0 01.294.304.303.303 0 01-.294.305h.001zm-8.219 0h-3.27a.306.306 0 01-.223-.524.307.307 0 01.224-.085h3.269a.31.31 0 01.224.085.306.306 0 01.069.339.297.297 0 01-.172.165.31.31 0 01-.121.02zm-8.219 0h-3.268a.306.306 0 01-.224-.524.307.307 0 01.224-.085h3.268a.306.306 0 01.293.423.305.305 0 01-.293.186zm-8.218 0h-3.27a.307.307 0 01-.294-.305.304.304 0 01.295-.304h3.27a.307.307 0 01.294.304.304.304 0 01-.295.305zm-8.219 0h-3.268a.307.307 0 01-.295-.305.304.304 0 01.295-.304h3.27a.306.306 0 01.223.524.307.307 0 01-.224.085zM119.086 189.83h-3.237a.304.304 0 01-.303-.302c0-.08.032-.157.089-.213a.301.301 0 01.214-.089h3.237a.303.303 0 01.215.516.307.307 0 01-.215.088zm-8.139 0h-3.237a.302.302 0 110-.604h3.237a.3.3 0 01.214.089.299.299 0 010 .427.303.303 0 01-.214.088zm-8.139 0H99.57a.303.303 0 110-.604h3.238a.303.303 0 01.215.516.307.307 0 01-.215.088zm-8.139 0h-3.237a.303.303 0 01-.214-.515.303.303 0 01.213-.089h3.238a.303.303 0 010 .604zm-8.139 0h-3.237a.303.303 0 110-.604h3.239a.303.303 0 110 .604h-.002zm-8.139 0h-3.238a.303.303 0 01-.214-.515.303.303 0 01.214-.089h3.238a.303.303 0 110 .604zm-8.14 0h-.004a3.894 3.894 0 01-1.69-.412 3.859 3.859 0 01-1.339-1.108.301.301 0 01.282-.474c.078.009.15.047.2.107.3.394.686.714 1.129.936.443.222.931.341 1.427.347a.301.301 0 11-.005.604zm50.403-.359a.297.297 0 01-.189-.065.297.297 0 01-.085-.366.299.299 0 01.142-.141 3.302 3.302 0 001.77-2.241.29.29 0 01.132-.189.3.3 0 01.337.006c.032.022.06.051.082.084a.307.307 0 01.041.227 3.896 3.896 0 01-2.097 2.655.305.305 0 01-.133.03zm-53.93-5.76a.301.301 0 01-.303-.301v-3.223a.301.301 0 01.303-.313.302.302 0 01.303.313v3.223a.303.303 0 01-.303.301zm55.945-1.559a.303.303 0 01-.303-.302v-3.223a.302.302 0 01.303-.301.302.302 0 01.303.301v3.223a.302.302 0 01-.303.302zm-55.945-6.543a.308.308 0 01-.214-.088.298.298 0 01-.089-.213v-3.224a.302.302 0 01.606 0v3.224a.301.301 0 01-.303.301zm55.945-1.561a.3.3 0 01-.303-.301v-3.223a.303.303 0 01.606 0v3.223c0 .08-.032.156-.088.213a.307.307 0 01-.215.088zm-55.945-6.54a.302.302 0 01-.303-.301v-3.223a.301.301 0 01.303-.313.302.302 0 01.303.313v3.223a.301.301 0 01-.303.301zm55.945-1.56a.303.303 0 01-.303-.302v-3.223a.303.303 0 01.606 0v3.223a.302.302 0 01-.303.3v.002zm-55.945-6.543a.303.303 0 01-.303-.301v-3.224a.304.304 0 01.184-.289.32.32 0 01.119-.024c.04 0 .081.009.119.024a.31.31 0 01.164.17.302.302 0 01.02.119v3.224a.302.302 0 01-.303.301zm55.945-1.561a.303.303 0 01-.303-.302v-3.222a.303.303 0 01.606 0v3.222a.305.305 0 01-.088.214.31.31 0 01-.215.088zm-55.945-6.541a.304.304 0 01-.303-.302v-3.223a.3.3 0 01.184-.288.303.303 0 01.337.068.3.3 0 01.085.22v3.223a.302.302 0 01-.303.302zm55.945-1.561a.311.311 0 01-.214-.088.306.306 0 01-.089-.213v-3.224a.301.301 0 01.303-.302c.081 0 .158.032.215.088a.304.304 0 01.088.214v3.222a.288.288 0 01-.088.214.308.308 0 01-.215.089zm-55.945-6.541a.303.303 0 01-.303-.302v-3.222a.301.301 0 01.303-.313.302.302 0 01.303.313v3.222a.302.302 0 01-.303.302zm55.945-1.561a.311.311 0 01-.214-.088.303.303 0 01-.089-.213v-3.223a.301.301 0 01.303-.302c.081 0 .158.032.215.088a.304.304 0 01.088.214v3.223a.285.285 0 01-.023.115.295.295 0 01-.164.163.308.308 0 01-.116.023zm-55.945-6.541a.304.304 0 01-.303-.302v-.865a3.819 3.819 0 01.818-2.374.304.304 0 01.547.144.302.302 0 01-.07.226 3.224 3.224 0 00-.69 2.004v.865a.302.302 0 01-.303.302zm55.878-1.557a.302.302 0 01-.296-.243 3.288 3.288 0 00-1.725-2.276.304.304 0 01-.15-.176.302.302 0 01.426-.36 3.896 3.896 0 012.044 2.695.293.293 0 01-.046.227.302.302 0 01-.253.133zm-6.721-2.876h-3.237a.306.306 0 01-.291-.184.296.296 0 010-.236.31.31 0 01.171-.163.289.289 0 01.12-.02h3.237a.284.284 0 01.119.02.298.298 0 01.171.399.3.3 0 01-.29.184zm-8.139 0h-3.237a.306.306 0 01-.291-.184.296.296 0 010-.236.31.31 0 01.171-.163.289.289 0 01.12-.02h3.237a.303.303 0 01.315.301.297.297 0 01-.025.118.3.3 0 01-.29.184zm-8.14 0h-3.237a.304.304 0 01-.314-.302.304.304 0 01.093-.217.297.297 0 01.102-.064.287.287 0 01.12-.02h3.237a.287.287 0 01.12.02.296.296 0 01.17.163.306.306 0 010 .236.297.297 0 01-.17.164.304.304 0 01-.12.02zm-8.138 0h-3.241a.305.305 0 01-.315-.302.306.306 0 01.093-.217.297.297 0 01.102-.064.288.288 0 01.12-.02h3.237a.305.305 0 01.292.301.304.304 0 01-.292.302h.004zm-8.14 0h-3.237a.304.304 0 01-.292-.302.3.3 0 01.292-.301h3.238a.287.287 0 01.12.02.296.296 0 01.17.163.306.306 0 010 .236.297.297 0 01-.17.164.304.304 0 01-.12.02zm-8.138 0h-3.238a.305.305 0 01-.314-.302.306.306 0 01.093-.217.297.297 0 01.102-.064.288.288 0 01.12-.02h3.237a.287.287 0 01.12.02.297.297 0 01.194.281.297.297 0 01-.092.218.304.304 0 01-.222.084z"
    fill="#81D5F1"
  /><path
    d="M110.349 150.32H73.933a.601.601 0 00-.603.6v.17c0 .331.27.6.603.6h36.416a.602.602 0 00.603-.6v-.17c0-.332-.27-.6-.603-.6zM110.349 156.076H73.933a.601.601 0 00-.603.6v.17c0 .331.27.6.603.6h36.416a.602.602 0 00.603-.6v-.17c0-.332-.27-.6-.603-.6zM110.349 161.832H73.933a.601.601 0 00-.603.6v.17c0 .331.27.6.603.6h36.416a.602.602 0 00.603-.6v-.17c0-.332-.27-.6-.603-.6zM97.708 167.587H73.933a.602.602 0 00-.603.6v.17c0 .332.27.601.603.601h23.775a.602.602 0 00.603-.601v-.17c0-.331-.27-.6-.603-.6zM110.349 173.343H73.933a.602.602 0 00-.603.6v.17c0 .332.27.6.603.6h36.416a.601.601 0 00.603-.6v-.17c0-.331-.27-.6-.603-.6zM110.349 184.855H73.933a.602.602 0 00-.603.6v.17c0 .332.27.6.603.6h36.416a.601.601 0 00.603-.6v-.17c0-.331-.27-.6-.603-.6zM97.708 179.099H73.933a.602.602 0 00-.603.6v.17c0 .332.27.6.603.6h23.775a.6.6 0 00.603-.6v-.17c0-.331-.27-.6-.603-.6zM110.349 138.808H73.933a.602.602 0 00-.603.6v.171c0 .331.27.6.603.6h36.416a.602.602 0 00.603-.6v-.171c0-.331-.27-.6-.603-.6zM97.708 144.564H73.933a.601.601 0 00-.603.6v.17c0 .331.27.6.603.6h23.775a.602.602 0 00.603-.6v-.17a.6.6 0 00-.603-.6z"
    fill="#C8EEFB"
  /><path
    d="M95.967 92.824H45.63c-2.827 0-5.12 2.281-5.12 5.096v7.265c0 2.815 2.293 5.097 5.12 5.097h50.337c2.827 0 5.12-2.282 5.12-5.097V97.92c0-2.815-2.293-5.096-5.12-5.096z"
    fill="#FFD840"
  /><path
    d="M45.086 97.68l.007 1.503 2.517-.011.027 6.013 1.51-.007-.027-6.013 2.517-.011-.007-1.504-6.544.03zm9.576 2.463l-4.53.02.006 1.503 1.51-.007.016 3.508 1.51-.006-.015-3.508 1.51-.007-.007-1.503z"
    fill="#FFFCF0"
  /><path
    d="M112.939 120.383H53.184c-2.282 0-4.132 1.842-4.132 4.114v5.863c0 2.272 1.85 4.114 4.132 4.114h59.755c2.282 0 4.132-1.842 4.132-4.114v-5.863c0-2.272-1.85-4.114-4.132-4.114z"
    fill="#00DE91"
  /><path
    d="M52.951 124.59l.006 1.213 2.029-.009.022 4.853 1.218-.005-.021-4.853 2.03-.009-.005-1.213-5.279.023zm7.728 1.988l-3.656.016.005 1.213 1.22-.005.012 2.831 1.218-.005-.012-2.832 1.218-.005-.005-1.213z"
    fill="#99F2D3"
  /><path
    d="M147.189 92.608l130.786.852-.802 99.264-130.785-.852.801-99.264z"
    fill="#C8EEFB"
  /><path
    opacity=".1"
    d="M412.253 121.558v-.219a2.307 2.307 0 00-.682-1.63 2.326 2.326 0 00-1.637-.676l-192.621-.235-38.976-.049H178.224c-1.23.018-2.588 1.048-2.589 2.301l-.014 13.423h.014v122.136a2.979 2.979 0 001.854 2.762c.364.151.755.228 1.15.228h230.394a2.697 2.697 0 001.874-.785 2.674 2.674 0 00.786-1.866l.505-122.078h.042l.014-13.306v-.006h-.001z"
    fill="#2E89C4"
  /><path
    d="M168.956 249.478a3.02 3.02 0 01-2.125-.876 2.979 2.979 0 01-.879-2.114V111.146c0-1.369 1.41-2.497 2.702-2.519l231.484.292a2.492 2.492 0 011.739.758c.456.472.705 1.105.693 1.759l-.56 135.391a2.67 2.67 0 01-.786 1.866 2.7 2.7 0 01-1.874.785H168.956z"
    fill="#F6FCFE"
  /><path
    d="M200.053 118.909h-.917v130.682h.917V118.909zM233.825 118.944h-.917v130.682h.917V118.944zM267.598 118.979h-.918V249.66h.918V118.979zM301.37 119.014h-.917v130.681h.917V119.014zM335.142 119.048h-.917V249.73h.917V119.048zM368.915 119.083h-.918v130.681h.918V119.083z"
    fill="#CCE5FD"
  /><path
    d="M165.907 154.599l-.001.904 236.619.242v-.903l-236.618-.243zM165.874 185.298l-.001.904 236.619.243.001-.904-236.619-.243zM165.842 215.998l-.001.904 236.619.243.001-.904-236.619-.243zM165.938 123.899l-.001.904 236.619.243.001-.904-236.619-.243z"
    fill="#CCE5FD"
  /><path
    d="M402.556 124.749l-236.618-.398.014-13.421c0-1.253 1.359-2.283 2.589-2.301l231.71.282a2.326 2.326 0 011.637.676c.435.432.68 1.018.682 1.63l-.014 13.532z"
    fill="#4E97EE"
  /><path
    d="M375.815 134.679a2.035 2.035 0 01-1.426-.597 2.011 2.011 0 01-.427-2.196 2.022 2.022 0 011.874-1.233l6.153.047a2.04 2.04 0 011.431.599 2.015 2.015 0 01.429 2.203 2.034 2.034 0 01-1.882 1.237l-6.152-.06z"
    fill="#FFD840"
  /><path
    d="M390.148 132.789a2 2 0 01-.358 1.108 2.022 2.022 0 01-3.102.262 2 2 0 01.333-3.082 2.023 2.023 0 012.985.935c.098.247.146.511.142.777z"
    fill="#CAEEF9"
  /><path
    d="M396.3 132.842a2.003 2.003 0 01-1.276 1.827 2.022 2.022 0 01-2.724-1.498 2.009 2.009 0 011.994-2.378 2.03 2.03 0 011.433.607 2.022 2.022 0 01.573 1.442z"
    fill="#55C7EC"
  /><path
    d="M343.31 132.701a2.002 2.002 0 01-1.272 1.832 2.022 2.022 0 01-2.188-.462 1.992 1.992 0 01-.54-1.032 1.995 1.995 0 01.125-1.157 2.014 2.014 0 011.869-1.224 2.014 2.014 0 012.006 2.043z"
    fill="#CAEEF9"
  /><path
    d="M349.462 132.754a2.002 2.002 0 01-1.276 1.828 2.015 2.015 0 01-2.725-1.499 2.001 2.001 0 01.875-2.048 2.016 2.016 0 011.898-.17 2.019 2.019 0 011.228 1.889z"
    fill="#93C5FA"
  /><path
    d="M308.993 162.846a2.018 2.018 0 01-2.437 1.931 2.014 2.014 0 01-1.564-1.592 2.003 2.003 0 01.873-2.051 2.028 2.028 0 012.553.274 2.005 2.005 0 01.575 1.438z"
    fill="#CAEEF9"
  /><path
    d="M315.145 162.899a2.002 2.002 0 01-1.276 1.828 2.022 2.022 0 01-2.725-1.498 2.006 2.006 0 01.874-2.048 2.025 2.025 0 012.553.277 1.995 1.995 0 01.574 1.441z"
    fill="#55C7EC"
  /><path
    d="M175.459 132.528a2.01 2.01 0 01-1.272 1.832 2.022 2.022 0 01-2.728-1.494 2 2 0 01.873-2.05 2.025 2.025 0 012.985.935c.098.247.147.512.142.777z"
    fill="#CAEEF9"
  /><path
    d="M181.611 132.583a2.003 2.003 0 01-1.276 1.827 2.022 2.022 0 01-2.724-1.498 1.997 1.997 0 01.126-1.155 2.015 2.015 0 012.646-1.062 2.027 2.027 0 011.087 1.11c.098.247.146.512.141.778z"
    fill="#55C7EC"
  /><path
    d="M341.22 194.387a2.028 2.028 0 01-1.426-.597 2.01 2.01 0 01.014-2.846 2.031 2.031 0 011.433-.583l6.152.047a2.03 2.03 0 012.019 2.03 2.027 2.027 0 01-.602 1.425 2.013 2.013 0 01-.661.434c-.246.101-.51.152-.777.15l-6.152-.06zM355.553 192.497a2.018 2.018 0 01-2.437 1.931 2.014 2.014 0 01-1.564-1.592 2.003 2.003 0 01.873-2.051 2.028 2.028 0 012.553.273 2.006 2.006 0 01.575 1.439z"
    fill="#93C5FA"
  /><path
    d="M361.705 192.55a2.013 2.013 0 01-1.276 1.828 2.022 2.022 0 01-2.725-1.498 2 2 0 01.874-2.049 2.032 2.032 0 011.898-.169c.246.104.469.256.656.446a2.022 2.022 0 01.573 1.442z"
    fill="#57E9B7"
  /><path
    d="M346.524 164.829a2.024 2.024 0 01-1.426-.597 2.002 2.002 0 01.014-2.846 2.028 2.028 0 011.433-.582l6.152.047a2.031 2.031 0 011.432.599 2.013 2.013 0 01-.015 2.856c-.383.377-.9.587-1.438.584l-6.152-.061z"
    fill="#CAEEF9"
  /><path
    d="M343.279 162.968a2.002 2.002 0 01-1.276 1.828 2.022 2.022 0 01-2.725-1.498 2.01 2.01 0 011.994-2.379 2.036 2.036 0 011.434.608 2.013 2.013 0 01.573 1.441z"
    fill="#57E9B7"
  /><path
    d="M238.979 164.773a2.023 2.023 0 01-1.409-.606 2.008 2.008 0 01.014-2.827 2.024 2.024 0 011.415-.592l6.153.046a2.036 2.036 0 011.431.599 2.014 2.014 0 01-.015 2.857 2.034 2.034 0 01-1.437.584l-6.152-.061zM171.543 194.265a2.019 2.019 0 01-1.985-2.022 2.01 2.01 0 01.59-1.411 2.024 2.024 0 011.415-.592l6.153.046a2.04 2.04 0 011.431.599 2.02 2.02 0 01.429 2.204 2.034 2.034 0 01-1.881 1.237l-6.152-.061zM272.651 134.572a2.011 2.011 0 01-.773-.157 2.013 2.013 0 01-1.239-1.865 2.016 2.016 0 012.032-2.003l6.153.047a2.031 2.031 0 011.431.599 2.013 2.013 0 01-.015 2.856c-.382.377-.9.587-1.438.584l-6.151-.061zM286.984 132.683a2.018 2.018 0 01-2.436 1.931 2.014 2.014 0 01-1.565-1.592 2.003 2.003 0 01.873-2.051 2.028 2.028 0 012.553.273c.187.19.334.415.432.662.099.247.148.511.143.777z"
    fill="#CAEEF9"
  /><path
    d="M293.136 132.736a2.002 2.002 0 01-1.276 1.828 2.022 2.022 0 01-2.725-1.498 2.01 2.01 0 011.994-2.379 2.017 2.017 0 011.434.607 2.013 2.013 0 01.573 1.442z"
    fill="#57E9B7"
  /><path
    d="M272.589 194.316a2.027 2.027 0 01-1.409-.606 2.01 2.01 0 011.43-3.419l6.153.046a2.036 2.036 0 011.431.599 2.014 2.014 0 01-.015 2.857 2.03 2.03 0 01-1.438.584l-6.152-.061z"
    fill="#FFD840"
  /><path
    d="M286.922 192.427a2.018 2.018 0 01-2.436 1.93 2.01 2.01 0 01-1.564-1.592 2 2 0 01.873-2.05 2.023 2.023 0 012.984.935c.099.247.147.511.143.777z"
    fill="#93C5FA"
  /><path
    d="M293.074 192.48c-.008.395-.134.78-.361 1.105a2.02 2.02 0 01-3.639-.776 2.006 2.006 0 01.874-2.048 2.023 2.023 0 012.985.941c.098.247.146.511.141.778z"
    fill="#57E9B7"
  /><path
    d="M247.492 169.024l-90.54.181c-3.566.007-6.451 2.89-6.444 6.44.007 3.55 2.904 6.422 6.47 6.415l90.54-.18c3.566-.007 6.451-2.891 6.444-6.441-.007-3.55-2.904-6.422-6.47-6.415z"
    fill="#79D3F0"
  /><path d="M245.211 174.597l-85.143.194.003 1.341 85.143-.194-.003-1.341z" fill="#E5F7FC" /><path
    d="M157.604 178.801a3.147 3.147 0 01-2.221-.913 3.115 3.115 0 01-.005-4.419 3.146 3.146 0 012.219-.918h.007a3.15 3.15 0 012.216.914c.588.584.92 1.377.923 2.204a3.123 3.123 0 01-.915 2.211 3.152 3.152 0 01-2.217.921h-.007zm0-4.909h-.004c-.475 0-.931.189-1.267.524a1.78 1.78 0 00.003 2.523c.336.334.792.521 1.268.521h.004c.475-.002.93-.191 1.266-.526.335-.335.523-.789.523-1.262a1.783 1.783 0 00-.528-1.259 1.798 1.798 0 00-1.265-.521zM245.957 177.992a2.639 2.639 0 002.645-2.633 2.639 2.639 0 00-2.645-2.633 2.639 2.639 0 00-2.645 2.633 2.639 2.639 0 002.645 2.633z"
    fill="#E5F7FC"
  /><path
    d="M291.514 243.69l-99.576.166a6.467 6.467 0 01-4.57-1.872 6.425 6.425 0 01-1.901-4.541 6.416 6.416 0 013.972-5.947 6.482 6.482 0 012.47-.495l99.576-.166a6.484 6.484 0 012.472.483 6.483 6.483 0 012.098 1.389 6.425 6.425 0 011.901 4.541 6.398 6.398 0 01-1.881 4.549 6.482 6.482 0 01-4.561 1.893z"
    fill="#FFD840"
  /><path d="M290.276 236.594l-94.317.154.002 1.341 94.317-.154-.002-1.341z" fill="#FFF6D6" /><path
    d="M193.809 239.879a2.46 2.46 0 002.465-2.455 2.46 2.46 0 00-2.465-2.454 2.46 2.46 0 00-2.466 2.454 2.46 2.46 0 002.466 2.455z"
    fill="#F9D58E"
  /><path
    d="M193.809 240.549a3.14 3.14 0 01-2.197-.925 3.116 3.116 0 01-.006-4.394 3.142 3.142 0 012.196-.93h.007a3.147 3.147 0 012.216.914c.588.584.92 1.376.923 2.204a3.121 3.121 0 01-.916 2.21 3.146 3.146 0 01-2.217.921h-.006zm0-4.909h-.004c-.471.008-.919.2-1.249.534a1.777 1.777 0 00.003 2.504c.33.334.779.524 1.25.531h.004a1.8 1.8 0 001.265-.526 1.778 1.778 0 00-.004-2.521 1.796 1.796 0 00-1.265-.522z"
    fill="#FFF6D6"
  /><path
    d="M289.034 239.722a2.46 2.46 0 002.465-2.454 2.46 2.46 0 00-2.465-2.455 2.46 2.46 0 00-2.466 2.455 2.46 2.46 0 002.466 2.454z"
    fill="#FFEFB7"
  /><path
    d="M328.582 198.295l-62.689.138c-3.566.008-6.451 2.892-6.443 6.442.008 3.55 2.905 6.421 6.471 6.413l62.69-.138c3.566-.008 6.45-2.892 6.442-6.442-.008-3.55-2.905-6.421-6.471-6.413z"
    fill="#66EBBD"
  /><path d="M319.116 204.072l-49.3.112.003 1.34 49.3-.112-.003-1.34z" fill="#CCF8E9" /><path
    d="M267.218 207.982a3.146 3.146 0 01-2.221-.912 3.119 3.119 0 01-.005-4.42 3.148 3.148 0 012.218-.917h.008c.831 0 1.628.328 2.217.912a3.117 3.117 0 01-1.01 5.097c-.38.157-.788.239-1.201.24h-.006zm0-4.909h-.005a1.8 1.8 0 00-1.249.534 1.782 1.782 0 001.254 3.035h.003a1.789 1.789 0 001.789-1.789 1.78 1.78 0 00-.526-1.259 1.8 1.8 0 00-1.266-.521z"
    fill="#CCF8E9"
  /><path
    opacity=".68"
    d="M311.585 195.085l13.942-.031c1.925-.004 4.058 1.544 4.062 3.46l.031 13.879a3.46 3.46 0 01-2.145 3.21 3.482 3.482 0 01-1.333.267l-14.51.032a3.493 3.493 0 01-2.467-1.01 3.469 3.469 0 01-1.027-2.452l-.03-13.878a3.472 3.472 0 012.144-3.21 3.482 3.482 0 011.333-.267z"
    fill="#00A76D"
  /><path
    d="M324.392 194.986l-13.091.029a3.265 3.265 0 00-3.266 3.265l.029 13.032a3.266 3.266 0 003.281 3.251l13.091-.029a3.266 3.266 0 003.266-3.265l-.029-13.032a3.266 3.266 0 00-3.281-3.251z"
    fill="#00DE91"
  /><path
    fill-rule="evenodd"
    clip-rule="evenodd"
    d="M322.915 200.369l-7.012 7.003-3.42-3.388-1.159 1.151 4.584 4.544 8.164-8.163-1.157-1.147z"
    fill="#EDF8F8"
  /><path
    d="M285.597 151.173l-44.211.138a6.466 6.466 0 01-5.974-3.955 6.406 6.406 0 011.384-7.008 6.461 6.461 0 014.562-1.892l44.21-.139a6.485 6.485 0 014.57 1.873 6.418 6.418 0 011.902 4.541 6.413 6.413 0 01-1.881 4.549 6.475 6.475 0 01-4.562 1.893z"
    fill="#66EBBD"
  /><path d="M280.311 144.162l-35.063.105.004 1.34 35.063-.104-.004-1.341z" fill="#CCF8E9" /><path
    d="M242.681 148.005a3.152 3.152 0 01-2.221-.913 3.126 3.126 0 01-.922-2.208 3.13 3.13 0 013.136-3.128h.007a3.143 3.143 0 012.221.913 3.119 3.119 0 01.005 4.419 3.152 3.152 0 01-2.219.917h-.007zm0-4.909h-.005a1.808 1.808 0 00-1.266.524 1.765 1.765 0 00-.524 1.262 1.783 1.783 0 001.794 1.783h.004a1.8 1.8 0 001.267-.524 1.78 1.78 0 00-.003-2.523 1.794 1.794 0 00-1.267-.522z"
    fill="#CCF8E9"
  /><path
    d="M284.093 148.503a3.802 3.802 0 003.81-3.793 3.801 3.801 0 00-3.81-3.792 3.801 3.801 0 00-3.81 3.792 3.802 3.802 0 003.81 3.793z"
    fill="#00DE91"
  /><path
    d="M284.093 149.106a4.424 4.424 0 01-3.124-1.283 4.39 4.39 0 01-1.297-3.107 4.39 4.39 0 011.29-3.11 4.43 4.43 0 013.121-1.291h.01c1.17 0 2.291.462 3.119 1.285a4.382 4.382 0 01.009 6.211 4.432 4.432 0 01-3.118 1.296l-.01-.001zm0-7.585h-.008a3.215 3.215 0 00-2.241.95 3.18 3.18 0 00.005 4.484c.594.597 1.4.936 2.243.945h.007a3.213 3.213 0 002.263-.941 3.178 3.178 0 00-.007-4.507 3.207 3.207 0 00-2.262-.932v.001z"
    fill="#CCF8E9"
  /><path
    opacity=".3"
    d="M110.873 171.473l-52.053-.337a11.427 11.427 0 00-8.067 3.27 11.331 11.331 0 00-2.49 3.661 11.282 11.282 0 00-.892 4.33l-.325 53.764a11.302 11.302 0 003.285 8.03 11.408 11.408 0 008.027 3.367l56.354.336a11.427 11.427 0 004.361-.836 11.38 11.38 0 003.707-2.434 11.295 11.295 0 003.381-7.991l.325-48.259c0-11.51-6.119-16.901-15.613-16.901z"
    fill="#2E89C4"
  /><path
    d="M142.33 134.466a7.75 7.75 0 00-4.292 1.296 7.702 7.702 0 00-2.845 3.451 7.663 7.663 0 001.675 8.379 7.73 7.73 0 003.955 2.105 7.76 7.76 0 004.462-.438 7.713 7.713 0 003.467-2.832 7.661 7.661 0 00-.961-9.708 7.747 7.747 0 00-5.461-2.253z"
    fill="#4E97EE"
  /><path
    opacity=".3"
    d="M379.246 43.509l-56.353-.337a11.423 11.423 0 00-8.068 3.27 11.327 11.327 0 00-2.489 3.661 11.273 11.273 0 00-.893 4.33l-.326 53.763a11.297 11.297 0 003.285 8.031 11.397 11.397 0 008.028 3.366l54.51.337c8.532 0 13.292-6.211 13.292-15.542l.326-49.482a11.3 11.3 0 00-3.285-8.03 11.405 11.405 0 00-8.027-3.367z"
    fill="#2E89C4"
  /><path
    d="M374.559 39.514l-56.354-.34c-6.285-.038-11.411 5.003-11.448 11.26l-.323 53.764c-.038 6.257 5.027 11.36 11.313 11.397l56.353.341c6.286.038 11.412-5.004 11.449-11.26l.323-53.764c.037-6.257-5.028-11.36-11.313-11.398z"
    fill="#fff"
  /><path
    d="M353.634 64.377l-20.196-.12a5.697 5.697 0 01-3.986-1.694 5.646 5.646 0 01-1.628-3.997 5.642 5.642 0 011.677-3.977 5.694 5.694 0 014.005-1.645l20.197.12a5.708 5.708 0 014.008 1.681 5.653 5.653 0 011.64 4.01 5.64 5.64 0 01-1.689 3.99 5.69 5.69 0 01-4.028 1.633z"
    fill="#55C6EB"
  /><path
    d="M363.143 102.186l-21.056-.126a5.69 5.69 0 01-5.26-3.516 5.637 5.637 0 011.278-6.177 5.692 5.692 0 014.051-1.62l21.056.126a5.695 5.695 0 013.985 1.693 5.642 5.642 0 01-.048 7.975 5.695 5.695 0 01-4.006 1.645z"
    fill="#0089C8"
  /><path
    d="M370.339 83.541l-48.424-.29a5.7 5.7 0 01-4.03-1.669 5.633 5.633 0 01-1.653-4.022 5.643 5.643 0 011.701-4.002 5.692 5.692 0 014.051-1.62l48.423.29a5.694 5.694 0 013.985 1.693 5.642 5.642 0 01-.048 7.975 5.694 5.694 0 01-4.005 1.645zM363.241 102.183c3.138 0 5.682-2.532 5.682-5.657 0-3.124-2.544-5.656-5.682-5.656-3.139 0-5.683 2.532-5.683 5.656 0 3.125 2.544 5.657 5.683 5.657z"
    fill="#36B2E5"
  /><path
    d="M321.928 83.229c3.138 0 5.682-2.533 5.682-5.657s-2.544-5.657-5.682-5.657c-3.139 0-5.683 2.533-5.683 5.657s2.544 5.657 5.683 5.657z"
    fill="#0089C8"
  /><path
    d="M353.679 64.378c3.138 0 5.682-2.532 5.682-5.656 0-3.124-2.544-5.657-5.682-5.657-3.139 0-5.683 2.533-5.683 5.657s2.544 5.656 5.683 5.656z"
    fill="#36B2E5"
  /><path
    d="M110.626 174.923H54.275c-6.286 0-11.381 5.072-11.381 11.329v53.762c0 6.257 5.095 11.329 11.38 11.329h56.352c6.286 0 11.381-5.072 11.381-11.329v-53.762c0-6.257-5.095-11.329-11.381-11.329z"
    fill="#fff"
  /><path
    d="M102.857 209.766c-.084.005-.164.009-.247.018a4.1 4.1 0 01.247-.018z"
    fill="#0089C8"
  /><path
    d="M106.526 211.147a4.765 4.765 0 00-2.307-1.267l-.022.024a4.627 4.627 0 00-1.116-.149c-.074 0-.148.007-.222.011a3.984 3.984 0 00-.247.018c-.081.009-.159.022-.239.035a4.79 4.79 0 00-2.894 1.621 4.753 4.753 0 00.03 6.203 4.795 4.795 0 002.91 1.594c.073.011.144.023.217.031.108.012.217.017.327.02.05 0 .101.007.151.007a4.613 4.613 0 001.156-.168l-.025.037a4.798 4.798 0 002.211-1.195 4.752 4.752 0 00.068-6.821l.002-.001zM102.634 219.268z"
    fill="#0089C8"
  /><path
    d="M103.113 219.296c.381.001.76-.044 1.13-.133l.025-.037a4.57 4.57 0 01-1.155.17zM103.078 209.755c.377.004.752.055 1.116.151l.023-.025a4.845 4.845 0 00-1.139-.126zM62.284 210.327a31.723 31.723 0 0110.98 4.354 32.053 32.053 0 009.94-9.922 31.438 31.438 0 01-4.39-10.917 4.387 4.387 0 01-.052-1.352A22.854 22.854 0 0172.567 204a23.016 23.016 0 01-11.51 6.265 4.46 4.46 0 011.227.062z"
    fill="#0089C8"
  /><path
    d="M103.113 219.295c-.051 0-.101-.006-.152-.007a5.034 5.034 0 01-.327-.02 3.906 3.906 0 01-.217-.031 4.792 4.792 0 01-2.909-1.595 4.754 4.754 0 01-.03-6.201 4.794 4.794 0 012.894-1.622c.079-.014.158-.026.238-.035.081-.009.165-.013.248-.018.073-.004.147-.011.221-.011.383-.003.765.039 1.139.126l.01-.01a23.041 23.041 0 01-10.92-6.469 22.88 22.88 0 01-5.81-11.251 4.388 4.388 0 00-.65-1.6 4.426 4.426 0 00-4.548-1.904 4.416 4.416 0 00-3.49 3.472 4.387 4.387 0 00.004 1.726 31.425 31.425 0 004.388 10.916 31.966 31.966 0 009.82 9.75 32.022 32.022 0 00-9.96 9.919 31.438 31.438 0 014.383 10.938c.083.425.103.861.058 1.292a22.865 22.865 0 015.863-11.123 23.03 23.03 0 0110.876-6.371l.003-.004a4.8 4.8 0 01-1.132.133z"
    fill="#36B2E5"
  /><path
    d="M83.058 224.438a.014.014 0 000-.015 31.992 31.992 0 00-9.797-9.739.02.02 0 00-.007.002l-.012.007a.01.01 0 00.004-.004c.002-.001.002-.003.003-.005v-.006l-.003-.005-.004-.003a31.716 31.716 0 00-10.958-4.343 4.46 4.46 0 00-3.844 1.088 4.401 4.401 0 00-1.363 2.505 4.322 4.322 0 001.38 3.909c.61.588 1.38.99 2.213 1.156.032.007.063.017.096.024a23.046 23.046 0 0111.74 6.307 22.876 22.876 0 016.253 11.733 4.406 4.406 0 001.875 2.794c.972.647 2.161.886 3.309.664a4.426 4.426 0 002.817-1.851 4.39 4.39 0 00.685-3.29 31.432 31.432 0 00-4.38-10.937"
    fill="#55C6EB"
  /><path
    d="M146.19 142.924h-3.09V146h-1.545v-3.076h-3.089v-1.538h3.089v-3.075h1.545v3.075h3.09v1.538z"
    fill="#fff"
  /></svg>
