<svg width="80" height="80" viewBox="0 0 80 80" fill="none" xmlns="http://www.w3.org/2000/svg">
<path
    d="M63.9324 48.9329H49.4122C48.3288 48.9329 47.2897 48.5025 46.5235 47.7364C45.7574 46.9702 45.327 45.9311 45.327 44.8477C45.327 43.7642 45.7574 42.7251 46.5235 41.959C47.2897 41.1929 48.3288 40.7625 49.4122 40.7625H63.9324C65.0158 40.7625 66.0549 41.1929 66.8211 41.959C67.5872 42.7251 68.0176 43.7642 68.0176 44.8477C68.0176 45.9311 67.5872 46.9702 66.8211 47.7364C66.0549 48.5025 65.0158 48.9329 63.9324 48.9329V48.9329Z"
    fill="#73C5E8"
  />
<path
    d="M71.2732 76.3455H56.1352C55.0518 76.3455 54.0127 75.9151 53.2465 75.149C52.4804 74.3828 52.05 73.3437 52.05 72.2603C52.05 71.1768 52.4804 70.1377 53.2465 69.3716C54.0127 68.6055 55.0518 68.175 56.1352 68.175H71.2732C72.3566 68.175 73.3957 68.6055 74.1619 69.3716C74.928 70.1377 75.3584 71.1768 75.3584 72.2603C75.3584 73.3437 74.928 74.3828 74.1619 75.149C73.3957 75.9151 72.3566 76.3455 71.2732 76.3455Z"
    fill="#2E89C4"
  />
<path
    d="M75.9148 62.8848H41.1014C40.018 62.8848 38.9789 62.4544 38.2128 61.6883C37.4466 60.9221 37.0162 59.883 37.0162 58.7996C37.0162 57.7161 37.4466 56.677 38.2128 55.9109C38.9789 55.1448 40.018 54.7144 41.1014 54.7144H75.9148C76.9982 54.7144 78.0373 55.1448 78.8034 55.9109C79.5696 56.677 80 57.7161 80 58.7996C80 59.883 79.5696 60.9221 78.8034 61.6883C78.0373 62.4544 76.9982 62.8848 75.9148 62.8848V62.8848Z"
    fill="#36B2E5"
  />
<path
    d="M71.7227 76.3455C73.9789 76.3455 75.8079 74.5165 75.8079 72.2603C75.8079 70.0041 73.9789 68.175 71.7227 68.175C69.4665 68.175 67.6375 70.0041 67.6375 72.2603C67.6375 74.5165 69.4665 76.3455 71.7227 76.3455Z"
    fill="#36B2E5"
  />
<path
    d="M41.0852 62.8687C43.3414 62.8687 45.1704 61.0397 45.1704 58.7835C45.1704 56.5273 43.3414 54.6982 41.0852 54.6982C38.829 54.6982 37 56.5273 37 58.7835C37 61.0397 38.829 62.8687 41.0852 62.8687Z"
    fill="#2E89C4"
  />
<path
    d="M64.1342 48.9329C66.3904 48.9329 68.2194 47.1039 68.2194 44.8477C68.2194 42.5915 66.3904 40.7625 64.1342 40.7625C61.878 40.7625 60.049 42.5915 60.049 44.8477C60.049 47.1039 61.878 48.9329 64.1342 48.9329Z"
    fill="#36B2E5"
  />
<path
    d="M37.7437 17.5137C37.6757 17.5176 37.6079 17.521 37.5402 17.5285C37.6073 17.521 37.6757 17.517 37.7437 17.5137Z"
    fill="#2E89C4"
  />
<path
    d="M40.762 18.6589C40.2405 18.1375 39.5826 17.7736 38.8637 17.609L38.8446 17.6285C38.5446 17.5497 38.236 17.5082 37.9259 17.5049C37.8651 17.5049 37.8044 17.51 37.7437 17.5137C37.6757 17.517 37.6074 17.521 37.5403 17.5286C37.4732 17.5362 37.4091 17.5462 37.3438 17.5568C36.4148 17.7046 35.5692 18.1798 34.9599 18.8966C34.3505 19.6133 34.0176 20.5244 34.0213 21.4651C34.025 22.4058 34.365 23.3142 34.9798 24.0262C35.5947 24.7382 36.444 25.2068 37.3742 25.3474C37.4349 25.3565 37.4932 25.3668 37.5533 25.3732C37.642 25.3829 37.7321 25.3874 37.8226 25.3899C37.8642 25.3899 37.9055 25.3956 37.9471 25.3956C38.2688 25.3901 38.5885 25.3435 38.8983 25.2569L38.8783 25.2873C39.5625 25.1266 40.1913 24.786 40.6996 24.3007C41.2079 23.8153 41.5772 23.2029 41.7692 22.5268C41.9612 21.8507 41.9689 21.1356 41.7916 20.4556C41.6143 19.7755 41.2584 19.1552 40.7607 18.6589H40.762Z"
    fill="#2E89C4"
  />
<path
    d="M37.5533 25.373C37.6444 25.3825 37.7325 25.3864 37.8226 25.3897C37.7321 25.3864 37.642 25.3828 37.5533 25.373Z"
    fill="#2E89C4"
  />
<path
    d="M37.9471 25.3956C38.2607 25.3965 38.5733 25.3602 38.8783 25.2872L38.8984 25.2568C38.5885 25.3434 38.2688 25.39 37.9471 25.3956Z"
    fill="#2E89C4"
  />
<path
    d="M37.9258 17.505C38.236 17.5084 38.5446 17.5499 38.8446 17.6286L38.8637 17.6092C38.5564 17.5372 38.2415 17.5022 37.9258 17.505V17.505Z"
    fill="#2E89C4"
  />
<path
    d="M4.33341 17.9501C7.54584 18.5749 10.6119 19.7991 13.3712 21.5586C16.6746 19.4648 19.4724 16.6643 21.5632 13.3591C19.8053 10.601 18.5823 7.53664 17.958 4.32611C17.8859 3.95763 17.8715 3.58019 17.9152 3.20728C17.1724 6.80826 15.3971 10.115 12.8061 12.7238C10.2152 15.3326 6.9206 17.1305 3.32478 17.8979C3.66178 17.8683 4.00126 17.8859 4.33341 17.9501V17.9501Z"
    fill="#2E89C4"
  />
<path
    d="M37.9471 25.3956C37.9052 25.3956 37.8642 25.3907 37.8226 25.3898C37.7315 25.3865 37.6429 25.3825 37.5533 25.3731C37.4926 25.3665 37.4337 25.3574 37.3742 25.3473C36.444 25.2068 35.5948 24.7382 34.9799 24.0262C34.365 23.3142 34.025 22.4058 34.0213 21.4651C34.0176 20.5243 34.3505 19.6133 34.9599 18.8965C35.5692 18.1798 36.4148 17.7046 37.3438 17.5568C37.4088 17.5452 37.4743 17.5358 37.5403 17.5285C37.608 17.5209 37.6757 17.5176 37.7437 17.5136C37.8044 17.5106 37.8651 17.5045 37.9259 17.5048C38.2415 17.502 38.5564 17.537 38.8637 17.609L38.8719 17.6005C35.4327 16.6929 32.3181 14.836 29.8844 12.2419C27.4507 9.64777 25.796 6.42124 25.1095 2.93111C24.9211 1.98604 24.3659 1.15411 23.5656 0.617401C22.7652 0.0806908 21.7848 -0.117076 20.8389 0.067387C19.8931 0.25185 19.0589 0.803517 18.5188 1.60164C17.9788 2.39976 17.7769 3.37933 17.9574 4.32594C18.5819 7.53651 19.8051 10.6008 21.5632 13.3589C23.6349 16.607 26.3927 19.3619 29.6428 21.4303C26.3335 23.5221 23.53 26.3225 21.4348 29.6296C23.1931 32.3931 24.4146 35.4634 25.0354 38.6796C25.1036 39.0318 25.1194 39.3921 25.0822 39.7489C25.8053 36.2927 27.4802 33.1074 29.9177 30.5526C32.3552 27.9978 35.4583 26.1752 38.8768 25.2906L38.8789 25.2872C38.5737 25.3602 38.2609 25.3966 37.9471 25.3956V25.3956Z"
    fill="#36B2E5"
  />
<path
    d="M21.4302 29.6359C21.4314 29.6341 21.432 29.632 21.432 29.6298C21.432 29.6277 21.4314 29.6256 21.4302 29.6238C19.3651 26.3822 16.6168 23.631 13.3773 21.5627C13.3755 21.5615 13.3733 21.5609 13.3711 21.5609C13.3689 21.5609 13.3667 21.5615 13.3649 21.5627L13.3555 21.5685C13.3571 21.5674 13.3584 21.5659 13.3593 21.5642C13.3603 21.5625 13.3607 21.5605 13.3607 21.5586C13.3607 21.5566 13.3603 21.5547 13.3593 21.553C13.3584 21.5513 13.3571 21.5498 13.3555 21.5487C10.6001 19.7945 7.53966 18.5738 4.3334 17.9502C4.00137 17.8859 3.66198 17.8684 3.32508 17.898V17.898C2.52114 17.9673 1.76295 18.3016 1.16949 18.8484C0.576025 19.3951 0.180862 20.1234 0.0459957 20.919C-0.0494866 21.5098 0.00421276 22.115 0.202211 22.6798C0.40021 23.2445 0.736227 23.7508 1.17971 24.1526C1.68247 24.64 2.31486 24.9726 3.00143 25.1105C3.02784 25.1162 3.05334 25.1247 3.08006 25.1302C6.74641 25.8798 10.1087 27.6981 12.743 30.356C15.3773 33.0139 17.1656 36.3924 17.8824 40.0652C18.0698 41.0104 18.6239 41.8428 19.4235 42.3804C20.2231 42.918 21.2031 43.1169 22.149 42.9338C23.095 42.7506 23.9298 42.2001 24.4709 41.4029C25.012 40.6057 25.2153 39.6266 25.0363 38.6798C24.4155 35.4637 23.194 32.3934 21.4357 29.6298"
    fill="#73C5E8"
  />
</svg>
