<svg
  xmlns="http://www.w3.org/2000/svg"
  xmlns:xlink="http://www.w3.org/1999/xlink"
  viewBox="0 0 1200 1200"
><defs><style
    >.cls-1{fill:#b27e4b;}.cls-2{fill:#cae4fc;}.cls-3{fill:#a3d0fb;}.cls-4{fill:#3297f5;}.cls-5{fill:#82c0f9;}.cls-6{fill:#53a8f7;}.cls-7{fill:#ffd840;}.cls-8{fill:#00de91;}.cls-9{fill:#3f3618;}.cls-10{fill:#312911;}.cls-11{fill:#186acb;}.cls-12{fill:#115eba;}.cls-13{fill:#2a8ad1;}.cls-14{fill:#d3a062;}.cls-15{fill:#c69259;}.cls-16{fill:#dda66b;}.cls-17{fill:#2170cd;}.cls-18{fill:#0c54aa;}.cls-19{fill:#f0f7fe;}.cls-20{fill:#0b51a9;}.cls-21{fill:#1767ca;}.cls-22{fill:url(#linear-gradient);}.cls-23{fill:#c2cad4;}.cls-24{fill:#dbecfe;}.cls-25{fill:#eaf4fe;}.cls-26{fill:#6db2f8;}</style><linearGradient
      id="linear-gradient"
      x1="1971"
      y1="-50"
      x2="1972"
      y2="-50"
      gradientTransform="matrix(1151.194, 0, 0, -2244.829, -2268979.133, -111277.327)"
      gradientUnits="userSpaceOnUse"
    ><stop offset="0" stop-color="#fff" /><stop offset="0.039" stop-color="#fff" /><stop
        offset="0.537"
        stop-color="#ccd3db"
      /><stop offset="0.961" stop-color="#f9f8f9" /><stop
        offset="1"
        stop-color="#f9f8f9"
      /></linearGradient></defs><g id="Layer_2" data-name="Layer 2"><path
      class="cls-1"
      d="M534.662,520.615,509.6,493.784a54.793,54.793,0,0,1-7.935-9.942c-2.228-3.909-3.455-8.294-4.661-12.628-1.339-4.81-2.689-9.726-2.409-14.711,3.042-1.389,6.864-2.7,9.481-.622a8.992,8.992,0,0,1,2.063,2.751c8.773,15.582,16.093,32.133,27.153,46.184a1.991,1.991,0,0,1-.992,1.539"
    /><polyline
      class="cls-2"
      points="476.561 135.116 373.904 207.19 523.074 239.197 635.866 167.631 476.561 135.116"
    /><polygon
      class="cls-3"
      points="549.399 222.69 523.074 239.196 373.905 207.19 477.327 135 549.399 222.69"
    /><polygon
      class="cls-4"
      points="635.865 167.631 523.074 239.196 484.14 394.851 571.564 502.581 680.028 424.458 710.351 269.191 635.865 167.631"
    /><polygon
      class="cls-5"
      points="484.14 394.851 523.074 239.196 373.905 207.19 334.469 362.707 484.14 394.851"
    /><polygon
      class="cls-6"
      points="484.14 394.851 571.996 502.353 422.048 470.283 334.469 362.707 484.14 394.851"
    /><polygon
      class="cls-7"
      points="266.425 294.278 286.729 318.066 316.657 327.142 292.869 347.445 283.794 377.375 263.49 353.586 233.561 344.511 257.35 324.208 266.425 294.278"
    /><polygon
      class="cls-7"
      points="424.68 522.233 434.832 534.127 449.796 538.665 437.902 548.817 433.365 563.781 423.213 551.887 408.249 547.35 420.143 537.198 424.68 522.233"
    /><polygon
      class="cls-7"
      points="747.388 201.189 760.768 216.865 780.491 222.845 764.814 236.225 758.834 255.948 745.455 240.271 725.732 234.291 741.408 220.912 747.388 201.189"
    /><circle
      class="cls-8"
      cx="243.244"
      cy="459.378"
      r="14.149"
      transform="translate(-274.343 411.431) rotate(-56.806)"
    /><path
      class="cls-8"
      d="M715.521,180.247a9.8,9.8,0,1,1-11.592-7.584A9.794,9.794,0,0,1,715.521,180.247Z"
    /><path
      class="cls-8"
      d="M148.565,271.264a9.8,9.8,0,1,1-11.592-7.584A9.793,9.793,0,0,1,148.565,271.264Z"
    /><path
      class="cls-9"
      d="M914.012,259.783c-8.418,2.171-17.154,1.911-25.863,1.651-10.216-.3-20.4-.608-29.991,3.007-10.176,3.837-22.577,13.1-29.034,22.554-5.955,8.722-.617,17.906-8.055,27.254-10.11,12.7-24.466,20.619-36.93,30.227-39.626,30.547-60.063,81.9-44.1,132.537,6.638-6.969,16.506-8.7,25.7-9.466A208.555,208.555,0,0,1,864,483.268c20.413,8.625,42.808,11.551,63.671,18.894,18.8,6.615,46.291-.555,59.765,14.707,30.653-38.837,37.73-65.146,41.348-115.537,1.185-16.511.738-33.354-3.765-49.092-3.792-13.254-10.366-25.384-17.985-36.527-18.869-27.6-45.225-50.1-76.142-59.033s-66.441-2.933-91.22,19.5l74.338-16.4"
    /><path
      class="cls-10"
      d="M834.027,316.043c-10.068,16.94-24.084,31-39.966,39.507-26.58,28.982-47.049,60.218-46.83,102.56a54.648,54.648,0,0,1,22.818-4.569c12.771,0,25.9,3.366,38.377,6.663a190.56,190.56,0,0,0,20.042,4.336c-3.766-9.805-6.5-22.065-9.175-33.723l-.162-.713c-7.677-34.041-2.255-57.418,6.05-77.73.96-2.356,1.969-4.687,3.01-7,2.466-5.5,5.061-10.817,7.568-16.138,1.193-3.348,2.231-6.517,3.149-9.541q-2.492-1.742-4.881-3.652M828.4,311.21q-1,1.781-2.043,3.528,1.295-1.506,2.518-3.092l-.475-.436"
    /><path
      class="cls-11"
      d="M833.92,597.512A606.755,606.755,0,0,1,705.748,803.141c-12.5,13.173-25.583,25.777-38.664,38.376q-18.715,18.024-37.43,36.054c-14.835,14.287-30.01,28.817-48.577,37.731-8.705,4.181-18.362,7.082-27.954,5.963s-19.04-6.916-22.459-15.947-.421-19.07,2.581-28.239c6.832-20.881,13.771-41.991,25.367-60.652,10.364-16.677,24.142-30.9,36.763-45.943,44.8-53.384,75.1-117.13,112.134-176.163,11.165-17.8,15.244-28.8,32.033-41.432s39.514-23.792,79.91-17.9c0,0-23.526,52.773-17.582,78.188l32.05-15.665"
    /><path
      class="cls-12"
      d="M800.216,553.479c6.176,4.321,9.873,11.881,11,19.45,2.264,15.215-.032,35.325-1.272,50.762a174.318,174.318,0,0,1-11.174,47.547c-19.207,50.713-56.2,93.085-93.023,131.9-12.5,13.173-25.583,25.777-38.664,38.376-14.227,13.7-27.9,28.765-43.044,41.438-9.735,8.147-20.639,20.56-32.132,25.579-9.306,4.065-21.361,3.089-28.172-4.442-20.054-22.173-.5-63.335,14.056-82.586,14.486-19.152,11.081-31.359,27.4-48.973,29.117-31.428,64-72.3,79.8-112.122,15.937-40.182,41.456-81.7,81.016-103.967,9.567-5.385,21.4-9.384,31.307-4.662a20.256,20.256,0,0,1,2.9,1.7"
    /><path
      class="cls-9"
      d="M846.956,284.977c-8.028,31.524-29.7,59.454-55.973,72.139-12.335,5.956-22.658,8.849-34.385,16.578-22.36,14.735-37.171,48.029-30.669,74.847,2.629,10.847,2.629,10.847-.9,12.638-3.724,1.29-7.127-3.643-7.936-7.839-5.81-30.109,8.558-66.157,32.353-84.47,16.051-12.353,33.6-21.114,50.28-32.1,15.271-10.052,29.723-21.264,37.636-39.462l9.591-12.335"
    /><path
      class="cls-13"
      d="M949.5,509.894c-7.15,11.791-5.251,26.684-14.611,37.52-7.386,8.551-19.163,11.892-30.407,12.988-11.772,1.148-24,.235-34.769-4.645a42.728,42.728,0,0,1-19.132-16.677c-1.944-3.272-3.227-6.641-5.293-9.752-2.362-3.554-3.021-7.411-3.31-11.719-.188-2.822-.749-7.1,1.108-9.233,3.294-3.787,9.23-1.918,14.208-1.27a124.9,124.9,0,0,0,57.323-6c12.927-4.544,27.5-13.287,41.205-13.434a3.863,3.863,0,0,1,2.928.826c.988,1.046-1.382,4.707-1.877,6.058a87.911,87.911,0,0,1-7.373,15.334"
    /><path
      class="cls-14"
      d="M953.272,528.019c-6.794-21.956-1.182-59.743,10.656-82.134-28.111-5.517-59.856-20.375-84.47-35.211,3.838,12.788.324,26.975-4.219,39.847-8.029,22.75-6.112,47.459-20.123,66.876-5.42,7.511-11.4,14.839-19.018,19.731s-17.2,7.045-25.236,3.669c0,0-23.589,20.868-22.755,25.707,1.817,10.532,2.3,29.462,9.038,38.122,16.458,21.158,65.2,28.985,91,32.769,19.6,2.875,40.275.866,57.934-8.12s31.935-25.418,36-44.81c.534-2.545.881-5.258-.034-7.691a15.7,15.7,0,0,0-3.378-4.811c-12.689-13.954-19.815-25.742-25.388-43.944"
    /><path
      class="cls-15"
      d="M957.223,476.947c-.952,1.157-2.373-.958-2.323-2.454.557-16.531,7.587-32.766,5.294-49.146a692.248,692.248,0,0,1-71.935,47.617,10.643,10.643,0,0,0-3.895,3.154,11.314,11.314,0,0,0-1.289,4.587,68.542,68.542,0,0,1-12.7,31.154c-1.371,1.835-24.468,22.34-25.314,17.213.857,5.192,14.453,12.682,18.726,15.746,2.251,1.614,9.4-2.043,16.419-5.7,6.306-3.287,12.5-6.574,14.933-6.036,9.684,2.145,19.941,2.3,29.413-.639,7.556-2.346,14.406-6.584,20.623-11.477,3.188-2.508,6.453-5.608,6.841-9.646.186-1.955-.34-3.925-.166-5.881.271-3.017,2.448-5.882,2.187-8.94-.218-2.555-1.1-5.046-1.231-7.757-.948-19.213,6.472-36.775,11.309-54.981a37.066,37.066,0,0,0,1.613-6.65c.164-2.54-.626-3.392-3.523-4.012-4.88-1.047-6.017,4.6-7.461,8.2-3.928,9.775-7.749,19.618-12.573,29q-.433.843-.879,1.681c-5.521,10.408-67.654,58.889-90.9,66.184l106.83-51.209"
    /><path
      class="cls-14"
      d="M1000.076,350.93a304.348,304.348,0,0,1-53.361,102.086c-13.207,16.509-38.513,28.146-58.031,33.694-25.969,7.385-36.7.633-46.767-3.876-12.25-5.486-17.526-29.841-22.624-52.019-15.154-65.925,18.653-92,28.194-132.718,4.647-19.829,7.411-47.981,23.526-59.031,18.15-12.445,33.713-9.257,54.444-4.035s39.627,16.288,58.242,27.235l16.377,88.664"
    /><path
      class="cls-16"
      d="M819.293,430.817c-6.118-26.611-4.489-52.883,5.815-78.264,4.1-10.1,9.133-19.717,13.57-29.642,2.48-5.547,7.464-27.623,11.6-28.137-10.986,46.56-35.915,68.066-28.963,116.6,3.54,24.7,10.806,46.182,16.3,55.545,1.074,1.831,33.543,47.418,108.742-15.328-15.623,18.323-35.117,28.706-57.671,35.118-25.969,7.385-36.7.633-46.767-3.876-12.25-5.486-17.526-29.841-22.624-52.017"
    /><path
      class="cls-15"
      d="M1001.741,335.712c1.4,18.15-4.193,36.256-11.558,52.824A231.5,231.5,0,0,1,927,472.489a150.952,150.952,0,0,0,3.671-50.463c-1.539-15.881-2.567-49.938-16.2-56.159-4.656-2.122-23.7-3.583-28.715-4.4-24.435-3.992-31.778-12.819-51.169-29.027,12.757-34.127,9.263-49.8,24.437-79.707,13.088-25.8,43.448-23.49,66.432-17.7,20.73,5.224,39.626,16.288,58.241,27.235l18.042,73.446"
    /><path
      class="cls-11"
      d="M928.81,959.436a6.335,6.335,0,0,0,4.545-.917c1.611-1.006,1.9-2.011.573.917-1.2,2.652-3.225,1.622-5.587.591-1.89-.826-4-1.65-6.068-.591-58,29.642-128.169,18.718-190.555,0-16.922-5.075-33.8-.615-49.962,3.845-21.14,5.836-41.041,11.672-58.167-3.845,32.434-60.7,67.724-84.229,74.328-154.042.449-4.735.734-9.636-.816-14.13-1.249-3.622-3.608-6.737-5.753-9.911-20.743-30.7-22.536-73.156-4.457-105.493,5-8.955,11.341-17.08,17.488-25.294a759.429,759.429,0,0,0,51.911-79.252c9.656-16.964,19.342-36.29,41.394-37.582a74.727,74.727,0,0,1,12.069.6,74.21,74.21,0,0,0,12.072.6c8.053-.474,16.915-4.78,18.595-12.669,1.03-4.831-.624-10.672,2.8-14.228-1.745,6.8,2.083,14.234,8,18.029s13.428,4.4,20.339,3.14,13.378-4.215,19.762-7.146c20.566-9.438,43.4-14.012,61.7-27.333,4.341-3.16,4.317-6.237,2.369-7.1,1.612-1.177,6.9,0,4.928,3.938-2.654,14.726-4.8,27.573,1.217,41.273,6.12,13.94,19.98,22.892,34.036,28.741,9.746,4.057,18.653,8.146,23.23,18.251,4.161,9.187,5.457,20.729,6.718,30.631,2.889,22.712,4.727,17.974,1.872,40.673a176.312,176.312,0,0,1-6.882,31.529c-12.684,41.364-45.321,92.929-60.232,133.543-27.144,73.937-30.064,62.452-18.586,143.226.32,2.251.622,1.281.385.309-.213-.867-.855-1.734-2.3-.309-.583.577-1.26.34-1.975.105a2.46,2.46,0,0,0-1.869-.105c-7.014,3.289-14.029,1.645-21.041,0s-14.027-3.289-21.038,0H928.81"
    /><path
      class="cls-17"
      d="M707.411,797.291c-36.066-27.479-42.012-82.99-20.52-121.431,5-8.955,11.341-17.08,17.488-25.294a759.259,759.259,0,0,0,51.91-79.252c5.425-9.529,10.761-19.333,18.643-26.957,6.835-6.608,19.007-8.962,23.721-7.911-8.607,3.6-25.568,35.361-36.312,56.278-10.493,20.427-25.115,37.441-38.05,56.2-5.578,8.087-13.062,14.885-18.8,23.055a130.239,130.239,0,0,0-15.551,29.543c-3.033,8.177-5.256,16.765-5.283,25.487-.023,7.413,1.539,14.748,3.532,21.889,4.7,16.841,12.465,32.366,19.226,48.4"
    /><path
      class="cls-12"
      d="M935.938,959.436c.285,3.787,3.062,2.524,4.378,1.261.676-.648.968-1.3.336-1.261a101.3,101.3,0,0,1-14.724-.484c-6.948-.58-13.7-1.16-21.16.484-29.936,6.6-60.316,2.045-91.389,0a115.921,115.921,0,0,0-14.453.248c-6.313.373-12.6.744-18.889-.248a25.554,25.554,0,0,0-7.6.323c-3.327.477-6.607.953-9.748-.323-5.461-2.217-10.17-.728-14.611.762-5.22,1.75-10.07,3.5-15.342-.762-.719-.582-1.455-.212-2.1.158-.738.421-1.358.843-1.7-.158-.281-.815-.354-.4-.313.014s.2.838.39-.014c1.6-7.345,4.9-4.153,9.134-.962,3.807,2.867,8.374,5.734,13.153.962,5-4.99,10.3.545,15.478,6.08,5.291,5.65,10.461,11.3,15.066,5.753,13.222-15.934,21.369-36.208,21.874-56.907a54.8,54.8,0,0,0-2.784-19.984c-7.638-21.133-30.572-31.587-48.63-44.961a132.844,132.844,0,0,1-44.53-59c-8.85-23.1-16.193-49.6-18.728-74.243-.363-3.527-1.681-7.993-5.218-8.213q46.7,33.624,91.449,69.857c1.991,1.613,4.177,3.306,6.737,3.4a11.867,11.867,0,0,0,5.1-1.383,872.106,872.106,0,0,0,174.776-103.1c7.66-5.821,15.749-12.492,25.03-15.535,8.174-2.68,12.555-1.675,18.956-8.382,9.227-9.666,24.6-34.763,19.294-49.119,11.749,31.8,9.2,51.882-3.675,84.885-13.459,34.482-48.463,92.875-61.222,127.632-23.855,64.981-29.293,77.222-24.334,143.226"
    /><path
      class="cls-18"
      d="M918.264,959.436c4-6.983,5.831-3.275,6.593.431.79,3.851.43,7.7.154-.431-1.5-44.316-11.634-41.709,1.134-84.173q18.55-61.707,40.8-122.218c-57.175,41.83-104.278,64.075-171.747,85.678-4.477,1.433-9.089,2.883-13.776,2.538-8.576-.631-15.481-7.011-21.57-13.085C729.67,798.061,699.889,764.91,688.4,723.851l74.243,47.077c4.839,3.069,12.394,10.25,18.182,10.8,4.383.42,10.467-3.748,14.292-5.485q17.559-7.977,34.753-16.726a872.1,872.1,0,0,0,132.022-82.793c7.661-5.82,15.749-12.491,25.03-15.534,8.174-2.68,12.555-1.675,18.956-8.382,9.227-9.666,24.6-34.763,19.294-49.119,11.749,31.8,8.216,45.972-4.665,78.974-13.458,34.481-47.473,98.786-60.232,133.543-23.855,64.981-29.287,88.059-24.334,143.226.4,4.507,3.356,2.8,4.214,1.091.664-1.318.081-2.638-3.891-1.091-6.993,2.725-11.156.122-18,0"
    /><path
      class="cls-9"
      d="M936.308,206.548q1.091.847,2.16,1.719c9.546,7.775,18.149,17.007,28.664,23.205,18.046,10.635,40.042,11.375,58.472,21.237,29.909,16,44.981,53.423,47.472,89.381,1.769,25.52-5.111,58.12,3.917,82.243,8.945,23.9,20.29,45.958,10.931,73.059-10.458-4.212-22.181,1.068-32,7.088-16.422,10.064-28.375,15.833-46.874,21.239-32.172,9.4-69.7-.729-85.435-31.827-2.272-4.494-8.023-13.639-11.38-26.6-.108-.42,44.09-13.73,51.313-50.185,1.744-8.8,6.022-17.261,5.037-26.163a9.249,9.249,0,0,0-1.9-5.286c-2.749-3-7.554-1.369-10.934.9s-7.142,5.129-10.932,3.985c-6.262-1.891-5.587-11.366-6.279-18.325-.939-9.451-6.887-17.589-14.19-22.864s-15.9-8.091-24.412-10.627c-14.141-4.216-29.981-4.551-43.413-9.6-14.852-5.582-28.293-16.516-38.614-29.012-18.786-22.745-19.679-61.376-2.129-85.775,14-19.462,37.232-30.054,59.957-30.17,21.824-.112,43.02,8.731,60.572,22.383"
    /><path
      class="cls-10"
      d="M854.047,201.829a27.313,27.313,0,0,0-7.013.933c-41.359,11.091-41.989,70.112-15.754,96.876,11.666,11.9,27.424,18.232,43.284,21.649s32.144,4.2,48.178,6.63c6.913,1.049,13.859,2.431,20.215,5.466,55.735,26.624,27.618,118.428-18.052,139.637,5.554,10.413,12.191,20.441,21.109,28.169a53.539,53.539,0,0,0,35.962,13.576c9.738,0,19.705-2.39,29.488-6.54,9.917-4.207,19.8-9.854,26.134-19.1a47.947,47.947,0,0,0,6.072-13,125.954,125.954,0,0,0,3.928-19.386c6.813-47.612,9.48-97.977-8.221-141.8-10.446-25.863-29.153-47.83-56.467-47.83-.679,0-1.36.014-2.049.041q-11.658.464-23.319.463-18.836,0-37.628-1.207c-18.795-1.206-51.567-.351-51.494-29.456.023-9.264,4.751-19.23.651-27.309-2.835-5.586-8.862-7.823-15.024-7.823"
    /><path
      class="cls-15"
      d="M949.067,390.76l6.688-4.434c4.616-3.06,10.013-6.244,15.12-4.5,4.248,1.446,6.973,6.1,7.622,10.845s-.423,9.584-1.7,14.211a47.493,47.493,0,0,1-5.207,12.9,34.568,34.568,0,0,1-8.237,8.731c-3.85,2.96-8.212,5.333-12.883,5.971a15.047,15.047,0,0,1-13-4.157c-3.317-3.512-4.528-9.4-2.235-13.846"
    /><path
      class="cls-11"
      d="M625.313,638.664c.146-.508.29-1.015.436-1.523a14.862,14.862,0,0,1,1.145-3.121,13.376,13.376,0,0,1,2.059-2.651c2.624-2.793,5.7-5.015,8.442-7.652,2.607-2.5,5.993-3.723,9.119-5.555,8.676-5.085,12.05-10.138,17.806-18.386,2.71-3.883,9.239-6.951,13.188-2.347,1.195,1.393,5.971,8.325,5.22,14.037-1.04,7.9.6,10.707-3.163,17.73s-9.3,12.972-15.418,18.075c-8.031,6.7-19.419,13.9-30.4,13.04a10.167,10.167,0,0,1-7.161-3.527c-1.618-1.946-3.746-4.789-3.81-7.37a16.806,16.806,0,0,1,.887-4.955q.825-2.9,1.65-5.795"
    /><path
      class="cls-14"
      d="M788.028,739.924C751.543,668.061,684.1,626.023,637,560.807c-1.949-2.7.266-11.331.475-14.236.441-6.133.357-13.029-1.481-18.914-4.525-14.487-15.686-25.607-22.152-39.137a64.685,64.685,0,0,1-5.768-19.494c-1.018-7.816-.611-15.841-2.576-23.474-.465-1.805-1.151-3.7-2.682-4.768-2.4-1.666-5.8-.536-8,1.382a13.7,13.7,0,0,0-4.6,9.105c-.344,4.208,1.271,8.289,2.381,12.362,3.409,12.517,1,55.788-21.746,47.229-7.751-2.917-14.384-8.029-20.188-13.849q-7.442-7.464-14.547-15.253a20.707,20.707,0,0,1-3.244-4.26c-1.319-2.537-1.551-5.475-2.041-8.292a43.328,43.328,0,0,0-10.589-21.61,7.439,7.439,0,0,0-3.222-2.367,2.878,2.878,0,0,0-3.453,1.329,4.27,4.27,0,0,0-.2,1.76q.3,11.734.607,23.469a17.932,17.932,0,0,0,5.278,14.293c1.024,1.256,7.189,9.822,6.815,9.626-1.68-.88-8.088-4.078-9.525-5.063A174.107,174.107,0,0,1,497.675,475.7c-4.053-3.694-8.071-7.672-13.167-9.7-5.472-2.174-21.154.6-12.65,8.636,1.667,1.575,3.817,2.544,5.585,4.005,3.168,2.619,3.16,2.572,3.16,2.572s-8.668,1.3-7.612,9.037c.293,2.144,32.783,25.333,34.217,26.955-2.035-2.1,36.807,40.839,58.583,51.943,4.99,2.545,24.972,7.909,29.515,11.055,5.141,3.561,56.346,95.895,106.311,170.746C707.824,760.255,794.515,752.7,788.028,739.924Z"
    /><path
      class="cls-16"
      d="M634.187,560.445c4.786-8.955,4.79-23.242,1.808-32.788-4.525-14.487-15.686-25.607-22.152-39.137a64.685,64.685,0,0,1-5.768-19.494c-1.018-7.816-.611-15.841-2.576-23.474-.465-1.805-1.151-3.7-2.681-4.768-4.675-3.25-10.316,2.975-12.143,6.756,1.789-2.143,4.191-4.511,6.913-3.9a5.355,5.355,0,0,1,3.656,4.235,20.231,20.231,0,0,1,.012,5.882c-.721,9.623,1.518,19.208,4.074,28.513a71.785,71.785,0,0,0,4.154,12.029c2.65,5.545,6.807,9.74,9.884,15.021a195.045,195.045,0,0,1,9.759,19.091,55.229,55.229,0,0,1,3.847,10.972,64.31,64.31,0,0,1,.991,11.694Z"
    /><path
      class="cls-15"
      d="M668.329,685.923c3.7-2.63,6.8-6.922,9.94-10.257q5.922-6.3,11.4-12.988a1.623,1.623,0,0,0,.055-2.485c-14.781-20.661-15.5,13.358-32.081-5.889-9.273-10.764-48.438-76.653-49.009-76.669a42.869,42.869,0,0,1-9.965-1.539c-12.155-3.914-20.256-6.895-32.419-10.563-14.815-4.467-22.106-15-40.853-29.474,12.191,12.133,25.125,25.313,40.39,33.1,4.991,2.545,24.972,7.909,29.515,11.055,2,1.389,3.427,4.415,4.717,6.392,3.3,5.065,6.431,10.248,9.563,15.42,10.163,16.779,20.142,33.668,30.257,50.475,7.6,12.633,13.432,26.5,23.638,37.339C664.757,688.186,666.628,687.131,668.329,685.923Z"
    /><path
      class="cls-15"
      d="M538.412,527.108c-2.285-.208-21.809-13.949-23.322-14.742-6.924-3.629-19.416-18.664-33.835-31.314a8.517,8.517,0,0,0-4.682,1.7,7.918,7.918,0,0,0-3.861,6.9,4.149,4.149,0,0,1,2.425-2.047c2.375-.7,4.25-1.161,6.915,1a128.082,128.082,0,0,1,10.81,9.7c3.45,3.544,10.477,9.98,13.928,13.524,3.61,3.707,8.756,4.85,14.474,7.931A130.2,130.2,0,0,0,538.412,527.108Z"
    /><path
      class="cls-15"
      d="M544.15,519.108c-9.993-12.027-11.284-16.921-17.715-23.2,0,0-22.828-14.792-28.76-20.2-4.053-3.694-8.071-7.672-13.168-9.7-5.424-2.154-12.622-1.409-15.213,3.433,4.09-1.618,8.611.757,12.182,3.326,12.766,9.182,19.45,18.761,34.176,24.277,4.541,1.7,7.89,2.437,11.466,5.331C532.777,506.951,539.831,513.25,544.15,519.108Z"
    /><path
      class="cls-15"
      d="M580.5,511.414c-10.1,4.458-23.171-7.713-29.84-14.4q-7.442-7.464-14.547-15.253a20.707,20.707,0,0,1-3.244-4.26c-1.319-2.537-1.551-5.475-2.041-8.292a43.328,43.328,0,0,0-10.589-21.61,7.439,7.439,0,0,0-3.222-2.367c-2.6-.755-3.965,1.544-4,3.851,1.363-1.108,3.265.458,4.23,1.925a49.656,49.656,0,0,1,7.3,18.088,61.758,61.758,0,0,0,1.656,8.087,31.552,31.552,0,0,0,3.486,6.887A92.9,92.9,0,0,0,550.257,507c4.354,3.468,9.153,6.6,14.576,7.854S576.424,515.205,580.5,511.414Z"
    /><path
      class="cls-11"
      d="M670.747,625.5c4.186-4.2,8.056-9.1,9.267-14.9s-.961-12.671-6.282-15.3c5.268.28,8.275,5.9,10.768,10.55,11.814,22.024,33.64,42.357,51.288,60.055,23.983,24.048,48.987,47.275,62.3,76.2,37.838-29.729,60.634-57.213,86.1-87.3,19.929-23.545,84.323-97.191,110.71-88.139,33.644,11.492,41.18,39.808,44.045,59.538,1.388,9.56-.756,19.246-3.035,28.632-5.936,24.454-23.992,50.236-42.065,67.749-7.121,6.9-15.567,12.254-23.947,17.554-63.068,39.89-116.509,79.8-187.3,103.411-2.739.912-5.617,1.812-8.467,1.349-2.707-.44-5.055-2.054-7.3-3.631-22.524-15.844-44.741-32.362-64.05-52-22.9-23.29-34.29-57.819-51.013-85.75-8.436-14.089-23.717-37.364-31.162-52.006-2.04-4.012,3.028-12.684,6.043-17.267,0,0-5.441,13.546,1.433,14.167,22.816,2.062,31.68-11.865,42.671-22.908"
    /><path
      class="cls-19"
      d="M620.129,649.254a5.215,5.215,0,0,0,.339,1.961,5.215,5.215,0,0,1-.339-1.961m6.514-15.016,0,0,0,0"
    /><path
      class="cls-20"
      d="M834.264,822.349l-.073.035.073-.035m3.167-1.553q-1.52.751-3.047,1.494,1.366-.663,2.729-1.337l.318-.157M945.462,756l-.9.4q-12,7.794-23.745,15.436c10.742-6.656,19.684-12.368,24.646-15.841"
    /><path
      class="cls-21"
      d="M626.641,634.24c-2.531,3.849-6.511,10.58-6.512,15.014a5.215,5.215,0,0,0,.339,1.961c.04.1.084.195.132.289,7.445,14.642,22.726,37.917,31.162,52.006,16.723,27.931,28.111,62.46,51.013,85.75,19.309,19.636,41.526,36.154,64.05,52,2.242,1.577,4.59,3.191,7.3,3.631a9.923,9.923,0,0,0,1.6.126,22.228,22.228,0,0,0,6.865-1.475,433.544,433.544,0,0,0,51.6-21.156l.073-.035.12-.059q1.525-.743,3.047-1.494c12.08-6.036,54.314-30.943,83.385-48.954q11.779-7.625,23.745-15.436C916,769.33,828.536,816.643,799.849,825c-6.661,1.939-13.609,3.781-20.469,3.781a32.457,32.457,0,0,1-7.81-.9c-5.8-1.432-10.99-4.639-15.85-8.106-23.465-16.74-42.351-31.871-59.22-55.241-22.074-30.58-42.209-70.01-63.529-101.12-5.154-7.518-12.385-19.957-6.33-29.168"
    /><path
      class="cls-17"
      d="M675.123,629.83q.678-1.03,1.247-2.083a47.736,47.736,0,0,0,5.091-13.152c.238-1.157.032-15.318-1.049-15.37,1.926.882,4.838,3.459,5.2,5.2a16.423,16.423,0,0,0,1.752,4.038c.037-.263,54.7,63.462,67.908,76.944,12.971,13.238,25.622,27.068,35.387,42.9a129.146,129.146,0,0,1,7.428,13.786c37.84-29.729,60.635-57.213,86.1-87.3,19.929-23.546,55.773-87.206,105.749-94.605,26.862,9.5,43.775,24.143,49.005,66,2.191,17.54-3.1,29.094-9.11,47.307,10.889-20.064,20.044-119.264-61.882-85-31.488,13.17-96.692,103.91-108.588,116.148a351.3,351.3,0,0,1-43.219,38.114,10.378,10.378,0,0,0-3.727,3.9,10.161,10.161,0,0,0-.605,3.422q-.83,13.782-1.658,27.566c-6.2-9.3-36.317-42.037-43.076-50.507-11.654-14.6-65.733-85.387-76.895-94.721a5.968,5.968,0,0,1-2.046-2.457c-.548-1.613.333-3.555-.541-5.016q-8.7,8.476-17.884,16.431a74.972,74.972,0,0,1-9.372,7.214,41.709,41.709,0,0,1-28.94,5.581c8.853.67,17.666-2.516,25.1-7.368C662.98,642.583,670.71,636.545,675.123,629.83Z"
    /><rect class="cls-22" x="24.903" y="946.659" width="1151.194" height="34.938" /><path
      class="cls-23"
      d="M812.375,947.555H191.537a11.647,11.647,0,0,0,0,23.293H812.375a11.647,11.647,0,0,0,0-23.293Z"
    /><path
      class="cls-24"
      d="M609.653,933.229H231.45c-12.721,0-33.713-18.682-35.895-31.214l-44.1-253.245c-2.787-16.007,19.647-30.659,35.9-30.659h378.2a26.17,26.17,0,0,1,25.781,21.681l44.1,253.245C638.222,909.044,634.228,933.229,609.653,933.229Z"
    /><path
      class="cls-25"
      d="M613.335,933.229H215.392a16.447,16.447,0,0,1-16.2-13.625L151.708,646.913a16.446,16.446,0,0,1,16.2-19.267H565.853a16.446,16.446,0,0,1,16.2,13.625l47.482,272.691A16.446,16.446,0,0,1,613.335,933.229Z"
    /><path
      class="cls-24"
      d="M618.846,957.693H228.263a12.87,12.87,0,0,1-12.871-12.871V933.229H618.846Z"
    /><path
      class="cls-24"
      d="M618.846,957.693H796.3a12.87,12.87,0,0,0,12.871-12.871V933.229H618.846Z"
    /><circle class="cls-26" cx="384.331" cy="789.229" r="43.621" /></g></svg>
