<svg
  xmlns="http://www.w3.org/2000/svg"
  xmlns:xlink="http://www.w3.org/1999/xlink"
  viewBox="0 0 1200 1200"
><defs><style
    >.cls-1{fill:url(#linear-gradient);}.cls-2{fill:#c2cad4;}.cls-3{fill:#dbecfe;}.cls-4{fill:#3297f5;}.cls-5{fill:#cae3fc;}.cls-6{fill:#93c5fa;}.cls-7{fill:#9e7744;}.cls-8{fill:#b5d7fb;}.cls-9{fill:#a6cffb;}.cls-10{fill:#82c0f9;}.cls-11{fill:#53a8f7;}.cls-12{fill:#916b3d;}.cls-13{fill:#c1defc;}.cls-14{fill:#0058b0;}.cls-15{fill:#044ca3;}.cls-16{fill:#186acb;}.cls-17{fill:#d4e8fd;}.cls-18{fill:#473a22;}.cls-19{fill:#bcdbfc;}.cls-20{fill:#deeefe;}.cls-21{fill:#e5f1fe;}.cls-22{fill:#3a2d1a;}.cls-23{fill:#e0effe;}.cls-24{fill:#cce4fc;}.cls-25{fill:#ffd840;}.cls-26{fill:#00de91;}.cls-27{fill:#005491;}.cls-28{fill:#6db2f8;}.cls-29{fill:#ccf8e9;}.cls-30{fill:#00d884;}.cls-31{fill:#ffe272;}.cls-32{fill:#caa864;}.cls-33{fill:#c59f56;}.cls-34{fill:#d2b57b;}.cls-35{fill:#634f17;}.cls-36{fill:#574413;}.cls-37{fill:#e5eef7;}.cls-38{fill:#0052aa;}.cls-39{fill:#0f62b5;}.cls-40{fill:#00cd6d;}.cls-41{fill:#33e4a7;}.cls-42{fill:#0ddf97;}.cls-43{fill:#04427f;}.cls-44{fill:#84c1f9;}.cls-45{fill:#72b7f8;}.cls-46{fill:#5bacf7;}.cls-47{fill:#59abf7;}.cls-48{fill:#00c864;}.cls-49{fill:#2893e0;}.cls-50{fill:#a2a45b;}.cls-51{fill:#9e9b4f;}.cls-52{fill:#42e6ae;}.cls-53{fill:#36e5a8;}.cls-54{fill:#d8c08b;}.cls-55{fill:#907032;}.cls-56{fill:#efc060;}.cls-57{fill:#dde9f7;}.cls-58{fill:#bbaf87;}.cls-59{fill:#1561c5;}.cls-60{fill:#5190d8;}.cls-61{fill:#2f79d0;}.cls-62{fill:#fff7d9;}.cls-63{fill:#d8ba76;}.cls-64{fill:#1867ad;}.cls-65{fill:#ffd136;}.cls-66{fill:#ccb079;}.cls-67{fill:#f9c932;}.cls-68{fill:#ffe274;}.cls-69{fill:#0959aa;}.cls-70{fill:#074d9f;}</style><linearGradient
      id="linear-gradient"
      x1="1971"
      y1="-3732"
      x2="1972"
      y2="-3732"
      gradientTransform="matrix(1020, 0, 0, -1989, -2010350, -7421824.5)"
      gradientUnits="userSpaceOnUse"
    ><stop offset="0" stop-color="#fff" /><stop offset="0.039" stop-color="#fff" /><stop
        offset="0.537"
        stop-color="#ccd3db"
      /><stop offset="0.961" stop-color="#f9f8f9" /><stop
        offset="1"
        stop-color="#f9f8f9"
      /></linearGradient></defs><g id="Layer_2" data-name="Layer 2"><rect
      class="cls-1"
      x="70"
      y="1101"
      width="1020"
      height="45"
    /><path
      class="cls-2"
      d="M546.05,1101h240.9a6.049,6.049,0,0,1,6.049,6.049v3.9a6.05,6.05,0,0,1-6.05,6.05h-240.9a6.049,6.049,0,0,1-6.049-6.049v-3.9A6.05,6.05,0,0,1,546.05,1101Z"
    /><rect class="cls-2" x="108" y="1101" width="318" height="16" rx="6.782" /><rect
      class="cls-2"
      x="711"
      y="1112"
      width="318"
      height="16"
      rx="6.782"
    /><path
      class="cls-3"
      d="M646.682,1005.637q2.056,26.223,4.111,52.449a2.561,2.561,0,0,0,3.171,3.051l32.1-1.728,1.1-59.584"
    /><path
      class="cls-4"
      d="M690,1074c4.333-9.279,0-25-3.968-27.179-2.712,4.293-8.758,6.667-13.308,3.547a19.426,19.426,0,0,1-4.205-4.541c-4.744-6.244-11.136-12.447-18.977-12.368-3.218.032-6.605,1.352-8.3,4.091s-1,6.941,1.889,8.366l-41.88,36.063c-4.2,3.614-11.444,9.935-9.255,15.021a14.591,14.591,0,0,0,7,7c14.264,5.9,31.153,7.557,44-1C664.077,1088.963,685.1,1084.5,690,1074Z"
    /><path
      class="cls-3"
      d="M747.041,1004.4q4,26,8,52a3.426,3.426,0,0,0,1.271,2.624,3.388,3.388,0,0,0,2.118.183l31.888-4.112q-1.671-29.75-3.343-59.5"
    /><path
      class="cls-4"
      d="M788.72,1079.258a8.01,8.01,0,0,0,2.1-1.627,8.813,8.813,0,0,0,1.121-1.768c4.146-8.056,4.373-18.893-1.986-25.348-3.656,3.892-9.717,6.032-14.1,1.647a19.444,19.444,0,0,1-3.273-5.254c-3.48-7.026-8.587-14.324-16.3-15.725-8.976-1.631-8.883,4.821-11.371,11.107a14.207,14.207,0,0,1-3.193,4.37c-12.142,12.735-25.218,24.541-38.44,36.15-3.547,3.113-7.184,6.311-9.388,10.484s-2.688,9.6.059,13.438c2.308,3.223,6.328,4.687,10.166,5.679a79.374,79.374,0,0,0,12.176,2.151,32.828,32.828,0,0,0,7.274.052c5.927-.749,11.2-4,16.289-7.121q23.622-14.5,47.988-27.747C788.134,1079.587,788.429,1079.426,788.72,1079.258Z"
    /><path
      class="cls-5"
      d="M685.512,348.477q-.636.3-1.261.607c-8.912,4.429-16.718,10.771-25.241,15.907a105.828,105.828,0,0,1-20.3,9.46c-4.571,1.566-9.273,2.827-13.606,4.965-19.7,9.716-36.218,29.643-28.688,52.634.788,2.408,2.011,4.936,4.319,5.982a9.341,9.341,0,0,0,5.5.25c5.615-1.01,47.519-11.4,54.4-12.661,10.82-1.984,21.06-6.336,30.956-11.141,11.068-5.373,22.139-11.6,29.823-21.208s11.316-23.351,6.085-34.487a25.794,25.794,0,0,0-14.4-13.133C704.165,342.428,694.148,344.444,685.512,348.477Z"
    /><path
      class="cls-6"
      d="M528.884,385.471a16.518,16.518,0,0,0,3.8-13,9.141,9.141,0,0,0-1.584-4.233c-1.372-1.82-2.364-3.451-4.478-4.3-.76-.307-.215-.806-1.025-.682a26.972,26.972,0,0,0-4.264,1.652c-5.738,3.7-8.42,10.825-13.786,15.05-3.752,2.953-4.624,5.025-4.134,7,.852,3.426,5.618,4.829,9.131,5.175a11.043,11.043,0,0,0,5.154-.42,12.793,12.793,0,0,0,4.641-3.891l5.837-6.749"
    /><path
      class="cls-7"
      d="M544.562,403.445a13.276,13.276,0,0,0,2.221-1.133c4.723-3,7.035-8.959,6.641-14.541-.606-8.605-8.069-11.209-14.766-14.487-7.432-3.636-14.772-7.627-21.117-12.993-8.9-7.529-15.439-17.392-22.538-26.639-1.531-2-3.19-4.043-5.5-5.042a14.75,14.75,0,0,0-5.19-.907q-7.981-.385-15.975-.056,2,10.789,4,21.577c.857,4.626,1.735,9.313,3.767,13.556s5.393,8.061,9.838,9.6c1.835.636,9.581.843,11.337,1.672,2.23,1.051,4.128,3.8,5.723,5.572,3.168,3.528,6.206,7.176,9.221,10.836,2.73,3.314,7.243,5.488,10.979,7.709s5.068,5.016,9.34,5.867C536.527,404.832,540.845,404.93,544.562,403.445Z"
    /><path
      class="cls-5"
      d="M624.484,420.381c-1.444,8.489-13.428,19.63-25.442,17.872-11.726-1.716-43.375-11.376-52.568-16.373-13.062-7.1-24.751-18.675-27.5-25.155-.164-.388,1.752-8.886,5.573-11.908,1.81-1.429,3.717-2.759,5.445-4.29,1.61-1.426,4.3-6.008,6.223-7.139,3.853-2.267,18.877,2.291,27.262,6.278,11.356,5.4,43.06,10.228,45.376,12.4C613.769,396.684,625.8,412.62,624.484,420.381Z"
    /><path
      class="cls-8"
      d="M540.705,372.846c-4.2-3.2-3.483-3.393-6.482-5.3-2.2-1.4-4.3-3.127-6.852-3.665a4.738,4.738,0,0,1,1.41,2.022c1.118,3.116,2.177,5.656,1.073,8.777a23.149,23.149,0,0,1-5.611,8.1,29.538,29.538,0,0,1-8.914,6.739,13.494,13.494,0,0,1-10.906.374c5.355,2.487,11.963,5.429,16.344,9.388a6.163,6.163,0,0,0,2.5.88A21.908,21.908,0,0,0,531,397.9c3.176-1.763,3.908-4.343,5.853-7.412C539.812,385.811,539.469,373.816,540.705,372.846Z"
    /><path
      class="cls-3"
      d="M527.812,365.706c1.105,1.455.872,3.9.768,5.727-.441,7.679-6.813,13.852-13.793,17.086-2.308,1.069-4.9,1.92-7.365,1.289s-4.537-3.289-3.691-5.688c-1.855,1.865-.695,5.354,1.618,6.607s5.165.848,7.681.08a30.509,30.509,0,0,0,16.748-12.824c1.759-2.8,3.08-6.131,2.422-9.374-.764-3.769-5.2-7.011-8.787-4.5A4.028,4.028,0,0,1,527.812,365.706Z"
    /><polygon
      class="cls-9"
      points="627 99 538.16 160.175 417.237 138.59 498.438 77.612 627 99"
    /><polygon
      class="cls-4"
      points="626.916 99.439 538.16 160.175 511.182 286.51 584.537 370.75 669.629 304.858 689.688 179.076 626.916 99.439"
    /><polygon
      class="cls-10"
      points="511.182 286.51 538.16 160.175 417.237 138.59 389.852 264.827 511.182 286.51"
    /><polygon
      class="cls-11"
      points="511.182 286.51 584.877 370.555 463.328 348.94 389.852 264.827 511.182 286.51"
    /><path
      class="cls-7"
      d="M488.346,355.066c-1.464-3.48-4.545-5.721-7.486-7.791q-.12-4.255-.241-8.513a22.925,22.925,0,0,0-.174-2.611c-.526-3.651-3.176-7.71-6.813-7.924a1.3,1.3,0,0,0-1.161.388,1.823,1.823,0,0,0-.2,1.241q.189,2.413.376,4.826a24.366,24.366,0,0,0-1.642-5.5,7.2,7.2,0,0,0-3.79-3.812,3.374,3.374,0,0,0-3.086.282,2.6,2.6,0,0,0-.917,3.042c-2.051-.961-4.743-1.433-6.346.349-1.337,1.485-1.266,3.823-1.1,5.864-.8-.534-1.752-1.086-2.648-.716-1.192.493-1.431,2.2-1.469,3.579q-.255,9.091-.508,18.183a6.763,6.763,0,0,0,.154,2.063c.455,1.565,1.934,2.42,3.287,3.124l10.313,5.359a6.678,6.678,0,0,0,2.89.977,3.776,3.776,0,0,1,.934.05,3.393,3.393,0,0,1,1.333,1.076,5.269,5.269,0,0,0,7.675-.5,3.571,3.571,0,0,0,4.5,1.806,10.064,10.064,0,0,0,4.246-3.448,4.64,4.64,0,0,0,3.646-1.291,23.5,23.5,0,0,0,2.742-3.126,30.5,30.5,0,0,1,6.326-5.859"
    /><path
      class="cls-12"
      d="M472.646,334.682s1.041,9.1,1.567,13.748,3.511,19.677,3.511,19.677l-6.211-19.789S469.914,333.5,467.68,329s-4.156-2.73-4.156-2.73,2.165-3.256,5.456.165A14.873,14.873,0,0,1,472.646,334.682Z"
    /><path
      class="cls-12"
      d="M468.085,366.585l-5.539-16.162.665-21.725a5.459,5.459,0,0,0-4.7-.679,8.245,8.245,0,0,1,2.383,4.709c.213,2.668-1.43,14.042-.652,17.971S468.085,366.585,468.085,366.585Z"
    /><path
      class="cls-12"
      d="M455,334.976l-.217,16.787,7.956,12.774s-8.175-9.311-8.953-12.1.261-18.011-.671-18.24C453.115,334.2,455.017,333.661,455,334.976Z"
    /><path
      class="cls-13"
      d="M685.931,349.81a15.318,15.318,0,0,0-3.578,1.71c-3.381,2.2-5.651,5.717-7.73,9.175q-3.786,6.294-7.186,12.808c-4.384,8.394-8.3,17.076-13.576,24.938s-12.123,14.986-20.788,18.808a40.868,40.868,0,0,1-8.4,2.619c-3.116.631-6.4.434-9.473,1.07a52.1,52.1,0,0,1-17.624.98,112.686,112.686,0,0,1-22.57-5.1c-19.4-6.544-31.142-9.775-50.666-15.943,5.849,12.241,26.8,21.437,47.053,28.75,10.62,3.835,30.115,7.868,33.5,7.035,14.263-3.508,43.938-8.874,55.731-11.037,10.82-1.984,21.06-6.336,30.956-11.141,11.068-5.373,22.139-11.6,29.823-21.208,5.287-6.613,7.131-13.694,8.693-21.8,1.44-7.474-3.423-13.281-9.978-16.822-5.624-3.038-12.06-4.151-18.384-5.089C696.5,348.786,690.834,348.185,685.931,349.81Z"
    /><path
      class="cls-14"
      d="M658.23,556.669c.358,21.466-36.855,181.954-34.383,223.209,1.5,25.047,3.548,67.779,5.4,92.8,2.437,32.917,11.875,96.894,14.312,129.811.127,1.717.313,3.574,1.479,4.84,1.227,1.334,3.184,1.63,4.977,1.895,16.5,2.435,23.474-2.466,38.834,1.325,2.487-53.751-4.614-170.294-3.36-224.088.56-24.019,52.573-90.313,51.976-167.869-.026-3.366-13.455-18.107-14.977-21.109-1.432-2.825-3.948-4.918-6.4-6.928l-29.729-24.412"
    /><path
      class="cls-15"
      d="M688.849,1010.552c2.487-53.751-4.614-170.293-3.36-224.088.275-11.767,7.7-23.99,12.592-34.31,8.579-18.084,17.288-36.1,24.171-54.918,8.145-22.265,13.55-45.178,15.016-68.873,1.125-18.182-22.51-41.151-34.835-53.674-9.75-9.9-20.82-18.583-33.431-24.547,7.421,20.631,7.574,43.284,4.238,64.954s-10.021,42.656-16.057,63.734c-11.465,40.039-20.709,81.194-20.239,122.84.172,15.2,1.637,30.345,3.1,45.472l15.813,163.432C658.118,1009.863,688.985,1007.625,688.849,1010.552Z"
    /><path
      class="cls-14"
      d="M775.6,571.188c15.348,25.919,15.051,57.827,14.743,87.949-1.135,110.924-11.741,243.332-1.131,353.754-18.262-4.764-24.056-2.223-42.889-1C730.774,903.779,712.5,784.138,711.8,778.928c-1.789-13.35-12.727-136.172-21.705-198.6l85.508-9.135"
    /><path
      class="cls-16"
      d="M694.067,997.517q-.981,10.194-1.964,20.391c-4.55-2.665-10.234-1.746-15.482-1.25-10.9,1.033-34.327-4.056-35.224-3.762s-3.246-17.991-1.784-28.017a129.332,129.332,0,0,0,25.953.681C675.7,984.8,695.558,982.048,694.067,997.517Z"
    /><path
      class="cls-16"
      d="M789.955,1018c-6.44-3.052-13.96-1.944-21.062-1.358a128.681,128.681,0,0,1-20.041.088,8.634,8.634,0,0,1-3.234-.678,6.707,6.707,0,0,1-2.438-2.3c-5.07-7.361-1.762-17.561-4.245-26.147a65.414,65.414,0,0,0,26.86,1.951c5.538-.756,21.743-6.123,25.382-.068,1.762,2.933.936,9.545.858,12.808A73.539,73.539,0,0,1,789.955,1018Z"
    /><path
      class="cls-17"
      d="M773.064,559.879q2.668,4.106,5.336,8.213a9.3,9.3,0,0,1,1.854,4.329c.121,2.006-17.631,24.4-44.439,30.236-57.954,12.607-82.351-18.347-82.72-19.32a7.14,7.14,0,0,1-.345-2.017q-.894-12.131-1.787-24.259,18.645.22,37.288.443"
    /><path
      class="cls-18"
      d="M699.259,221.137c-1.351,6.725-1.1,11.571,5.029,23.3,5.605,10.726,7.911,19.2,13.773,25.631l14.272-18.491a4.514,4.514,0,0,0,1.271-2.848,4.341,4.341,0,0,0-1.178-2.344A59.984,59.984,0,0,0,716.86,232.8"
    /><path
      class="cls-6"
      d="M712.747,359.647a39.869,39.869,0,0,1,.613-25.509,6.174,6.174,0,0,1,.816-1.644,6.277,6.277,0,0,1,2.363-1.668,41.047,41.047,0,0,1,5.863-2.319,69.852,69.852,0,0,1,11.792-2.153l43.763-5.417a8.293,8.293,0,0,1,4.448.263,6.052,6.052,0,0,1,2.431,2.255,15.892,15.892,0,0,1,2.327,7.434,27,27,0,0,1-19.756,28.442c-4.84,1.327-9.942,1.281-14.889,2.118-3.039.515-6.02,1.363-9.082,1.709a56,56,0,0,1-8.945.055l-15.928-.753c-.506-.023-1.056-.8-.549-.8"
    /><path
      class="cls-7"
      d="M771.635,290.684c-3.7,10.106-6.632,20.7-6.347,31.457s4.132,21.785,12.184,28.926c-7.252,6.525-14.657,13.151-23.544,17.175s-19.655,5.1-28.227.447c-7.075-3.84-11.689-10.92-16-17.716,2.715-.109,7.6-5.767,8.5-8.33a63.567,63.567,0,0,0,3.878-20.616c.02-2.345-.072-4.775.841-6.936a15.118,15.118,0,0,1,3.047-4.663c6.911-7.035,11.608-10.289,20.284-14.979"
    /><path
      class="cls-12"
      d="M709.7,350.973c2.715-.109,7.6-5.767,8.5-8.33a63.567,63.567,0,0,0,3.878-20.616c.02-2.345-.072-4.775.841-6.936a15.117,15.117,0,0,1,3.046-4.662,75.451,75.451,0,0,1,11.092-9.507c4.072-2.79,7.86-1.813,12.158-4.013,2.23-1.141,4.292-2.6,6.563-3.655a41.311,41.311,0,0,1,6.942-2.27l6.388-1.677c3.689-.969,3.1,9.362,2.655,11.715-1.193,6.26-.368,7.575-6.149,10.257a112.482,112.482,0,0,0-24.564,16.235c-4.67,4.336-4.8,9.511-2.671,15.516,1.522,4.283,5.5,7.332,9.793,8.83,3.062,1.07,6.108,1.127,9.262,1.616,2.314.357,4.679,1.976,7.008,1.336,1.409-.388,2.9-1.03,4.269-.528a.784.784,0,0,1,.558.509.9.9,0,0,1-.252.666,108.5,108.5,0,0,1-7.977,9.593,29.645,29.645,0,0,1-7.187,6.038c-7.9,4.321-17.778,2.677-25.392-1.126a34.039,34.039,0,0,1-10.782-7.852C716.582,360.9,710.591,350.938,709.7,350.973Z"
    /><path
      class="cls-12"
      d="M709.7,350.973c2.715-.109,7.6-5.767,8.5-8.33a61.473,61.473,0,0,0,3.851-20.616c-.043-5.839,1.623-11.265,6.655-14.784,2.462-1.722,5.39-2.729,7.723-4.622-3.66,7.486-6.645,15.428-7.454,23.723s.713,17.013,5.429,23.885a46.343,46.343,0,0,0,7.57,8.18c4.4,3.922,9.292,7.618,15.04,8.914.64.145-4.088,4.546-4.707,4.823-2.008.9-4.4.952-6.552,1.267-5.863.86-12.057-.834-17.294-3.449a34.039,34.039,0,0,1-10.782-7.852C716.582,360.9,710.591,350.938,709.7,350.973Z"
    /><path
      class="cls-3"
      d="M803.02,374.171c9.692,6.715,14.733,18.789,15.086,30.575s-3.453,23.34-8.51,33.992c-4.681,9.859-10.738,19.03-15.672,28.687-5.026,9.835-7.866,21.646-10.841,32.243-6.188,22.032-8.462,28.865-10.2,51.685-.518,6.785-.919,13.871-4.322,19.763-3.267,5.658-8.936,9.519-14.784,12.432-27.263,13.583-62.543,8.984-85.414-11.133-20.543-18.069-26.7-28.49-26.784-54.692-.083-26.813,3.146-53.273,6.235-79.842,2.761-23.757,11.087-46.461,19.349-68.9,1.3-3.545,2.639-7.144,4.885-10.182,6.834-9.239,19.791-10.82,31.255-11.621,2.741-.193,5.6-.364,8.126.721a20.358,20.358,0,0,1,4.979,3.6c7.016,6.031,9.593,16.641,18.662,18.472,6.971,1.407,20.1-4.929,27.162-5.8,8.691-1.077,17.465-3.347,26.088-1.817s17.192,8.469,16.757,17.216"
    /><path
      class="cls-3"
      d="M803.02,374.171c9.692,6.715,14.733,18.789,15.086,30.575s-3.453,23.34-8.51,33.992c-4.681,9.859-10.738,19.03-15.672,28.687-5.026,9.835-7.866,21.646-10.841,32.243-3.214,11.442-5.569,40.384-6.561,51.562-2.112,23.828-13.183,29.757-33.227,39.466-18.665,9.041-57.035,10.081-82.117-9.439-25.969-20.212-19.515-34.709-19.6-63.534-.083-26.813,3.146-53.273,6.235-79.842,2.761-23.757,11.087-46.461,19.349-68.9,1.3-3.545,2.639-7.144,4.885-10.182,6.834-9.239,19.791-10.82,31.255-11.621,2.741-.193,5.6-.364,8.126.721a20.358,20.358,0,0,1,4.979,3.6c7.016,6.031,9.593,16.641,18.662,18.472,6.971,1.407,20.1-4.929,27.162-5.8,8.691-1.077,17.465-3.347,26.088-1.817s17.192,8.469,16.757,17.216"
    /><path
      class="cls-17"
      d="M806.158,440.333a6.5,6.5,0,0,0-.2.876c-.28,1.786.058,3.533-.416,5.369-2.025,7.86-8.011,13.785-11.619,20.847-5.026,9.835-14.535,37.7-16.492,48.5-1.7,9.368-2.168,18.92-3.962,28.22a63.752,63.752,0,0,1-28.258,41.6c4.717-20.8,2.453-42.484-.265-63.639-.98-7.629-11.935-20.159-15.854-26.773-3.736-6.305-8.716-11.759-13.313-17.466a176.273,176.273,0,0,1-36.451-81.429c-2.039-12.35-2.654-25.5,2.446-36.927.278,5.114,3.712,9.427,6.9,13.435,2.675,3.365,9.193,4.492,13.24,5.33a53.28,53.28,0,0,0,16.034.858c4.963-.493,10.073-1.672,14.845-.22a28.053,28.053,0,0,1,7.423,4.032l7.9,5.388c3.348,2.285,7.314,4.679,11.2,3.519,3.67-1.1,5.687-4.9,7.618-8.2a65.244,65.244,0,0,1,11.981-14.933c2.532-2.346,5.4-4.562,8.8-5.189,4.994-.922,10,1.827,13.612,5.4,9.288,9.209,11.669,23.167,12.866,36.192.54,5.883.932,11.855-.134,17.665a35.887,35.887,0,0,1-5.387,13.31A16.479,16.479,0,0,0,806.158,440.333Z"
    /><path
      class="cls-19"
      d="M806.411,433.677c1.642,2.5,2.147,5.85.808,9.944-1.446,4.417-4.581,8.036-7.4,11.732-11.5,15.074-24.843,49.3-26.642,68.173-.477-8.257,4.526-26.018,3.808-34.258a4.434,4.434,0,0,0-.532-2.079c-1.258-1.926-4.194-.884-6.293.056-6.661,2.984-14.467,2.7-21.389.386s-13.07-6.506-18.686-11.167a120.691,120.691,0,0,1-42.96-88c-.2-6.651.15-13.37-1.106-19.9,15.47,22.156,31.728,46.329,53.484,62.808,10.046,7.609,22.85,13.568,35,10.235,4.918-1.347,9.324-4.126,14.144-5.79C795.213,433.551,803.229,428.828,806.411,433.677Z"
    /><path
      class="cls-20"
      d="M764.969,348.078c.839-.754,1.655-1.509,2.443-2.257a71.831,71.831,0,0,0,13.709-17.842,8.035,8.035,0,0,0,1.312-4.323c-.119-1.523-1.391-3.058-2.911-2.9,3.717.046,12.5,4.217,9.6,9.011,3.789,1.9,6.6,5.625,5.926,10.086,6.519,4.519,17.219,10.021,18.7,20.372-14.056,8.1-29.094,10.983-45.315,11.283-10.039.185-30.457,2.573-32.67-2,2.07-4.8,8.9-7.488,13.181-9.765A84.632,84.632,0,0,0,764.969,348.078Z"
    /><path
      class="cls-21"
      d="M764.969,348.078c.839-.754,1.655-1.509,2.443-2.257a71.8,71.8,0,0,0,13.708-17.842c1.858-3.427,1.689-8.36-3.715-7.135,2.482-.25,5.232-.429,7.215,1.083a6.46,6.46,0,0,1,2.294,5.012,14.466,14.466,0,0,1-1.216,5.534,39.428,39.428,0,0,1-14.838,18.383c-5.315,3.522-11.389,5.685-17.219,8.268-5.916,2.621-11.194,5.8-15.593,10.587-.752-4.82,7.645-8.232,10.9-9.967A84.632,84.632,0,0,0,764.969,348.078Z"
    /><path
      class="cls-3"
      d="M710.23,332.845a13.236,13.236,0,0,0-4.339,5.442,5.488,5.488,0,0,1-.446.946,4.432,4.432,0,0,1-.734.8c-2.149,1.982-4.4,4.025-7.21,4.85-3.423,1.007-7.132,2.094-9.091,5.391a18.276,18.276,0,0,0,10.576,13.791,32.9,32.9,0,0,0,6.909,1.92c9.276,1.8,28.919,12.87,29.767,3.287-1.5-3.338-5.946-6.557-8.269-9.747-2.61-3.582-5.519-6.949-8-10.627-2.5-3.706-5.815-6.756-4.968-11.711a10.28,10.28,0,0,1,7.34-8.017,22.458,22.458,0,0,0-9.318,2.284A15.873,15.873,0,0,0,710.23,332.845Z"
    /><path
      class="cls-7"
      d="M787.7,266.875c-4.207,13.714-13.613,20.436-21.667,32.306-4.769,7.03-10.6,13.266-14.4,15.236-8.045,4.172-11.193,4.34-19.832,7.077-6.974,2.21-15.635,2.273-18.718.36-4.453-2.761-4.264-11.217-4.8-16.43-2.429-23.775-3.863-40.586,5.842-59.817,2.078-4.117,8.447-17.371,12.016-20.292a25.065,25.065,0,0,1,9.705-4.642c10.91-2.809,22.924-.27,32.2,6.127A47.924,47.924,0,0,1,786.7,254.133"
    /><path
      class="cls-12"
      d="M717.094,242.556a24.251,24.251,0,0,1,10.637-1.773,43.754,43.754,0,0,1,13.745,3.173c7.358,2.818,14.681,7.193,18.116,14.285,2.006,4.143,2.5,8.826,3.642,13.284,1.47,4.884,3.872,9.293,5.642,14.124-6.339,2.65-14.673,5.308-19.04-1.881-2.471-4.069-2.075-9.6-5.21-13.179-1.7-1.949-4.193-2.993-6.59-3.974l-25.692-10.5a3.638,3.638,0,0,1-1.655-1.066c-.7-.969,1.758-5.329,2.267-6.576C713.8,246.387,714.867,243.533,717.094,242.556Z"
    /><path
      class="cls-6"
      d="M709.538,352.682a6.487,6.487,0,0,0,1.512-4.457,4.064,4.064,0,0,0-2.457-3.781,4.906,4.906,0,0,0-2.217-.055,26.333,26.333,0,0,0-8.341,3.075c-4.914,2.624-12.312,5.055-16.351,8.892a15.66,15.66,0,0,0-2.591,2.98,8.954,8.954,0,0,0-1.3,3.723c-.084.737,2.776,2.381,3.129,3.035a3.214,3.214,0,0,0,1.877,1.419,8.861,8.861,0,0,0,4.943-.195,31.859,31.859,0,0,0,9.646-4.342"
    /><path
      class="cls-7"
      d="M658.047,280.326c-.7,12.378-1.439,25.092,1.354,37.286,1.213,5.293.97,10.936,4.06,15.428a24.406,24.406,0,0,0,8.215,6.991c10.2,19.935,8.387,19.722,15.114,41.082,3.259,10.35,48.147-.3,43.351-6.743-4.449-5.98-37.2-39.672-38.976-48.46-1.729-8.566-.763-16.065,1.091-24.605.987-4.543,1.92-7.525,1.122-12.105-1.585-9.1-9.974-16.982-18.485-20.572-3.607-1.522-7.845-2.735-11.315-.923C659.309,269.935,658.317,275.519,658.047,280.326Z"
    /><path
      class="cls-12"
      d="M688.052,373.092c1.693,4.85,5.228,10.933,4.236,16.238a6.862,6.862,0,0,1,4.953-5.268c-6.316-12.7-10.827-26.2-15.318-39.651q-1.293-3.876-2.588-7.752a119.43,119.43,0,0,1-3.7-12.582c-2.153-9.978-5.536-21.44-5.151-31.465.131-3.418-.088-7.091-2.15-9.82S661.76,279,659.432,281.5c-1.344,1.446-1.591,3.568-1.742,5.537-.793,10.407-.623,20.381,1.711,30.572a43.476,43.476,0,0,0,6.279,14.98c3.052,4.435,6.557,3.881,9.067,8.783A250.637,250.637,0,0,1,688.052,373.092Z"
    /><path
      class="cls-12"
      d="M663.975,286.6a13.613,13.613,0,0,1,5.586,2.184,10.574,10.574,0,0,1,3.659,4.046,16.564,16.564,0,0,1,1.242,4.422,9.96,9.96,0,0,1,.2,3.125,7.3,7.3,0,0,1-1.089,2.772,12.467,12.467,0,0,1-10.561,5.731,138.763,138.763,0,0,1-2.339-21.949l.933.438"
    /><polygon
      class="cls-4"
      points="626.916 99.439 538.16 160.175 511.182 286.51 584.537 370.75 669.629 304.858 689.688 179.076 626.916 99.439"
    /><path
      class="cls-7"
      d="M691.587,284.287l-8.576-20.445c-.453-1.082-2.307-4.423-3.306-5.037-2.931-1.8-29.106-3.278-29.422-.939-.152,1.128,1.092,1.946,2.092,2.488a22.721,22.721,0,0,0,7.789,2.542c3.863.52,12.681,1.839,12.681,1.839s1.987,3.918,3.237,5.991l8.115,13.462"
    /><path
      class="cls-12"
      d="M676.082,270.726c.711,1.179,8.356,13.3,7.782,13.621.778-.439,1.978-.225,2.394-1.014a1.8,1.8,0,0,0-.045-1.348c-1.991-6.468-5.71-12.264-9.729-17.71a5.619,5.619,0,0,0-1.09-1.206,5.233,5.233,0,0,0-1.938-.786c-5.262-1.284-10.749-1.188-16.136-1.749-2.534-.263-5.2-.739-7.124-2.407.458,1.928,2.129,2.274,3.7,2.98a22.738,22.738,0,0,0,6.268,1.789c3.863.52,12.681,1.839,12.681,1.839S674.832,268.653,676.082,270.726Z"
    /><path
      class="cls-7"
      d="M687.415,283.673,676.386,270.26a14.473,14.473,0,0,0-2.848-2.869,12.92,12.92,0,0,0-6.583-1.765,57.382,57.382,0,0,0-10.294.279,13.615,13.615,0,0,0-3.511.772,13.438,13.438,0,0,0-2.9,1.742,53.544,53.544,0,0,0-8.353,7.653,1.155,1.155,0,0,0-.376.731,1.016,1.016,0,0,0,.224.545,5.149,5.149,0,0,0,3.937,1.99,10.748,10.748,0,0,0,4.443-.878,24.412,24.412,0,0,0,4.378-2.216,8.722,8.722,0,0,1,2.346-1.24,6.259,6.259,0,0,1,1.878-.147,39.177,39.177,0,0,1,7.819,1.386,10.642,10.642,0,0,1,5.779,3.041l6.957,5.987"
    /><path
      class="cls-12"
      d="M645.682,279.338a10.748,10.748,0,0,0,4.443-.878,24.412,24.412,0,0,0,4.378-2.216,8.722,8.722,0,0,1,2.346-1.24,6.259,6.259,0,0,1,1.878-.147,39.177,39.177,0,0,1,7.819,1.386,14.148,14.148,0,0,1,2.84.92,9.2,9.2,0,0,1,2.348,1.886,18.429,18.429,0,0,0,3.473,2.2q4.03,2.344,8.152,4.527c-3.7-3.384-6.42-7.752-10.207-11.044a14.288,14.288,0,0,0-3.18-2.171,13.966,13.966,0,0,0-2.849-.952,23.679,23.679,0,0,0-19.546,4.249,8.458,8.458,0,0,1-2.824,1.728,3.625,3.625,0,0,1-3.106-.626c.453.351.728,1.169,1.378,1.574A5.665,5.665,0,0,0,645.682,279.338Z"
    /><path
      class="cls-7"
      d="M681.383,296.335a15.713,15.713,0,0,0-3.266-2.616l-7.746-5.146a37.006,37.006,0,0,0-6.242-3.583,21.873,21.873,0,0,0-5.849-1.571c-3.008.57-10,3.614-13.046,3.913s-6.578-.792-7.779-3.608c-.732-2.133,21.608-9.938,22.3-9.879.844.071,10.884,1.237,14.036,3.773,1.155.929,9.573,7.84,11.622,11.183.087.142.19.3.355.336s.347-.183.226-.3"
    /><path
      class="cls-18"
      d="M722.274,195.49c1.589-1.324,3.081-2.811,4.79-3.975a16.622,16.622,0,0,1,10.79-2.789c5.89.545,11.223,5.427,15.814,8.88,5.965,4.488,11.356,9.835,18.068,13.246,5.795,2.945,12.258,4.272,18.352,6.535s12.15,5.786,15.16,11.548c2.5,4.79,2.608,10.578,5.245,15.295,3.431,6.138,7.466,11.582,7.618,19a22.243,22.243,0,0,1-7.869,17.727c-4.682,3.747-11.056,5.719-14.125,10.871a35.579,35.579,0,0,0-2.591,6.8c-3.185,9.249-9.918,16.978-19.8,18.711-2.534.445-6.072,1.507-8.509.777.12-9.291.577-20.292,1.165-22.137.721-2.261,1.579-13.907-.651-15.564-1.328-.988-1.037-1.1-2.369-.117-1.864,1.376-1.663,4.793-3.941,5.219-1.462.273-5.451-1.308-5.774-2.76a9.764,9.764,0,0,1,.447-4.4,57.248,57.248,0,0,0,1.529-9.852c.2-3.018-.02-6.466-2.335-8.412-1.672-1.406-4-1.64-6.178-1.845-13.676-1.289-26.711-3.427-37.442-12.873-7.719-6.793-13-16.536-13.572-26.8-.247-4.462.447-9.145,3-12.813a14.537,14.537,0,0,1,7.867-5.615c3.825-1.095,8.055-.612,11.68-2.252A16.158,16.158,0,0,0,722.274,195.49Z"
    /><path
      class="cls-22"
      d="M744.4,194.856a8.552,8.552,0,0,1-1.46,13.689c-2.887,1.737-6.477,1.683-9.706,2.644s-6.5,3.911-5.639,7.167c.681,2.568,3.528,3.837,6.087,4.55,7.44,2.073,15.277,2.422,22.715,4.5s14.872,6.437,17.723,13.614c1.608,4.047,1.65,8.719,4.023,12.371,1.849,2.847,4.893,4.7,8,6.068a15.391,15.391,0,0,0,6.126,1.581,6.86,6.86,0,0,0,5.586-2.542c1.878-2.6,1.352-6.756,4.011-8.542,1.991-1.338,4.749-.511,6.693.9a14.789,14.789,0,0,1,5.838,10.981c.329,5.294-2.155,11.958-6.708,14.97a45.705,45.705,0,0,1-5.779,2.779,30.123,30.123,0,0,0-4.449,2.715c-1.2.846-2.578,1.359-3.837,2.148a23.067,23.067,0,0,0-7.52,6.839,58.926,58.926,0,0,0-2.662,5.328A28.718,28.718,0,0,1,773.421,307.8c-.794.513-8.2,3.442-8.2,3.442.3-.51.935-20.574,1.3-25.193.128-1.62.605-4.416-.528-5.772-1.091-1.3-3.007-1.959-4.152-3.309-3.344-3.943-1.452-9.949-3.289-14.5-2.017-5-7.352-6.2-12.447-7.037-4.818-.795-9.665-1.621-14.486-2.395A37.523,37.523,0,0,1,710.3,241.361c-5.468-6.031-9.514-12.229-11.044-20.224-.746-3.9-.073-9.64,2.05-12.992,5.567-8.8,15.839-3.332,23.291-7.3,4.442-2.365,6.424-8.657,11.384-9.508C739.088,190.809,742.065,192.74,744.4,194.856Z"
    /><path
      class="cls-23"
      d="M813.756,360.225a41.1,41.1,0,0,1,14.829,18.2c5.589,13.514,3.483,29.241-2.465,42.6s-15.408,24.8-24.863,35.958c-4.935,5.824-9.951,11.668-16.021,16.3s-13.351,8.007-20.982,8.189c-8.164.195-28.3-3.332-58.6-49.559-9.281-14.157-17.162-33.921-18.4-50.8a23.391,23.391,0,0,0,15.643,1.065A41.855,41.855,0,0,0,715.627,376c3.824-2.554,8.126-4.269,11.984-6.857A84.1,84.1,0,0,1,749.069,390.9a22.737,22.737,0,0,0,2.95,3.825,20.035,20.035,0,0,0,6.3,3.6,2.848,2.848,0,0,1,5.5-.933c4.217-11.588,12.3-22.38,20.044-31.855a29.438,29.438,0,0,1,7.147-6.834C797.963,354.475,807.29,355.843,813.756,360.225Z"
    /><path
      class="cls-3"
      d="M827.878,377.485c7.243,12.98,3.985,30.641-1.758,43.538-5.949,13.36-15.408,24.8-24.863,35.958-4.935,5.824-9.951,11.668-16.021,16.3s-13.351,8.007-20.982,8.189c-8.164.195-28.3-3.332-58.6-49.559-9.281-14.157-17.162-33.921-18.4-50.8,4.749,2.229,10.493,1.332,15.652,1.8a80.914,80.914,0,0,1-13.866,2.135c1.5,13.48,6.769,26.354,13.926,37.876s16.169,21.782,25.639,31.494c5.939,6.091,12.184,12.069,19.7,16.064s16.53,5.832,24.633,3.24c6.942-2.221,12.5-7.384,17.555-12.638a223.484,223.484,0,0,0,28.181-36.095,70.319,70.319,0,0,0,6.476-12.328C829.346,401.568,828.642,389.314,827.878,377.485Z"
    /><path
      class="cls-21"
      d="M813.756,360.225c8.7,5.891,12.437,13.541,16.179,22.944-3.721-7.46-12.428-13.541-20.192-10.507-4.548,1.778-7.507,6.14-9.862,10.418A102.419,102.419,0,0,0,787.4,426.588a9.813,9.813,0,0,0-16.347,5.673c-4.647-7.265-16.3-8.586-22.453-2.545-2.917,2.862-5.2,7.254-9.278,7.479-3.372.186-6.184-2.9-7.024-6.168s-.24-6.712.087-10.074a61.748,61.748,0,0,0-4.779-30.379c-2.481-5.725-6.072-11.293-11.536-14.306.932-1.208,10.8-7.639,11.543-7.121A84.1,84.1,0,0,1,749.069,390.9a22.737,22.737,0,0,0,2.95,3.825,20.035,20.035,0,0,0,6.3,3.6,2.848,2.848,0,0,1,5.5-.933c4.217-11.588,12.3-22.38,20.044-31.855a29.438,29.438,0,0,1,7.147-6.834C797.963,354.475,807.29,355.843,813.756,360.225Z"
    /><path
      class="cls-24"
      d="M710.948,346.975a12.285,12.285,0,0,1-4.765,10.487,83.781,83.781,0,0,1-8.912,7.268,20.334,20.334,0,0,1-6.716,3.458,11.91,11.91,0,0,1-13.424-6.891c.4,3.066,2.255,5.712,3.847,8.364a58,58,0,0,1,6.182,14.451,6.615,6.615,0,0,0,.719,1.885,4.505,4.505,0,0,0,1.061,1.091c2.583,1.981,6.088,2.2,9.339,2.035a36.551,36.551,0,0,0,12.206-2.544,22.866,22.866,0,0,0,9.827-7.517c1.869-2.589,3.193-5.752,5.9-7.449.8-.5,1.765-.683,2.538-1.147-1.5-1.826-3.6-3.337-5.257-5.077a69.367,69.367,0,0,1-4.839-5.673A68.665,68.665,0,0,1,710.948,346.975Z"
    /><path
      class="cls-3"
      d="M709.771,349.271c-.5,1.491-7.86,9.894-10.917,12.466-3.1,2.608-6.633,5.011-10.661,5.452s-8.582-1.685-9.673-5.587c-.208-.747-.171-1.748.54-2.055-1.183-.2-2.19,1.116-2.1,2.311a10.307,10.307,0,0,0,2.089,4.756c4.765,4.321,11.936,3.285,17.7.424,5.481-2.722,14.286-14.007,14.9-15.83a7.058,7.058,0,0,0-.436-5.444c-.795-1.519-2.8-2.773-4.16-1.732C709.621,344.924,710.781,346.353,709.771,349.271Z"
    /><path
      class="cls-7"
      d="M759.342,287.448c2.805-10.229,7.571-9.517,11.165-9.464a6.7,6.7,0,0,1,3.717,1.034c2.43,1.674,2.8,5.13,2.369,8.05a16.637,16.637,0,0,1-3.215,7.955,10.737,10.737,0,0,1-7.343,4.158,7.968,7.968,0,0,1-7.413-3.591"
    /><path
      class="cls-18"
      d="M807.941,248.948a4.691,4.691,0,0,1,3.512.421,14.527,14.527,0,0,1,8.283,11.11c.159,1.185.489,2.74,1.681,2.833,1.164.091,1.764-1.371,1.843-2.535a14.378,14.378,0,0,0-4.966-11.589,16.408,16.408,0,0,0-12.145-3.768"
    /><path
      class="cls-18"
      d="M709.534,245.01c-5.227-3.746-10.509-7.541-14.693-12.425s-7.225-11.041-7.137-17.471a2.621,2.621,0,0,1,.311-1.425c.683-1.037,2.427-.651,3.136.369a7.522,7.522,0,0,1,.861,3.579c.8,7.372,6.314,13.234,11.56,18.474.756.756,1.77,1.576,2.775,1.212"
    /><path
      class="cls-12"
      d="M671.008,286.212q-1.1-.3-2.2-.581c-2.6-.677-5.217-1.316-7.869-1.767a9.78,9.78,0,0,0-5.48.344c-3.307,1.078-6.737,2.782-10.23,3.124a7.838,7.838,0,0,1-6.745-2.279c2.711.547,4.629-.225,7.051-1.427,5.045-2.5,10.189-5.069,15.765-5.871a12.316,12.316,0,0,1,4.933.116,14.408,14.408,0,0,1,2.966,1.268,56.351,56.351,0,0,1,14.831,11C679.736,288.688,675.388,287.392,671.008,286.212Z"
    /><path
      class="cls-7"
      d="M672.431,305.212a12.056,12.056,0,0,1-2.64-7.135,26.628,26.628,0,0,1,.883-7.665,22.033,22.033,0,0,1-9.9.086c-.871-.192-1.894-.835-2.671-.272-1.784,1.289-3.235,3.153-5.357,3.775-2.541.746-2.953-.313-5.307-1.535-.411-.214-.889-.56-.79-1a1.049,1.049,0,0,1,.374-.509q3.823-3.448,7.649-6.894a10.509,10.509,0,0,1,2.136-1.617c.856-.443,15.256.448,16.368.693s7.051,3.795,11.487,6.5"
    /><polygon
      class="cls-25"
      points="343.592 86.792 366.256 113.345 399.664 123.476 373.11 146.139 362.98 179.546 340.317 152.993 306.909 142.863 333.462 120.199 343.592 86.792"
    /><polygon
      class="cls-25"
      points="536.242 679.242 547.574 692.519 564.278 697.584 551.001 708.916 545.936 725.619 534.604 712.343 517.9 707.277 531.177 695.946 536.242 679.242"
    /><polygon
      class="cls-25"
      points="751.558 89.116 755.003 111.861 770.175 129.154 747.43 132.6 730.137 147.771 726.692 125.026 711.52 107.733 734.265 104.288 751.558 89.116"
    /><path
      class="cls-26"
      d="M333.176,267.85a15.793,15.793,0,1,1-18.69-12.228A15.793,15.793,0,0,1,333.176,267.85Z"
    /><path
      class="cls-26"
      d="M833.889,56.506a10.934,10.934,0,1,1-12.94-8.466A10.934,10.934,0,0,1,833.889,56.506Z"
    /><path
      class="cls-26"
      d="M229.034,148.1a10.934,10.934,0,1,1-12.94-8.465A10.934,10.934,0,0,1,229.034,148.1Z"
    /><path
      class="cls-27"
      d="M323.207,1101.977c-2.432.075-4.156,2.866-3.686,5.253a7.162,7.162,0,0,0,4.875,4.987,21.116,21.116,0,0,0,7.222.753l15.884-.185c19.852-.23,40.134-.535,58.829-7.218,2.669-.954,5.542-2.267,6.664-4.871,1.4-3.237-.739-7.15-3.834-8.838s-6.819-1.67-10.331-1.357"
    /><path
      class="cls-28"
      d="M380.271,636c-2.784,3.848-7.592,5.713-12.283,6.459-2.284-6.194-11.732-29.809,1.085-31.469C379.865,609.591,385.438,628.856,380.271,636Z"
    /><path
      class="cls-26"
      d="M279.929,375.342c-11.48,1.631-31.2,2.072-39.885,9.759-12.561,11.12-19.065,30.135-25.393,45.225a411.139,411.139,0,0,0-18.146,53.19c-1.186,4.453-2.294,9.2-.912,13.6a19.845,19.845,0,0,0,4.608,7.264c8.394,9.137,20.244,14.514,32.361,17.184s24.623,2.846,37.029,3.011a3.866,3.866,0,0,0,3-.82c.769-.846.629-2.149.44-3.275-2.814-16.86-8.387-32.243-11.413-49.079-4.817-26.82-6.807-54.516-1.564-81.255l19.878-14.8"
    /><path
      class="cls-29"
      d="M244.069,523.417c.612.1,1.225.2,1.84.284l-.02-.1q-.911-.089-1.82-.187m41.762-145.869q-.456.054-.922.106a7.885,7.885,0,0,0,.625,2.043l.543-.4c-.041-.131-.077-.264-.108-.4a5.5,5.5,0,0,1-.138-1.348"
    /><path
      class="cls-30"
      d="M234.345,410.557c-6.426,14.129-11.573,28.914-16.745,43.515-4.6,12.978-17.165,36.2-9.751,49.416,3.335,5.945,9.193,10.063,15.284,13.121a73.8,73.8,0,0,0,20.936,6.808q.909.1,1.82.187c-2.739-13.147-6.145-27.594-8.719-39.965-4.83-23.215-8.405-49.932-2.825-73.082"
    /><path
      class="cls-31"
      d="M395.072,314.635l-1.008-.428c-2.652,6.233-8.151,9.83-13.753,9.829a13.245,13.245,0,0,1-6.1-1.5,15.111,15.111,0,0,1-6.238-6.15,18.245,18.245,0,0,1-2.252-8.849,18.79,18.79,0,0,1,1.5-7.356c2.652-6.234,8.151-9.83,13.753-9.83a13.231,13.231,0,0,1,6.1,1.5A15.094,15.094,0,0,1,393.307,298a18.237,18.237,0,0,1,2.252,8.849,18.818,18.818,0,0,1-1.5,7.356l1.008.428,1.007.427a21.008,21.008,0,0,0,1.669-8.211,20.432,20.432,0,0,0-2.529-9.914,17.294,17.294,0,0,0-7.147-7.03,15.449,15.449,0,0,0-7.105-1.743c-6.553,0-12.814,4.2-15.768,11.163a21,21,0,0,0-1.669,8.212,20.435,20.435,0,0,0,2.529,9.914,17.3,17.3,0,0,0,7.148,7.03,15.437,15.437,0,0,0,7.1,1.742c6.552,0,12.814-4.2,15.768-11.163Z"
    /><path
      class="cls-32"
      d="M308.627,314.249a104.828,104.828,0,0,1-19.533,56.276c-1.8,2.5-3.818,5.371-3.125,8.371a9.57,9.57,0,0,0,1.6,3.165c6.467,9.449,15.875,17.312,27.031,19.884s24.027-.982,30.769-10.236c-4.166-4.439-5.248-10.945-5.256-17.035a63.822,63.822,0,0,1,7.422-29.885l-38.9-30.54"
    /><path
      class="cls-33"
      d="M295.968,397.07c-3.167,0-11.946-19.506-6.874-26.545a104.828,104.828,0,0,0,19.533-56.276c.078-1.769.256-1.72,1.685-2.763a11.411,11.411,0,0,1,4.993-1.641l7.484-1.222c3.668-.6,8.236-.822,10.228,2.314,1.731,2.729.349,6.286-1.036,9.207-12.08,25.471-16.1,52.367-36.013,76.926"
    /><path
      class="cls-32"
      d="M306.72,299.213c.743,7.908,1.409,16.157,5.686,23.1,4.228,6.862,10.019,12.489,15.7,18a85.452,85.452,0,0,0,12.081,10.354c5.8,3.823,14.313,7.247,20.2,2.7,4.02-3.109,6.339-9.188,8.411-13.9,4.046-9.194,7.609-20.033,7.929-30.422.163-5.242-.223-10.246.635-15.449,1.237-7.491,2.312-14.039-.322-21.55-1.668-4.754-3.989-9.561-7.934-12.525-3.905-2.935-8.875-3.648-13.534-3.415a38.434,38.434,0,0,0-28.872,15.7L306.72,299.213"
    /><path
      class="cls-34"
      d="M360.384,353.364c4.02-3.109,6.339-9.188,8.411-13.9,4.046-9.194,7.609-20.033,7.929-30.422.163-5.242-.223-10.246.635-15.449,1.237-7.491,2.312-14.039-.322-21.55-1.668-4.754-3.989-9.561-7.934-12.525-8.593-6.459-22.057-4.675-30.882-1.143,6.332,1.153,12.97,2.446,18.12,6.691,5.413,4.462,8.328,11.577,9.555,18.585s1,14.118,1.428,21.188c.368,6.051,1.222,12.113,1.034,18.142a49.445,49.445,0,0,1-9.6,27.957c-1.444,1.924-3.179,3.815-5.493,4.3,2.672-.563,4.744-.045,7.117-1.88"
    /><path
      class="cls-35"
      d="M294.114,243.7c17.543-17.414,47.036-19.267,70.631-12.547,7.118,2.03,19.99,10.278,22.771,25.539,2.772,15.221-1.314,19.919-7.948,23.866-4.058,2.414-7.113,3.988-10.441,7.4-2.861,2.934-4.766,9.2-6.649,12.929a29.223,29.223,0,0,1-2.867,5.115,6.252,6.252,0,0,1-4.864,2.65c-3.988-.11-3.29-4.847-6.54-5.967-2.009-.693-3.914.989-5.106,2.723a23.516,23.516,0,0,0-4.018,12.607c-.112,4.192.837,8.383,1.209,12.584s.091,8.674-2.186,12c-1.976,2.882-5.2,4.515-8.466,5.535a34.253,34.253,0,0,1-19.752.09c-3.668-1.077-30.641-18.149-34.321-21.765a57.871,57.871,0,0,1-16.9-37.509c-.754-13.926,3.637-29.142,13.592-37.872,4.576-4.013,14.046-6.6,21.855-7.378"
    /><path
      class="cls-35"
      d="M387.088,278.106c5.15-3.877,8.334-10.834,6.738-19.368-1.652-8.83-9.47-15.3-17.46-18.667-2.541-1.072-5.588-2.418-6.135-5.222,5.928,2.067,11.921,4.253,17.142,7.971s9.655,9.219,10.894,15.635a22.1,22.1,0,0,1-.121,8.6c-1.164,5.664-4.45,10.461-8.348,14.318-4.063,4.019-11.485,4.553-16.755,6.315-5.59,1.871-11.121,4.518-14.939,9.128-.674.815-1.954,1.674-2.582.752a1.757,1.757,0,0,1-.088-1.408c1.417-5.7,7.063-8.7,12.288-10.716,6.111-2.356,13.856-3.194,19.366-7.342"
    /><path
      class="cls-35"
      d="M295.8,243.64c-6.1-1.983-12.539-.9-18.6.56-6.09,1.463-12.173,3.321-17.4,6.781a2.965,2.965,0,0,0-1.321,1.423c-.213.646.132,1.555.789,1.644a1.558,1.558,0,0,0,1.027-.376,41.98,41.98,0,0,1,28.227-6.63"
    /><path
      class="cls-36"
      d="M294.759,252.811c-17.053,0-27.909,16.072-28.6,33.134A45.693,45.693,0,0,0,279.168,319.3a85.923,85.923,0,0,0,11.817,9.379q4.963,3.483,9.926,6.964a48.6,48.6,0,0,0,8.658,5.223,22.746,22.746,0,0,0,8.095,1.818c.218.006.437.011.655.011a10.275,10.275,0,0,0,5.484-1.323c2.605-1.625,3.958-4.754,4.938-7.8,1.958-6.078,3-12.522,5.351-18.427s6.333-11.437,12.132-13.4a26.659,26.659,0,0,0,4.37-1.5c3.395-1.857,4.7-6.145,6.941-9.4,2.967-4.318,7.653-6.865,11.595-10.2s7.4-8.31,6.431-13.731a1.806,1.806,0,0,0-1.04-.324,4.865,4.865,0,0,0-2.976,1.661,118.906,118.906,0,0,1-29.384,21.215c-5.548,2.828-11.385,5.229-17.579,6.077a33.732,33.732,0,0,1-4.569.315,27.674,27.674,0,0,1-13.878-3.518,26.757,26.757,0,0,1-12.167-16.064,25.686,25.686,0,0,1,2.642-19.691c.65-1.067,1.286-2.708.245-3.46a2.137,2.137,0,0,0-1.227-.3c-.291-.01-.582-.013-.869-.013"
    /><path
      class="cls-31"
      d="M346.175,301.86l52.121,6.919a1.095,1.095,0,1,0,.288-2.17l-52.121-6.919a1.095,1.095,0,1,0-.288,2.17"
    /><path
      class="cls-32"
      d="M350.11,304.381c-1.521-1.715-3.232-3.451-5.368-3.974-3.26-.8-6.5,1.688-7.587,4.923s-.429,6.945.817,10.246a12.123,12.123,0,0,0,1.417,2.823,6.913,6.913,0,0,0,6.326,2.881,6.354,6.354,0,0,0,5.1-4.4"
    /><path
      class="cls-14"
      d="M331.513,609.289l6.4.348q-12.266,47-24.532,93.994c-7.517,28.8-17.438,87.2-19.615,96.578C291.811,808.625,187.632,987.332,177.441,991s-28.764-9.033-27.41-13.743c8.746-30.428,61.3-150.1,67.771-161.536,3.113-5.5,6.258-11.084,7.86-17.232,1.38-5.3,1.565-10.835,1.8-16.314,1.607-37.978.583-51.741,7.424-89.1.534-2.909,1.082-5.912.469-8.806a26.049,26.049,0,0,0-2.891-6.645c-13.336-25.154-10.836-58.279,6.115-81.018,9.99-13.4,28.342-14.681,44.848-17.314,5.038-.8,10.2-1.552,15.213-.619,12.378,2.307,20.51,13.87,27.286,24.479,4.536,7.1,9.127,16.329,4.557,23.411l1.034-17.273"
    /><path
      class="cls-37"
      d="M235.621,687.007a33.817,33.817,0,0,1-.739,6.067c-6.841,37.356-5.817,51.119-7.424,89.1-.231,5.479-.416,11.017-1.8,16.314-1.6,6.148-4.747,11.731-7.86,17.232-6.472,11.441-59.025,131.108-67.771,161.536-.256.89-.157,1.36.149,1.591a2.537,2.537,0,0,1-.149-1.591c8.746-30.428,61.3-150.1,67.771-161.536,3.113-5.5,6.258-11.084,7.86-17.232,1.38-5.3,1.565-10.835,1.8-16.314,1.607-37.978.583-51.741,7.424-89.1a33.817,33.817,0,0,0,.739-6.067m-3.3-9.642.025.049-.025-.049m-.131-.251.027.052-.027-.052m-.116-.223.035.067-.035-.067m-.142-.28.054.11-.054-.11m-7.367-44.606a77.148,77.148,0,0,0,7.328,44.532,77.282,77.282,0,0,1-7.312-44.51l-.016-.022"
    /><path
      class="cls-38"
      d="M224.585,632.027a77.282,77.282,0,0,0,7.312,44.51l.039.074.054.11.088.17.035.067.081.156.027.052.1.2.025.049.11.209a26.049,26.049,0,0,1,2.891,6.645,13.218,13.218,0,0,1,.27,2.739,33.817,33.817,0,0,1-.739,6.067c-6.841,37.356-5.817,51.119-7.424,89.1-.231,5.479-.416,11.017-1.8,16.314-1.6,6.148-4.747,11.731-7.86,17.232-6.472,11.441-59.025,131.108-67.771,161.536a2.537,2.537,0,0,0,.149,1.591,1.3,1.3,0,0,0,.784.194,8.385,8.385,0,0,0,1.2-.128,8.647,8.647,0,0,1,1.232-.129c1,0,1.672.448,1.039,2.522a508.451,508.451,0,0,1,64.271-135.03c9.858-14.656,19.305-28.982,26.786-44.994,6.855-14.672,4.79-31.718,3.563-47.865-2.3-30.293-2.447-62.843,3.146-93.859-12.141-8.051-21.885-19.415-27.617-27.528"
    /><path
      class="cls-14"
      d="M281.293,598.14c-17.98,25.434-19.173,62.194-2.883,88.8,3.075,5.024,6.693,9.682,9.7,14.745,14.2,23.87,38.541,68.276,39.127,87.574,2.224,73.24-12.809,171.449-.6,243.641.38,2.251.932,4.753,2.8,5.994,1.574,1.046,3.608.861,5.47.638l18.3-2.2C362.1,997.117,366.5,928.5,372.439,888c5.711-38.965,12.865-66.677,17.269-101.963,5.958-47.754-5.849-124.244-20.182-185.325"
    /><path
      class="cls-39"
      d="M369.433,600.759a22.669,22.669,0,0,1,2.088,5.359c4.913,19.809,7.959,40.873,11.244,61.079,6.3,38.743,11.837,79.612,6.943,118.839-4.4,35.286-11.558,63-17.269,101.963-4.331,29.591-6.685,59.454-10.111,89.156-1.731,15-3.588,30.014-6.16,44.9-1.235,7.156-.611,13.311-6.98,15.639-5.329,1.949-9.97-.317-15.4,3.091-12.961-81.457,31.867-157.874,32.25-238.646.066-14.073-1.222-28.112-2.509-42.125l-4.678-50.93c-1.795-19.559-3.594-39.133-6.6-58.543-3.818-24.69-10.091-50.124-26.3-69.139C340.711,580.638,361.929,586.929,369.433,600.759Z"
    /><path
      class="cls-26"
      d="M329.426,387.76c3.922-.73,8.283-1.744,10.432-5.106,9.095,6.2,16.153,18.221,26.668,21.473,4.26,1.319,8.652,5.2,11.907,8.244,5.36,5.021,8.643,3.434,8.316,10.772-1.683,37.748-18.347,77.177-25.364,114.306-3.112,16.467,14.016,43.487,20.506,63.071,4.947,14.933,0,32.111,0,32.111,2.5-7.052-16.412-16.645-23.761-15.25-12.276,2.327-27.97,29.935-40.169,39.916-10.171,8.322-23.54,12.008-36.693,12.037-34.435.08-62.139-43.629-62.325-47.1-.18-3.365,20.521-42.388,30.633-60.717,4.377-7.931-6.331-48.687-12.406-77.88-6.614-31.791-10.875-70.157,7.507-96.922,4.892-7.126,15.281-10.227,40.89-13.5,0,0-6.167,10.752,16.812,16.271,9.621,2.311,17.571.036,27.047-1.726"
    /><path
      class="cls-40"
      d="M343.663,442.692c-5.686,18.05-7.9,41.494-3.02,62.062,1.624,6.85,7.606,19.215,12.747,29.107l-5.307-42.441,10.152-7.554q-2.307-4.881-4.34-9.9l-.032-.078-.051-.124q-.216-.534-.43-1.069c-2.551-6.37-5.049-12.684-6.924-19.133-.069-.239-.137-.475-.205-.713a75.558,75.558,0,0,1-2.59-10.152"
    /><path
      class="cls-41"
      d="M284.814,420.271c-.042.091-.077.169-.106.235a129.081,129.081,0,0,0-10.54,41.98,247.944,247.944,0,0,0-.1,27.386c.4,11.538.855,23.119,2.913,34.478,2.208,12.182,6.244,24.028,7.615,36.333,1.583,14.209-4,25.2-11.357,37.457C260.657,619.093,254.776,631.4,255,662.009c-4.787-5.258-17.248-13.711-24.256-22.024-3.39-4.018-11.5-12.013-11.8-17.748-.18-3.365,20.521-42.389,30.633-60.718,4.377-7.932-6.332-48.686-12.406-77.881-6.614-31.79-10.875-70.156,7.506-96.922,4.893-7.125,15.283-10.226,40.891-13.5,0,0-6.165,10.75,16.805,16.269C300.359,389,286.627,416.317,284.814,420.271Z"
    /><path
      class="cls-42"
      d="M287.617,384.033a23.234,23.234,0,0,0,8.112,6.786,24.371,24.371,0,0,0,8.354,1.784,64.329,64.329,0,0,0,15.32-.762c9.779-1.672,19.468-5.624,29.291-4.229,0-3.361-2.143-6.3-4.192-8.961a7.835,7.835,0,0,0-1.865-1.922c-1.549-.991-3.546-.774-5.372-.556a82.994,82.994,0,0,1-24.935-.306c-8.2-1.524-16.187-4.885-22.406-10.448-.952-.853-8.8,6.142-8.765,8.022C281.217,376.787,285.6,381.57,287.617,384.033Z"
    /><path
      class="cls-43"
      d="M322.358,1083.254c-2.487,5.708-4.855,13.6-2.469,19.347,3.27,7.882,13.22,7.1,21.735,6.54q22.7-1.506,45.391-3.211c6.16-.464,12.415-.958,18.2-3.116,4.455-1.66,9.114-5.44,8.36-10.134-.9-5.607-8.133-7.07-13.788-7.577a140.611,140.611,0,0,1-39.753-9.543c-2.144-.861-4.4-1.881-5.629-3.833-1.092-1.729-1.189-3.883-1.231-5.927a270.335,270.335,0,0,1,1.539-34.774c-3.734-1.055-9.273-1.1-15.222-1.054a32.784,32.784,0,0,0-12.854,2.932C327.221,1046.995,328,1070.307,322.358,1083.254Z"
    /><path
      class="cls-43"
      d="M174.88,981.1a28.7,28.7,0,0,1,2.2,2.026c.959.981,3.872,3.884,4.255,5.2.739,2.531-.633,5.137-1.8,7.5-2.563,5.8-10.2,18.608-10.622,25.731a61.274,61.274,0,0,0,2.773,22.81c5.38,16.1,14.339,31.885,21.306,47.467.939,2.1,1.9,4.324,1.669,6.614-.509,5.044-6.78,7.783-11.691,6.525s-8.635-5.155-12.077-8.876c-14.211-15.371-27.787-31.261-41.541-47.05-2.262-2.6-4.57-5.271-5.773-8.5-2.988-8.018.185-18.746,10.14-28.94,3.738-3.827,9.967-20.233,13.831-32.176a8.282,8.282,0,0,1,2.1-3.9,7.3,7.3,0,0,1,4.476-1.373A30.433,30.433,0,0,1,174.88,981.1Z"
    /><path
      class="cls-27"
      d="M127.788,1050.883q21.107,25.572,44.153,49.455c2.905,3.011,6.155,6.169,10.3,6.73,2.695.366,6.016-1.075,6.2-3.788.1-1.541-.834-2.936-1.73-4.193l-17.656-24.776L148.5,1045.463c-3.081-4.324-6.331-8.8-11.019-11.293-3.848-2.048-11.286-2.869-14.107,1.43C120.22,1040.4,124.852,1047.325,127.788,1050.883Z"
    /><polyline
      class="cls-44"
      points="438.473 424.172 348.083 491.42 452.249 534.342 542.639 467.094 438.473 424.172"
    /><polyline
      class="cls-45"
      points="438.473 424.172 348.083 491.42 452.249 534.342 438.473 424.172"
    /><polyline
      class="cls-46"
      points="359.808 585.182 450.197 517.934 554.362 560.855 359.808 585.182"
    /><polyline
      class="cls-4"
      points="362.445 606.277 466.61 649.199 452.249 534.342 348.083 491.42 362.445 606.277"
    /><polyline
      class="cls-47"
      points="557 581.951 466.61 649.199 452.249 534.342 542.639 467.094 557 581.951"
    /><path
      class="cls-32"
      d="M426.863,434.364c-2.158-3.414-4.876-7.186-8.9-7.552-2.482-.225-4.852.947-7.068,2.085-2.658,1.367-20.752,10.768-18.944,14.123,1.155,2.141,11.716-.758,14.978,1.55,2.145,1.519,3.474,3.909,4.731,6.218.324-.082,3.9,7.159,4.287,7.87a41.677,41.677,0,0,0,4.353,6.919,11.882,11.882,0,0,0,3.133,2.836,5.433,5.433,0,0,0,4.085.659,1.087,1.087,0,0,0,.649-.391c.208-.318-2.455-7.885-3.663-11.281.82,1.378,1.59,2.788,2.458,4.135,2.247,3.488,5.16,1.815,5.369,1.638.532-.45.373-1.3.167-1.961-1.775-5.745-3.573-11.543-6.557-16.762,1.594,1.489,2.521,3.534,3.693,5.374s2.8,3.615,4.953,3.969c.581.1,2.9-.9,2.829-1.578-.021-.193-4.722-8.623-7.179-12.51Q428.552,437.035,426.863,434.364Z"
    /><path
      class="cls-33"
      d="M423.3,437.037a9.11,9.11,0,0,0-1.314-1.445,4.214,4.214,0,0,0-2.814-1.123c1.384.211,2.216,1.6,2.873,2.84q2.679,5.041,5.77,9.849c1.619,2.519,3.5,6.1,6.776,6.635.655.108,2.822-.69,2.609-1.544-.149-.593-1.325-.312-1.875-.455a5.062,5.062,0,0,1-1.838-.943,13.008,13.008,0,0,1-2.441-2.839q-3.537-5.023-7.076-10.047C423.749,437.653,423.528,437.341,423.3,437.037Z"
    /><path
      class="cls-33"
      d="M419.178,440.713c-.08-.1-.165-.191-.254-.28-1.342-1.365-3.4-1.706-5.317-1.734a5.446,5.446,0,0,1,4.985,3.913q2.816,6.712,5.632,13.424c.109.263.22.526.33.787.8,1.914,1.558,4.016,3.014,5.547.949,1,4.364,2.5,5.05.435a2.468,2.468,0,0,1-2.377-.6,6.937,6.937,0,0,1-1.421-2.168l-8.386-17.2A10.206,10.206,0,0,0,419.178,440.713Z"
    /><path
      class="cls-33"
      d="M412.669,444.349a34.617,34.617,0,0,0-3.328-4.059,3.353,3.353,0,0,0-1.512-1.062,3.5,3.5,0,0,0-1.374.022l-12.325,1.833a3.17,3.17,0,0,0-2.034.826c-1.412,1.657,1.319,1.878,2.279,1.935a39.255,39.255,0,0,0,4.324-.115c2.461-.125,6.071-.688,8.232.841,2.145,1.519,3.474,3.909,4.731,6.218.324-.082,3.9,7.159,4.287,7.87a41.677,41.677,0,0,0,4.353,6.919,11.882,11.882,0,0,0,3.133,2.836c.555.317,5.44,1.664,4.636,0a1.936,1.936,0,0,1-2.016-.011,5.167,5.167,0,0,1-1.491-1.536,54.615,54.615,0,0,1-6.574-11.514c-.582-1.446-1.08-2.926-1.677-4.368A34.721,34.721,0,0,0,412.669,444.349Z"
    /><path
      class="cls-32"
      d="M452.309,500.537c8.117,2.525,46.072,14.459,51.776,15.7,4.394.955,10.9,2.147,15.066.45,0,0-.4-7.912,1.82-12.292,1.559-3.079,9.292-13.371,10.343-15.27q1.794-3.237,3.586-6.473a1.628,1.628,0,0,1,.658-.753c.8-.368,1.526.662,1.7,1.522.676,3.433-.983,6.837-1.684,10.263a19.038,19.038,0,0,0,1.077,11.08,70.3,70.3,0,0,0,6.4-7.733c1.4-1.97,2.763-4.235,2.476-6.636,2.287.15,4.915.494,6.153,2.421a6.2,6.2,0,0,1,.8,2.626,18.857,18.857,0,0,1-.67,7.746c1.338-.424,2.778.628,3.312,1.925a9.506,9.506,0,0,1,.332,4.161,7.142,7.142,0,0,0,.636,4.1,10.686,10.686,0,0,1,.862,1.376,4.011,4.011,0,0,1-.136,2.652,20.091,20.091,0,0,1-2.71,5.522,5.281,5.281,0,0,0-.9,1.621,8.067,8.067,0,0,0-.087,1.834c-.066,2.471-1.735,4.574-3.383,6.416-3.891,4.344-9.895,3.82-16.063,3.3a40.832,40.832,0,0,0-10.127-.034c-5.537.951-21.35,4.349-23.543,4.726C496.575,541.365,467,549,437,541l15.309-40.463"
    /><path
      class="cls-33"
      d="M499.994,540.775c-4.43.764-8.794,1.778-13.253,2.4a142.774,142.774,0,0,1-26.627,1.3,115.1,115.1,0,0,1-15.964-1.854,20.265,20.265,0,0,1-10.074-4.812,6.787,6.787,0,0,1-2.353-3.833c-.143-.51-.985-6.467-.506-6.419,28.332,2.881,56.988,5.756,85.2,1.852,4.275-.591,8.565-1.34,12.877-1.139,4.372.2,8.833,1.373,13.05.2,4.2-1.167,7.428-4.461,10.322-7.723,1.268-1.428,2.45-3.84.918-4.983a20.834,20.834,0,0,1-4.674,3.993,10.543,10.543,0,0,0,2.125-13.21,29.681,29.681,0,0,1-6.212,5.031c5.5-5.321,5.775-15.116.573-20.733,2.088-.436,5.048.044,6.279,1.958a6.213,6.213,0,0,1,.8,2.626,18.857,18.857,0,0,1-.67,7.746c1.338-.424,2.778.628,3.312,1.925a9.506,9.506,0,0,1,.332,4.161,7.142,7.142,0,0,0,.636,4.1,10.686,10.686,0,0,1,.862,1.376,4.011,4.011,0,0,1-.136,2.652,20.091,20.091,0,0,1-2.71,5.522,5.281,5.281,0,0,0-.9,1.621,8.067,8.067,0,0,0-.087,1.834c-.066,2.471-1.735,4.574-3.383,6.416-3.891,4.344-9.895,3.82-16.063,3.3a40.832,40.832,0,0,0-10.127-.034c-5.537.951-21.35,4.349-23.543,4.726"
    /><path
      class="cls-26"
      d="M346.483,453.549c6.548,19.836,14.391,39.644,27.4,55.988,3.639,4.572,7.382,14.259,11.97,17.879,17.984,14.188,42.206,16.82,65.019,18.909,2.106.193,4.333.366,6.243-.546,1.381-.66,2.742-7.23,3.724-8.408A56.564,56.564,0,0,0,471.6,517.312a8.756,8.756,0,0,0,.408-4.927,9.255,9.255,0,0,0-3.3-4.138,116.6,116.6,0,0,0-11.813-8.194c-3.21-2.084-7.062-4.253-10.649-2.92-.972.361-1.922.98-2.952.859a4.2,4.2,0,0,1-2.257-1.355c-14.185-13.491-20.613-31.112-29.4-47.938-8.074-15.469-19.431-29.107-34.324-38.407-3.323-2.073-6.9-3.982-10.807-4.325-6.128-.537-12.06,2.967-15.968,7.719-10.062,12.24-8.756,25.66-4.068,39.863"
    /><path
      class="cls-48"
      d="M353.863,473.883l.032.078-.032-.078m-7.61-21.039c.068.238.136.474.205.713,1.875,6.449,4.373,12.763,6.924,19.133q.213.536.43,1.069c-2.7-6.642-5.088-13.424-7.329-20.21-.077-.235-.154-.471-.23-.7"
    /><path
      class="cls-49"
      d="M373.636,509.222l.072.091-.072-.091m-.188-.239.077.1-.077-.1m-.231-.3.079.1-.079-.1m-.193-.249.08.1-.08-.1m-.177-.228.062.08-.062-.08m-.2-.264.024.032-.024-.032m-.2-.258.03.04-.03-.04"
    /><path
      class="cls-50"
      d="M466.159,530.482c-.138.01-.276.02-.414.028l-.058.1.165.01a.7.7,0,0,1,.307-.133"
    /><path
      class="cls-51"
      d="M465.687,530.605c-.064.106-.129.211-.194.317a2.652,2.652,0,0,1,.359-.307l-.165-.01"
    /><path
      class="cls-49"
      d="M419.55,542.092a225.582,225.582,0,0,0,30.651,4.5l.11,0a1.907,1.907,0,0,0,.865-.247l-.3-.028c-10.39-.952-21.073-2.016-31.325-4.233"
    /><path
      class="cls-30"
      d="M343.272,431.684a71.12,71.12,0,0,0,2.981,21.16c.076.234.153.47.23.7,2.241,6.786,4.632,13.568,7.329,20.21l.051.124.032.078c4.853,11.908,10.751,23.475,18.553,33.728l.03.04.167.218.024.032.178.232.062.08.115.148.08.1.113.145.079.1.152.194.077.1.111.141.072.091.178.224c3.639,4.572,7.089,13.629,11.677,17.25,9.929,7.834,21.645,12.418,33.987,15.3,10.252,2.217,20.935,3.281,31.325,4.233l.3.028c2.029-1.06,4.6-5.2,6.235-5.978,1.861-.89,3.043-2.571,4.281-4.138.566-.717,2.568-4.1,3.8-5.315.065-.106.13-.211.194-.317l.058-.1q-3.729.24-7.469.24a119.72,119.72,0,0,1-61.4-17.006,79.77,79.77,0,0,1-10.806-7.646,91.018,91.018,0,0,1-13.836-15.493,186.664,186.664,0,0,1-28.959-58.921"
    /><path
      class="cls-52"
      d="M373.938,409.225a64.943,64.943,0,0,1,25.321,25.019,129.039,129.039,0,0,1,5.655,11.889l10.854,24.974c2.452,5.643,4.926,11.327,8.426,16.385s8.136,9.514,13.849,11.795c7.171,2.863,15.764,2.253,21.944,6.88-4.557-3.412-5.487-12.1-13.733-9.034-.972.361-1.922.979-2.952.858a4.2,4.2,0,0,1-2.258-1.353c-14.184-13.492-20.612-31.112-29.394-47.938a108.161,108.161,0,0,0-15.89-22.954C389.938,419.375,382.38,411.542,373.938,409.225Z"
    /><path
      class="cls-53"
      d="M442.451,497.235q-.27-.241-.568-.465c.883-1.387,7.151-2.407,13-.126a57.9,57.9,0,0,1,9.563,4.37,25.648,25.648,0,0,1,11.821,15.515c3.257,12.839-.895,23.652-9.868,31.824-.652.593-5.189.57-6.033.827a6.023,6.023,0,0,1-2.449.049l-16.559-1.959c1.313-.955,1.8-2.656,2.184-4.234,3-12.42,4.477-25.379,2.488-38C445.557,502.061,444.7,499.241,442.451,497.235Z"
    /><path
      class="cls-54"
      d="M879.73,432.091c-5.508-.3-16.127.016-18.765-4.827-1.607-2.952-2.53-12.143-2.487-15.5.322-25.487,3.082-41.321,12.868-59.991,3.225-6.156,6.856-12.213,11.869-17.025,4.162-4,18.05-3.924,26.617-3.85,1.749.014,3.275.03,4.454.01,6.948-.117,13.531,3.094,19.313,6.951,4.977,3.321,9.694,7.295,12.673,12.483,2.62,4.561,3.758,9.811,4.579,15.008a147.223,147.223,0,0,1-.63,49.531c-1.283,6.958-3.125,13.957-6.946,19.913s-9.9,10.786-16.918,11.665a53.157,53.157,0,0,0-3.521,31.328,33.7,33.7,0,0,0-17.571-5.666c-12.479-.406-25.185-.341-34.126-10.442,0,0,6.275-19.6,8.591-29.586"
    /><path
      class="cls-55"
      d="M626.094,507.36c.057.947,5.493,3.953,6.419,4.619l6.819,4.908c3.272,2.355,10.719,5.721,10.641,10.411s-5.244,4.106-8.377,2.872c-4.2-1.655-7.771-5.066-10.367-8.691A27.235,27.235,0,0,1,626.094,507.36Z"
    /><path
      class="cls-56"
      d="M776,653.755c-9.849,3.311-17.06,11.747-22.728,20.454-2.38,3.66-6.026,5.037-4.666,9.184,2.732,8.32,9.424,9.923,19.473,12.377,5.437,1.326,147.17-24.223,151.516-27.4,12.091-8.855,31.779-6.575,31.532-15.43-.195-6.987-2.367-10.379-7.367-15.263-5.228-5.106-12.949-6.518-20.206-7.383-28.449-3.387-58.638-1.639-83.578,12.463l-63.976,11"
    /><path
      class="cls-54"
      d="M969.2,994.379c5.054,21.383,13.157,51.213,4.256,71.728a55.288,55.288,0,0,1-14.976,20.551c-2.032,1.7-4.269,3.293-5.526,5.62s-1.13,5.68,1.071,7.148c1.563,1.043,3.628.836,5.462.433,8.445-1.859,15.81-6.963,22.36-12.608a129.654,129.654,0,0,0,12.17-11.975c3.518-3.95,7.962-2.942,9.053-8.117,1.247-5.917-1.723-17.357-3.034-23.262-1.278-5.76-1.618-11.555-2.518-17.307-.993-6.352.86-46.92-.342-53.235L969.2,994.379"
    /><path
      class="cls-16"
      d="M845.9,709.748c-1.758,56.555,20.278,111.243,47.643,160.768s50.669,97.356,74.2,148.813c10.215,3.187,29.808-4.866,37.936-6.267q-.391-10.058-1.035-20.1c-2.079-31.8-6.4-63.644-15.7-94.2-4.819-15.833-28-54.4-29.953-59.78-2.6-7.148-22.182-91.007-21.3-94.929a52.213,52.213,0,0,1,2.291-6.877c10.4-27.645,11.739-60.242-3.494-85.549-3.072-5.106-6.868-9.93-11.9-13.113-6.728-4.252-15.972-4.151-23.7-5.387-9.158-1.465-18.158-4.268-27.163-.322-8.729,3.824-14.019,12.39-17.2,21.007-3.694,10.008-7.764,20.278-8.723,31-1.107,12.391-3.642,24.532-2.552,37.159l.657-12.22"
    /><path
      class="cls-57"
      d="M997.912,1015.035l-.7.2v.151c.233-.115.466-.233.7-.352M962.4,1007.7c1.281,2.8,2.185,5.11,3.2,6.945q-1.6-3.482-3.2-6.945M897.3,877.361q22.481,41.127,42.874,83.348,10.854,22.356,21.264,44.922c-20.339-43.965-40.8-85.578-64.138-128.27m-19.5-37.379.015.034-.015-.034m-.2-.423.075.159-.075-.159M864.662,809.4h0c3.871,10.157,8.2,20.169,12.871,30.02-4.668-9.853-9-19.862-12.871-30.021"
    /><path
      class="cls-58"
      d="M997.216,1015.236c-6.486,1.868-14.516,4.236-21.338,4.737.136,0,.274,0,.414,0h.092a46.81,46.81,0,0,0,20.831-4.59v-.151"
    /><path
      class="cls-59"
      d="M933.041,653.109c-10.666,2.162-22.76,9.36-30.862,15.325a25.2,25.2,0,0,1,1.047,7.175c0,57.43-23.8,81.522-23.8,81.522-4.758,14.56-9.611,29.353-13.192,45.166-.484,2.135-1.015,4.533-1.575,7.1,3.872,10.159,8.2,20.168,12.871,30.021l.067.14.075.159.126.264.015.034c4.923,10.353,10.211,20.523,15.716,30.484q1.893,3.428,3.771,6.861c23.343,42.692,43.8,84.305,64.138,128.27l.819,1.771.136.295q1.6,3.461,3.2,6.945c1.923,3.485,4.239,5.245,10.285,5.331,6.822-.5,14.852-2.869,21.338-4.737l.7-.2q.938-.483,1.857-1.017c-3.976-38.711-8.108-78.059-23.008-114.008-9.725-23.462-23.825-44.916-33.5-68.4A199.265,199.265,0,0,1,928.646,744.6q-1.315,1.578-2.631,3.158c12.031-15.433,13.886-36.766,14.011-56.545.075-11.732-.319-23.826-5.076-34.549a27.71,27.71,0,0,0-1.909-3.557"
    /><path
      class="cls-14"
      d="M1004.482,1080.518c2.215-1.99,4.547-4.02,5.734-6.749.784-1.8,1.852-4.756,1.731-6.716-.285-4.615-.579-13.426-11.512-16.345,2.161,6.653-4.623,15.387-9.311,22.769-6.069,9.553-13.265,19.042-23.518,23.836-2.341,1.095-5.044,1.928-7.48,1.06-4.351-1.55-2.93-5.022-.855-7.473-10.76,5.974-15.881,9.5-23.42,13.75-6.972,3.933-2.958,13.421,2.226,14.96,4.733,1.406,20.949-1.4,24.089-1.952,3.465-.609,7.068-1.275,9.9-3.36C974.071,1112.824,999.45,1085.038,1004.482,1080.518Z"
    /><path
      class="cls-14"
      d="M808.083,1095.878c-7.279,1.973-34.675,3.205-41.116,2.518-4.525-.484-8.239-1.586-10.711-5.408-.32-.5-.663-1.083-1.246-1.177a1.872,1.872,0,0,0-.9.154c-6.415,2.23-27.832,8.045-29.049,11.157-.98,2.506-.154,5.435,1.454,7.592,4.015,5.388,11.588,6.329,18.3,6.66a500.428,500.428,0,0,0,62.834-1.1c4.474-.341,8.988-.732,13.432-.116,1.657.23,3.4.59,4.959-.026a7.717,7.717,0,0,0,3.485-3.633,34.036,34.036,0,0,0,4.486-13.531c.323-3.332-1.671-14.541-4.953-16.714-3.024-2-5.726,1.741-8.11,3.364C816.689,1088.519,813.087,1094.521,808.083,1095.878Z"
    /><path
      class="cls-14"
      d="M1004.482,1075.5c2.215-1.989,4.547-4.02,5.734-6.75.784-1.8,1.852-4.756,1.731-6.716-.285-4.613-.579-13.426-11.512-16.344,2.161,6.654-4.623,15.386-9.311,22.768-6.069,9.554-13.265,19.042-23.518,23.837-2.341,1.1-5.044,1.928-7.48,1.06-4.351-1.55-2.93-5.023-.855-7.473-10.76,5.974-15.881,9.5-23.42,13.751-6.972,3.932-2.958,13.42,2.226,14.959,4.733,1.4,20.949-1.4,24.089-1.951,3.465-.61,7.068-1.277,9.9-3.362C974.071,1107.8,999.45,1080.017,1004.482,1075.5Z"
    /><path
      class="cls-54"
      d="M808.149,983.645a197.309,197.309,0,0,1-8.691,61.624c-4.218,13.7-5.161,26.147-17.5,33.438-11.259,6.652-33.85,11.513-46.106,16.072,14.669,20.061,61.817,2.85,90.233-4.48-.8-9.822.331-19.683,1.288-29.49q2.95-30.245,3.723-60.647l-22.948-16.517"
    /><path
      class="cls-14"
      d="M808.083,1090.855c-7.279,1.973-34.675,3.206-41.116,2.518-4.525-.483-8.239-1.586-10.711-5.407-.32-.495-.663-1.083-1.246-1.177a1.872,1.872,0,0,0-.9.154c-6.415,2.23-27.832,8.044-29.049,11.157-.98,2.506-.154,5.434,1.454,7.592,4.015,5.387,11.588,6.329,18.3,6.66a500.617,500.617,0,0,0,62.834-1.1c4.474-.343,8.988-.733,13.432-.117,1.657.229,3.4.59,4.959-.027a7.717,7.717,0,0,0,3.485-3.631,34.045,34.045,0,0,0,4.486-13.533c.323-3.332-1.671-14.54-4.953-16.714-3.024-2-5.726,1.742-8.11,3.365C816.689,1083.5,813.087,1089.5,808.083,1090.855Z"
    /><path
      class="cls-16"
      d="M797.88,1028.863c.706-28.463-2.18-89.636-3.47-104.635-3.958-45.982-24.283-100.384-29.086-146.287s-3.749-74.472,6.156-119.549c.673-3.06,16.618-2.721,18.492-5.232,1.841-2.467,4.576-4.084,7.256-5.6a336.63,336.63,0,0,1,36.466-17.8c5.437-2.26,11.558-4.391,17.069-2.316,3.328,1.255,5.921,3.881,8.4,6.433l17.614,18.127c1,1.031,4.132.192,7.252-.646,3.309-.889,6.607-1.78,7.331-.438,2.026,3.756,11.866,11.807,11.866,24.687,0,57.43-23.8,81.522-23.8,81.522-4.758,14.56-9.611,29.353-13.192,45.166-4.138,18.265-11.722,55.752-11.722,55.752.3,19.576,3.024,39.053,3.449,58.627.806,37.178-12.627,74.109-23.331,109.72-1.436,4.784-37.207,7.44-36.753,2.467"
    /><path
      class="cls-60"
      d="M797.99,1018.857c0,3.638-.035,7-.11,10.006-.066.721.061,1.038.33,1.038l.166-.032a1.154,1.154,0,0,1-.5-1.006c.075-3,.109-6.368.11-10.006"
    /><path
      class="cls-61"
      d="M767.167,680.2a295.305,295.305,0,0,0-4.617,51.631,439.221,439.221,0,0,0,2.774,46.111c4.8,45.9,25.128,100.3,29.086,146.287,1.154,13.418,3.585,63.783,3.58,94.629,0,3.638-.035,7-.11,10.006a1.154,1.154,0,0,0,.5,1.006c1.83-.66,7.992-11.1,9.182-15.06,10.7-35.614,10.4-68.25,9.593-105.426-.424-19.576-20.069-107.368-21.669-126.029-2.416-28.177-2.745-64.335,2.012-78.9,0,0,1.473-1.407,3.962-3.823C793.61,698.2,787,695.062,783,691.479c-6.329-5.668-11.548-9.205-15.837-11.28"
    /><path
      class="cls-54"
      d="M876.862,432.251c6.892-1.851,12.873-6.378,17.321-11.956s7.463-12.18,9.745-18.94a28.085,28.085,0,0,0,1.9-10.024c-.14-3.417-1.521-6.934-4.295-8.935a8.9,8.9,0,0,0-8.1-1.126c-2.666.966-7.642,6.187-8.342,8.937,1.1-12.969-1.071-18.8-2.728-24.441-.83-2.823-2.589-8.014-13.819-9.027,0,0,.812-2.159,1.341-8.611,2.321-1.083,2.857-.72,4.067-.356a8.633,8.633,0,0,0,2.752.365c3.752-.033,7.615-.045,11.1,1.349a25.423,25.423,0,0,1,7.633,5.354,50.253,50.253,0,0,1,8.407,9.713c5.776,9.138,6.769,20.447,6.875,31.256.061,6.295-.134,12.658-1.747,18.742-1.761,6.631-5.144,12.7-8.493,18.69A133.707,133.707,0,0,1,890.2,449.689c-2.717,3.536-11.79,11.969-15.733,5.263-1.643-2.792.276-6.835.831-9.686a89.959,89.959,0,0,0,1.562-13.015"
    /><path
      class="cls-25"
      d="M906.888,448.9c-10.659-4-47.35.736-57.357,6.164-14.7,7.97-13.431,18.215-22.2,31.9-10.5,16.377-19.809,33.478-29.084,50.567-10.536,19.415-21.086,38.923-28.718,59.651-7.3,19.832-20.9,42.47-22.571,63.538-.6,7.611-.8,15.451,1.652,22.681,0,0,6.114-17.245,34.4,8.086,14.49,12.98,63.183,20.132,81.087,9.1,12.494-7.7,22.213-19.088,33.459-28.519s39.867-27.576,52.379-15.676c4.761-7.122,5.543-16.334,3.9-24.743s-5.485-16.206-9.426-23.814a41.569,41.569,0,0,1-3.528-8.14c-.828-3.069-5.479-8.38-5.446-11.557.295-28.311,5.936-55.766,3.018-83.928-2.608-25.18-6.555-45.92-31.558-55.3"
    /><path
      class="cls-62"
      d="M875.2,445.734a38,38,0,0,0-6.483,4.028c1.836-.315,3.724-.6,5.63-.864.287-1.111.629-2.193.853-3.164"
    /><path
      class="cls-63"
      d="M881.505,443.428a32.169,32.169,0,0,0-6.3,2.306c-.224.971-.566,2.053-.853,3.164,1.823-.25,3.665-.472,5.5-.665a31.45,31.45,0,0,1,1.657-4.805"
    /><path
      class="cls-64"
      d="M851.819,704.838a81.653,81.653,0,0,1-14.437,1.173q-.644,0-1.291-.008c.546.007,1.094.011,1.641.011a75.2,75.2,0,0,0,13.984-1.157l.1-.019M801.975,700.8l-1.083,1.5c11.166,1.812,21.861,3.348,33.132,3.666l.208.006a127.34,127.34,0,0,1-32.257-5.17"
    /><path
      class="cls-65"
      d="M879.848,448.233c-1.836.193-3.678.415-5.5.665-1.906.26-3.794.549-5.63.864A44.53,44.53,0,0,0,854.8,468c-6.364,15.631,12.253,16.146,13.205,33,2.483,43.975-15.188,106.691-33.181,146.893-8.5,18.982-20.658,36.041-32.844,52.9a127.34,127.34,0,0,0,32.257,5.17q.928.025,1.859.038.648.008,1.291.008a81.653,81.653,0,0,0,14.437-1.173c3.585-.729,9.061-4.262,12.272-4.262,12.494-7.7,22.213-19.088,33.459-28.519,8.624-7.235,27.469-19.591,41.429-19.591,4.243,0,8.033,1.141,10.95,3.915a30.081,30.081,0,0,0,4.682-16.815,41.477,41.477,0,0,0-.783-7.928c-1.642-8.408-5.485-16.206-9.426-23.814a41.569,41.569,0,0,1-3.528-8.14c-.825-3.056-5.443-8.338-5.446-11.519v-.038c.063-6.1.361-12.184.768-18.253a51.247,51.247,0,0,1-24.508-27.042c-3.008-7.859-3.98-16.266-5.716-24.451a53.082,53.082,0,0,0-8.849-20.835c-3.911-5.592-8.556-10.7-11.789-16.712a55.6,55.6,0,0,1-5.541-17.227,38.993,38.993,0,0,1-.2-14.28q.114-.551.252-1.094"
    /><path
      class="cls-54"
      d="M663.99,545.649c-7.032-.371-13.8-.545-20.75-1.85-1.934-.363-5.348-4.38-5.686-4.829,0,0-2.053-1.08-2.46-1.38-3.1-2.278-2.925-5.918-3.17-6.464a39.367,39.367,0,0,1-3.6-2.535c-3.44-3-5.676-10.7-7.081-14.924a88.98,88.98,0,0,1-4.3-21.643,2.128,2.128,0,0,1,.173-1.266c.551-.91,1.97-.527,2.817.117,2.75,2.088,4.017,5.544,5.148,8.807l6.308,18.2a4.394,4.394,0,0,0,2.718,3.208c6.125,3.265,11.214,5.054,18.294,5.054,7.9-7.462-19.361-22.652-13.179-26.807,7.708.242,11.866,9.013,18.255,13.331,4.892,3.307,12.61,2.963,18.044,5.272,8.563,3.64,14.975,11.121,23.151,15.593,8.906,4.872,18.609,8.151,28.394,10.744,15.683,4.158,31.821,6.7,47.13,12.067,4.294,1.507,8.827,3.5,11.067,7.46,1.591,2.812,1.761,6.191,1.715,9.423a88.068,88.068,0,0,1-3.043,21.7,110.551,110.551,0,0,1-42.593-12.084c-15.582-8.088-28.964-19.743-43.121-30.126-4.858-3.562-10.4-7.439-16.445-8.587C675.807,542.991,670.044,545.969,663.99,545.649Z"
    /><path
      class="cls-66"
      d="M663.99,545.649c-7.032-.371-13.8-.545-20.75-1.85-1.934-.363-5.348-4.38-5.686-4.829,0,0-2.053-1.08-2.46-1.38-3.1-2.278-2.925-5.918-3.17-6.464a39.367,39.367,0,0,1-3.6-2.535c-3.44-3-5.676-10.7-7.081-14.924-2.312-6.963-4.161-14.4-3.855-21.766q4.145,13.228,8.291,26.456c1.161,3.707,2.5,7.671,5.638,9.963,1.167.853,2.56,1.451,3.461,2.581.643.808.977,1.819,1.557,2.673a9.409,9.409,0,0,0,2.791,2.483,32.393,32.393,0,0,0,15,5.062c13.1,1.017,26.794-5.9,39.014-1.059,6.976,2.761,11.96,8.85,17.289,14.13,19.37,19.194,48.381,29.632,74.8,22.889,1.393-.355-.732,12.611-1.166,13.672-1.094,2.68-1.382,3.593-4.044,3.809-2.463.2-5.5-.723-7.922-1.171a110.567,110.567,0,0,1-30.759-10.552c-15.582-8.088-28.964-19.743-43.121-30.126-4.858-3.562-10.4-7.439-16.445-8.587C675.807,542.991,670.044,545.969,663.99,545.649Z"
    /><path
      class="cls-25"
      d="M825.264,483.475c-5.225,11.743-7.987,24.453-12.1,36.592-4.425,13.061-11.642,22.252-19.389,33.511-1.807,2.625-3.742,5.363-6.615,6.742-8.991,4.317-20.741-6.961-28.9-1.222-2.457,1.728-10.977,20.839-13.966,27.58a4.075,4.075,0,0,0,1.361,5.99C751.4,597.6,790.153,625,803.208,621.112,832.885,612.284,857.742,548.093,864,532c7-18,11.065-75.334-3.974-79.533C844.573,448.152,827.09,479.179,825.264,483.475Z"
    /><path
      class="cls-67"
      d="M851.361,560.568a89.266,89.266,0,0,1-30.045,37.041c-3.718,2.639-7.756,5.037-12.245,5.84-5,.9-10.2-.274-14.837-2.362s-8.812-5.055-12.993-7.948c-9.9-6.851-20.521-13.578-32.494-14.832-1.946,2.43-3.952,4.985-4.577,8.035-1.309,6.377,5.86,9.779,10.266,12.842,5.34,3.712,10.816,7.242,16.429,10.53,8.11,4.749,22.285,14.39,32.343,11.4,11.9-3.539,20.909-14.238,27.9-23.921a184.586,184.586,0,0,0,11.716-18.7c1.763-3.182,3.245-6.585,5.129-9.691C849.6,566.081,850.1,563.483,851.361,560.568Z"
    /><path
      class="cls-68"
      d="M825.264,483.475c-5.225,11.743-7.987,24.453-12.1,36.592-4.425,13.061-11.642,22.252-19.389,33.511-1.807,2.625-3.742,5.363-6.615,6.742-6.093,2.925-12.963-1-18.945-2.316-7.779-1.707-11.633,2.4-13.9,9.8.958-3.424,4.973-5.174,8.521-4.951s6.815,1.889,10.14,3.151a46.31,46.31,0,0,0,12.957,2.88,20.02,20.02,0,0,0,7.19-.521,19.173,19.173,0,0,0,7.841-5.114c5.318-5.306,8.944-12.049,12.147-18.844,8.692-18.442,14.812-37.968,22.187-56.975,3.442-8.87,7.229-17.752,13.1-25.238,2.339-2.981,5.217-5.847,8.911-6.69s8.239,1.18,8.889,4.913c-3.383-6.059-6.447-9.976-13.64-7.571-4.94,1.65-9.085,5.419-12.584,9.143A80.186,80.186,0,0,0,825.264,483.475Z"
    /><path
      class="cls-69"
      d="M885.178,307.062a54.083,54.083,0,0,0-21.393-1.82c-4.684.582-9.484,1.957-12.914,5.2a21.4,21.4,0,0,0-4.72,7.264c-2.988,6.986-3.917,15.089-1.271,22.211s9.28,12.946,16.863,13.42a32.63,32.63,0,0,0,6.507-.431c5.376-.737,10.1-1.473,13.242,5.07,2.536,5.277,5.447,11.8,5.7,17.652.314,7.281-1.845,12.848-2.1,14.578-.126.844,1,1.477,1.836,1.672,1.921.452,3.158-2.057,4.984-2.807,1.782-.732,3.887.438,4.861,2.1a12.2,12.2,0,0,1,1.2,5.594c.54,10.342-1.488,21.871-7.406,30.748-3.952,7.16-9.3,13.8-10.964,21.813a38.993,38.993,0,0,0,.2,14.28,55.6,55.6,0,0,0,5.541,17.227c3.233,6.012,7.878,11.12,11.789,16.712a53.082,53.082,0,0,1,8.849,20.835c1.736,8.185,2.708,16.592,5.716,24.451a50.419,50.419,0,0,0,71.647,26.012c15.965-8.906,25.832-25.651,33.471-42.262,9.153-19.9,16.284-41.086,17.4-62.969s-4.216-44.621-17.837-61.783a91.88,91.88,0,0,0-22.969-20.1c-6.714-4.264-13.9-7.912-19.78-13.271-11.4-10.395-19.013-37.577-28.37-46.259-10.173-9.435-26.18-7.49-33.749-5.881a13.016,13.016,0,0,1-4.567.494,12.319,12.319,0,0,1-4.507-2.067,68.292,68.292,0,0,0-17.253-7.679"
    /><path
      class="cls-70"
      d="M858.4,317.043a6.643,6.643,0,0,0-3.4,1.025c-4.833,2.94-5.55,9.813-4.034,15.262,1.438,5.178,4.705,10.17,9.7,12.154,3.518,1.4,7.461,1.164,11.141,2.053,13.3,3.213,18.315,17.541,21.833,29.092,3.678,12.066,7.521,24.444,7.645,37.176.129,13.1-8.556,23.789-12.938,35.908-1.7,4.7-3.179,9.578-3.169,14.574.022,12.3,8.832,22.673,17.739,31.148a23.416,23.416,0,0,1,4.752,5.52,21.149,21.149,0,0,1,1.743,5.051c2.26,9.09,3.9,18.354,6.955,27.209s7.666,17.428,14.833,23.457a30.859,30.859,0,0,0,19.407,7.441,23.469,23.469,0,0,0,6.762-.971c7.086-2.124,12.793-7.574,16.73-13.835a46.974,46.974,0,0,0,6.947-29.088,5.266,5.266,0,0,0,1.761.3c2.461,0,4.918-1.6,6.847-3.312,9.908-8.778,15.3-21.708,17.716-34.725,1.554-8.4,1.982-17.152-.173-25.418-3.035-11.649-11.161-16.381-18.6-24.67-2.807-22.523-19.474-42.731-41.05-49.773-4.51-1.472-9.248-2.434-13.378-4.77-12.713-7.192-17.93-22.82-23.183-35.377-1.477-3.535-3.112-7.268-6.278-9.424a12.079,12.079,0,0,0-7.045-1.968,44.048,44.048,0,0,0-8.176,1.085,44.776,44.776,0,0,1-8.365,1.082c-.546,0-1.089-.02-1.628-.068A16.776,16.776,0,0,1,868.7,327.8a15.926,15.926,0,0,1-1.446-1.836c-2.36-3.5-4.124-8.455-8.324-8.9a5.28,5.28,0,0,0-.532-.027"
    /><path
      class="cls-54"
      d="M890.248,391.188a3.312,3.312,0,0,1,1.661-2.294,8.261,8.261,0,0,1,5.059-1.2,5.77,5.77,0,0,1,4.28,4.358c.83,3.754.2,6.859-.941,10.532a18.793,18.793,0,0,1-3.925,6.307c-1.536,1.694-3.627,3.662-5.876,3.246a1.154,1.154,0,0,1-.5-.19c-.347-.27-.324-.791-.472-1.2"
    /><path
      class="cls-69"
      d="M870.694,454.8c-4.643,15.283-2.851,31.764,2.435,46.909a1.112,1.112,0,0,0,2.152-.5c-.573-4.282-1.686-8.535-2.427-12.806a76.022,76.022,0,0,1,12.351-55.73c2.9-4.173,9.381-10.323,12.034-14.667,1.434-2.349,3.131-11.528.667-7.106C897.077,412.384,877.8,431.421,870.694,454.8Z"
    /><path
      class="cls-31"
      d="M778.674,560.765c-3.866-1.947-8.762-.774-12.124,1.952s-5.428,6.733-6.932,10.792a56.9,56.9,0,0,0-3.488,17.411c-.207,5.082.907,11.149,5.553,13.22-4.092,1.915-8.7-1.022-12.255-3.81l-7.172-5.625c-2.57-2.016-5.225-4.135-6.654-7.072-2.6-5.354-.449-11.7,1.729-17.236,2.5-6.365,5.345-13.142,11.109-16.824,5.1-3.259,11.732-3.432,17.526-1.67s10.893,5.266,15.647,9.018L772.2,559.04"
    /></g></svg>
