<svg id="Layer_1" xmlns="http://www.w3.org/2000/svg" viewBox="0 0 295 202.8">
  <linearGradient id="SVGID_1_" gradientUnits="userSpaceOnUse" y1="101.4" x2="295" y2="101.4">
    <stop offset="0" stop-color="#cfedf9" />
    <stop offset="0.3" stop-color="#d5eff9" />
    <stop offset="0.8" stop-color="#e7f6fc" />
    <stop offset="1" stop-color="#f3fafd" />
  </linearGradient>
  <path
    d="M0 111.5a43.9 43.9 0 0 1 46.4-43.8c51.9 1 98.9-42.2 98.9-42.2v.1a87.8 87.8 0 1 1 68 149.8 117 117 0 0 0-35.2 12.3 65.6 65.6 0 0 1-95.6-12.5 70.4 70.4 0 0 0-39.6-19.8c-23.8-.5-42.9-20-42.9-43.9z"
    fill="url(#SVGID_1_)"
  />
  <path
    d="M200 136.7s-24.8-18.1-30-27.5c0 0-22 1.7-51-3.2-5-.7-8.3-2.3-7.5-3.7 1.2-1.9 5.2-.5 9.2 3.7 14.4 15.1 28.1 40 28.1 40 10.7-.8 38.8 8.5 38.8 8.5"
    fill="#94c5fa"
  />
  <path
    fill="#0058B0"
    d="M261.4 156.3c1.5-1.6-8.3-5.3-10.3-6-8.4-2.5-23.7-7.2-32.2-10.6-6.7-2.7-16.1-7.3-16.1-7.3l-18.2 26.5s14 8.1 22.8 17c1.5 1.5 38.8-4 54-19.6z"
  />
  <path transform="rotate(-60.8 141.7 117.8)" fill="#0058B0" d="M141.3 96.6h.9V139h-.9z" />
  <path
    fill="#0058B0"
    d="M109.8 100.2C84.7 85.4 66.8 67 56.4 45.5l.8-.3c10.3 21.2 28 39.5 53 54.2l-.4.8z"
  />
  <path
    fill="#0058B0"
    d="M109.4 100.8l-1.8-1c-15.5-8-25.6-13.4-43-17l.1-1C82.3 85.6 92.5 91 108 99l1.8 1-.4.8zM54.6 109.3l-.6-.6a59.8 59.8 0 0 1 55.6-7.3l-.3.8a58.8 58.8 0 0 0-54.7 7.1z"
  />
  <path
    fill="#00DE91"
    d="M49.2 85.6a23.4 23.4 0 0 0-10.3-3.3c2.2.4 11.2-3.5 11-1-.7 2.4-13.7-5.8-17.3-7 2.5 1.3 18.7-1 17.4 1.4-1.2 2.1-7-4-8.8-5.2 3 .4 9.8-.7 14.6-.6 6 .2 10.9 6.7 8.7 13.2-2.2 6.7-10.8 5.3-15.3 2.5z"
  />
  <path
    fill="#FFD840"
    d="M71.6 36.6c-.6-.5-1.8-1-3.1-1.5l2.6-1c3-1.8 5.2-5 4-8.2-1-3-3.3-5-7.4-5.3-2.8-.2-5.6.7-7.7 2 .6-2.8.8-5.7.4-7.3-1.2-4-5-5.6-9.5-5.6-4.6 0-7.7 4.1-7.6 8.5 0 1 .3 2.2.6 3.4-4.5-3.6-11.2-6.2-15.1.2-4.8 7.8 1.6 12.7 7.6 14.7-2.4 1.2-4.5 3-5.4 5.3-1 2.6.2 6 2.7 7.6a9.9 9.9 0 0 0 10.1-.3c-.9 3.6-.9 7.8 2 10 2.5 1.8 5.3 2.5 7.8.5 1-.7 1.7-1.8 2.2-3 1.4-3.1 1.3-8.6.6-12.6 1.5 1.6 3.4 3 4.4 3.6 3.3 1.8 8.8 3 12 .4 4.9-4.1 1-9.6-1.2-11.4zm-22 1.3a3.3 3.3 0 1 1 3.1-5.8 3.3 3.3 0 0 1-3.1 5.8z"
  />
  <path
    fill="#00DE91"
    d="M54.5 109.5a9.4 9.4 0 0 0-4.7-2.1c-1-.2-2.4.2-2.3 1.3 0 .3.3.6.6.8a5 5 0 0 0 5.6.6 9 9 0 0 0-4.3 3.4c-.6 1-1 2.3-.4 3.2.8 1 2.4 1 3.3.1s1.4-2 1.8-3c.5-1.4 0-3.7.6-5M61.8 103.7c-2.7 0-5.3-.9-7.5-2.4-.7-.6-1.4-1.3-1.5-2.2-.3-1.3 1-2.5 2.4-2.7s2.7.5 3.8 1.3c1.7 1 3.6 4.1 2.6 5.8M63 114.2c.1 1.7 1.4 3.4 3.2 3.6 1.5.1 2.8-.9 3.7-2 2-2.6 3.3-9.9-1.2-10.9-3.7-.8-6 6.5-5.7 9.3zM68 94c-1-.8-2.3-1.8-2.5-3.1-.3-2 2-3.7 4-3.5 2.7.2 7.3 4.7 6.2 7.8-1.3 4-5.6.2-7.6-1.2zM78.8 105.4c-.8 1.7-1.6 3.8-.6 5.4.8 1.1 2.3 1.6 3.6 1.4a7 7 0 0 0 3.5-2c2.5-2.3 4.6-7.3 1-9.7-3.7-2.5-6.1 2-7.5 5zM109.7 99.2a42.3 42.3 0 0 1-17.4-21.9A48.9 48.9 0 0 1 94 51C95 47 96.3 43 95.7 39a91.1 91.1 0 0 1 10.7 30.4c1.1 11-.7 19.5 3.2 30l-2.8-4.1"
  />
  <circle fill="#00DE91" cx="24.4" cy="53.1" r="2" />
  <circle fill="#FFD840" cx="31.8" cy="62" r="3.1" />
  <circle fill="#00DE91" cx="77.1" cy="53.2" r="1.3" />
  <circle fill="#00DE91" cx="84.7" cy="45.7" r="1.8" />
  <circle fill="#00DE91" cx="77.5" cy="120.7" r="2.7" />
  <circle cx="163.8" cy="130.1" r="4.5" fill="#fff" />
  <path
    fill="#0058B0"
    d="M109.6 100c-9.7-14.9-13.4-28.8-11-41.2l.8.1c-2.3 12.3 1.4 26 11 40.6l-.8.5z"
  />
</svg>
