<svg xmlns="http://www.w3.org/2000/svg" viewBox="0 0 300 300">
  <g style="isolation: isolate;">
    <g id="Hand_and_Bag" data-name="Hand and Bag">
      <ellipse cx="146.06" cy="278.91" rx="84.73" ry="15.97" fill="#deecfc" />
      <path
        d="M218.93,123.07A52.08,52.08,0,1,1,166.85,71,52.08,52.08,0,0,1,218.93,123.07Z"
        fill="#f6b1b7"
      />
      <path
        id="choc-animate2"
        d="M193.82,97.39c3.4-.85,3.71-7.26,7.62-6.71,8,1.14,4.26,11.84,13.08,11-11.1-28.28-45.93-46.87-77.43-23.8a101.11,101.11,0,0,0-8.34,7.71c.34,1.33,3.83-.19,5.83.35,2.94.79,6.7-1.13,9.55-1.7,4.31-.85,7.75.4,11.06,3.31,8.19,7.18,10.79,1.19,13.59.16,5.72-2.12-.57,10.26,2.66,12.86a3.59,3.59,0,0,0,1.95.65c8.44,1.3,1.15-12,5-14.2a4.89,4.89,0,0,1,3.54-.88C186.94,86.38,184.14,99.82,193.82,97.39Z"
        fill="#3d2718"
      >
        <animate
          attributeName="d"
          attributeType="XML"
          values="M194,97C197,97,198,90,201,91C209,92,206,103,215,102C203,73,169,55,137,78C134,80,131,83,129,86C129,87,133,85,135,86C138,87,141,85,144,84C148,83,152,85,155,88C163,95,166,89,169,88C175,86,168,98,171,101C172,101,173,101,173,101C182,103,175,89,178,87C179,86,181,86,182,86C187,86,184,100,194,97C194,97,194,97,194,97;M193,99C197,98,197,91,201,91C209,92,205,104,214,102C204,73,169,55,136,80C133,83,130,86,127,89C127,90,131,88,133,89C136,89,140,87,143,87C147,86,151,87,154,90C162,97,165,90,168,89C174,87,167,100,170,103C171,103,171,103,172,103C181,104,174,91,178,88C179,87,180,87,181,87C186,87,183,102,193,99C193,99,193,99,193,99;M194,97C197,97,198,90,201,91C209,92,206,103,215,102C203,73,169,55,137,78C134,80,131,83,129,86C129,87,133,85,135,86C138,87,141,85,144,84C148,83,152,85,155,88C163,95,166,89,169,88C175,86,168,98,171,101C172,101,173,101,173,101C182,103,175,89,178,87C179,86,181,86,182,86C187,86,184,100,194,97C194,97,194,97,194,97"
          repeatCount="indefinite"
          dur="1s"
          begin="0s"
          calcMode="spline"
          keySplines=".25 .1 .25 1;.25 .1 .25 1"
        />
      </path>
      <path
        d="M193.06,82.69c2.3.91,5,3.06,7.73,2.91a4.59,4.59,0,0,0,3-1.1C188,67.18,161.53,60,137.09,77.89a90.58,90.58,0,0,0-7.92,7.27c.2.77,2.7-.72,3.4-.17,5.43-.53,11.86-2.87,15.06-3.81,9.14-2.72,18-5,27.34-3.29A95.19,95.19,0,0,1,193.06,82.69Z"
        fill="#3d2718"
        opacity="0.2"
        style="mix-blend-mode: multiply;"
      />
      <path
        d="M233.21,141.63H229.9c0-3.68-28.52-10.56-83.06-10.56S63.79,138,63.79,141.63h-3.3c0-11,56.49-13.86,86.35-13.86S233.21,130.66,233.21,141.63Z"
        fill="#4e97ee"
      />
      <path
        d="M176.51,263.61c-8.12-1.86-16.91-10.29-19.53-18.74a135.86,135.86,0,0,1-4.79-25.44c-1.44.12-2.89.2-4.35.2a55.53,55.53,0,0,1-6.73-.4,157.36,157.36,0,0,1-3.79,25.52c-2.19,8.59-10.62,17.19-18.72,19.11,0,0-15.83,3.76-15.83,10,0,7.86,20.25,14.2,45.18,14.17s45.15-6.45,45.13-14.32C193.07,267.4,176.51,263.61,176.51,263.61Z"
        fill="#4e97ee"
      />
      <path
        d="M155.44,257.2c3.73-12.1-2.14-25.33-3.25-37.77-1.44.12-2.89.2-4.35.2a55.53,55.53,0,0,1-6.73-.4,158.07,158.07,0,0,1-3.78,25.51c-1.9,7.43-7.84,14.29-14.68,17.63-2.71,1.33-6.05,1.39-8.53,3.07-3.71,2.52-3.31,7,.58,9.15a15.58,15.58,0,0,0,6.15,1.49c5.6.5,11.36.47,16.73-1.23a28,28,0,0,0,15.11-11.66A24.53,24.53,0,0,0,155.44,257.2Z"
        fill="#deecfc"
        opacity="0.3"
      />
      <path
        d="M148.47,282.39c-20.37,0-37.22-4-40.24-9.28a2.84,2.84,0,0,0-.53,1.56c0,6.1,18.27,11,40.78,11s40.75-5,40.74-11.09a2.84,2.84,0,0,0-.53-1.55C185.66,278.28,168.84,282.36,148.47,282.39Z"
        fill="#4e97ee"
        opacity="0.7"
        style="mix-blend-mode: multiply;"
      />
      <path
        d="M164.79,141a48.93,48.93,0,1,1-48.93-48.93A48.92,48.92,0,0,1,164.79,141Z"
        fill="#fff3cc"
      />
      <path
        id="choc-animate3"
        d="M67.85,114.28a53.61,53.61,0,0,0-2.49,25.22c.73,5.56,2.51,16.05,8.7,18.19,3.18,1.11,6.72-.31,9.42-2.33a22.2,22.2,0,0,0,5.26-5.59,44.31,44.31,0,0,0,4.07-8.64l3.82-9.87a13.69,13.69,0,0,1,2.29-4.3,4.65,4.65,0,0,1,4.36-1.66c2.43.6,3.42,3.51,3.63,6s.17,5.28,1.9,7.09a5.09,5.09,0,0,0,6.25.63,5.93,5.93,0,0,0,2.44-5.94c-.46-2.49-2.34-4.47-3.16-6.87-1.13-3.33-.06-7,1.61-10.13a17.9,17.9,0,0,1,6-6.76,10.57,10.57,0,0,1,8.71-1.38c1.39.44,2.73,1.26,4.2,1.18,3.05-.17,4.59-3.91,7.39-5.16,3.07-1.37,6.64.7,8.84,3.25s3.81,5.71,6.6,7.6a4.94,4.94,0,0,0,3.66,1c6.49-1.37-7-17.16-9.3-19.36a54.65,54.65,0,0,0-19.45-12c-14.37-5.16-31-4.4-44.11,3.67C78.67,94.08,71.75,103.61,67.85,114.28Z"
        fill="#3d2718"
      >
        <animate
          attributeName="d"
          attributeType="XML"
          values="M68,114C65,122,64,131,65,140C66,145,68,156,74,158C77,159,81,157,83,155C86,154,87,152,89,150C90,147,92,144,93,141C93,141,97,131,97,131C97,130,98,128,99,127C100,126,102,125,103,125C106,126,107,129,107,131C107,134,107,137,109,138C110,140,113,140,115,139C117,138,118,135,118,133C117,131,115,129,114,126C113,123,114,119,116,116C117,113,119,111,122,109C125,108,128,107,131,108C132,108,133,109,135,109C138,109,139,105,142,104C145,103,149,105,151,107C153,110,155,113,158,115C159,116,160,116,161,116C168,114,154,99,152,96C146,91,140,87,133,84C118,79,102,80,88,88C79,94,72,104,68,114C68,114,68,114,68,114;M68,116C65,124,64,133,65,142C66,148,68,159,74,161C77,162,81,161,83,159C86,157,87,155,89,153C90,150,92,147,93,144C93,144,97,133,97,133C97,132,98,130,99,129C100,128,102,127,103,127C106,128,107,131,107,134C107,136,107,139,109,141C110,143,113,143,115,142C117,140,118,138,118,135C117,133,115,131,114,128C113,125,114,121,116,118C117,115,119,112,122,111C124,109,128,108,131,109C132,110,133,111,135,110C138,110,139,106,142,105C145,104,149,106,151,108C153,111,155,114,158,116C159,117,160,118,161,117C168,116,154,99,152,97C147,92,140,87,133,85C118,79,102,80,88,88C79,95,72,105,68,116C68,116,68,116,68,116;M68,114C65,122,64,131,65,140C66,145,68,156,74,158C77,159,81,157,83,155C86,154,87,152,89,150C90,147,92,144,93,141C93,141,97,131,97,131C97,130,98,128,99,127C100,126,102,125,103,125C106,126,107,129,107,131C107,134,107,137,109,138C110,140,113,140,115,139C117,138,118,135,118,133C117,131,115,129,114,126C113,123,114,119,116,116C117,113,119,111,122,109C125,108,128,107,131,108C132,108,133,109,135,109C138,109,139,105,142,104C145,103,149,105,151,107C153,110,155,113,158,115C159,116,160,116,161,116C168,114,154,99,152,96C146,91,140,87,133,84C118,79,102,80,88,88C79,94,72,104,68,114C68,114,68,114,68,114"
          repeatCount="indefinite"
          dur="1s"
          begin="0s"
          calcMode="spline"
          keySplines=".25 .1 .25 1;.25 .1 .25 1"
        />
      </path>
      <path
        d="M122.24,104c10.39-3.45,20.89-4.34,31.42-5.85-23.44-24.87-70.81-24.86-85.81,16.14-3.75,10.27-3.75,22-1.14,32.15,4.11-.08,9-2.86,14.38-9.55C93.32,121.79,103,110.4,122.24,104Z"
        fill="#3d2718"
        opacity="0.2"
        style="mix-blend-mode: multiply;"
      />
      <path
        d="M124.23,94.62c4.64-.3,15.42-.18,21.24-3.5-24.93-17.37-64.21-13.51-77.62,23.16a45.81,45.81,0,0,0-2,7.47,4.18,4.18,0,0,0,4.42.63c2.88-1,4.94-4.66,7-6.72a106.29,106.29,0,0,1,17.13-13.32C103.52,96.36,113.64,95.29,124.23,94.62Z"
        fill="#3d2718"
        opacity="0.2"
        style="mix-blend-mode: multiply;"
      />
      <path
        d="M227.3,155.69a48.93,48.93,0,1,1-48.93-48.93A48.93,48.93,0,0,1,227.3,155.69Z"
        fill="#deecfc"
      />
      <path
        id="choc-animate1"
        d="M225.18,131.81c3.68,8.91,6.72,30.89-7.59,32.22a10.74,10.74,0,0,1-9.57-4.42c-1.25-1.8-1.93-3.94-3.13-5.77s-3.22-3.42-5.39-3.08c-1.9.3-3.36,2-5.26,2.28-2.54.38-4.77-1.93-5.59-4.37s-.74-5.08-1.4-7.57a10.24,10.24,0,0,0-5.93-7c-3-1.11-6.75-.17-8.44,2.51-1.29,2-1.26,4.61-1.86,6.93s-2.49,4.78-4.87,4.43c-1.76-.25-3-2-3.32-3.73a21.88,21.88,0,0,1,.06-5.3,7.26,7.26,0,0,0-1.23-5.05,5.75,5.75,0,0,0-5.58-1.59,14.21,14.21,0,0,0-5.35,2.81c-2.68,2-5.22,4.27-8.19,5.82s-6.54,2.34-9.69,1.2a3.22,3.22,0,0,1-2-1.54,3.62,3.62,0,0,1,0-2.3A42.7,42.7,0,0,1,144.14,117c11.77-10.33,28.46-14.87,43.91-12.93C204.61,106.16,218.76,116.26,225.18,131.81Z"
        fill="#3d2718"
      >
        <animate
          attributeName="d"
          attributeType="XML"
          values="M225,132C229,141,232,163,218,164C214,164,210,163,208,160C207,158,206,156,205,154C204,152,202,150,200,151C198,151,196,153,194,153C192,153,189,151,189,149C188,146,188,144,187,141C186,138,184,135,181,134C178,133,175,134,173,137C172,139,172,141,171,144C170,146,169,148,166,148C164,148,163,146,163,144C163,142,163,141,163,139C163,137,163,135,162,134C160,132,158,132,156,132C154,133,152,134,151,135C148,137,146,139,143,141C140,142,136,143,133,142C132,142,131,141,131,141C131,140,131,139,131,138C133,130,138,123,144,117C156,107,173,102,188,104C205,106,219,116,225,132C225,132,225,132,225,132;M225,133C229,142,232,166,218,167C214,167,210,165,208,162C207,160,206,158,205,156C204,154,202,153,200,153C198,153,196,155,194,155C192,156,189,153,189,151C188,148,188,146,187,143C186,140,184,137,181,136C178,134,175,135,173,138C172,140,172,143,171,145C170,148,169,150,166,150C164,150,163,148,163,146C163,144,163,143,163,141C163,139,163,137,162,135C160,134,158,133,156,134C154,134,152,135,151,137C148,139,146,141,143,143C140,144,136,145,133,144C132,144,131,143,131,142C131,142,131,141,131,140C133,131,138,124,144,118C156,107,173,102,188,104C205,106,219,117,225,133C225,133,225,133,225,133;M225,132C229,141,232,163,218,164C214,164,210,163,208,160C207,158,206,156,205,154C204,152,202,150,200,151C198,151,196,153,194,153C192,153,189,151,189,149C188,146,188,144,187,141C186,138,184,135,181,134C178,133,175,134,173,137C172,139,172,141,171,144C170,146,169,148,166,148C164,148,163,146,163,144C163,142,163,141,163,139C163,137,163,135,162,134C160,132,158,132,156,132C154,133,152,134,151,135C148,137,146,139,143,141C140,142,136,143,133,142C132,142,131,141,131,141C131,140,131,139,131,138C133,130,138,123,144,117C156,107,173,102,188,104C205,106,219,116,225,132C225,132,225,132,225,132"
          repeatCount="indefinite"
          dur="1s"
          begin="0s"
          calcMode="spline"
          keySplines=".25 .1 .25 1;.25 .1 .25 1"
        />
      </path>
      <path
        d="M173.07,123.07c-10-2.94-20-3.69-30.11-5C165.42,97,210.81,97,225.18,131.81a42,42,0,0,1,1.09,27.31c-3.94-.07-8.57-2.44-13.78-8.12C200.77,138.18,191.51,128.52,173.07,123.07Z"
        fill="#3d2718"
        opacity="0.2"
        style="mix-blend-mode: multiply;"
      />
      <path
        d="M171.15,115.11c-4.44-.25-14.77-.15-20.35-3,23.89-14.75,61.53-11.48,74.38,19.67a36.28,36.28,0,0,1,1.95,6.34,4.43,4.43,0,0,1-4.24.54c-2.76-.83-4.73-4-6.71-5.71a102.29,102.29,0,0,0-16.41-11.32C191,116.59,181.31,115.67,171.15,115.11Z"
        fill="#3d2718"
        opacity="0.2"
        style="mix-blend-mode: multiply;"
      />
      <path
        d="M233.16,141.86c0-.07,0-.15,0-.23h-.07c0-.11,0-.22-.07-.33l-1.59.33h-1.57c0,3.69-28.57,10.57-83.18,10.57s-83.18-6.88-83.18-10.57H62l-1.61-.34c0,.11,0,.23-.07.34h-.08a1.85,1.85,0,0,0,0,.23,52.59,52.59,0,0,0-1,10.31c0,37.07,39.25,67.22,87.5,67.22s87.49-30.15,87.49-67.22A52.57,52.57,0,0,0,233.16,141.86Zm-86.45,74.22c-46.43,0-84.2-28.67-84.2-63.91a49.49,49.49,0,0,1,.48-6.62c11.67,7.76,57.74,9.95,83.72,9.95s72-2.19,83.72-9.95a49.47,49.47,0,0,1,.47,6.62C230.9,187.41,193.13,216.08,146.71,216.08Z"
        fill="#4e97ee"
      />
      <path
        d="M146.71,155.09c-26,0-72.05-2.2-83.72-10a50.35,50.35,0,0,0-.48,6.67c0,35.48,37.77,64.34,84.2,64.34s84.19-28.86,84.19-64.34a50.33,50.33,0,0,0-.47-6.67C218.75,152.89,172.69,155.09,146.71,155.09Z"
        fill="#4e97ee"
        opacity="0.2"
      />
      <path
        d="M146.71,155.09c-26,0-72.05-2.2-83.72-10a50.35,50.35,0,0,0-.48,6.67c0,35.48,37.77,64.34,84.2,64.34s84.19-28.86,84.19-64.34a50.33,50.33,0,0,0-.47-6.67C218.75,152.89,172.69,155.09,146.71,155.09Z"
        fill="#4e97ee"
        opacity="0.2"
      />
      <path
        d="M154.5,173.1c-11.5,6.22-25.12,7-38.14,8-18.93,1.47-38.5-10.74-53.4-22.52.73,14.17,11.58,27.15,17.86,33.19a80.27,80.27,0,0,0,17.82,12.78,102.47,102.47,0,0,0,48.07,11.54c46.42,0,84.19-28.86,84.19-64.34a50.33,50.33,0,0,0-.47-6.67c-7.93,5.31-19.75,6-28.91,7.14-5,.6-11.12-.28-15.62,2-5.12,2.55-9.46,7-13.93,10.49C167.3,168.31,159.73,170.28,154.5,173.1Z"
        fill="#4e97ee"
        opacity="0.2"
      />
      <path
        d="M166.17,192.28a105.26,105.26,0,0,1-9.92,4.49,96.77,96.77,0,0,1-70.73-.44c7.09,7.55,18.86,11.6,28.54,14.73a106.35,106.35,0,0,0,32.65,5c35.19,0,80.39-19.81,83.73-59.63-7.38-.48-14.29,3.39-20.49,7.41C195.34,173.32,181.58,184.4,166.17,192.28Z"
        fill="#4e97ee"
        opacity="0.2"
      />
      <path
        d="M106,155.64c-6.35-.29-13.67-1.25-19.08-1.86,2.69,20.12,14.22,39.53,28.27,55.38.77.13,1.55.22,2.33.33A82.16,82.16,0,0,1,106,155.64Z"
        fill="#deecfc"
        opacity="0.7"
      />
      <g id="cherry">
        <path
          id="cherry-animate3"
          d="M136.53,28.57c1.75-5.27,3.9-10.82,7.64-15,2.44-2.76,6.11-4,8.21-7,.28-.38.46-1.06,0-1.22a7,7,0,0,1-3.52,1.45,4.82,4.82,0,0,0-1.47.08c-1.1.38-1.09,1.57-1.62,2.39a5.5,5.5,0,0,1-1.61,1.55,21.11,21.11,0,0,0-4.28,5,53.76,53.76,0,0,0-5.45,12.07c-2.35,7.09-3.08,14.77-4.16,22,0,0-.6,3.93-.69,5.56l2.19.11C131.83,54.66,134,36.11,136.53,28.57Z"
          fill="#3f3618"
        >
          <animate
            attributeName="d"
            attributeType="XML"
            values="M137,29C138,23,140,18,144,14C147,11,150,10,152,7C153,6,153,6,152,5C151,6,150,7,149,7C148,7,148,7,147,7C146,7,146,8,146,9C145,10,145,10,144,11C142,12,141,14,140,16C138,20,136,24,134,28C132,35,131,43,130,50C130,50,130,54,130,55C130,55,132,56,132,56C132,55,134,36,137,29C137,29,137,29,137,29;M137,37C138,32,140,26,144,22C147,19,150,18,152,15C153,15,153,14,152,14C151,15,150,15,149,15C148,15,148,15,147,15C146,16,146,17,146,18C145,18,145,19,144,19C142,21,141,22,140,24C138,28,136,32,134,36C132,43,131,51,130,58C130,58,130,62,130,64C130,64,132,64,132,64C132,63,134,45,137,37C137,37,137,37,137,37;M137,29C138,23,140,18,144,14C147,11,150,10,152,7C153,6,153,6,152,5C151,6,150,7,149,7C148,7,148,7,147,7C146,7,146,8,146,9C145,10,145,10,144,11C142,12,141,14,140,16C138,20,136,24,134,28C132,35,131,43,130,50C130,50,130,54,130,55C130,55,132,56,132,56C132,55,134,36,137,29C137,29,137,29,137,29"
            repeatCount="indefinite"
            dur="1s"
            begin="0s"
            calcMode="spline"
            keySplines=".25 .1 .25 1;.25 .1 .25 1"
          />
        </path>
        <path
          id="cherry-animate2"
          d="M149.61,60.81c-.3-8-6.13-14.21-13-14a11.12,11.12,0,0,0-4.89,1.36,11,11,0,0,0-5-1c-6.89.26-12.23,6.93-11.93,14.89.34,9,7,15.38,18,15C144,76.67,149.94,69.55,149.61,60.81Z"
          fill="#eb5a68"
        >
          <animate
            attributeName="d"
            attributeType="XML"
            values="M150,61C149,53,143,47,137,47C135,47,133,47,132,48C130,47,128,47,127,47C120,47,114,54,115,62C115,71,122,77,133,77C144,77,150,70,150,61C150,61,150,61,150,61;M150,69C149,61,143,55,137,55C135,55,133,56,132,57C130,56,128,56,127,56C120,56,114,63,115,71C115,80,122,86,133,86C144,85,150,78,150,69C150,69,150,69,150,69;M150,61C149,53,143,47,137,47C135,47,133,47,132,48C130,47,128,47,127,47C120,47,114,54,115,62C115,71,122,77,133,77C144,77,150,70,150,61C150,61,150,61,150,61"
            repeatCount="indefinite"
            dur="1s"
            begin="0s"
            calcMode="spline"
            keySplines=".25 .1 .25 1;.25 .1 .25 1"
          />
        </path>
        <path
          id="cherry-animate1"
          d="M149.37,60.85c0-.12,0-.24-.05-.36-1.12,4.2-3.62,8.26-7.73,10.08a16.18,16.18,0,0,1-5.93,1.2,29,29,0,0,1-7.25-.65,16.27,16.27,0,0,1-4.14-1.44,13.09,13.09,0,0,1-6.15-8.13,19.43,19.43,0,0,1,.32-10.34c-2,3.66-3.83,6.49-3.66,10.92.34,9,7,15.38,18,15C141.66,76.76,150.67,70.55,149.37,60.85Z"
          fill="#d2445d"
        >
          <animate
            attributeName="d"
            attributeType="XML"
            values="M149,61C149,61,149,61,149,60C148,65,146,69,142,71C140,71,138,72,136,72C133,72,131,72,128,71C127,71,126,70,124,70C121,68,119,65,118,62C117,58,117,55,118,51C116,55,115,58,115,62C115,71,122,78,133,77C142,77,151,71,149,61C149,61,149,61,149,61;M149,69C149,69,149,69,149,69C148,73,146,77,142,79C140,80,138,80,136,80C133,80,131,80,128,80C127,79,126,79,124,78C121,76,119,73,118,70C117,67,117,63,118,60C116,63,115,66,115,71C115,80,122,86,133,86C142,85,151,79,149,69C149,69,149,69,149,69;M149,61C149,61,149,61,149,60C148,65,146,69,142,71C140,71,138,72,136,72C133,72,131,72,128,71C127,71,126,70,124,70C121,68,119,65,118,62C117,58,117,55,118,51C116,55,115,58,115,62C115,71,122,78,133,77C142,77,151,71,149,61C149,61,149,61,149,61"
            repeatCount="indefinite"
            dur="1s"
            begin="0s"
            calcMode="spline"
            keySplines=".25 .1 .25 1;.25 .1 .25 1"
          />
        </path>
      </g>
    </g>
  </g>
</svg>
