<svg xmlns="http://www.w3.org/2000/svg" xmlns:xlink="http://www.w3.org/1999/xlink" id="Layer_1" x="0" y="0" version="1.1" viewBox="0 0 800 600" xml:space="preserve"><defs><path id="SVGID_9_" d="M523.4 249.3c16.5 0 29.9 13.4 29.9 29.9s-13.4 29.9-29.9 29.9-29.9-13.4-29.9-29.9 13.4-29.9 29.9-29.9"/><path id="SVGID_2_" d="M72.9 135.2c-40 41.3-60.6 101.1-47.8 161.9 25.3 120.7 75.2 183.3 200.4 207.5 35 6.8 178.5 13.4 211.4 24 206.2 66.3 288.4-8.3 305.9-37.1 27.8-45.7 37.7-96.1 17.9-150.5-19.3-53.1-82.6-85.6-113-91.4-78.8-15-159-34.2-229.6-76.3C354 135.2 295.4 68 224.2 67.7c-94.4-.5-127.4 42.8-151.3 67.5"/></defs><style>.st1{fill:#e5f0fc}.st2{fill:#4e97ee}.st3{fill:#d3e2f6}.st5{fill:#4b93ea}.st6{fill:#5a9eef}.st7{fill:#0959aa}.st8{fill:#02548c}.st11{fill:#e1edfc}.st12{fill:#a9cdf6}.st14{fill:#b18a40}.st14,.st15,.st24,.st26{clip-path:url(#SVGID_3_)}.st15{fill:#abc8e8}.st24{fill:#13ce8f}.st26{fill:#bae1e0}.st42{clip-path:url(#SVGID_8_)}.st47{clip-path:url(#SVGID_14_);fill:#b18a40}</style><linearGradient id="SVGID_1_" x1="0" x2="1" y1="600.001" y2="600.001" gradientTransform="rotate(-142.005 -75745.104 221582.208) scale(737.9908)" gradientUnits="userSpaceOnUse"><stop offset="0" stop-color="#cfedf9"/><stop offset=".158" stop-color="#cfedf9"/><stop offset=".653" stop-color="#e7f6fc"/><stop offset="1" stop-color="#f3fafd"/></linearGradient><path fill="url(#SVGID_1_)" d="M490.5 318.5v55.1c1.2-.8 2.5-1.3 4.1-1.5h.9c6.1 0 13.3 5.9 20.1 10.6 3.6 1.2 7 2.5 10.4 3.9v-43.7c-13-4.7-26.2-14.2-35.5-24.4m0-110.4v44.5c2.7-2.6 5.8-5 9.2-6.9 7.1-4 14.8-6 22.4-6 1.3 0 2.6.1 3.9.2v-19.5c-11.9-3.7-23.8-7.8-35.5-12.3M81.4 126.2c-3 3.2-5.8 6.2-8.5 9-40 41.3-60.6 101.1-47.8 161.9 11.8 56.1 28.8 99.6 56.3 132.6V126.2m141.2-58.5c-60.3 0-95.2 18-118.9 37.3h165.5v362.3h-145c26.8 17.1 59.9 29.3 101.2 37.3 35 6.8 178.5 13.4 211.4 24 60.1 19.3 109.7 26.7 150.2 26.7 98.4 0 143.3-43.4 155.7-63.8 27.8-45.7 37.7-96.1 17.9-150.5-8.9-24.4-27-44.4-46.9-59.5v185.8H642c-.8 13.7 2.9 27.5 9 39.9 4.9 10.2 11.3 24 18.5 35.7-18.9 6.4-41.8 11-69.2 12.1-4.3.2-8.7.3-13.2.3h-2.6c-3.9-7.8-8-13.9-12.1-16.8-14.2-10-31.5-16.5-47.4-23.2l-.6-.3c-3.5-1.2-7.2-2.4-10.6-3.9-12.3-4.1-18.9-6.2-18.5-26.2.2-14.8-2.2-29.4-4.8-43.9v26.2H302.7V105h19.2c-31-21-62.8-37.2-97.7-37.3h-1.6"/><path d="M81.4 105h187.8v362.3H81.4V105" class="st1"/><path d="M259 467.3H91.7V116.2H259v351.1" class="st2"/><path d="M259 116.2h-48.7H259" class="st3"/><path fill="#eaf0f9" d="M91.7 467.3v.1h8.1v-.1h-8.1"/><path d="M91.7 116.3h-.1l.1 351v-351" class="st3"/><path d="M259 116.2h-48.7l-118.6.1v351h8.1V123.4H259v-7.2" class="st5"/><path d="M108.4 133.6h133.2v56.6H108.4zm0 66.1h61.5v253.6h-61.5zm71.7 0h61.5v253.6h-61.5z" class="st6"/><circle cx="175.4" cy="267.1" r="23.4" class="st7"/><path d="M189.6 273.5H161l-13.1 82.8h54.8z" class="st7"/><circle cx="175.5" cy="267.5" r="20.3" class="st8"/><path d="M187.2 277.8h-23.4l-12 75.9h47.4z" class="st8"/><path d="M302.7 105h187.8v362.3H302.7V105" class="st1"/><path d="M480.2 467.3H312.9V116.2h167.3v351.1" class="st2"/><path d="M329.7 133.6h133.2v56.6H329.7zm0 66.1h61.5v253.6h-61.5zm71.7 0h61.5v253.6h-61.5z" class="st6"/><path d="M396.7 243.7c12.9 0 23.4 10.5 23.4 23.4s-10.5 23.4-23.4 23.4c-12.9 0-23.4-10.5-23.4-23.4s10.5-23.4 23.4-23.4z" class="st7"/><path d="M410.9 273.5h-28.6l-13 82.8H424z" class="st7"/><path d="M396.9 247.2c11.2 0 20.3 9.1 20.3 20.3s-9.1 20.3-20.3 20.3-20.3-9.1-20.3-20.3 9.1-20.3 20.3-20.3z" class="st8"/><path d="M408.5 277.8h-23.4l-12 75.9h47.4z" class="st8"/><path d="M480.3 116.2H313h167.2v7.1h.1v-7.1" class="st3"/><path d="M480.2 116.2H313v351.1h8.2v-344h159v-7.1" class="st5"/><path d="M526 105h187.8v362.3H526V105" class="st1"/><path fill="#aacdf6" d="M703.6 467.3H536.3V116.2h167.3v351.1"/><path fill="#b0d0f7" d="M553 133.6h133.2v56.6H553zm0 66.1h61.5v253.6H553V199.7m71.7 0h61.5v253.6h-61.5z"/><circle cx="620" cy="267.1" r="23.4" class="st7"/><path d="M634.2 273.5h-28.6l-13 82.8h54.7z" class="st7"/><circle cx="620.2" cy="267.5" r="20.3" class="st8"/><path d="M631.9 277.8h-23.5l-12 75.9h47.4z" class="st8"/><path d="M536.3 116.3l-.1 125.7h.1V116.3m167.3 0v7.1-7.1" class="st11"/><path d="M703.6 116.3H536.3V242c2.8.9 5.5 2.1 8.1 3.6V123.4h159.2v-7.1" class="st12"/><path d="M536.2 345.5v45.1h.1l-.1-45.1c.1 0 0 0 0 0" class="st11"/><path d="M536.3 345.5v45.1c2.6 1 5.3 1.8 8.1 2.5v-47.3c-.9.1-1.8.1-2.7.1-1.8 0-3.6-.1-5.4-.4m8.1-20.3c-3.1 1-5.4 3.9-5.4 7.3s2.2 6.4 5.4 7.4v-14.7" class="st12"/><path fill="#bbf4e1" d="M509.7 93.6h37.5c4.4 0 8-3.6 8-8V48.1c0-4.4-3.6-8-8-8h-35.6c-5.5 0-10 4.5-10 10v35.6c.1 4.3 3.7 7.9 8.1 7.9zm0 62.6h37.5c4.4 0 8-3.6 8-8v-37.5c0-4.4-3.6-8-8-8h-35.6c-5.5 0-10 4.5-10 10v35.6c.1 4.3 3.7 7.9 8.1 7.9zm0 62.6h37.5c4.4 0 8-3.6 8-8v-37.5c0-4.4-3.6-8-8-8h-35.6c-5.5 0-10 4.5-10 10v35.6c.1 4.3 3.7 7.9 8.1 7.9z"/><path d="M534.9 191.3h-3V185.1c-.1-2.8-2.3-5-5.2-5-2.8 0-5.1 2.2-5.2 5v6.2h-3V185c.1-4.5 3.7-8 8.2-8s8.1 3.5 8.2 8v6.3z" class="st2"/><path d="M536.9 207.7h-20.4c-.7 0-1.2-.6-1.2-1.2V190c0-.7.6-1.2 1.2-1.2h20.4c.7 0 1.2.6 1.2 1.2v16.5c.1.7-.5 1.2-1.2 1.2z" class="st2"/><path d="M538 208.9h-22.5c-.5 0-.9-.4-.9-.9v-3.8c0-.5.4-.9.9-.9H538c.5 0 .9.4.9.9v3.8c0 .5-.4.9-.9.9zm-16.7-126c.4.5.9.9 1.4 1.1 1.2.4 2.5-.5 3.4-1.3 5.4-4.8 16.1-23.3 20.5-29.9.5-.8 1-1.6.9-2.5-1.4-3.1-23.3 21.3-25 21.2-1.8-.1-9-5.8-10.7-6.7-.3-.2-.7-.3-1.1-.2-.8.3-2.1 2-.8 4.1 4.2 6.4 11.4 14.2 11.4 14.2zm0 62.4c.4.5.9.9 1.4 1.1 1.2.4 2.5-.5 3.4-1.3 5.4-4.8 16.1-23.3 20.5-29.9.5-.8 1-1.6.9-2.5-1.4-3.1-23.3 21.3-25 21.2-1.8-.1-9-5.8-10.7-6.7-.3-.2-.7-.3-1.1-.2-.8.3-2.1 2-.8 4.1 4.2 6.4 11.4 14.2 11.4 14.2z" class="st2"/><defs><use xlink:href="#SVGID_2_"/></defs><clipPath id="SVGID_3_"><use overflow="visible" xlink:href="#SVGID_2_"/></clipPath><path d="M490 427.6c9.6-6.8 21.5-20.8 17.6-33.5-1.1-3.7-78.7-70.4-84.2-73.8-5.5-3.4-12.1-5.5-18.4-4-2.5.6-5.2 2.1-5.5 4.7-.1 1.1.2 2.1.6 3.1 1.4 3.5 34.6 45.8 49.9 63.1 3.3 3.8 35.8 43.4 40 40.4" class="st14"/><path d="M720.1 592.8c-14-12.5-24.3-18.7-39.6-35-11.6-12.4-22.2-35.4-29.5-50.6-6.7-13.8-10.6-29.3-8.5-44.5 1.8-13.3 8.1-25.9 7.9-39.3-.5-21.3-17-38.1-31.2-54-21.2-23.6-35.4-40.9-42.2-71.8-1.3-5.7-3.8-13-9.7-12.9-1.7 0-3.3.8-4.7 1.7-7.5 4.9-10.7 14.3-11.9 23.1-1.8 13.3-.3 27.7 4.9 40.1 3.9 9.4 19.7 35.2 17.2 41.6-1.5 3.8-7.5 3.2-11.5 3.5-13.1 1-24.5-2.2-36.6-6.7-9.1-3.4-21-16.8-30.1-15.9-7.8.8-10.5 10.8-10.5 18.7.1 31.7 11.7 62.5 11.2 94.2-.4 25.4 10.3 22 29.8 30.3 15.9 6.7 33.2 13.2 47.4 23.2 16 11.3 32.4 72.9 37.4 91.9l110.2-37.6" class="st14"/><path d="M550 325.6c.3 4.2.9 8.5 1.8 12.6l.1-.1c-.9-4.1-1.5-8.3-1.9-12.5.1 0 .1 0 0 0" class="st15"/><path d="M550.1 325.6c.3 4.2.9 8.4 1.8 12.5 1.5-1.4 2.5-3.4 2.5-5.6 0-3-1.7-5.6-4.3-6.9" class="st14"/><linearGradient id="SVGID_4_" x1="0" x2="1" y1="600.075" y2="600.075" gradientTransform="rotate(-142.005 -75745.104 221582.208) scale(737.9908)" gradientUnits="userSpaceOnUse"><stop offset="0" stop-color="#cde5ea"/><stop offset=".158" stop-color="#cde5ea"/><stop offset=".653" stop-color="#e3eeed"/><stop offset="1" stop-color="#eef1ee"/></linearGradient><path fill="url(#SVGID_4_)" d="M515.6 382.7c3.2 2.2 6.3 4.3 9.1 5.3.4.2.9.3 1.3.5v-1.9c-3.4-1.4-6.8-2.7-10.4-3.9" clip-path="url(#SVGID_3_)"/><path fill="#e1e8ed" d="M526 386.6v1.9c3.4 1.3 6.8 2.4 10.2 3.4v-1.2c-3.4-1.3-6.8-2.7-10.2-4.1" clip-path="url(#SVGID_3_)"/><path d="M544.4 393.1v.6c2.8.5 5.7.9 8.6 1v-.2c-3-.2-5.8-.7-8.6-1.4" class="st15"/><path fill="#b0cbe9" d="M553.3 343.4c.6 2.1 1.3 4.1 2.2 6.1 3.9 9.4 19.7 35.2 17.2 41.6-1.5 3.8-7.4 3.2-11.5 3.5-1.3.1-2.7.2-3.9.2-1.5 0-2.9-.1-4.3-.2v.2c1.2.1 2.3.1 3.5.1 1.6 0 3.2-.1 4.8-.2 4-.3 10 .3 11.5-3.5 2.5-6.4-13.3-32.2-17.2-41.6-.9-2-1.6-4.1-2.3-6.2" clip-path="url(#SVGID_3_)"/><path fill="#dde5ed" d="M536.2 390.6v1.2h.1l-.1-1.2c.1 0 0 0 0 0" clip-path="url(#SVGID_3_)"/><path fill="#aac8e8" d="M536.3 390.6v1.2c2.7.8 5.4 1.4 8.1 1.9v-.6c-2.8-.6-5.5-1.5-8.1-2.5" clip-path="url(#SVGID_3_)"/><linearGradient id="SVGID_5_" x1="0" x2="1" y1="599.936" y2="599.936" gradientTransform="rotate(-142.005 -75745.104 221582.208) scale(737.9908)" gradientUnits="userSpaceOnUse"><stop offset="0" stop-color="#cde5ea"/><stop offset=".158" stop-color="#cde5ea"/><stop offset=".653" stop-color="#e3eeed"/><stop offset="1" stop-color="#eef1ee"/></linearGradient><path fill="url(#SVGID_5_)" d="M513.8 511.2c3.4 1.4 7.1 2.6 10.6 3.9-3.8-1.7-7.4-2.9-10.6-3.9" clip-path="url(#SVGID_3_)"/><path d="M565.7 330.5c-2.5 5-5.9 9.1-10.4 11.7-.6.4-1.3.8-1.9 1.1.7 2.1 1.4 4.2 2.3 6.2 3.9 9.4 19.7 35.2 17.2 41.6-1.5 3.8-7.5 3.2-11.5 3.5-1.6.1-3.2.2-4.8.2-1.2 0-2.3 0-3.5-.1-2.9-.2-5.8-.5-8.6-1-2.7-.5-5.4-1.1-8.1-1.9h-.1c-3.4-1-6.8-2.1-10.2-3.4-.4-.2-.9-.3-1.3-.5-2.8-1.1-5.9-3.1-9.1-5.3-2.5-.8-5-1.5-7.6-2.1-.7-.1-1.5-.2-2.2-.2-2.8 0-5.6 1-7.1 3.3-1.3 2-1.4 4.6-1.4 7 .2 33.9 9.6 68 3.4 101.3-1.9 10.6 4.7 15.7 13.1 19.2 3.2 1 6.7 2.2 10.6 3.9 2.2.8 4.3 1.5 6.2 2.4 14 6.1 29.2 11.9 41.7 20.8 4.1 2.9 8.2 9.1 12.2 17.1h2.5c4.5 0 8.9-.1 13.2-.3-4.3-8.3-8.6-16.5-12.7-24.8-5.5-11.1-10.8-23.1-9.5-35.4 2.5-22.8 26.6-38.6 29.5-61.4 2.6-20.3-12.1-38-22.8-55.5-8.9-14.6-15.4-30.7-19.1-47.4" class="st14"/><path fill="#0fa371" d="M547.7 323.9c-3.6-.2-6.7 1.9-7.9 5.1 1.3-.7 2.7-1 4.3-.9 4.4.3 7.7 4.1 7.4 8.4-.1.8-.2 1.6-.5 2.3 2.3-1.3 4-3.6 4.2-6.5.2-4.3-3.1-8.1-7.5-8.4z" clip-path="url(#SVGID_3_)"/><path fill="#14d997" d="M561.6 262.7c-12.4-21.8-40.2-29.4-61.9-17-21.8 12.4-29.4 40.2-17 61.9 12.4 21.8 50.4 47.3 72.2 34.9 16.8-9.6 19.1-38.8 13.6-61.6-1.7-6.8-4-13.1-6.9-18.2m-14.9 77.5c-4.3 0-7.7-3.5-7.7-7.7 0-4.3 3.5-7.7 7.7-7.7 4.3 0 7.7 3.5 7.7 7.7s-3.5 7.7-7.7 7.7" clip-path="url(#SVGID_3_)"/><path d="M500.6 245.4s-.1 0-.2.1c.1 0 .1-.1.2-.1" class="st24"/><linearGradient id="SVGID_6_" x1="0" x2="1" y1="600.121" y2="600.121" gradientTransform="rotate(-142.005 -75745.104 221582.208) scale(737.9908)" gradientUnits="userSpaceOnUse"><stop offset="0" stop-color="#a9dede"/><stop offset=".158" stop-color="#a9dede"/><stop offset=".653" stop-color="#bce5e0"/><stop offset="1" stop-color="#c5e9e1"/></linearGradient><path fill="url(#SVGID_6_)" d="M490.5 318.2v.3c9.3 10.2 22.5 19.7 35.5 24.4v-.1c-13.1-4.7-26.4-14.3-35.5-24.6" clip-path="url(#SVGID_3_)"/><path d="M480.2 302.6v.7c.6 1.4 1.3 2.7 2.1 4.1 2.1 3.7 4.9 7.4 8.2 11.1v-.3c-3.1-3.5-5.8-7.1-7.8-10.6-.9-1.6-1.7-3.3-2.5-5" class="st26"/><path fill="#4199d5" d="M479.8 268.9c-4.5 10.9-4.5 23.1.5 34.4v-.7c-4.7-11-4.6-23.1-.5-33.7" clip-path="url(#SVGID_3_)"/><path d="M526 342.7v.1c3.4 1.2 6.9 2.1 10.2 2.6v-.2c-3.3-.3-6.8-1.2-10.2-2.5" class="st26"/><path fill="#8bc5db" d="M553 343.5c-2.7 1.2-5.6 1.9-8.6 2.2v.2c3.1-.4 5.9-1.1 8.6-2.4" clip-path="url(#SVGID_3_)"/><path fill="#90c7dc" d="M553.3 343.3c-.1 0-.2.1-.3.1v.1c.1 0 .2 0 .3-.2 0 .1 0 .1 0 0" clip-path="url(#SVGID_3_)"/><path fill="#b7dee0" d="M536.2 345.3v.2h.1l-.1-.2c.1.1 0 .1 0 0" clip-path="url(#SVGID_3_)"/><path fill="#8ac5db" d="M536.3 345.4v.2c1.8.3 3.6.4 5.4.4.9 0 1.8 0 2.7-.1v-.2c-.9.1-1.8.1-2.7.1-1.8 0-3.6-.2-5.4-.4" clip-path="url(#SVGID_3_)"/><path fill="#90c3d1" d="M553.3 343.3c0 .1 0 .1 0 0 0 .1 0 .1 0 0 0 .1 0 0 0 0" clip-path="url(#SVGID_3_)"/><path fill="#918f4a" d="M555.3 342.3c-.1.1-.2.1-.4.2-.5.3-1 .6-1.6.8v.1c.7-.4 1.3-.7 2-1.1" clip-path="url(#SVGID_3_)"/><path d="M500.4 245.5c-9.8 5.8-16.9 14.1-20.7 23.4-4.1 10.6-4.2 22.7.5 33.8.7 1.7 1.5 3.3 2.5 5 2 3.5 4.7 7.1 7.8 10.6 9.1 10.2 22.4 19.8 35.5 24.5 3.4 1.2 6.9 2.1 10.2 2.6h.1c1.8.3 3.6.4 5.4.4.9 0 1.8 0 2.7-.1 3-.3 5.9-1 8.6-2.2.1 0 .2-.1.3-.1h.1c.5-.3 1.1-.5 1.6-.8.1-.1.2-.1.4-.2l.1-.1s-4.5 1.5-11 1.5c-2.3 0-4.9-.2-7.7-.7-15.4-2.9-38.9-19.1-49.6-41.7-16.7-35.2 10.9-54.4 13.2-55.9" class="st24"/><path fill="#72e8c1" d="M524 242.8c20.5 0 37.2 16.7 37.2 37.2s-16.7 37.2-37.2 37.2c-20.5 0-37.2-16.7-37.2-37.2s16.7-37.2 37.2-37.2" clip-path="url(#SVGID_3_)"/><path fill="#29dca0" d="M523.4 249.3c16.5 0 29.9 13.4 29.9 29.9s-13.4 29.9-29.9 29.9-29.9-13.4-29.9-29.9 13.4-29.9 29.9-29.9" clip-path="url(#SVGID_3_)"/><path fill="#b5904a" d="M489.2 427.4c-2.7-14.2-3.7-35.2-2.2-49.6 2.1-20.8 6.4-39.5 5.5-56-.7-12.7-1.3-25.8-7-37.2-3.2-6.5-12.5-17.1-17.4-13.1-4.1 3.3-7.8 52.1-10.9 76.3-1.8 13.8-3.5 27.6-5.3 41.4-.7 5.2-1.3 10.6.1 15.6 1.5 5.4 30 39.5 45 45.7 1.4.6 3 1.1 4.5.8 2.9-.6 4.4-3.8 4.7-6.7 1.2-9.1-3.8-17.7-8.6-25.5" clip-path="url(#SVGID_3_)"/><path fill="#b38c44" d="M489.2 427.4c-2.7-14.2-3.7-35.2-2.2-49.6 2.1-20.8 6.4-39.5 5.5-56-.5-8.6-1.2-17.1-2.9-25.5-2.6-12.6-6.1-15.2-11-21 4.7 7 6.8 15.5 8.1 23.9 2 13 2.1 26.7-2.2 39.1-4.1 11.6-11.8 21.5-17.5 32.3-3.9 7.4-6.9 15.3-8.9 23.4-1 4.2-1.8 8.6-1.3 13 1.4 10.9 9.8 17.6 16.9 24.9 6.7 6.8 14.2 14.9 23.2 18.6 1.4.6 3 1.1 4.5.8 2.9-.6 4.4-3.8 4.7-6.7 1.2-9.1-3.8-17.7-8.6-25.5" clip-path="url(#SVGID_3_)"/><path fill="#b89551" d="M456.8 461.6c-2.4-9.6 13.5-73.1 17.6-80.5 8.8-15.5 30.6-9.7 44.8-8.1 14.3 1.7 45.3 6.1 46.3 6.8 1.7 1.4 2 3.9 1.5 6.1-1.3 6.1-6.6 10.8-12.6 12.9-5 1.8-35.6.7-44.7.7-2.5 0-5.3.1-7.2 1.8-1.4 1.3-2 3.2-2.5 5-4.3 14.7-15.5 53.3-15.8 58-.5 6.8 1.2 13.7 4.8 19.6-6.2-1.5-23-8.3-25.1-10-3.7-3.1-5.9-7.7-7.1-12.3z" clip-path="url(#SVGID_3_)"/><path fill="#b6914b" d="M474.7 462.3c.2-5 .9-10 1.7-15 2.2-15 4.9-30.1 9.8-44.4 1.3-3.8 2.9-7.7 6-10 3.4-2.5 7.9-2.8 12.1-2.7 10.3.3 20.5 2.7 30.8 2.8 6.6.1 13.3-.9 19.3-3.7 3-1.4 5.8-3.2 8.1-5.5.8-.8 2.1-3.2 3.4-2.9 1.7.5 1.3 3.8 1 5-1.3 6.1-6.6 10.8-12.6 12.9-5 1.8-35.6.7-44.7.7-2.5 0-5.3.1-7.2 1.8-1.4 1.3-2 3.2-2.5 5-4.3 14.7-15.5 53.3-15.8 58-.5 6.8 1.2 13.7 4.8 19.6-.2-.4-3.7-1.2-4.3-1.5-1.8-.8-3.8-1-5.5-2-2.9-1.8-3.9-5.5-4.2-8.9-.2-3-.3-6.1-.2-9.2z" clip-path="url(#SVGID_3_)"/><path fill="#bf9f62" d="M481.3 465.8c-2.2-16 5.7-51.4 11.9-58.3 1.6-1.8 6.9-4.2 9.4-4.2 12.3.3 63.6 1.9 77.2 3.4 1.2.1 2.4.3 3.4 1 1.9 1.2 2.3 3.8 2 6.1-.8 6.3-7.7 11.1-13.5 13.6-5.8 2.6-48.3 1.9-49.8 3.5-1.1 1.2-4 3.1-4.5 4.5-3.4 10.6-1.8 37.6-.9 41.7 2.5 12 7.8 35.6 19.8 43.3-13.4-2.7-35.6-9.6-44.2-17.6-7-6.5-9.5-27.6-10.8-37z" clip-path="url(#SVGID_3_)"/><path fill="#bd9c5d" d="M504.8 464.2c-.7-10.5.1-21 2.5-31.2 1.3-5.9 3.7-12.3 9.2-14.8 3.2-1.5 7-1.3 10.5-1 16.3 1.2 32.7 2.8 48.8.2 2-.3 5.5 4.1 4.9 4.6-5 4.4-9.1 5.7-15.4 6.4-5.6.6-11.4.7-17 .9-6 .2-12 .3-18 .6-1.6.1-8.7.8-10 2.2-1.1 1.2-2.4 1.8-2.8 3.3-3.4 10.6-1.8 37.6-.9 41.7 1.7 7.8 3.5 15.6 6.3 23.1 1.5 4.1 3.3 8.2 5.8 11.9 1.4 2.1 6.3 7.1 7.8 8.1-7 0-19.4-12.1-20.6-14.8-6.5-12.8-10.2-26.9-11.1-41.2z" clip-path="url(#SVGID_3_)"/><defs><use id="SVGID_7_" xlink:href="#SVGID_2_"/></defs><clipPath id="SVGID_8_"><use overflow="visible" xlink:href="#SVGID_7_"/></clipPath><g class="st42"><defs><use xlink:href="#SVGID_9_"/></defs><clipPath id="SVGID_10_"><use overflow="visible" xlink:href="#SVGID_9_"/></clipPath><path fill="#b18a40" d="M518.4 291.3c.7 6.7-1.1 13.6-4.9 19.2-.6.9-1.3 1.9-1.5 3-.1.9.1 1.8.4 2.6 1.7 5.5 5.5 11.2 11.3 11.8 3.8.4 7.5-1.7 10.1-4.6 2.6-2.9 4.1-6.5 5.6-10-6.3-7.5-8.1-18.6-4.5-27.7l-16.5 5.7" clip-path="url(#SVGID_10_)"/></g><g class="st42"><defs><use id="SVGID_11_" xlink:href="#SVGID_9_"/></defs><clipPath id="SVGID_12_"><use overflow="visible" xlink:href="#SVGID_11_"/></clipPath><path fill="#4fc585" d="M533.1 295.7c0 2.6.4 5.2 1.1 7.7-.3-1-.5-2-.7-3.1-.3-1.5-.4-3.1-.4-4.6" clip-path="url(#SVGID_12_)"/><path fill="#b18a40" d="M528.3 293.2c-1.5 1.5-3.2 2.7-5.5 3.6-.5.2-1.1.4-1.7.6-1 3.1-2.5 6.1-4 9-.3.6-.6 1.2-1 1.8 2.3.6 4.8.9 7.3.9 4.2 0 8.3-.9 11.9-2.5-.4-1.1-.8-2.2-1.1-3.3-.7-2.5-1.1-5.1-1.1-7.7-.2.1-.5.1-.7.1-1.5.1-3.1-1.1-4.1-2.5" clip-path="url(#SVGID_12_)"/></g><g><defs><use id="SVGID_13_" xlink:href="#SVGID_2_"/></defs><clipPath id="SVGID_14_"><use overflow="visible" xlink:href="#SVGID_13_"/></clipPath><path fill="#ba9857" d="M508.1 296.3c2.7 3.2 10.7 2.1 14.7.5s6-4 8.7-7.3c4.2-5.2 7.3-12.1 5.3-18.6-1.6-5.2-6.4-9.1-11.6-10.7-9.2-2.9-17.3.7-17.2 9.7.1 5-2.3 7.3-2.5 13.6-.2 5.4 1.7 11.8 2.6 12.8" clip-path="url(#SVGID_14_)"/><path d="M520.6 297.3c4.6-.5 8.1-4.5 10.8-7.8 4.2-5.2 7.3-12.1 5.3-18.6-1.6-5.2-6.4-9.1-11.6-10.7-4-1.3-8.9-1.6-12.6.7-1.8 1.1-2.2 2.5-3 4.3-1 2.4-1.6 4.9-1.6 7.5 2-.8 4.3-.6 6.3.5 1.9 1 3.4 2.7 4.4 4.6 1.1 1.9 1.7 4 2.3 6.1.6 2.2 1.1 4.5 1.1 6.8 0 2.2-.4 4.6-1.4 6.6" class="st47"/><path fill="#0959aa" d="M535.1 253.9c-1.2-1.3-2.7-2.3-4.5-2.7-2.1-.5-4.2-.3-6.3 0-3 .3-6 .7-8.8 2-2.7 1.2-4.9 3.2-7.4 4.8-3.7 2.3-6.5 2.3-10.6 1.4-1.3-.3-2.8-.3-3.9.4s-1.7 2.4-.9 3.5c.1.2.3.3.5.4.4.1.9-.2 1.3-.3 1.3-.3 2.3 1.2 3.1 2.3 3.3 4.7 7.6 4.4 12 4.1 3.1-.2 6.3-.4 9.2 1.1 1.4.7 2.6 2 3.2 3.6.6 1.6.1 3.2.1 4.9 0 .5.1 1 .4 1.4.5.7 1.7.6 2.5.2.8-.4 1.6-.9 2.5-1 1.3 0 2.3 1.1 2.6 2.3.3 1.2-1.3 2.9-1.8 4-.4 1.2-1 2.4-1.1 3.6-.3 2.5 3.3 6.7 5.9 5.8 2.6-.8 4.3-4.7 5.8-6.8 2-2.9 4.4-5.5 6.2-8.5 2.1-3.4 3.5-7.6 2.5-11.5-1-3.9-5.1-7.2-9-6.1 0-3.3-1.3-6.6-3.5-8.9" clip-path="url(#SVGID_14_)"/><path fill="#a08741" d="M529.5 281.1c.3.7.4 1.4.5 2.1.1-.3.1-.6.1-.9-.1-.4-.3-.9-.6-1.2" clip-path="url(#SVGID_14_)"/><path fill="#095ba0" d="M496.7 259.8c-.5 0-1.1.1-1.6.3-.5.3-1.1.8-.9 1.3 1.7.4 3.5.8 4.9 1.8 1.4 1 1.9 2.6 3.3 3.5 1.4 1 3.2 1.1 4.9 1.2h6c.7 0 1.4 0 2.1.1 2.2.2 4.4 1.6 6.1 3 1.1 1 2.2 2.1 2.5 3.5.2 1.2-.1 2.7.8 3.6h.2c.5 0 .7-.8 1.2-.9.3 0 .5.2.7.3 1.2 1 2.1 2.2 2.7 3.7.3.4.5.8.6 1.2.1.3 0 .6-.1.9 0 .3.1.6.1.9 0 1.3-.3 2.5-.4 3.8-.1 1.3.1 2.7 1 3.6.5.6 1.2.9 1.9.9.5 0 1.1-.2 1.5-.6.6-.7.6-1.8.8-2.7.5-3 2.8-5.4 3.5-8.3.2-1 .2-2-.1-3-.5-2-1.9-3.8-3.4-5.4-.4-.3-.8-.6-1-1-.1-.3-.2-.7-.3-1.1-.5-2-1.3-4-2.8-5.4-1.9-1.8-4.5-2.4-7.1-2.7-1.2-.1-2.5-.2-3.7-.2-1.6 0-3.2.1-4.8.4-2.5.4-5 1.1-7.5 1.1-1.1 0-2.2-.1-3.2-.5-1.6-.6-2.9-1.5-4.5-2.3-1.2-.6-2.3-1-3.4-1" clip-path="url(#SVGID_14_)"/><path d="M525.5 280.9c.8-1 1.6-2 2.6-2.7 1.1-.6 2.5-.8 3.6-.1 1.1.8 1.3 2.3 1.2 3.6-.1 1.4-.6 2.9-1.6 3.9s-2.5 1.6-3.9 1.3c-.2 0-.4-.2-.4-.4" class="st47"/></g></svg>