<svg
  width="305px"
  height="195px"
  viewBox="0 0 305 195"
  version="1.1"
  xmlns="http://www.w3.org/2000/svg"
  xmlns:xlink="http://www.w3.org/1999/xlink"
>
  <title>Artboard</title>
  <desc>Created with Sketch.</desc>
  <defs>
    <path
      d="M83.873,0.253 C37.552,0.253 0,37.805 0,84.126 L0,84.126 C0,128.496 30.568,160.7 78.068,167.796 L78.068,167.796 C83.368,168.588 101.695,172.861 111.717,179.555 L111.717,179.555 C126.183,189.217 136.57,194 151.81,194 L151.81,194 C172.936,194 191.613,183.576 203.017,167.6 L203.017,167.6 C208.804,161.648 220.966,151.916 240.809,148.685 L240.809,148.685 C263.538,148.187 281.813,129.62 281.813,106.772 L281.813,106.772 C281.813,83.611 263.038,64.836 239.877,64.836 L239.877,64.836 C239.062,64.836 238.253,64.866 237.449,64.912 L237.449,64.912 C187.918,65.813 143.046,24.668 143.046,24.668 L143.046,24.668 L143.051,24.711 C127.885,9.602 106.974,0.253 83.873,0.253 Z"
      id="path-1"
    />
    <linearGradient x1="0%" y1="50.0001394%" x2="100.000017%" y2="50.0001394%" id="linearGradient-3"
    >
      <stop stop-color="#CFEDF9" offset="0%" />
      <stop stop-color="#F2F9FD" offset="100%" />
    </linearGradient>
  </defs>
  <g id="Artboard" stroke="none" stroke-width="1" fill="none" fill-rule="evenodd">
    <g id="Group-23-Copy">
      <g id="Group-3" transform="translate(0.000000, 0.746000)">
        <mask id="mask-2" fill="white">
          <use xlink:href="#path-1" />
        </mask>
        <g id="Clip-2" />
        <path
          d="M83.873,0.253 C37.552,0.253 0,37.805 0,84.126 L0,84.126 C0,128.496 30.568,160.7 78.068,167.796 L78.068,167.796 C83.368,168.588 101.695,172.861 111.717,179.555 L111.717,179.555 C126.183,189.217 136.57,194 151.81,194 L151.81,194 C172.936,194 191.613,183.576 203.017,167.6 L203.017,167.6 C208.804,161.648 220.966,151.916 240.809,148.685 L240.809,148.685 C263.538,148.187 281.813,129.62 281.813,106.772 L281.813,106.772 C281.813,83.611 263.038,64.836 239.877,64.836 L239.877,64.836 C239.062,64.836 238.253,64.866 237.449,64.912 L237.449,64.912 C187.918,65.813 143.046,24.668 143.046,24.668 L143.046,24.668 L143.051,24.711 C127.885,9.602 106.974,0.253 83.873,0.253 Z"
          id="Fill-1"
          fill="url(#linearGradient-3)"
          mask="url(#mask-2)"
        />
      </g>
      <g id="Group-22" transform="translate(15.000000, 28.746000)">
        <path
          d="M206.3426,100.5834 L202.9876,100.5834 C202.7556,100.5834 202.5686,100.3964 202.5686,100.1644 C202.5686,99.9324 202.7556,99.7444 202.9876,99.7444 L206.3426,99.7444 C206.5736,99.7444 206.7616,99.9324 206.7616,100.1644 C206.7616,100.3964 206.5736,100.5834 206.3426,100.5834 M213.0526,100.5834 L209.6966,100.5834 C209.4656,100.5834 209.2786,100.3964 209.2786,100.1644 C209.2786,99.9324 209.4656,99.7444 209.6966,99.7444 L213.0526,99.7444 C213.2836,99.7444 213.4716,99.9324 213.4716,100.1644 C213.4716,100.3964 213.2836,100.5834 213.0526,100.5834 M219.7616,100.5834 L216.4066,100.5834 C216.1756,100.5834 215.9886,100.3964 215.9886,100.1644 C215.9886,99.9324 216.1756,99.7444 216.4066,99.7444 L219.7616,99.7444 C219.9936,99.7444 220.1816,99.9324 220.1816,100.1644 C220.1816,100.3964 219.9936,100.5834 219.7616,100.5834 M226.4716,100.5834 L223.1166,100.5834 C222.8856,100.5834 222.6966,100.3964 222.6966,100.1644 C222.6966,99.9324 222.8856,99.7444 223.1166,99.7444 L226.4716,99.7444 C226.7036,99.7444 226.8916,99.9324 226.8916,100.1644 C226.8916,100.3964 226.7036,100.5834 226.4716,100.5834 M233.1816,100.5834 L229.8266,100.5834 C229.5946,100.5834 229.4066,100.3964 229.4066,100.1644 C229.4066,99.9324 229.5946,99.7444 229.8266,99.7444 L233.1816,99.7444 C233.4136,99.7444 233.6016,99.9324 233.6016,100.1644 C233.6016,100.3964 233.4136,100.5834 233.1816,100.5834 M239.8916,100.5834 L236.5366,100.5834 C236.3046,100.5834 236.1166,100.3964 236.1166,100.1644 C236.1166,99.9324 236.3046,99.7444 236.5366,99.7444 L239.8916,99.7444 C240.1226,99.7444 240.3106,99.9324 240.3106,100.1644 C240.3106,100.3964 240.1226,100.5834 239.8916,100.5834"
          id="Fill-4"
          fill="#0058B0"
        />
        <path
          d="M51.4666,56.9964 L48.2846,56.9964 C48.0536,56.9964 47.8656,56.8094 47.8656,56.5774 C47.8656,56.3454 48.0536,56.1574 48.2846,56.1574 L51.4666,56.1574 C51.6986,56.1574 51.8866,56.3454 51.8866,56.5774 C51.8866,56.8094 51.6986,56.9964 51.4666,56.9964 M57.8316,56.9964 L54.6506,56.9964 C54.4176,56.9964 54.2306,56.8094 54.2306,56.5774 C54.2306,56.3454 54.4176,56.1574 54.6506,56.1574 L57.8316,56.1574 C58.0646,56.1574 58.2516,56.3454 58.2516,56.5774 C58.2516,56.8094 58.0646,56.9964 57.8316,56.9964 M64.1966,56.9964 L61.0146,56.9964 C60.7816,56.9964 60.5946,56.8094 60.5946,56.5774 C60.5946,56.3454 60.7816,56.1574 61.0146,56.1574 L64.1966,56.1574 C64.4286,56.1574 64.6156,56.3454 64.6156,56.5774 C64.6156,56.8094 64.4286,56.9964 64.1966,56.9964 M70.5626,56.9964 L67.3786,56.9964 C67.1476,56.9964 66.9596,56.8094 66.9596,56.5774 C66.9596,56.3454 67.1476,56.1574 67.3786,56.1574 L70.5626,56.1574 C70.7936,56.1574 70.9816,56.3454 70.9816,56.5774 C70.9816,56.8094 70.7936,56.9964 70.5626,56.9964"
          id="Fill-6"
          fill="#0058B0"
        />
        <polygon
          id="Fill-8"
          fill="#0058B0"
          points="44.5936 77.5746 2.7786 78.9536 0.9406 35.1166 46.4316 36.7706"
        />
        <path
          d="M154.9315,22.3519 C154.7995,22.3519 154.6695,22.2899 154.5875,22.1739 C154.4555,21.9859 154.5005,21.7229 154.6895,21.5889 L157.4325,19.6589 C157.6225,19.5259 157.8835,19.5719 158.0175,19.7599 C158.1505,19.9489 158.1055,20.2109 157.9155,20.3449 L155.1725,22.2759 C155.0995,22.3279 155.0145,22.3519 154.9315,22.3519 M149.4455,26.2159 C149.3135,26.2159 149.1835,26.1539 149.1025,26.0389 C148.9695,25.8489 149.0145,25.5859 149.2035,25.4539 L151.9475,23.5219 C152.1375,23.3879 152.3975,23.4339 152.5315,23.6229 C152.6635,23.8129 152.6185,24.0749 152.4295,24.2079 L149.6865,26.1399 C149.6135,26.1909 149.5295,26.2159 149.4455,26.2159 M143.9585,30.0799 C143.8275,30.0799 143.6985,30.0169 143.6165,29.9019 C143.4835,29.7119 143.5285,29.4509 143.7175,29.3169 L146.4605,27.3839 C146.6495,27.2519 146.9105,27.2969 147.0455,27.4859 C147.1775,27.6749 147.1325,27.9379 146.9445,28.0709 L144.2015,30.0029 C144.1265,30.0549 144.0425,30.0799 143.9585,30.0799 M138.4735,33.9419 C138.3415,33.9419 138.2125,33.8799 138.1305,33.7639 C137.9975,33.5759 138.0425,33.3129 138.2325,33.1789 L140.9755,31.2479 C141.1635,31.1149 141.4255,31.1619 141.5605,31.3499 C141.6925,31.5389 141.6475,31.8009 141.4585,31.9349 L138.7155,33.8659 C138.6415,33.9169 138.5575,33.9419 138.4735,33.9419 M132.9875,37.8059 C132.8555,37.8059 132.7265,37.7439 132.6445,37.6279 C132.5115,37.4389 132.5565,37.1759 132.7455,37.0429 L135.4895,35.1119 C135.6795,34.9789 135.9405,35.0249 136.0745,35.2129 C136.2065,35.4029 136.1615,35.6649 135.9725,35.7979 L133.2295,37.7299 C133.1555,37.7809 133.0715,37.8059 132.9875,37.8059"
          id="Fill-10"
          fill="#0058B0"
        />
        <path
          d="M136.1063,77.2757 C136.0153,77.2757 135.9233,77.2467 135.8463,77.1857 L133.2123,75.1087 C133.0313,74.9647 133.0003,74.7017 133.1423,74.5197 C133.2873,74.3387 133.5503,74.3077 133.7323,74.4507 L136.3663,76.5277 C136.5473,76.6717 136.5793,76.9347 136.4353,77.1167 C136.3523,77.2207 136.2303,77.2757 136.1063,77.2757 M141.3743,81.4317 C141.2833,81.4317 141.1913,81.4027 141.1143,81.3417 L138.4803,79.2637 C138.2973,79.1207 138.2673,78.8567 138.4103,78.6747 C138.5543,78.4937 138.8183,78.4627 138.9993,78.6057 L141.6333,80.6837 C141.8153,80.8267 141.8463,81.0897 141.7033,81.2727 C141.6203,81.3777 141.4983,81.4317 141.3743,81.4317 M146.6423,85.5887 C146.5503,85.5887 146.4603,85.5587 146.3823,85.4987 L143.7483,83.4207 C143.5663,83.2767 143.5353,83.0127 143.6783,82.8317 C143.8233,82.6497 144.0863,82.6197 144.2673,82.7607 L146.9013,84.8387 C147.0843,84.9827 147.1153,85.2467 146.9713,85.4277 C146.8883,85.5337 146.7653,85.5887 146.6423,85.5887 M151.9103,89.7437 C151.8193,89.7437 151.7273,89.7137 151.6503,89.6537 L149.0163,87.5757 C148.8353,87.4327 148.8033,87.1697 148.9473,86.9867 C149.0903,86.8047 149.3543,86.7747 149.5363,86.9177 L152.1693,88.9947 C152.3513,89.1377 152.3823,89.4017 152.2393,89.5837 C152.1573,89.6887 152.0343,89.7437 151.9103,89.7437 M155.7943,92.8077 C155.7043,92.8077 155.6123,92.7787 155.5353,92.7177 L154.2853,91.7307 C154.1033,91.5887 154.0723,91.3247 154.2143,91.1417 C154.3593,90.9617 154.6233,90.9297 154.8033,91.0727 L156.0543,92.0597 C156.2363,92.2027 156.2673,92.4667 156.1253,92.6487 C156.0423,92.7537 155.9183,92.8077 155.7943,92.8077"
          id="Fill-12"
          fill="#0058B0"
        />
        <polygon
          id="Fill-14"
          fill="#94C5FA"
          points="175.6981 38.5004 153.6831 0.3704 197.7131 0.3704"
        />
        <polygon
          id="Fill-16"
          fill="#00DE91"
          points="266.7567 123.0619 243.5137 99.8189 266.7567 76.5749 289.9997 99.8189"
        />
        <path
          d="M199.0926,97.4662 C199.0926,86.1922 189.4876,79.0792 178.2116,79.0792 C166.9376,79.0792 157.3316,88.3732 157.3316,99.6482 C157.3316,110.9222 168.1846,122.3982 179.4586,122.3982 C190.7336,122.3982 199.0926,108.7412 199.0926,97.4662"
          id="Fill-18"
          fill="#FFD840"
        />
        <polygon
          id="Fill-20"
          fill="#3397F5"
          points="101.5193 23.8754 73.1613 40.1614 73.0853 72.8624 101.3693 89.2784 129.7273 72.9924 129.8023 40.2914"
        />
      </g>
    </g>
  </g>
</svg>
