<svg id="Layer_1" data-name="Layer 1" viewBox="0 0 295.77 237.34">
  <defs>
    <style>
      .cls-1,.cls-14,.cls-3{fill:none}.cls-2{fill:url(#linear-gradient)}.cls-3{stroke:#14d997;stroke-width:10px}.cls-14,.cls-3{stroke-miterlimit:10}.cls-4,.cls-6{fill:#94c5fa}.cls-4,.cls-7{fill-rule:evenodd}.cls-5{clip-path:url(#clip-path)}.cls-7,.cls-9{fill:#6eb2f8}.cls-8{clip-path:url(#clip-path-2)}.cls-10{clip-path:url(#clip-path-3)}.cls-11{clip-path:url(#clip-path-4)}.cls-12{clip-path:url(#clip-path-6)}.cls-13{fill:#4e97ee}.cls-14{stroke:#ffd840;stroke-width:5.73px}
    </style>
    <linearGradient
      id="linear-gradient"
      x1="9.22"
      x2="289.19"
      y1="3656.95"
      y2="3656.95"
      gradientTransform="translate(0 -3534.83)"
      gradientUnits="userSpaceOnUse"
    >
      <stop offset="0" stop-color="#cfedf9" />
      <stop offset="0.32" stop-color="#d5eff9" />
      <stop offset="0.78" stop-color="#e7f6fc" />
      <stop offset="1" stop-color="#f3fafd" />
    </linearGradient>
    <clipPath id="clip-path">
      <path
        d="M162.23 72l-45 5.89-1.38-11L99.22 69l1.39 11-5.35.7-1.39-11-6 .79 1.38 11-3.37.51 2 15.51 76.34-10a30.76 30.76 0 0 0 27.56 19.4 31.14 31.14 0 0 0 32.05-30 30.9 30.9 0 0 0-61.6-4.91m40.33-7.13a10 10 0 1 1-.14 0h.14"
        class="cls-1"
      />
    </clipPath>
    <clipPath id="clip-path-2">
      <path
        d="M165.38 96.63l-38.24 29.3-7.08-9.35-14.16 10.84 7.08 9.35-4.55 3.49-7.08-9.35-5.11 3.92 7.08 9.34-2.85 2.19 10 13.15 64.91-49.73a32.59 32.59 0 0 0 35.55 3.09 33.06 33.06 0 0 0 13.65-44.5 32.56 32.56 0 0 0-44-13.64l-.26.14a33.06 33.06 0 0 0-14.92 41.76m33.32-28a10.26 10.26 0 0 1 13.89 4.18v.07a10.42 10.42 0 0 1-4.29 14 10.28 10.28 0 0 1-13.91-4.19v-.06a10.42 10.42 0 0 1 4.3-14"
        class="cls-1"
      />
    </clipPath>
    <clipPath id="clip-path-3">
      <path
        d="M204.43 84.67a11.67 11.67 0 0 1-4.09-16l.09-.15A12 12 0 0 1 216.87 65 11.66 11.66 0 0 1 221 81l-.1.17a11.92 11.92 0 0 1-14.71 4.4 14.45 14.45 0 0 1-1.75-.9m-30.6-19.53c-10.29 16.26-5.77 37.6 9.87 49.27l-20.86 49.86-12.66-5.27-7.72 18.46 12.63 5.29-2.48 5.93-12.62-5.33-2.8 6.65 12.63 5.29-1.56 3.71 17.73 7.46 35.41-84.65c14.47 2.18 29.34-3.83 37.4-16.56C249.76 88 244 65.09 226.08 54a41.69 41.69 0 0 0-5.56-2.86c-17-7.1-36.9-1.51-46.71 14"
        class="cls-1"
      />
    </clipPath>
    <clipPath id="clip-path-4">
      <path
        d="M106.42 84.79h164.33v84.08H106.42z"
        class="cls-1"
        transform="rotate(-67.3 188.582 126.831)"
      />
    </clipPath>
    <clipPath id="clip-path-6">
      <path
        d="M105.53 85.39h164.33v82.16H105.53z"
        class="cls-1"
        transform="rotate(-67.3 187.695 126.47)"
      />
    </clipPath>
  </defs>
  <title>Artboard 1</title>
  <path
    d="M289.19 112.14A43.35 43.35 0 0 0 232 71.06c-31.17 4.37-66.19-27.42-73.11-34.06A86.69 86.69 0 1 0 52.66 171.7l75 50.07a65 65 0 0 0 96.2-22.57c20.62-31 48.74-52.77 48.74-52.77l-.07-.14a43.21 43.21 0 0 0 16.66-34.15z"
    class="cls-2"
  />
  <path d="M183.85 41.07a24.84 24.84 0 1 0 32.5-13.33 24.82 24.82 0 0 0-32.49 13.31z" class="cls-3"
  />
  <path
    d="M162.23 72l-45 5.89-1.38-11L99.22 69l1.39 11-5.35.7-1.39-11-6 .79 1.38 11-3.37.51 2 15.51 76.34-10a30.76 30.76 0 0 0 27.56 19.4 31.14 31.14 0 0 0 32.05-30 30.9 30.9 0 0 0-61.6-4.91m40.33-7.13a10 10 0 1 1-.14 0h.14"
    class="cls-4"
  />
  <g class="cls-5">
    <path
      d="M100.46 1.81h110.71v148.95H100.46z"
      class="cls-6"
      transform="rotate(-67.3 155.822 76.289)"
    />
  </g>
  <path
    d="M165.38 96.63l-38.24 29.3-7.08-9.35-14.16 10.84 7.08 9.35-4.55 3.49-7.08-9.35-5.11 3.92 7.08 9.34-2.85 2.19 10 13.15 64.91-49.73a32.59 32.59 0 0 0 35.55 3.09 33.06 33.06 0 0 0 13.65-44.5 32.56 32.56 0 0 0-44-13.64l-.26.14a33.06 33.06 0 0 0-14.92 41.76m33.32-28a10.26 10.26 0 0 1 13.89 4.18v.07a10.42 10.42 0 0 1-4.29 14 10.28 10.28 0 0 1-13.91-4.19v-.06a10.42 10.42 0 0 1 4.3-14"
    class="cls-7"
  />
  <g class="cls-8">
    <path
      d="M86.68 46.54h154.68v123.81H86.68z"
      class="cls-9"
      transform="rotate(-67.3 164.02 108.444)"
    />
  </g>
  <g class="cls-10">
    <g class="cls-11">
      <g class="cls-10">
        <g class="cls-12">
          <path
            d="M97.68 80.18h183.28v95.55H97.68z"
            class="cls-13"
            transform="rotate(-67.03 189.309 127.957)"
          />
        </g>
      </g>
    </g>
  </g>
  <path
    d="M208.6 75.32c7.38 0 18.37-8.6 21.64-16.42a24.84 24.84 0 0 0-45.65-19.61l-.18.44"
    class="cls-3"
  />
  <path d="M191.59 99.11l15.96 5.88" class="cls-14" />
</svg>
