<svg
  xmlns="http://www.w3.org/2000/svg"
  width="24"
  height="24"
  fill="none"
  viewBox="0 0 40 40"
><circle cx="20" cy="20" r="20" fill="#263545" /><path
    stroke="#F7F9FA"
    stroke-linecap="round"
    stroke-linejoin="round"
    stroke-width="1.5"
    d="M14 20.833a.833.833 0 100-1.667.833.833 0 000 1.667zM14 15a.833.833 0 100-1.667A.833.833 0 0014 15zm0 11.667A.833.833 0 1014 25a.833.833 0 000 1.667zm6-5.834a.833.833 0 100-1.667.833.833 0 000 1.667zM20 15a.833.833 0 100-1.667A.833.833 0 0020 15zm0 11.667A.833.833 0 1020 25a.833.833 0 000 1.667zm6-5.834a.833.833 0 100-1.667.833.833 0 000 1.667zM26 15a.833.833 0 100-1.667A.833.833 0 0026 15zm0 11.667A.833.833 0 1026 25a.833.833 0 000 1.667z"
  /></svg>
