<?xml version="1.0" encoding="utf-8"?>
<!-- Generator: Adobe Illustrator 24.0.3, SVG Export Plug-In . SVG Version: 6.00 Build 0)  -->
<svg version="1.1" xmlns="http://www.w3.org/2000/svg" xmlns:xlink="http://www.w3.org/1999/xlink" x="0px" y="0px"
	 viewBox="0 0 2210 1392.4" style="enable-background:new 0 0 2210 1392.4;" xml:space="preserve">
<style type="text/css">
	.st0{fill:url(#SVGID_1_);}
	.st1{fill:#69ABF2;}
	.st2{fill:#4E97EE;}
	.st3{fill:url(#SVGID_2_);}
	.st4{fill:#87BBF4;}
	.st5{fill:#E2EFFC;}
	.st6{fill:#78B0F2;}
	.st7{fill:#67A6F0;}
	.st8{fill:none;}
	.st9{fill:#A0CAF7;}
	.st10{fill:#A7CCF6;}
	.st11{fill:#14D997;}
	.st12{fill:#FFD85F;}
	.st13{fill:#CAE0FA;}
	.st14{fill:#306BC4;}
	.st15{fill:#48E1AE;}
	.st16{fill:#72E8C1;}
	.st17{fill:url(#SVGID_3_);}
	.st18{fill-rule:evenodd;clip-rule:evenodd;fill:#4E97EE;}
	.st19{fill:#F9FCFE;}
	.st20{fill:#F4F9FE;}
	.st21{fill:#4098E6;}
	.st22{opacity:0.2;fill:#3C7BA6;}
	.st23{fill:#CEF7E9;}
	.st24{fill:#B8D5F8;}
	.st25{fill:#D2BA89;}
	.st26{fill:url(#SVGID_5_);}
	.st27{fill:#C1A682;}
	.st28{fill:url(#SVGID_6_);}
	.st29{fill:#02548C;}
	.st30{fill:#004A82;}
	.st31{fill:#B89C79;}
	.st32{fill:#0FA371;}
	.st33{fill:#43E1AC;}
	.st34{fill:#60A1F0;}
	.st35{fill:#FFF7DF;}
	.st36{fill:#FFE081;}
	.st37{fill:#D0F7EA;}
	.st38{fill:#7CB2F2;}
	.st39{fill:#FFDC71;}
	.st40{fill:#FFDF7A;}
	.st41{fill:#FFE080;}
</style>
<g id="Blob">
	
		<linearGradient id="SVGID_1_" gradientUnits="userSpaceOnUse" x1="893.2579" y1="1178.2584" x2="1557.3696" y2="514.1468" gradientTransform="matrix(0.8659 -0.5002 0.5002 0.8659 -391.2803 634.4536)">
		<stop  offset="0.2455" style="stop-color:#CFEDF9"/>
		<stop  offset="0.6889" style="stop-color:#E7F6FC"/>
		<stop  offset="1" style="stop-color:#F3FAFD"/>
	</linearGradient>
	<path class="st0" d="M1360.3,553c-191.9-97.3-354-289.9-557.2-360.5c-198.2-68.8-419.8-50.7-567.4,98.3
		c-176.2,177.9,18.4,511.9,64,548.9c198.9,161,476.7,180.4,544,226.8c31.3,21.6,139.1,112.2,168.7,130.3
		c75.9,46.4,166.8,80.3,253.2,58.8c92.7-23.1,157.8-103,230.1-165.5c59.9-51.8,313.8-156.4,355.1-166.2
		c57.8-13.7,203-46.7,231.3-106.1c74.5-156.2,30.5-241.2-100.1-231.8C1935.5,589.4,1486.4,616.9,1360.3,553z"/>
	<g id="Floating_Apps-2">
		<path class="st1" d="M235.7,532.4c-0.2-2.9-3.2,7-4.6-14.5c-1.8-9.6,2-19.4,9.8-25.2c10.3-8.1,31.5-18.6,43.9-14.2
			c70.2,25.2,132.6,52.7,231.5,79.8c15.5,4.3,35.2,6.9,52.6,11.6c12.9,3.4,24.5,16.6,27.6,36.9c12.5,80.9,23.2,133.9,33.7,205.7
			c6.4,43.5-41.4,65.1-51.2,63.1l-23.6-11.6c0,0-41.8-24.6-86.8-40c-47.1-16-107.8-36.7-174-62.5
			C264.6,667.8,243.2,600.3,235.7,532.4z"/>
		<path class="st2" d="M613.7,825.8c-12-66.4-27-136.3-37.6-211c-2.1-14.8-12.8-26.9-27.2-30.8c-16.5-4.4-32.2-8.8-46.7-13.8
			c-83.6-28.5-157.1-56.3-223.3-84.1c-25.7-10.8-63.2,15.2-61.1,43c0.1,1,9.6-3.9,9.6-3.5c7,63.7,18.9,144.4,44.9,231.4
			c3.3,11.1,11.6,20,22.4,24.2c59.6,22.7,114.1,41.3,157.1,55.9c34.3,11.7,68.8,29.8,112.2,40.1C590.8,883.5,619,855.5,613.7,825.8z
			"/>
		
			<linearGradient id="SVGID_2_" gradientUnits="userSpaceOnUse" x1="235.3712" y1="686.9945" x2="481.3514" y2="539.4064" gradientTransform="matrix(1 0 0 1 0 104)">
			<stop  offset="0" style="stop-color:#7CB2F2"/>
			<stop  offset="2.240000e-02" style="stop-color:#7FB4F2"/>
			<stop  offset="0.2522" style="stop-color:#99C3F5"/>
			<stop  offset="0.4886" style="stop-color:#ACCEF7"/>
			<stop  offset="0.7334" style="stop-color:#B7D4F8"/>
			<stop  offset="1" style="stop-color:#BAD6F8"/>
		</linearGradient>
		<path class="st3" d="M604.3,833.2c-12-66.4-27-136.3-37.6-211c-2.1-14.8-12.8-26.9-27.2-30.8c-16.5-4.4-32.2-8.8-46.7-13.8
			c-83.6-28.5-157.1-56.3-223.3-84.1c-25.7-10.8-53.7,9.5-51.6,37.3c0.1,1,0.2,1.8,0.2,2.1c7,63.7,18.9,144.4,44.9,231.4
			c3.3,11.1,11.6,20,22.4,24.2c59.6,22.7,114.1,41.3,157.1,55.9c34.3,11.7,74.4,23,117.9,33.3C587.1,884.1,609.7,862.9,604.3,833.2z
			"/>
		<path class="st2" d="M385.2,681.7c-37.3-15-74.2-30.8-110.6-47.9c-4.7-31.9-7.6-63.5-9.6-95.7c33.9,16.6,68.4,31.4,103.6,45
			C372.8,616.3,378.5,649,385.2,681.7z"/>
		<path class="st4" d="M388.9,698.8c-37.6-15.1-74.8-30.9-111.6-47.9c-0.3-1.6-0.4-2.5-0.7-4.1c36.7,17,73.8,32.8,111.3,47.9
			C388.3,696.3,388.5,697.2,388.9,698.8z"/>
		<path class="st4" d="M391.8,711.6c-37.7-15.1-75.2-30.8-112.1-47.6c-0.3-1.7-0.5-2.5-0.8-4.2c36.9,16.9,74.3,32.6,112,47.7
			C391.2,709.1,391.4,709.9,391.8,711.6z"/>
		<path class="st4" d="M394.8,724.5c-37.8-15-75.5-30.5-112.6-47.2c-0.3-1.7-0.5-2.6-0.9-4.3c37.1,16.7,74.7,32.3,112.5,47.3
			C394.2,722,394.5,722.8,394.8,724.5z"/>
		<path class="st4" d="M403.9,759c-38.1-14.4-76-29.2-113.5-45.1c-0.4-1.8-0.7-2.7-1.1-4.5c37.5,16,75.4,31,113.5,45.5L403.9,759z"
			/>
		<path class="st4" d="M407.2,770.8c-38.1-14.1-76.1-28.6-113.7-44.2c-0.5-1.8-0.7-2.7-1.2-4.5c37.6,15.7,75.5,30.3,113.6,44.5
			C406.5,768.3,406.8,769.1,407.2,770.8z"/>
		<path class="st4" d="M333.1,711.9c0.8,3.1-1.3,4.5-4.8,3.1c-3.4-1.4-6.9-5.2-7.7-8.3c-0.8-3.1,1.4-4.4,4.8-3
			S332.3,708.8,333.1,711.9z"/>
		<path class="st4" d="M366.9,725.6c0.9,3.1-1.1,4.5-4.4,3.2s-6.7-4.9-7.5-8c-0.8-3.1,1.2-4.4,4.5-3.1
			C362.8,719.1,366.1,722.6,366.9,725.6z"/>
		<path class="st4" d="M388.3,788.8c-17.8-6.3-35.5-12.7-53.2-19.3c-2.3-7-3.4-10.5-5.5-17.4c17.7,6.8,35.4,13.5,53.2,20.1
			C385,778.8,386.1,782.1,388.3,788.8z"/>
		<path class="st5" d="M530.8,730.3c-41.1-10.9-81.3-24.1-121.1-39c-6.1-32.7-11.3-65.4-15.2-98.4c39.7,14.3,79.7,27.7,120.6,38.2
			C519.7,664.3,524.9,697.4,530.8,730.3z"/>
		<path class="st4" d="M538.4,768.8c-40.7-10.4-80.9-23-120.4-37.5c-0.4-1.6-0.5-2.4-0.9-4c39.5,14.6,79.7,27.2,120.5,37.7
			C537.9,766.6,538.1,767.3,538.4,768.8z"/>
		<path class="st4" d="M540.9,780.7c-40.6-10.1-80.6-22.4-120-36.7L420,740c39.4,14.4,79.5,26.7,120.1,37
			C540.4,778.5,540.6,779.2,540.9,780.7z"/>
		<path class="st4" d="M543.5,792.5c-40.4-9.8-80.3-21.7-119.5-35.6c-0.4-1.6-0.6-2.4-1-4.1c39.2,14.1,79.2,26.1,119.6,36
			C543,790.3,543.1,791,543.5,792.5z"/>
		<path class="st4" d="M552.5,830.5c-39.5-8.4-78.5-18.5-116.9-31c-0.5-1.6-0.7-2.5-1.2-4.1c38.5,12.5,77.6,23,117.2,31.5
			C551.9,828.4,552.1,829.1,552.5,830.5z"/>
		<path class="st4" d="M555,840.6c-39.2-8-77.9-17.5-116-29.5c-0.5-1.6-0.8-2.5-1.3-4.1c38.2,12.2,77.1,21.9,116.4,30
			C554.5,838.5,554.7,839.2,555,840.6z"/>
		<path class="st4" d="M444,721.5c0.5,2.9-1.9,4.2-5.3,2.9s-6.7-4.5-7.3-7.4c-0.6-2.9,1.8-4.2,5.3-2.9
			C440.1,715.3,443.4,718.6,444,721.5z"/>
		<path class="st4" d="M479.5,733.3c0.5,2.8-2.1,4.1-5.8,2.9c-3.7-1.2-7.1-4.5-7.6-7.3c-0.5-2.8,2.1-4.1,5.8-2.9
			C475.6,727.2,479,730.5,479.5,733.3z"/>
		<path class="st4" d="M514.4,743.6c0.5,2.8-2,4.2-5.7,3.2c-3.7-1-7-4.1-7.5-6.9c-0.5-2.8,2-4.2,5.6-3.2
			C510.4,737.7,513.8,740.8,514.4,743.6z"/>
		<path class="st4" d="M516,811.7c-18.5-4.7-36.8-9.8-55.1-15.3c-1.5-6-2.3-9-3.8-15.1c18.4,5.7,36.9,11.1,55.5,16.1
			C513.9,803.1,514.6,806,516,811.7z"/>
		<path class="st5" d="M308.1,575.8c5,2.1,7.5,3.2,12.6,5.2c11.5,26.2,27.5,50,42,74.6c-7.2-2.9-10.8-4.4-18.1-7.5
			c-3.6-6.4-5.4-9.5-8.8-15.7c-9.3-3.9-18.7-7.9-27.9-12c-1.5,4-2.2,6.1-3.7,10.2c-7-3.2-10.6-4.8-17.6-8
			C293.8,606.7,303,592.7,308.1,575.8z M316.7,599.9c-2.3,5.8-3.7,5.9-5.9,11.7c6.9,3,10.4,4.5,17.4,7.5
			C323.3,610.1,321.2,608.5,316.7,599.9z"/>
		<path class="st2" d="M424.3,619.3c10.3,3.4,20.6,6.7,31,9.9c3.7,1.1,8.1,2.7,11.2,4.1c3.1,1.3,6.1,3,8.8,5.1c2.7,2,5,4.4,6.9,7.1
			c2,2.8,3.2,6.1,3.6,9.5c0.5,3.7-0.3,6.4-2.4,8c-2.1,1.6-5,2.2-8.7,2v0.2c2.4,1,4.8,2.3,7,3.8c2.1,1.4,4,3.1,5.8,4.9
			c1.6,1.7,3,3.7,4.2,5.8c1,1.9,1.8,4,2.1,6.1c0.5,3.4,0.1,5.9-1.4,7.7c-1.5,1.8-3.6,3-6,3.4c-2.9,0.5-5.9,0.6-8.8,0.1
			c-3.7-0.6-7.2-1.4-10.8-2.6c-11.2-3.7-22.4-7.4-33.5-11.4C430,661.7,426.9,640.6,424.3,619.3z M445.7,651.8
			c5.3,1.7,8,2.5,13.4,4.2c1.4,0.4,2.8,0.8,4.2,1c1.2,0.2,2.4,0.2,3.7,0.1c0.9-0.1,1.8-0.5,2.4-1.3c0.5-0.9,0.7-1.9,0.5-2.9
			c-0.2-1.3-0.6-2.5-1.4-3.6c-0.9-1.2-1.9-2.2-3.2-3c-1.3-0.9-2.8-1.7-4.2-2.3c-1.5-0.6-3-1.2-4.5-1.7c-5.1-1.5-7.6-2.3-12.6-3.8
			C444.7,644.2,445,647,445.7,651.8z M449.4,677.2c6.5,2.2,9.8,3.3,16.5,5.4c1.4,0.5,2.8,0.8,4.3,1c1.2,0.3,2.5,0.3,3.7,0
			c0.9-0.2,1.7-0.8,2.2-1.5c0.6-0.9,0.8-2.1,0.6-3.2c-0.2-1.5-0.8-2.9-1.8-4c-1-1.2-2.2-2.3-3.6-3.1c-1.6-1-3.3-1.9-5.1-2.6
			c-1.8-0.7-3.4-1.4-5-1.8c-5.6-1.8-8.4-2.7-13.9-4.5C448.1,668.6,448.5,671.5,449.4,677.2L449.4,677.2z"/>
		<path class="st6" d="M221.8,868.9c20.3,5.4,37.7,26.9,66.7,28c2.8,0.1,5.4-1.1,7.1-3.3c5.1-6.3,20.3-26.5,15.7-42.3
			c-11.7-40.9-17.4-67.2-23.5-96.9c-1.8-9.1-9.1-16.1-18.2-17.6c-11.6-1.9-22.1-4.1-31.4-6.4c-18.9-4.7-54.2-14.7-102.8-31.4
			c-11.7-4-29.8,10-36.5,16.1c-1.8,1.7-2.9,4.1-2.8,6.6c0,1.2,6.7-3.4,6.7-2.7c0,0.5,0.1,1,0.1,1.5c5.2,28,21.9,66.3,40.9,116.5
			c2.4,6.4,7.7,11.4,14.2,13.4C186,859.2,208.6,865.4,221.8,868.9z"/>
		<path class="st7" d="M294.7,894.6c5.1-6.6,11.1-12.8,6.6-29.4c-11.7-42.8-17.4-70.3-23.5-101.4c-1.8-9.5-9.1-16.8-18.2-18.4
			c-11.6-2-22.1-4.3-31.4-6.6c-18.9-4.9-54.2-15.4-102.8-32.9c-10.9-3.8-16.8,2.9-25.3,8.3c-1.8,1.8,14.8,83.5,33.8,136.1
			C136.4,856.9,293,896.8,294.7,894.6z"/>
		<path class="st2" d="M203.6,885.6c21.3,5.6,48.8,10.5,79.6,14c7.4,0.8,14.1-4.5,14.9-11.9c0.2-1.8,0-3.7-0.5-5.4
			c-13.1-43.5-22.6-84.9-29.1-117.2c-1.1-5.5-5.6-9.8-11.2-10.7c-13.8-2.2-26.4-4.6-37.1-7.3c-36.7-9.2-72.8-20.4-108.3-33.6
			c-7-2.6-14.8,1-17.4,8c-0.8,2.1-1,4.4-0.7,6.6l0,0c5.2,28.8,13.8,76.9,33.6,129.6c1.5,3.8,4.6,6.8,8.5,8.1
			C165.7,875.2,189.8,881.9,203.6,885.6z"/>
		<g>
			<path class="st8" d="M112.7,713.8c-0.3-0.1-0.5-0.2-0.8-0.3c-7-2.6-14.8,1-17.4,8c-0.8,2.1-1,4.4-0.7,6.6c0.8,4.3,1.6,9,2.6,14.1
				c5.2,2,12.4,4.6,21.3,7.5C115.2,734.7,113.6,722.5,112.7,713.8z"/>
			<path class="st8" d="M164.9,822c2.6,9.7,5.6,19.8,8.9,30.3c9.4,2.3,19.6,4.6,30.7,6.8c-3.3-10.4-6.2-20.4-8.8-30
				C184.5,826.8,174.3,824.4,164.9,822z"/>
			<path class="st8" d="M150,759.2c-2.4-13.9-3.9-25.4-4.8-34c-10.5-3.5-21-7.2-31.4-11.1c0.9,8.8,2.5,21,5,35.9
				C127.5,752.9,138,756,150,759.2z"/>
			<path class="st8" d="M187.8,797.3c-2.4-10.7-4.3-20.5-5.8-29.4c-11.2-2.4-21.5-4.9-30.9-7.4c1.6,8.9,3.5,18.8,5.9,29.5
				C166.4,792.4,176.7,794.9,187.8,797.3z"/>
			<path class="st8" d="M219.3,803.3c-2.3-10.7-4.1-20.5-5.6-29.3c-10.8-1.8-21.1-3.8-30.7-5.9c1.6,8.9,3.5,18.8,5.8,29.4
				C198.4,799.5,208.6,801.5,219.3,803.3z"/>
			<path class="st8" d="M117.9,750.7c-8.9-2.9-16-5.4-21.3-7.4c1.7,8.9,3.6,18.9,6,29.7c5.2,1.9,12.2,4.5,21.1,7.3
				C121.4,769.6,119.4,759.7,117.9,750.7z"/>
			<path class="st8" d="M259.1,838.4c8.7,1,17.7,1.9,27,2.7c-2.6-10.1-5.1-19.9-7.3-29.4c-9.3-0.8-18.3-1.8-27-2.8
				C253.9,818.2,256.3,828,259.1,838.4z"/>
			<path class="st8" d="M213.6,773c-1.9-11.4-3.2-21-4-28.6c-10.5-2.7-20.9-5.6-31.3-8.7c1,8.3,2.4,18.9,4.6,31.4
				C192.5,769.1,202.7,771.1,213.6,773z"/>
			<path class="st8" d="M181.8,766.9c-2.2-12.6-3.6-23.2-4.6-31.5c-10.5-3.1-20.8-6.4-31.2-9.8c0.9,8.7,2.5,20.1,4.9,33.9
				C160.3,761.9,170.7,764.4,181.8,766.9z"/>
			<path class="st8" d="M132.7,812.9c2.6,9.7,5.6,19.9,9,30.5c8.9,2.7,19.3,5.6,31.1,8.6c-3.3-10.5-6.3-20.6-8.9-30.3
				C152,818.7,141.5,815.7,132.7,812.9z"/>
			<path class="st8" d="M244.6,777.6c-1.7-9.9-3-18.7-3.9-26.1c-7.3-1.4-14.2-2.9-20.5-4.4c-3.2-0.8-6.5-1.7-9.7-2.5
				c0.9,7.6,2.1,17.2,4,28.5C224.1,774.8,234.1,776.3,244.6,777.6z"/>
			<path class="st8" d="M271.7,780.6c-1.1-5.3-2.2-10.5-3.2-15.4c-1.1-5.5-5.6-9.8-11.2-10.7c-5.5-0.9-10.7-1.8-15.7-2.7
				c0.9,7.4,2.2,16.1,4,26C254,778.8,262.7,779.7,271.7,780.6z"/>
			<path class="st8" d="M150.1,760.2c-12-3.2-22.4-6.3-31.2-9.1c1.6,8.9,3.5,18.9,5.9,29.6c8.8,2.8,19.2,5.9,31.2,9.1
				C153.6,779,151.7,769.1,150.1,760.2z"/>
			<path class="st8" d="M124,781.4c-8.8-2.8-15.9-5.3-21.1-7.3c2.1,9.5,4.6,19.6,7.5,30.3c5.3,1.9,12.3,4.4,21,7.1
				C128.5,800.9,126.1,790.8,124,781.4z"/>
			<path class="st8" d="M156.2,790.8c-12-3.1-22.4-6.2-31.2-9c2.1,9.4,4.5,19.5,7.4,30.1c8.8,2.8,19.3,5.8,31.2,8.9
				C160.7,810.1,158.3,800.1,156.2,790.8z"/>
			<path class="st8" d="M157.2,791c2.1,9.4,4.5,19.4,7.4,29.9c9.4,2.4,19.7,4.8,30.8,7.1c-2.8-10.5-5.2-20.4-7.3-29.8
				C176.9,795.9,166.6,793.5,157.2,791z"/>
			<path class="st8" d="M189.1,798.5c2.1,9.3,4.5,19.3,7.3,29.8c9.5,2,19.6,3.8,30.2,5.6c-2.7-10.5-5.1-20.3-7.1-29.6
				C208.8,802.5,198.6,800.5,189.1,798.5z"/>
			<path class="st8" d="M236.7,865.7c2.9,9.3,6,18.8,9.5,28.7c9.8,1.6,20.1,3.1,30.9,4.4c-3.6-10-6.9-19.7-9.8-29.1
				C256.7,868.6,246.4,867.3,236.7,865.7z"/>
			<path class="st8" d="M205.8,860.3c2.9,9.1,6.1,18.5,9.5,28.1c9.1,2.1,19.1,4,29.9,5.8c-3.5-9.8-6.6-19.4-9.5-28.7
				C225.1,864,215.2,862.2,205.8,860.3z"/>
			<path class="st8" d="M251.6,808c8.7,1.1,17.7,2,26.9,2.8c-2.4-10.2-4.6-20-6.6-29.3c-9-0.8-17.7-1.8-26.2-2.8
				C247.3,787.6,249.2,797.4,251.6,808z"/>
			<path class="st8" d="M294.7,872.4c-9.1-0.7-17.9-1.5-26.4-2.5c3,9.4,6.3,19.1,9.9,29.1c1.7,0.2,3.3,0.4,5,0.6
				c7.4,0.8,14.1-4.5,14.9-11.9c0.2-1.8,0-3.7-0.5-5.4C296.6,879,295.7,875.7,294.7,872.4z"/>
			<path class="st8" d="M227.9,835c2.5,9.5,5.3,19.4,8.5,29.8c9.8,1.5,20,2.9,30.6,4.1c-3.2-10.3-6.1-20.1-8.6-29.6
				C247.7,838,237.6,836.6,227.9,835z"/>
			<path class="st8" d="M196.7,829.3c2.6,9.6,5.5,19.6,8.8,30c9.4,1.9,19.4,3.7,29.9,5.3c-3.2-10.3-6-20.3-8.5-29.8
				C216.2,833.1,206.1,831.2,196.7,829.3z"/>
			<path class="st8" d="M227.6,834c9.7,1.6,19.9,3,30.5,4.3c-2.8-10.4-5.2-20.2-7.3-29.5c-10.5-1.3-20.6-2.8-30.3-4.4
				C222.5,813.7,224.9,823.5,227.6,834z"/>
			<path class="st8" d="M120.3,837.4c2.2,6.6,4.6,13.4,7.2,20.2c1.5,3.8,4.6,6.8,8.5,8.1c4.7,1.5,9.2,2.9,13.6,4.3
				c-3.2-8.8-6.1-17.5-8.7-25.8C132.7,841.7,125.8,839.4,120.3,837.4z"/>
			<path class="st8" d="M131.6,812.6c-8.6-2.7-15.6-5.1-21-7.1c2.7,9.9,5.8,20.2,9.3,30.9c5.5,1.9,12.4,4.3,20.6,6.8
				C137.2,832.5,134.3,822.3,131.6,812.6z"/>
			<path class="st8" d="M250.6,807.8c-2.4-10.6-4.3-20.4-5.8-29.3c-10.5-1.3-20.5-2.8-30.1-4.4c1.5,8.8,3.3,18.6,5.6,29.3
				C230,805,240.1,806.5,250.6,807.8z"/>
			<path class="st8" d="M174.1,853.3c2.7,8.6,5.7,17.5,9,26.7c8.2,2.3,15.1,4.2,20.5,5.6c3.4,0.9,6.9,1.8,10.6,2.6
				c-3.5-9.6-6.6-19-9.5-28.1C193.7,857.9,183.5,855.6,174.1,853.3z"/>
			<path class="st8" d="M142,844.5c2.7,8.4,5.6,17,8.7,25.9c11.7,3.6,22.2,6.7,31.3,9.3c-3.3-9.1-6.3-18-9-26.6
				C161.3,850.1,150.9,847.2,142,844.5z"/>
			<path class="st8" d="M268,869c8.5,1,17.4,1.8,26.4,2.5c-2.9-10-5.6-19.8-8.1-29.4c-9.3-0.8-18.3-1.7-27-2.7
				C261.9,848.8,264.8,858.7,268,869z"/>
			<path class="st9" d="M245.6,777.7c-1.7-9.9-3-18.6-4-26c-0.3-0.1-0.6-0.1-1-0.2c0.9,7.4,2.2,16.1,3.9,26.1
				C244.9,777.6,245.2,777.7,245.6,777.7z"/>
			<path class="st9" d="M250.6,807.8c0.3,0,0.7,0.1,1,0.1c-2.4-10.6-4.3-20.4-5.8-29.3c-0.3,0-0.6-0.1-1-0.1
				C246.3,787.4,248.2,797.2,250.6,807.8z"/>
			<path class="st9" d="M267.3,869.8c3,9.4,6.2,19.1,9.8,29.1c0.3,0,0.7,0.1,1,0.1c-3.6-10-6.9-19.7-9.9-29.1
				C268,869.9,267.6,869.9,267.3,869.8z"/>
			<path class="st9" d="M267,868.8c0.3,0,0.7,0.1,1,0.1c-3.2-10.2-6.1-20.1-8.7-29.6c-0.3,0-0.7-0.1-1-0.1
				C260.9,848.7,263.8,858.6,267,868.8z"/>
			<path class="st9" d="M258.1,838.3c0.3,0,0.7,0.1,1,0.1c-2.8-10.4-5.2-20.2-7.3-29.5c-0.3,0-0.7-0.1-1-0.1
				C252.9,818.1,255.3,827.9,258.1,838.3z"/>
			<path class="st9" d="M118.9,751.1c-0.3-0.1-0.7-0.2-1-0.3c1.5,8.9,3.5,18.8,5.8,29.6c0.3,0.1,0.7,0.2,1,0.3
				C122.4,769.9,120.5,760,118.9,751.1z"/>
			<path class="st9" d="M125,781.7c-0.3-0.1-0.7-0.2-1-0.3c2.1,9.4,4.5,19.5,7.4,30.1c0.3,0.1,0.7,0.2,1.1,0.3
				C129.5,801.2,127.1,791.1,125,781.7z"/>
			<path class="st9" d="M140.9,844.2c2.7,8.4,5.6,17,8.7,25.8c0.4,0.1,0.7,0.2,1.1,0.3c-3.2-8.8-6.1-17.5-8.7-25.9
				C141.6,844.4,141.3,844.3,140.9,844.2z"/>
			<path class="st9" d="M118.7,750c-2.6-14.9-4.1-27.1-5-35.9c-0.3-0.1-0.6-0.2-1-0.4c0.9,8.8,2.4,20.9,5,35.9
				C118.1,749.8,118.4,749.9,118.7,750z"/>
			<path class="st9" d="M132.7,812.9c-0.3-0.1-0.7-0.2-1.1-0.3c2.6,9.7,5.6,19.9,8.9,30.5c0.4,0.1,0.7,0.2,1.1,0.3
				C138.3,832.8,135.3,822.6,132.7,812.9z"/>
			<path class="st9" d="M157.2,791c-0.3-0.1-0.7-0.2-1-0.3c2.1,9.4,4.5,19.4,7.3,29.9c0.3,0.1,0.7,0.2,1,0.3
				C161.8,810.4,159.3,800.4,157.2,791z"/>
			<path class="st9" d="M157,790c-2.4-10.7-4.3-20.6-5.9-29.5c-0.3-0.1-0.7-0.2-1-0.3c1.6,8.9,3.5,18.8,5.8,29.5
				C156.3,789.8,156.7,789.9,157,790z"/>
			<path class="st9" d="M163.8,821.7c2.6,9.7,5.5,19.8,8.9,30.3c0.3,0.1,0.7,0.2,1.1,0.3c-3.3-10.5-6.3-20.6-8.9-30.3
				C164.5,821.9,164.2,821.8,163.8,821.7z"/>
			<path class="st9" d="M150.9,759.4c-2.4-13.8-3.9-25.3-4.9-33.9c-0.3-0.1-0.6-0.2-1-0.3c0.9,8.6,2.4,20.1,4.8,34
				C150.3,759.3,150.6,759.4,150.9,759.4z"/>
			<path class="st9" d="M173,853c2.7,8.6,5.7,17.5,9,26.6c0.4,0.1,0.7,0.2,1.1,0.3c-3.3-9.1-6.3-18-9-26.7
				C173.7,853.2,173.4,853.1,173,853z"/>
			<path class="st9" d="M182.8,767.1c-2.2-12.5-3.6-23.1-4.6-31.4c-0.3-0.1-0.6-0.2-1-0.3c1,8.3,2.4,18.9,4.6,31.5
				C182.2,766.9,182.5,767,182.8,767.1z"/>
			<path class="st9" d="M188.8,797.5c-2.4-10.7-4.3-20.5-5.8-29.4c-0.3-0.1-0.7-0.1-1-0.2c1.6,8.9,3.5,18.8,5.8,29.4
				C188.2,797.4,188.5,797.4,188.8,797.5z"/>
			<path class="st9" d="M188.1,798.3c2.1,9.3,4.5,19.3,7.3,29.8c0.3,0.1,0.7,0.1,1,0.2c-2.8-10.5-5.2-20.4-7.3-29.8
				C188.7,798.4,188.4,798.4,188.1,798.3z"/>
			<path class="st9" d="M195.6,829.1c2.6,9.6,5.5,19.6,8.8,30c0.3,0.1,0.7,0.1,1,0.2c-3.3-10.4-6.2-20.4-8.8-30
				C196.3,829.2,196,829.1,195.6,829.1z"/>
			<path class="st9" d="M204.7,860.1c2.9,9.1,6,18.5,9.5,28.1c0.4,0.1,0.7,0.2,1.1,0.3c-3.5-9.6-6.6-19-9.5-28.1
				C205.4,860.2,205.1,860.2,204.7,860.1z"/>
			<path class="st9" d="M214.5,773.1c-1.9-11.3-3.2-20.9-4-28.5c-0.3-0.1-0.6-0.2-1-0.2c0.8,7.6,2.1,17.2,4,28.6
				C213.9,773,214.2,773.1,214.5,773.1z"/>
			<path class="st9" d="M235.7,865.6c2.9,9.3,6,18.8,9.5,28.7c0.3,0.1,0.7,0.1,1,0.2c-3.5-9.9-6.7-19.4-9.5-28.7
				C236.3,865.7,236,865.6,235.7,865.6z"/>
			<path class="st9" d="M220.3,803.4c-2.3-10.7-4.1-20.5-5.6-29.3c-0.3-0.1-0.6-0.1-1-0.2c1.5,8.8,3.3,18.6,5.6,29.3
				C219.7,803.3,220,803.4,220.3,803.4z"/>
			<path class="st9" d="M226.6,833.8c0.3,0.1,0.7,0.1,1,0.2c-2.7-10.5-5.1-20.3-7.1-29.6c-0.3-0.1-0.7-0.1-1-0.2
				C221.5,813.5,223.9,823.4,226.6,833.8z"/>
			<path class="st9" d="M226.9,834.8c2.5,9.5,5.3,19.4,8.5,29.8c0.3,0.1,0.7,0.1,1,0.2c-3.2-10.3-6-20.3-8.5-29.8
				C227.5,834.9,227.2,834.9,226.9,834.8z"/>
			<path class="st9" d="M244.8,778.6c-0.1-0.3-0.1-0.6-0.2-1c-10.5-1.3-20.5-2.8-30.1-4.5c0.1,0.3,0.1,0.6,0.2,1
				C224.3,775.7,234.3,777.2,244.8,778.6z"/>
			<path class="st9" d="M245.7,778.7c8.5,1.1,17.2,2,26.2,2.8c-0.1-0.3-0.1-0.6-0.2-1c-9-0.8-17.7-1.8-26.2-2.8
				C245.6,778,245.7,778.4,245.7,778.7z"/>
			<path class="st9" d="M213.7,774c-0.1-0.3-0.1-0.7-0.2-1c-10.9-1.8-21.1-3.8-30.8-5.9c0.1,0.3,0.1,0.7,0.2,1
				C192.6,770.1,202.9,772.1,213.7,774z"/>
			<path class="st9" d="M150.1,760.2c-0.1-0.3-0.1-0.7-0.2-1c-12-3.2-22.5-6.3-31.2-9.2c0.1,0.3,0.1,0.7,0.2,1
				C127.7,753.9,138.2,757,150.1,760.2z"/>
			<path class="st9" d="M182,767.9c-0.1-0.3-0.1-0.7-0.2-1c-11.2-2.4-21.5-4.9-30.9-7.4c0.1,0.3,0.1,0.7,0.2,1
				C160.5,762.9,170.8,765.4,182,767.9z"/>
			<path class="st9" d="M117.7,749.7c-8.9-2.9-16.1-5.5-21.3-7.5c0.1,0.4,0.1,0.7,0.2,1.1c5.3,2,12.4,4.6,21.3,7.4
				C117.8,750.4,117.8,750,117.7,749.7z"/>
			<path class="st9" d="M245.7,778.7c-0.1-0.3-0.1-0.6-0.2-1c-0.3,0-0.6-0.1-1-0.1c0.1,0.3,0.1,0.6,0.2,1
				C245.1,778.6,245.4,778.6,245.7,778.7z"/>
			<path class="st9" d="M118.7,750c-0.3-0.1-0.7-0.2-1-0.3c0.1,0.3,0.1,0.7,0.2,1c0.3,0.1,0.7,0.2,1,0.3
				C118.8,750.7,118.8,750.4,118.7,750z"/>
			<path class="st9" d="M151.1,760.5c-0.1-0.3-0.1-0.7-0.2-1c-0.3-0.1-0.7-0.2-1-0.3c0.1,0.3,0.1,0.7,0.2,1
				C150.5,760.3,150.8,760.4,151.1,760.5z"/>
			<path class="st9" d="M183,768.1c-0.1-0.3-0.1-0.7-0.2-1c-0.3-0.1-0.6-0.1-1-0.2c0.1,0.3,0.1,0.7,0.2,1
				C182.3,767.9,182.7,768,183,768.1z"/>
			<path class="st9" d="M214.7,774.1c-0.1-0.3-0.1-0.7-0.2-1c-0.3-0.1-0.6-0.1-1-0.2c0.1,0.3,0.1,0.6,0.2,1
				C214.1,774,214.4,774.1,214.7,774.1z"/>
			<path class="st9" d="M251.8,808.9c8.7,1.1,17.7,2,27,2.8c-0.1-0.3-0.2-0.6-0.2-1c-9.3-0.8-18.2-1.8-26.9-2.8
				C251.7,808.3,251.7,808.6,251.8,808.9z"/>
			<path class="st9" d="M156,789.7c-12-3.2-22.4-6.3-31.2-9.1c0.1,0.4,0.2,0.7,0.2,1.1c8.8,2.8,19.3,5.9,31.2,9
				C156.1,790.4,156.1,790.1,156,789.7z"/>
			<path class="st9" d="M188.1,798.3c-0.1-0.3-0.1-0.7-0.2-1c-11.2-2.4-21.5-4.8-30.9-7.3c0.1,0.3,0.2,0.7,0.2,1
				C166.6,793.5,176.9,795.9,188.1,798.3z"/>
			<path class="st9" d="M219.6,804.3c-0.1-0.3-0.1-0.7-0.2-1c-10.8-1.8-20.9-3.8-30.5-5.8c0.1,0.3,0.1,0.7,0.2,1
				C198.6,800.5,208.8,802.5,219.6,804.3z"/>
			<path class="st9" d="M220.5,804.4c9.6,1.6,19.8,3.1,30.3,4.4c-0.1-0.3-0.1-0.6-0.2-1c-10.5-1.3-20.6-2.8-30.3-4.4
				C220.4,803.8,220.5,804.1,220.5,804.4z"/>
			<path class="st9" d="M123.7,780.3c-8.8-2.8-15.9-5.4-21.1-7.3c0.1,0.4,0.2,0.7,0.2,1.1c5.2,2,12.3,4.5,21.1,7.3
				C123.9,781,123.8,780.7,123.7,780.3z"/>
			<path class="st9" d="M250.8,808.8c0.3,0,0.7,0.1,1,0.1c-0.1-0.3-0.1-0.6-0.2-1c-0.3,0-0.7-0.1-1-0.1
				C250.7,808.2,250.7,808.5,250.8,808.8z"/>
			<path class="st9" d="M124.8,780.7c-0.3-0.1-0.7-0.2-1-0.3c0.1,0.4,0.2,0.7,0.2,1.1c0.3,0.1,0.7,0.2,1,0.3
				C124.9,781.4,124.8,781,124.8,780.7z"/>
			<path class="st9" d="M157,790c-0.3-0.1-0.7-0.2-1-0.3c0.1,0.3,0.2,0.7,0.2,1c0.3,0.1,0.7,0.2,1,0.3
				C157.1,790.7,157.1,790.3,157,790z"/>
			<path class="st9" d="M189.1,798.5c-0.1-0.3-0.1-0.7-0.2-1c-0.3-0.1-0.7-0.1-1-0.2c0.1,0.3,0.1,0.7,0.2,1
				C188.4,798.4,188.7,798.4,189.1,798.5z"/>
			<path class="st9" d="M220.5,804.4c-0.1-0.3-0.1-0.7-0.2-1c-0.3-0.1-0.7-0.1-1-0.2c0.1,0.3,0.1,0.7,0.2,1
				C219.9,804.3,220.2,804.4,220.5,804.4z"/>
			<path class="st9" d="M131.3,811.5c-8.7-2.7-15.7-5.2-21-7.1c0.1,0.4,0.2,0.7,0.3,1.1c5.3,2,12.4,4.4,21,7.1
				C131.5,812.2,131.4,811.8,131.3,811.5z"/>
			<path class="st9" d="M196.4,828.3c0.1,0.3,0.2,0.7,0.3,1c9.5,2,19.6,3.8,30.2,5.6c-0.1-0.3-0.2-0.7-0.3-1
				C216,832.1,205.9,830.2,196.4,828.3z"/>
			<path class="st9" d="M259.3,839.4c8.7,1,17.7,1.9,27,2.7c-0.1-0.3-0.2-0.6-0.3-1c-9.3-0.8-18.3-1.7-27-2.7
				C259.2,838.7,259.2,839.1,259.3,839.4z"/>
			<path class="st9" d="M163.6,820.7c-11.9-3.1-22.3-6.1-31.2-8.9c0.1,0.4,0.2,0.7,0.3,1.1c8.8,2.8,19.3,5.8,31.2,8.8
				C163.7,821.4,163.7,821,163.6,820.7z"/>
			<path class="st9" d="M164.6,820.9c0.1,0.3,0.2,0.7,0.3,1c9.4,2.4,19.7,4.8,30.8,7.1c-0.1-0.3-0.2-0.7-0.3-1
				C184.3,825.7,174,823.3,164.6,820.9z"/>
			<path class="st9" d="M227.9,835c9.7,1.6,19.9,3,30.5,4.3c-0.1-0.3-0.2-0.6-0.3-1c-10.6-1.3-20.8-2.7-30.5-4.3
				C227.7,834.3,227.8,834.7,227.9,835z"/>
			<path class="st9" d="M258.3,839.3c0.3,0,0.7,0.1,1,0.1c-0.1-0.3-0.2-0.6-0.3-1c-0.3,0-0.7-0.1-1-0.1
				C258.2,838.6,258.2,838.9,258.3,839.3z"/>
			<path class="st9" d="M132.4,811.8c-0.4-0.1-0.7-0.2-1.1-0.3c0.1,0.4,0.2,0.7,0.3,1.1c0.3,0.1,0.7,0.2,1.1,0.3
				C132.6,812.5,132.5,812.2,132.4,811.8z"/>
			<path class="st9" d="M163.6,820.7c0.1,0.3,0.2,0.7,0.3,1c0.3,0.1,0.7,0.2,1,0.3c-0.1-0.3-0.2-0.7-0.3-1
				C164.2,820.9,163.9,820.8,163.6,820.7z"/>
			<path class="st9" d="M195.4,828.1c0.1,0.3,0.2,0.7,0.3,1c0.3,0.1,0.7,0.1,1,0.2c-0.1-0.3-0.2-0.7-0.3-1
				C196,828.2,195.7,828.1,195.4,828.1z"/>
			<path class="st9" d="M226.6,833.8c0.1,0.3,0.2,0.7,0.3,1c0.3,0.1,0.7,0.1,1,0.2c-0.1-0.3-0.2-0.7-0.3-1
				C227.3,833.9,226.9,833.9,226.6,833.8z"/>
			<path class="st9" d="M268.3,869.9c8.5,1,17.4,1.8,26.4,2.5c-0.1-0.3-0.2-0.6-0.3-1c-9.1-0.7-17.9-1.5-26.4-2.5
				C268.1,869.3,268.2,869.6,268.3,869.9z"/>
			<path class="st9" d="M236.4,864.8c0.1,0.3,0.2,0.7,0.3,1c9.8,1.5,20,2.9,30.6,4.1c-0.1-0.3-0.2-0.7-0.3-1
				C256.3,867.6,246.1,866.3,236.4,864.8z"/>
			<path class="st9" d="M140.6,843.1c-8.2-2.5-15.1-4.8-20.6-6.8c0.1,0.4,0.2,0.7,0.4,1.1c5.5,1.9,12.4,4.2,20.6,6.7
				C140.8,843.8,140.7,843.4,140.6,843.1z"/>
			<path class="st9" d="M173.8,852.2c0.1,0.3,0.2,0.7,0.3,1c9.4,2.3,19.6,4.6,30.6,6.8c-0.1-0.3-0.2-0.7-0.3-1
				C193.4,856.9,183.1,854.6,173.8,852.2z"/>
			<path class="st9" d="M205.4,859.3c0.1,0.3,0.2,0.7,0.3,1c9.4,1.9,19.4,3.6,29.9,5.3c-0.1-0.3-0.2-0.7-0.3-1
				C224.8,862.9,214.9,861.2,205.4,859.3z"/>
			<path class="st9" d="M141.6,843.4c0.1,0.4,0.2,0.7,0.3,1.1c8.9,2.7,19.3,5.6,31,8.5c-0.1-0.3-0.2-0.7-0.3-1
				C160.9,849,150.5,846.1,141.6,843.4z"/>
			<path class="st9" d="M267,868.8c0.1,0.3,0.2,0.7,0.3,1c0.3,0,0.7,0.1,1,0.1c-0.1-0.3-0.2-0.7-0.3-1
				C267.7,868.9,267.3,868.9,267,868.8z"/>
			<path class="st9" d="M140.6,843.1c0.1,0.4,0.2,0.7,0.3,1.1c0.4,0.1,0.7,0.2,1.1,0.3c-0.1-0.4-0.2-0.7-0.3-1.1
				C141.3,843.3,140.9,843.2,140.6,843.1z"/>
			<path class="st9" d="M172.7,852c0.1,0.3,0.2,0.7,0.3,1c0.3,0.1,0.7,0.2,1.1,0.3c-0.1-0.3-0.2-0.7-0.3-1
				C173.4,852.1,173,852.1,172.7,852z"/>
			<path class="st9" d="M204.4,859.1c0.1,0.3,0.2,0.7,0.3,1c0.3,0.1,0.7,0.1,1,0.2c-0.1-0.3-0.2-0.7-0.3-1
				C205.1,859.2,204.7,859.2,204.4,859.1z"/>
			<path class="st9" d="M235.3,864.6c0.1,0.3,0.2,0.7,0.3,1c0.3,0.1,0.7,0.1,1,0.2c-0.1-0.3-0.2-0.7-0.3-1
				C236,864.7,235.7,864.6,235.3,864.6z"/>
		</g>
	</g>
	<g id="Framework_1_">
		<g id="Framework-2">
			<circle class="st2" cx="1135.3" cy="404" r="128.7"/>
			<path class="st10" d="M1203.9,584.2c-12.8,5.4-32.4,11.9-46.5,11.9c22.6-9.2,48.2-22.9,65.5-37.2c13-3.3,29.5-7,39.8-10.6
				C1245.7,561.7,1223.9,575.7,1203.9,584.2z"/>
			<path class="st11" d="M1002.9,504.8c-6.5-12.1-11.7-24.8-15.6-37.9c12.1,5.5,23.3,10.2,32.3,13.9c14.4,5.8,29.2,10.6,44.2,14.4
				c1,4.5,2,8.9,3,13.2c5.5,22.2,12.6,41,20.9,56.1c-15.7-2.9-34.9-6.2-50.2-10.8C1022,539.9,1012.7,523.1,1002.9,504.8z"/>
			<path class="st2" d="M1133.5,438.2v-64.2c22.7-0.5,50.4-5,72.4-11.6c0.9,12.4,1.3,22.4,1.6,28c0.1,1.5,0.1,2.7,0.2,3.7
				c0.1,1.6,0,10.6,0,16.4c0,0.9-0.1,2.1-0.1,3.5c-0.2,4.5-0.4,9-0.6,13.3C1185,433.2,1157.7,437.8,1133.5,438.2z"/>
			<path class="st12" d="M1243.2,271.9c-1.8,1.5-3.7,3-5.7,4.4c-12.4,8.8-25.8,16-40,21.4c-6.1-24.4-13.9-44.5-23.4-60.3
				c6.5-1.9,12.8-4.4,18.8-7.3C1212.2,240.8,1229.2,255,1243.2,271.9z"/>
			<path class="st11" d="M1173.8,236.2c-13.2,2.6-26.7,4-40.2,4.2v-32.2C1148.7,212.6,1162.1,222,1173.8,236.2z"/>
			<g>
				<g>
					<path id="SVGID_4_" class="st13" d="M1071.5,298c19.7,6.5,40.1,10.3,60.8,11.1v62.4c-25.5-0.7-53.1-7.3-71.5-13.6
						c2-20.2,5.3-40.3,9.9-60.1L1071.5,298z"/>
				</g>
			</g>
			<path class="st2" d="M1111.6,321.6c-6.4-0.3-12.8-1.3-19-2.8c-1.7-0.5-3.4,0.4-4,2.1c0,0,0,0.1,0,0.1c-1.4,6.9-2,10.6-3.1,18.1
				c-0.2,2,1.2,3.9,3.2,4.3c3.4,0.9,5.1,1.2,8.7,1.9c0.2-1.6,0.2-2.5,0.4-4.1c-2.8-0.5-4.1-0.9-6.8-1.5c-0.5-0.1-0.8-0.5-0.8-1
				c0.9-6.3,1.3-9.4,2.4-15.3c0.1-0.4,0.5-0.7,0.9-0.6c0,0,0,0,0,0c5.4,1.3,10.9,2.2,16.4,2.6c0.4,0.1,0.8,0.4,0.8,0.9
				c-0.2,6.3-0.3,9.5-0.6,15.9c0,0.4-0.4,0.7-0.9,0.7c0,0,0,0-0.1,0c-1.2-0.1-1.8-0.2-3.1-0.4c-0.1,1.6-0.1,2.5-0.2,4.1
				c2,0.3,3,0.4,5,0.5c2.2,0.2,3.9-1.2,3.9-3.1v-19.1C1114.8,323.3,1113.4,321.8,1111.6,321.6z"/>
			<path class="st10" d="M1101.6,329.4c-3.3-0.5-4.9-0.9-8.1-1.6c-0.2,1.6-0.4,2.4-0.6,3.9c2.6,0.6,3.9,0.9,6.6,1.4
				c0.5,0,0.8,0.4,0.8,0.9c-0.6,6.3-0.9,9.5-1.5,15.9c-0.1,0.4-0.5,0.7-0.9,0.6c0,0-0.1,0-0.1,0c-6-1-12-2.5-17.8-4.3
				c-0.4-0.1-0.7-0.6-0.7-1c0.9-6.5,1.3-9.7,2.4-15.8c0.1-0.4,0.4-0.6,0.8-0.5c0,0,0,0,0.1,0c1,0.3,1.6,0.5,2.7,0.8
				c0.3-1.6,0.4-2.3,0.7-3.9c-1.7-0.5-2.5-0.7-4.2-1.3c-1.4-0.6-3,0-3.6,1.5c-0.1,0.2-0.1,0.4-0.2,0.6c-1.3,7.2-1.9,10.9-2.8,18.9
				c-0.2,2,0.9,3.8,2.7,4.5c7,2.3,14.1,4,21.4,5c2.3,0.4,4.2-0.9,4.3-2.8c0.5-7.7,0.7-11.5,1.3-19.1
				C1105,331.3,1103.5,329.6,1101.6,329.4z"/>
			<g>
				<path class="st8" d="M1130.7,371.4v-60.3c-18.1-0.4-39.4-4.1-57.5-10.3c-0.6-0.2-1.3-0.4-1.9-0.7c-4.2,17.4-7.4,36.9-9.6,58.2
					C1079.2,364.5,1106.1,371,1130.7,371.4z"/>
				<path class="st8" d="M1021.2,264.6c12-14.3,26.5-26.3,43.5-36c-1.9-1.2-3.6-2.4-5.2-3.6c-17,7.1-32.7,16.5-46.9,27.8
					C1014.7,256.9,1017.6,260.8,1021.2,264.6z"/>
				<path class="st8" d="M1205.4,414.1c0-1.3,0.1-2.3,0.1-3.1c0-3.6,0.1-13.3,0-14.9c0-0.9-0.1-2-0.1-3.3
					c-0.2-5.4-0.6-14.9-1.5-26.9c-20.4,6.3-46.8,10.6-67.9,10.9V437c22.6-0.3,48.4-4.7,68.8-10
					C1205.1,422.7,1205.3,418.4,1205.4,414.1z"/>
				<path class="st8" d="M1025,268.3c11.4,10.5,27.2,19,42.6,24.9c5.8-22,13.1-39.9,21.8-53.8c-6.8-2.1-13.2-4.6-19-7.6
					c-0.2-0.1-0.3-0.2-0.4-0.2C1052.3,241.4,1037.3,253.6,1025,268.3z"/>
				<path class="st8" d="M1070,225.6c8.7-4.6,18-8.7,27.9-12.1c-11.3,2.1-22.2,5.2-32.7,9.1C1066.7,223.6,1068.3,224.6,1070,225.6z"
					/>
				<path class="st8" d="M1210.9,411.1c0,0.9-0.1,1.9-0.1,3.2c-0.1,2.7-0.2,6.6-0.5,11.2c6.3-1.8,12-3.7,16.8-5.5
					c18.4-7.3,36.3-16,53.4-26c-0.6-13.4-1.7-36.7-8.9-62.3c-2.2,1.6-4.5,3.2-6.8,4.8c-16.5,10.8-34.2,19.7-52.8,26.6
					c-0.9,0.3-1.9,0.7-2.9,1c1,12.7,1.4,22.8,1.6,28.4c0.1,1.3,0.1,2.4,0.1,3.3c0.1,2.1,0,14.7,0,15.2L1210.9,411.1L1210.9,411.1z"
					/>
				<path class="st8" d="M1195.7,226.6c2.3-1.2,4.5-2.6,6.4-3.9c-13.1-5-26.7-8.5-40.6-10.6C1173.8,216.1,1185.2,221,1195.7,226.6z"
					/>
				<path class="st8" d="M1098,236.3c10.2,2.4,21.2,3.8,32.7,4v-28.2C1118.3,215.4,1107.4,223.5,1098,236.3z"/>
				<path class="st8" d="M1207.9,225.1c-2.1,1.6-4.4,3.2-6.9,4.6c17.1,10,31.6,22.4,43.6,37.1c4.6-4.5,8.2-9,10.6-13.3
					C1240.9,241.7,1224.9,232.2,1207.9,225.1z"/>
				<path class="st8" d="M1244,274.6c-12.3,10.4-28.6,19.2-44.3,25.1c4.7,20.7,7.4,41.8,9,59c0.5-0.2,1-0.3,1.4-0.5
					c18.1-6.7,35.5-15.5,51.7-26.1c2.9-1.9,5.6-3.9,8.2-5.8c-2.9-9.5-6.7-19.2-11.6-28.7C1254.2,289.3,1249.4,281.7,1244,274.6z"/>
				<path class="st8" d="M1130.7,376.7c-24.7-0.5-51.6-6.8-69.5-12.9c-0.9,9.8-1.6,20-2.1,30.5l-0.1,1.7c-0.1,1.6,0,11.2,0,14.9
					l0.1,1.5c0.2,4.2,0.4,8.3,0.6,12.3c21.2,6.4,48,11.9,71,12.3V376.7z"/>
				<path class="st8" d="M978.5,411.5c0-0.6-0.2-13.4,0-17.6c-14.1-8.6-25.7-17.6-34.7-26.7c-2.2,11.7-3.4,23.7-3.4,36
					c0,12.5,1.2,24.7,3.5,36.5c13.2,8.5,27.1,15.9,40.3,22.2C979.8,441.1,979,422.9,978.5,411.5z"/>
				<path class="st8" d="M1028,548.5c-23.9-24.9-36-54.1-42.3-80.1c-13-6.1-26.9-13.3-40.3-21.6c7.7,33.1,23.8,62.9,46.1,87.1
					c3.1,1.3,6.1,2.6,8.9,3.8l7.5,3.2C1013.8,543.5,1020.6,546,1028,548.5z"/>
				<path class="st8" d="M1318.5,450.4c-14.1,8.5-28.4,16-40.8,22c-6.9,26.6-20.2,56.2-45.9,81c11.3-3.1,21.2-6.5,28.9-9.8
					c2.9-1.2,6-2.6,9.2-4c24.5-24.6,42.5-55.7,51-90.6C1320.1,449.4,1319.3,449.9,1318.5,450.4z"/>
				<path class="st8" d="M990.2,464.7c13.1,6.1,25.1,11.1,34.4,15c10.5,4.3,23.6,8.7,37.9,12.4c-3.7-19.2-6.4-40.4-7.9-63.4
					c-5.6-1.8-10.7-3.6-15.2-5.3c-21.5-8.5-40-17.3-55.7-26.4c0,5.4,0.1,14.2,0.1,14.3C984.3,423,985.2,442.6,990.2,464.7z"/>
				<path class="st8" d="M1194.6,301.4c-17.2,5.8-39.4,9.5-58.6,9.8v60.3c23.9-0.4,50-5.6,67.4-11.1
					C1201.9,343.2,1199.3,322.2,1194.6,301.4z"/>
				<path class="st8" d="M1174.1,235.1c5.5-1.5,10.8-3.4,15.6-5.6c-10.4-5.3-21.6-9.9-33.7-13.6
					C1162.7,220.8,1168.7,227.2,1174.1,235.1z"/>
				<path class="st8" d="M1171.8,241.2c-11.1,2.7-23.3,4.2-35.8,4.4v60.3c18.7-0.3,40.4-3.9,57.2-9.6c0.1,0,0.2-0.1,0.2-0.1
					c-0.1-0.3-0.2-0.6-0.2-0.9C1187.6,272.8,1180.5,254.8,1171.8,241.2z"/>
				<path class="st8" d="M1198.3,294c0,0.1,0.1,0.3,0.1,0.4c18.1-6.7,32.2-15.3,42.3-24c-12.3-15.1-27.4-27.7-45.2-37.7
					c-5.6,2.8-11.8,5.2-18.4,7.1C1185.8,253.7,1192.8,271.8,1198.3,294z"/>
				<path class="st8" d="M1072.6,295.1c0.8,0.3,1.5,0.5,2.3,0.8c17.6,5.9,38.3,9.6,55.8,10v-60.3c-12.6-0.2-24.8-1.8-36-4.6
					C1085.9,254.5,1078.5,272.6,1072.6,295.1z"/>
				<path class="st8" d="M1136,212v28.3c11.4-0.2,22.5-1.5,32.6-3.8C1159.4,223.6,1148.5,215.4,1136,212z"/>
				<path class="st8" d="M1075.7,228.6c5.1,2.5,10.8,4.6,16.8,6.3c6.2-8.8,13.1-15.7,20.7-20.6
					C1099.7,218,1087.2,222.8,1075.7,228.6z"/>
				<path class="st8" d="M1258.6,508.2c5.6-11,9.7-22.1,12.7-32.9c-11.1,5.2-20.2,9.1-25.5,11.3c-11.2,4.6-27,9.3-44.4,13.1
					c-0.9,4.4-1.9,8.8-2.9,13.2c-5.1,20.7-11.6,37.9-19.4,51.5c14.3-2.1,28.6-4.9,41.6-8.2C1236.4,543,1249.1,527,1258.6,508.2z"/>
				<path class="st8" d="M1175.5,570.2c-5.1,7.8-10.7,14.2-16.9,19.2c19.7-6.3,37-14.7,52-25.4
					C1199.3,566.5,1187.4,568.6,1175.5,570.2z"/>
				<path class="st8" d="M972.3,297c2.9,5.8,8.4,13.7,18.4,22.7c2.8-8.2,6.2-16.6,10.4-24.8c4.8-9.4,10.4-18.1,16.7-26.1
					c-3.9-4.1-7.1-8.3-9.4-12.6C994.5,268,982.3,281.7,972.3,297z"/>
				<path class="st8" d="M1066.6,510.5c-1-4.1-2-8.3-2.9-12.6c-15.5-3.9-29.8-8.6-41.1-13.3c-8.5-3.5-19.1-7.9-30.8-13.3
					c3.1,11.9,7.5,24.4,13.7,36.6c8.7,17,19.9,31.7,33.6,44.2c14.8,4.5,31.2,8.5,47.5,11.4C1078.7,549.5,1071.9,531.9,1066.6,510.5z
					"/>
				<path class="st8" d="M978.8,387.8c0.8-15,2.7-37.9,10.1-62.5c-8.1-6.9-15.1-14.7-19.9-23.2c-11,17.8-19.1,37.6-23.9,58.7
					C953.5,370,964.8,379,978.8,387.8z"/>
				<path class="st8" d="M1090.4,569.5c-13.9-2.3-27.9-5.4-41.1-9c16.8,12.8,36.6,22.7,59.6,29.6
					C1102.2,585,1096,578.1,1090.4,569.5z"/>
				<path class="st8" d="M995.1,323.4c13,10.6,32.5,22.3,61.5,33.2c2.2-21.3,5.5-40.7,9.8-58.1c-10.7-4.1-24-10.2-36-18.9
					c-3.2-2.3-6-4.6-8.7-7c-5.9,7.6-11.2,15.9-15.8,24.8C1001.4,305.9,997.9,314.7,995.1,323.4z"/>
				<path class="st8" d="M1323.4,369.8c-11.1,10.1-24.4,19.3-37.6,27.1c0.1,5.5-0.1,14.3-0.1,14.8c-0.5,12.1-1.4,31.6-6.4,53.8
					c13.2-6.6,28.5-14.7,43.2-24c2.5-12.4,3.8-25.3,3.8-38.4C1326.3,391.9,1325.3,380.7,1323.4,369.8z"/>
				<path class="st8" d="M1036.6,556.9c-11.6-3.6-22.2-7.4-30.9-11.1c-1.4-0.6-2.8-1.2-4.3-1.8c6.3,5.9,13.1,11.5,20.2,16.5
					c23.4,16.6,50.6,28.1,80,33C1074.3,584.4,1053.1,571.7,1036.6,556.9z"/>
				<path class="st8" d="M1223.1,561.1c-15.9,13.2-36,24.6-61.3,32.9c30.7-4.5,59.1-16.3,83.3-33.5c4.5-3.2,8.9-6.6,13.1-10.2
					C1248.7,554,1236.6,557.7,1223.1,561.1z"/>
				<path class="st8" d="M1322.2,363.6c-4.4-20.9-12.2-40.8-23-59.1c-5.2,7.9-12.9,15.9-23.1,23.8c7.3,25.1,8.8,48.3,9.5,62.6
					c1.1-0.6,2.1-1.3,3.2-1.9C1302.2,380.5,1313.5,372,1322.2,363.6z"/>
				<path class="st8" d="M1130.7,595.3v-21.9c-10.4-0.1-21.6-1.1-33.1-2.8C1107.1,583.6,1118.1,591.9,1130.7,595.3z"/>
				<path class="st8" d="M1093.6,564.7c12.9,2,25.5,3.3,37.1,3.4v-60.2c-19-0.3-40.8-3.7-61.2-8.6c0.7,3.4,1.5,6.7,2.3,9.9
					C1077.5,532.1,1084.8,550.7,1093.6,564.7z"/>
				<path class="st8" d="M1259.5,257c-2.9,4.9-6.8,9.5-11.5,13.9c5.7,7.5,10.7,15.5,15.1,24.1c4.7,9.2,8.4,18.5,11.3,27.7
					c9.7-7.8,17-15.7,21.6-23.4c-7.5-11.7-16.3-22.7-26.3-32.7C1266.5,263.3,1263,260.1,1259.5,257z"/>
				<path class="st8" d="M1168.3,571.2c-11.1,1.3-22,2.1-32.3,2.3v21.9C1148.3,592,1159.1,583.8,1168.3,571.2z"/>
				<path class="st8" d="M1041.4,418.4c3.9,1.5,8.2,3.1,12.9,4.6c-0.2-3.4-0.4-6.9-0.5-10.4l-0.1-1.6c0-0.5-0.1-13.1,0-15.2l0.1-1.7
					c0.5-11.1,1.2-21.8,2.2-32.1c-17.5-6.5-42.7-17.5-62.7-33c-7.2,24.9-8.7,47.8-9.4,62C999.8,400.4,1019,409.6,1041.4,418.4z"/>
				<path class="st8" d="M1130.7,442.3c-22.8-0.4-49.3-5.6-70.6-11.9c1.6,23,4.3,44.2,8.2,63.2c20.7,5.1,43.1,8.7,62.5,9V442.3z"/>
				<path class="st8" d="M1136,507.9v60.2c11.5-0.2,23.8-1.2,36.3-2.8c10-15.9,17.8-37.5,23.5-64.4
					C1176.1,504.8,1154.9,507.6,1136,507.9z"/>
				<path class="st8" d="M1136,442.3v60.3c19.3-0.3,41-3.2,60.9-7.3c3.6-18.6,6.1-39.5,7.6-62.8C1183.9,437.8,1158.4,442,1136,442.3
					z"/>
				<path class="st8" d="M1273.1,468.6c5.8-23.6,6.7-44.6,7.3-57c0,0,0.1-6.3,0.1-11.5c-24.4,13.9-46.9,23-51.5,24.8
					c-5.3,2.1-11.8,4.2-19,6.2c-0.9,16-2.9,39.1-7.4,63c16.2-3.6,30.8-8,41.3-12.3C1248.9,479.6,1259.6,475.1,1273.1,468.6z"/>
				<path class="st14" d="M1133.4,204.4c-109.6,0-198.5,88.8-198.5,198.5c0,70.3,36.5,132,91.6,167.3c1,0.6,2,1.2,2.9,1.8
					c0.4,0.2,0.7,0.4,1.1,0.7c30,18.2,65.2,28.7,102.9,28.7c52.7,0.2,103.2-20.8,140.4-58.1c37.2-37.2,58.2-87.7,58.2-140.4
					C1331.9,293.3,1243.1,204.4,1133.4,204.4z M1260.7,543.5c-7.7,3.3-17.6,6.7-28.9,9.8c25.7-24.7,38.9-54.3,45.9-81
					c12.4-6,26.7-13.4,40.8-22c0.8-0.5,1.6-1,2.4-1.5c-8.5,34.9-26.4,66-51,90.6C1266.7,540.9,1263.6,542.2,1260.7,543.5z
					 M991.5,533.9c-22.3-24.1-38.4-54-46.1-87.1c13.4,8.3,27.3,15.5,40.3,21.6c6.3,26,18.4,55.2,42.3,80.1
					c-7.4-2.5-14.2-5.1-20.1-7.6l-7.5-3.2C997.6,536.5,994.6,535.2,991.5,533.9z M940.4,403.1c0-12.3,1.2-24.4,3.4-36
					c9,9.2,20.5,18.1,34.7,26.7c-0.2,4.3,0,17.1,0,17.6c0.5,11.4,1.3,29.6,5.7,50.4c-13.2-6.3-27.1-13.8-40.3-22.2
					C941.6,427.8,940.4,415.6,940.4,403.1z M983.7,396.9c15.7,9.1,34.3,17.9,55.7,26.4c4.5,1.8,9.6,3.6,15.2,5.3
					c1.5,23,4.2,44.2,7.9,63.4c-14.2-3.7-27.4-8.1-37.9-12.4c-9.4-3.9-21.4-8.9-34.4-15c-5-22.1-5.9-41.7-6.4-53.5
					C983.8,411.2,983.7,402.4,983.7,396.9z M1240.7,270.4c-10.1,8.7-24.2,17.3-42.3,24c0-0.1-0.1-0.3-0.1-0.4
					c-5.5-22.2-12.6-40.3-21.2-54.2c6.6-1.9,12.8-4.3,18.4-7.1C1213.4,242.7,1228.5,255.3,1240.7,270.4z M1136,212
					c12.5,3.4,23.3,11.6,32.6,24.5c-10.2,2.4-21.2,3.7-32.6,3.8V212z M1130.7,305.9c-17.6-0.4-38.2-4-55.8-10
					c-0.7-0.3-1.5-0.5-2.3-0.8c5.9-22.5,13.3-40.5,22.1-54.1c11.1,2.8,23.3,4.4,36,4.6L1130.7,305.9L1130.7,305.9z M1136,311.2
					c19.2-0.3,41.4-4,58.6-9.8c4.7,20.8,7.3,41.8,8.8,58.9c-17.4,5.5-43.6,10.7-67.4,11.1L1136,311.2L1136,311.2z M1193.2,296.3
					c-16.8,5.7-38.4,9.3-57.2,9.6v-60.3c12.6-0.2,24.7-1.7,35.8-4.4c8.7,13.6,15.8,31.6,21.4,54.1c0.1,0.3,0.2,0.6,0.2,0.9
					C1193.3,296.2,1193.2,296.3,1193.2,296.3z M1174.1,235.1c-5.5-7.9-11.5-14.3-18.1-19.1c12.1,3.7,23.3,8.2,33.7,13.6
					C1184.9,231.7,1179.7,233.6,1174.1,235.1z M1130.7,240.3c-11.5-0.2-22.5-1.6-32.7-4c9.4-12.7,20.3-20.9,32.7-24.2V240.3z
					 M1092.5,234.9c-6-1.7-11.6-3.8-16.8-6.3c11.4-5.8,23.9-10.6,37.5-14.4C1105.6,219.2,1098.7,226,1092.5,234.9z M1070.4,231.9
					c5.7,3,12.1,5.5,19,7.6c-8.7,13.8-16,31.8-21.8,53.8c-15.4-5.9-31.3-14.5-42.6-24.9c12.3-14.7,27.3-26.9,45-36.7
					C1070.1,231.7,1070.3,231.8,1070.4,231.9z M1073.2,300.9c18.1,6.1,39.4,9.9,57.5,10.3v60.3c-24.6-0.5-51.5-7-69-13
					c2.2-21.3,5.4-40.8,9.6-58.2C1072,300.5,1072.6,300.7,1073.2,300.9z M1059.1,412.4l-0.1-1.5c0-3.6-0.1-13.2,0-14.9l0.1-1.7
					c0.5-10.5,1.2-20.7,2.1-30.5c17.9,6.1,44.9,12.5,69.5,12.9V437c-23-0.4-49.8-5.9-71-12.3
					C1059.5,420.7,1059.3,416.6,1059.1,412.4z M1136,376.7c21.1-0.3,47.5-4.6,67.9-10.9c0.9,12,1.3,21.5,1.5,26.9
					c0.1,1.3,0.1,2.5,0.1,3.3c0.1,1.6,0,11.3,0,14.9c0,0.8-0.1,1.9-0.1,3.1c-0.2,4.4-0.4,8.7-0.6,12.9c-20.4,5.4-46.2,9.7-68.8,10
					L1136,376.7L1136,376.7L1136,376.7z M1210.9,395.8c0-0.9-0.1-2-0.1-3.3c-0.2-5.6-0.6-15.7-1.6-28.4c1-0.3,1.9-0.7,2.9-1
					c18.5-6.9,36.2-15.8,52.8-26.6c2.4-1.6,4.7-3.2,6.8-4.8c7.1,25.6,8.2,48.9,8.9,62.3c-17.1,10-35,18.7-53.4,26
					c-4.7,1.9-10.4,3.7-16.8,5.5c0.2-4.7,0.4-8.5,0.5-11.2c0.1-1.3,0.1-2.3,0.1-3.2V411C1210.9,410.5,1211,397.9,1210.9,395.8z
					 M1261.7,332c-16.2,10.6-33.6,19.3-51.7,26.1c-0.5,0.2-0.9,0.3-1.4,0.5c-1.5-17.2-4.2-38.3-9-59c15.8-5.9,32-14.6,44.3-25.1
					c5.4,7.1,10.2,14.8,14.4,23c4.9,9.5,8.7,19.2,11.6,28.7C1267.4,328.2,1264.6,330.1,1261.7,332z M1201.1,229.7
					c2.5-1.5,4.8-3,6.9-4.6c17,7.1,33,16.7,47.4,28.5c-2.5,4.3-6,8.8-10.6,13.3C1232.7,252.1,1218.1,239.7,1201.1,229.7z
					 M1195.7,226.6c-10.5-5.7-21.9-10.5-34.2-14.5c13.9,2,27.5,5.6,40.6,10.6C1200.1,224.1,1198,225.4,1195.7,226.6z M1070,225.6
					c-1.7-1-3.3-2-4.7-3c10.5-4,21.4-7,32.7-9.1C1088,216.9,1078.7,221,1070,225.6z M1064.6,228.5c-16.9,9.7-31.4,21.8-43.5,36
					c-3.5-3.7-6.5-7.7-8.6-11.8c14.1-11.4,29.9-20.8,46.9-27.8C1061,226.1,1062.8,227.4,1064.6,228.5z M1021.6,272.5
					c2.6,2.4,5.5,4.7,8.7,7c12,8.7,25.3,14.9,36,18.9c-4.3,17.4-7.5,36.9-9.8,58.1c-29-10.9-48.5-22.6-61.5-33.2
					c2.8-8.7,6.3-17.5,10.8-26.2C1010.4,288.4,1015.6,280.1,1021.6,272.5z M1056,362c-1,10.3-1.7,21-2.2,32.1l-0.1,1.7
					c-0.1,2.1,0,14.7,0,15.2l0.1,1.6c0.1,3.5,0.3,7,0.5,10.4c-4.7-1.5-9-3.1-12.9-4.6c-22.4-8.8-41.6-18-57.5-27.5
					c0.7-14.2,2.2-37.1,9.4-62C1013.3,344.5,1038.5,355.5,1056,362z M1060.1,430.3c21.4,6.3,47.8,11.6,70.6,11.9v60.3
					c-19.3-0.3-41.8-3.9-62.5-9C1064.4,474.5,1061.7,453.3,1060.1,430.3z M1130.7,507.9v60.2c-11.6-0.1-24.2-1.4-37.1-3.4
					c-8.8-14-16.1-32.5-21.8-55.5c-0.8-3.2-1.6-6.5-2.3-9.9C1089.9,504.2,1111.7,507.6,1130.7,507.9z M1130.7,573.4v21.9
					c-12.6-3.4-23.6-11.7-33.1-24.7C1109.1,572.3,1120.3,573.3,1130.7,573.4z M1136,573.4c10.3-0.1,21.2-0.9,32.3-2.3
					c-9.2,12.7-20,20.8-32.3,24.2V573.4z M1136,568.1v-60.2c18.9-0.3,40.1-3,59.8-7c-5.6,26.9-13.5,48.6-23.5,64.4
					C1159.9,566.9,1147.5,567.9,1136,568.1z M1136,502.5v-60.3c22.4-0.3,47.9-4.5,68.5-9.8c-1.5,23.2-4,44.2-7.6,62.8
					C1177,499.4,1155.3,502.3,1136,502.5z M1209.9,431.1c7.2-2,13.7-4.1,19-6.2c4.6-1.8,27.2-10.9,51.5-24.8
					c0,5.2-0.1,11.5-0.1,11.5c-0.6,12.4-1.5,33.5-7.3,57c-13.5,6.5-24.3,11.1-29.3,13.1c-10.5,4.3-25.1,8.7-41.3,12.3
					C1207,470.1,1209,447.1,1209.9,431.1z M1285.6,390.9c-0.7-14.4-2.2-37.5-9.5-62.6c10.1-7.9,17.9-15.9,23.1-23.8
					c10.9,18.3,18.7,38.3,23,59.1c-8.8,8.4-20,16.9-33.4,25.4C1287.7,389.6,1286.7,390.2,1285.6,390.9z M1274.4,322.8
					c-2.9-9.1-6.6-18.4-11.3-27.7c-4.4-8.6-9.5-16.6-15.1-24.1c4.7-4.4,8.6-9.1,11.5-13.9c3.6,3.1,7,6.3,10.3,9.7
					c10,10,18.8,21,26.3,32.7C1291.5,307.1,1284.1,315,1274.4,322.8z M1008.4,256.2c2.4,4.3,5.5,8.5,9.4,12.6
					c-6.3,8-11.9,16.7-16.7,26.1c-4.2,8.3-7.6,16.6-10.4,24.8c-10-9-15.5-16.9-18.4-22.7C982.3,281.7,994.5,268,1008.4,256.2z
					 M988.9,325.3c-7.4,24.6-9.3,47.5-10.1,62.5c-14-8.8-25.2-17.8-33.7-27c4.7-21.1,12.9-40.8,23.9-58.7
					C973.7,310.7,980.7,318.4,988.9,325.3z M1005.6,507.9c-6.2-12.2-10.6-24.7-13.7-36.6c11.6,5.3,22.3,9.7,30.8,13.3
					c11.3,4.7,25.6,9.4,41.1,13.3c0.9,4.3,1.9,8.5,2.9,12.6c5.3,21.4,12.1,39.1,20.1,53.1c-16.3-2.9-32.8-6.9-47.5-11.4
					C1025.5,539.7,1014.2,524.9,1005.6,507.9z M1090.4,569.5c5.6,8.5,11.8,15.4,18.5,20.6c-23-6.9-42.8-16.8-59.6-29.6
					C1062.5,564.2,1076.6,567.3,1090.4,569.5z M1175.5,570.2c11.9-1.6,23.8-3.8,35.1-6.2c-15,10.7-32.3,19.1-52,25.4
					C1164.8,584.4,1170.4,578,1175.5,570.2z M1179.1,564.4c7.8-13.6,14.3-30.7,19.4-51.5c1.1-4.4,2.1-8.8,2.9-13.2
					c17.4-3.8,33.2-8.5,44.4-13.1c5.3-2.2,14.4-6,25.5-11.3c-3,10.8-7.1,21.9-12.7,32.9c-9.5,18.7-22.2,34.8-37.9,48
					C1207.7,559.4,1193.4,562.3,1179.1,564.4z M1279.3,465.6c5-22.2,5.9-41.8,6.4-53.8c0-0.5,0.1-9.3,0.1-14.8
					c13.2-7.8,26.5-17,37.6-27.1c1.9,10.9,2.9,22.1,2.9,33.4c0,13.2-1.3,26-3.8,38.4C1307.8,450.8,1292.6,459,1279.3,465.6z
					 M1001.5,544c1.5,0.6,2.9,1.2,4.3,1.8c8.7,3.8,19.3,7.6,30.9,11.1c16.5,14.7,37.7,27.5,65.1,36.5c-29.5-4.9-56.7-16.4-80-33
					C1014.6,555.4,1007.8,549.9,1001.5,544z M1161.8,594c25.3-8.3,45.3-19.7,61.3-32.9c13.5-3.4,25.6-7.1,35.2-10.9
					c-4.2,3.6-8.6,7-13.1,10.2C1220.9,577.7,1192.5,589.4,1161.8,594z"/>
			</g>
		</g>
	</g>
</g>
<g id="Shadows_on_Blob">
</g>
<g id="Framework">
</g>
<g id="Floating_Apps">
	<g>
		<path class="st15" d="M1449.6,509c0.8-39.6-0.1-81.5-2.9-125.7c-0.5-8.7,4.2-17,12-20.9c9-4.5,17.5-8.9,25.2-13.4
			c44.6-26.3,83.5-51,118.3-74.7c0.3-0.2,0.6-0.4,0.9-0.6c-6.7-2.6-16.4-4.4-21.5-1.2c-34.7,21.2-65.1,42.8-114.9,68.1
			c-7.8,4-18,7.6-26.8,12c-6.5,3.3-11.2,11.5-10.7,22.8c2.2,44.6,2.4,74.1,4.7,113.6c0.8,13,8,20.5,16.3,25.3
			C1449.8,512.6,1449.6,510.8,1449.6,509z"/>
		<path class="st11" d="M1483.9,349c-7.7,4.6-16.2,8.9-25.2,13.4c-7.8,3.9-12.5,12.2-12,20.9c2.8,44.1,3.7,86.1,2.9,125.7
			c0,1.8,0.2,3.6,0.5,5.3c5.1,2.9,10.6,4.9,15.3,6.4c-6.3-3.6-10.4-10.4-10.2-18.1c0.8-36.9-0.1-75.9-2.7-116.9
			c-0.5-8.1,3.9-15.7,11.2-19.4c8.3-4.2,16.2-8.3,23.4-12.5c41.5-24.4,77.7-47.4,110-69.5c2.7-1.8,5.7-3,8.9-3.4
			c6.8-0.9,13.2,1.7,17.5,6.4c0-0.1,0-0.2,0-0.3c0,0-8.8-7.6-17.1-11.8c-1-0.5-2.2-1-3.5-1.5c-0.3,0.2-0.6,0.4-0.9,0.6
			C1567.5,298,1528.6,322.7,1483.9,349z"/>
		<path class="st16" d="M1613.7,295.9c3.5,37.1-0.5,75.5-6,128.9c-32.5,21.1-62.7,38.8-86.1,52.6c-22.4,13.1-42,30.9-42,30.9
			l-9,14.1c-1.5-0.5-3.2-1-5-1.6c2.9,1.6,6.1,2.6,9.7,2.7c3.1,0.1,6.2-0.6,9-1.9c22.1-10.3,42.3-20.7,59.3-30.8
			c21.4-12.5,48.4-28.5,77.8-47.2c5.3-3.4,8.8-9.1,9.3-15.4c4.3-49.3,1.7-93.8-1.5-128.5c0-0.2-0.1-0.6-0.2-1.2
			c-0.6-4.4-2.5-8.2-5.2-11.2C1625,298.6,1613.5,294.4,1613.7,295.9z"/>
		<path class="st16" d="M1606.2,280.9c-3.2,0.4-6.2,1.6-8.9,3.4c-32.3,22.1-68.5,45.1-110,69.5c-7.2,4.2-15.1,8.3-23.4,12.5
			c-7.3,3.6-11.7,11.2-11.2,19.4c2.6,41.1,3.5,80,2.7,116.9c-0.2,7.7,4,14.5,10.2,18.1c1.8,0.6,3.5,1.1,5,1.6l9-14.1
			c0,0,19.6-17.8,42-30.9c23.4-13.7,53.6-31.5,86.1-52.6c5.6-53.4,9.6-91.8,6-128.9c-0.2-1.5,11.3,2.7,10-8.6
			C1619.4,282.6,1613,280,1606.2,280.9z"/>
	</g>
	<g>
		<g>
			<path class="st1" d="M1502,812.9c41.4-124.8,70.5-290.9,81.2-369c2.1-15.1,11.5-28.3,25.2-35.1c48.7-24.5,162.4-83.5,212.7-119.1
				c3.9-2,7.6-3.3,11.1-3.9c-12.4-8.2-28.1-14-41.6-6.9c-50.2,35.6-164,94.6-212.7,119.1c-13.6,6.9-23,20-25.1,35.1
				c-10.7,78.1-28.5,233.9-69.9,358.8c-2.2,12.1,6.8,26.6,18,39.1C1500.5,825.9,1500.8,819.9,1502,812.9z"/>
			<path class="st2" d="M1526.1,853.9c6.1,4.5,10.3,4.2,10.3,4.2s206-119.2,220.4-126.2c26.3-82.9,88.6-336.6,98.2-424.6
				c0,0-5.6-8.1-15.4-16c-2.3-1.9-4.8-3.7-7.4-5.5c-3.5,0.6-7.2,1.9-11.1,3.9c-50.2,35.6-164,94.6-212.7,119.1
				c-13.7,6.8-23.1,20-25.2,35.1c-10.7,78.1-39.8,244.2-81.2,369c-1.3,7-1.6,13-1.1,18.1C1509.3,840.4,1518.9,848.7,1526.1,853.9z"
				/>
		</g>
		
			<linearGradient id="SVGID_3_" gradientUnits="userSpaceOnUse" x1="1818.9142" y1="800.2479" x2="1668.5284" y2="425.3733" gradientTransform="matrix(1 0 0 1 0 104)">
			<stop  offset="0" style="stop-color:#9DC5F5"/>
			<stop  offset="0.1629" style="stop-color:#B9D5F8"/>
			<stop  offset="0.3596" style="stop-color:#D3E5FB"/>
			<stop  offset="0.5621" style="stop-color:#E5F0FC"/>
			<stop  offset="0.7717" style="stop-color:#F0F7FE"/>
			<stop  offset="1" style="stop-color:#F4F9FE"/>
		</linearGradient>
		<path class="st17" d="M1858.2,318c-0.1-3.8-1.2-7.5-3.2-10.7c-6.2-10-19.3-13-29.2-6.9c-63.5,39.2-168.7,95.1-211.7,117.4
			c-11.5,6-19.3,17.3-20.7,30.2c-3.8,34.6-8.5,73.1-8.8,75.6l-0.1,0.8c-10.9,70.3-28,180.8-65.9,306.3c-5.2,17,11.7,32.5,28.2,25.8
			c80.8-32.5,205.6-86.8,240.9-102.6c5.6-2.5,9.8-7.3,11.6-13.2c24.9-80.7,42.1-163.5,51.2-247.4
			C1856.9,435.2,1859.5,376.6,1858.2,318z"/>
		<path class="st10" d="M1666.3,693.6c5.7-18.4,23.6-38.4,24.7-56.1c0.5-8.3-5.1-19.3-7.8-28.6c-6.3-21.5-7.9-41-3.5-63.2
			c6-29.9,23-64.9,42.3-88.1c17.4-20.9,56.8-51.7,76-15.2c11.7,22.2,9.6,50.2,8.7,74.3c-0.4,10.6,4.4,18,5.2,23.9s1.8,8.6-1.5,15.5
			c-1.9,3.9-8,4.4-9.3,7.8c-3.1,8.4-4.2,20.9-5.9,31.2c-1.9,12.5-6.5,27.9-15.3,36.6c-6.6,6.5-21.1,4.8-21.6,5.6
			c-6.6,10.8-7,35.4-4.8,52c-10.8,16.4-26.4,33.8-43.7,41.7c-10.1,4.6-25.5,9.7-33.3-0.9C1670.1,721.4,1663,704.6,1666.3,693.6z"/>
		<path class="st18" d="M1691.5,520c1.4-0.1,2.1-0.1,3.5-0.2c1.2-0.1,1.9-0.4,1.5,1.4c-0.9,4.6-1.3,5.6-2.1,9.3
			c-0.3,0.9-0.1,1.8,0.5,2.5c1.2,1,2.3,2.2,3.1,3.6c0.5,0.7,1.4,1,2.2,0.6l7.8-2.6c0.8-0.4,1.9,0,2.3,0.8c0.1,0.2,0.2,0.4,0.2,0.7
			c0.5,3.7,0.8,5.6,1.2,9.4c0.1,1.7-0.5,3.3-1.7,4.5c-2.8,3.3-4.2,4.9-7.1,8.2c-0.9,1-1.5,2.2-1.7,3.5c-0.4,2.5-0.9,5-1.7,7.5
			c-0.4,1-0.3,2.1,0.2,3.1c1.6,2.3,2.4,3.5,4,5.9c0.6,1,0.5,2.7-0.4,4.4c-2.6,4.9-3.9,7.4-6.5,12.3c-0.7,1.5-2,2.7-3.6,3.2l-7.9,1.3
			c-1.2,0.3-2.2,1-2.9,2c-1.7,2.2-3.6,4.3-5.7,6.3c-1,1-1.7,2.2-2.1,3.6c-1.1,4.2-1.6,6.3-2.7,10.5c-0.5,1.8-1.5,3.3-3,4.4
			c-3.9,2.5-5.8,3.8-9.7,6.3c-1.4,0.9-2.6,0.7-3.1-0.4c-1.2-2.7-1.9-4.1-3.1-6.8c-0.4-0.8-1.4-1.2-2.2-0.8c-1.9,0.6-3.9,0.9-5.9,1.1
			c-1.2,0.2-2.2,0.8-2.9,1.7l-7.8,8.8c-1.3,1.4-2.8,2-3.8,1.5c-2.8-1.4-4-2.2-6.6-3.7c-0.9-0.5-1.2-1.9-0.7-3.6
			c1.2-4.3,1.8-6.4,3-10.5c0.4-1,0.3-2.1-0.2-3c-1.1-1.5-2-3-2.8-4.6c-0.4-0.7-1.2-1.1-1.9-0.8l-7.7,1.6c-1.2,0.2-2.1-0.5-2.2-1.9
			c-0.3-3.9-0.4-5.8-0.7-9.5c0-1.6,0.6-3,1.7-4.1l7.1-7.3c0.8-0.8,1.3-1.8,1.6-2.8c0.6-2.4,1.1-4.6,1.9-6.9c0.4-0.8,0.3-1.8-0.2-2.6
			c-1.7-1.9-2.5-2.8-4.2-4.6c-0.7-0.7-0.6-2.1,0.2-3.4c2.1-3.7,3.2-5.5,5.3-9.1c0.7-1.3,1.9-2.2,3.3-2.7l7.8-1.9
			c1-0.3,2-0.9,2.7-1.8c1.6-1.9,3.3-3.7,5.1-5.6c0.7-0.7,1.2-1.6,1.5-2.6c0.6-3.1,0.8-3.6,1.2-5.7c0.4-1.3,1.3-2.3,2.4-3
			c3.8-2.5,5.7-3.8,9.6-6.5c1.3-1,2.7-1.2,3.4-0.5c1.3,1.2,2.9,2.2,4.6,2.7c0.8,0.1,1.6,0,2.3-0.3c2.2-0.9,4.4-1.7,6.3-2.3
			c1-0.3,2-0.9,2.8-1.6c2.4-2.1,4.7-4.4,6.7-6.8c0.9-1.1,2.2-1.8,3.6-2C1688.8,520,1689.7,520,1691.5,520"/>
		<path class="st19" d="M1670.8,571.5c-1.1,6.4-6.5,13.2-12.1,15s-9.2-2-8.2-8.1s6.4-12.6,12-14.6S1671.8,565.2,1670.8,571.5z"/>
		<path class="st19" d="M1773.5,532.7c-3.6,4-5.4,6-9,10s-5.5,6-9.2,9.9c0.8-5.3,1.1-7.9,1.8-13.2s1-7.8,1.6-13
			c3,1.2,4.5,1.8,7.4,3.1S1770.6,531.4,1773.5,532.7z"/>
		<path class="st19" d="M1759.6,541.6c-32.4,12.8-65.1,24.8-98.1,35.9c0.4-2.4,0.6-3.6,1-5.9c33-11.4,65.6-23.7,98-36.7
			C1760.1,537.5,1760,538.9,1759.6,541.6z"/>
		<path class="st19" d="M1777.8,483.4c-3.3,4.4-4.9,6.2-8.3,10.3s-5.1,6.1-8.5,10.1c0.4-5,0.6-7,1-12.5s0.3-6.4,0.6-11.4
			c3.1,0.8,4.6,1.1,7.6,1.8S1774.9,482.2,1777.8,483.4z"/>
		<path class="st19" d="M1766.6,580c-3.8,4-5.7,5.9-9.6,9.9s-5.8,5.9-9.8,9.8c1.1-5.4,1.6-8.1,2.6-13.6c1-5.4,1.5-8.1,2.4-13.5
			c2.9,1.5,4.4,2.2,7.2,3.6C1762.3,577.8,1763.8,578.5,1766.6,580z"/>
		<path class="st19" d="M1752.1,588.5c-12.1,4.4-24.3,8.6-36.5,12.7c6.2-32,11.6-64.3,14.5-96.8c11.7-5.6,23.3-11.3,34.8-17.1
			c-0.1,2.2-0.2,3.4-0.4,6c-10,4.8-20,9.6-30,14.2c-3,28.6-7.2,57-12.5,85.3c10.5-3.6,20.9-7.3,31.3-11
			C1752.9,584.3,1752.7,585.7,1752.1,588.5z"/>
	</g>
	<g>
		<polygon class="st20" points="1443.4,1214.2 1549.9,1284.8 1512.1,1322.5 1411.4,1259.2 		"/>
		<path class="st21" d="M876.2,999.9c3.2-4.4,251.9,25.4,331.8,29.8c73,4,168.4,112.9,260.1,198.4c0,0-25.5,57.1-46.9,46.9
			c0,0-183.8-108.1-227.8-116.1s-220.6,31.6-314-7.8C819.6,1125.8,837.2,1053.6,876.2,999.9z"/>
		<path class="st22" d="M876.2,999.9c2.3-3.2,112.1,9.5,214.7,19.5c38.6,3.8,118.4,57.7,139.9,71.4c104.2,66.1,116.3,89.2,208,174.7
			c0,0,3.8,19.6-17.6,9.4c0,0-183.8-108.1-227.8-116.1s-220.6,31.6-314-7.8C819.6,1125.8,837.2,1053.6,876.2,999.9z"/>
		<path class="st7" d="M1463.2,1213.5c0,0,18.6,6,27.7,13.5c9.1,7.5-33.9,64.7-45.9,69.6s-27.3-14.1-28.4-19.3
			C1416.6,1277.4,1454.9,1254.5,1463.2,1213.5z"/>
		<g>
			<path class="st11" d="M1653.5,1247.8c-6.7-7.3-17.5-8.9-26-3.8l-54.6,19.6l0,0c0,0-15.4,6.1-33,0.2c-10.2-3.4-17.8,5.4-13.3,12.3
				c4.4,6.9,7.7,16.2,1.5,25.4c-5,7.4-21.3,14.2-34.3,6.3c0,0-6.5-5-11.5,1.4c-4.7,6,6.9,18.5,6.9,18.5s6.2,41.2,34.9,42
				l130.8-120.5L1653.5,1247.8z"/>
			<path class="st23" d="M1524.5,1382.1l-6.4-7l136.7-125.9l6.2,6.8c0.5,0.6,0.5,1.5-0.1,2l-134.9,124.2
				C1525.6,1382.5,1524.9,1382.5,1524.5,1382.1z"/>
			<path class="st23" d="M1562.1,1287.7l-8-24.4l5.9,0.3l7.4,22.3c0.5,1.4-0.3,2.9-1.7,3.4l-0.1,0
				C1564.1,1289.9,1562.5,1289.1,1562.1,1287.7z"/>
			<path class="st23" d="M1577.9,1282.6l-7-21.3l5.4-1.7l6.9,21.2c0.5,1.4-0.3,2.9-1.7,3.4l-0.1,0
				C1579.9,1284.8,1578.4,1284,1577.9,1282.6z"/>
		</g>
		<path class="st24" d="M746.4,1066.3c-10.1,25,0.9,56.7,24.3,70.1c13.4,7.7,29.2,9.5,44.6,10c13.1,0.4,26.3-0.1,39-3.6
			c25.1-6.8,45.7-24.3,68.5-36.8c11.3-6.2,23.3-11.2,33.8-18.7c10.1-7.1,18.5-16.3,26-26.2c20.6-27.3,33.6-60.2,37.2-94.2
			c1.3-12.5,1.1-26.1-6.1-36.4c-5.9-8.4-15.6-13.3-25.1-17.4c-11.8-5.2-24-9.8-36.8-11.4c-18.8-2.2-37.8,2.4-55.6,8.9
			c-63.4,23-117.8,70.2-149.4,129.8"/>
		<path class="st25" d="M891.4,1142.6c-14.5-0.7-26.9,10.5-37.2,0.2c-10.2-10.3-24.6-16.8-31.4-29.6
			c-28.7-53.8-91.4-123.5-103-183.4c-0.3-1.7,23.1-1.9,23.5-3.6c0.4-2.1,1.8-3.8,3.3-5.3c7.1-7.4,16.5-12,25.7-16.5
			c14.5-7,28.9-14,43.4-21c17-8.3,36.1-16.7,54.2-11.1c11.9,3.7,21.2,13,28.1,23.3c7,10.3,12,21.7,18.5,32.3
			c10.1,16.7,23.8,31.2,39.9,42.3c-6.2,19-12.4,37.9-18.6,56.9c-7.2,22-14.7,44.5-28.5,63.1c-10.4,13.9-24,25.2-34.3,39.1"/>
		<linearGradient id="SVGID_5_" gradientUnits="userSpaceOnUse" x1="606.293" y1="881.9147" x2="1001.0831" y2="881.9147">
			<stop  offset="7.046961e-02" style="stop-color:#CFEDF9"/>
			<stop  offset="0.3164" style="stop-color:#D9F1FA"/>
			<stop  offset="1" style="stop-color:#F3FAFD"/>
		</linearGradient>
		<path class="st26" d="M818.1,1148.5c-65,27-135.9-25.6-189.2-264c-18.7-83.5-34.9-258.3-9.6-269.3c9.8-4.2,20.5-6.9,31.1-6.1
			c8.2,0.5,116.4,34.4,162.7,48.9c25.9,8.1,55.1,19.3,64.2,44.8c10.9,30.5-13.4,65.7-1.5,95.8c9.4,23.7,14.6,66.6,39.4,72.8
			c23.2,5.8,62.8,0.2,75.5,20.5c13,20.7,15,28.4-0.2,47.6c6.4-14.5-6.7-32-22.3-34.7c-15.6-2.7-72.4,48.9-90.4,62.4
			c-18.8,14.1-82.6,60.3-92,73c-14,18.9-25.1,50.9-18.3,74.7c0.9,3.1,2.8,5.8,4.9,8.2C783.8,1136.7,800.4,1145.9,818.1,1148.5z"/>
		<path class="st25" d="M733,574.5c6.3-12,11.8-27.3,14.1-40.6c2.6-14.7-3.7-31.5-6.6-46c-2.4-11.8-4.7-23.9-2.8-35.8
			c4.3-26.1,14.8-49.5,37.1-63.9c15.3-9.8,45.4-14.2,63.5-12.7c13.8,1.2,26.2,8.9,37,17.6c6.7,5.4,13.2,11.5,17.1,19.2
			c7.2,14,13,27.2,9,42.4c-6.1,23.5-5.4,37.5-8.6,56.9c-3.4,20.7-10.3,46-23.1,62.5c-11.3,14.5-23.5,31.3-41.9,32
			c-8.1,0.3-21.6-8.2-21.6-8.2c-4.4,5.1-10.5,24.1-11.9,30.6c-3.6,16.9-7.3,32.4-6.4,49.7c-13.7,6.5-55.3-9.3-74.4-30.7
			c-5.7-6.4-10.5-13.6-16.4-19.8c-8-8.5-8-8.5-8-8.5C704.6,608.1,723.9,591.9,733,574.5z"/>
		<path class="st24" d="M550.9,763.6c-4.9,4.8-9.8,11-8.9,17.9c0.8,5.9,5.8,10.4,10.8,13.6c11.5,7.2,25,10.6,38.2,13.5
			c28.5,6,58.8,9.6,86.2-0.1c6.1-2.2,12.2-5.1,16.8-9.6c4.6-4.6,7.6-11.1,6.8-17.6c-1.1-8.3-8-14.5-14.7-19.4
			c-11.9-8.8-25-15.4-37.9-22.6c-8.7-4.9-17.1-10.3-27.5-10.3C595.8,728.9,568.2,746.7,550.9,763.6z"/>
		<path class="st25" d="M564.2,716.9c-7.2,42.8,4.8,93.3,31.7,148.3c12.5,25.5,27.6,50.1,47.9,70c20.3,19.9,46.3,34.9,74.5,38.1
			c27.5,3.1,61.6-18,98.2-42.1c38.7-25.4,93.4-73.5,133.5-96.8c12,12.1,28.9,18.3,45.8,20.5c16.9,2.2,34,0.6,51-0.9
			c-9.9-13.7-20-27.6-33-38.4s-29.6-18.3-46.5-17.2c-11.5,0.8-22.3,5.5-33.3,8.9c-22.6,6.9-47.6,13.2-70.5,19.1
			c-52.1,13.5-98.2,19.1-141.8,49.8c-7.7,5.4-9.8,4.8-17.5-0.8c-11-8-32.8-90.2-41-104.7c-9.5-16.9-3.1-12.9-9.6-31.2L564.2,716.9z"
			/>
		<path class="st27" d="M564.2,716.9c-7.2,42.8,4.8,93.3,31.7,148.3c12.5,25.5,27.6,50.1,47.9,70c20.3,19.9,46.3,34.9,74.5,38.1
			c27.5,3.1,61.6-18,98.2-42.1c38.7-25.4,93.4-73.5,133.5-96.8c12,12.1,28.9,18.3,45.8,20.5c16.9,2.2,34,0.6,51-0.9
			c-9.9-13.7-29.5-12.3-40.5-8.9c-22.6,6.9-30.9-25.9-53.8-20c-52.1,13.5-130,107.6-220,136.1c-9,2.9-42.9-8.2-67.7-28.1
			c-18.5-14.9-48.4-54-56.7-106.9c-3-19.2,51.9-68.4,45.3-86.6L564.2,716.9z"/>
		<linearGradient id="SVGID_6_" gradientUnits="userSpaceOnUse" x1="538.7753" y1="703.1118" x2="702.3947" y2="703.1118">
			<stop  offset="7.046961e-02" style="stop-color:#CFEDF9"/>
			<stop  offset="0.4572" style="stop-color:#DBF1FA"/>
			<stop  offset="1" style="stop-color:#F3FAFD"/>
		</linearGradient>
		<path class="st28" d="M539.3,772.8c0.5,7,1.7,14.5,6.8,19.8c3.8-6.9,13.6-8.7,22.1-8.6c34.5,0.3,70.6,17,102.4,5.7
			c10.4-3.7,21.2-10.3,31.8-6.3c-6.6-2.5-12.7-77.1-14.4-86.8c-4.3-23.5-9-49.5-26.4-68.6c-41.6-45.8-91,23.1-105.8,54.9
			C542.8,710.9,537,741.9,539.3,772.8z"/>
		<path class="st29" d="M738.9,561.9c0.3-7-1.5-12.5-10.5-24.7c-3.6-4.9-8.6-8.8-13.1-12.9c-6.8-6.2-13-13.5-15.9-22.2
			c-3-8.7-2.3-19.1,3.6-26.2c-15.9-4.1-28-19.9-27.8-36.4c0.2-16.4,12.8-31.9,28.9-35.5c-3.2-9.6,6.1-21,16.2-19.7
			c-7.8-13.5-7.1-22.4,0-36.2c7-13.9,12.7-18,28.2-17.2c10.1,0.5,28.7,10.9,28.2,21.1c0.5-9.6,11.1-17.3,19.4-19.8
			c10-3.1,21.5-0.8,30.5,4.1c4.5,2.4,9.2,6.3,8.9,11.4c10.6-9.9,25-15.6,39.5-15.6c14.5,0,28.9,5.8,39.4,15.8
			c1.9,1.8,3.7,3.7,4.7,6.1c1.3,2.8,1.5,6,1.5,9c0.1,8.6-1,17.2-3.3,25.5c10.7-3.5,22.8-2.8,32.9,2.1c10.2,4.8,18.4,13.7,22.4,24.3
			c2.5,6.6,3.4,13.9,2.3,20.9c-1.2,7.3-4.6,14.2-8.8,20.3c-2.8,4.2-6.1,8.1-10.1,11.1c-10.2,7.7-24.1,7.8-35.3,2.2
			c-7.9-4-7.6-1.7-13.9,3.7c-5.3,4.6-12.3,7.3-19.3,7.2c-10.2-0.1-20.3-5.9-25.3-14.8c-6.1,3.6-14.1,3.4-20.1-0.3
			s-9.6-10.9-9.1-17.9c-4.8,7-30.7,5.9-39.1,7.4c-8.4,1.5-2.3,34-22.8,34.4c-8.6,0.2-0.7-22.2-11.9-22.8c-4.4-3.1-5.5-1.9-10.8-1.1
			c-5.3,0.8-10.3,4.9-11.2,10.2c-0.6,3.6,0.6,7.3,1.8,10.8C747.6,512.8,753.8,538.2,738.9,561.9z"/>
		<path class="st30" d="M711.1,428.1c-4.3,2.2-7.7,6-10,10.3c-0.9,1.7-1.7,3.5-1.7,5.4c0,2,0.9,3.8,1.9,5.5
			c4.2,6.8,11.6,11.5,19.5,12.5c-4.5,4.1-8.3,9.3-9.8,15.2c-1.6,5.9-0.8,12.6,2.9,17.5c3.1,4.1,7.9,6.7,11.3,10.6
			c5,5.6,6.5,13.4,7.9,20.8c0.7-10.2,1.5-20.5,5.2-30s10.8-18.2,20.5-21.3c3.2-1,6.6-1.4,9.5-2.9c8.1-4.1,10.2-14.6,11.4-23.6
			c12-4.7,25.5-3,38-5.9c11.4-2.6,21.9-9,29.4-18c-0.9,5.2,0.9,10.9,4.7,14.6c3.8,3.7,9.6,5.3,14.7,4.1c1,5,6.1,8.4,11.1,9.5
			c9,1.9,18.9-2,24.6-9.3s7.1-17.5,4.2-26.3c-0.5-1.4-1-2.8-2.1-3.9c-1-1-2.3-1.7-3.6-2.2c-10.3-4.2-22.9-2-31.2,5.4
			c0.8-10.1-4.2-20.4-12.7-25.9c-8.5-5.4-20.1-5.7-28.7-0.4c-8.6,5.3-13.6,15.9-12.1,25.9c-1.5-3.8-5.8-5.5-9.7-6.7
			c-6.3-1.8-12.9-3.3-19.5-2.7c-6.6,0.5-13.2,3.2-17.4,8.3c2-6-0.4-13-5.1-17.2s-11.4-5.8-17.7-5.1c-10.1,1.2-19.8,9.4-19.8,19.6
			c0,7.8,5.4,14.5,10.7,20.3C731.6,427,718.3,424.5,711.1,428.1z"/>
		<path class="st25" d="M765.2,471.2c-2.8-7.2-9.5-12.8-17.2-14c-9.2-1.4-17.8,2.6-21.4,11.4c-4.5,11.2,0.2,23,5,33.1
			c1.3,2.7,2.6,5.5,4.7,7.7c3.6,3.8,9,5.4,14.1,6.4c2.7,0.5,5.6,0.9,8.2,0c2.6-0.8,5-3.2,4.9-6"/>
		<path class="st29" d="M709.1,464.4c-4.9,0.2-9.4,2.8-13.4,5.6c-5.3,3.7-10.5,8-13.2,13.9c-2.9,6.3-2.6,14,0.8,20
			c0.1-6.9,1.8-14,5.8-19.7c3.9-5.7,10.2-10,17.1-10.7"/>
		<path class="st29" d="M910.8,452.8c-0.8,7.8,3.5,15.6,9.8,20.3c6.3,4.7,14.3,6.6,22.2,6.8c9.3,0.2,18.9-2.1,26.2-7.8
			c7.9-6.2,12.5-16.4,12-26.5c-0.7,6.5-2.4,13-6.4,18.1c-7.1,9.1-20,11.8-31.5,10.9c-4.5-0.4-9-1.2-12.9-3.5
			c-4.5-2.7-7.7-7.1-10.7-11.4"/>
		<path class="st27" d="M807.9,599.1c-6.7,8.8-10.1,43.9-7.4,51.8c0.5,1.5,1.2,3,1.5,4.5c0.4,1.8,0.3,3.6,0,5.4
			c-1.2,7-5.7,13.3-12,16.6c-6.3,3.3-13.2,3.2-20.7,1.1c11.5-16.1,23.7-71.9,23.2-79.6c-0.5-7.8-4.8-14.7-8.4-21.5
			C776,562,766.3,539,768,521.1C780.2,569.4,796.5,589.8,807.9,599.1z"/>
		<path class="st31" d="M688.5,533.1"/>
		<path class="st32" d="M1338.3,832.3L1057.1,822l-143.8,50.8c-5.9,2.1-4.6,10.8,1.7,11l251.4,9.2L1338.3,832.3z"/>
		<path class="st33" d="M1338.3,832.3L1057.1,822l63.3-189.2c3.8-11.2,14.5-18.6,26.3-18.2l243.4,8.9c8.9,0.3,15,9.1,12.1,17.5
			L1338.3,832.3z"/>
		<polygon class="st20" points="1471.7,908.8 1598.6,923.6 1581.9,974.3 1463.4,963.4 		"/>
		<path class="st2" d="M792,1058.4c0.9-5.4,247.9-190.3,321.1-222.5c66.9-29.5,266.3,39.2,386.7,74c0,0,3.1,62.4-20.6,63
			c0,0-277.9-27.9-320.8-15.2c-42.9,12.7-142,210.3-243.1,217.4C850.6,1179.6,781.5,1124,792,1058.4z"/>
		<path class="st34" d="M792,1058.4c0.9-5.4,247.9-190.3,321.1-222.5c66.9-29.5,266.3,39.2,386.7,74c0,0,21.4,14.5-2.3,15.1
			c0,0-321-86.3-363.9-73.6C1090.8,864.1,794,1094,794,1094C790.9,1082.7,790,1070.8,792,1058.4z"/>
		<path class="st7" d="M1489,899.2c0,0,19.3-3.1,30.8-0.5c11.5,2.6-1,73.1-9.4,82.8c-8.4,9.8-30.7-0.2-34-4.3
			C1476.3,977.2,1500.1,939.5,1489,899.2z"/>
		<g>
			<path class="st11" d="M1686.2,870.6c-8.3-5.3-19.2-4.1-26.1,2.9l-47.9,32.8l0,0c0,0-13.4,9.8-31.9,8.5
				c-10.7-0.7-15.8,9.7-9.8,15.2c6,5.5,11.5,13.7,7.8,24.2c-2.9,8.4-17,19.2-31.6,14.8c0,0-7.5-3.2-10.8,4.2
				c-3.1,7,11.3,16.2,11.3,16.2s16.4,38.3,44.4,31.8l96.1-149.7L1686.2,870.6z"/>
			<path class="st23" d="M1595.4,1033.1l-8-5.1l100.4-156.4l7.7,5c0.7,0.4,0.8,1.3,0.4,1.9l-99,154.3
				C1596.6,1033.3,1596,1033.5,1595.4,1033.1z"/>
			<path class="st23" d="M1607.9,932.3l-13.9-21.6l5.8-1.2l12.8,19.7c0.8,1.3,0.5,2.9-0.8,3.7l-0.1,0.1
				C1610.3,933.9,1608.7,933.6,1607.9,932.3z"/>
			<path class="st23" d="M1621.9,923.4l-12.2-18.8l4.8-3l12.1,18.8c0.8,1.3,0.5,2.9-0.8,3.7l-0.1,0.1
				C1624.4,925,1622.7,924.7,1621.9,923.4z"/>
		</g>
		<circle class="st35" cx="1342.2" cy="666.7" r="24.6"/>
		<circle class="st36" cx="1284.8" cy="706.8" r="40.2"/>
		<g>
			<circle class="st16" cx="1284.4" cy="706.7" r="31.5"/>
			<path class="st37" d="M1309.2,713.8c2.3-8.6-3.4-14.1-7-15.7c-3.2-1.5-9.7-4-10.8-4.5c-1-0.7-6.8-4.6-9.8-6.5
				c-3.3-2-11.1-3.7-16.9,3c-4.2,4.8-6.9,11.4-0.9,19c3.4,4.2,2.9,6.4,5,11.6c1.3,3.2,3.7,4.8,5.2,5.5c1.5,0.9,4.1,2,7.5,1.2
				c5.5-1.2,7-2.8,12.4-2.3C1303.6,726,1307.5,720,1309.2,713.8z"/>
			<g>
				<circle class="st11" cx="1274.8" cy="699.3" r="7"/>
				<circle class="st37" cx="1274.1" cy="695.8" r="2.3"/>
			</g>
			<g>
				<circle class="st11" cx="1295.7" cy="710.5" r="7"/>
				<circle class="st37" cx="1295" cy="707" r="2.3"/>
			</g>
			<g>
				<circle class="st16" cx="1254.4" cy="685.8" r="9.1"/>
				<circle class="st16" cx="1318.6" cy="719.8" r="9.1"/>
			</g>
			<path class="st11" d="M1290.7,694.7"/>
			<path class="st11" d="M1280.5,722.7c-1,1.9-3.5,2.7-5.4,1.7c-1.9-1-2.7-3.5-1.7-5.4"/>
			<path class="st32" d="M1284.7,712.6c-0.5-0.4-1.1-0.6-1.6-0.6c-0.9-0.1-1.7-0.5-2.2-1.2c-0.4-0.4-0.8-0.8-1.4-1
				c-1.3-0.4-2.7,0-3.5,1c-1.2,1.6-0.7,3.9,1,4.8c0.3,0.2,0.6,0.2,0.9,0.3c0,0-0.1,0.1-0.1,0.1c-0.4,0.8-0.1,1.7,0.7,2.1
				c0.8,0.4,1.7,0.1,2.1-0.7c0-0.1,0-0.1,0.1-0.2c0.2,0.2,0.5,0.4,0.8,0.6c1.7,0.9,3.9,0.1,4.5-1.8
				C1286.2,714.8,1285.8,713.4,1284.7,712.6z"/>
		</g>
	</g>
	<g>
		<path class="st38" d="M1946.3,645.1c0.4-4.2,0.7-8.3,1-12.4c0-0.4,0.1-0.8,0.1-1.3c1-12.6,1.7-25,2.3-37c0-0.4,0-0.8,0.1-1.3
			c0.6-12.6,1.1-24.9,1.4-36.7c0-0.4,0-0.8,0-1.3c0.3-12.8,0.5-25,0.5-36.5c0-0.4,0-0.8,0-1.2c0-6.6,0-13,0-19.2
			c0-6.9,4.2-13.1,10.7-15.5c6.3-2.4,12.3-4.8,18-7.1c0.4-0.2,0.8-0.3,1.1-0.5c8.4-3.5,16.2-7,23.3-10.4c3.6-1.8,7.2-3.6,10.8-5.4
			c0.4-0.2,0.7-0.4,1.1-0.6c11.8-5.9,23.5-11.9,35.1-18.2c0.4-0.2,0.8-0.4,1.1-0.6c11.7-6.3,23.2-12.8,34.7-19.5
			c0.4-0.2,0.7-0.4,1.1-0.6c11.7-6.8,23.2-13.8,34.7-21c0.4-0.2,0.7-0.5,1.1-0.7c0.3-0.2,0.6-0.4,0.9-0.6c5.3-3.3,11.7-3.3,16.7-0.5
			c-0.3-0.3-0.7-0.5-1.1-0.8c-9.5-5.6-34.6-17.7-47.5-10c-53.7,32-93.2,52.8-114.6,63.1c-10.4,5-22.4,10.2-35.7,15.4
			c-10.5,4.1-17.4,14.3-17.3,25.5c0.2,36.9,0,69.6-3.7,121.3c-1.3,18.5,18.5,37.3,27.5,44.9c-1.1-1.4-2-3.1-2.6-4.9
			C1946.4,649.5,1946.1,647.3,1946.3,645.1z"/>
		<path class="st7" d="M1963,657.6c0.4-4.2,0.7-8.4,1-12.6c0-0.4,0.1-0.9,0.1-1.3c1-12.7,1.8-25.3,2.4-37.5c0-0.4,0-0.8,0.1-1.3
			c0.6-12.8,1.1-25.2,1.4-37.1c0-0.4,0-0.8,0-1.3c0.3-12.9,0.5-25.3,0.5-36.9c0-0.4,0-0.8,0-1.3c0-6.7,0-13.2,0-19.4
			c0-7,4.3-13.3,10.9-15.7c6.4-2.4,12.5-4.8,18.4-7.2c0.4-0.2,0.8-0.3,1.2-0.5c8.6-3.5,16.6-7.1,23.8-10.5c3.7-1.8,7.4-3.6,11.1-5.4
			c0.4-0.2,0.8-0.4,1.1-0.6c12.1-6,24-12.1,35.9-18.4c0.4-0.2,0.8-0.4,1.2-0.6c11.9-6.4,23.7-13,35.5-19.7c0.4-0.2,0.8-0.4,1.1-0.7
			c11.9-6.9,33.8-32.6,33.4-32.8c-9.7-5.7-15.3-8.9-28.5-1.1c-55,32.4-95.3,53.4-117.2,63.8c-10.6,5.1-23,10.3-36.5,15.6
			c-10.7,4.2-17.8,14.4-17.7,25.8c0.2,37.3,0,70.4-3.8,122.7c-1.4,18.7,4,26.6,13.2,34.2C1950.4,656.7,1962.8,659.9,1963,657.6z"/>
		<path class="st2" d="M2146,403.5c0.3,1.4-8.9-2.5-8.7-1.6c0.1,0.6,0.2,1.2,0.2,1.8c0.2,9.9-0.4,21.1-1.8,33.5
			c6.1-3.7,11.3-6.8,15.3-9.4c-0.1-6.3-0.3-12.1-0.5-17.3c-0.2-2.8-1-5.4-2.5-7.8c-1.5-2.4-3.6-4.3-6-5.6
			C2144.1,398.6,2145.5,400.9,2146,403.5z"/>
		<path class="st2" d="M1960.9,660.3c-3.3,0.8-6.7,0-9.3-2.1c-0.5-0.4-1.2-1-1.9-1.6c4.1,5.4,11.4,7.8,18.2,5.6
			c1.9-0.6,3.9-1.3,5.8-2c0.2-1.6,0.4-3.1,0.7-4.7C1970.2,657.4,1965.7,659,1960.9,660.3z"/>
		<path class="st2" d="M2129.9,478.9c8.9-5.1,16.1-9.5,21.3-12.9c0.2-13.5,0-25.9-0.3-36.9c-4.1,2.6-9.3,5.8-15.5,9.5
			C2134.2,450.9,2132.3,464.3,2129.9,478.9z"/>
		<path class="st2" d="M2123.6,559.1c9.2-5.1,16.9-9.6,22.9-13.3c1.5-13.5,2.6-26.6,3.4-39.1c-5.9,3.7-13.7,8.4-23.3,13.8
			C2125.9,532.7,2124.9,545.6,2123.6,559.1z"/>
		<path class="st2" d="M2125.5,519.7c0.4-6.3,0.6-12.5,0.8-18.5c-1.1,6.4-2.2,13.1-3.3,19.9C2123.8,520.7,2124.7,520.2,2125.5,519.7
			z"/>
		<path class="st2" d="M2122.8,522.6c-1.6,9.7-3.2,19.7-4.9,30.2c-0.7,4.5-2.5,8.7-5.2,12.2c3.4-1.8,6.6-3.5,9.7-5.2
			c1.3-13.5,2.3-26.4,3-38.7C2124.5,521.6,2123.7,522.1,2122.8,522.6z"/>
		<path class="st2" d="M2127.7,492.6c-0.2,8.4-0.5,17.3-1,26.5c9.7-5.4,17.5-10.2,23.3-13.8c0.8-13.4,1.2-26,1.3-37.8
			c-5.4,3.4-12.6,7.8-21.6,13C2129.1,484.4,2128.4,488.5,2127.7,492.6z"/>
		<path class="st2" d="M1975.6,654.9c-0.2,1.6-0.4,3.2-0.7,4.9c12.5-4.3,24.4-8.6,35.7-13c1-7.3,1.9-14.5,2.6-21.5
			C2002.2,635.4,1991,647.3,1975.6,654.9z"/>
		<path class="st2" d="M2050.8,601.3c-1,9.7-2.3,19.7-3.7,30c4.2-1.9,8.2-3.9,12-5.8c6-3,13.8-7,23-11.8c1.5-10.7,2.7-21.1,3.8-31.1
			C2072.6,589.8,2060.7,596.1,2050.8,601.3z"/>
		<path class="st2" d="M2033.3,610.2c-6.7,3.4-12.8,8.3-18.8,13.9c-0.8,7.2-1.7,14.6-2.7,22.2c12.3-4.8,23.7-9.6,34-14.4
			c1.4-10.2,2.7-20.2,3.7-29.9C2043.3,605.2,2037.8,607.9,2033.3,610.2z"/>
		<path class="st2" d="M2110.7,567.3c-1.9,2-4,3.7-6.4,5c-5.9,3.3-11.7,6.5-17.2,9.5c-1,10.1-2.3,20.5-3.8,31.2
			c10.1-5.3,21.9-11.6,34.9-18.9c1.6-11.3,2.9-22.4,4-33C2118.6,563.1,2114.8,565.2,2110.7,567.3z"/>
		<path class="st2" d="M2123.5,560.5c-1.1,10.7-2.4,21.7-3.9,33c4.9-2.7,10-5.6,15.2-8.5c4.4-2.5,7.4-6.8,8.2-11.7
			c1.4-8.8,2.5-17.5,3.5-26C2140.3,550.9,2132.6,555.4,2123.5,560.5z"/>
		<path class="st2" d="M2091.9,499.3c13.5-6.7,25.1-13.1,34.9-18.6c0.1-13.4,0-25.7-0.4-36.7c-9.8,5.6-21.5,11.9-34.9,18.7
			C2091.8,473.8,2092,486,2091.9,499.3z"/>
		<path class="st2" d="M1982.5,546.3c-10.1,3.5-20.6,6.8-31.4,10.1c-0.3,11.8-0.7,24.1-1.4,36.7c10.9-3.2,21.3-6.6,31.5-10
			C1982,570.1,1982.4,557.8,1982.5,546.3z"/>
		<path class="st2" d="M1982.2,508.7c-9.8,3.4-20,6.7-30.5,9.9c0,11.5-0.2,23.7-0.5,36.5c10.8-3.3,21.3-6.7,31.4-10.1
			C1982.7,531.8,1982.5,519.6,1982.2,508.7z"/>
		<path class="st2" d="M1980.3,475.6c-5.7,2.4-11.7,4.8-18,7.1c-6.5,2.4-10.7,8.6-10.7,15.5c0,6.1,0.1,12.5,0,19.2
			c10.5-3.2,20.6-6.5,30.4-9.9C1981.7,495.3,1981,484.6,1980.3,475.6z"/>
		<path class="st2" d="M1981.2,584.4c-10.1,3.4-20.6,6.7-31.5,10c-0.6,12.1-1.4,24.4-2.3,37c10.6-3.1,20.9-6.3,30.9-9.6
			C1979.5,608.8,1980.5,596.3,1981.2,584.4z"/>
		<path class="st2" d="M2017.9,494.2c-0.6-13.9-1.5-25.7-2.4-34.9c-3.6,1.8-7.2,3.6-10.8,5.4c-7.1,3.4-14.9,6.9-23.3,10.4
			c0.7,9,1.4,19.7,1.8,32C1995.4,502.9,2006.9,498.6,2017.9,494.2z"/>
		<path class="st2" d="M1979.3,622.7c-1,10.4-2.3,21.1-3.8,32.2c15.4-7.6,26.6-19.4,37.6-29.6c0.6-5.1,1.1-10.1,1.5-15.1
			C2003.5,614.4,1991.7,618.6,1979.3,622.7z"/>
		<path class="st2" d="M2090.6,538.1c12.3-6.1,23.1-11.8,32.4-17c1.1-6.8,2.2-13.5,3.3-19.9c0.2-6.6,0.4-13,0.4-19.1
			c-9.8,5.5-21.4,11.8-34.9,18.6C2091.7,512.3,2091.3,524.8,2090.6,538.1z"/>
		<path class="st2" d="M2054.2,479.1c-0.5-15.4-1.5-28.4-2.4-38.5c-11.6,6.3-23.3,12.3-35.1,18.2c0.9,9.2,1.8,21,2.4,35
			C2031.5,488.9,2043.2,484,2054.2,479.1z"/>
		<path class="st2" d="M2122.8,522.6c-9.3,5.1-20,10.8-32.2,16.8c-0.7,12.2-1.7,25-3,38.3c9.2-4.4,17.6-8.7,25.2-12.7
			c2.7-3.5,4.5-7.7,5.2-12.2C2119.5,542.3,2121.2,532.2,2122.8,522.6z"/>
		<path class="st2" d="M2127.9,480.1c0.7-0.4,1.3-0.8,2-1.1c2.3-14.6,4.3-28,5.6-40.3c-2.5,1.5-5.2,3.1-8.1,4.7
			C2127.9,454.4,2128.1,466.7,2127.9,480.1z"/>
		<path class="st2" d="M2016,609.7c-0.4,4.7-0.9,9.5-1.4,14.3c6.1-5.5,12.1-10.5,18.8-13.9c4.5-2.3,10-5,16.2-8.3c0.2-2,0.4-4,0.6-6
			C2039.4,600.5,2028,605.2,2016,609.7z"/>
		<path class="st2" d="M2126.3,442.7c-0.7-18.4-1.9-33.2-3-43.9c-11.4,7.2-23,14.2-34.7,21c1,10.5,2.1,24.6,2.7,41.6
			C2104.9,454.7,2116.5,448.3,2126.3,442.7z"/>
		<path class="st2" d="M2127.7,492.6c0.7-4.2,1.3-8.2,2-12.2c-0.6,0.3-1.2,0.7-1.8,1C2127.9,485.1,2127.8,488.8,2127.7,492.6z"/>
		<path class="st2" d="M2017.5,571.3c-11.2,4.3-22.9,8.5-35.2,12.7c-0.7,11.9-1.6,24.4-2.9,37.4c12.4-4.1,24.2-8.3,35.4-12.5
			C2016.1,595.8,2016.9,583.2,2017.5,571.3z"/>
		<path class="st2" d="M2090.3,462c-0.6-17-1.7-31-2.7-41.6c-11.5,6.7-23,13.2-34.7,19.5c1,10.1,1.9,23.1,2.5,38.6
			C2068,472.9,2079.7,467.3,2090.3,462z"/>
		<path class="st2" d="M2018,495.5c-11,4.3-22.6,8.6-34.7,12.8c0.4,10.9,0.5,23.1,0.4,36.3c12.2-4.2,23.9-8.5,34.9-12.8
			C2018.7,518.5,2018.4,506.3,2018,495.5z"/>
		<path class="st2" d="M2019.8,531.3c12.3-4.8,24-9.7,34.8-14.5c0.1-13.3,0-25.5-0.4-36.5c-10.9,4.9-22.6,9.8-35.1,14.7
			C2019.6,505.9,2019.9,518,2019.8,531.3z"/>
		<path class="st2" d="M2018.7,570.8c-0.6,11.9-1.5,24.5-2.7,37.6c12.1-4.6,23.5-9.2,34.2-13.8c1.3-13.2,2.3-25.9,3-38
			C2042.5,561.4,2030.9,566.1,2018.7,570.8z"/>
		<path class="st2" d="M2018.6,533.1c-11.1,4.3-22.7,8.6-34.9,12.8c-0.1,11.5-0.5,23.8-1.3,36.8c12.3-4.2,24-8.4,35.2-12.7
			C2018.2,556.9,2018.6,544.6,2018.6,533.1z"/>
		<path class="st2" d="M2055.8,516.3c12.7-5.6,24.3-11.1,34.9-16.4c0.1-13.3,0-25.6-0.4-36.6c-10.6,5.3-22.2,10.9-34.9,16.5
			C2055.8,490.8,2055.9,503,2055.8,516.3z"/>
		<path class="st2" d="M2087.1,581.9c5.5-3,11.2-6.2,17.2-9.5c2.4-1.4,4.6-3.1,6.4-5c-7.1,3.7-14.9,7.7-23.3,11.7
			C2087.3,580,2087.2,580.9,2087.1,581.9z"/>
		<path class="st2" d="M2054.6,518.2c-10.9,4.8-22.5,9.6-34.8,14.5c-0.1,11.5-0.4,23.8-1,36.9c12.2-4.7,23.7-9.5,34.5-14.2
			C2054.1,542.2,2054.5,529.8,2054.6,518.2z"/>
		<path class="st2" d="M1960.9,660.3c4.8-1.2,9.3-2.8,13.4-4.8c1.5-11.1,2.8-21.9,3.8-32.4c-9.9,3.3-20.2,6.5-30.8,9.6
			c-0.3,4.1-0.7,8.3-1,12.4c-0.2,2.2,0.1,4.5,0.8,6.6c0.6,1.8,1.5,3.5,2.6,4.9c0.7,0.6,1.3,1.1,1.9,1.6
			C1954.2,660.2,1957.6,661,1960.9,660.3z"/>
		<path class="st2" d="M2051.5,594.1c12.6-5.4,24.2-10.7,34.8-15.8c1.3-13.3,2.3-26.1,3-38.3c-10.6,5.2-22.2,10.6-34.8,16.1
			C2053.8,568.2,2052.8,580.9,2051.5,594.1z"/>
		<path class="st2" d="M2055.8,517.6c-0.1,11.6-0.5,24-1.2,37.2c12.6-5.5,24.3-11,34.8-16.2c0.7-13.2,1.1-25.7,1.3-37.4
			C2080.1,506.5,2068.5,512,2055.8,517.6z"/>
		<path class="st2" d="M2051.4,595.4c-0.2,1.9-0.4,3.9-0.6,5.8c9.9-5.1,21.8-11.4,35.1-18.7c0.1-1,0.2-1.9,0.3-2.9
			C2075.6,584.8,2064,590.1,2051.4,595.4z"/>
		<path class="st2" d="M2125.3,397.5c-0.3,0.2-0.6,0.4-0.9,0.6c1.1,10.6,2.3,25.5,3,44c2.9-1.7,5.7-3.3,8.3-4.8
			c1.3-12.4,2-23.6,1.8-33.5c0-0.6-0.1-1.2-0.2-1.8c-0.2-0.9,9,3,8.7,1.6c-0.5-2.6-1.9-4.8-3.9-6.4
			C2137,394.3,2130.6,394.2,2125.3,397.5z"/>
		<path class="st9" d="M1974.3,655.5c-0.2,1.6-0.4,3.1-0.7,4.7c0.4-0.1,0.8-0.3,1.2-0.4c0.2-1.6,0.5-3.3,0.7-4.9
			C1975.1,655.1,1974.7,655.3,1974.3,655.5z"/>
		<path class="st9" d="M1981.2,584.4c-0.7,11.9-1.6,24.4-2.9,37.4c0.4-0.1,0.8-0.3,1.2-0.4c1.3-13,2.2-25.5,2.9-37.4
			C1982,584.1,1981.6,584.2,1981.2,584.4z"/>
		<path class="st9" d="M1983.3,507.1c-0.4-12.3-1.1-23-1.8-32c-0.4,0.2-0.8,0.3-1.1,0.5c0.7,9,1.4,19.7,1.8,31.9
			C1982.5,507.3,1982.9,507.2,1983.3,507.1z"/>
		<path class="st9" d="M1978.1,623.1c-1,10.5-2.3,21.3-3.8,32.4c0.4-0.2,0.8-0.4,1.3-0.6c1.5-11,2.7-21.8,3.8-32.2
			C1978.9,622.8,1978.5,623,1978.1,623.1z"/>
		<path class="st9" d="M1983.7,545.9c-0.4,0.1-0.8,0.3-1.2,0.4c-0.2,11.5-0.6,23.8-1.3,36.8c0.4-0.1,0.8-0.3,1.2-0.4
			C1983.1,569.7,1983.5,557.4,1983.7,545.9z"/>
		<path class="st9" d="M1983.3,508.3c-0.4,0.1-0.8,0.3-1.2,0.4c0.4,10.9,0.5,23.1,0.4,36.3c0.4-0.1,0.8-0.3,1.2-0.4
			C1983.8,531.4,1983.7,519.2,1983.3,508.3z"/>
		<path class="st9" d="M2125.5,519.7c0.4-0.2,0.8-0.5,1.2-0.7c0.5-9.2,0.8-18,1-26.5c-0.5,2.8-0.9,5.7-1.4,8.6
			C2126.1,507.2,2125.8,513.4,2125.5,519.7z"/>
		<path class="st9" d="M2122.2,561.2c-1.1,10.7-2.4,21.7-4,33c0.4-0.2,0.8-0.5,1.3-0.7c1.6-11.3,2.8-22.3,3.9-33
			C2123.1,560.7,2122.6,560.9,2122.2,561.2z"/>
		<path class="st9" d="M2122.4,559.8c0.4-0.2,0.8-0.5,1.2-0.7c1.3-13.5,2.3-26.4,3-38.7c-0.4,0.2-0.8,0.4-1.2,0.7
			C2124.7,533.4,2123.7,546.3,2122.4,559.8z"/>
		<path class="st9" d="M2126.8,480.7c0.4-0.2,0.8-0.4,1.2-0.7c0.1-13.4-0.1-25.7-0.5-36.7c-0.4,0.2-0.8,0.4-1.1,0.7
			C2126.7,455.1,2126.9,467.3,2126.8,480.7z"/>
		<path class="st9" d="M2126.8,482.1c-0.1,6.1-0.2,12.5-0.4,19.1c0.5-2.9,1-5.8,1.4-8.6c0.1-3.8,0.2-7.5,0.2-11.2
			C2127.5,481.7,2127.2,481.9,2126.8,482.1z"/>
		<path class="st9" d="M2127.4,442.1c-0.7-18.5-1.9-33.3-3-44c-0.4,0.2-0.7,0.5-1.1,0.7c1.1,10.7,2.3,25.6,3,43.9
			C2126.7,442.5,2127.1,442.3,2127.4,442.1z"/>
		<path class="st9" d="M2085.9,582.6c-1.1,10.1-2.3,20.5-3.8,31.1c0.4-0.2,0.8-0.4,1.3-0.7c1.5-10.7,2.7-21.1,3.8-31.2
			C2086.7,582.1,2086.3,582.3,2085.9,582.6z"/>
		<path class="st9" d="M2089.4,538.7c0.4-0.2,0.8-0.4,1.2-0.6c0.7-13.2,1.1-25.7,1.3-37.4c-0.4,0.2-0.8,0.4-1.2,0.6
			C2090.5,512.9,2090.1,525.4,2089.4,538.7z"/>
		<path class="st9" d="M2090.7,499.9c0.4-0.2,0.8-0.4,1.2-0.6c0.1-13.3,0-25.6-0.4-36.6c-0.4,0.2-0.8,0.4-1.1,0.6
			C2090.7,474.3,2090.8,486.6,2090.7,499.9z"/>
		<path class="st9" d="M2089.3,540c-0.7,12.2-1.7,25-3,38.3c0.4-0.2,0.8-0.4,1.2-0.6c1.3-13.3,2.3-26.1,3-38.3
			C2090.1,539.6,2089.7,539.8,2089.3,540z"/>
		<path class="st9" d="M2086.2,579.7c-0.1,1-0.2,1.9-0.3,2.9c0.4-0.2,0.8-0.5,1.2-0.7c0.1-0.9,0.2-1.9,0.3-2.8
			C2087,579.3,2086.6,579.5,2086.2,579.7z"/>
		<path class="st9" d="M2091.4,461.5c-0.6-17.1-1.7-31.1-2.7-41.6c-0.4,0.2-0.7,0.4-1.1,0.6c1,10.5,2.1,24.6,2.7,41.6
			C2090.6,461.8,2091,461.7,2091.4,461.5z"/>
		<path class="st9" d="M2049.6,601.9c-1,9.7-2.3,19.7-3.7,29.9c0.4-0.2,0.8-0.4,1.3-0.6c1.4-10.3,2.6-20.3,3.7-30
			C2050.4,601.5,2050,601.7,2049.6,601.9z"/>
		<path class="st9" d="M2050.2,596c-0.2,2-0.4,4-0.6,6c0.4-0.2,0.8-0.4,1.3-0.7c0.2-2,0.4-3.9,0.6-5.8
			C2051,595.6,2050.6,595.8,2050.2,596z"/>
		<path class="st9" d="M2054.6,516.9c0.4-0.2,0.8-0.3,1.2-0.5c0.1-13.3,0-25.5-0.4-36.5c-0.4,0.2-0.8,0.3-1.2,0.5
			C2054.6,491.3,2054.8,503.5,2054.6,516.9z"/>
		<path class="st9" d="M2055.3,478.6c-0.6-15.5-1.5-28.5-2.5-38.6c-0.4,0.2-0.8,0.4-1.1,0.6c0.9,10.1,1.9,23.1,2.4,38.5
			C2054.6,478.9,2055,478.7,2055.3,478.6z"/>
		<path class="st9" d="M2053.3,556.7c-0.7,12.1-1.7,24.8-3,38c0.4-0.2,0.8-0.4,1.2-0.5c1.3-13.2,2.3-25.9,2.9-38
			C2054.1,556.3,2053.7,556.5,2053.3,556.7z"/>
		<path class="st9" d="M2054.6,518.2c-0.1,11.6-0.5,24-1.3,37.2c0.4-0.2,0.8-0.4,1.2-0.5c0.7-13.2,1.1-25.6,1.2-37.2
			C2055.4,517.8,2055,518,2054.6,518.2z"/>
		<path class="st9" d="M2013.2,625.3c-0.8,7-1.7,14.2-2.6,21.5c0.4-0.2,0.8-0.3,1.2-0.5c1-7.5,1.9-14.9,2.7-22.2
			C2014.1,624.5,2013.6,624.9,2013.2,625.3z"/>
		<path class="st9" d="M2019.1,493.8c-0.6-14-1.5-25.8-2.4-35c-0.4,0.2-0.7,0.4-1.1,0.6c0.9,9.2,1.8,21,2.4,34.9
			C2018.3,494.1,2018.7,493.9,2019.1,493.8z"/>
		<path class="st9" d="M2014.7,610.2c-0.5,5-1,10-1.5,15.1c0.4-0.4,0.9-0.8,1.3-1.2c0.5-4.9,1-9.6,1.4-14.3
			C2015.5,609.9,2015.1,610,2014.7,610.2z"/>
		<path class="st9" d="M2018.6,533.1c-0.1,11.5-0.4,23.8-1,36.9c0.4-0.2,0.8-0.3,1.2-0.5c0.6-13.1,0.9-25.4,1-36.9
			C2019.4,532.8,2019,532.9,2018.6,533.1z"/>
		<path class="st9" d="M2018.6,531.8c0.4-0.2,0.8-0.3,1.2-0.5c0.1-13.3-0.2-25.5-0.7-36.3c-0.4,0.1-0.8,0.3-1.1,0.5
			C2018.4,506.3,2018.7,518.5,2018.6,531.8z"/>
		<path class="st9" d="M2017.5,571.3c-0.6,11.9-1.5,24.5-2.7,37.6c0.4-0.2,0.8-0.3,1.2-0.5c1.2-13.1,2.1-25.7,2.7-37.6
			C2018.3,571,2017.9,571.1,2017.5,571.3z"/>
		<path class="st9" d="M2135.6,438.7c6.2-3.7,11.4-6.9,15.5-9.5c0-0.5,0-0.9,0-1.3c-4,2.6-9.1,5.8-15.3,9.4
			C2135.7,437.7,2135.6,438.2,2135.6,438.7z"/>
		<path class="st9" d="M2054.2,480.4c0-0.4,0-0.8,0-1.3c-10.9,4.9-22.7,9.8-35.1,14.7c0,0.4,0,0.8,0.1,1.2
			C2031.6,490.1,2043.3,485.2,2054.2,480.4z"/>
		<path class="st9" d="M2090.3,463.3c0-0.4,0-0.9,0-1.3c-10.6,5.3-22.2,10.9-34.9,16.5c0,0.4,0,0.8,0,1.3
			C2068.1,474.2,2079.7,468.6,2090.3,463.3z"/>
		<path class="st9" d="M2018,495.5c0-0.4,0-0.8-0.1-1.2c-11,4.3-22.6,8.6-34.7,12.8c0,0.4,0,0.8,0,1.2
			C1995.4,504.1,2007,499.8,2018,495.5z"/>
		<path class="st9" d="M2126.3,444c0-0.4,0-0.9,0-1.3c-9.8,5.6-21.4,11.9-34.9,18.7c0,0.4,0,0.9,0,1.3
			C2104.9,456,2116.6,449.6,2126.3,444z"/>
		<path class="st9" d="M2135.6,438.7c0.1-0.5,0.1-1,0.2-1.4c-2.6,1.5-5.3,3.2-8.3,4.8c0,0.4,0,0.9,0,1.3
			C2130.3,441.7,2133,440.2,2135.6,438.7z"/>
		<path class="st9" d="M1982.1,507.5c-9.8,3.4-19.9,6.7-30.4,9.9c0,0.4,0,0.8,0,1.2c10.5-3.2,20.7-6.5,30.5-9.9
			C1982.1,508.3,1982.1,507.9,1982.1,507.5z"/>
		<path class="st9" d="M1983.3,507.1c-0.4,0.1-0.8,0.3-1.2,0.4c0,0.4,0,0.8,0,1.2c0.4-0.1,0.8-0.3,1.2-0.4
			C1983.3,507.9,1983.3,507.5,1983.3,507.1z"/>
		<path class="st9" d="M2126.3,444c0.4-0.2,0.8-0.4,1.1-0.7c0-0.4,0-0.9,0-1.3c-0.4,0.2-0.8,0.4-1.1,0.7
			C2126.3,443.2,2126.3,443.6,2126.3,444z"/>
		<path class="st9" d="M2091.4,462.7c0-0.4,0-0.9,0-1.3c-0.4,0.2-0.8,0.4-1.1,0.6c0,0.4,0,0.9,0,1.3
			C2090.7,463.1,2091.1,462.9,2091.4,462.7z"/>
		<path class="st9" d="M2055.4,479.8c0-0.4,0-0.8,0-1.3c-0.4,0.2-0.8,0.3-1.2,0.5c0,0.4,0,0.8,0,1.3
			C2054.6,480.2,2055,480,2055.4,479.8z"/>
		<path class="st9" d="M2019.1,495c0-0.4,0-0.8-0.1-1.2c-0.4,0.1-0.8,0.3-1.1,0.5c0,0.4,0,0.8,0.1,1.2
			C2018.4,495.3,2018.8,495.2,2019.1,495z"/>
		<path class="st9" d="M2129.7,480.4c9-5.1,16.2-9.6,21.6-13c0-0.5,0-0.9,0-1.4c-5.3,3.4-12.4,7.8-21.3,12.9
			C2129.9,479.4,2129.8,479.9,2129.7,480.4z"/>
		<path class="st9" d="M2090.7,501.3c0-0.4,0-0.9,0-1.3c-10.6,5.3-22.2,10.8-34.9,16.4c0,0.4,0,0.9,0,1.3
			C2068.5,512,2080.1,506.5,2090.7,501.3z"/>
		<path class="st9" d="M1982.5,545c-10.1,3.5-20.5,6.8-31.4,10.1c0,0.4,0,0.8,0,1.3c10.8-3.3,21.3-6.7,31.4-10.1
			C1982.5,545.8,1982.5,545.4,1982.5,545z"/>
		<path class="st9" d="M2127.9,481.4c0.6-0.3,1.2-0.7,1.8-1c0.1-0.5,0.2-1,0.2-1.5c-0.7,0.4-1.3,0.8-2,1.1
			C2127.9,480.5,2127.9,481,2127.9,481.4z"/>
		<path class="st9" d="M2018.6,531.8c-11.1,4.3-22.7,8.6-34.9,12.8c0,0.4,0,0.8,0,1.3c12.2-4.2,23.9-8.5,34.9-12.8
			C2018.6,532.6,2018.6,532.2,2018.6,531.8z"/>
		<path class="st9" d="M2054.6,518.2c0-0.4,0-0.9,0-1.3c-10.9,4.8-22.5,9.7-34.8,14.5c0,0.4,0,0.9,0,1.3
			C2032.1,527.8,2043.7,522.9,2054.6,518.2z"/>
		<path class="st9" d="M2091.9,499.3c0,0.4,0,0.9,0,1.3c13.5-6.7,25.1-13,34.9-18.6c0-0.5,0-0.9,0-1.4
			C2117,486.3,2105.4,492.6,2091.9,499.3z"/>
		<path class="st9" d="M1983.7,544.6c-0.4,0.1-0.8,0.3-1.2,0.4c0,0.4,0,0.8,0,1.3c0.4-0.1,0.8-0.3,1.2-0.4
			C1983.7,545.4,1983.7,545,1983.7,544.6z"/>
		<path class="st9" d="M2126.8,482.1c0.4-0.2,0.8-0.4,1.2-0.7c0-0.5,0-0.9,0-1.4c-0.4,0.2-0.8,0.4-1.2,0.7
			C2126.8,481.2,2126.8,481.6,2126.8,482.1z"/>
		<path class="st9" d="M2090.7,501.3c0.4-0.2,0.8-0.4,1.2-0.6c0-0.4,0-0.9,0-1.3c-0.4,0.2-0.8,0.4-1.2,0.6
			C2090.7,500.4,2090.7,500.8,2090.7,501.3z"/>
		<path class="st9" d="M2055.8,517.6c0-0.4,0-0.9,0-1.3c-0.4,0.2-0.8,0.3-1.2,0.5c0,0.4,0,0.9,0,1.3
			C2055,518,2055.4,517.8,2055.8,517.6z"/>
		<path class="st9" d="M2019.8,531.3c-0.4,0.2-0.8,0.3-1.2,0.5c0,0.4,0,0.9,0,1.3c0.4-0.2,0.8-0.3,1.2-0.5
			C2019.8,532.2,2019.8,531.8,2019.8,531.3z"/>
		<path class="st9" d="M2122.8,522.6c0.9-0.5,1.8-1,2.6-1.5c0-0.5,0-0.9,0.1-1.4c-0.8,0.5-1.6,0.9-2.5,1.4
			C2122.9,521.6,2122.8,522.1,2122.8,522.6z"/>
		<path class="st9" d="M2126.6,520.4c9.6-5.4,17.4-10.1,23.3-13.8c0-0.5,0.1-0.9,0.1-1.4c-5.8,3.6-13.6,8.3-23.3,13.8
			C2126.7,519.5,2126.6,520,2126.6,520.4z"/>
		<path class="st9" d="M2054.5,554.8c0,0.4,0,0.9-0.1,1.3c12.6-5.5,24.3-10.9,34.8-16.1c0-0.4,0-0.9,0.1-1.3
			C2078.8,543.9,2067.2,549.3,2054.5,554.8z"/>
		<path class="st9" d="M2018.8,569.5c0,0.4,0,0.8-0.1,1.3c12.2-4.7,23.7-9.5,34.5-14.2c0-0.4,0-0.9,0.1-1.3
			C2042.5,560.1,2031,564.8,2018.8,569.5z"/>
		<path class="st9" d="M1981.2,583.1c-10.1,3.4-20.6,6.7-31.5,10c0,0.4,0,0.8-0.1,1.3c10.8-3.2,21.3-6.6,31.5-10
			C1981.2,584,1981.2,583.5,1981.2,583.1z"/>
		<path class="st9" d="M1982.4,582.7c0,0.4,0,0.8-0.1,1.3c12.3-4.2,24-8.4,35.2-12.7c0-0.4,0-0.9,0.1-1.3
			C2006.4,574.3,1994.7,578.5,1982.4,582.7z"/>
		<path class="st9" d="M2090.6,538.1c0,0.4,0,0.9-0.1,1.3c12.2-6,23-11.7,32.2-16.8c0.1-0.5,0.2-1,0.2-1.4
			C2113.7,526.3,2102.9,532,2090.6,538.1z"/>
		<path class="st9" d="M1982.4,582.7c-0.4,0.1-0.8,0.3-1.2,0.4c0,0.4,0,0.8-0.1,1.3c0.4-0.1,0.8-0.3,1.2-0.4
			C1982.4,583.5,1982.4,583.1,1982.4,582.7z"/>
		<path class="st9" d="M2125.4,521.1c0.4-0.2,0.8-0.5,1.2-0.7c0-0.5,0-0.9,0.1-1.4c-0.4,0.2-0.8,0.5-1.2,0.7
			C2125.5,520.2,2125.4,520.6,2125.4,521.1z"/>
		<path class="st9" d="M2089.4,538.7c0,0.4,0,0.9-0.1,1.3c0.4-0.2,0.8-0.4,1.2-0.6c0-0.4,0-0.9,0.1-1.3
			C2090.2,538.3,2089.8,538.5,2089.4,538.7z"/>
		<path class="st9" d="M2053.3,556.7c0.4-0.2,0.8-0.4,1.2-0.5c0-0.4,0-0.9,0.1-1.3c-0.4,0.2-0.8,0.4-1.2,0.5
			C2053.3,555.8,2053.3,556.2,2053.3,556.7z"/>
		<path class="st9" d="M2018.8,569.5c-0.4,0.2-0.8,0.3-1.2,0.5c0,0.4,0,0.8-0.1,1.3c0.4-0.2,0.8-0.3,1.2-0.5
			C2018.8,570.4,2018.8,570,2018.8,569.5z"/>
		<path class="st9" d="M2112.7,565c-0.6,0.8-1.3,1.6-2,2.4c4.1-2.1,7.9-4.2,11.5-6.2c0-0.5,0.1-0.9,0.1-1.4
			C2119.3,561.4,2116.1,563.2,2112.7,565z"/>
		<path class="st9" d="M2123.5,560.5c9.2-5,16.8-9.5,22.9-13.2c0.1-0.5,0.1-1,0.2-1.4c-6,3.7-13.7,8.2-22.9,13.3
			C2123.6,559.5,2123.5,560,2123.5,560.5z"/>
		<path class="st9" d="M1947.4,631.4c0,0.4-0.1,0.8-0.1,1.3c10.6-3.1,20.9-6.3,30.8-9.6c0-0.4,0.1-0.9,0.1-1.3
			C1968.3,625.1,1958,628.3,1947.4,631.4z"/>
		<path class="st9" d="M1979.5,621.4c0,0.4-0.1,0.9-0.1,1.3c12.4-4.1,24.2-8.3,35.4-12.5c0-0.4,0.1-0.9,0.1-1.3
			C2003.6,613.1,1991.8,617.3,1979.5,621.4z"/>
		<path class="st9" d="M2087.5,577.7c0,0.5-0.1,0.9-0.1,1.4c8.4-4.1,16.2-8,23.3-11.7c0.7-0.8,1.4-1.5,2-2.4
			C2105.1,569,2096.7,573.3,2087.5,577.7z"/>
		<path class="st9" d="M2051.5,594.1c0,0.4-0.1,0.9-0.1,1.3c12.6-5.4,24.2-10.7,34.8-15.8c0-0.5,0.1-0.9,0.1-1.4
			C2075.7,583.4,2064.1,588.7,2051.5,594.1z"/>
		<path class="st9" d="M2016.1,608.4c0,0.4-0.1,0.9-0.1,1.3c12.1-4.6,23.5-9.2,34.2-13.7c0-0.4,0.1-0.9,0.1-1.3
			C2039.6,599.2,2028.2,603.8,2016.1,608.4z"/>
		<path class="st9" d="M1979.5,621.4c-0.4,0.1-0.8,0.3-1.2,0.4c0,0.4-0.1,0.9-0.1,1.3c0.4-0.1,0.8-0.3,1.2-0.4
			C1979.4,622.3,1979.4,621.8,1979.5,621.4z"/>
		<path class="st9" d="M2122.4,559.8c0,0.5-0.1,0.9-0.1,1.4c0.4-0.2,0.8-0.5,1.2-0.7c0-0.5,0.1-0.9,0.1-1.4
			C2123.2,559.3,2122.8,559.5,2122.4,559.8z"/>
		<path class="st9" d="M2086.2,579.7c0.4-0.2,0.8-0.4,1.2-0.6c0-0.5,0.1-0.9,0.1-1.4c-0.4,0.2-0.8,0.4-1.2,0.6
			C2086.3,578.8,2086.2,579.2,2086.2,579.7z"/>
		<path class="st9" d="M2050.3,594.6c0,0.4-0.1,0.9-0.1,1.3c0.4-0.2,0.8-0.4,1.2-0.5c0-0.4,0.1-0.9,0.1-1.3
			C2051.1,594.3,2050.7,594.5,2050.3,594.6z"/>
		<path class="st9" d="M2014.9,608.9c0,0.4-0.1,0.9-0.1,1.3c0.4-0.2,0.8-0.3,1.2-0.5c0-0.4,0.1-0.9,0.1-1.3
			C2015.7,608.6,2015.3,608.7,2014.9,608.9z"/>
	</g>
	<g>
		<path class="st39" d="M1843.9,838.3c-0.7-11,7.3-20.6,18.3-21.9c45.7-5.3,96.6-13,144.4-26.3c2.3-0.6,4.7-0.8,7.1-0.4
			c-8.7-8.3-20.1-14.6-27.5-12.5c-46.6,13.1-94.9,23.4-139.5,28.6c-10.7,1.3-18.5,10.6-17.8,21.4l11.4,139.6
			c0.3,9.4,6.9,18.7,14.7,25.8c0-0.3-0.1-0.5-0.1-0.8L1843.9,838.3z"/>
		<path class="st12" d="M1861.2,989.8l-9.4-149.3c-0.5-8.2,5.5-15.3,13.7-16.2c45.2-5,94.1-15.3,141.6-28.5c2.2-0.6,4.6-0.7,6.9-0.3
			c3.1,0.6,5.8,2,7.9,4c-2.1-3.3-5-6.7-8.2-9.8c-2.4-0.4-4.8-0.3-7.1,0.4c-47.8,13.3-98.7,21-144.4,26.3
			c-10.9,1.3-19,10.9-18.3,21.9l11.1,153.4c0,0.3,0.1,0.5,0.1,0.8c3.9,3.5,8.1,6.4,12.1,8.5C1863.7,998.4,1861.5,994.4,1861.2,989.8
			z"/>
		<path class="st12" d="M1877.5,1004.2c-0.7,0-1.5,0-2.2,0c1.2,0.2,2.2,0.3,3.2,0.3c3.4-0.2,6.6-0.7,9.6-1.5
			c-3.3,0.4-6.6,0.8-9.8,1.2C1877.9,1004.2,1877.7,1004.2,1877.5,1004.2z"/>
		<path class="st40" d="M2026.2,814.3c0-0.3,0.1-0.7,0.2-1c1-5.3-0.9-10.4-4.5-13.9c2.4,3.8,4,7.6,4.1,10.9c0,0.7,0,1.4-0.1,2.2
			c-0.4,2.1-13.5-8.2-14.4-6.3c-29.7,65.6-37.6,122-61.9,167c-26.9,5.9-39.2,24.3-61.5,29.9c25.1-3.1,50.1-7.4,74.9-12.8
			c4.5-1,8.3-3.9,10.4-8C1996,938.2,2013.7,881.8,2026.2,814.3z"/>
		<path class="st40" d="M1875.3,1004.2c-2.4-0.5-5.2-1.6-8.2-3.2C1869.4,1002.8,1872.2,1004,1875.3,1004.2z"/>
		<path class="st40" d="M2011.4,806.2c0.9-1.9,14,8.4,14.4,6.3c0.1-0.7,0.2-1.4,0.1-2.2c-0.1-3.3-1.6-7-4.1-10.9
			c-2.1-2-4.8-3.4-7.9-4c-2.3-0.4-4.6-0.3-6.9,0.3c-47.5,13.2-96.4,23.5-141.6,28.5c-8.2,0.9-14.2,8.1-13.7,16.2l9.4,149.3
			c0.3,4.6,2.6,8.6,5.9,11.2c3,1.6,5.8,2.7,8.2,3.2c0.7,0.1,1.4,0.1,2.2,0c0.2,0,0.5,0,0.7-0.1c3.3-0.4,6.6-0.8,9.8-1.2
			c22.3-5.5,34.6-23.9,61.5-29.9C1973.8,928.2,1981.7,871.7,2011.4,806.2z"/>
	</g>
	<g>
		<path class="st41" d="M614.9,377.3c-11.2-53.5-10.6-120.3-11.4-153c-0.1-6.3-3.4-12.2-8.7-15.7c-19-12.4-63.1-42.1-82.2-59.1
			c-6.4-4.3-14-2.3-20.1,0.9c0.5,0.3,0.9,0.5,1.3,0.9c25.8,20.3,69.1,50,86.8,61.9c4.8,3.2,7.6,8.5,7.6,14.3
			c-0.1,15.3,0.1,32.4,0.1,33.5l0,0.4c1.2,30.7,3.2,78.5,13,133.7C608.1,391.3,614.9,385.4,614.9,377.3z"/>
		<path class="st12" d="M588.3,260.9c0-1.1-0.2-18.2-0.1-33.5c0-5.7-2.8-11.1-7.6-14.3c-17.7-11.9-61-41.6-86.8-61.9
			c-0.4-0.3-0.9-0.6-1.3-0.9c-6.2,3.3-10.9,7.8-10.9,7.8c0,0.1,0,0.2,0,0.3c3-3.8,8.6-4.5,12.4-1.5c24.4,19.2,65.2,47.2,81.9,58.4
			c4.5,3,7.2,8,7.1,13.4c-0.1,14.5,0.1,30.6,0.1,31.6l0,0.4c1.2,29.6,3.1,76,12.9,129.6c0.4,2,0,4.1-0.9,5.9c-0.6,1-1.3,1.9-2.1,2.6
			c2.4-0.9,5.4-2.2,8.3-3.8c-9.8-55.3-11.7-103.1-13-133.7L588.3,260.9z"/>
		<path class="st40" d="M505.3,338.1c-7-35.4-23.7-142.4-23.7-179.5c0,0,0,0,0,0c-1,1.2-1.6,2.7-1.8,4.3c-3.3,24.1-5,48.5-5,72.8
			c-0.2,35.1,3,70.1,9.6,104.5c0.5,2.5,2,4.7,4.2,6c13.8,8.2,62.8,36.4,94.6,53.6c3.3,1.8,7.1,1.3,9.8-0.9c-3.3,1.2-5.6,1.8-5.6,1.8
			S510.9,341.6,505.3,338.1z"/>
		<path class="st40" d="M596,390.5c-9.8-53.6-11.6-100-12.9-129.6l0-0.4c0-1-0.2-17.2-0.1-31.6c0-5.4-2.7-10.4-7.1-13.4
			c-16.7-11.2-57.5-39.2-81.9-58.4c-3.8-3-9.4-2.4-12.4,1.5c0,37.1,16.7,144.1,23.7,179.5c5.6,3.6,82.1,62.6,82.1,62.6
			s2.3-0.6,5.6-1.8c0.8-0.7,1.6-1.5,2.1-2.6C596,394.5,596.4,392.5,596,390.5z"/>
	</g>
</g>
</svg>
