<svg xmlns="http://www.w3.org/2000/svg" viewBox="0 0 2210 1392.4"><style>.st1{fill:#69abf2}.st2{fill:#4e97ee}.st4{fill:#87bbf4}.st5{fill:#e2effc}.st7{fill:#67a6f0}.st8{fill:none}.st9{fill:#a0caf7}.st10{fill:#a7ccf6}.st11{fill:#14d997}.st12{fill:#ffd85f}.st16{fill:#72e8c1}.st19{fill:#f9fcfe}.st20{fill:#f4f9fe}.st23{fill:#cef7e9}.st24{fill:#b8d5f8}.st25{fill:#d2ba89}.st27{fill:#c1a682}.st29{fill:#02548c}.st32{fill:#0fa371}.st37{fill:#d0f7ea}.st40{fill:#ffdf7a}</style><g id="Blob"><linearGradient id="SVGID_1_" gradientUnits="userSpaceOnUse" x1="893.258" y1="1178.258" x2="1557.37" y2="514.147" gradientTransform="rotate(-30.014 987.696 1047.042)"><stop offset=".245" stop-color="#cfedf9"/><stop offset=".689" stop-color="#e7f6fc"/><stop offset="1" stop-color="#f3fafd"/></linearGradient><path d="M1360.3 553c-191.9-97.3-354-289.9-557.2-360.5-198.2-68.8-419.8-50.7-567.4 98.3-176.2 177.9 18.4 511.9 64 548.9 198.9 161 476.7 180.4 544 226.8 31.3 21.6 139.1 112.2 168.7 130.3 75.9 46.4 166.8 80.3 253.2 58.8 92.7-23.1 157.8-103 230.1-165.5 59.9-51.8 313.8-156.4 355.1-166.2 57.8-13.7 203-46.7 231.3-106.1 74.5-156.2 30.5-241.2-100.1-231.8-46.5 3.4-495.6 30.9-621.7-33z" fill="url(#SVGID_1_)"/><g id="Floating_Apps-2"><path class="st1" d="M235.7 532.4c-.2-2.9-3.2 7-4.6-14.5-1.8-9.6 2-19.4 9.8-25.2 10.3-8.1 31.5-18.6 43.9-14.2 70.2 25.2 132.6 52.7 231.5 79.8 15.5 4.3 35.2 6.9 52.6 11.6 12.9 3.4 24.5 16.6 27.6 36.9 12.5 80.9 23.2 133.9 33.7 205.7 6.4 43.5-41.4 65.1-51.2 63.1L555.4 864s-41.8-24.6-86.8-40c-47.1-16-107.8-36.7-174-62.5-30-93.7-51.4-161.2-58.9-229.1z"/><path class="st2" d="M613.7 825.8c-12-66.4-27-136.3-37.6-211-2.1-14.8-12.8-26.9-27.2-30.8-16.5-4.4-32.2-8.8-46.7-13.8-83.6-28.5-157.1-56.3-223.3-84.1-25.7-10.8-63.2 15.2-61.1 43 .1 1 9.6-3.9 9.6-3.5 7 63.7 18.9 144.4 44.9 231.4 3.3 11.1 11.6 20 22.4 24.2 59.6 22.7 114.1 41.3 157.1 55.9 34.3 11.7 68.8 29.8 112.2 40.1 26.8 6.3 55-21.7 49.7-51.4z"/><linearGradient id="SVGID_2_" gradientUnits="userSpaceOnUse" x1="235.371" y1="686.995" x2="481.351" y2="539.406" gradientTransform="translate(0 104)"><stop offset="0" stop-color="#7cb2f2"/><stop offset=".022" stop-color="#7fb4f2"/><stop offset=".252" stop-color="#99c3f5"/><stop offset=".489" stop-color="#accef7"/><stop offset=".733" stop-color="#b7d4f8"/><stop offset="1" stop-color="#bad6f8"/></linearGradient><path d="M604.3 833.2c-12-66.4-27-136.3-37.6-211-2.1-14.8-12.8-26.9-27.2-30.8-16.5-4.4-32.2-8.8-46.7-13.8-83.6-28.5-157.1-56.3-223.3-84.1-25.7-10.8-53.7 9.5-51.6 37.3.1 1 .2 1.8.2 2.1 7 63.7 18.9 144.4 44.9 231.4 3.3 11.1 11.6 20 22.4 24.2 59.6 22.7 114.1 41.3 157.1 55.9 34.3 11.7 74.4 23 117.9 33.3 26.7 6.4 49.3-14.8 43.9-44.5z" fill="url(#SVGID_2_)"/><path class="st2" d="M385.2 681.7c-37.3-15-74.2-30.8-110.6-47.9-4.7-31.9-7.6-63.5-9.6-95.7 33.9 16.6 68.4 31.4 103.6 45 4.2 33.2 9.9 65.9 16.6 98.6z"/><path class="st4" d="M388.9 698.8c-37.6-15.1-74.8-30.9-111.6-47.9-.3-1.6-.4-2.5-.7-4.1 36.7 17 73.8 32.8 111.3 47.9.4 1.6.6 2.5 1 4.1zM391.8 711.6c-37.7-15.1-75.2-30.8-112.1-47.6-.3-1.7-.5-2.5-.8-4.2 36.9 16.9 74.3 32.6 112 47.7.3 1.6.5 2.4.9 4.1zM394.8 724.5c-37.8-15-75.5-30.5-112.6-47.2-.3-1.7-.5-2.6-.9-4.3 37.1 16.7 74.7 32.3 112.5 47.3.4 1.7.7 2.5 1 4.2zM403.9 759c-38.1-14.4-76-29.2-113.5-45.1-.4-1.8-.7-2.7-1.1-4.5 37.5 16 75.4 31 113.5 45.5l1.1 4.1zM407.2 770.8c-38.1-14.1-76.1-28.6-113.7-44.2-.5-1.8-.7-2.7-1.2-4.5 37.6 15.7 75.5 30.3 113.6 44.5.6 1.7.9 2.5 1.3 4.2zM333.1 711.9c.8 3.1-1.3 4.5-4.8 3.1-3.4-1.4-6.9-5.2-7.7-8.3-.8-3.1 1.4-4.4 4.8-3s6.9 5.1 7.7 8.2zM366.9 725.6c.9 3.1-1.1 4.5-4.4 3.2s-6.7-4.9-7.5-8c-.8-3.1 1.2-4.4 4.5-3.1 3.3 1.4 6.6 4.9 7.4 7.9zM388.3 788.8c-17.8-6.3-35.5-12.7-53.2-19.3-2.3-7-3.4-10.5-5.5-17.4 17.7 6.8 35.4 13.5 53.2 20.1 2.2 6.6 3.3 9.9 5.5 16.6z"/><path class="st5" d="M530.8 730.3c-41.1-10.9-81.3-24.1-121.1-39-6.1-32.7-11.3-65.4-15.2-98.4 39.7 14.3 79.7 27.7 120.6 38.2 4.6 33.2 9.8 66.3 15.7 99.2z"/><path class="st4" d="M538.4 768.8c-40.7-10.4-80.9-23-120.4-37.5-.4-1.6-.5-2.4-.9-4 39.5 14.6 79.7 27.2 120.5 37.7.3 1.6.5 2.3.8 3.8zM540.9 780.7c-40.6-10.1-80.6-22.4-120-36.7l-.9-4c39.4 14.4 79.5 26.7 120.1 37 .3 1.5.5 2.2.8 3.7zM543.5 792.5c-40.4-9.8-80.3-21.7-119.5-35.6-.4-1.6-.6-2.4-1-4.1 39.2 14.1 79.2 26.1 119.6 36 .4 1.5.5 2.2.9 3.7zM552.5 830.5c-39.5-8.4-78.5-18.5-116.9-31-.5-1.6-.7-2.5-1.2-4.1 38.5 12.5 77.6 23 117.2 31.5.3 1.5.5 2.2.9 3.6zM555 840.6c-39.2-8-77.9-17.5-116-29.5-.5-1.6-.8-2.5-1.3-4.1 38.2 12.2 77.1 21.9 116.4 30 .4 1.5.6 2.2.9 3.6zM444 721.5c.5 2.9-1.9 4.2-5.3 2.9s-6.7-4.5-7.3-7.4c-.6-2.9 1.8-4.2 5.3-2.9 3.4 1.2 6.7 4.5 7.3 7.4zM479.5 733.3c.5 2.8-2.1 4.1-5.8 2.9-3.7-1.2-7.1-4.5-7.6-7.3s2.1-4.1 5.8-2.9c3.7 1.2 7.1 4.5 7.6 7.3zM514.4 743.6c.5 2.8-2 4.2-5.7 3.2s-7-4.1-7.5-6.9c-.5-2.8 2-4.2 5.6-3.2 3.6 1 7 4.1 7.6 6.9zM516 811.7c-18.5-4.7-36.8-9.8-55.1-15.3-1.5-6-2.3-9-3.8-15.1 18.4 5.7 36.9 11.1 55.5 16.1 1.3 5.7 2 8.6 3.4 14.3z"/><path class="st5" d="M308.1 575.8c5 2.1 7.5 3.2 12.6 5.2 11.5 26.2 27.5 50 42 74.6-7.2-2.9-10.8-4.4-18.1-7.5-3.6-6.4-5.4-9.5-8.8-15.7-9.3-3.9-18.7-7.9-27.9-12-1.5 4-2.2 6.1-3.7 10.2-7-3.2-10.6-4.8-17.6-8 7.2-15.9 16.4-29.9 21.5-46.8zm8.6 24.1c-2.3 5.8-3.7 5.9-5.9 11.7 6.9 3 10.4 4.5 17.4 7.5-4.9-9-7-10.6-11.5-19.2z"/><path class="st2" d="M424.3 619.3c10.3 3.4 20.6 6.7 31 9.9 3.7 1.1 8.1 2.7 11.2 4.1 3.1 1.3 6.1 3 8.8 5.1 2.7 2 5 4.4 6.9 7.1 2 2.8 3.2 6.1 3.6 9.5.5 3.7-.3 6.4-2.4 8-2.1 1.6-5 2.2-8.7 2v.2c2.4 1 4.8 2.3 7 3.8 2.1 1.4 4 3.1 5.8 4.9 1.6 1.7 3 3.7 4.2 5.8 1 1.9 1.8 4 2.1 6.1.5 3.4.1 5.9-1.4 7.7-1.5 1.8-3.6 3-6 3.4-2.9.5-5.9.6-8.8.1-3.7-.6-7.2-1.4-10.8-2.6-11.2-3.7-22.4-7.4-33.5-11.4-3.3-21.3-6.4-42.4-9-63.7zm21.4 32.5c5.3 1.7 8 2.5 13.4 4.2 1.4.4 2.8.8 4.2 1 1.2.2 2.4.2 3.7.1.9-.1 1.8-.5 2.4-1.3.5-.9.7-1.9.5-2.9-.2-1.3-.6-2.5-1.4-3.6-.9-1.2-1.9-2.2-3.2-3-1.3-.9-2.8-1.7-4.2-2.3-1.5-.6-3-1.2-4.5-1.7-5.1-1.5-7.6-2.3-12.6-3.8.7 5.7 1 8.5 1.7 13.3zm3.7 25.4c6.5 2.2 9.8 3.3 16.5 5.4 1.4.5 2.8.8 4.3 1 1.2.3 2.5.3 3.7 0 .9-.2 1.7-.8 2.2-1.5.6-.9.8-2.1.6-3.2-.2-1.5-.8-2.9-1.8-4-1-1.2-2.2-2.3-3.6-3.1-1.6-1-3.3-1.9-5.1-2.6-1.8-.7-3.4-1.4-5-1.8-5.6-1.8-8.4-2.7-13.9-4.5.8 5.7 1.2 8.6 2.1 14.3z"/><path d="M221.8 868.9c20.3 5.4 37.7 26.9 66.7 28 2.8.1 5.4-1.1 7.1-3.3 5.1-6.3 20.3-26.5 15.7-42.3-11.7-40.9-17.4-67.2-23.5-96.9-1.8-9.1-9.1-16.1-18.2-17.6-11.6-1.9-22.1-4.1-31.4-6.4-18.9-4.7-54.2-14.7-102.8-31.4-11.7-4-29.8 10-36.5 16.1-1.8 1.7-2.9 4.1-2.8 6.6 0 1.2 6.7-3.4 6.7-2.7 0 .5.1 1 .1 1.5 5.2 28 21.9 66.3 40.9 116.5 2.4 6.4 7.7 11.4 14.2 13.4 28 8.8 50.6 15 63.8 18.5z" fill="#78b0f2"/><path class="st7" d="M294.7 894.6c5.1-6.6 11.1-12.8 6.6-29.4-11.7-42.8-17.4-70.3-23.5-101.4-1.8-9.5-9.1-16.8-18.2-18.4-11.6-2-22.1-4.3-31.4-6.6-18.9-4.9-54.2-15.4-102.8-32.9-10.9-3.8-16.8 2.9-25.3 8.3-1.8 1.8 14.8 83.5 33.8 136.1 2.5 6.6 159.1 46.5 160.8 44.3z"/><path class="st2" d="M203.6 885.6c21.3 5.6 48.8 10.5 79.6 14 7.4.8 14.1-4.5 14.9-11.9.2-1.8 0-3.7-.5-5.4-13.1-43.5-22.6-84.9-29.1-117.2-1.1-5.5-5.6-9.8-11.2-10.7-13.8-2.2-26.4-4.6-37.1-7.3-36.7-9.2-72.8-20.4-108.3-33.6-7-2.6-14.8 1-17.4 8-.8 2.1-1 4.4-.7 6.6 5.2 28.8 13.8 76.9 33.6 129.6 1.5 3.8 4.6 6.8 8.5 8.1 29.8 9.4 53.9 16.1 67.7 19.8z"/><path class="st8" d="M112.7 713.8c-.3-.1-.5-.2-.8-.3-7-2.6-14.8 1-17.4 8-.8 2.1-1 4.4-.7 6.6.8 4.3 1.6 9 2.6 14.1 5.2 2 12.4 4.6 21.3 7.5-2.5-15-4.1-27.2-5-35.9zM164.9 822c2.6 9.7 5.6 19.8 8.9 30.3 9.4 2.3 19.6 4.6 30.7 6.8-3.3-10.4-6.2-20.4-8.8-30-11.2-2.3-21.4-4.7-30.8-7.1zM150 759.2c-2.4-13.9-3.9-25.4-4.8-34-10.5-3.5-21-7.2-31.4-11.1.9 8.8 2.5 21 5 35.9 8.7 2.9 19.2 6 31.2 9.2zM187.8 797.3c-2.4-10.7-4.3-20.5-5.8-29.4-11.2-2.4-21.5-4.9-30.9-7.4 1.6 8.9 3.5 18.8 5.9 29.5 9.4 2.4 19.7 4.9 30.8 7.3zM219.3 803.3c-2.3-10.7-4.1-20.5-5.6-29.3-10.8-1.8-21.1-3.8-30.7-5.9 1.6 8.9 3.5 18.8 5.8 29.4 9.6 2 19.8 4 30.5 5.8zM117.9 750.7c-8.9-2.9-16-5.4-21.3-7.4 1.7 8.9 3.6 18.9 6 29.7 5.2 1.9 12.2 4.5 21.1 7.3-2.3-10.7-4.3-20.6-5.8-29.6zM259.1 838.4c8.7 1 17.7 1.9 27 2.7-2.6-10.1-5.1-19.9-7.3-29.4-9.3-.8-18.3-1.8-27-2.8 2.1 9.3 4.5 19.1 7.3 29.5zM213.6 773c-1.9-11.4-3.2-21-4-28.6-10.5-2.7-20.9-5.6-31.3-8.7 1 8.3 2.4 18.9 4.6 31.4 9.6 2 19.8 4 30.7 5.9zM181.8 766.9c-2.2-12.6-3.6-23.2-4.6-31.5-10.5-3.1-20.8-6.4-31.2-9.8.9 8.7 2.5 20.1 4.9 33.9 9.4 2.4 19.8 4.9 30.9 7.4zM132.7 812.9c2.6 9.7 5.6 19.9 9 30.5 8.9 2.7 19.3 5.6 31.1 8.6-3.3-10.5-6.3-20.6-8.9-30.3-11.9-3-22.4-6-31.2-8.8zM244.6 777.6c-1.7-9.9-3-18.7-3.9-26.1-7.3-1.4-14.2-2.9-20.5-4.4-3.2-.8-6.5-1.7-9.7-2.5.9 7.6 2.1 17.2 4 28.5 9.6 1.7 19.6 3.2 30.1 4.5zM271.7 780.6c-1.1-5.3-2.2-10.5-3.2-15.4-1.1-5.5-5.6-9.8-11.2-10.7-5.5-.9-10.7-1.8-15.7-2.7.9 7.4 2.2 16.1 4 26 8.4 1 17.1 1.9 26.1 2.8zM150.1 760.2c-12-3.2-22.4-6.3-31.2-9.1 1.6 8.9 3.5 18.9 5.9 29.6 8.8 2.8 19.2 5.9 31.2 9.1-2.4-10.8-4.3-20.7-5.9-29.6zM124 781.4c-8.8-2.8-15.9-5.3-21.1-7.3 2.1 9.5 4.6 19.6 7.5 30.3 5.3 1.9 12.3 4.4 21 7.1-2.9-10.6-5.3-20.7-7.4-30.1zM156.2 790.8c-12-3.1-22.4-6.2-31.2-9 2.1 9.4 4.5 19.5 7.4 30.1 8.8 2.8 19.3 5.8 31.2 8.9-2.9-10.7-5.3-20.7-7.4-30zM157.2 791c2.1 9.4 4.5 19.4 7.4 29.9 9.4 2.4 19.7 4.8 30.8 7.1-2.8-10.5-5.2-20.4-7.3-29.8-11.2-2.3-21.5-4.7-30.9-7.2zM189.1 798.5c2.1 9.3 4.5 19.3 7.3 29.8 9.5 2 19.6 3.8 30.2 5.6-2.7-10.5-5.1-20.3-7.1-29.6-10.7-1.8-20.9-3.8-30.4-5.8zM236.7 865.7c2.9 9.3 6 18.8 9.5 28.7 9.8 1.6 20.1 3.1 30.9 4.4-3.6-10-6.9-19.7-9.8-29.1-10.6-1.1-20.9-2.4-30.6-4zM205.8 860.3c2.9 9.1 6.1 18.5 9.5 28.1 9.1 2.1 19.1 4 29.9 5.8-3.5-9.8-6.6-19.4-9.5-28.7-10.6-1.5-20.5-3.3-29.9-5.2zM251.6 808c8.7 1.1 17.7 2 26.9 2.8-2.4-10.2-4.6-20-6.6-29.3-9-.8-17.7-1.8-26.2-2.8 1.6 8.9 3.5 18.7 5.9 29.3zM294.7 872.4c-9.1-.7-17.9-1.5-26.4-2.5 3 9.4 6.3 19.1 9.9 29.1 1.7.2 3.3.4 5 .6 7.4.8 14.1-4.5 14.9-11.9.2-1.8 0-3.7-.5-5.4-1-3.3-1.9-6.6-2.9-9.9zM227.9 835c2.5 9.5 5.3 19.4 8.5 29.8 9.8 1.5 20 2.9 30.6 4.1-3.2-10.3-6.1-20.1-8.6-29.6-10.7-1.3-20.8-2.7-30.5-4.3zM196.7 829.3c2.6 9.6 5.5 19.6 8.8 30 9.4 1.9 19.4 3.7 29.9 5.3-3.2-10.3-6-20.3-8.5-29.8-10.7-1.7-20.8-3.6-30.2-5.5zM227.6 834c9.7 1.6 19.9 3 30.5 4.3-2.8-10.4-5.2-20.2-7.3-29.5-10.5-1.3-20.6-2.8-30.3-4.4 2 9.3 4.4 19.1 7.1 29.6zM120.3 837.4c2.2 6.6 4.6 13.4 7.2 20.2 1.5 3.8 4.6 6.8 8.5 8.1 4.7 1.5 9.2 2.9 13.6 4.3-3.2-8.8-6.1-17.5-8.7-25.8-8.2-2.5-15.1-4.8-20.6-6.8zM131.6 812.6c-8.6-2.7-15.6-5.1-21-7.1 2.7 9.9 5.8 20.2 9.3 30.9 5.5 1.9 12.4 4.3 20.6 6.8-3.3-10.7-6.2-20.9-8.9-30.6zM250.6 807.8c-2.4-10.6-4.3-20.4-5.8-29.3-10.5-1.3-20.5-2.8-30.1-4.4 1.5 8.8 3.3 18.6 5.6 29.3 9.7 1.6 19.8 3.1 30.3 4.4zM174.1 853.3c2.7 8.6 5.7 17.5 9 26.7 8.2 2.3 15.1 4.2 20.5 5.6 3.4.9 6.9 1.8 10.6 2.6-3.5-9.6-6.6-19-9.5-28.1-11-2.2-21.2-4.5-30.6-6.8zM142 844.5c2.7 8.4 5.6 17 8.7 25.9 11.7 3.6 22.2 6.7 31.3 9.3-3.3-9.1-6.3-18-9-26.6-11.7-3-22.1-5.9-31-8.6zM268 869c8.5 1 17.4 1.8 26.4 2.5-2.9-10-5.6-19.8-8.1-29.4-9.3-.8-18.3-1.7-27-2.7 2.6 9.4 5.5 19.3 8.7 29.6z"/><path class="st9" d="M245.6 777.7c-1.7-9.9-3-18.6-4-26-.3-.1-.6-.1-1-.2.9 7.4 2.2 16.1 3.9 26.1.4 0 .7.1 1.1.1zM250.6 807.8c.3 0 .7.1 1 .1-2.4-10.6-4.3-20.4-5.8-29.3-.3 0-.6-.1-1-.1 1.5 8.9 3.4 18.7 5.8 29.3zM267.3 869.8c3 9.4 6.2 19.1 9.8 29.1.3 0 .7.1 1 .1-3.6-10-6.9-19.7-9.9-29.1-.2 0-.6 0-.9-.1zM267 868.8c.3 0 .7.1 1 .1-3.2-10.2-6.1-20.1-8.7-29.6-.3 0-.7-.1-1-.1 2.6 9.5 5.5 19.4 8.7 29.6zM258.1 838.3c.3 0 .7.1 1 .1-2.8-10.4-5.2-20.2-7.3-29.5-.3 0-.7-.1-1-.1 2.1 9.3 4.5 19.1 7.3 29.5zM118.9 751.1c-.3-.1-.7-.2-1-.3 1.5 8.9 3.5 18.8 5.8 29.6.3.1.7.2 1 .3-2.3-10.8-4.2-20.7-5.8-29.6zM125 781.7c-.3-.1-.7-.2-1-.3 2.1 9.4 4.5 19.5 7.4 30.1.3.1.7.2 1.1.3-3-10.6-5.4-20.7-7.5-30.1zM140.9 844.2c2.7 8.4 5.6 17 8.7 25.8.4.1.7.2 1.1.3-3.2-8.8-6.1-17.5-8.7-25.9-.4 0-.7-.1-1.1-.2zM118.7 750c-2.6-14.9-4.1-27.1-5-35.9-.3-.1-.6-.2-1-.4.9 8.8 2.4 20.9 5 35.9.4.2.7.3 1 .4zM132.7 812.9c-.3-.1-.7-.2-1.1-.3 2.6 9.7 5.6 19.9 8.9 30.5.4.1.7.2 1.1.3-3.3-10.6-6.3-20.8-8.9-30.5zM157.2 791c-.3-.1-.7-.2-1-.3 2.1 9.4 4.5 19.4 7.3 29.9.3.1.7.2 1 .3-2.7-10.5-5.2-20.5-7.3-29.9zM157 790c-2.4-10.7-4.3-20.6-5.9-29.5-.3-.1-.7-.2-1-.3 1.6 8.9 3.5 18.8 5.8 29.5.4.1.8.2 1.1.3zM163.8 821.7c2.6 9.7 5.5 19.8 8.9 30.3.3.1.7.2 1.1.3-3.3-10.5-6.3-20.6-8.9-30.3-.4-.1-.7-.2-1.1-.3zM150.9 759.4c-2.4-13.8-3.9-25.3-4.9-33.9-.3-.1-.6-.2-1-.3.9 8.6 2.4 20.1 4.8 34 .5.1.8.2 1.1.2zM173 853c2.7 8.6 5.7 17.5 9 26.6.4.1.7.2 1.1.3-3.3-9.1-6.3-18-9-26.7-.4 0-.7-.1-1.1-.2zM182.8 767.1c-2.2-12.5-3.6-23.1-4.6-31.4-.3-.1-.6-.2-1-.3 1 8.3 2.4 18.9 4.6 31.5.4 0 .7.1 1 .2zM188.8 797.5c-2.4-10.7-4.3-20.5-5.8-29.4-.3-.1-.7-.1-1-.2 1.6 8.9 3.5 18.8 5.8 29.4.4.1.7.1 1 .2zM188.1 798.3c2.1 9.3 4.5 19.3 7.3 29.8.3.1.7.1 1 .2-2.8-10.5-5.2-20.4-7.3-29.8-.4-.1-.7-.1-1-.2zM195.6 829.1c2.6 9.6 5.5 19.6 8.8 30 .3.1.7.1 1 .2-3.3-10.4-6.2-20.4-8.8-30-.3-.1-.6-.2-1-.2zM204.7 860.1c2.9 9.1 6 18.5 9.5 28.1.4.1.7.2 1.1.3-3.5-9.6-6.6-19-9.5-28.1-.4-.2-.7-.2-1.1-.3zM214.5 773.1c-1.9-11.3-3.2-20.9-4-28.5-.3-.1-.6-.2-1-.2.8 7.6 2.1 17.2 4 28.6.4 0 .7.1 1 .1zM235.7 865.6c2.9 9.3 6 18.8 9.5 28.7.3.1.7.1 1 .2-3.5-9.9-6.7-19.4-9.5-28.7-.4-.1-.7-.2-1-.2zM220.3 803.4c-2.3-10.7-4.1-20.5-5.6-29.3-.3-.1-.6-.1-1-.2 1.5 8.8 3.3 18.6 5.6 29.3.4.1.7.2 1 .2zM226.6 833.8c.3.1.7.1 1 .2-2.7-10.5-5.1-20.3-7.1-29.6-.3-.1-.7-.1-1-.2 2 9.3 4.4 19.2 7.1 29.6zM226.9 834.8c2.5 9.5 5.3 19.4 8.5 29.8.3.1.7.1 1 .2-3.2-10.3-6-20.3-8.5-29.8-.4-.1-.7-.1-1-.2z"/><path class="st9" d="M244.8 778.6c-.1-.3-.1-.6-.2-1-10.5-1.3-20.5-2.8-30.1-4.5.1.3.1.6.2 1 9.6 1.6 19.6 3.1 30.1 4.5zM245.7 778.7c8.5 1.1 17.2 2 26.2 2.8-.1-.3-.1-.6-.2-1-9-.8-17.7-1.8-26.2-2.8.1.3.2.7.2 1zM213.7 774c-.1-.3-.1-.7-.2-1-10.9-1.8-21.1-3.8-30.8-5.9.1.3.1.7.2 1 9.7 2 20 4 30.8 5.9zM150.1 760.2c-.1-.3-.1-.7-.2-1-12-3.2-22.5-6.3-31.2-9.2.1.3.1.7.2 1 8.8 2.9 19.3 6 31.2 9.2zM182 767.9c-.1-.3-.1-.7-.2-1-11.2-2.4-21.5-4.9-30.9-7.4.1.3.1.7.2 1 9.4 2.4 19.7 4.9 30.9 7.4zM117.7 749.7c-8.9-2.9-16.1-5.5-21.3-7.5.1.4.1.7.2 1.1 5.3 2 12.4 4.6 21.3 7.4-.1-.3-.1-.7-.2-1z"/><path class="st9" d="M245.7 778.7c-.1-.3-.1-.6-.2-1-.3 0-.6-.1-1-.1.1.3.1.6.2 1 .4 0 .7 0 1 .1zM118.7 750c-.3-.1-.7-.2-1-.3.1.3.1.7.2 1 .3.1.7.2 1 .3-.1-.3-.1-.6-.2-1zM151.1 760.5c-.1-.3-.1-.7-.2-1-.3-.1-.7-.2-1-.3.1.3.1.7.2 1 .4.1.7.2 1 .3zM183 768.1c-.1-.3-.1-.7-.2-1-.3-.1-.6-.1-1-.2.1.3.1.7.2 1 .3 0 .7.1 1 .2zM214.7 774.1c-.1-.3-.1-.7-.2-1-.3-.1-.6-.1-1-.2.1.3.1.6.2 1 .4.1.7.2 1 .2zM251.8 808.9c8.7 1.1 17.7 2 27 2.8-.1-.3-.2-.6-.2-1-9.3-.8-18.2-1.8-26.9-2.8 0 .4 0 .7.1 1zM156 789.7c-12-3.2-22.4-6.3-31.2-9.1.1.4.2.7.2 1.1 8.8 2.8 19.3 5.9 31.2 9-.1-.3-.1-.6-.2-1zM188.1 798.3c-.1-.3-.1-.7-.2-1-11.2-2.4-21.5-4.8-30.9-7.3.1.3.2.7.2 1 9.4 2.5 19.7 4.9 30.9 7.3zM219.6 804.3c-.1-.3-.1-.7-.2-1-10.8-1.8-20.9-3.8-30.5-5.8.1.3.1.7.2 1 9.5 2 19.7 4 30.5 5.8zM220.5 804.4c9.6 1.6 19.8 3.1 30.3 4.4-.1-.3-.1-.6-.2-1-10.5-1.3-20.6-2.8-30.3-4.4.1.4.2.7.2 1zM123.7 780.3c-8.8-2.8-15.9-5.4-21.1-7.3.1.4.2.7.2 1.1 5.2 2 12.3 4.5 21.1 7.3 0-.4-.1-.7-.2-1.1z"/><path class="st9" d="M250.8 808.8c.3 0 .7.1 1 .1-.1-.3-.1-.6-.2-1-.3 0-.7-.1-1-.1.1.4.1.7.2 1zM124.8 780.7c-.3-.1-.7-.2-1-.3.1.4.2.7.2 1.1.3.1.7.2 1 .3-.1-.4-.2-.8-.2-1.1zM157 790c-.3-.1-.7-.2-1-.3.1.3.2.7.2 1 .3.1.7.2 1 .3-.1-.3-.1-.7-.2-1zM189.1 798.5c-.1-.3-.1-.7-.2-1-.3-.1-.7-.1-1-.2.1.3.1.7.2 1 .3.1.6.1 1 .2zM220.5 804.4c-.1-.3-.1-.7-.2-1-.3-.1-.7-.1-1-.2.1.3.1.7.2 1 .4.1.7.2 1 .2zM131.3 811.5c-8.7-2.7-15.7-5.2-21-7.1.1.4.2.7.3 1.1 5.3 2 12.4 4.4 21 7.1-.1-.4-.2-.8-.3-1.1zM196.4 828.3c.1.3.2.7.3 1 9.5 2 19.6 3.8 30.2 5.6-.1-.3-.2-.7-.3-1-10.6-1.8-20.7-3.7-30.2-5.6zM259.3 839.4c8.7 1 17.7 1.9 27 2.7-.1-.3-.2-.6-.3-1-9.3-.8-18.3-1.7-27-2.7.2.3.2.7.3 1zM163.6 820.7c-11.9-3.1-22.3-6.1-31.2-8.9.1.4.2.7.3 1.1 8.8 2.8 19.3 5.8 31.2 8.8-.2-.3-.2-.7-.3-1zM164.6 820.9c.1.3.2.7.3 1 9.4 2.4 19.7 4.8 30.8 7.1-.1-.3-.2-.7-.3-1-11.1-2.3-21.4-4.7-30.8-7.1zM227.9 835c9.7 1.6 19.9 3 30.5 4.3-.1-.3-.2-.6-.3-1-10.6-1.3-20.8-2.7-30.5-4.3.1.3.2.7.3 1z"/><path class="st9" d="M258.3 839.3c.3 0 .7.1 1 .1-.1-.3-.2-.6-.3-1-.3 0-.7-.1-1-.1.2.3.2.6.3 1zM132.4 811.8c-.4-.1-.7-.2-1.1-.3.1.4.2.7.3 1.1.3.1.7.2 1.1.3-.1-.4-.2-.7-.3-1.1zM163.6 820.7c.1.3.2.7.3 1 .3.1.7.2 1 .3-.1-.3-.2-.7-.3-1-.4-.1-.7-.2-1-.3zM195.4 828.1c.1.3.2.7.3 1 .3.1.7.1 1 .2-.1-.3-.2-.7-.3-1-.4-.1-.7-.2-1-.2zM226.6 833.8c.1.3.2.7.3 1 .3.1.7.1 1 .2-.1-.3-.2-.7-.3-1-.3-.1-.7-.1-1-.2zM268.3 869.9c8.5 1 17.4 1.8 26.4 2.5-.1-.3-.2-.6-.3-1-9.1-.7-17.9-1.5-26.4-2.5.1.4.2.7.3 1zM236.4 864.8c.1.3.2.7.3 1 9.8 1.5 20 2.9 30.6 4.1-.1-.3-.2-.7-.3-1-10.7-1.3-20.9-2.6-30.6-4.1zM140.6 843.1c-8.2-2.5-15.1-4.8-20.6-6.8.1.4.2.7.4 1.1 5.5 1.9 12.4 4.2 20.6 6.7-.2-.3-.3-.7-.4-1zM173.8 852.2c.1.3.2.7.3 1 9.4 2.3 19.6 4.6 30.6 6.8-.1-.3-.2-.7-.3-1-11-2.1-21.3-4.4-30.6-6.8zM205.4 859.3c.1.3.2.7.3 1 9.4 1.9 19.4 3.6 29.9 5.3-.1-.3-.2-.7-.3-1-10.5-1.7-20.4-3.4-29.9-5.3zM141.6 843.4c.1.4.2.7.3 1.1 8.9 2.7 19.3 5.6 31 8.5-.1-.3-.2-.7-.3-1-11.7-3-22.1-5.9-31-8.6z"/><path class="st9" d="M267 868.8c.1.3.2.7.3 1 .3 0 .7.1 1 .1-.1-.3-.2-.7-.3-1-.3 0-.7 0-1-.1zM140.6 843.1c.1.4.2.7.3 1.1.4.1.7.2 1.1.3-.1-.4-.2-.7-.3-1.1-.4-.1-.8-.2-1.1-.3zM172.7 852c.1.3.2.7.3 1 .3.1.7.2 1.1.3-.1-.3-.2-.7-.3-1-.4-.2-.8-.2-1.1-.3zM204.4 859.1c.1.3.2.7.3 1 .3.1.7.1 1 .2-.1-.3-.2-.7-.3-1-.3-.1-.7-.1-1-.2zM235.3 864.6c.1.3.2.7.3 1 .3.1.7.1 1 .2-.1-.3-.2-.7-.3-1-.3-.1-.6-.2-1-.2z"/></g><g id="Framework_1_"><g id="Framework-2"><circle class="st2" cx="1135.3" cy="404" r="128.7"/><path class="st10" d="M1203.9 584.2c-12.8 5.4-32.4 11.9-46.5 11.9 22.6-9.2 48.2-22.9 65.5-37.2 13-3.3 29.5-7 39.8-10.6-17 13.4-38.8 27.4-58.8 35.9z"/><path class="st11" d="M1002.9 504.8c-6.5-12.1-11.7-24.8-15.6-37.9 12.1 5.5 23.3 10.2 32.3 13.9 14.4 5.8 29.2 10.6 44.2 14.4 1 4.5 2 8.9 3 13.2 5.5 22.2 12.6 41 20.9 56.1-15.7-2.9-34.9-6.2-50.2-10.8-15.5-13.8-24.8-30.6-34.6-48.9z"/><path class="st2" d="M1133.5 438.2V374c22.7-.5 50.4-5 72.4-11.6.9 12.4 1.3 22.4 1.6 28 .1 1.5.1 2.7.2 3.7.1 1.6 0 10.6 0 16.4 0 .9-.1 2.1-.1 3.5-.2 4.5-.4 9-.6 13.3-22 5.9-49.3 10.5-73.5 10.9z"/><path class="st12" d="M1243.2 271.9c-1.8 1.5-3.7 3-5.7 4.4-12.4 8.8-25.8 16-40 21.4-6.1-24.4-13.9-44.5-23.4-60.3 6.5-1.9 12.8-4.4 18.8-7.3 19.3 10.7 36.3 24.9 50.3 41.8z"/><path class="st11" d="M1173.8 236.2c-13.2 2.6-26.7 4-40.2 4.2v-32.2c15.1 4.4 28.5 13.8 40.2 28z"/><path id="SVGID_4_" d="M1071.5 298c19.7 6.5 40.1 10.3 60.8 11.1v62.4c-25.5-.7-53.1-7.3-71.5-13.6 2-20.2 5.3-40.3 9.9-60.1l.8.2z" fill="#cae0fa"/><path class="st2" d="M1111.6 321.6c-6.4-.3-12.8-1.3-19-2.8-1.7-.5-3.4.4-4 2.1v.1c-1.4 6.9-2 10.6-3.1 18.1-.2 2 1.2 3.9 3.2 4.3 3.4.9 5.1 1.2 8.7 1.9.2-1.6.2-2.5.4-4.1-2.8-.5-4.1-.9-6.8-1.5-.5-.1-.8-.5-.8-1 .9-6.3 1.3-9.4 2.4-15.3.1-.4.5-.7.9-.6 5.4 1.3 10.9 2.2 16.4 2.6.4.1.8.4.8.9-.2 6.3-.3 9.5-.6 15.9 0 .4-.4.7-.9.7h-.1c-1.2-.1-1.8-.2-3.1-.4-.1 1.6-.1 2.5-.2 4.1 2 .3 3 .4 5 .5 2.2.2 3.9-1.2 3.9-3.1v-19.1c.1-1.6-1.3-3.1-3.1-3.3z"/><path class="st10" d="M1101.6 329.4c-3.3-.5-4.9-.9-8.1-1.6-.2 1.6-.4 2.4-.6 3.9 2.6.6 3.9.9 6.6 1.4.5 0 .8.4.8.9-.6 6.3-.9 9.5-1.5 15.9-.1.4-.5.7-.9.6h-.1c-6-1-12-2.5-17.8-4.3-.4-.1-.7-.6-.7-1 .9-6.5 1.3-9.7 2.4-15.8.1-.4.4-.6.8-.5h.1c1 .3 1.6.5 2.7.8.3-1.6.4-2.3.7-3.9-1.7-.5-2.5-.7-4.2-1.3-1.4-.6-3 0-3.6 1.5-.1.2-.1.4-.2.6-1.3 7.2-1.9 10.9-2.8 18.9-.2 2 .9 3.8 2.7 4.5 7 2.3 14.1 4 21.4 5 2.3.4 4.2-.9 4.3-2.8.5-7.7.7-11.5 1.3-19.1.1-1.8-1.4-3.5-3.3-3.7z"/><path class="st8" d="M1130.7 371.4v-60.3c-18.1-.4-39.4-4.1-57.5-10.3-.6-.2-1.3-.4-1.9-.7-4.2 17.4-7.4 36.9-9.6 58.2 17.5 6.2 44.4 12.7 69 13.1zM1021.2 264.6c12-14.3 26.5-26.3 43.5-36-1.9-1.2-3.6-2.4-5.2-3.6-17 7.1-32.7 16.5-46.9 27.8 2.1 4.1 5 8 8.6 11.8zM1205.4 414.1c0-1.3.1-2.3.1-3.1 0-3.6.1-13.3 0-14.9 0-.9-.1-2-.1-3.3-.2-5.4-.6-14.9-1.5-26.9-20.4 6.3-46.8 10.6-67.9 10.9V437c22.6-.3 48.4-4.7 68.8-10 .3-4.3.5-8.6.6-12.9zM1025 268.3c11.4 10.5 27.2 19 42.6 24.9 5.8-22 13.1-39.9 21.8-53.8-6.8-2.1-13.2-4.6-19-7.6-.2-.1-.3-.2-.4-.2-17.7 9.8-32.7 22-45 36.7zM1070 225.6c8.7-4.6 18-8.7 27.9-12.1-11.3 2.1-22.2 5.2-32.7 9.1 1.5 1 3.1 2 4.8 3zM1210.9 411.1c0 .9-.1 1.9-.1 3.2-.1 2.7-.2 6.6-.5 11.2 6.3-1.8 12-3.7 16.8-5.5 18.4-7.3 36.3-16 53.4-26-.6-13.4-1.7-36.7-8.9-62.3-2.2 1.6-4.5 3.2-6.8 4.8-16.5 10.8-34.2 19.7-52.8 26.6-.9.3-1.9.7-2.9 1 1 12.7 1.4 22.8 1.6 28.4.1 1.3.1 2.4.1 3.3.1 2.1 0 14.7 0 15.2l.1.1zM1195.7 226.6c2.3-1.2 4.5-2.6 6.4-3.9-13.1-5-26.7-8.5-40.6-10.6 12.3 4 23.7 8.9 34.2 14.5zM1098 236.3c10.2 2.4 21.2 3.8 32.7 4v-28.2c-12.4 3.3-23.3 11.4-32.7 24.2zM1207.9 225.1c-2.1 1.6-4.4 3.2-6.9 4.6 17.1 10 31.6 22.4 43.6 37.1 4.6-4.5 8.2-9 10.6-13.3-14.3-11.8-30.3-21.3-47.3-28.4zM1244 274.6c-12.3 10.4-28.6 19.2-44.3 25.1 4.7 20.7 7.4 41.8 9 59 .5-.2 1-.3 1.4-.5 18.1-6.7 35.5-15.5 51.7-26.1 2.9-1.9 5.6-3.9 8.2-5.8-2.9-9.5-6.7-19.2-11.6-28.7-4.2-8.3-9-15.9-14.4-23zM1130.7 376.7c-24.7-.5-51.6-6.8-69.5-12.9-.9 9.8-1.6 20-2.1 30.5l-.1 1.7c-.1 1.6 0 11.2 0 14.9l.1 1.5c.2 4.2.4 8.3.6 12.3 21.2 6.4 48 11.9 71 12.3v-60.3zM978.5 411.5c0-.6-.2-13.4 0-17.6-14.1-8.6-25.7-17.6-34.7-26.7-2.2 11.7-3.4 23.7-3.4 36 0 12.5 1.2 24.7 3.5 36.5 13.2 8.5 27.1 15.9 40.3 22.2-4.4-20.8-5.2-39-5.7-50.4zM1028 548.5c-23.9-24.9-36-54.1-42.3-80.1-13-6.1-26.9-13.3-40.3-21.6 7.7 33.1 23.8 62.9 46.1 87.1 3.1 1.3 6.1 2.6 8.9 3.8l7.5 3.2c5.9 2.6 12.7 5.1 20.1 7.6zM1318.5 450.4c-14.1 8.5-28.4 16-40.8 22-6.9 26.6-20.2 56.2-45.9 81 11.3-3.1 21.2-6.5 28.9-9.8 2.9-1.2 6-2.6 9.2-4 24.5-24.6 42.5-55.7 51-90.6-.8.4-1.6.9-2.4 1.4zM990.2 464.7c13.1 6.1 25.1 11.1 34.4 15 10.5 4.3 23.6 8.7 37.9 12.4-3.7-19.2-6.4-40.4-7.9-63.4-5.6-1.8-10.7-3.6-15.2-5.3-21.5-8.5-40-17.3-55.7-26.4 0 5.4.1 14.2.1 14.3.5 11.7 1.4 31.3 6.4 53.4zM1194.6 301.4c-17.2 5.8-39.4 9.5-58.6 9.8v60.3c23.9-.4 50-5.6 67.4-11.1-1.5-17.2-4.1-38.2-8.8-59zM1174.1 235.1c5.5-1.5 10.8-3.4 15.6-5.6-10.4-5.3-21.6-9.9-33.7-13.6 6.7 4.9 12.7 11.3 18.1 19.2zM1171.8 241.2c-11.1 2.7-23.3 4.2-35.8 4.4v60.3c18.7-.3 40.4-3.9 57.2-9.6.1 0 .2-.1.2-.1-.1-.3-.2-.6-.2-.9-5.6-22.5-12.7-40.5-21.4-54.1zM1198.3 294c0 .1.1.3.1.4 18.1-6.7 32.2-15.3 42.3-24-12.3-15.1-27.4-27.7-45.2-37.7-5.6 2.8-11.8 5.2-18.4 7.1 8.7 13.9 15.7 32 21.2 54.2zM1072.6 295.1c.8.3 1.5.5 2.3.8 17.6 5.9 38.3 9.6 55.8 10v-60.3c-12.6-.2-24.8-1.8-36-4.6-8.8 13.5-16.2 31.6-22.1 54.1zM1136 212v28.3c11.4-.2 22.5-1.5 32.6-3.8-9.2-12.9-20.1-21.1-32.6-24.5zM1075.7 228.6c5.1 2.5 10.8 4.6 16.8 6.3 6.2-8.8 13.1-15.7 20.7-20.6-13.5 3.7-26 8.5-37.5 14.3z"/><path class="st8" d="M1258.6 508.2c5.6-11 9.7-22.1 12.7-32.9-11.1 5.2-20.2 9.1-25.5 11.3-11.2 4.6-27 9.3-44.4 13.1-.9 4.4-1.9 8.8-2.9 13.2-5.1 20.7-11.6 37.9-19.4 51.5 14.3-2.1 28.6-4.9 41.6-8.2 15.7-13.2 28.4-29.2 37.9-48zM1175.5 570.2c-5.1 7.8-10.7 14.2-16.9 19.2 19.7-6.3 37-14.7 52-25.4-11.3 2.5-23.2 4.6-35.1 6.2zM972.3 297c2.9 5.8 8.4 13.7 18.4 22.7 2.8-8.2 6.2-16.6 10.4-24.8 4.8-9.4 10.4-18.1 16.7-26.1-3.9-4.1-7.1-8.3-9.4-12.6-13.9 11.8-26.1 25.5-36.1 40.8zM1066.6 510.5c-1-4.1-2-8.3-2.9-12.6-15.5-3.9-29.8-8.6-41.1-13.3-8.5-3.5-19.1-7.9-30.8-13.3 3.1 11.9 7.5 24.4 13.7 36.6 8.7 17 19.9 31.7 33.6 44.2 14.8 4.5 31.2 8.5 47.5 11.4-7.9-14-14.7-31.6-20-53zM978.8 387.8c.8-15 2.7-37.9 10.1-62.5-8.1-6.9-15.1-14.7-19.9-23.2-11 17.8-19.1 37.6-23.9 58.7 8.4 9.2 19.7 18.2 33.7 27zM1090.4 569.5c-13.9-2.3-27.9-5.4-41.1-9 16.8 12.8 36.6 22.7 59.6 29.6-6.7-5.1-12.9-12-18.5-20.6zM995.1 323.4c13 10.6 32.5 22.3 61.5 33.2 2.2-21.3 5.5-40.7 9.8-58.1-10.7-4.1-24-10.2-36-18.9-3.2-2.3-6-4.6-8.7-7-5.9 7.6-11.2 15.9-15.8 24.8-4.5 8.5-8 17.3-10.8 26zM1323.4 369.8c-11.1 10.1-24.4 19.3-37.6 27.1.1 5.5-.1 14.3-.1 14.8-.5 12.1-1.4 31.6-6.4 53.8 13.2-6.6 28.5-14.7 43.2-24 2.5-12.4 3.8-25.3 3.8-38.4 0-11.2-1-22.4-2.9-33.3zM1036.6 556.9c-11.6-3.6-22.2-7.4-30.9-11.1-1.4-.6-2.8-1.2-4.3-1.8 6.3 5.9 13.1 11.5 20.2 16.5 23.4 16.6 50.6 28.1 80 33-27.3-9.1-48.5-21.8-65-36.6zM1223.1 561.1c-15.9 13.2-36 24.6-61.3 32.9 30.7-4.5 59.1-16.3 83.3-33.5 4.5-3.2 8.9-6.6 13.1-10.2-9.5 3.7-21.6 7.4-35.1 10.8zM1322.2 363.6c-4.4-20.9-12.2-40.8-23-59.1-5.2 7.9-12.9 15.9-23.1 23.8 7.3 25.1 8.8 48.3 9.5 62.6 1.1-.6 2.1-1.3 3.2-1.9 13.4-8.5 24.7-17 33.4-25.4zM1130.7 595.3v-21.9c-10.4-.1-21.6-1.1-33.1-2.8 9.5 13 20.5 21.3 33.1 24.7zM1093.6 564.7c12.9 2 25.5 3.3 37.1 3.4v-60.2c-19-.3-40.8-3.7-61.2-8.6.7 3.4 1.5 6.7 2.3 9.9 5.7 22.9 13 41.5 21.8 55.5zM1259.5 257c-2.9 4.9-6.8 9.5-11.5 13.9 5.7 7.5 10.7 15.5 15.1 24.1 4.7 9.2 8.4 18.5 11.3 27.7 9.7-7.8 17-15.7 21.6-23.4-7.5-11.7-16.3-22.7-26.3-32.7-3.2-3.3-6.7-6.5-10.2-9.6zM1168.3 571.2c-11.1 1.3-22 2.1-32.3 2.3v21.9c12.3-3.4 23.1-11.6 32.3-24.2zM1041.4 418.4c3.9 1.5 8.2 3.1 12.9 4.6-.2-3.4-.4-6.9-.5-10.4l-.1-1.6c0-.5-.1-13.1 0-15.2l.1-1.7c.5-11.1 1.2-21.8 2.2-32.1-17.5-6.5-42.7-17.5-62.7-33-7.2 24.9-8.7 47.8-9.4 62 15.9 9.4 35.1 18.6 57.5 27.4zM1130.7 442.3c-22.8-.4-49.3-5.6-70.6-11.9 1.6 23 4.3 44.2 8.2 63.2 20.7 5.1 43.1 8.7 62.5 9v-60.3zM1136 507.9v60.2c11.5-.2 23.8-1.2 36.3-2.8 10-15.9 17.8-37.5 23.5-64.4-19.7 3.9-40.9 6.7-59.8 7zM1136 442.3v60.3c19.3-.3 41-3.2 60.9-7.3 3.6-18.6 6.1-39.5 7.6-62.8-20.6 5.3-46.1 9.5-68.5 9.8zM1273.1 468.6c5.8-23.6 6.7-44.6 7.3-57 0 0 .1-6.3.1-11.5-24.4 13.9-46.9 23-51.5 24.8-5.3 2.1-11.8 4.2-19 6.2-.9 16-2.9 39.1-7.4 63 16.2-3.6 30.8-8 41.3-12.3 5-2.2 15.7-6.7 29.2-13.2z"/><path d="M1133.4 204.4c-109.6 0-198.5 88.8-198.5 198.5 0 70.3 36.5 132 91.6 167.3 1 .6 2 1.2 2.9 1.8.4.2.7.4 1.1.7 30 18.2 65.2 28.7 102.9 28.7 52.7.2 103.2-20.8 140.4-58.1 37.2-37.2 58.2-87.7 58.2-140.4-.1-109.6-88.9-198.5-198.6-198.5zm127.3 339.1c-7.7 3.3-17.6 6.7-28.9 9.8 25.7-24.7 38.9-54.3 45.9-81 12.4-6 26.7-13.4 40.8-22l2.4-1.5c-8.5 34.9-26.4 66-51 90.6-3.2 1.5-6.3 2.8-9.2 4.1zm-269.2-9.6c-22.3-24.1-38.4-54-46.1-87.1 13.4 8.3 27.3 15.5 40.3 21.6 6.3 26 18.4 55.2 42.3 80.1-7.4-2.5-14.2-5.1-20.1-7.6l-7.5-3.2c-2.8-1.2-5.8-2.5-8.9-3.8zm-51.1-130.8c0-12.3 1.2-24.4 3.4-36 9 9.2 20.5 18.1 34.7 26.7-.2 4.3 0 17.1 0 17.6.5 11.4 1.3 29.6 5.7 50.4-13.2-6.3-27.1-13.8-40.3-22.2-2.3-11.8-3.5-24-3.5-36.5zm43.3-6.2c15.7 9.1 34.3 17.9 55.7 26.4 4.5 1.8 9.6 3.6 15.2 5.3 1.5 23 4.2 44.2 7.9 63.4-14.2-3.7-27.4-8.1-37.9-12.4-9.4-3.9-21.4-8.9-34.4-15-5-22.1-5.9-41.7-6.4-53.5 0 .1-.1-8.7-.1-14.2zm257-126.5c-10.1 8.7-24.2 17.3-42.3 24 0-.1-.1-.3-.1-.4-5.5-22.2-12.6-40.3-21.2-54.2 6.6-1.9 12.8-4.3 18.4-7.1 17.9 10 33 22.6 45.2 37.7zM1136 212c12.5 3.4 23.3 11.6 32.6 24.5-10.2 2.4-21.2 3.7-32.6 3.8V212zm-5.3 93.9c-17.6-.4-38.2-4-55.8-10-.7-.3-1.5-.5-2.3-.8 5.9-22.5 13.3-40.5 22.1-54.1 11.1 2.8 23.3 4.4 36 4.6v60.3zm5.3 5.3c19.2-.3 41.4-4 58.6-9.8 4.7 20.8 7.3 41.8 8.8 58.9-17.4 5.5-43.6 10.7-67.4 11.1v-60.2zm57.2-14.9c-16.8 5.7-38.4 9.3-57.2 9.6v-60.3c12.6-.2 24.7-1.7 35.8-4.4 8.7 13.6 15.8 31.6 21.4 54.1.1.3.2.6.2.9-.1 0-.2.1-.2.1zm-19.1-61.2c-5.5-7.9-11.5-14.3-18.1-19.1 12.1 3.7 23.3 8.2 33.7 13.6-4.8 2.1-10 4-15.6 5.5zm-43.4 5.2c-11.5-.2-22.5-1.6-32.7-4 9.4-12.7 20.3-20.9 32.7-24.2v28.2zm-38.2-5.4c-6-1.7-11.6-3.8-16.8-6.3 11.4-5.8 23.9-10.6 37.5-14.4-7.6 5-14.5 11.8-20.7 20.7zm-22.1-3c5.7 3 12.1 5.5 19 7.6-8.7 13.8-16 31.8-21.8 53.8-15.4-5.9-31.3-14.5-42.6-24.9 12.3-14.7 27.3-26.9 45-36.7.1 0 .3.1.4.2zm2.8 69c18.1 6.1 39.4 9.9 57.5 10.3v60.3c-24.6-.5-51.5-7-69-13 2.2-21.3 5.4-40.8 9.6-58.2.7.2 1.3.4 1.9.6zm-14.1 111.5l-.1-1.5c0-3.6-.1-13.2 0-14.9l.1-1.7c.5-10.5 1.2-20.7 2.1-30.5 17.9 6.1 44.9 12.5 69.5 12.9V437c-23-.4-49.8-5.9-71-12.3-.2-4-.4-8.1-.6-12.3zm76.9-35.7c21.1-.3 47.5-4.6 67.9-10.9.9 12 1.3 21.5 1.5 26.9.1 1.3.1 2.5.1 3.3.1 1.6 0 11.3 0 14.9 0 .8-.1 1.9-.1 3.1-.2 4.4-.4 8.7-.6 12.9-20.4 5.4-46.2 9.7-68.8 10v-60.2zm74.9 19.1c0-.9-.1-2-.1-3.3-.2-5.6-.6-15.7-1.6-28.4 1-.3 1.9-.7 2.9-1 18.5-6.9 36.2-15.8 52.8-26.6 2.4-1.6 4.7-3.2 6.8-4.8 7.1 25.6 8.2 48.9 8.9 62.3-17.1 10-35 18.7-53.4 26-4.7 1.9-10.4 3.7-16.8 5.5.2-4.7.4-8.5.5-11.2.1-1.3.1-2.3.1-3.2v-.1c-.1-.5 0-13.1-.1-15.2zm50.8-63.8c-16.2 10.6-33.6 19.3-51.7 26.1-.5.2-.9.3-1.4.5-1.5-17.2-4.2-38.3-9-59 15.8-5.9 32-14.6 44.3-25.1 5.4 7.1 10.2 14.8 14.4 23 4.9 9.5 8.7 19.2 11.6 28.7-2.5 2-5.3 3.9-8.2 5.8zm-60.6-102.3c2.5-1.5 4.8-3 6.9-4.6 17 7.1 33 16.7 47.4 28.5-2.5 4.3-6 8.8-10.6 13.3-12.1-14.8-26.7-27.2-43.7-37.2zm-5.4-3.1c-10.5-5.7-21.9-10.5-34.2-14.5 13.9 2 27.5 5.6 40.6 10.6-2 1.4-4.1 2.7-6.4 3.9zm-125.7-1c-1.7-1-3.3-2-4.7-3 10.5-4 21.4-7 32.7-9.1-10 3.4-19.3 7.5-28 12.1zm-5.4 2.9c-16.9 9.7-31.4 21.8-43.5 36-3.5-3.7-6.5-7.7-8.6-11.8 14.1-11.4 29.9-20.8 46.9-27.8 1.6 1.2 3.4 2.5 5.2 3.6zm-43 44c2.6 2.4 5.5 4.7 8.7 7 12 8.7 25.3 14.9 36 18.9-4.3 17.4-7.5 36.9-9.8 58.1-29-10.9-48.5-22.6-61.5-33.2 2.8-8.7 6.3-17.5 10.8-26.2 4.6-8.7 9.8-17 15.8-24.6zM1056 362c-1 10.3-1.7 21-2.2 32.1l-.1 1.7c-.1 2.1 0 14.7 0 15.2l.1 1.6c.1 3.5.3 7 .5 10.4-4.7-1.5-9-3.1-12.9-4.6-22.4-8.8-41.6-18-57.5-27.5.7-14.2 2.2-37.1 9.4-62 20 15.6 45.2 26.6 62.7 33.1zm4.1 68.3c21.4 6.3 47.8 11.6 70.6 11.9v60.3c-19.3-.3-41.8-3.9-62.5-9-3.8-19-6.5-40.2-8.1-63.2zm70.6 77.6v60.2c-11.6-.1-24.2-1.4-37.1-3.4-8.8-14-16.1-32.5-21.8-55.5-.8-3.2-1.6-6.5-2.3-9.9 20.4 4.9 42.2 8.3 61.2 8.6zm0 65.5v21.9c-12.6-3.4-23.6-11.7-33.1-24.7 11.5 1.7 22.7 2.7 33.1 2.8zm5.3 0c10.3-.1 21.2-.9 32.3-2.3-9.2 12.7-20 20.8-32.3 24.2v-21.9zm0-5.3v-60.2c18.9-.3 40.1-3 59.8-7-5.6 26.9-13.5 48.6-23.5 64.4-12.4 1.6-24.8 2.6-36.3 2.8zm0-65.6v-60.3c22.4-.3 47.9-4.5 68.5-9.8-1.5 23.2-4 44.2-7.6 62.8-19.9 4.2-41.6 7.1-60.9 7.3zm73.9-71.4c7.2-2 13.7-4.1 19-6.2 4.6-1.8 27.2-10.9 51.5-24.8 0 5.2-.1 11.5-.1 11.5-.6 12.4-1.5 33.5-7.3 57-13.5 6.5-24.3 11.1-29.3 13.1-10.5 4.3-25.1 8.7-41.3 12.3 4.6-23.9 6.6-46.9 7.5-62.9zm75.7-40.2c-.7-14.4-2.2-37.5-9.5-62.6 10.1-7.9 17.9-15.9 23.1-23.8 10.9 18.3 18.7 38.3 23 59.1-8.8 8.4-20 16.9-33.4 25.4-1.1.6-2.1 1.2-3.2 1.9zm-11.2-68.1c-2.9-9.1-6.6-18.4-11.3-27.7-4.4-8.6-9.5-16.6-15.1-24.1 4.7-4.4 8.6-9.1 11.5-13.9 3.6 3.1 7 6.3 10.3 9.7 10 10 18.8 21 26.3 32.7-4.6 7.6-12 15.5-21.7 23.3zm-266-66.6c2.4 4.3 5.5 8.5 9.4 12.6-6.3 8-11.9 16.7-16.7 26.1-4.2 8.3-7.6 16.6-10.4 24.8-10-9-15.5-16.9-18.4-22.7 10-15.3 22.2-29 36.1-40.8zm-19.5 69.1c-7.4 24.6-9.3 47.5-10.1 62.5-14-8.8-25.2-17.8-33.7-27 4.7-21.1 12.9-40.8 23.9-58.7 4.7 8.6 11.7 16.3 19.9 23.2zm16.7 182.6c-6.2-12.2-10.6-24.7-13.7-36.6 11.6 5.3 22.3 9.7 30.8 13.3 11.3 4.7 25.6 9.4 41.1 13.3.9 4.3 1.9 8.5 2.9 12.6 5.3 21.4 12.1 39.1 20.1 53.1-16.3-2.9-32.8-6.9-47.5-11.4-13.8-12.5-25.1-27.3-33.7-44.3zm84.8 61.6c5.6 8.5 11.8 15.4 18.5 20.6-23-6.9-42.8-16.8-59.6-29.6 13.2 3.7 27.3 6.8 41.1 9zm85.1.7c11.9-1.6 23.8-3.8 35.1-6.2-15 10.7-32.3 19.1-52 25.4 6.2-5 11.8-11.4 16.9-19.2zm3.6-5.8c7.8-13.6 14.3-30.7 19.4-51.5 1.1-4.4 2.1-8.8 2.9-13.2 17.4-3.8 33.2-8.5 44.4-13.1 5.3-2.2 14.4-6 25.5-11.3-3 10.8-7.1 21.9-12.7 32.9-9.5 18.7-22.2 34.8-37.9 48-13 3.2-27.3 6.1-41.6 8.2zm100.2-98.8c5-22.2 5.9-41.8 6.4-53.8 0-.5.1-9.3.1-14.8 13.2-7.8 26.5-17 37.6-27.1 1.9 10.9 2.9 22.1 2.9 33.4 0 13.2-1.3 26-3.8 38.4-14.7 9.1-29.9 17.3-43.2 23.9zM1001.5 544c1.5.6 2.9 1.2 4.3 1.8 8.7 3.8 19.3 7.6 30.9 11.1 16.5 14.7 37.7 27.5 65.1 36.5-29.5-4.9-56.7-16.4-80-33-7.2-5-14-10.5-20.3-16.4zm160.3 50c25.3-8.3 45.3-19.7 61.3-32.9 13.5-3.4 25.6-7.1 35.2-10.9-4.2 3.6-8.6 7-13.1 10.2-24.3 17.3-52.7 29-83.4 33.6z" fill="#306bc4"/></g></g></g><g id="Floating_Apps"><path d="M1449.6 509c.8-39.6-.1-81.5-2.9-125.7-.5-8.7 4.2-17 12-20.9 9-4.5 17.5-8.9 25.2-13.4 44.6-26.3 83.5-51 118.3-74.7l.9-.6c-6.7-2.6-16.4-4.4-21.5-1.2-34.7 21.2-65.1 42.8-114.9 68.1-7.8 4-18 7.6-26.8 12-6.5 3.3-11.2 11.5-10.7 22.8 2.2 44.6 2.4 74.1 4.7 113.6.8 13 8 20.5 16.3 25.3-.4-1.7-.6-3.5-.6-5.3z" fill="#48e1ae"/><path class="st11" d="M1483.9 349c-7.7 4.6-16.2 8.9-25.2 13.4-7.8 3.9-12.5 12.2-12 20.9 2.8 44.1 3.7 86.1 2.9 125.7 0 1.8.2 3.6.5 5.3 5.1 2.9 10.6 4.9 15.3 6.4-6.3-3.6-10.4-10.4-10.2-18.1.8-36.9-.1-75.9-2.7-116.9-.5-8.1 3.9-15.7 11.2-19.4 8.3-4.2 16.2-8.3 23.4-12.5 41.5-24.4 77.7-47.4 110-69.5 2.7-1.8 5.7-3 8.9-3.4 6.8-.9 13.2 1.7 17.5 6.4v-.3s-8.8-7.6-17.1-11.8c-1-.5-2.2-1-3.5-1.5l-.9.6c-34.5 23.7-73.4 48.4-118.1 74.7z"/><path class="st16" d="M1613.7 295.9c3.5 37.1-.5 75.5-6 128.9-32.5 21.1-62.7 38.8-86.1 52.6-22.4 13.1-42 30.9-42 30.9l-9 14.1c-1.5-.5-3.2-1-5-1.6 2.9 1.6 6.1 2.6 9.7 2.7 3.1.1 6.2-.6 9-1.9 22.1-10.3 42.3-20.7 59.3-30.8 21.4-12.5 48.4-28.5 77.8-47.2 5.3-3.4 8.8-9.1 9.3-15.4 4.3-49.3 1.7-93.8-1.5-128.5 0-.2-.1-.6-.2-1.2-.6-4.4-2.5-8.2-5.2-11.2 1.2 11.3-10.3 7.1-10.1 8.6z"/><path class="st16" d="M1606.2 280.9c-3.2.4-6.2 1.6-8.9 3.4-32.3 22.1-68.5 45.1-110 69.5-7.2 4.2-15.1 8.3-23.4 12.5-7.3 3.6-11.7 11.2-11.2 19.4 2.6 41.1 3.5 80 2.7 116.9-.2 7.7 4 14.5 10.2 18.1 1.8.6 3.5 1.1 5 1.6l9-14.1s19.6-17.8 42-30.9c23.4-13.7 53.6-31.5 86.1-52.6 5.6-53.4 9.6-91.8 6-128.9-.2-1.5 11.3 2.7 10-8.6-4.3-4.6-10.7-7.2-17.5-6.3z"/><path class="st1" d="M1502 812.9c41.4-124.8 70.5-290.9 81.2-369 2.1-15.1 11.5-28.3 25.2-35.1 48.7-24.5 162.4-83.5 212.7-119.1 3.9-2 7.6-3.3 11.1-3.9-12.4-8.2-28.1-14-41.6-6.9-50.2 35.6-164 94.6-212.7 119.1-13.6 6.9-23 20-25.1 35.1-10.7 78.1-28.5 233.9-69.9 358.8-2.2 12.1 6.8 26.6 18 39.1-.4-5.1-.1-11.1 1.1-18.1z"/><path class="st2" d="M1526.1 853.9c6.1 4.5 10.3 4.2 10.3 4.2s206-119.2 220.4-126.2c26.3-82.9 88.6-336.6 98.2-424.6 0 0-5.6-8.1-15.4-16-2.3-1.9-4.8-3.7-7.4-5.5-3.5.6-7.2 1.9-11.1 3.9-50.2 35.6-164 94.6-212.7 119.1-13.7 6.8-23.1 20-25.2 35.1-10.7 78.1-39.8 244.2-81.2 369-1.3 7-1.6 13-1.1 18.1 8.4 9.4 18 17.7 25.2 22.9z"/><linearGradient id="SVGID_3_" gradientUnits="userSpaceOnUse" x1="1818.914" y1="800.248" x2="1668.528" y2="425.373" gradientTransform="translate(0 104)"><stop offset="0" stop-color="#9dc5f5"/><stop offset=".163" stop-color="#b9d5f8"/><stop offset=".36" stop-color="#d3e5fb"/><stop offset=".562" stop-color="#e5f0fc"/><stop offset=".772" stop-color="#f0f7fe"/><stop offset="1" stop-color="#f4f9fe"/></linearGradient><path d="M1858.2 318c-.1-3.8-1.2-7.5-3.2-10.7-6.2-10-19.3-13-29.2-6.9-63.5 39.2-168.7 95.1-211.7 117.4-11.5 6-19.3 17.3-20.7 30.2-3.8 34.6-8.5 73.1-8.8 75.6l-.1.8c-10.9 70.3-28 180.8-65.9 306.3-5.2 17 11.7 32.5 28.2 25.8 80.8-32.5 205.6-86.8 240.9-102.6 5.6-2.5 9.8-7.3 11.6-13.2 24.9-80.7 42.1-163.5 51.2-247.4 6.4-58.1 9-116.7 7.7-175.3z" fill="url(#SVGID_3_)"/><path class="st10" d="M1666.3 693.6c5.7-18.4 23.6-38.4 24.7-56.1.5-8.3-5.1-19.3-7.8-28.6-6.3-21.5-7.9-41-3.5-63.2 6-29.9 23-64.9 42.3-88.1 17.4-20.9 56.8-51.7 76-15.2 11.7 22.2 9.6 50.2 8.7 74.3-.4 10.6 4.4 18 5.2 23.9s1.8 8.6-1.5 15.5c-1.9 3.9-8 4.4-9.3 7.8-3.1 8.4-4.2 20.9-5.9 31.2-1.9 12.5-6.5 27.9-15.3 36.6-6.6 6.5-21.1 4.8-21.6 5.6-6.6 10.8-7 35.4-4.8 52-10.8 16.4-26.4 33.8-43.7 41.7-10.1 4.6-25.5 9.7-33.3-.9-6.4-8.7-13.5-25.5-10.2-36.5z"/><path d="M1691.5 520c1.4-.1 2.1-.1 3.5-.2 1.2-.1 1.9-.4 1.5 1.4-.9 4.6-1.3 5.6-2.1 9.3-.3.9-.1 1.8.5 2.5 1.2 1 2.3 2.2 3.1 3.6.5.7 1.4 1 2.2.6l7.8-2.6c.8-.4 1.9 0 2.3.8.1.2.2.4.2.7.5 3.7.8 5.6 1.2 9.4.1 1.7-.5 3.3-1.7 4.5-2.8 3.3-4.2 4.9-7.1 8.2-.9 1-1.5 2.2-1.7 3.5-.4 2.5-.9 5-1.7 7.5-.4 1-.3 2.1.2 3.1 1.6 2.3 2.4 3.5 4 5.9.6 1 .5 2.7-.4 4.4-2.6 4.9-3.9 7.4-6.5 12.3-.7 1.5-2 2.7-3.6 3.2l-7.9 1.3c-1.2.3-2.2 1-2.9 2-1.7 2.2-3.6 4.3-5.7 6.3-1 1-1.7 2.2-2.1 3.6-1.1 4.2-1.6 6.3-2.7 10.5-.5 1.8-1.5 3.3-3 4.4-3.9 2.5-5.8 3.8-9.7 6.3-1.4.9-2.6.7-3.1-.4-1.2-2.7-1.9-4.1-3.1-6.8-.4-.8-1.4-1.2-2.2-.8-1.9.6-3.9.9-5.9 1.1-1.2.2-2.2.8-2.9 1.7l-7.8 8.8c-1.3 1.4-2.8 2-3.8 1.5-2.8-1.4-4-2.2-6.6-3.7-.9-.5-1.2-1.9-.7-3.6 1.2-4.3 1.8-6.4 3-10.5.4-1 .3-2.1-.2-3-1.1-1.5-2-3-2.8-4.6-.4-.7-1.2-1.1-1.9-.8l-7.7 1.6c-1.2.2-2.1-.5-2.2-1.9-.3-3.9-.4-5.8-.7-9.5 0-1.6.6-3 1.7-4.1l7.1-7.3c.8-.8 1.3-1.8 1.6-2.8.6-2.4 1.1-4.6 1.9-6.9.4-.8.3-1.8-.2-2.6-1.7-1.9-2.5-2.8-4.2-4.6-.7-.7-.6-2.1.2-3.4 2.1-3.7 3.2-5.5 5.3-9.1.7-1.3 1.9-2.2 3.3-2.7l7.8-1.9c1-.3 2-.9 2.7-1.8 1.6-1.9 3.3-3.7 5.1-5.6.7-.7 1.2-1.6 1.5-2.6.6-3.1.8-3.6 1.2-5.7.4-1.3 1.3-2.3 2.4-3 3.8-2.5 5.7-3.8 9.6-6.5 1.3-1 2.7-1.2 3.4-.5 1.3 1.2 2.9 2.2 4.6 2.7.8.1 1.6 0 2.3-.3 2.2-.9 4.4-1.7 6.3-2.3 1-.3 2-.9 2.8-1.6 2.4-2.1 4.7-4.4 6.7-6.8.9-1.1 2.2-1.8 3.6-2 1.5-.2 2.4-.2 4.2-.2" fill-rule="evenodd" clip-rule="evenodd" fill="#4e97ee"/><path class="st19" d="M1670.8 571.5c-1.1 6.4-6.5 13.2-12.1 15s-9.2-2-8.2-8.1 6.4-12.6 12-14.6 9.3 1.4 8.3 7.7zM1773.5 532.7l-9 10c-3.6 4-5.5 6-9.2 9.9.8-5.3 1.1-7.9 1.8-13.2s1-7.8 1.6-13c3 1.2 4.5 1.8 7.4 3.1s4.5 1.9 7.4 3.2z"/><path class="st19" d="M1759.6 541.6c-32.4 12.8-65.1 24.8-98.1 35.9.4-2.4.6-3.6 1-5.9 33-11.4 65.6-23.7 98-36.7-.4 2.6-.5 4-.9 6.7zM1777.8 483.4c-3.3 4.4-4.9 6.2-8.3 10.3s-5.1 6.1-8.5 10.1c.4-5 .6-7 1-12.5s.3-6.4.6-11.4c3.1.8 4.6 1.1 7.6 1.8s4.7.5 7.6 1.7zM1766.6 580c-3.8 4-5.7 5.9-9.6 9.9s-5.8 5.9-9.8 9.8c1.1-5.4 1.6-8.1 2.6-13.6 1-5.4 1.5-8.1 2.4-13.5 2.9 1.5 4.4 2.2 7.2 3.6 2.9 1.6 4.4 2.3 7.2 3.8z"/><path class="st19" d="M1752.1 588.5c-12.1 4.4-24.3 8.6-36.5 12.7 6.2-32 11.6-64.3 14.5-96.8 11.7-5.6 23.3-11.3 34.8-17.1-.1 2.2-.2 3.4-.4 6-10 4.8-20 9.6-30 14.2-3 28.6-7.2 57-12.5 85.3 10.5-3.6 20.9-7.3 31.3-11-.4 2.5-.6 3.9-1.2 6.7z"/><g><path class="st20" d="M1443.4 1214.2l106.5 70.6-37.8 37.7-100.7-63.3z"/><path d="M876.2 999.9c3.2-4.4 251.9 25.4 331.8 29.8 73 4 168.4 112.9 260.1 198.4 0 0-25.5 57.1-46.9 46.9 0 0-183.8-108.1-227.8-116.1s-220.6 31.6-314-7.8c-59.8-25.3-42.2-97.5-3.2-151.2z" fill="#4098e6"/><path d="M876.2 999.9c2.3-3.2 112.1 9.5 214.7 19.5 38.6 3.8 118.4 57.7 139.9 71.4 104.2 66.1 116.3 89.2 208 174.7 0 0 3.8 19.6-17.6 9.4 0 0-183.8-108.1-227.8-116.1s-220.6 31.6-314-7.8c-59.8-25.2-42.2-97.4-3.2-151.1z" opacity=".2" fill="#3c7ba6"/><path class="st7" d="M1463.2 1213.5s18.6 6 27.7 13.5c9.1 7.5-33.9 64.7-45.9 69.6s-27.3-14.1-28.4-19.3c0 .1 38.3-22.8 46.6-63.8z"/><path class="st11" d="M1653.5 1247.8c-6.7-7.3-17.5-8.9-26-3.8l-54.6 19.6s-15.4 6.1-33 .2c-10.2-3.4-17.8 5.4-13.3 12.3 4.4 6.9 7.7 16.2 1.5 25.4-5 7.4-21.3 14.2-34.3 6.3 0 0-6.5-5-11.5 1.4-4.7 6 6.9 18.5 6.9 18.5s6.2 41.2 34.9 42l130.8-120.5-1.4-1.4z"/><path class="st23" d="M1524.5 1382.1l-6.4-7 136.7-125.9 6.2 6.8c.5.6.5 1.5-.1 2L1526 1382.2c-.4.3-1.1.3-1.5-.1zM1562.1 1287.7l-8-24.4 5.9.3 7.4 22.3c.5 1.4-.3 2.9-1.7 3.4h-.1c-1.5.6-3.1-.2-3.5-1.6zM1577.9 1282.6l-7-21.3 5.4-1.7 6.9 21.2c.5 1.4-.3 2.9-1.7 3.4h-.1c-1.5.6-3-.2-3.5-1.6z"/><path class="st24" d="M746.4 1066.3c-10.1 25 .9 56.7 24.3 70.1 13.4 7.7 29.2 9.5 44.6 10 13.1.4 26.3-.1 39-3.6 25.1-6.8 45.7-24.3 68.5-36.8 11.3-6.2 23.3-11.2 33.8-18.7 10.1-7.1 18.5-16.3 26-26.2 20.6-27.3 33.6-60.2 37.2-94.2 1.3-12.5 1.1-26.1-6.1-36.4-5.9-8.4-15.6-13.3-25.1-17.4-11.8-5.2-24-9.8-36.8-11.4-18.8-2.2-37.8 2.4-55.6 8.9-63.4 23-117.8 70.2-149.4 129.8"/><path class="st25" d="M891.4 1142.6c-14.5-.7-26.9 10.5-37.2.2-10.2-10.3-24.6-16.8-31.4-29.6-28.7-53.8-91.4-123.5-103-183.4-.3-1.7 23.1-1.9 23.5-3.6.4-2.1 1.8-3.8 3.3-5.3 7.1-7.4 16.5-12 25.7-16.5 14.5-7 28.9-14 43.4-21 17-8.3 36.1-16.7 54.2-11.1 11.9 3.7 21.2 13 28.1 23.3 7 10.3 12 21.7 18.5 32.3 10.1 16.7 23.8 31.2 39.9 42.3-6.2 19-12.4 37.9-18.6 56.9-7.2 22-14.7 44.5-28.5 63.1-10.4 13.9-24 25.2-34.3 39.1"/><linearGradient id="SVGID_5_" gradientUnits="userSpaceOnUse" x1="606.293" y1="881.915" x2="1001.083" y2="881.915"><stop offset=".07" stop-color="#cfedf9"/><stop offset=".316" stop-color="#d9f1fa"/><stop offset="1" stop-color="#f3fafd"/></linearGradient><path d="M818.1 1148.5c-65 27-135.9-25.6-189.2-264-18.7-83.5-34.9-258.3-9.6-269.3 9.8-4.2 20.5-6.9 31.1-6.1 8.2.5 116.4 34.4 162.7 48.9 25.9 8.1 55.1 19.3 64.2 44.8 10.9 30.5-13.4 65.7-1.5 95.8 9.4 23.7 14.6 66.6 39.4 72.8 23.2 5.8 62.8.2 75.5 20.5 13 20.7 15 28.4-.2 47.6 6.4-14.5-6.7-32-22.3-34.7-15.6-2.7-72.4 48.9-90.4 62.4-18.8 14.1-82.6 60.3-92 73-14 18.9-25.1 50.9-18.3 74.7.9 3.1 2.8 5.8 4.9 8.2 11.4 13.6 28 22.8 45.7 25.4z" fill="url(#SVGID_5_)"/><path class="st25" d="M733 574.5c6.3-12 11.8-27.3 14.1-40.6 2.6-14.7-3.7-31.5-6.6-46-2.4-11.8-4.7-23.9-2.8-35.8 4.3-26.1 14.8-49.5 37.1-63.9 15.3-9.8 45.4-14.2 63.5-12.7 13.8 1.2 26.2 8.9 37 17.6 6.7 5.4 13.2 11.5 17.1 19.2 7.2 14 13 27.2 9 42.4-6.1 23.5-5.4 37.5-8.6 56.9-3.4 20.7-10.3 46-23.1 62.5-11.3 14.5-23.5 31.3-41.9 32-8.1.3-21.6-8.2-21.6-8.2-4.4 5.1-10.5 24.1-11.9 30.6-3.6 16.9-7.3 32.4-6.4 49.7-13.7 6.5-55.3-9.3-74.4-30.7-5.7-6.4-10.5-13.6-16.4-19.8l-8-8.5c15.5-11.1 34.8-27.3 43.9-44.7z"/><path class="st24" d="M550.9 763.6c-4.9 4.8-9.8 11-8.9 17.9.8 5.9 5.8 10.4 10.8 13.6 11.5 7.2 25 10.6 38.2 13.5 28.5 6 58.8 9.6 86.2-.1 6.1-2.2 12.2-5.1 16.8-9.6 4.6-4.6 7.6-11.1 6.8-17.6-1.1-8.3-8-14.5-14.7-19.4-11.9-8.8-25-15.4-37.9-22.6-8.7-4.9-17.1-10.3-27.5-10.3-24.9-.1-52.5 17.7-69.8 34.6z"/><path class="st25" d="M564.2 716.9c-7.2 42.8 4.8 93.3 31.7 148.3 12.5 25.5 27.6 50.1 47.9 70 20.3 19.9 46.3 34.9 74.5 38.1 27.5 3.1 61.6-18 98.2-42.1 38.7-25.4 93.4-73.5 133.5-96.8 12 12.1 28.9 18.3 45.8 20.5 16.9 2.2 34 .6 51-.9-9.9-13.7-20-27.6-33-38.4s-29.6-18.3-46.5-17.2c-11.5.8-22.3 5.5-33.3 8.9-22.6 6.9-47.6 13.2-70.5 19.1-52.1 13.5-98.2 19.1-141.8 49.8-7.7 5.4-9.8 4.8-17.5-.8-11-8-32.8-90.2-41-104.7-9.5-16.9-3.1-12.9-9.6-31.2l-89.4-22.6z"/><path class="st27" d="M564.2 716.9c-7.2 42.8 4.8 93.3 31.7 148.3 12.5 25.5 27.6 50.1 47.9 70 20.3 19.9 46.3 34.9 74.5 38.1 27.5 3.1 61.6-18 98.2-42.1 38.7-25.4 93.4-73.5 133.5-96.8 12 12.1 28.9 18.3 45.8 20.5 16.9 2.2 34 .6 51-.9-9.9-13.7-29.5-12.3-40.5-8.9-22.6 6.9-30.9-25.9-53.8-20-52.1 13.5-130 107.6-220 136.1-9 2.9-42.9-8.2-67.7-28.1-18.5-14.9-48.4-54-56.7-106.9-3-19.2 51.9-68.4 45.3-86.6l-89.2-22.7z"/><linearGradient id="SVGID_6_" gradientUnits="userSpaceOnUse" x1="538.775" y1="703.112" x2="702.395" y2="703.112"><stop offset=".07" stop-color="#cfedf9"/><stop offset=".457" stop-color="#dbf1fa"/><stop offset="1" stop-color="#f3fafd"/></linearGradient><path d="M539.3 772.8c.5 7 1.7 14.5 6.8 19.8 3.8-6.9 13.6-8.7 22.1-8.6 34.5.3 70.6 17 102.4 5.7 10.4-3.7 21.2-10.3 31.8-6.3-6.6-2.5-12.7-77.1-14.4-86.8-4.3-23.5-9-49.5-26.4-68.6-41.6-45.8-91 23.1-105.8 54.9-13 28-18.8 59-16.5 89.9z" fill="url(#SVGID_6_)"/><path class="st29" d="M738.9 561.9c.3-7-1.5-12.5-10.5-24.7-3.6-4.9-8.6-8.8-13.1-12.9-6.8-6.2-13-13.5-15.9-22.2-3-8.7-2.3-19.1 3.6-26.2-15.9-4.1-28-19.9-27.8-36.4.2-16.4 12.8-31.9 28.9-35.5-3.2-9.6 6.1-21 16.2-19.7-7.8-13.5-7.1-22.4 0-36.2 7-13.9 12.7-18 28.2-17.2 10.1.5 28.7 10.9 28.2 21.1.5-9.6 11.1-17.3 19.4-19.8 10-3.1 21.5-.8 30.5 4.1 4.5 2.4 9.2 6.3 8.9 11.4 10.6-9.9 25-15.6 39.5-15.6s28.9 5.8 39.4 15.8c1.9 1.8 3.7 3.7 4.7 6.1 1.3 2.8 1.5 6 1.5 9 .1 8.6-1 17.2-3.3 25.5 10.7-3.5 22.8-2.8 32.9 2.1 10.2 4.8 18.4 13.7 22.4 24.3 2.5 6.6 3.4 13.9 2.3 20.9-1.2 7.3-4.6 14.2-8.8 20.3-2.8 4.2-6.1 8.1-10.1 11.1-10.2 7.7-24.1 7.8-35.3 2.2-7.9-4-7.6-1.7-13.9 3.7-5.3 4.6-12.3 7.3-19.3 7.2-10.2-.1-20.3-5.9-25.3-14.8-6.1 3.6-14.1 3.4-20.1-.3s-9.6-10.9-9.1-17.9c-4.8 7-30.7 5.9-39.1 7.4-8.4 1.5-2.3 34-22.8 34.4-8.6.2-.7-22.2-11.9-22.8-4.4-3.1-5.5-1.9-10.8-1.1-5.3.8-10.3 4.9-11.2 10.2-.6 3.6.6 7.3 1.8 10.8 8.6 26.6 14.8 52-.1 75.7z"/><path d="M711.1 428.1c-4.3 2.2-7.7 6-10 10.3-.9 1.7-1.7 3.5-1.7 5.4 0 2 .9 3.8 1.9 5.5 4.2 6.8 11.6 11.5 19.5 12.5-4.5 4.1-8.3 9.3-9.8 15.2-1.6 5.9-.8 12.6 2.9 17.5 3.1 4.1 7.9 6.7 11.3 10.6 5 5.6 6.5 13.4 7.9 20.8.7-10.2 1.5-20.5 5.2-30s10.8-18.2 20.5-21.3c3.2-1 6.6-1.4 9.5-2.9 8.1-4.1 10.2-14.6 11.4-23.6 12-4.7 25.5-3 38-5.9 11.4-2.6 21.9-9 29.4-18-.9 5.2.9 10.9 4.7 14.6 3.8 3.7 9.6 5.3 14.7 4.1 1 5 6.1 8.4 11.1 9.5 9 1.9 18.9-2 24.6-9.3s7.1-17.5 4.2-26.3c-.5-1.4-1-2.8-2.1-3.9-1-1-2.3-1.7-3.6-2.2-10.3-4.2-22.9-2-31.2 5.4.8-10.1-4.2-20.4-12.7-25.9-8.5-5.4-20.1-5.7-28.7-.4-8.6 5.3-13.6 15.9-12.1 25.9-1.5-3.8-5.8-5.5-9.7-6.7-6.3-1.8-12.9-3.3-19.5-2.7-6.6.5-13.2 3.2-17.4 8.3 2-6-.4-13-5.1-17.2s-11.4-5.8-17.7-5.1c-10.1 1.2-19.8 9.4-19.8 19.6 0 7.8 5.4 14.5 10.7 20.3-5.9-5.2-19.2-7.7-26.4-4.1z" fill="#004a82"/><path class="st25" d="M765.2 471.2c-2.8-7.2-9.5-12.8-17.2-14-9.2-1.4-17.8 2.6-21.4 11.4-4.5 11.2.2 23 5 33.1 1.3 2.7 2.6 5.5 4.7 7.7 3.6 3.8 9 5.4 14.1 6.4 2.7.5 5.6.9 8.2 0 2.6-.8 5-3.2 4.9-6"/><path class="st29" d="M709.1 464.4c-4.9.2-9.4 2.8-13.4 5.6-5.3 3.7-10.5 8-13.2 13.9-2.9 6.3-2.6 14 .8 20 .1-6.9 1.8-14 5.8-19.7 3.9-5.7 10.2-10 17.1-10.7M910.8 452.8c-.8 7.8 3.5 15.6 9.8 20.3 6.3 4.7 14.3 6.6 22.2 6.8 9.3.2 18.9-2.1 26.2-7.8 7.9-6.2 12.5-16.4 12-26.5-.7 6.5-2.4 13-6.4 18.1-7.1 9.1-20 11.8-31.5 10.9-4.5-.4-9-1.2-12.9-3.5-4.5-2.7-7.7-7.1-10.7-11.4"/><path class="st27" d="M807.9 599.1c-6.7 8.8-10.1 43.9-7.4 51.8.5 1.5 1.2 3 1.5 4.5.4 1.8.3 3.6 0 5.4-1.2 7-5.7 13.3-12 16.6-6.3 3.3-13.2 3.2-20.7 1.1 11.5-16.1 23.7-71.9 23.2-79.6-.5-7.8-4.8-14.7-8.4-21.5C776 562 766.3 539 768 521.1c12.2 48.3 28.5 68.7 39.9 78z"/><path class="st32" d="M1338.3 832.3L1057.1 822l-143.8 50.8c-5.9 2.1-4.6 10.8 1.7 11l251.4 9.2 171.9-60.7z"/><path d="M1338.3 832.3L1057.1 822l63.3-189.2c3.8-11.2 14.5-18.6 26.3-18.2l243.4 8.9c8.9.3 15 9.1 12.1 17.5l-63.9 191.3z" fill="#43e1ac"/><path class="st20" d="M1471.7 908.8l126.9 14.8-16.7 50.7-118.5-10.9z"/><path class="st2" d="M792 1058.4c.9-5.4 247.9-190.3 321.1-222.5 66.9-29.5 266.3 39.2 386.7 74 0 0 3.1 62.4-20.6 63 0 0-277.9-27.9-320.8-15.2-42.9 12.7-142 210.3-243.1 217.4-64.7 4.5-133.8-51.1-123.3-116.7z"/><path d="M792 1058.4c.9-5.4 247.9-190.3 321.1-222.5 66.9-29.5 266.3 39.2 386.7 74 0 0 21.4 14.5-2.3 15.1 0 0-321-86.3-363.9-73.6C1090.8 864.1 794 1094 794 1094c-3.1-11.3-4-23.2-2-35.6z" fill="#60a1f0"/><path class="st7" d="M1489 899.2s19.3-3.1 30.8-.5-1 73.1-9.4 82.8c-8.4 9.8-30.7-.2-34-4.3-.1 0 23.7-37.7 12.6-78z"/><path class="st11" d="M1686.2 870.6c-8.3-5.3-19.2-4.1-26.1 2.9l-47.9 32.8s-13.4 9.8-31.9 8.5c-10.7-.7-15.8 9.7-9.8 15.2s11.5 13.7 7.8 24.2c-2.9 8.4-17 19.2-31.6 14.8 0 0-7.5-3.2-10.8 4.2-3.1 7 11.3 16.2 11.3 16.2s16.4 38.3 44.4 31.8l96.1-149.7-1.5-.9z"/><path class="st23" d="M1595.4 1033.1l-8-5.1 100.4-156.4 7.7 5c.7.4.8 1.3.4 1.9l-99 154.3c-.3.5-.9.7-1.5.3zM1607.9 932.3l-13.9-21.6 5.8-1.2 12.8 19.7c.8 1.3.5 2.9-.8 3.7l-.1.1c-1.4.9-3 .6-3.8-.7zM1621.9 923.4l-12.2-18.8 4.8-3 12.1 18.8c.8 1.3.5 2.9-.8 3.7l-.1.1c-1.3.8-3 .5-3.8-.8z"/><circle cx="1342.2" cy="666.7" r="24.6" fill="#fff7df"/><circle cx="1284.8" cy="706.8" r="40.2" fill="#ffe081"/><g><circle class="st16" cx="1284.4" cy="706.7" r="31.5"/><path class="st37" d="M1309.2 713.8c2.3-8.6-3.4-14.1-7-15.7-3.2-1.5-9.7-4-10.8-4.5-1-.7-6.8-4.6-9.8-6.5-3.3-2-11.1-3.7-16.9 3-4.2 4.8-6.9 11.4-.9 19 3.4 4.2 2.9 6.4 5 11.6 1.3 3.2 3.7 4.8 5.2 5.5 1.5.9 4.1 2 7.5 1.2 5.5-1.2 7-2.8 12.4-2.3 9.7.9 13.6-5.1 15.3-11.3z"/><circle class="st11" cx="1274.8" cy="699.3" r="7"/><circle class="st37" cx="1274.1" cy="695.8" r="2.3"/><circle class="st11" cx="1295.7" cy="710.5" r="7"/><circle class="st37" cx="1295" cy="707" r="2.3"/><circle class="st16" cx="1254.4" cy="685.8" r="9.1"/><circle class="st16" cx="1318.6" cy="719.8" r="9.1"/><path class="st11" d="M1280.5 722.7c-1 1.9-3.5 2.7-5.4 1.7-1.9-1-2.7-3.5-1.7-5.4"/><path class="st32" d="M1284.7 712.6c-.5-.4-1.1-.6-1.6-.6-.9-.1-1.7-.5-2.2-1.2-.4-.4-.8-.8-1.4-1-1.3-.4-2.7 0-3.5 1-1.2 1.6-.7 3.9 1 4.8.3.2.6.2.9.3l-.1.1c-.4.8-.1 1.7.7 2.1.8.4 1.7.1 2.1-.7 0-.1 0-.1.1-.2.2.2.5.4.8.6 1.7.9 3.9.1 4.5-1.8.2-1.2-.2-2.6-1.3-3.4z"/></g></g><g><path d="M1946.3 645.1c.4-4.2.7-8.3 1-12.4 0-.4.1-.8.1-1.3 1-12.6 1.7-25 2.3-37 0-.4 0-.8.1-1.3.6-12.6 1.1-24.9 1.4-36.7v-1.3c.3-12.8.5-25 .5-36.5v-1.2-19.2c0-6.9 4.2-13.1 10.7-15.5 6.3-2.4 12.3-4.8 18-7.1.4-.2.8-.3 1.1-.5 8.4-3.5 16.2-7 23.3-10.4l10.8-5.4c.4-.2.7-.4 1.1-.6 11.8-5.9 23.5-11.9 35.1-18.2.4-.2.8-.4 1.1-.6 11.7-6.3 23.2-12.8 34.7-19.5.4-.2.7-.4 1.1-.6 11.7-6.8 23.2-13.8 34.7-21 .4-.2.7-.5 1.1-.7l.9-.6c5.3-3.3 11.7-3.3 16.7-.5-.3-.3-.7-.5-1.1-.8-9.5-5.6-34.6-17.7-47.5-10-53.7 32-93.2 52.8-114.6 63.1-10.4 5-22.4 10.2-35.7 15.4-10.5 4.1-17.4 14.3-17.3 25.5.2 36.9 0 69.6-3.7 121.3-1.3 18.5 18.5 37.3 27.5 44.9-1.1-1.4-2-3.1-2.6-4.9-.7-2-1-4.2-.8-6.4z" fill="#7cb2f2"/><path class="st7" d="M1963 657.6c.4-4.2.7-8.4 1-12.6 0-.4.1-.9.1-1.3 1-12.7 1.8-25.3 2.4-37.5 0-.4 0-.8.1-1.3.6-12.8 1.1-25.2 1.4-37.1v-1.3c.3-12.9.5-25.3.5-36.9v-1.3-19.4c0-7 4.3-13.3 10.9-15.7 6.4-2.4 12.5-4.8 18.4-7.2.4-.2.8-.3 1.2-.5 8.6-3.5 16.6-7.1 23.8-10.5l11.1-5.4c.4-.2.8-.4 1.1-.6 12.1-6 24-12.1 35.9-18.4l1.2-.6c11.9-6.4 23.7-13 35.5-19.7.4-.2.8-.4 1.1-.7 11.9-6.9 33.8-32.6 33.4-32.8-9.7-5.7-15.3-8.9-28.5-1.1-55 32.4-95.3 53.4-117.2 63.8-10.6 5.1-23 10.3-36.5 15.6-10.7 4.2-17.8 14.4-17.7 25.8.2 37.3 0 70.4-3.8 122.7-1.4 18.7 4 26.6 13.2 34.2-1.2-1.1 11.2 2.1 11.4-.2z"/><path class="st2" d="M2146 403.5c.3 1.4-8.9-2.5-8.7-1.6.1.6.2 1.2.2 1.8.2 9.9-.4 21.1-1.8 33.5 6.1-3.7 11.3-6.8 15.3-9.4-.1-6.3-.3-12.1-.5-17.3-.2-2.8-1-5.4-2.5-7.8-1.5-2.4-3.6-4.3-6-5.6 2.1 1.5 3.5 3.8 4 6.4zM1960.9 660.3c-3.3.8-6.7 0-9.3-2.1-.5-.4-1.2-1-1.9-1.6 4.1 5.4 11.4 7.8 18.2 5.6 1.9-.6 3.9-1.3 5.8-2 .2-1.6.4-3.1.7-4.7-4.2 1.9-8.7 3.5-13.5 4.8zM2129.9 478.9c8.9-5.1 16.1-9.5 21.3-12.9.2-13.5 0-25.9-.3-36.9-4.1 2.6-9.3 5.8-15.5 9.5-1.2 12.3-3.1 25.7-5.5 40.3zM2123.6 559.1c9.2-5.1 16.9-9.6 22.9-13.3 1.5-13.5 2.6-26.6 3.4-39.1-5.9 3.7-13.7 8.4-23.3 13.8-.7 12.2-1.7 25.1-3 38.6zM2125.5 519.7c.4-6.3.6-12.5.8-18.5-1.1 6.4-2.2 13.1-3.3 19.9.8-.4 1.7-.9 2.5-1.4zM2122.8 522.6c-1.6 9.7-3.2 19.7-4.9 30.2-.7 4.5-2.5 8.7-5.2 12.2 3.4-1.8 6.6-3.5 9.7-5.2 1.3-13.5 2.3-26.4 3-38.7-.9.5-1.7 1-2.6 1.5zM2127.7 492.6c-.2 8.4-.5 17.3-1 26.5 9.7-5.4 17.5-10.2 23.3-13.8.8-13.4 1.2-26 1.3-37.8-5.4 3.4-12.6 7.8-21.6 13-.6 3.9-1.3 8-2 12.1zM1975.6 654.9c-.2 1.6-.4 3.2-.7 4.9 12.5-4.3 24.4-8.6 35.7-13 1-7.3 1.9-14.5 2.6-21.5-11 10.1-22.2 22-37.6 29.6zM2050.8 601.3c-1 9.7-2.3 19.7-3.7 30 4.2-1.9 8.2-3.9 12-5.8 6-3 13.8-7 23-11.8 1.5-10.7 2.7-21.1 3.8-31.1-13.3 7.2-25.2 13.5-35.1 18.7zM2033.3 610.2c-6.7 3.4-12.8 8.3-18.8 13.9-.8 7.2-1.7 14.6-2.7 22.2 12.3-4.8 23.7-9.6 34-14.4 1.4-10.2 2.7-20.2 3.7-29.9-6.2 3.2-11.7 5.9-16.2 8.2zM2110.7 567.3c-1.9 2-4 3.7-6.4 5-5.9 3.3-11.7 6.5-17.2 9.5-1 10.1-2.3 20.5-3.8 31.2 10.1-5.3 21.9-11.6 34.9-18.9 1.6-11.3 2.9-22.4 4-33-3.6 2-7.4 4.1-11.5 6.2zM2123.5 560.5c-1.1 10.7-2.4 21.7-3.9 33 4.9-2.7 10-5.6 15.2-8.5 4.4-2.5 7.4-6.8 8.2-11.7 1.4-8.8 2.5-17.5 3.5-26-6.2 3.6-13.9 8.1-23 13.2zM2091.9 499.3c13.5-6.7 25.1-13.1 34.9-18.6.1-13.4 0-25.7-.4-36.7-9.8 5.6-21.5 11.9-34.9 18.7.3 11.1.5 23.3.4 36.6zM1982.5 546.3c-10.1 3.5-20.6 6.8-31.4 10.1-.3 11.8-.7 24.1-1.4 36.7 10.9-3.2 21.3-6.6 31.5-10 .8-13 1.2-25.3 1.3-36.8zM1982.2 508.7c-9.8 3.4-20 6.7-30.5 9.9 0 11.5-.2 23.7-.5 36.5 10.8-3.3 21.3-6.7 31.4-10.1.1-13.2-.1-25.4-.4-36.3zM1980.3 475.6c-5.7 2.4-11.7 4.8-18 7.1-6.5 2.4-10.7 8.6-10.7 15.5 0 6.1.1 12.5 0 19.2 10.5-3.2 20.6-6.5 30.4-9.9-.3-12.2-1-22.9-1.7-31.9zM1981.2 584.4c-10.1 3.4-20.6 6.7-31.5 10-.6 12.1-1.4 24.4-2.3 37 10.6-3.1 20.9-6.3 30.9-9.6 1.2-13 2.2-25.5 2.9-37.4zM2017.9 494.2c-.6-13.9-1.5-25.7-2.4-34.9l-10.8 5.4c-7.1 3.4-14.9 6.9-23.3 10.4.7 9 1.4 19.7 1.8 32 12.2-4.2 23.7-8.5 34.7-12.9z"/><path class="st2" d="M1979.3 622.7c-1 10.4-2.3 21.1-3.8 32.2 15.4-7.6 26.6-19.4 37.6-29.6.6-5.1 1.1-10.1 1.5-15.1-11.1 4.2-22.9 8.4-35.3 12.5zM2090.6 538.1c12.3-6.1 23.1-11.8 32.4-17 1.1-6.8 2.2-13.5 3.3-19.9.2-6.6.4-13 .4-19.1-9.8 5.5-21.4 11.8-34.9 18.6-.1 11.6-.5 24.1-1.2 37.4zM2054.2 479.1c-.5-15.4-1.5-28.4-2.4-38.5-11.6 6.3-23.3 12.3-35.1 18.2.9 9.2 1.8 21 2.4 35 12.4-4.9 24.1-9.8 35.1-14.7zM2122.8 522.6c-9.3 5.1-20 10.8-32.2 16.8-.7 12.2-1.7 25-3 38.3 9.2-4.4 17.6-8.7 25.2-12.7 2.7-3.5 4.5-7.7 5.2-12.2 1.5-10.5 3.2-20.6 4.8-30.2zM2127.9 480.1c.7-.4 1.3-.8 2-1.1 2.3-14.6 4.3-28 5.6-40.3-2.5 1.5-5.2 3.1-8.1 4.7.5 11 .7 23.3.5 36.7zM2016 609.7c-.4 4.7-.9 9.5-1.4 14.3 6.1-5.5 12.1-10.5 18.8-13.9 4.5-2.3 10-5 16.2-8.3l.6-6c-10.8 4.7-22.2 9.4-34.2 13.9zM2126.3 442.7c-.7-18.4-1.9-33.2-3-43.9-11.4 7.2-23 14.2-34.7 21 1 10.5 2.1 24.6 2.7 41.6 13.6-6.7 25.2-13.1 35-18.7zM2127.7 492.6c.7-4.2 1.3-8.2 2-12.2-.6.3-1.2.7-1.8 1 0 3.7-.1 7.4-.2 11.2zM2017.5 571.3c-11.2 4.3-22.9 8.5-35.2 12.7-.7 11.9-1.6 24.4-2.9 37.4 12.4-4.1 24.2-8.3 35.4-12.5 1.3-13.1 2.1-25.7 2.7-37.6zM2090.3 462c-.6-17-1.7-31-2.7-41.6-11.5 6.7-23 13.2-34.7 19.5 1 10.1 1.9 23.1 2.5 38.6 12.6-5.6 24.3-11.2 34.9-16.5zM2018 495.5c-11 4.3-22.6 8.6-34.7 12.8.4 10.9.5 23.1.4 36.3 12.2-4.2 23.9-8.5 34.9-12.8.1-13.3-.2-25.5-.6-36.3zM2019.8 531.3c12.3-4.8 24-9.7 34.8-14.5.1-13.3 0-25.5-.4-36.5-10.9 4.9-22.6 9.8-35.1 14.7.5 10.9.8 23 .7 36.3zM2018.7 570.8c-.6 11.9-1.5 24.5-2.7 37.6 12.1-4.6 23.5-9.2 34.2-13.8 1.3-13.2 2.3-25.9 3-38-10.7 4.8-22.3 9.5-34.5 14.2zM2018.6 533.1c-11.1 4.3-22.7 8.6-34.9 12.8-.1 11.5-.5 23.8-1.3 36.8 12.3-4.2 24-8.4 35.2-12.7.6-13.1 1-25.4 1-36.9zM2055.8 516.3c12.7-5.6 24.3-11.1 34.9-16.4.1-13.3 0-25.6-.4-36.6-10.6 5.3-22.2 10.9-34.9 16.5.4 11 .5 23.2.4 36.5zM2087.1 581.9c5.5-3 11.2-6.2 17.2-9.5 2.4-1.4 4.6-3.1 6.4-5-7.1 3.7-14.9 7.7-23.3 11.7-.1.9-.2 1.8-.3 2.8zM2054.6 518.2c-10.9 4.8-22.5 9.6-34.8 14.5-.1 11.5-.4 23.8-1 36.9 12.2-4.7 23.7-9.5 34.5-14.2.8-13.2 1.2-25.6 1.3-37.2zM1960.9 660.3c4.8-1.2 9.3-2.8 13.4-4.8 1.5-11.1 2.8-21.9 3.8-32.4-9.9 3.3-20.2 6.5-30.8 9.6-.3 4.1-.7 8.3-1 12.4-.2 2.2.1 4.5.8 6.6.6 1.8 1.5 3.5 2.6 4.9.7.6 1.3 1.1 1.9 1.6 2.6 2 6 2.8 9.3 2.1zM2051.5 594.1c12.6-5.4 24.2-10.7 34.8-15.8 1.3-13.3 2.3-26.1 3-38.3-10.6 5.2-22.2 10.6-34.8 16.1-.7 12.1-1.7 24.8-3 38zM2055.8 517.6c-.1 11.6-.5 24-1.2 37.2 12.6-5.5 24.3-11 34.8-16.2.7-13.2 1.1-25.7 1.3-37.4-10.6 5.3-22.2 10.8-34.9 16.4zM2051.4 595.4c-.2 1.9-.4 3.9-.6 5.8 9.9-5.1 21.8-11.4 35.1-18.7.1-1 .2-1.9.3-2.9-10.6 5.2-22.2 10.5-34.8 15.8zM2125.3 397.5l-.9.6c1.1 10.6 2.3 25.5 3 44 2.9-1.7 5.7-3.3 8.3-4.8 1.3-12.4 2-23.6 1.8-33.5 0-.6-.1-1.2-.2-1.8-.2-.9 9 3 8.7 1.6-.5-2.6-1.9-4.8-3.9-6.4-5.1-2.9-11.5-3-16.8.3z"/><path class="st9" d="M1974.3 655.5c-.2 1.6-.4 3.1-.7 4.7.4-.1.8-.3 1.2-.4.2-1.6.5-3.3.7-4.9l-1.2.6zM1981.2 584.4c-.7 11.9-1.6 24.4-2.9 37.4.4-.1.8-.3 1.2-.4 1.3-13 2.2-25.5 2.9-37.4-.4.1-.8.2-1.2.4zM1983.3 507.1c-.4-12.3-1.1-23-1.8-32-.4.2-.8.3-1.1.5.7 9 1.4 19.7 1.8 31.9.3-.2.7-.3 1.1-.4z"/><path class="st9" d="M1978.1 623.1c-1 10.5-2.3 21.3-3.8 32.4.4-.2.8-.4 1.3-.6 1.5-11 2.7-21.8 3.8-32.2-.5.1-.9.3-1.3.4zM1983.7 545.9c-.4.1-.8.3-1.2.4-.2 11.5-.6 23.8-1.3 36.8.4-.1.8-.3 1.2-.4.7-13 1.1-25.3 1.3-36.8zM1983.3 508.3c-.4.1-.8.3-1.2.4.4 10.9.5 23.1.4 36.3.4-.1.8-.3 1.2-.4.1-13.2 0-25.4-.4-36.3zM2125.5 519.7c.4-.2.8-.5 1.2-.7.5-9.2.8-18 1-26.5-.5 2.8-.9 5.7-1.4 8.6-.2 6.1-.5 12.3-.8 18.6zM2122.2 561.2c-1.1 10.7-2.4 21.7-4 33 .4-.2.8-.5 1.3-.7 1.6-11.3 2.8-22.3 3.9-33-.3.2-.8.4-1.2.7zM2122.4 559.8c.4-.2.8-.5 1.2-.7 1.3-13.5 2.3-26.4 3-38.7-.4.2-.8.4-1.2.7-.7 12.3-1.7 25.2-3 38.7zM2126.8 480.7c.4-.2.8-.4 1.2-.7.1-13.4-.1-25.7-.5-36.7-.4.2-.8.4-1.1.7.3 11.1.5 23.3.4 36.7z"/><path class="st9" d="M2126.8 482.1c-.1 6.1-.2 12.5-.4 19.1.5-2.9 1-5.8 1.4-8.6.1-3.8.2-7.5.2-11.2-.5.3-.8.5-1.2.7zM2127.4 442.1c-.7-18.5-1.9-33.3-3-44-.4.2-.7.5-1.1.7 1.1 10.7 2.3 25.6 3 43.9.4-.2.8-.4 1.1-.6zM2085.9 582.6c-1.1 10.1-2.3 20.5-3.8 31.1.4-.2.8-.4 1.3-.7 1.5-10.7 2.7-21.1 3.8-31.2-.5.3-.9.5-1.3.8zM2089.4 538.7l1.2-.6c.7-13.2 1.1-25.7 1.3-37.4l-1.2.6c-.2 11.6-.6 24.1-1.3 37.4zM2090.7 499.9l1.2-.6c.1-13.3 0-25.6-.4-36.6-.4.2-.8.4-1.1.6.3 11 .4 23.3.3 36.6zM2089.3 540c-.7 12.2-1.7 25-3 38.3l1.2-.6c1.3-13.3 2.3-26.1 3-38.3l-1.2.6z"/><path class="st9" d="M2086.2 579.7c-.1 1-.2 1.9-.3 2.9.4-.2.8-.5 1.2-.7.1-.9.2-1.9.3-2.8l-1.2.6zM2091.4 461.5c-.6-17.1-1.7-31.1-2.7-41.6-.4.2-.7.4-1.1.6 1 10.5 2.1 24.6 2.7 41.6.3-.3.7-.4 1.1-.6zM2049.6 601.9c-1 9.7-2.3 19.7-3.7 29.9.4-.2.8-.4 1.3-.6 1.4-10.3 2.6-20.3 3.7-30-.5.3-.9.5-1.3.7z"/><path class="st9" d="M2050.2 596l-.6 6c.4-.2.8-.4 1.3-.7.2-2 .4-3.9.6-5.8-.5.1-.9.3-1.3.5zM2054.6 516.9c.4-.2.8-.3 1.2-.5.1-13.3 0-25.5-.4-36.5-.4.2-.8.3-1.2.5.4 10.9.6 23.1.4 36.5zM2055.3 478.6c-.6-15.5-1.5-28.5-2.5-38.6-.4.2-.8.4-1.1.6.9 10.1 1.9 23.1 2.4 38.5.5-.2.9-.4 1.2-.5zM2053.3 556.7c-.7 12.1-1.7 24.8-3 38 .4-.2.8-.4 1.2-.5 1.3-13.2 2.3-25.9 2.9-38-.3.1-.7.3-1.1.5zM2054.6 518.2c-.1 11.6-.5 24-1.3 37.2.4-.2.8-.4 1.2-.5.7-13.2 1.1-25.6 1.2-37.2-.3.1-.7.3-1.1.5zM2013.2 625.3c-.8 7-1.7 14.2-2.6 21.5.4-.2.8-.3 1.2-.5 1-7.5 1.9-14.9 2.7-22.2-.4.4-.9.8-1.3 1.2zM2019.1 493.8c-.6-14-1.5-25.8-2.4-35-.4.2-.7.4-1.1.6.9 9.2 1.8 21 2.4 34.9.3-.2.7-.4 1.1-.5z"/><path class="st9" d="M2014.7 610.2c-.5 5-1 10-1.5 15.1.4-.4.9-.8 1.3-1.2.5-4.9 1-9.6 1.4-14.3-.4.1-.8.2-1.2.4zM2018.6 533.1c-.1 11.5-.4 23.8-1 36.9.4-.2.8-.3 1.2-.5.6-13.1.9-25.4 1-36.9-.4.2-.8.3-1.2.5zM2018.6 531.8c.4-.2.8-.3 1.2-.5.1-13.3-.2-25.5-.7-36.3-.4.1-.8.3-1.1.5.4 10.8.7 23 .6 36.3zM2017.5 571.3c-.6 11.9-1.5 24.5-2.7 37.6.4-.2.8-.3 1.2-.5 1.2-13.1 2.1-25.7 2.7-37.6-.4.2-.8.3-1.2.5zM2135.6 438.7c6.2-3.7 11.4-6.9 15.5-9.5v-1.3c-4 2.6-9.1 5.8-15.3 9.4-.1.4-.2.9-.2 1.4zM2054.2 480.4v-1.3c-10.9 4.9-22.7 9.8-35.1 14.7 0 .4 0 .8.1 1.2 12.4-4.9 24.1-9.8 35-14.6zM2090.3 463.3V462c-10.6 5.3-22.2 10.9-34.9 16.5v1.3c12.7-5.6 24.3-11.2 34.9-16.5zM2018 495.5c0-.4 0-.8-.1-1.2-11 4.3-22.6 8.6-34.7 12.8v1.2c12.2-4.2 23.8-8.5 34.8-12.8zM2126.3 444v-1.3c-9.8 5.6-21.4 11.9-34.9 18.7v1.3c13.5-6.7 25.2-13.1 34.9-18.7z"/><path class="st9" d="M2135.6 438.7c.1-.5.1-1 .2-1.4-2.6 1.5-5.3 3.2-8.3 4.8v1.3c2.8-1.7 5.5-3.2 8.1-4.7zM1982.1 507.5c-9.8 3.4-19.9 6.7-30.4 9.9v1.2c10.5-3.2 20.7-6.5 30.5-9.9-.1-.4-.1-.8-.1-1.2z"/><path class="st9" d="M1983.3 507.1c-.4.1-.8.3-1.2.4v1.2c.4-.1.8-.3 1.2-.4v-1.2zM2126.3 444c.4-.2.8-.4 1.1-.7V442c-.4.2-.8.4-1.1.7v1.3zM2091.4 462.7v-1.3c-.4.2-.8.4-1.1.6v1.3c.4-.2.8-.4 1.1-.6zM2055.4 479.8v-1.3c-.4.2-.8.3-1.2.5v1.3c.4-.1.8-.3 1.2-.5zM2019.1 495c0-.4 0-.8-.1-1.2-.4.1-.8.3-1.1.5 0 .4 0 .8.1 1.2.4-.2.8-.3 1.1-.5zM2129.7 480.4c9-5.1 16.2-9.6 21.6-13V466c-5.3 3.4-12.4 7.8-21.3 12.9l-.3 1.5zM2090.7 501.3V500c-10.6 5.3-22.2 10.8-34.9 16.4v1.3c12.7-5.7 24.3-11.2 34.9-16.4zM1982.5 545c-10.1 3.5-20.5 6.8-31.4 10.1v1.3c10.8-3.3 21.3-6.7 31.4-10.1V545z"/><path class="st9" d="M2127.9 481.4c.6-.3 1.2-.7 1.8-1 .1-.5.2-1 .2-1.5-.7.4-1.3.8-2 1.1v1.4zM2018.6 531.8c-11.1 4.3-22.7 8.6-34.9 12.8v1.3c12.2-4.2 23.9-8.5 34.9-12.8v-1.3zM2054.6 518.2v-1.3c-10.9 4.8-22.5 9.7-34.8 14.5v1.3c12.3-4.9 23.9-9.8 34.8-14.5zM2091.9 499.3v1.3c13.5-6.7 25.1-13 34.9-18.6v-1.4c-9.8 5.7-21.4 12-34.9 18.7z"/><path class="st9" d="M1983.7 544.6c-.4.1-.8.3-1.2.4v1.3c.4-.1.8-.3 1.2-.4v-1.3zM2126.8 482.1c.4-.2.8-.4 1.2-.7V480c-.4.2-.8.4-1.2.7v1.4zM2090.7 501.3l1.2-.6v-1.3l-1.2.6v1.3zM2055.8 517.6v-1.3c-.4.2-.8.3-1.2.5v1.3c.4-.1.8-.3 1.2-.5zM2019.8 531.3c-.4.2-.8.3-1.2.5v1.3c.4-.2.8-.3 1.2-.5v-1.3zM2122.8 522.6c.9-.5 1.8-1 2.6-1.5 0-.5 0-.9.1-1.4-.8.5-1.6.9-2.5 1.4-.1.5-.2 1-.2 1.5zM2126.6 520.4c9.6-5.4 17.4-10.1 23.3-13.8 0-.5.1-.9.1-1.4-5.8 3.6-13.6 8.3-23.3 13.8 0 .5-.1 1-.1 1.4zM2054.5 554.8c0 .4 0 .9-.1 1.3 12.6-5.5 24.3-10.9 34.8-16.1 0-.4 0-.9.1-1.3-10.5 5.2-22.1 10.6-34.8 16.1zM2018.8 569.5c0 .4 0 .8-.1 1.3 12.2-4.7 23.7-9.5 34.5-14.2 0-.4 0-.9.1-1.3-10.8 4.8-22.3 9.5-34.5 14.2zM1981.2 583.1c-10.1 3.4-20.6 6.7-31.5 10 0 .4 0 .8-.1 1.3 10.8-3.2 21.3-6.6 31.5-10 .1-.4.1-.9.1-1.3zM1982.4 582.7c0 .4 0 .8-.1 1.3 12.3-4.2 24-8.4 35.2-12.7 0-.4 0-.9.1-1.3-11.2 4.3-22.9 8.5-35.2 12.7zM2090.6 538.1c0 .4 0 .9-.1 1.3 12.2-6 23-11.7 32.2-16.8.1-.5.2-1 .2-1.4-9.2 5.1-20 10.8-32.3 16.9z"/><path class="st9" d="M1982.4 582.7c-.4.1-.8.3-1.2.4 0 .4 0 .8-.1 1.3.4-.1.8-.3 1.2-.4.1-.5.1-.9.1-1.3zM2125.4 521.1c.4-.2.8-.5 1.2-.7 0-.5 0-.9.1-1.4-.4.2-.8.5-1.2.7 0 .5-.1.9-.1 1.4zM2089.4 538.7c0 .4 0 .9-.1 1.3l1.2-.6c0-.4 0-.9.1-1.3l-1.2.6zM2053.3 556.7c.4-.2.8-.4 1.2-.5 0-.4 0-.9.1-1.3-.4.2-.8.4-1.2.5-.1.4-.1.8-.1 1.3zM2018.8 569.5c-.4.2-.8.3-1.2.5 0 .4 0 .8-.1 1.3.4-.2.8-.3 1.2-.5.1-.4.1-.8.1-1.3zM2112.7 565c-.6.8-1.3 1.6-2 2.4 4.1-2.1 7.9-4.2 11.5-6.2 0-.5.1-.9.1-1.4-3 1.6-6.2 3.4-9.6 5.2zM2123.5 560.5c9.2-5 16.8-9.5 22.9-13.2.1-.5.1-1 .2-1.4-6 3.7-13.7 8.2-22.9 13.3-.1.3-.2.8-.2 1.3zM1947.4 631.4c0 .4-.1.8-.1 1.3 10.6-3.1 20.9-6.3 30.8-9.6 0-.4.1-.9.1-1.3-9.9 3.3-20.2 6.5-30.8 9.6zM1979.5 621.4c0 .4-.1.9-.1 1.3 12.4-4.1 24.2-8.3 35.4-12.5 0-.4.1-.9.1-1.3-11.3 4.2-23.1 8.4-35.4 12.5z"/><path class="st9" d="M2087.5 577.7c0 .5-.1.9-.1 1.4 8.4-4.1 16.2-8 23.3-11.7.7-.8 1.4-1.5 2-2.4-7.6 4-16 8.3-25.2 12.7zM2051.5 594.1c0 .4-.1.9-.1 1.3 12.6-5.4 24.2-10.7 34.8-15.8 0-.5.1-.9.1-1.4-10.6 5.2-22.2 10.5-34.8 15.9zM2016.1 608.4c0 .4-.1.9-.1 1.3 12.1-4.6 23.5-9.2 34.2-13.7 0-.4.1-.9.1-1.3-10.7 4.5-22.1 9.1-34.2 13.7zM1979.5 621.4c-.4.1-.8.3-1.2.4 0 .4-.1.9-.1 1.3.4-.1.8-.3 1.2-.4 0-.4 0-.9.1-1.3zM2122.4 559.8c0 .5-.1.9-.1 1.4.4-.2.8-.5 1.2-.7 0-.5.1-.9.1-1.4-.4.2-.8.4-1.2.7z"/><path class="st9" d="M2086.2 579.7l1.2-.6c0-.5.1-.9.1-1.4l-1.2.6c0 .5-.1.9-.1 1.4zM2050.3 594.6c0 .4-.1.9-.1 1.3.4-.2.8-.4 1.2-.5 0-.4.1-.9.1-1.3-.4.2-.8.4-1.2.5zM2014.9 608.9c0 .4-.1.9-.1 1.3.4-.2.8-.3 1.2-.5 0-.4.1-.9.1-1.3-.4.2-.8.3-1.2.5z"/></g><g><path d="M1843.9 838.3c-.7-11 7.3-20.6 18.3-21.9 45.7-5.3 96.6-13 144.4-26.3 2.3-.6 4.7-.8 7.1-.4-8.7-8.3-20.1-14.6-27.5-12.5-46.6 13.1-94.9 23.4-139.5 28.6-10.7 1.3-18.5 10.6-17.8 21.4l11.4 139.6c.3 9.4 6.9 18.7 14.7 25.8 0-.3-.1-.5-.1-.8l-11-153.5z" fill="#ffdc71"/><path class="st12" d="M1861.2 989.8l-9.4-149.3c-.5-8.2 5.5-15.3 13.7-16.2 45.2-5 94.1-15.3 141.6-28.5 2.2-.6 4.6-.7 6.9-.3 3.1.6 5.8 2 7.9 4-2.1-3.3-5-6.7-8.2-9.8-2.4-.4-4.8-.3-7.1.4-47.8 13.3-98.7 21-144.4 26.3-10.9 1.3-19 10.9-18.3 21.9l11.1 153.4c0 .3.1.5.1.8 3.9 3.5 8.1 6.4 12.1 8.5-3.5-2.6-5.7-6.6-6-11.2zM1877.5 1004.2h-2.2c1.2.2 2.2.3 3.2.3 3.4-.2 6.6-.7 9.6-1.5-3.3.4-6.6.8-9.8 1.2h-.8z"/><path class="st40" d="M2026.2 814.3c0-.3.1-.7.2-1 1-5.3-.9-10.4-4.5-13.9 2.4 3.8 4 7.6 4.1 10.9 0 .7 0 1.4-.1 2.2-.4 2.1-13.5-8.2-14.4-6.3-29.7 65.6-37.6 122-61.9 167-26.9 5.9-39.2 24.3-61.5 29.9 25.1-3.1 50.1-7.4 74.9-12.8 4.5-1 8.3-3.9 10.4-8 22.6-44.1 40.3-100.5 52.8-168zM1875.3 1004.2c-2.4-.5-5.2-1.6-8.2-3.2 2.3 1.8 5.1 3 8.2 3.2z"/><path class="st40" d="M2011.4 806.2c.9-1.9 14 8.4 14.4 6.3.1-.7.2-1.4.1-2.2-.1-3.3-1.6-7-4.1-10.9-2.1-2-4.8-3.4-7.9-4-2.3-.4-4.6-.3-6.9.3-47.5 13.2-96.4 23.5-141.6 28.5-8.2.9-14.2 8.1-13.7 16.2l9.4 149.3c.3 4.6 2.6 8.6 5.9 11.2 3 1.6 5.8 2.7 8.2 3.2.7.1 1.4.1 2.2 0 .2 0 .5 0 .7-.1 3.3-.4 6.6-.8 9.8-1.2 22.3-5.5 34.6-23.9 61.5-29.9 24.4-44.7 32.3-101.2 62-166.7z"/></g><g><path d="M614.9 377.3c-11.2-53.5-10.6-120.3-11.4-153-.1-6.3-3.4-12.2-8.7-15.7-19-12.4-63.1-42.1-82.2-59.1-6.4-4.3-14-2.3-20.1.9.5.3.9.5 1.3.9 25.8 20.3 69.1 50 86.8 61.9 4.8 3.2 7.6 8.5 7.6 14.3-.1 15.3.1 32.4.1 33.5v.4c1.2 30.7 3.2 78.5 13 133.7 6.8-3.8 13.6-9.7 13.6-17.8z" fill="#ffe080"/><path class="st12" d="M588.3 260.9c0-1.1-.2-18.2-.1-33.5 0-5.7-2.8-11.1-7.6-14.3-17.7-11.9-61-41.6-86.8-61.9-.4-.3-.9-.6-1.3-.9-6.2 3.3-10.9 7.8-10.9 7.8v.3c3-3.8 8.6-4.5 12.4-1.5 24.4 19.2 65.2 47.2 81.9 58.4 4.5 3 7.2 8 7.1 13.4-.1 14.5.1 30.6.1 31.6v.4c1.2 29.6 3.1 76 12.9 129.6.4 2 0 4.1-.9 5.9-.6 1-1.3 1.9-2.1 2.6 2.4-.9 5.4-2.2 8.3-3.8-9.8-55.3-11.7-103.1-13-133.7v-.4z"/><path class="st40" d="M505.3 338.1c-7-35.4-23.7-142.4-23.7-179.5-1 1.2-1.6 2.7-1.8 4.3-3.3 24.1-5 48.5-5 72.8-.2 35.1 3 70.1 9.6 104.5.5 2.5 2 4.7 4.2 6 13.8 8.2 62.8 36.4 94.6 53.6 3.3 1.8 7.1 1.3 9.8-.9-3.3 1.2-5.6 1.8-5.6 1.8s-76.5-59.1-82.1-62.6z"/><path class="st40" d="M596 390.5c-9.8-53.6-11.6-100-12.9-129.6v-.4c0-1-.2-17.2-.1-31.6 0-5.4-2.7-10.4-7.1-13.4-16.7-11.2-57.5-39.2-81.9-58.4-3.8-3-9.4-2.4-12.4 1.5 0 37.1 16.7 144.1 23.7 179.5 5.6 3.6 82.1 62.6 82.1 62.6s2.3-.6 5.6-1.8c.8-.7 1.6-1.5 2.1-2.6.9-1.8 1.3-3.8.9-5.8z"/></g></g></svg>