<svg id="Layer_1" viewBox="0 0 290 199.14">
  <linearGradient id="SVGID_1_" x2="290" y1="99.688" y2="99.688" gradientUnits="userSpaceOnUse">
    <stop offset="0" stop-color="#cfedf9" />
    <stop offset="0.324" stop-color="#d5eff9" />
    <stop offset="0.775" stop-color="#e7f6fc" />
    <stop offset="1" stop-color="#f3fafd" />
  </linearGradient>
  <path
    fill="url(#SVGID_1_)"
    d="M0 109.61c0-23.83 19.32-43.15 43.15-43.15.84 0 1.67.03 2.5.08 50.97.93 97.15-41.41 97.15-41.41l-.01.05C158.4 9.62 179.92 0 203.69 0 251.36 0 290 38.64 290 86.31c0 45.66-31.46 78.8-80.34 86.1-5.45.81-24.31 5.21-34.63 12.1-14.89 9.94-25.57 14.86-41.26 14.86-21.74 0-40.96-10.73-52.69-27.17-5.96-6.13-18.47-16.14-38.89-19.46C18.81 152.23 0 133.12 0 109.61z"
  />
  <path
    d="M102.51 39.58s3.56-7.63 12.71-7.63 14.24 8.13 13.22 16.27M192.06 39.58s-3.56-7.63-12.71-7.63-14.24 8.13-13.22 16.27"
    fill="#00DE91"
  />
  <path
    fill="#94c5fa"
    d="M130.2 124.75V56.69c0-12.4-11.72-21.58-23.7-18.38-.17.04-.33.09-.5.14-5.45 1.57-9.39 6.08-12.04 10.85l-31.47 57.6"
  />
  <path
    fill="#6cc4ff"
    d="M164.35 124.75V56.69c0-12.4 11.72-21.58 23.7-18.38.17.04.33.09.5.14 5.45 1.57 9.85 5.62 12.04 10.85l31.77 59.05"
  />
  <path
    fill="#3397f5"
    d="M164.55 107.68c-18.11-6.51-34.35-.39-34.35-.39v-50.6s20.02-10.94 33.97 0l.38 50.99z"
  />
  <path
    d="M164.55 123.05l4.25-14.7c-23.46-10.66-42.9.52-42.9.52l4.3 13.72c0 .01 20.15-9.88 34.35.46z"
    fill="#0058B0"
  />
  <path
    d="M130.2 124.75c0-19.63-15.91-35.54-35.54-35.54s-37.51 15.91-37.51 35.54 17.52 36.8 37.15 36.8 35.9-17.17 35.9-36.8z"
    fill="#0058B0"
  />
  <path
    d="M122.97 124.75c0-15.63-12.67-29.05-28.3-29.05s-29.48 14.58-29.48 30.21 13.02 28.58 28.65 28.58 29.13-14.11 29.13-29.74z"
    fill="#FFFFFF"
  />
  <path
    d="M103.09 116.4v3.9h-4.31v-7.43c0-2.42-1.96-4.38-4.38-4.38s-4.38 1.96-4.38 4.38v11.67h-3.79v-3.9c0-1.24-1-2.24-2.24-2.24-1.24 0-2.24 1-2.24 2.24v6.51c0 1.5 1.22 2.71 2.71 2.71H90.02V141h8.75v-15.38h6.08c1.5 0 2.71-1.22 2.71-2.71v-6.51c0-1.24-1-2.24-2.24-2.24-1.23 0-2.23 1-2.23 2.24z"
    fill="#00DE91"
  />
  <path
    d="M92.9 141.43c-.24 0-.43-.19-.43-.43v-27.7c0-.24.19-.43.43-.43s.43.19.43.43V141c.01.24-.19.43-.43.43zM96.07 141.43c-.24 0-.43-.19-.43-.43v-27.7c0-.24.19-.43.43-.43s.43.19.43.43V141c0 .24-.2.43-.43.43zM90.49 127.49h-6.51c-.24 0-.43-.19-.43-.43v-6c0-.24.19-.43.43-.43s.43.19.43.43v5.57h6.07c.24 0 .43.19.43.43.01.24-.18.43-.42.43zM105.37 123.27h-6.85c-.24 0-.43-.19-.43-.43s.19-.43.43-.43h6.42v-5.66c0-.24.19-.43.43-.43s.43.19.43.43v6.09c0 .23-.19.43-.43.43z"
    fill="#FFFFFF"
  />
  <path
    d="M237.4 124.64c.47-21.69-17.77-35.43-37.4-35.43s-35.54 15.91-35.54 35.54 16.82 36.98 36.45 36.98 36.06-17.47 36.49-37.09z"
    fill="#0058B0"
  />
  <path
    d="M230.58 124.53c0-15.63-14.96-28.08-30.59-28.08s-28.31 12.67-28.31 28.31 13.09 30.15 28.73 30.15 30.17-14.75 30.17-30.38z"
    fill="#FFFFFF"
  />
  <circle cx="200.75" cy="122.92" r="8.95" fill="#FFD840" />
  <path
    d="M200.75 135.78c-.56 0-1.13-.04-1.68-.11l.11-.86c.82.11 1.67.13 2.5.07l.06.86c-.32.03-.66.04-.99.04zm3.63-.52l-.24-.83c.8-.23 1.57-.55 2.31-.95l.41.76c-.8.43-1.63.77-2.48 1.02zm-7.91-.21c-.84-.3-1.65-.68-2.42-1.15l.45-.74c.71.43 1.47.79 2.25 1.07l-.28.82zm12.59-2.31l-.56-.66c.64-.54 1.22-1.14 1.73-1.8l.68.53c-.55.7-1.17 1.35-1.85 1.93zm-17.13-.46c-.65-.61-1.24-1.29-1.75-2.02l.71-.49c.47.68 1.02 1.32 1.63 1.89l-.59.62zm20.39-3.74l-.78-.38c.36-.75.65-1.54.85-2.34l.84.21c-.21.86-.52 1.71-.91 2.51zm-23.42-.63c-.35-.82-.61-1.68-.78-2.56l.85-.16c.16.82.4 1.62.72 2.39l-.79.33zm24.7-4.53l-.86-.03c.01-.14.01-.28.01-.42 0-.84-.09-1.67-.26-2.48l.84-.18c.18.87.27 1.76.27 2.66.01.14.01.29 0 .45zm-24.84-.68l-.86-.02c.02-.89.12-1.79.32-2.65l.84.19c-.19.82-.29 1.65-.3 2.48zm22.97-4.64c-.34-.76-.75-1.49-1.24-2.16l.7-.51c.52.72.97 1.5 1.33 2.32l-.79.35zm-21.87-.19l-.78-.36c.38-.81.84-1.58 1.37-2.29l.69.52c-.49.66-.93 1.38-1.28 2.13zm18.96-3.83c-.62-.56-1.29-1.06-2.01-1.48l.44-.75c.77.45 1.49.98 2.15 1.58l-.58.65zm-15.98-.14l-.57-.65c.67-.59 1.4-1.11 2.18-1.55l.42.75c-.72.41-1.41.9-2.03 1.45zm11.7-2.37c-.79-.26-1.61-.44-2.44-.54l.1-.86c.89.1 1.77.29 2.61.57l-.27.83zm-7.38-.06l-.26-.82c.85-.27 1.73-.44 2.62-.53l.08.86c-.82.07-1.64.24-2.44.49z"
    fill="#FFD840"
  />
  <path
    d="M217.15 141.43h-33.4c-.24 0-.43-.19-.43-.43s.19-.43.43-.43h33.4c.24 0 .43.19.43.43s-.19.43-.43.43z"
    fill="#0058B0"
  />
  <path
    d="M110.58 141.43h-33.4c-.24 0-.43-.19-.43-.43s.19-.43.43-.43h33.4c.24 0 .43.19.43.43s-.19.43-.43.43z"
    fill="#0058B0"
  />
</svg>
