<svg id="Layer_1" data-name="Layer 1" viewBox="0 0 295 202.81">
  <defs>
    <linearGradient
      id="linear-gradient"
      x1="8.04"
      y1="101.84"
      x2="298.32"
      y2="101.84"
      gradientTransform="matrix(-1 0 0 1 299.55 0)"
      gradientUnits="userSpaceOnUse"
    >
      <stop offset="0" stop-color="#f3fafd" />
      <stop offset="0.99" stop-color="#cfedf9" />
    </linearGradient>
    <clipPath id="clip-path">
      <path
        d="M291.16 111.52A43.2 43.2 0 00248 68.32c-.84 0-1.67 0-2.5.08-51 .93-97.24-41.45-97.24-41.45A86.38 86.38 0 1081.3 174.37c7.08 1.34 22.19 4.83 34.65 12.12A64.75 64.75 0 00210 174.17c6-6.13 18.49-16.15 38.93-19.48a43.18 43.18 0 0042.23-43.17z"
        fill="none"
      />
    </clipPath>
    <style>.cls-4{fill:#0058b0}</style>
  </defs>
  <path
    d="M291.51 111.78a43.2 43.2 0 00-43.2-43.2c-.84 0-1.67 0-2.5.08-51 .93-97.24-41.45-97.24-41.45a86.39 86.39 0 10-66.93 147.43c7.08 1.33 22.2 4.82 34.66 12.11a64.74 64.74 0 0094-12.32c6-6.13 18.49-16.15 38.93-19.48a43.19 43.19 0 0042.28-43.17z"
    fill="url(#linear-gradient)"
  />
  <path
    d="M156.93 145.54l-51.37 16.52L99 110.68a1.46 1.46 0 011-1.5l55.06-46.58c.6-.2 15 35.2 15.91 35.7l-13.09 45.75a1.44 1.44 0 01-.95 1.49z"
    fill="#94c5fa"
  />
  <path
    class="cls-4"
    d="M204.57 31.58L253 40.93c3.42.67 4 5.47.82 7.34l-41.31 25.39a3.59 3.59 0 01-5.44-2.29l-7.13-34.73a4.16 4.16 0 014.63-5.06zm-19.52 70.71l-4.86 5.65c-.18.3-.76-.13-.88-.66l-1.58-9.19c-.08-.38.13-.56.43-.37l6.44 3.56c.4.22.59.77.45 1.01z"
  />
  <g clip-path="url(#clip-path)">
    <path
      d="M67.22 287.18l-57.79-36.9L99 110c1.11-1.74 3.39-1.69 3.88.1l4.94 18a.91.91 0 001.14.65l19.56-5a1.81 1.81 0 012.32 1.53l3.31 20.16a.93.93 0 001.32.71l17.3-7.09a.94.94 0 011.14.28l4 5.43z"
      fill="#ffd840"
    />
    <path
      d="M108.15 128.72L42.48 231.93m92.15-85.76L68.2 250.5"
      stroke="#94c5fa"
      stroke-miterlimit="10"
      stroke-width="1.25px"
      fill="none"
    />
  </g>
  <circle class="cls-4" cx="190.6" cy="91.42" r="2.39" />
  <circle class="cls-4" cx="153.57" cy="50.77" r="2.63" />
  <circle class="cls-4" cx="189.65" cy="120.57" r="2.34" />
  <path
    class="cls-4"
    d="M155.52 62.25s-3.57 2.55-7.2 5.63c-1 .89-7.42 9.27 2.16 27.1 3.66 6.81 15 22.79 17.14 15.32 1.14-3.94 2-7 3.31-11.51a1 1 0 000-.68c-3.06-6.89-6.47-14.43-8.22-19.07-5.39-14.29-6.23-15.73-7.15-16.79"
  />
  <path
    d="M172.33 120.99v10.35m21.76-21.87l4.48 5.02m-52.33-56.15l-10.35.28"
    stroke="#00de91"
    stroke-linecap="round"
    stroke-linejoin="round"
    stroke-width="2px"
    fill="none"
  />
</svg>
