<?xml version="1.0" encoding="utf-8"?>
<!-- Generator: Adobe Illustrator 24.0.2, SVG Export Plug-In . SVG Version: 6.00 Build 0)  -->
<svg version="1.1" id="Layer_1" xmlns="http://www.w3.org/2000/svg" xmlns:xlink="http://www.w3.org/1999/xlink" x="0px" y="0px"
	 viewBox="0 0 780 670" style="enable-background:new 0 0 780 670;" xml:space="preserve">
<style type="text/css">
	.st0{fill:url(#SVGID_1_);}
	.st1{fill:#4E97EE;}
	.st2{fill:url(#SVGID_2_);}
	.st3{fill:#AAF1DA;}
	.st4{fill:#DFECFC;}
	.st5{fill:#45E1AD;}
	.st6{fill:#FFD85F;}
	.st7{fill:#306BC4;}
	.st8{fill:#ECB855;}
	.st9{fill:#FFFFFF;}
	.st10{fill:#C1A278;}
	.st11{fill:#C6A97F;}
	.st12{fill:#CCB287;}
	.st13{fill:#D1BA8E;}
	.st14{fill:#3D6CBE;}
	.st15{fill:#51E3B2;}
	.st16{fill:url(#SVGID_3_);}
	.st17{fill:#D4F8EC;}
	.st18{fill:#43DDA5;}
	.st19{fill:#14D997;}
	.st20{fill:url(#SVGID_4_);}
	.st21{fill:#0959AA;}
	.st22{clip-path:url(#SVGID_6_);fill:#3D6CBE;}
	.st23{clip-path:url(#SVGID_6_);fill:#3368B5;}
	.st24{fill:#BA9755;}
	.st25{fill:#B6914B;}
	.st26{fill:#B28B42;}
	.st27{fill:#02548C;}
	.st28{fill:#1A65B0;}
	.st29{fill:#FFDC6D;}
	.st30{clip-path:url(#SVGID_8_);fill:#FFD661;}
	.st31{fill:#FFE491;}
	.st32{fill:#33B186;}
	.st33{fill:#3FB58D;}
	.st34{fill:#5E97E7;}
	.st35{fill:#6C9FE9;}
	.st36{fill:#E3EEFA;}
</style>
<g>
	
		<linearGradient id="SVGID_1_" gradientUnits="userSpaceOnUse" x1="-831" y1="-98" x2="-830" y2="-98" gradientTransform="matrix(587.9644 0 0 -587.9644 488675.2188 -57268.3477)">
		<stop  offset="0" style="stop-color:#CFEDF9"/>
		<stop  offset="1" style="stop-color:#F5FAFD"/>
	</linearGradient>
	<path class="st0" d="M435.6,464.6c-8.6,1-17,1.7-25,1.9v16.9C420.1,480.7,428.5,474.4,435.6,464.6 M468.6,458.9
		c-8.8,2-18.1,3.7-27.4,5c-4,6.1-8.4,11.1-13.1,14.9C443.4,473.9,456.9,467.2,468.6,458.9 M345.9,457.4c12.3,9.1,26.7,16.2,43,21.4
		c5.6,1.8,11.5,3.3,17.5,4.6v-0.1v-16.9C388,466.3,365.8,462.6,345.9,457.4 M478.4,456.5l-0.2,0.1c-12.3,10.3-27.9,19.3-47.6,25.7
		c16.8-2.5,32.7-7.8,47.1-15.4L478.4,456.5 M307.8,444.6c21.4,19.6,48.5,33.1,78.5,37.7c-19.7-6.4-36.6-15.7-50.6-27.7
		c-10.1-3-19.3-6.2-26.7-9.5C308.6,444.9,308.2,444.8,307.8,444.6 M426,190.5c14.4,10.5,25.3,30.6,32.6,60.2c7.8,31.5,9.1,65,9.6,76
		c0,1,0.1,1.9,0.1,2.6c0.1,1.6,0,11.4,0,11.8c0,0.7-0.1,1.5-0.1,2.5c-0.4,11-1.7,44.5-9.4,76.1c-3.9,15.9-8.9,29.1-14.9,39.6
		c11.2-1.7,22.3-3.9,32.4-6.5c0.8-0.7,1.6-1.4,2.4-2.1l0.6-8.8c0.6-8.8,7.8-15.6,16.6-15.6h0.1c1.1,0,2.2,0,3.3,0
		c2.1-3.3,4-6.7,5.8-10.3c14.8-29.1,16.2-59.9,16.8-74.6c0,0,0.1-10.3,0-13.4c-0.7-14.8-2.1-45.6-17-74.6
		C489.3,222.9,462.8,201.8,426,190.5 M386.3,187.7c-71.6,10.7-126.7,72.7-126.7,147.3c0,39.3,15.3,75.1,40.3,101.8
		c1.7,0.7,3.4,1.5,5,2.1c2.1,0.9,4,1.7,5.8,2.5c5.3,2.3,11.4,4.6,18.2,6.8c-8.8-8.8-16.2-18.8-22.3-30.1
		c-15.2-28.3-18.1-57.1-19-76.4c0-0.5-0.1-10.6,0-13.8c0.9-19.2,3.9-48.1,19.2-76.3C323.3,220.9,350.1,199.5,386.3,187.7
		 M430.6,187.7c36.1,11.8,62.3,33.2,78,63.9c15.3,29.8,16.8,61.2,17.5,76.3c0.2,3.2,0,13.3,0,13.7c-0.7,16.8-2.3,52.4-22,84.8
		c2.1,0,4.2,0,6.2,0c5.3,0,10.5,0,15.8-0.1c19.6-25.2,31.3-56.9,31.3-91.3C557.5,260.4,502.3,198.4,430.6,187.7 M410.6,187.5v274.8
		c8.9-0.2,18.5-1,28.1-2.3c14.7-23.5,23.5-63.1,25.5-116.6c0-1,0.1-1.8,0.1-2.5c0-2.7,0.1-10.2,0-11.5c0-0.7-0.1-1.6-0.1-2.6
		C460.9,245.4,441.9,196.1,410.6,187.5 M406.5,186.5c-5.4,1.2-10.5,2.5-15.5,4c-37,11.3-64,32.4-80.6,63
		c-14.9,27.5-17.8,55.7-18.7,74.6c-0.1,3.1,0,13.4,0,13.5c0.8,18.8,3.7,47,18.5,74.5c7.2,13.4,16.5,25.1,27.7,34.8
		c21.7,6.3,47.6,11.3,68.6,11.4V187.5V186.5 M478.9,129.7c-4.2,0-8.3,0.1-12.5,0.4c-44.7,3-84.6,21.5-114.9,50l0-0.1
		c-57.2,46.5-147.4,50.4-175.9,50.4c-0.2,0-0.5,0-0.7,0c-1.7-0.1-3.4-0.1-5.2-0.1c-0.7,0-1.4,0-2.1,0c-0.6,0-1,0-1,0l0,0.1
		c-1,0-2,0.1-3,0.1c-51.3,3.4-90,47.7-86.6,99c2.1,32.3,20.6,59.7,46.7,74.6c55.3,35.4,89.1,98.5,89.1,98.5l0.3-0.6
		c23.8,43.7,70.1,72.8,122.4,72.8c3.1,0,6.2-0.1,9.4-0.3c18.4-1.2,35.7-6,51.3-13.5l-0.4,0.8c2.4-1.5,4.9-2.9,7.4-4.4
		c1.8-1,3.5-2,5.2-3c22.2-12.7,45.3-24.3,65.8-33.8l3.2-48.8c-20.7,10.5-44.1,16.4-68.8,16.4c-84.4,0-153-68.6-153-153
		c0-84.4,68.6-153,153-153c84.4,0,153,68.6,153,153c0,34.1-11.2,65.7-30.2,91.2c18.8-0.5,37.3-1.8,55.2-5.3c0.3-0.1,0.6-0.1,0.9-0.1
		c7.7,0,21.7,15.8,22.3,16.4l0,0l0,0l0,0l0,0c-0.6,4.4-1.3,8.6-2.1,12.5c30.9-29.7,51.3-69.8,56.1-114.3c-15.2,7-37.2-75.8-36-84.3
		c0.4-3.2,2.7-5.9,6.1-7.2c4.9-1.9,9.6-3.8,14.1-5.7C618.3,173.7,553.1,129.7,478.9,129.7"/>
	<circle class="st1" cx="408" cy="340.5" r="101.5"/>
	<path class="st14" d="M407.9,213.4c18.4,0,35.8-3.8,48.9-10.6c4-2.1,7.5-4.4,10.4-6.9c-1.4-0.6-2.8-1.2-4.3-1.8
		c-2.3,1.8-5,3.5-8,5.1c-12.5,6.5-29.2,10.2-47,10.2c-17.8,0-34.5-3.6-47-10.2c-3.1-1.6-5.9-3.4-8.2-5.3c-1.4,0.6-2.9,1.1-4.3,1.8
		c3,2.6,6.5,5,10.6,7.1C372.1,209.7,389.4,213.4,407.9,213.4z"/>
	<path class="st14" d="M327.9,239.6c11.4,8.3,24.3,13.5,33.2,16.5c14.8,5,32.2,8,46.6,8c15.3,0,33.4-2.9,47.3-7.6
		c20.5-6.9,42.9-20.4,51-36.2c-1.1-0.9-2.2-1.8-3.3-2.7c-5.7,11.6-22.1,25.9-49.1,35.1c-13.5,4.6-31.1,7.4-46,7.4
		c-14,0-31-2.9-45.3-7.7c-19.9-6.7-42.4-19.4-49.2-35.5c-1.1,0.9-2.2,1.8-3.3,2.7C313.2,226.5,319.2,233.2,327.9,239.6z"/>
	<path class="st14" d="M307.5,283.4c14.1,9.3,29.8,15.9,40.5,19.9c14.1,5.2,38.2,11.3,59.5,11.3c18.8,0,43.7-4.3,60.5-10.6
		c20.1-7.4,55.9-25.4,68.7-47.5c-0.8-1.3-1.6-2.7-2.5-4c-4.6,9-14.1,18.4-27.8,27.5c-11.7,7.7-26.2,15.1-39.9,20.1
		c-13.4,5-37.7,10.3-59.1,10.3c-20.8,0-44.3-6-58.1-11c-16.9-6.2-57-23.4-67.4-49c-0.9,1.4-1.8,2.7-2.7,4.1
		C284.3,264.7,293.7,274.4,307.5,283.4z"/>
	<path class="st14" d="M335,350.6c18.5,7.3,48,14.6,72.4,14.6c25.6,0,57.1-6.9,73.8-13.5c5.9-2.3,49.5-20,74.9-44.4
		c-0.3-1.6-0.6-3.2-1-4.9c-7,7.1-16.4,14.4-27.8,21.5c-20.1,12.6-40,20.9-47.7,23.9c-16.3,6.4-47.1,13.2-72.3,13.2
		c-23.7,0-53.4-7.4-70.9-14.4c-36.6-14.4-62.1-30.1-76.2-46.5c-0.4,1.6-0.7,3.3-1.1,4.9C274.2,321.4,299.5,336.6,335,350.6z"/>
	<path class="st14" d="M407.3,415.8c29.5,0,67.4-8.3,87-16.4c9.1-3.8,32.8-14,56-28c1.5-0.9,3-1.8,4.5-2.8c0.4-1.9,0.8-3.8,1.2-5.6
		c-26.1,16.8-54.9,29.2-63.2,32.6c-19.2,7.9-56.4,16.1-85.4,16.1c-27,0-62.6-8.9-83.7-17.7c-16-6.7-42.3-17.5-64.9-32.6
		c0.3,1.9,0.7,3.8,1.1,5.6c22.1,14.1,46.8,24.4,62.2,30.8C343.6,406.8,379.8,415.8,407.3,415.8z"/>
	<path class="st14" d="M309,445.1c24,10.3,66.5,21.3,98.2,21.3c34,0,78.5-10,100.2-19.3c0.8-0.3,1.5-0.7,2.3-1
		c2.8-2.6,5.5-5.3,8.1-8.1c-4.3,1.9-8.3,3.7-12.1,5.3c-21.3,9.1-65.1,19-98.6,19c-31.1,0-73-10.8-96.6-21c-1.8-0.8-3.7-1.6-5.8-2.5
		c-3.5-1.5-7.4-3.2-11.4-4.9c2.2,2.6,4.5,5.1,6.9,7.5c1,0.4,1.9,0.8,2.9,1.2C305.3,443.5,307.2,444.3,309,445.1"/>
	<path class="st14" d="M408.5,181.9c-84.4,0-153,68.6-153,153c0,84.4,68.6,153,153,153c84.4,0,153-68.6,153-153
		C561.5,250.6,492.9,181.9,408.5,181.9 M410.6,187.5c31.3,8.6,50.3,57.9,53.6,139.4c0,1,0.1,1.9,0.1,2.6c0.1,1.3,0,8.8,0,11.5
		c0,0.7-0.1,1.5-0.1,2.5c-3.1,81.8-22.1,131.2-53.6,139.9V187.5 M406.5,186.5v1v295.8v0.1c-6.1-1.3-11.9-2.9-17.5-4.6
		c-36.1-11.4-62.5-32.5-78.8-62.7c-14.8-27.6-17.6-55.8-18.5-74.5c0-0.1-0.1-10.4,0-13.5c0.9-18.8,3.8-47.1,18.7-74.6
		c16.6-30.6,43.6-51.7,80.6-63C396,189,401.1,187.7,406.5,186.5 M458.8,419.7c7.8-31.6,9-65.1,9.4-76.1c0-1,0.1-1.8,0.1-2.5
		c0-0.4,0.1-10.1,0-11.8c0-0.7-0.1-1.5-0.1-2.6c-0.4-11-1.8-44.6-9.6-76c-7.3-29.5-18.3-49.7-32.6-60.2c36.8,11.2,63.3,32.3,79,62.9
		c14.9,29,16.3,59.8,17,74.6c0.1,3.1,0,13.4,0,13.4c-0.7,14.8-2,45.6-16.8,74.6c-15.4,30.2-41.3,51.2-77.2,62.7
		C441.5,467.9,451.8,448.1,458.8,419.7 M259.6,335c0-74.6,55.1-136.5,126.7-147.3c-36.3,11.8-63,33.2-79.6,63.9
		c-15.3,28.2-18.3,57.1-19.2,76.3c-0.2,3.2,0,13.3,0,13.8c0.8,19.2,3.7,48.1,19,76.4c16.6,30.8,43.4,52.4,79.8,64.2
		C314.7,471.5,259.6,409.6,259.6,335 M430.5,482.3c90.7-29.7,94.3-112.2,95.6-140.7c0-0.4,0.1-10.5,0-13.7
		c-0.7-15.1-2.2-46.5-17.5-76.3c-15.7-30.7-41.9-52.1-78-63.9c71.7,10.7,126.8,72.7,126.8,147.3
		C557.5,409.6,502.3,471.6,430.5,482.3"/>
	<path class="st14" d="M406.5,483.3c-13.3-3.6-24.4-14.3-33.2-31.8c-4.8-9.5-8.9-21.1-12.3-34.7c-5.3-21.2-8.6-46.3-9.8-74.7l0-1.1
		c0-2.8-0.1-10.2,0-11.5l0.1-1.3c1.3-28.5,4.6-53.6,9.9-74.6c9.7-38.3,24.9-60.5,45.4-66.1v-1c-5.4,1.2-10.5,2.5-15.5,4
		c-14.8,10.7-26.1,31.5-33.8,62c-5.4,21.3-8.8,46.7-10,75.5l-0.1,1.3c-0.1,1.6,0,11.3,0,11.8l0.1,1.2c1.2,28.7,4.5,54.1,9.9,75.5
		c3.4,13.8,7.6,25.6,12.5,35.4c5.6,11.1,12,19.6,19.4,25.6C394.5,480.6,400.4,482.1,406.5,483.3L406.5,483.3z"/>
	<path class="st1" d="M125.8,426.5c-0.1-1.4-1.5,3.4-2.2-7c0,0-1.7-7,4.7-12.1c4.9-3.9,15.1-8.9,21-6.8
		c33.6,12.1,63.5,25.2,110.9,38.2c7.4,2,16.8,3.3,25.2,5.6c6.2,1.7,11.7,7.9,13.2,17.7c6,38.7,11.1,64.1,16.1,98.5
		c3.1,20.8-19.8,31.2-24.5,30.2l-11.3-5.6c0,0-20-11.8-41.6-19.1c-22.6-7.7-51.7-17.6-83.4-29.9C139.7,491.3,129.4,459,125.8,426.5z
		"/>
	<path class="st14" d="M123.8,427.8c-0.1-1.4-1.5,3.4-2.2-7c0,0-1.7-7,4.7-12.1c4.9-3.9,15.1-8.9,21-6.8
		c33.6,12.1,63.5,25.2,110.9,38.2c7.4,2,16.8,3.3,25.2,5.6c6.2,1.7,11.7,7.9,13.2,17.7c6,38.7,11.1,64.1,16.1,98.5
		c3.1,20.8-18.6,31.5-28.3,30.5l-7.5-5.8c0,0-20-11.8-41.6-19.1c-22.6-7.7-51.7-17.6-83.4-29.9C137.7,492.7,127.4,460.4,123.8,427.8
		z"/>
	<path class="st1" d="M117.4,426.8c0-0.2,0-0.5-0.1-1c-1-13.3,12.4-23,24.7-17.9c31.7,13.3,66.9,26.6,106.9,40.3
		c6.9,2.4,14.5,4.5,22.4,6.6c6.9,1.9,12.1,7.7,13.1,14.7c5.1,35.8,12.3,69.2,18,101c2.6,14.2-8.2,24.4-21.1,21.3
		c-20.8-4.9-40-10.3-56.5-15.9c-20.6-7-46.7-15.9-75.2-26.8c-5.2-2-9.2-6.3-10.7-11.6C126.4,495.9,120.8,457.3,117.4,426.8z"/>
	<path class="st15" d="M476.4,443.2c0.1-9.1,7.3-16.6,16.4-17.1c31.9-1.6,63.6-3.3,93.3-10.8c7.8-2,25,15.6,25,15.6
		c-3.2,41.7-19,58.8-25.7,92.3c-31.4,6.1-57,23.6-88.3,24.8c0,0-19.6-9.7-21.5-22.3L476.4,443.2"/>
	
		<linearGradient id="SVGID_2_" gradientUnits="userSpaceOnUse" x1="-831" y1="-98" x2="-830" y2="-98" gradientTransform="matrix(85.9375 0 0 -85.9375 71980.875 -7984.626)">
		<stop  offset="0" style="stop-color:#ACE6E6"/>
		<stop  offset="1" style="stop-color:#CCF3EA"/>
	</linearGradient>
	<path class="st2" d="M609.8,437.3L609.8,437.3L609.8,437.3 M609.8,437.2L609.8,437.2L609.8,437.2"/>
	<path class="st17" d="M498.4,548L498.4,548 M497,548.1L497,548.1 M558.7,530.9c-20,7.2-38.8,15.9-60.3,17.1
		C519.9,546.8,538.8,538.1,558.7,530.9 M583.3,523.7L583.3,523.7L583.3,523.7 M584.3,523.5l-0.1,0L584.3,523.5 M585.3,523.3
		c-0.3,0.1-0.6,0.1-0.9,0.2C584.7,523.4,585,523.3,585.3,523.3"/>
	<path class="st18" d="M599.5,422.4c-0.8,0-1.5,0.1-2.3,0.3c-28.9,5.9-60.7,10.5-91.1,12.2c-1.9,0.1-3.8,0.2-5.7,0.3l-0.2,0
		c-8.1,0.5-14.5,7.2-14.6,15.4l-0.9,84.8c0,1.8,0.3,3.5,0.8,5.1c5.6,4.6,11.4,7.5,11.5,7.6l0,0c0.5,0,1,0,1.4-0.1l0,0
		c21.5-1.2,40.3-9.9,60.3-17.1c7.9-2.8,16-5.4,24.5-7.2l0.1,0c0.3-0.1,0.5-0.1,0.8-0.2l0.1,0l0.1,0c0.3-0.1,0.6-0.1,0.9-0.2
		c6.7-33.5,22.6-50.6,25.7-92.3l0,0l0,0l0,0l0,0c-0.3-0.3-4.4-4.5-9.5-8.5C600.8,422.4,600.2,422.4,599.5,422.4"/>
	<path class="st19" d="M500.9,440c32.7-1.2,67.9-6.2,99.1-12.9c7.1-1.5,13.7,4.2,13,11.5c-2.9,33-7.1,63.4-12.3,91
		c-0.8,4.4-4.3,7.8-8.7,8.6c-30,5.5-61.9,9.4-91.4,10.5c-6.1,0.2-11.2-4.8-11.1-10.9l0.9-87.1C490.6,444.9,495.2,440.2,500.9,440z"
		/>
	<path class="st14" d="M373.2,451.5c-4.8-9.5-8.9-21.1-12.3-34.7c-5.3-21.2-8.6-46.3-9.8-74.7l0-1.1c0-2.8-0.1-10.2,0-11.5l0.1-1.3
		c1.3-28.5,4.6-53.6,9.9-74.6c9.7-38.3,24.9-60.5,45.4-66.1v-1c-5.4,1.2-10.5,2.5-15.5,4c-14.8,10.7-26.1,31.5-33.8,62
		c-5.4,21.3-8.8,46.7-10,75.5l-0.1,1.3c-0.1,1.6,0,11.3,0,11.8l0.1,1.2c1.2,28.7,4.5,54.1,9.9,75.5c3.4,13.8,7.6,25.6,12.5,35.4"/>
	<path class="st6" d="M690.1,267.8c0.4-14.3,10-30.4,10.4-44.4c0.1-3.4-21.4-6.7-26.7-3c-12.9,9.1-27.8,18-44.5,26.6
		c-3.2,1.7-5.2,4.6-5.3,7.8c-0.2,8.6-0.6,24.9-0.6,25.6l0,0.2c-1.4,18.1-1.9,34.8-7.6,58.9c-1.4,6,11.7,12.8,18.3,15.3
		c3.7,1.4,27.3-16.7,44.6-25.4c2.1-1.1,3.6-2.8,4-4.8C687.1,306,689.6,287,690.1,267.8"/>
	<path class="st29" d="M690.1,267.8c0.4-14.3,10-30.4,10.4-44.4c0.1-3.4-21.4-6.7-26.7-3c-12.9,9.1-27.8,18-44.5,26.6
		c-3.2,1.7-5.2,4.6-5.3,7.8c-0.2,8.6-0.6,24.9-0.6,25.6l0,0.2c-1.4,18.1-1.9,34.8-7.6,58.9c-1.4,6,11.7,12.8,18.3,15.3
		c3.7,1.4,27.3-16.7,44.6-25.4c2.1-1.1,3.6-2.8,4-4.8C687.1,306,689.6,287,690.1,267.8"/>
	<g>
		<defs>
			<path id="SVGID_7_" d="M690.1,267.8c0.4-14.3,10-30.4,10.4-44.4c0.1-3.4-21.4-6.7-26.7-3c-12.9,9.1-27.8,18-44.5,26.6
				c-3.2,1.7-5.2,4.6-5.3,7.8c-0.2,8.6-0.6,24.9-0.6,25.6l0,0.2c-1.4,18.1-1.9,34.8-7.6,58.9c-1.4,6,11.7,12.8,18.3,15.3
				c3.7,1.4,27.3-16.7,44.6-25.4c2.1-1.1,3.6-2.8,4-4.8C687.1,306,689.6,287,690.1,267.8"/>
		</defs>
		<clipPath id="SVGID_3_">
			<use xlink:href="#SVGID_7_"  style="overflow:visible;"/>
		</clipPath>
		<path style="clip-path:url(#SVGID_3_);fill:#FFD661;" d="M685.1,218.8c-13.6,9.6-29.3,18.9-46.9,27.9c-3.5,1.8-5.6,5-5.7,8.4
			c-0.2,9.2-0.6,26.7-0.7,27.5l0,0.2c-1.5,18.7-4,41.2-9.7,65.8c3.9,2.7,8.6,4.9,11.9,6.1c0.2,0.1,0.4,0.1,0.8,0.1
			c5.4-0.6,27.5-17.3,43.8-25.5c2.1-1.1,3.6-2.8,4-4.8c4.4-18.5,6.9-37.5,7.4-56.7c0.4-14.3,10-30.4,10.4-44.4l0-0.1
			C700.3,221.2,692.4,219.2,685.1,218.8"/>
	</g>
	<path class="st31" d="M704.8,269.3c0.4-14.3-0.3-28.5-2.1-42.5c-0.7-5.9-8.9-8.7-14.2-4.9c-12.9,9.1-27.8,18-44.5,26.6
		c-3.2,1.7-5.2,4.6-5.3,7.8c-0.2,8.6-0.6,24.9-0.6,25.6l0,0.2c-1.4,18.1-4,40.2-9.7,64.3c-1.4,6,5.9,10.8,12.3,8.2
		c17.6-7.2,35.4-15.1,52.7-23.8c2.1-1.1,3.6-2.8,4-4.8C701.8,307.5,704.2,288.6,704.8,269.3z"/>
	<path class="st32" d="M222,334.1c-7.1-33.9-7-57.2-8.4-82.6v-0.3c0-1,0.1-23.7,0.1-35.7c0-4.5-2.7-8.7-7.1-11.2
		c-21.3-11.5-41.7-24.5-61.2-38.9c-2.8-2.1-9.1-2.8-15.7-2.6c20.5,15,42,28.7,64.4,40.8c4.8,2.6,7.7,7.1,7.6,12
		c0,12.9-0.1,37.4-0.1,38.4v0.3c1.4,26.1,4.1,57.7,11,92.4C218.4,342.9,222.9,338.4,222,334.1z"/>
	<path class="st33" d="M201.6,254c0-1,0.1-25.5,0.1-38.4c0-4.9-2.8-9.4-7.6-12c-22.4-12.1-43.9-25.7-64.4-40.8
		c-4.8,0.1-9.8,0.7-13.8,1.7c3.1-0.2,6.3,0.6,8.9,2.6c19.5,14.4,39.9,27.3,61.2,38.9c4.5,2.4,7.1,6.7,7.1,11.2
		c0,12-0.1,34.8-0.1,35.8v0.3c1.3,25.4,4,56.3,11.1,90.3c0.9,4.2-1.2,7.8-4.6,10c4.1-1.7,9-4,13.1-6.7c-6.9-34.7-9.6-66.2-11-92.4
		V254z"/>
	<path class="st19" d="M134.4,317.5c-2.8-1.4-4.8-3.9-5.5-6.9c-5.5-26.2-8.2-52.8-8.2-79.5c0-20-12.9-42.8-12.9-62.5
		c0-1.6,3.3-3,8-4.1c-5.4,0.3-10.3,3.7-11.1,8.9c-3,19.6-4.5,39.5-4.5,59.3c0,26.7,2.7,53.4,8.2,79.5c0.7,3,2.7,5.5,5.5,6.9
		c23.8,12.8,48.4,24.6,72.7,35.2c4.5,2,9.4,1.3,12.9-1c-1.3,0.5-2.6,1-3.7,1.4C190.6,356.6,158.2,330.3,134.4,317.5z"/>
	<path class="st19" d="M204.1,343.4c-7.1-33.9-9.8-64.8-11.1-90.3v-0.3c0-1,0.1-23.8,0.1-35.8c0-4.5-2.7-8.7-7.1-11.2
		c-21.3-11.5-41.7-24.5-61.2-38.9c-2.6-2-5.9-2.8-8.9-2.6c-4.7,1.1-8,2.5-8,4.1c0,19.7,12.9,42.5,12.9,62.5
		c0,26.7,2.7,53.4,8.2,79.5c0.7,3,2.7,5.5,5.5,6.9c23.8,12.8,56.1,39,61.3,37.3c1.1-0.4,2.4-0.9,3.7-1.4
		C202.9,351.2,205,347.5,204.1,343.4z"/>
	<g>
		<path class="st34" d="M162,599.6c0.4-1.3,0.5-2.6,0.5-3.9l-2.7-63.8c-0.3-6.2-5.3-11.1-11.5-11.2c-24.1-0.3-49.8-3.1-73.1-7.1
			c-1.1-0.2-2.1-0.2-3.2-0.1c3.9-3.2,8.5-6.3,11.4-5.7c22.5,4.9,46.4,5.5,70.5,5.9c6.9,0.1,12.4,5.6,12.7,12.5l2.6,62.1
			c-0.8,7-8.7,12.9-13,15.7c0,0,0.1-0.1,0.1-0.1C158.3,602.6,160.2,601.2,162,599.6z"/>
		<path class="st35" d="M149,519.9c6.2,0.1,11.3,5,11.5,11.2l2.9,63.8c0.1,1.3-0.1,2.6-0.5,3.9c-1.8,1.6-4.6,3.7-6.6,5
			c1.6-1.5,2.6-3.6,2.6-5.9c0-0.1,0-0.2,0-0.4l-2.7-65.6c-0.2-4.3-3.8-7.8-8.1-7.8c-24.6-0.1-51.3-3.1-74.9-7.3
			c-3-0.5-5.8,1.5-7.6,3.8c-0.2,0.2-0.5,0.1-0.5-0.2c0-0.3,0,0,0,0c0,0,4.1-4.8,8-8c1.1-0.1,1.9-0.1,3,0.1
			C99.3,516.7,124.8,519.7,149,519.9z"/>
		<path class="st36" d="M63.7,523.5c0.2-1.2,0.7-2.2,1.3-3.1c3.4,31.1,15.7,43.6,21.5,68.6c20.1,3.3,37.2,12.7,56.2,15.7
			c3.5,0.6,7.1,0.9,10.8,0.9c0,0,1.1-0.6,2.7-1.6c-1.4,1.3-3.3,2.1-5.4,2.1c-22.2-0.1-46.3-2.3-69-5.7c-3.3-0.5-6-3-6.7-6.3
			c-4.6-20.7-8.4-43.4-11.4-68.2C63.5,525.1,63.6,524.3,63.7,523.5z"/>
		<path class="st36" d="M142.8,604.7c3.5,0.6,7.1,0.9,10.8,0.9c1-0.5,1.9-1.1,2.8-1.7c0,0-0.1,0.1-0.1,0.1c-1.6,1-2.7,1.6-2.7,1.6
			C149.9,605.5,146.3,605.2,142.8,604.7z"/>
		<path class="st36" d="M86.6,589c20,3.3,37.2,12.7,56.2,15.7C123.7,601.7,106.6,592.2,86.6,589c-5.9-25-18.1-37.5-21.5-68.6
			c0,0,0,0,0,0C68.4,551.4,80.7,563.9,86.6,589z"/>
		<path class="st36" d="M65,520.3c1.8-2.5,4.9-4,8.1-3.4c23.6,4.3,50.3,7.3,74.9,7.3c4.3,0,7.9,3.4,8.1,7.8l2.7,65.6
			c0,0.1,0,0.2,0,0.4c0,2.3-1,4.4-2.6,5.9c-0.9,0.6-1.9,1.2-2.8,1.7c-3.7,0-7.3-0.4-10.8-0.9c-19-3-36.2-12.4-56.2-15.7
			C80.7,563.9,68.4,551.4,65,520.3z"/>
	</g>
</g>
</svg>
