<?xml version="1.0" encoding="UTF-8" ?>
<svg
  width="330px"
  height="289px"
  viewBox="0 0 330 289"
  version="1.1"
  xmlns="http://www.w3.org/2000/svg"
  xmlns:xlink="http://www.w3.org/1999/xlink"
>
    <!-- Generator: Sketch 55 (78076) - https://sketchapp.com -->
    <title>Create compelling experiences</title>
    <desc>Created with Sketch.</desc>
    <defs>
        <path
      d="M158.274,6.036 L158.55,5.623 C157.148,6.332 155.736,7.033 154.316,7.725 L154.316,7.725 C153.313,8.186 152.317,8.663 151.339,9.164 L151.339,9.164 C115.417,26.3 76.163,37.916 76.163,37.916 L76.163,37.916 L77.162,38.177 C33.096,49.603 0.621,88.83 0.621,135.471 L0.621,135.471 C0.621,191.067 46.757,236.135 103.671,236.135 L103.671,236.135 C128.485,236.135 151.236,227.556 169.02,213.284 L169.02,213.284 L169.003,213.337 C202.59,190.086 253.174,191.441 268.504,192.47 L268.504,192.47 C269.833,192.628 271.176,192.74 272.535,192.796 L272.535,192.796 C272.881,192.83 273.071,192.851 273.071,192.851 L273.071,192.851 L273.086,192.809 C273.635,192.826 274.183,192.85 274.736,192.85 L274.736,192.85 C303.193,192.85 326.262,170.316 326.262,142.518 L326.262,142.518 C326.262,124.989 317.083,109.559 303.17,100.547 L303.17,100.547 C273.897,79.46 257.542,44.171 257.542,44.171 L257.542,44.171 L257.33,44.472 C245.083,18.568 218.271,0.582 187.143,0.582 L187.143,0.582 C176.934,0.582 167.193,2.522 158.274,6.036"
      id="path-1"
    />
        <linearGradient
      x1="17.6706799%"
      y1="75.6927287%"
      x2="78.3117581%"
      y2="31.8278962%"
      id="linearGradient-3"
    >
            <stop stop-color="#CFEDF9" offset="0%" />
            <stop stop-color="#F2F9FD" offset="100%" />
        </linearGradient>
        <path
      d="M56.165,20.582 C43.712,40.982 43.412,71.594 24.076,71.705 L24.076,71.705 C3.111,71.828 -3.011,88.144 2.639,98.773 L2.639,98.773 C4.641,102.539 4.753,107.038 2.606,110.723 L2.606,110.723 C-0.504,116.06 -2.389,124.141 6.426,132.221 L6.426,132.221 C21.555,146.09 46.224,149.428 68.918,133.038 L68.918,133.038 C91.61,116.65 86.564,86.429 86.564,86.429 L86.564,86.429 C86.564,86.429 104.214,159.553 144.558,146.945 L144.558,146.945 C173.581,137.876 171.939,117.061 168.73,106.094 L168.73,106.094 C167.926,103.341 170.359,100.726 173.167,101.309 L173.167,101.309 C179.862,102.699 189.31,102.436 196.25,93.994 L196.25,93.994 C218.472,66.956 182.381,49.867 182.381,49.867 L182.381,49.867 C181.194,33.839 169.335,36.619 158.005,39.398 L158.005,39.398 C148.634,41.697 139.626,43.995 137.318,35.653 L137.318,35.653 C130.387,10.6 112.258,0.036 94.351,0.037 L94.351,0.037 C79.111,0.038 64.032,7.692 56.165,20.582"
      id="path-4"
    />
        <path
      d="M158.274,6.036 L158.55,5.623 C157.148,6.332 155.736,7.033 154.316,7.725 L154.316,7.725 C153.313,8.186 152.317,8.663 151.339,9.164 L151.339,9.164 C115.417,26.3 76.163,37.916 76.163,37.916 L76.163,37.916 L77.162,38.177 C33.096,49.603 0.621,88.83 0.621,135.471 L0.621,135.471 C0.621,191.067 46.757,236.135 103.671,236.135 L103.671,236.135 C128.485,236.135 151.236,227.556 169.02,213.284 L169.02,213.284 L169.003,213.337 C202.59,190.086 253.174,191.441 268.504,192.47 L268.504,192.47 C269.833,192.628 271.176,192.74 272.535,192.796 L272.535,192.796 C272.881,192.83 273.071,192.851 273.071,192.851 L273.071,192.851 L273.086,192.809 C273.635,192.826 274.183,192.85 274.736,192.85 L274.736,192.85 C303.193,192.85 326.262,170.316 326.262,142.518 L326.262,142.518 C326.262,124.989 317.083,109.559 303.17,100.547 L303.17,100.547 C273.897,79.46 257.542,44.171 257.542,44.171 L257.542,44.171 L257.33,44.472 C245.083,18.568 218.271,0.582 187.143,0.582 L187.143,0.582 C176.934,0.582 167.193,2.522 158.274,6.036 L158.274,6.036 Z"
      id="path-6"
    />
        <path
      d="M158.274,6.036 L158.55,5.623 C157.148,6.332 155.736,7.033 154.316,7.725 L154.316,7.725 C153.313,8.186 152.317,8.663 151.339,9.164 L151.339,9.164 C115.417,26.3 76.163,37.916 76.163,37.916 L76.163,37.916 L77.162,38.177 C33.096,49.603 0.621,88.83 0.621,135.471 L0.621,135.471 C0.621,191.067 46.757,236.135 103.671,236.135 L103.671,236.135 C128.485,236.135 151.236,227.556 169.02,213.284 L169.02,213.284 L169.003,213.337 C202.59,190.086 253.174,191.441 268.504,192.47 L268.504,192.47 C269.833,192.628 271.176,192.74 272.535,192.796 L272.535,192.796 C272.881,192.83 273.071,192.851 273.071,192.851 L273.071,192.851 L273.086,192.809 C273.635,192.826 274.183,192.85 274.736,192.85 L274.736,192.85 C303.193,192.85 326.262,170.316 326.262,142.518 L326.262,142.518 C326.262,124.989 317.083,109.559 303.17,100.547 L303.17,100.547 C273.897,79.46 257.542,44.171 257.542,44.171 L257.542,44.171 L257.33,44.472 C245.083,18.568 218.271,0.582 187.143,0.582 L187.143,0.582 C176.934,0.582 167.193,2.522 158.274,6.036"
      id="path-8"
    />
        <path
      d="M158.274,6.036 L158.55,5.623 C157.148,6.332 155.736,7.033 154.316,7.725 L154.316,7.725 C153.313,8.186 152.317,8.663 151.339,9.164 L151.339,9.164 C115.417,26.3 76.163,37.916 76.163,37.916 L76.163,37.916 L77.162,38.177 C33.096,49.603 0.621,88.83 0.621,135.471 L0.621,135.471 C0.621,191.067 46.757,236.135 103.671,236.135 L103.671,236.135 C128.485,236.135 151.236,227.556 169.02,213.284 L169.02,213.284 L169.003,213.337 C202.59,190.086 253.174,191.441 268.504,192.47 L268.504,192.47 C269.833,192.628 271.176,192.74 272.535,192.796 L272.535,192.796 C272.881,192.83 273.071,192.851 273.071,192.851 L273.071,192.851 L273.086,192.809 C273.635,192.826 274.183,192.85 274.736,192.85 L274.736,192.85 C303.193,192.85 326.262,170.316 326.262,142.518 L326.262,142.518 C326.262,124.989 317.083,109.559 303.17,100.547 L303.17,100.547 C273.897,79.46 257.542,44.171 257.542,44.171 L257.542,44.171 L257.33,44.472 C245.083,18.568 218.271,0.582 187.143,0.582 L187.143,0.582 C176.934,0.582 167.193,2.522 158.274,6.036 L158.274,6.036 Z"
      id="path-10"
    />
        <path
      d="M158.274,6.036 L158.55,5.623 C157.148,6.332 155.736,7.033 154.316,7.725 L154.316,7.725 C153.313,8.186 152.317,8.663 151.339,9.164 L151.339,9.164 C115.417,26.3 76.163,37.916 76.163,37.916 L76.163,37.916 L77.162,38.177 C33.096,49.603 0.621,88.83 0.621,135.471 L0.621,135.471 C0.621,191.067 46.757,236.135 103.671,236.135 L103.671,236.135 C128.485,236.135 151.236,227.556 169.02,213.284 L169.02,213.284 L169.003,213.337 C202.59,190.086 253.174,191.441 268.504,192.47 L268.504,192.47 C269.833,192.628 271.176,192.74 272.535,192.796 L272.535,192.796 C272.881,192.83 273.071,192.851 273.071,192.851 L273.071,192.851 L273.086,192.809 C273.635,192.826 274.183,192.85 274.736,192.85 L274.736,192.85 C303.193,192.85 326.262,170.316 326.262,142.518 L326.262,142.518 C326.262,124.989 317.083,109.559 303.17,100.547 L303.17,100.547 C273.897,79.46 257.542,44.171 257.542,44.171 L257.542,44.171 L257.33,44.472 C245.083,18.568 218.271,0.582 187.143,0.582 L187.143,0.582 C176.934,0.582 167.193,2.522 158.274,6.036"
      id="path-12"
    />
        <path
      d="M158.274,6.036 L158.55,5.623 C157.148,6.332 155.736,7.033 154.316,7.725 L154.316,7.725 C153.313,8.186 152.317,8.663 151.339,9.164 L151.339,9.164 C115.417,26.3 76.163,37.916 76.163,37.916 L76.163,37.916 L77.162,38.177 C33.096,49.603 0.621,88.83 0.621,135.471 L0.621,135.471 C0.621,191.067 46.757,236.135 103.671,236.135 L103.671,236.135 C128.485,236.135 151.236,227.556 169.02,213.284 L169.02,213.284 L169.003,213.337 C202.59,190.086 253.174,191.441 268.504,192.47 L268.504,192.47 C269.833,192.628 271.176,192.74 272.535,192.796 L272.535,192.796 C272.881,192.83 273.071,192.851 273.071,192.851 L273.071,192.851 L273.086,192.809 C273.635,192.826 274.183,192.85 274.736,192.85 L274.736,192.85 C303.193,192.85 326.262,170.316 326.262,142.518 L326.262,142.518 C326.262,124.989 317.083,109.559 303.17,100.547 L303.17,100.547 C273.897,79.46 257.542,44.171 257.542,44.171 L257.542,44.171 L257.33,44.472 C245.083,18.568 218.271,0.582 187.143,0.582 L187.143,0.582 C176.934,0.582 167.193,2.522 158.274,6.036"
      id="path-14"
    />
        <path
      d="M83.307,17.516 C62.439,18.675 54.681,6.857 54.681,6.857 L54.681,6.857 C41.271,9.836 30.857,12.232 21.918,34.582 L21.918,34.582 C15.231,51.298 0.918,92.581 0.918,92.581 L0.918,92.581 C0.918,92.581 7.212,97.614 12.918,106.582 L12.918,106.582 C19.919,117.582 17.918,134.582 17.918,134.582 L17.918,134.582 L41.918,90.582 C41.918,90.582 44.918,105.582 46.918,113.582 L46.918,113.582 C50.432,127.637 52.036,144.966 49.686,150.841 L49.686,150.841 C46.706,158.291 39.781,176.714 39.781,176.714 L39.781,176.714 C39.781,176.714 66.601,173.734 85.97,181.184 L85.97,181.184 C105.34,188.634 158.979,170.755 158.979,170.755 L158.979,170.755 C158.979,170.755 155.999,154.364 150.039,130.525 L150.039,130.525 C146.902,117.976 145.175,101.018 144.706,93.981 L144.706,93.981 C144.26,91.083 143.749,86.652 143.918,84.581 L143.918,84.581 C144.045,83.033 151.748,82.56 152.918,83.581 L152.918,83.581 L172.577,100.99 C172.577,100.99 170.598,82.329 173.918,74.581 L173.918,74.581 C176.918,67.581 180.918,65.581 180.918,65.581 L180.918,65.581 C180.918,65.581 159.918,17.582 141.1,8.346 L141.1,8.346 C130.315,3.053 112.79,0.896 112.79,0.896 L112.79,0.896 C112.79,0.896 104.176,16.357 83.307,17.516 L83.307,17.516 Z M144.706,93.981 C145.202,97.209 145.616,98.536 144.918,92.581 L144.918,92.581 C144.767,91.294 144.665,90.711 144.613,90.711 L144.613,90.711 C144.539,90.71 144.568,91.92 144.706,93.981 L144.706,93.981 Z"
      id="path-16"
    />
        <polygon id="path-18" points="0.9929 0.543 67.3139 0.543 67.3139 69.2955 0.9929 69.2955" />
    </defs>
    <g id="Iconography" stroke="none" stroke-width="1" fill="none" fill-rule="evenodd">
        <g id="IC-1-Create-compelling-experiences" transform="translate(-50.000000, -15.000000)">
            <g id="Create-compelling-experiences" transform="translate(50.000000, 15.000000)">
                <g id="Group-3" transform="translate(3.000000, 52.457000)">
                    <mask id="mask-2" fill="white">
                        <use xlink:href="#path-1" />
                    </mask>
                    <g id="Clip-2" />
                    <path
            d="M158.274,6.036 L158.55,5.623 C157.148,6.332 155.736,7.033 154.316,7.725 L154.316,7.725 C153.313,8.186 152.317,8.663 151.339,9.164 L151.339,9.164 C115.417,26.3 76.163,37.916 76.163,37.916 L76.163,37.916 L77.162,38.177 C33.096,49.603 0.621,88.83 0.621,135.471 L0.621,135.471 C0.621,191.067 46.757,236.135 103.671,236.135 L103.671,236.135 C128.485,236.135 151.236,227.556 169.02,213.284 L169.02,213.284 L169.003,213.337 C202.59,190.086 253.174,191.441 268.504,192.47 L268.504,192.47 C269.833,192.628 271.176,192.74 272.535,192.796 L272.535,192.796 C272.881,192.83 273.071,192.851 273.071,192.851 L273.071,192.851 L273.086,192.809 C273.635,192.826 274.183,192.85 274.736,192.85 L274.736,192.85 C303.193,192.85 326.262,170.316 326.262,142.518 L326.262,142.518 C326.262,124.989 317.083,109.559 303.17,100.547 L303.17,100.547 C273.897,79.46 257.542,44.171 257.542,44.171 L257.542,44.171 L257.33,44.472 C245.083,18.568 218.271,0.582 187.143,0.582 L187.143,0.582 C176.934,0.582 167.193,2.522 158.274,6.036"
            id="Fill-1"
            fill="url(#linearGradient-3)"
            mask="url(#mask-2)"
          />
                </g>
                <path
          d="M280.381,94.3238 C280.381,94.3238 316.473,111.4128 294.249,138.4508 C287.31,146.8928 277.862,147.1558 271.167,145.7658 C268.36,145.1828 265.926,147.7988 266.731,150.5518 C269.939,161.5178 271.581,182.3328 242.558,191.4018 C202.214,204.0098 184.564,130.8868 184.564,130.8868 C184.564,130.8868 189.61,161.1058 166.917,177.4958 C144.224,193.8858 119.555,190.5478 104.426,176.6778 C95.611,168.5978 97.496,160.5168 100.606,155.1798 C102.753,151.4948 102.641,146.9968 100.639,143.2298 C94.988,132.6008 101.111,116.2848 122.076,116.1628 C141.411,116.0508 141.712,85.4388 154.164,65.0388 C171.276,37.0048 222.488,33.7348 235.318,80.1098 C240.417,98.5388 278.214,65.0388 280.381,94.3238"
          id="Fill-4"
          fill="#457ACA"
        />
                <g id="Group-8" transform="translate(98.000000, 44.457000)">
                    <mask id="mask-5" fill="white">
                        <use xlink:href="#path-4" />
                    </mask>
                    <g id="Clip-7" />
                    <path
            d="M100.9182,-4.4183 C145.1052,0.0007 200.9182,37.5817 211.9182,57.5817 C222.9182,77.5817 221.9182,96.5817 207.9182,109.5817 C193.9182,122.5817 157.9182,152.5817 157.9182,152.5817 C157.9182,152.5817 95.9182,143.5817 89.9182,128.5817 C83.9182,113.5817 89.9182,55.5817 89.9182,55.5817 C49.9182,98.5817 36.9182,40.5817 52.9182,10.5817 C55.6602,5.4407 90.7932,-5.4313 100.9182,-4.4183"
            id="Fill-6"
            fill="#4E97EE"
            mask="url(#mask-5)"
          />
                </g>
                <path
          d="M299.6037,131.8141 C299.3057,132.1341 300.6407,127.6401 302.7467,124.4821 C306.9357,118.1991 307.9827,107.7251 307.9827,106.6771 C307.9827,103.7151 304.8407,107.7251 301.6987,116.1041 C299.8237,121.1041 296.4617,124.4821 292.7037,129.6681 C292.2677,130.2681 291.3217,129.9211 291.3947,129.1831 C291.5367,127.7661 292.4077,119.5771 292.2727,117.1511 C291.2257,98.2991 289.4907,106.2881 289.1307,107.7251 C288.0827,111.9151 288.0827,119.2461 288.0827,119.2461 C283.9177,128.0391 283.9177,128.0391 281.9177,133.0391 C280.7587,135.9361 279.6457,135.5541 276.9177,134.0391 C267.9177,129.0391 259.9177,130.0391 258.9177,131.0391 C256.8237,133.1331 267.5577,132.7431 272.9177,145.0391 C277.4457,155.4231 279.8717,166.4701 280.9177,179.0391 C280.9177,179.0391 289.9177,178.0391 296.9177,190.0391 C296.9177,190.0391 291.2257,169.5181 292.2727,162.1861 C293.3207,154.8551 300.4887,148.9371 306.9357,138.0981 C312.9177,128.0391 313.9177,124.0391 313.9177,124.0391 C312.1887,123.1731 307.8537,131.2761 304.8157,133.2401 C304.6397,133.3531 304.4427,133.1281 304.5797,132.9701 C304.5797,132.9701 310.0777,126.5771 311.1247,124.4821 C312.1717,122.3871 313.2197,111.9151 313.2197,111.9151 C311.1247,110.8671 310.0777,118.1991 307.9827,121.3401"
          id="Fill-9"
          fill="#BD9C5D"
        />
                <g id="Group-19" transform="translate(141.000000, 64.457000)">
                    <path
            d="M76.5148,102.1315 C63.1048,97.6615 58.6348,91.7015 57.1448,82.7615 C55.6558,73.8215 59.5378,51.5935 59.5378,51.5935 L6.4858,69.3515 C6.4858,69.3515 25.8558,81.1655 25.8558,91.7015 C25.8558,106.6015 13.9358,106.6015 13.9358,106.6015 C13.9358,106.6015 18.4058,139.3805 48.2048,136.4015 C78.0048,133.4205 76.5148,102.1315 76.5148,102.1315"
            id="Fill-11"
            fill="#B18A40"
          />
                    <path
            d="M63.8498,47.7467 C63.8498,47.7467 60.8708,65.6267 42.9908,74.5667 C25.1108,83.5067 7.9758,75.3107 3.5058,67.8617 C-0.9632,60.4117 -0.9632,26.1427 15.4258,11.2427 C31.8158,-3.6573 53.3968,-2.8133 61.2138,9.6947 C73.8218,29.8667 63.8498,47.7467 63.8498,47.7467"
            id="Fill-13"
            fill="#BD9C5D"
          />
                    <path
            d="M63.9787,40.7399 C72.7907,37.3169 77.2597,49.2369 69.8097,55.1969 C62.3607,61.1569 57.8897,65.6269 51.9297,62.6469 C45.9697,59.6669 63.9787,40.7399 63.9787,40.7399"
            id="Fill-15"
            fill="#BD9C5D"
          />
                    <path
            d="M13.1906,28.3776 C7.2306,31.3566 1.2706,32.8476 1.2706,37.3166 C1.2706,41.7866 7.2306,47.7466 7.2306,44.7676 C7.2306,41.7866 13.1906,28.3776 13.1906,28.3776"
            id="Fill-17"
            fill="#B18A40"
          />
                </g>
                <g id="Group-32" transform="translate(3.000000, 52.457000)">
                    <g id="Group-22">
                        <mask id="mask-7" fill="white">
                            <use xlink:href="#path-6" />
                        </mask>
                        <g id="Clip-21" />
                        <path
              d="M131.8205,208.7448 C127.3505,217.6848 113.9415,241.5248 110.9615,245.9948 C107.9815,250.4648 91.5915,219.1758 91.5915,219.1758 L110.9615,177.4558 L131.8205,208.7448 Z"
              id="Fill-20"
              fill="#B18A40"
              mask="url(#mask-7)"
            />
                    </g>
                    <g id="Group-25">
                        <mask id="mask-9" fill="white">
                            <use xlink:href="#path-8" />
                        </mask>
                        <g id="Clip-24" />
                        <path
              d="M100.5314,244.5045 C94.9974,242.2915 78.9014,230.6125 70.7314,219.1755 C48.3824,187.8855 35.2294,156.3405 35.2294,156.3405 L46.8224,151.7035 C46.8224,151.7035 62.1784,174.7815 100.9184,204.5815 C111.8064,212.9575 117.4084,232.6425 115.9184,241.5815 C114.9384,247.4605 107.9814,247.4845 100.5314,244.5045"
              id="Fill-23"
              fill="#B18A40"
              mask="url(#mask-9)"
            />
                    </g>
                    <g id="Group-28">
                        <mask id="mask-11" fill="white">
                            <use xlink:href="#path-10" />
                        </mask>
                        <g id="Clip-27" />
                        <path
              d="M239.0998,178.9459 C261.4498,198.3149 276.3488,222.1549 283.7988,228.1149 C289.6168,232.7689 303.1688,204.2749 303.1688,204.2749 C303.1688,204.2749 286.7798,186.3949 276.3488,172.9859 C265.9188,159.5759 256.9798,147.6559 256.9798,147.6559 L239.0998,178.9459 Z"
              id="Fill-26"
              fill="#B18A40"
              mask="url(#mask-11)"
            />
                    </g>
                    <g id="Group-31">
                        <mask id="mask-13" fill="white">
                            <use xlink:href="#path-12" />
                        </mask>
                        <g id="Clip-30" />
                        <path
              d="M276.9182,111.5817 L287.6392,114.3957 C287.6392,114.3957 308.7052,186.8057 307.6392,202.7847 C306.5722,218.7657 298.6982,234.0747 295.7192,234.0747 C289.7402,234.0747 283.7992,231.0947 273.3692,216.1947 C270.3712,211.9117 283.0312,185.2777 278.9182,143.5817 C277.7442,131.6827 276.9182,111.5817 276.9182,111.5817"
              id="Fill-29"
              fill="#B18A40"
              mask="url(#mask-13)"
            />
                    </g>
                </g>
                <path
          d="M181.9182,65.0387 C199.9182,82.0387 186.6262,103.2977 200.5382,106.7747 C213.7032,110.0657 222.5652,100.9777 222.5652,100.9777 L208.6532,61.5597 L181.9882,58.0827 L181.9182,65.0387 Z"
          id="Fill-33"
          fill="#4E97EE"
        />
                <path
          d="M49.8215,204.7789 C47.8555,194.9479 52.5375,187.7259 57.9555,182.8299 C60.6345,180.4089 64.8705,180.0419 64.9185,176.4309 C61.0635,175.3389 55.3845,176.9819 52.5615,179.8259 C50.2375,182.1679 49.3295,183.3319 46.9645,184.3939 C46.0365,184.8109 44.9275,184.3399 44.5995,183.3769 C42.3165,176.6929 41.2905,169.1879 40.1125,162.2909 C39.0995,156.3549 36.7305,150.1329 32.3205,146.2999 C31.1895,145.3179 29.5015,146.4509 30.0135,147.8579 C31.2265,151.1919 31.9785,154.0029 33.0915,158.1739 C34.1965,162.3189 35.2475,167.1369 34.2865,171.3189 C33.0915,172.5129 32.3015,170.5519 31.8965,170.1239 C30.4715,168.6209 29.3535,168.3449 27.4255,169.0989 C25.4185,169.8849 25.9215,173.7089 25.9215,176.0989 C25.9215,179.6839 28.3105,180.8789 21.6105,176.5369 C21.1135,176.2159 20.4585,176.7819 19.9455,177.2939 C18.1425,179.0959 18.7695,180.2039 19.9185,181.8519 C20.2575,182.3389 19.9405,183.0099 19.3515,183.0739 C17.5545,183.2689 16.9455,183.2959 16.3605,184.4639 C16.3605,186.8539 27.9185,203.0389 36.6755,208.3649 C44.0395,212.8419 51.0165,210.7549 49.8215,204.7789"
          id="Fill-35"
          fill="#B18A40"
        />
                <path
          d="M285.9182,154.0387 C277.9182,152.0387 276.9182,144.0387 271.9182,139.0387 C267.3912,134.5117 260.9182,133.0387 260.9182,133.0387 C262.9182,135.0387 269.9182,138.0387 272.9182,145.0387 C277.3812,155.4517 279.8712,166.4707 280.9182,179.0387 C280.9182,179.0387 289.9182,178.0387 296.9182,190.0387 C296.9182,190.0387 291.2262,169.5177 292.2722,162.1857 C293.3202,154.8547 300.4882,148.9367 306.9362,138.0987 C312.9182,128.0387 309.9182,132.0387 309.9182,132.0387 C306.9182,137.0387 295.9062,156.5357 285.9182,154.0387"
          id="Fill-37"
          fill="#B18A40"
        />
                <g id="Group-45" transform="translate(15.000000, 167.457000)" fill="#BD9C5D">
                    <path
            d="M12.1164,1.4713 C14.9294,-0.4037 18.0914,2.6663 20.4814,9.8363 C22.5164,15.9423 20.4814,17.0063 19.2864,15.8123 C18.0914,14.6173 8.5314,3.8623 12.1164,1.4713"
            id="Fill-39"
          />
                    <path
            d="M3.7512,8.6422 C5.7782,5.9382 14.5062,13.4212 16.8972,15.8122 C19.2862,18.2022 15.7012,19.3972 13.3112,18.2022 C10.9212,17.0062 0.1662,13.4212 3.7512,8.6422"
            id="Fill-41"
          />
                    <path
            d="M1.6115,14.2155 C3.3365,11.3095 9.6985,18.3915 11.9975,19.7545 C14.2955,21.1175 12.8485,23.0835 9.4415,21.9675 C4.7595,20.4325 -1.1155,18.8125 1.6115,14.2155"
            id="Fill-43"
          />
                </g>
                <g id="Group-59" transform="translate(0.000000, 41.457000)">
                    <g id="Group-52" transform="translate(0.000000, 71.000000)">
                        <polygon
              id="Fill-46"
              fill="#00DE91"
              opacity="0.74655878"
              points="67.299 39.7037 4.841 50.2957 0 12.7037 57.936 0.5697"
            />
                        <path
              d="M44.5949,23.2604 C43.3689,16.7484 37.0969,12.4644 30.5859,13.6904 C24.0739,14.9164 19.7899,21.1894 21.0159,27.6994 C22.2419,34.2114 28.5149,38.4954 35.0259,37.2704 C41.5369,36.0434 45.8219,29.7714 44.5949,23.2604"
              id="Fill-48"
              fill="#FFFFFF"
            />
                        <polygon
              id="Fill-50"
              fill="#00DE91"
              points="39.2863 24.2594 27.7763 20.2204 30.0333 32.2084"
            />
                    </g>
                    <path
            d="M52.278,-3.55271368e-15 C42.409,-3.55271368e-15 34,8.136 34,18.005 C34,27.874 43.499,37.92 53.369,37.92 C63.239,37.92 70.556,25.965 70.556,16.095 C70.556,6.226 62.148,-3.55271368e-15 52.278,-3.55271368e-15 Z"
            id="Fill-53"
            fill="#6CC4FF"
            opacity="0.8539109"
          />
                    <polygon
            id="Fill-55"
            fill="#FFD840"
            opacity="0.848772321"
            points="276.5578 60.0045 290.8228 26.3715 255.8888 31.1025"
          />
                </g>
                <g id="Group-62" transform="translate(3.000000, 52.457000)">
                    <mask id="mask-15" fill="white">
                        <use xlink:href="#path-14" />
                    </mask>
                    <g id="Clip-61" />
                    <path
            d="M210.7902,111.8961 C210.7902,111.8961 238.6562,112.9311 247.9182,120.5821 C270.9182,139.5821 278.9182,176.5821 278.9182,176.5821 C278.9182,176.5821 274.9182,178.5821 271.9182,185.5821 C268.5982,193.3291 270.5772,211.9901 270.5772,211.9901 L250.9182,194.5821 C249.7482,193.5601 242.0452,194.0341 241.9182,195.5821 C241.5612,199.9581 244.2432,214.8821 242.9182,203.5821 C241.8082,194.1081 243.3462,222.7501 248.0392,241.5251 C253.9992,265.3641 256.9792,281.7541 256.9792,281.7541 C256.9792,281.7541 203.3402,299.6341 183.9702,292.1841 C164.6012,284.7341 137.7802,287.7141 137.7802,287.7141 C137.7802,287.7141 144.7062,269.2921 147.6862,261.8411 C150.0362,255.9661 148.4322,238.6361 144.9182,224.5821 C142.9182,216.5821 139.9182,201.5821 139.9182,201.5821 L115.9182,245.5821 C115.9182,245.5821 117.9182,228.5821 110.9182,217.5821 C105.2112,208.6141 98.9182,203.5821 98.9182,203.5821 C98.9182,203.5821 107.2312,165.2971 113.9182,148.5821 C122.8572,126.2321 139.2702,120.8361 152.6812,117.8561 C152.6812,117.8561 160.4382,129.6751 181.3072,128.5161 C202.1762,127.3571 210.7902,111.8961 210.7902,111.8961"
            id="Fill-60"
            fill="#2E5078"
            mask="url(#mask-15)"
          />
                </g>
                <g id="Group-65" transform="translate(101.000000, 163.457000)">
                    <mask id="mask-17" fill="white">
                        <use xlink:href="#path-16" />
                    </mask>
                    <g id="Clip-64" />
                    <path
            d="M46.9182,5.5817 C46.9182,5.5817 58.9182,28.5817 85.9182,25.5817 C112.9182,22.5817 121.9182,-3.4183 121.9182,-3.4183 L46.9182,5.5817 Z"
            id="Fill-63"
            fill="#4B698B"
            mask="url(#mask-17)"
          />
                </g>
                <g id="Group-68" transform="translate(99.000000, 0.000000)">
                    <mask id="mask-19" fill="white">
                        <use xlink:href="#path-18" />
                    </mask>
                    <g id="Clip-67" />
                    <polygon
            id="Fill-66"
            fill="#94C5FA"
            opacity="0.803106399"
            mask="url(#mask-19)"
            points="48.3019 69.2955 0.9929 50.2825 21.1109 0.5425 67.3139 13.3645"
          />
                </g>
            </g>
        </g>
    </g>
</svg>
