<svg width="30" height="30" viewBox="0 0 30 30">
  <g>
    <g fill-rule="evenodd" fill="none">
      <rect width="30" height="30" x="0" y="0" fill="#0BAA75" rx="4" />
      <g>
        <polygon points="1,1 29,1 29,29 1,29" />
        <path
          fill="#FFFFFF"
          fill-rule="nonzero"
          d="M23.19,12.6666667 L23.19,23.1666667 L6.83333333,23.1666667 L6.83333333,6.83333333 L17.3333333,6.83333333 L17.3333333,4.5 L6.856666669999999,4.5 C5.5733333300000005,4.5 4.52333333,5.550000000000001 4.52333333,6.83333333 L4.52333333,23.1666667 C4.52333333,24.45 5.5733333300000005,25.5 6.856666669999999,25.5 L23.19,25.5 C24.4733333,25.5 25.5233333,24.45 25.5233333,23.1666667 L25.5233333,12.6666667 L23.19,12.6666667 zM20.8333333,12.6666667 L21.93,10.26333333 L24.3333333,9.16666667 L21.93,8.07 L20.8333333,5.66666667 L19.7366667,8.07 L17.3333333,9.16666667 L19.7366667,10.26333333 L20.8333333,12.6666667 z"
        />
        <polygon
          fill="#FFFFFF"
          points="9.166999816894531,21.09000015258789 12.083000183105469,17.415000915527344 14.172000885009766,19.92300033569336 17.08799934387207,16.16699981689453 20.83300018310547,21.09000015258789"
        />
      </g>
    </g>
  </g>
</svg>
