<svg data-name="Layer 1" xmlns:xlink="http://www.w3.org/1999/xlink" viewBox="0 0 320 199.59">
  <defs>
    <linearGradient id="a" y1="99.8" x2="300.73" y2="99.8" gradientUnits="userSpaceOnUse">
      <stop offset="0" stop-color="#cfedf9" />
      <stop offset="0.33" stop-color="#d5effa" />
      <stop offset="0.78" stop-color="#e8f6fc" />
      <stop offset="1" stop-color="#f3fafd" />
    </linearGradient>
  </defs>
  <path
    d="M300.61 106.79a44.89 44.89 0 0 0-29.72-38.89 42.92 42.92 0 0 0-4.53-1.33c-24.36-8.26-34.82-30.18-34.82-30.18A67.13 67.13 0 0 0 141 7.51 120.3 120.3 0 0 1 87.7 20.6c-.79 0-1.58 0-2.38.08C38.21 22.83.57 61.83 0 109a89.49 89.49 0 0 0 143.2 72.68l1-.8c7.53-5.65 54.3-38.88 98-28.19 1.26.4 2.55.76 3.86 1.05a44.76 44.76 0 0 0 54.46-47z"
    transform="translate(0)"
    fill="url(#a)"
  />
  <polygon points="76.99 162.52 15.48 137.8 41.63 73.12 101.71 89.8 76.99 162.52" fill="#94c5fa" />
  <polygon points="75.14 143.65 26.98 126.59 43.65 80.31 92.38 96.01 75.14 143.65" fill="#fff" />
  <path
    d="M136.77 175.2c-15.77-2.66-21-11.51-21.81-22.83-.71-10.19 5.36-19.74 6.45-24s.8-8.8.67-12.78 4.61-17.07 4.61-17.07l2.24 1.41 2.2-5.68c6.59-12.62 11.65-21 25.89-25.79 14-4.71 21.66 5.09 21.66 5.09s-11.12-.71-24.7 11.27c-15.63 13.78-18.77 42-18.77 42l1.56 48.31"
    fill="#3397f5"
  />
  <path
    d="M152.55 64a39.65 39.65 0 0 0-12.47 9.55c-11.51 12.82-13.58 25.19-13.58 25.19s1.86 2.31 3.69 1.76 6.31-24.57 24.41-31.14"
    fill="#94c5fa"
  />
  <ellipse
    cx="138.62"
    cy="152.04"
    rx="18.78"
    ry="24.14"
    transform="translate(-1.11 1.01) rotate(-0.42)"
    fill="#6eb2f8"
  />
  <ellipse
    cx="144.97"
    cy="152.6"
    rx="18.78"
    ry="24.14"
    transform="translate(-1.11 1.06) rotate(-0.42)"
    fill="#94c5fa"
  />
  <ellipse
    cx="145.59"
    cy="152.65"
    rx="8.04"
    ry="10.33"
    transform="translate(-1.11 1.07) rotate(-0.42)"
    fill="#0074d3"
  />
  <polygon points="320 106.33 241.25 135.09 225.94 87.32 298.44 57.65 320 106.33" fill="#00de91" />
  <circle cx="271.7" cy="96.09" r="15.88" fill="#fff" />
  <polygon points="279.84 92.95 263.89 90.45 269.7 105.51 279.84 92.95" fill="#00de91" />
  <path
    d="M146.68 74.85q-11 0-22.29-.59c-59.26-3.14-105.1-17.75-105.56-17.9l.28-.85c.45.15 46.2 14.73 105.35 17.85 34.73 1.84 67.23-.58 96.58-7.17 36.66-8.24 68.5-23.07 94.62-44.08l.56.7c-26.23 21.09-58.19 36-95 44.26a340.66 340.66 0 0 1-74.54 7.78z"
    fill="#0058b0"
  />
  <polygon points="60.12 138.38 65.31 122.12 62.26 121 55.15 136.6 60.12 138.38" fill="#0074d3" />
  <rect
    x="58.92"
    y="125.83"
    width="5.75"
    height="1.92"
    transform="translate(47.52 -13.53) rotate(20.18)"
    fill="#3397f5"
  />
  <path
    d="M70.15 85.7l-1.08-.43a3.79 3.79 0 0 1-2.14-4.9l6.72-18.06c.77-2 3.67-3.77 5.62-3l1.08.42a3.8 3.8 0 0 1 2.14 4.91l-6.31 17.23c-.77 1.95-4.08 4.59-6.03 3.83z"
    fill="#ffd840"
  />
  <rect
    x="254.36"
    y="51.16"
    width="8.73"
    height="27.9"
    rx="4.23"
    transform="translate(-5.56 101.61) rotate(-21.99)"
    fill="#179271"
  />
  <path
    d="M206.32 144.64s-2.67-9.23-1-13.68c1-2.54 2.32-6.19 3.31-8.84a18.06 18.06 0 0 0 1.1-7.06L209 99.52 193.74 96l-2 1.09a2.1 2.1 0 0 0-1.09 2l.47 6.13a4.52 4.52 0 0 1-1.37 3.61 2.6 2.6 0 0 0-.74 2.44c.79 3.62 2.43 13.25-1.4 16.87-7.72 7.28-23 19.74-22.78 37.46s12.61 16.79 16.11 16.73"
    fill="#3397f5"
  />
  <path
    d="M193.94 96s-3.51-31.16-27.81-34.6c0 0 9.35-1.93 25.44 7.21s17.36 31 17.36 31"
    fill="#0058b0"
  />
  <path
    d="M154.6 69.36a27.31 27.31 0 0 1 10.6-1.62c19.22.78 22.42 24.75 26.27 29m-20.06-35.35s-5.82-1-13.58 2.65"
    fill="none"
  />
  <path
    d="M152.55 64c7.76-3.66 13.58-2.65 13.58-2.65s21.72-.16 27.75 34.63l-2.41 1.2c-3.85-4.19-7.05-28.7-26.27-29.48a27.31 27.31 0 0 0-10.6 1.62"
    fill="#94c5fa"
  />
  <path
    d="M182 133.34s-11.11-2.12-18.38 9.93-9.4 28.66 6.8 36.56c0 0-8.57-9.84-3.07-26.17 3.4-10.21 14.65-20.32 14.65-20.32z"
    fill="#6eb2f8"
  />
  <path
    d="M52.23 108.75a2.46 2.46 0 0 0-1-.16 3.45 3.45 0 0 0 .24-.47 3.11 3.11 0 0 0-5.4-3 2.81 2.81 0 0 0-.39-.19 3.113 3.113 0 0 0-2.21 5.82c1.33.51 5.67 2.13 7 2.61a2.49 2.49 0 0 0 1.77-4.65z"
    fill="#94c5fa"
  />
  <ellipse
    cx="188.18"
    cy="159"
    rx="25.24"
    ry="16.1"
    transform="translate(-43.67 242.28) rotate(-59.96)"
    fill="#0058b0"
  />
  <path
    d="M199.24 165.85c-5.53 9.57-14.91 13.33-19.55 10.68-5.54-3.17-7.53-13.76-2-23.33s14.86-13.66 20.89-10.17 6.2 13.25.66 22.82z"
    fill="#ffd840"
  />
  <circle cx="65.61" cy="116.41" r="6.42" fill="#6cc4ff" />
  <line
    x1="59.38"
    y1="114.98"
    x2="71.29"
    y2="119.35"
    style="fill:none;stroke:#fff;stroke-miterlimit:10;stroke-width:0.75px"
  />
  <line
    x1="59.12"
    y1="117.4"
    x2="69.92"
    y2="121.37"
    style="fill:none;stroke:#fff;stroke-miterlimit:10;stroke-width:0.75px"
  />
  <rect
    x="66.34"
    y="106.63"
    width="4.37"
    height="3.69"
    transform="translate(-56.92 135.38) rotate(-69.82)"
    fill="#0074d3"
  />
  <line
    x1="69.32"
    y1="106.47"
    x2="73.79"
    y2="94.29"
    style="fill:none;stroke:#0058b0;stroke-miterlimit:10;stroke-width:0.75px"
  />
</svg>
