<svg width="24px" height="24px" viewBox="0 0 24 24" xmlns="http://www.w3.org/2000/svg" xmlns:xlink="http://www.w3.org/1999/xlink">
    <title>nav-user-oauth</title>
    <g transform="translate(1.000000, 1.000000)" fill="#000000" >
        <path d="M5.53846154,16.6923077 C2.49230769,16.6923077 0,14.2 0,11.1538462 C0,8.10769231 2.49230769,5.61538462 5.53846154,5.61538462 C7.84615385,5.61538462 9.96923077,7.09230769 10.8,9.30769231 L17.5384615,9.30769231 C17.6307692,9.30769231 17.8153846,9.4 17.9076923,9.4 L19.2923077,10.7846154 C19.4769231,10.9692308 19.4769231,11.2461538 19.2923077,11.4307692 L17.9076923,12.8153846 C17.8153846,12.9076923 17.6307692,13 17.5384615,13 L16.3384615,13 L15.5076923,13.8307692 C15.3230769,14.0153846 15.0461538,14.0153846 14.8615385,13.8307692 L14.1230769,13 L13.5692308,13 L12.7384615,13.8307692 C12.5538462,14.0153846 12.2769231,14.0153846 12.0923077,13.8307692 L11.3538462,13 L10.8,13 C9.96923077,15.2153846 7.84615385,16.6923077 5.53846154,16.6923077 Z M5.53846154,6.53846154 C2.95384615,6.53846154 0.923076923,8.56923077 0.923076923,11.1538462 C0.923076923,13.7384615 2.95384615,15.7692308 5.53846154,15.7692308 C7.56923077,15.7692308 9.41538462,14.3846154 9.96923077,12.4461538 C10.0615385,12.2615385 10.2461538,12.0769231 10.4307692,12.0769231 L11.5384615,12.0769231 C11.6307692,12.0769231 11.8153846,12.1692308 11.9076923,12.1692308 L12.4615385,12.7230769 L13.0153846,12.1692308 C13.1076923,12.0769231 13.2,12.0769231 13.3846154,12.0769231 L14.3076923,12.0769231 C14.4,12.0769231 14.5846154,12.1692308 14.6769231,12.1692308 L15.2307692,12.7230769 L15.7846154,12.1692308 C15.8769231,12.0769231 15.9692308,12.0769231 16.1538462,12.0769231 L17.3538462,12.0769231 L18.2769231,11.1538462 L17.3538462,10.2307692 L10.4307692,10.2307692 C10.2461538,10.2307692 10.0615385,10.1384615 9.96923077,9.86153846 C9.41538462,7.92307692 7.56923077,6.53846154 5.53846154,6.53846154 Z"></path>
        <path d="M3.69230769,13 C2.67692308,13 1.84615385,12.1692308 1.84615385,11.1538462 C1.84615385,10.1384615 2.67692308,9.30769231 3.69230769,9.30769231 C4.70769231,9.30769231 5.53846154,10.1384615 5.53846154,11.1538462 C5.53846154,12.1692308 4.70769231,13 3.69230769,13 Z M3.69230769,10.2307692 C3.13846154,10.2307692 2.76923077,10.6 2.76923077,11.1538462 C2.76923077,11.7076923 3.13846154,12.0769231 3.69230769,12.0769231 C4.24615385,12.0769231 4.61538462,11.7076923 4.61538462,11.1538462 C4.61538462,10.6 4.24615385,10.2307692 3.69230769,10.2307692 Z M21.6923077,22 L9.69230769,22 C9.41538462,22 9.23076923,21.8 9.23076923,21.5 L9.23076923,18.5 C9.23076923,18.2 9.41538462,18 9.69230769,18 C9.96923077,18 10.1538462,18.2 10.1538462,18.5 L10.1538462,21 L21.2307692,21 L21.2307692,1 L10.1538462,1 L10.1538462,4 C10.1538462,4.3 9.96923077,4.5 9.69230769,4.5 C9.41538462,4.5 9.23076923,4.3 9.23076923,4 L9.23076923,0.5 C9.23076923,0.2 9.41538462,0 9.69230769,0 L21.6923077,0 C21.9692308,0 22.1538462,0.2 22.1538462,0.5 L22.1538462,21.5 C22.1538462,21.8 21.9692308,22 21.6923077,22 Z"></path>
    </g>
</svg>