<svg width="40px" height="40px" viewBox="0 0 24 24" xmlns="http://www.w3.org/2000/svg" xmlns:xlink="http://www.w3.org/1999/xlink">
    <title>page-user-oauth</title>
    <g id="Artboard" stroke="none" stroke-width="1" fill="none" fill-rule="evenodd">
        <g transform="translate(0.000000, 6.000000)" stroke="#0EB87F" stroke-linecap="round" stroke-linejoin="round">
            <path d="M6,0.5 C2.962,0.5 0.5,2.963 0.5,6 C0.5,9.037 2.962,11.5 6,11.5 C8.517,11.5 10.634,9.807 11.287,7.5 L12.5,7.5 L13.5,8.5 L14.5,7.5 L15.5,7.5 L16.5,8.5 L17.5,7.5 L19,7.5 L20.5,6 L19,4.5 L11.287,4.5 C10.634,2.192 8.517,0.5 6,0.5 Z" id="Path" fill="#C0F2D6"></path>
            <circle fill="#FFFFFF" cx="4" cy="6" r="1.5"></circle>
        </g>
        <polyline stroke="#0EB87F" stroke-linecap="round" stroke-linejoin="round" points="10.5 19.521 10.5 22.5 23.5 22.5 23.5 1.5 10.5 1.5 10.5 5"></polyline>
        <rect x="0" y="0" width="24" height="24"></rect>
    </g>
</svg>