<svg fill="none" height="33" viewBox="0 0 33 33" width="33" xmlns="http://www.w3.org/2000/svg"><path
    clip-rule="evenodd"
    d="m27.0655 15.6368h-1.8528v-4.9409c0-1.35878-1.1117-2.47049-2.4705-2.47049h-4.941v-1.85286c0-1.70463-1.3834-3.0881-3.0881-3.0881-1.7046 0-3.088 1.38347-3.088 3.0881v1.85286h-4.941c-.65334.00239-1.27905.26384-1.73987.72698-.46083.46314-.71913 1.09011-.71825 1.74351v4.6939h1.8405c.8844.0004 1.73245.3519 2.35782.9773s.97689 1.4734.97732 2.3578c-.00043.8844-.35195 1.7325-.97732 2.3578-.62537.6254-1.47342.9769-2.35782.9774h-1.85286v4.6939c0 1.3587 1.11172 2.4704 2.47048 2.4704h4.6939v-1.8528c.0004-.8844.352-1.7325.9773-2.3578.6254-.6254 1.4734-.9769 2.3578-.9773.8844.0004 1.7325.3519 2.3579.9773.6253.6253.9769 1.4734.9773 2.3578v1.8528h4.6939c1.3588 0 2.4705-1.1117 2.4705-2.4704v-4.941h1.8528c1.7047 0 3.0881-1.3834 3.0881-3.0881 0-1.7046-1.3834-3.0881-3.0881-3.0881z"
    fill="#c0f2d6"
    fill-rule="evenodd"
    stroke="#19cd91"
    stroke-width="1.5"
  /></svg>
