<svg width="193" height="193" viewBox="0 0 193 193" fill="none" xmlns="http://www.w3.org/2000/svg">
<path d="M183.319 175.034H8.86766C4.02169 175.034 0.0932617 178.962 0.0932617 183.808C0.0932617 188.653 4.02169 192.582 8.86766 192.582H183.319C188.165 192.582 192.093 188.653 192.093 183.808C192.093 178.962 188.165 175.034 183.319 175.034Z" fill="#D3E7FD"/>
<path d="M35.2766 181.419H20.884L17.2153 165.427H38.9459L35.2766 181.419Z" fill="#0959AA"/>
<path d="M165.614 181.419H151.221L147.552 165.427H169.283L165.614 181.419Z" fill="#0959AA"/>
<path d="M178.491 9.89355H10.4044C5.15144 9.89355 0.893066 14.1519 0.893066 19.4049V159.36C0.893066 164.613 5.15144 168.871 10.4044 168.871H178.491C183.744 168.871 188.002 164.613 188.002 159.36V19.4049C188.002 14.1519 183.744 9.89355 178.491 9.89355Z" fill="#4E97EE"/>
<path d="M175.26 17.8835H13.634C10.6791 17.8835 8.28369 20.279 8.28369 23.2339V155.532C8.28369 158.487 10.6791 160.882 13.634 160.882H175.26C178.215 160.882 180.61 158.487 180.61 155.532V23.2339C180.61 20.279 178.215 17.8835 175.26 17.8835Z" fill="#306BC4"/>
<path d="M21.6695 26.2939H167.661C168.644 26.2939 169.587 26.6846 170.283 27.38C170.978 28.0754 171.369 29.0186 171.369 30.002V84.8066H17.9614V30.002C17.9614 29.0186 18.3521 28.0754 19.0475 27.38C19.7429 26.6846 20.686 26.2939 21.6695 26.2939Z" fill="#0959AA"/>
<path d="M166.662 153.233L20.6702 153.233C20.1833 153.233 19.7011 153.137 19.2512 152.951C18.8013 152.764 18.3926 152.491 18.0482 152.147C17.7039 151.803 17.4308 151.394 17.2444 150.944C17.0581 150.494 16.9622 150.012 16.9622 149.525V94.7203L170.37 94.7203V149.524C170.37 150.011 170.274 150.493 170.088 150.943C169.901 151.393 169.628 151.802 169.284 152.147C168.939 152.491 168.531 152.764 168.081 152.951C167.631 153.137 167.149 153.233 166.662 153.233Z" fill="#0959AA"/>
<path opacity="0.3" d="M81.654 153.233H20.9721C19.9089 153.233 18.8893 152.81 18.1375 152.059C17.3857 151.307 16.9634 150.287 16.9634 149.224V94.7195H165.117C165.117 94.7195 118.816 97.4007 98.0456 117.45C81.8738 133.062 81.654 153.233 81.654 153.233Z" fill="#0A459B"/>
<path opacity="0.3" d="M89.0713 84.8066H17.9614V30.002C17.9614 29.0186 18.3521 28.0754 19.0475 27.38C19.7429 26.6846 20.686 26.2939 21.6695 26.2939H166.117C166.117 26.2939 128.034 29.4922 106.664 48.2831C89.7829 63.1268 89.0713 84.8066 89.0713 84.8066Z" fill="#0A459B"/>
<path d="M165.78 57.7144H123.333V81.7747H165.78V57.7144Z" fill="#FFEBA0"/>
<path d="M165.78 81.7767H123.334V77.4233C125.245 76.7584 127.194 76.213 129.173 75.7904C136.104 74.2838 144.756 77.4233 152.919 78.0166C158.989 78.4582 165.781 74.8998 165.781 74.8998L165.78 81.7767Z" fill="#FFE890"/>
<path d="M165.78 80.7939H123.333V84.6784H165.78V80.7939Z" fill="#FFD840"/>
<path d="M162.912 82.7473H126.204V83.2457H162.912V82.7473Z" fill="#FFECA3"/>
<path d="M144.557 78.6084C149.147 78.6084 152.868 74.8873 152.868 70.297C152.868 65.7067 149.147 61.9856 144.557 61.9856C139.967 61.9856 136.246 65.7067 136.246 70.297C136.246 74.8873 139.967 78.6084 144.557 78.6084Z" fill="#FFD840"/>
<path opacity="0.1" d="M148.323 63.4229C150.053 64.5145 151.281 66.2462 151.739 68.24C152.197 70.2338 151.847 72.3278 150.767 74.0649C149.687 75.802 147.963 77.0412 145.972 77.5121C143.981 77.983 141.885 77.6472 140.141 76.5781C140.141 76.5781 145.791 78.4529 148.946 73.0431C151.848 68.0636 148.323 63.4229 148.323 63.4229Z" fill="#F5B73C"/>
<path d="M148.397 70.5416L141.907 74.2884V66.7941L148.397 70.5416Z" fill="#FFF7D9"/>
<path d="M132.944 83.8185C133.362 83.8185 133.701 83.4793 133.701 83.0609C133.701 82.6424 133.362 82.3032 132.944 82.3032C132.525 82.3032 132.186 82.6424 132.186 83.0609C132.186 83.4793 132.525 83.8185 132.944 83.8185Z" fill="white"/>
<path d="M165.78 31.0591H123.333V55.1194H165.78V31.0591Z" fill="#FFEBA0"/>
<path d="M165.78 55.1186H123.334V50.7658C125.245 50.1009 127.194 49.5555 129.173 49.1329C136.104 47.6256 144.756 50.7658 152.919 51.3591C158.989 51.8007 165.781 48.2423 165.781 48.2423L165.78 55.1186Z" fill="#FFE890"/>
<path d="M165.78 54.1387H123.333V58.0231H165.78V54.1387Z" fill="#FFD840"/>
<path d="M162.912 56.0914H126.204V56.5898H162.912V56.0914Z" fill="#FFECA3"/>
<path d="M144.557 51.9532C149.147 51.9532 152.868 48.232 152.868 43.6417C152.868 39.0515 149.147 35.3303 144.557 35.3303C139.967 35.3303 136.246 39.0515 136.246 43.6417C136.246 48.232 139.967 51.9532 144.557 51.9532Z" fill="#FFD840"/>
<path opacity="0.1" d="M148.323 36.7675C149.187 37.3047 149.936 38.0068 150.529 38.8336C151.121 39.6605 151.545 40.596 151.776 41.5866C152.006 42.5772 152.04 43.6037 151.874 44.6072C151.708 45.6108 151.347 46.5719 150.809 47.4357C150.272 48.2994 149.57 49.0489 148.743 49.6413C147.916 50.2337 146.981 50.6574 145.99 50.8883C145 51.1192 143.973 51.1527 142.97 50.9869C141.966 50.8211 141.005 50.4593 140.141 49.9221C140.141 49.9221 145.791 51.7975 148.946 46.3877C151.848 41.4082 148.323 36.7675 148.323 36.7675Z" fill="#F5B73C"/>
<path d="M148.397 43.8855L141.907 47.633V40.1387L148.397 43.8855Z" fill="#FFF7D9"/>
<path d="M132.944 57.163C133.362 57.163 133.701 56.8238 133.701 56.4054C133.701 55.9869 133.362 55.6477 132.944 55.6477C132.525 55.6477 132.186 55.9869 132.186 56.4054C132.186 56.8238 132.525 57.163 132.944 57.163Z" fill="white"/>
<path d="M82.4052 30.1517H45.6714V79.9227H72.2692L82.4052 69.7546V30.1517Z" fill="#A4CEFA"/>
<path d="M85.8079 32.5288H49.0747V82.3004H75.6725L85.8079 72.1323V32.5288Z" fill="#B8D9FB"/>
<path d="M89.2109 84.6784H52.4771V34.9067H79.0749L89.2109 45.0749V84.6784Z" fill="#CFE5FD"/>
<path d="M79.0737 34.9067L89.2098 45.0749H79.0737V34.9067Z" fill="#E6F1FD"/>
<path d="M90.3512 65.8319H63.1187V78.6986H90.3512V65.8319Z" fill="#90C5FA"/>
<path d="M68.2202 68.8633H70.8829C71.2365 68.8617 71.5895 68.8957 71.9363 68.9649C72.246 69.023 72.5411 69.1418 72.8047 69.3143C73.0542 69.4833 73.2563 69.7133 73.3919 69.9824C73.5477 70.3128 73.6224 70.6757 73.6096 71.0407C73.6216 71.4025 73.5532 71.7623 73.4092 72.0944C73.2849 72.3646 73.0931 72.5981 72.8521 72.7725C72.5995 72.9485 72.3135 73.0708 72.0118 73.132C71.6657 73.2053 71.3128 73.2411 70.959 73.2389H69.8047V76.0309H68.2249L68.2202 68.8633ZM69.8 71.9019H70.8528C70.9905 71.9021 71.1279 71.8885 71.263 71.8612C71.388 71.8381 71.5079 71.7928 71.617 71.7276C71.7224 71.6629 71.8096 71.5722 71.8702 71.4643C71.9387 71.3352 71.9718 71.1902 71.9664 71.0441C71.974 70.8874 71.9296 70.7326 71.8401 70.6038C71.7553 70.492 71.6439 70.4032 71.5161 70.3452C71.3766 70.2823 71.2276 70.243 71.0753 70.229C70.9199 70.2125 70.7638 70.204 70.6076 70.2036H69.798L69.8 71.9019Z" fill="white"/>
<path d="M74.6008 68.8632H76.968C77.5189 68.8606 78.0682 68.9252 78.6035 69.0557C79.0913 69.1707 79.5509 69.3827 79.9551 69.679C80.3459 69.973 80.6603 70.3566 80.8718 70.7974C81.1116 71.3208 81.2277 71.8923 81.2112 72.4678C81.2224 72.9986 81.1097 73.5248 80.8818 74.0044C80.6711 74.4358 80.3688 74.8159 79.9959 75.1182C79.6138 75.4246 79.1775 75.6565 78.7097 75.8017C78.2152 75.9585 77.6992 76.0372 77.1804 76.0348H74.5981L74.6008 68.8632ZM76.1809 74.575H77.0007C77.3432 74.5776 77.6849 74.5404 78.0189 74.4641C78.3132 74.3982 78.5907 74.2722 78.834 74.094C79.068 73.9163 79.2542 73.6833 79.3759 73.4158C79.5163 73.0917 79.5836 72.7406 79.573 72.3876C79.5805 72.071 79.513 71.7571 79.3759 71.4716C79.2497 71.2188 79.0667 70.9986 78.8414 70.8282C78.6059 70.6533 78.3396 70.5246 78.0563 70.4487C77.7481 70.3629 77.4295 70.3202 77.1096 70.3217H76.1782L76.1809 74.575Z" fill="white"/>
<path d="M82.3472 68.8633H87.1568V70.3218H83.927V71.7803H86.9136V73.2388H83.927V76.0309H82.3472V68.8633Z" fill="white"/>
<path opacity="0.35" d="M139.65 50.0825V37.1023H123.367V75.2827H136.361V84.6785H157.242V50.0825H139.65Z" fill="#F5B73C"/>
<path opacity="0.35" d="M111.639 84.6783H85.2007V41.3199L111.639 65.1037V84.6783Z" fill="#6DB2F8"/>
<path d="M138.544 38.1165H87.4692V84.6784H138.544V38.1165Z" fill="#DEECFC"/>
<path d="M136.249 40.5857H89.7632V82.1595H136.249V40.5857Z" fill="#67A6F0"/>
<path d="M89.7632 66.0704V82.1595H136.176V60.4175L122.743 51.8568C122.354 51.6088 121.894 51.4942 121.434 51.5303C120.974 51.5665 120.538 51.7515 120.192 52.0573L103.256 67.0112L96.8105 62.3243C96.4305 62.0479 95.9697 61.9051 95.5001 61.9181C95.0304 61.9312 94.5782 62.0994 94.2142 62.3965L90.0004 65.8353" fill="#306BC4"/>
<path d="M105.612 58.1365C108.905 58.1365 111.574 55.4671 111.574 52.1742C111.574 48.8813 108.905 46.2119 105.612 46.2119C102.319 46.2119 99.6499 48.8813 99.6499 52.1742C99.6499 55.4671 102.319 58.1365 105.612 58.1365Z" fill="#A7D0FB"/>
<path d="M117.636 104.056H88.2759V130.823H117.636V104.056Z" fill="#CFEDF9"/>
<path d="M116.318 105.476H89.5952V129.375H116.318V105.476Z" fill="#67A6F0"/>
<path d="M89.5952 120.127V129.376H116.277V116.876L108.554 111.956C108.33 111.812 108.066 111.746 107.8 111.767C107.535 111.787 107.284 111.894 107.085 112.07L97.3514 120.668L93.6454 117.973C93.4271 117.814 93.1623 117.732 92.8923 117.739C92.6224 117.747 92.3626 117.844 92.1535 118.014L89.7288 119.993" fill="#306BC4"/>
<path d="M98.7053 115.565C100.598 115.565 102.133 114.03 102.133 112.137C102.133 110.244 100.598 108.71 98.7053 108.71C96.8123 108.71 95.2778 110.244 95.2778 112.137C95.2778 114.03 96.8123 115.565 98.7053 115.565Z" fill="#A7D0FB"/>
<path d="M91.0241 104.056H61.6636V153.432H91.0241V104.056Z" fill="#CFEDF9"/>
<path d="M89.7047 105.476H62.9819V151.984H89.7047V105.476Z" fill="#67A6F0"/>
<path d="M62.9819 120.127V151.985H89.6613V116.876L81.9391 111.956C81.7154 111.813 81.4513 111.747 81.1868 111.767C80.9222 111.788 80.6715 111.894 80.4726 112.07L70.7388 120.668L67.0327 117.973C66.8143 117.814 66.5494 117.732 66.2794 117.739C66.0094 117.747 65.7494 117.843 65.5402 118.014L63.1176 119.991" fill="#306BC4"/>
<path d="M72.093 115.565C73.9859 115.565 75.5204 114.03 75.5204 112.137C75.5204 110.244 73.9859 108.71 72.093 108.71C70.2 108.71 68.6655 110.244 68.6655 112.137C68.6655 114.03 70.2 115.565 72.093 115.565Z" fill="#A7D0FB"/>
<path opacity="0.35" d="M138.544 49.4451H102.321V84.6784H138.544V49.4451Z" fill="#0959AA"/>
<path opacity="0.35" d="M117.637 115.119H72.6353V153.433H117.637V115.119Z" fill="#0959AA"/>
<path d="M155.738 51.3485H104.664V84.6783H155.738V51.3485Z" fill="#DEECFC"/>
<path d="M153.443 53.818H106.958V82.1597H153.443V53.818Z" fill="#6DB2F8"/>
<path opacity="0.79" d="M106.958 76.4209V82.1594H153.37V70.7679L145.131 62.528C144.41 61.807 143.432 61.402 142.412 61.402C141.392 61.402 140.414 61.807 139.693 62.528L127.8 74.4206L121.186 67.8062C120.47 67.0891 119.499 66.6839 118.486 66.6785C117.472 66.6731 116.498 67.0681 115.774 67.7774L107.193 76.1851" fill="#306BC4"/>
<path d="M122.336 65.6261C124.569 65.6261 126.38 63.8155 126.38 61.582C126.38 59.3485 124.569 57.5378 122.336 57.5378C120.102 57.5378 118.292 59.3485 118.292 61.582C118.292 63.8155 120.102 65.6261 122.336 65.6261Z" fill="#DEECFC"/>
<path d="M157.643 99.4185H121.246V148.734H147.6L157.643 138.659V99.4185Z" fill="#A4CEFA"/>
<path d="M161.013 101.774H124.617V151.089H150.97L161.013 141.014V101.774Z" fill="#B8D9FB"/>
<path d="M164.384 153.445H127.987V104.13H154.341L164.384 114.205V153.445Z" fill="#CFE5FD"/>
<path d="M154.341 104.13L164.384 114.205H154.341V104.13Z" fill="#E6F1FD"/>
<path d="M165.515 134.771H138.533V147.52H165.515V134.771Z" fill="#90C5FA"/>
<path d="M143.587 137.775H146.226C146.576 137.774 146.926 137.807 147.269 137.876C147.575 137.934 147.867 138.051 148.127 138.222C148.374 138.389 148.575 138.617 148.709 138.884C148.863 139.212 148.937 139.571 148.925 139.933C148.936 140.291 148.868 140.647 148.724 140.976C148.601 141.244 148.411 141.476 148.173 141.649C147.922 141.823 147.639 141.944 147.34 142.005C146.997 142.077 146.647 142.113 146.296 142.11H145.153V144.88H143.587V137.775ZM145.153 140.786H146.196C146.332 140.786 146.468 140.773 146.602 140.746C146.726 140.722 146.845 140.677 146.953 140.612C147.058 140.548 147.144 140.458 147.204 140.351C147.272 140.223 147.305 140.08 147.299 139.935C147.307 139.779 147.263 139.626 147.174 139.498C147.09 139.388 146.98 139.3 146.853 139.242C146.715 139.18 146.568 139.141 146.417 139.127C146.264 139.111 146.11 139.102 145.955 139.102H145.154L145.153 140.786Z" fill="white"/>
<path d="M149.909 137.775H152.256C152.802 137.773 153.346 137.837 153.877 137.966C154.359 138.08 154.813 138.29 155.213 138.583C155.6 138.875 155.912 139.255 156.121 139.692C156.358 140.211 156.473 140.777 156.456 141.348C156.466 141.873 156.355 142.393 156.13 142.868C155.921 143.295 155.621 143.671 155.252 143.971C154.874 144.274 154.444 144.503 153.982 144.647C153.492 144.802 152.981 144.88 152.467 144.878H149.909V137.775ZM151.474 143.435H152.287C152.626 143.437 152.964 143.4 153.295 143.324C153.586 143.26 153.862 143.135 154.102 142.958C154.334 142.782 154.517 142.551 154.637 142.286C154.776 141.965 154.843 141.617 154.833 141.267C154.84 140.953 154.773 140.642 154.637 140.359C154.513 140.109 154.333 139.891 154.11 139.722C153.877 139.549 153.613 139.421 153.332 139.346C153.028 139.261 152.713 139.219 152.397 139.22H151.474V143.435Z" fill="white"/>
<path d="M157.585 137.775H162.353V139.22H159.153V140.665H162.112V142.108H159.153V144.878H157.587L157.585 137.775Z" fill="white"/>
<path opacity="0.35" d="M135.852 115.264H121.182V153.445H135.852V115.264Z" fill="#93C5FA"/>
<path d="M132.863 117.128H75.6909V149.534H132.863V117.128Z" fill="#80EEC8"/>
<path d="M132.863 149.534H75.6909V143.67C78.2638 142.775 80.8899 142.04 83.554 141.471C92.891 139.441 104.544 143.67 115.538 144.47C123.715 145.064 132.863 140.272 132.863 140.272V149.534Z" fill="#6BECBF"/>
<path d="M132.863 148.213H75.6909V153.445H132.863V148.213Z" fill="#00DE91"/>
<path d="M128.998 150.844H79.5552V151.515H128.998V150.844Z" fill="#85EFCA"/>
<path d="M104.277 145.27C110.459 145.27 115.471 140.258 115.471 134.075C115.471 127.893 110.459 122.881 104.277 122.881C98.0944 122.881 93.0825 127.893 93.0825 134.075C93.0825 140.258 98.0944 145.27 104.277 145.27Z" fill="#00DE91"/>
<path opacity="0.1" d="M109.345 124.816C111.694 126.277 113.367 128.612 113.995 131.307C114.623 134.001 114.155 136.835 112.694 139.185C111.233 141.535 108.898 143.207 106.203 143.836C103.508 144.464 100.674 143.996 98.3247 142.534C98.3247 142.534 105.935 145.06 110.184 137.774C114.097 131.067 109.345 124.816 109.345 124.816Z" fill="#0FA371"/>
<path d="M109.447 134.404L100.706 139.451V129.357L109.447 134.404Z" fill="#CCF8E9"/>
<path d="M88.6345 152.287C89.1982 152.287 89.6552 151.83 89.6552 151.266C89.6552 150.703 89.1982 150.246 88.6345 150.246C88.0708 150.246 87.6138 150.703 87.6138 151.266C87.6138 151.83 88.0708 152.287 88.6345 152.287Z" fill="white"/>
<path d="M63.263 178.887L22.169 167.656C20.9187 167.327 19.8158 166.586 19.0381 165.554C18.2604 164.521 17.8533 163.256 17.8823 161.964V17.5463C17.8531 16.2537 18.2602 14.9889 19.0379 13.956C19.8156 12.9231 20.9186 12.1824 22.169 11.8532L63.3959 0.706303C64.6707 0.408322 72.1643 0.668889 73.2273 1.23545C74.1575 1.7498 74.9305 2.50719 75.4637 3.42671C75.9969 4.34623 76.2702 5.39333 76.2545 6.45615V173.053C76.2892 174.406 75.8432 175.728 74.9958 176.783C74.1484 177.838 72.9544 178.559 71.6258 178.817C70.9878 178.921 63.9391 179.045 63.263 178.887Z" fill="#6DB2F8"/>
<path d="M62.6472 178.746L15.1747 167.655C13.9245 167.326 12.8218 166.585 12.0442 165.553C11.2666 164.52 10.8596 163.255 10.8887 161.963V17.5461C10.8595 16.2536 11.2666 14.9889 12.0441 13.9561C12.8217 12.9232 13.9245 12.1824 15.1747 11.853L62.6472 0.762233C66.0459 -0.0321622 69.2616 2.73519 69.2616 6.45462V173.053C69.2602 176.773 66.0459 179.54 62.6472 178.746Z" fill="#4E97EE"/>
<path opacity="0.6" d="M12.2191 39.9229C12.2191 37.8252 10.5185 36.1246 8.42082 36.1246C6.3231 36.1246 4.62256 37.8252 4.62256 39.9229V66.7098C4.62256 68.8076 6.3231 70.5081 8.42082 70.5081C10.5185 70.5081 12.2191 68.8076 12.2191 66.7098V39.9229Z" fill="#306BC4"/>
<path opacity="0.6" d="M12.2191 115.486C12.2191 113.388 10.5185 111.688 8.42082 111.688C6.3231 111.688 4.62256 113.388 4.62256 115.486V142.273C4.62256 144.371 6.3231 146.071 8.42082 146.071C10.5185 146.071 12.2191 144.371 12.2191 142.273V115.486Z" fill="#306BC4"/>
<path d="M13.6878 38.0884C13.6878 35.9907 11.9873 34.2902 9.88956 34.2902C7.79184 34.2902 6.09131 35.9907 6.09131 38.0884V64.8754C6.09131 66.9731 7.79184 68.6736 9.88956 68.6736C11.9873 68.6736 13.6878 66.9731 13.6878 64.8754V38.0884Z" fill="#93C5FA"/>
<path d="M13.6878 113.652C13.6878 111.554 11.9873 109.854 9.88956 109.854C7.79184 109.854 6.09131 111.554 6.09131 113.652V140.439C6.09131 142.537 7.79184 144.237 9.88956 144.237C11.9873 144.237 13.6878 142.537 13.6878 140.439V113.652Z" fill="#93C5FA"/>
<path opacity="0.6" d="M39.4106 130.467C52.5127 130.467 63.1342 112.288 63.1342 89.863C63.1342 67.4379 52.5127 49.2587 39.4106 49.2587C26.3084 49.2587 15.687 67.4379 15.687 89.863C15.687 112.288 26.3084 130.467 39.4106 130.467Z" fill="#306BC4"/>
<path opacity="0.6" d="M46.3383 89.861C46.3383 120.246 30.7331 128.336 27.1566 124.637C20.2823 117.525 15.687 104.612 15.687 89.861C15.687 67.4383 46.3383 67.4383 46.3383 89.861Z" fill="#306BC4"/>
<path d="M35.3765 120.349V112.552C35.3765 111.504 34.5265 110.653 33.478 110.653H33.4773C32.4289 110.653 31.5789 111.504 31.5789 112.552V120.349C31.5789 121.398 32.4289 122.248 33.4773 122.248H33.478C34.5265 122.248 35.3765 121.398 35.3765 120.349Z" fill="#93C5FA"/>
<path d="M35.3765 67.7744V59.9774C35.3765 58.9287 34.5265 58.0786 33.478 58.0786H33.4773C32.4289 58.0786 31.5789 58.9287 31.5789 59.9774V67.7744C31.5789 68.8231 32.4289 69.6732 33.4773 69.6732H33.478C34.5265 69.6732 35.3765 68.8231 35.3765 67.7744Z" fill="#93C5FA"/>
<path d="M53.0683 89.3632H45.2714C44.2227 89.3632 43.3726 90.2133 43.3726 91.262V91.2626C43.3726 92.3113 44.2227 93.1614 45.2714 93.1614H53.0683C54.117 93.1614 54.9671 92.3113 54.9671 91.2626V91.262C54.9671 90.2133 54.117 89.3632 53.0683 89.3632Z" fill="#93C5FA"/>
<path d="M47.0204 68.589L41.1891 73.7648C40.4048 74.4609 40.3334 75.6611 41.0295 76.4454L41.0299 76.4459C41.7261 77.2302 42.9262 77.3016 43.7105 76.6055L49.5418 71.4297C50.3261 70.7336 50.3975 69.5334 49.7014 68.7491L49.701 68.7486C49.0048 67.9643 47.8047 67.8929 47.0204 68.589Z" fill="#93C5FA"/>
<path d="M49.5409 111.348L43.7096 106.172C42.9254 105.476 41.7252 105.547 41.0291 106.332L41.0287 106.332C40.3325 107.117 40.404 108.317 41.1883 109.013L47.0195 114.189C47.8038 114.885 49.004 114.813 49.7001 114.029L49.7005 114.028C50.3967 113.244 50.3252 112.044 49.5409 111.348Z" fill="#93C5FA"/>
<path d="M46.2578 90.163C46.2578 102.928 40.212 113.276 32.7538 113.276C32.2861 113.276 25.1673 113.235 24.713 113.156C17.9042 111.972 19.2498 102.132 19.2498 90.163C19.2498 78.2544 17.8528 68.4491 24.6148 67.1877C25.1005 67.0975 32.2541 67.0541 32.7538 67.0541C40.212 67.0507 46.2578 77.3986 46.2578 90.163Z" fill="#4E97EE"/>
<path d="M25.4166 113.275C32.8747 113.275 38.9206 102.928 38.9206 90.1629C38.9206 77.3984 32.8747 67.0507 25.4166 67.0507C17.9586 67.0507 11.9126 77.3984 11.9126 90.1629C11.9126 102.928 17.9586 113.275 25.4166 113.275Z" fill="#93C5FA"/>
</svg>
