<svg id="Layer_1" xmlns="http://www.w3.org/2000/svg" viewBox="0 0 305.06 193.75">
  <linearGradient
    id="SVGID_1_"
    gradientUnits="userSpaceOnUse"
    x1="-536.227"
    y1="82.29"
    x2="-818.04"
    y2="82.29"
    gradientTransform="matrix(-1 0 0 1 -536.227 14.583)"
  >
    <stop offset="0" stop-color="#cfedf9" />
    <stop offset="0.324" stop-color="#d5eff9" />
    <stop offset="0.775" stop-color="#e7f6fc" />
    <stop offset="1" stop-color="#f3fafd" />
  </linearGradient>
  <path
    d="M281.81 106.52c0-23.16-18.78-41.94-41.94-41.94-.82 0-1.62.03-2.43.08-49.53.9-94.4-40.25-94.4-40.25l.01.04C127.88 9.35 106.97 0 83.87 0 37.55 0 0 37.55 0 83.87c0 44.37 30.57 76.57 78.07 83.67 5.3.79 23.63 5.06 33.65 11.76 14.47 9.66 24.85 14.44 40.09 14.44 21.13 0 39.8-10.42 51.21-26.4 5.79-5.95 17.95-15.68 37.79-18.92 22.73-.49 41-19.05 41-41.9z"
    fill="url(#SVGID_1_)"
  />
  <path
    fill="#0058B0"
    d="M254.89 128.33h-3.35c-.23 0-.42-.19-.42-.42 0-.23.19-.42.42-.42h3.35c.23 0 .42.19.42.42 0 .23-.19.42-.42.42zm-6.71 0h-3.35c-.23 0-.42-.19-.42-.42 0-.23.19-.42.42-.42h3.35c.23 0 .42.19.42.42 0 .23-.19.42-.42.42zm-6.71 0h-3.35c-.23 0-.42-.19-.42-.42 0-.23.19-.42.42-.42h3.35c.23 0 .42.19.42.42 0 .23-.19.42-.42.42zm-6.71 0h-3.35c-.23 0-.42-.19-.42-.42 0-.23.19-.42.42-.42h3.35c.23 0 .42.19.42.42 0 .23-.19.42-.42.42zm-6.71 0h-3.35c-.23 0-.42-.19-.42-.42 0-.23.19-.42.42-.42h3.35c.23 0 .42.19.42.42 0 .23-.19.42-.42.42zm-6.71 0h-3.35c-.23 0-.42-.19-.42-.42 0-.23.19-.42.42-.42h3.35c.23 0 .42.19.42.42 0 .23-.19.42-.42.42zM85.56 84.74h-3.18c-.23 0-.42-.19-.42-.42s.19-.42.42-.42h3.18c.23 0 .42.19.42.42s-.19.42-.42.42zm-6.36 0h-3.18c-.23 0-.42-.19-.42-.42s.19-.42.42-.42h3.18c.23 0 .42.19.42.42s-.19.42-.42.42zm-6.37 0h-3.18c-.23 0-.42-.19-.42-.42s.19-.42.42-.42h3.18c.23 0 .42.19.42.42s-.19.42-.42.42zm-6.36 0h-3.18c-.23 0-.42-.19-.42-.42s.19-.42.42-.42h3.18c.23 0 .42.19.42.42s-.19.42-.42.42zM59.59 105.32l-41.81 1.38-1.84-43.84 45.49 1.66zM147.99 65.55c-.13 0-.26-.06-.34-.18-.13-.19-.09-.45.1-.58l2.74-1.93c.19-.13.45-.09.58.1.13.19.09.45-.1.58l-2.74 1.93c-.07.06-.16.08-.24.08zm5.48-3.86c-.13 0-.26-.06-.34-.18-.13-.19-.09-.45.1-.58l2.74-1.93c.19-.13.45-.09.58.1.13.19.09.45-.1.58l-2.74 1.93c-.07.05-.15.08-.24.08zm5.49-3.86c-.13 0-.26-.06-.34-.18-.13-.19-.09-.45.1-.58l2.74-1.93c.19-.13.45-.09.58.1.13.19.09.45-.1.58l-2.74 1.93c-.07.05-.16.08-.24.08zm5.49-3.87c-.13 0-.26-.06-.34-.18-.13-.19-.09-.45.1-.58l2.74-1.93c.19-.13.45-.09.58.1.13.19.09.45-.1.58l-2.74 1.93c-.08.06-.16.08-.24.08zm5.48-3.86c-.13 0-.26-.06-.34-.18-.13-.19-.09-.45.1-.58l2.74-1.93c.19-.13.45-.09.58.1.13.19.09.45-.1.58l-2.74 1.93c-.07.05-.16.08-.24.08zM170.8 120.55c-.09 0-.18-.03-.26-.09l-1.25-.99c-.18-.14-.21-.41-.07-.59.14-.18.41-.21.59-.07l1.25.99c.18.14.21.41.07.59-.09.11-.21.16-.33.16zm-3.89-3.06c-.09 0-.18-.03-.26-.09l-2.63-2.08c-.18-.14-.21-.41-.07-.59.14-.18.41-.21.59-.07l2.63 2.08c.18.14.21.41.07.59-.08.1-.21.16-.33.16zm-5.27-4.16c-.09 0-.18-.03-.26-.09l-2.63-2.08c-.18-.14-.21-.41-.07-.59.14-.18.41-.21.59-.07l2.63 2.08c.18.14.21.41.07.59-.08.11-.2.16-.33.16zm-5.27-4.15c-.09 0-.18-.03-.26-.09l-2.63-2.08c-.18-.14-.21-.41-.07-.59.14-.18.41-.21.59-.07l2.63 2.08c.18.14.21.41.07.59-.08.1-.2.16-.33.16zm-5.26-4.16c-.09 0-.18-.03-.26-.09l-2.63-2.08c-.18-.14-.21-.41-.07-.59.14-.18.41-.21.59-.07l2.63 2.08c.18.14.21.41.07.59-.09.11-.21.16-.33.16z"
  />
  <path fill="#94c5fa" d="M190.7 66.25l-22.02-38.13h44.03z" />
  <path transform="rotate(45 281.76 127.562)" fill="#00de91" d="M265.32 111.13h32.87V144h-32.87z" />
  <path
    d="M214.09 125.21c0-11.27-9.61-18.39-20.88-18.39s-20.88 9.29-20.88 20.57 10.85 22.75 22.13 22.75 19.63-13.65 19.63-24.93z"
    fill="#ffd840"
  />
  <path fill="#3397f5" d="M116.52 51.62L88.16 67.91l-.07 32.7 28.28 16.42 28.36-16.29.07-32.7z" />
</svg>
