<svg xmlns="http://www.w3.org/2000/svg" width="280" height="207" viewBox="0 0 325.64 241.14">
  <defs>
    <style>
      .cls-1 {
    fill: url(#linear-gradient);
  }

  .cls-2 {
    fill: #0058b0;
  }

  .cls-3 {
    fill: #00de91;
  }

  .cls-4 {
    fill: #0074d3;
  }

  .cls-5 {
    fill: #fff;
  }

  .cls-6 {
    fill: #ffd840;
  }
    </style>
    <linearGradient
      id="linear-gradient"
      x1="34.7"
      y1="203.98"
      x2="360.34"
      y2="203.98"
      gradientUnits="userSpaceOnUse"
    >
      <stop offset="0" stop-color="#cfedf9" />
      <stop offset="0.33" stop-color="#d5effa" />
      <stop offset="0.78" stop-color="#e8f6fc" />
      <stop offset="1" stop-color="#f3fafd" />
    </linearGradient>
  </defs>
  <path
    class="cls-1"
    d="M337.25,185.75c-29.27-21.59-45.84-57.4-45.84-57.4a77.28,77.28,0,0,0-70.19-44.94A82.76,82.76,0,0,0,192.36,89C185,92,146,112,111.24,121.9,67.13,134.47,34.7,173.75,34.7,221.5A103,103,0,0,0,137.75,324.55c36.25,0,65.34-23.33,65.34-23.33,33.58-23.81,84.17-22.42,99.5-21.37,1.32.16,5.67.39,6.23.39a51.52,51.52,0,0,0,28.43-94.49Z"
    transform="translate(-34.7 -83.41)"
  />
  <g>
    <path
      class="cls-2"
      d="M214.51,189.22l-.54-8.89a16.06,16.06,0,0,0-2.2,1.66,17.05,17.05,0,0,0-27.45.43,17.07,17.07,0,0,0-28.68,9.43,17.06,17.06,0,0,0-22.29,16.25,17.33,17.33,0,0,0,.54,4.29,17.07,17.07,0,0,0,.75,30.67,17.07,17.07,0,0,0,21.3,22.21,17.06,17.06,0,0,0,28.38,8,17.05,17.05,0,0,0,20,6c4.76,10.79,16.16,26.78,42.5,29.86,0,0-22.25-8.7-23.46-31.11a17.06,17.06,0,0,0,16.36-12.81A17.06,17.06,0,0,0,261,243.06a17.05,17.05,0,0,0,4.81-27.72c-8.49-.79-20.52-2-27.61-3C225.65,210.66,215.25,201.29,214.51,189.22Z"
      transform="translate(-34.7 -83.41)"
    />
    <path
      class="cls-3"
      d="M300,215.93a96.52,96.52,0,0,0,12.25-.89c10.67-1.56,23-10.28,24.06-22.71l3.22-37.57A29.17,29.17,0,0,0,309,123.13l-65.68,3.5a32.26,32.26,0,0,0-30.49,34.17L214,180.33a17.06,17.06,0,0,1,26,11.52,17.07,17.07,0,0,1,21.75,20.54,17.16,17.16,0,0,1,4.06,3c5.65.53,9.73.88,9.73.88,14.18,19.29,20.56,26.59,33.22,31.15,11.07,4,33,5.44,33,5.44S304,241.48,300,215.93Z"
      transform="translate(-34.7 -83.41)"
    />
    <path
      class="cls-4"
      d="M262.28,208.1A17.07,17.07,0,0,0,240,191.85a17.06,17.06,0,0,0-26-11.52l.54,8.89c.74,12.07,11.14,21.44,23.67,23.16,7.09,1,19.12,2.17,27.61,3a17.16,17.16,0,0,0-4.06-3A16.87,16.87,0,0,0,262.28,208.1Z"
      transform="translate(-34.7 -83.41)"
    />
  </g>
  <path
    class="cls-5"
    d="M177.68,222.24v-4.41H196.5a53.64,53.64,0,0,0-2.37-5.94l5.26-.85q.51,1.71,1.69,4.92a13.37,13.37,0,0,1,.68,1.87h16.11v4.41h-7a38.1,38.1,0,0,1-9.33,17.81,51,51,0,0,0,16.62,6.78,31.7,31.7,0,0,0-2.88,4.24q-11.37-3.39-17.64-7.8-5.08,3.73-17.3,8.31-1-1.86-2.88-4.58a57.28,57.28,0,0,0,16.62-6.95,37.28,37.28,0,0,1-9.5-17.81Zm20,14.76a26.92,26.92,0,0,0,8.14-14.76H189.55A30.29,30.29,0,0,0,197.69,237Z"
    transform="translate(-34.7 -83.41)"
  />
  <path
    class="cls-5"
    d="M281.1,165.08c6.55,0,10.61,3.69,10.61,9.49,0,7.09-4.55,11.05-12.7,11.05h-13.2V150.86h24v6H273.61v8.21Zm-2.27,14.53c3.34,0,4.95-1.43,4.95-4.33,0-2.67-1.79-4.19-4.91-4.19h-5.26v8.52Z"
    transform="translate(-34.7 -83.41)"
  />
  <path
    class="cls-6"
    d="M104.68,163.27c-24.3-2.59-42.45,9-46.11,32.69-2,12.78,2.89,29.69,13.08,39.62-1.23,5.34-2.5,9.17-15.23,15.64a62,62,0,0,0,28.09-8.49s8.51,3.11,27,2.66c24.43-.6,47.36-4.43,46.85-46C158.11,176.65,133.18,166.31,104.68,163.27Z"
    transform="translate(-34.7 -83.41)"
  />
  <path
    class="cls-5"
    d="M113.26,184.37l13.67,36.54h-8.34l-2.77-8.14H102.16l-2.87,8.14H91.2L105,184.37Zm.47,22.42-4.61-13.42H109l-4.76,13.42Z"
    transform="translate(-34.7 -83.41)"
  />
</svg>
