<?xml version="1.0" encoding="utf-8"?>
<!-- Generator: Adobe Illustrator 24.0.3, SVG Export Plug-In . SVG Version: 6.00 Build 0)  -->
<svg version="1.1" id="Layer_1" xmlns="http://www.w3.org/2000/svg" xmlns:xlink="http://www.w3.org/1999/xlink" x="0px" y="0px"
	 viewBox="0 0 800 600" style="enable-background:new 0 0 800 600;" xml:space="preserve">
<style type="text/css">
	.st0{fill:url(#SVGID_1_);}
	.st1{fill:#E5F0FC;}
	.st2{fill:#4E97EE;}
	.st3{fill:#D3E2F6;}
	.st4{fill:#EAF0F9;}
	.st5{fill:#4B93EA;}
	.st6{fill:#5A9EEF;}
	.st7{fill:#0959AA;}
	.st8{fill:#02548C;}
	.st9{fill:#AACDF6;}
	.st10{fill:#B0D0F7;}
	.st11{fill:#E1EDFC;}
	.st12{fill:#A9CDF6;}
	.st13{fill:#BBF4E1;}
	.st14{clip-path:url(#SVGID_3_);fill:#B18A40;}
	.st15{clip-path:url(#SVGID_3_);fill:#ABC8E8;}
	.st16{clip-path:url(#SVGID_3_);fill:url(#SVGID_4_);}
	.st17{clip-path:url(#SVGID_3_);fill:#E1E8ED;}
	.st18{clip-path:url(#SVGID_3_);fill:#B0CBE9;}
	.st19{clip-path:url(#SVGID_3_);fill:#DDE5ED;}
	.st20{clip-path:url(#SVGID_3_);fill:#AAC8E8;}
	.st21{clip-path:url(#SVGID_3_);fill:url(#SVGID_5_);}
	.st22{clip-path:url(#SVGID_3_);fill:#0FA371;}
	.st23{clip-path:url(#SVGID_3_);fill:#14D997;}
	.st24{clip-path:url(#SVGID_3_);fill:#13CE8F;}
	.st25{clip-path:url(#SVGID_3_);fill:url(#SVGID_6_);}
	.st26{clip-path:url(#SVGID_3_);fill:#BAE1E0;}
	.st27{clip-path:url(#SVGID_3_);fill:#4199D5;}
	.st28{clip-path:url(#SVGID_3_);fill:#8BC5DB;}
	.st29{clip-path:url(#SVGID_3_);fill:#90C7DC;}
	.st30{clip-path:url(#SVGID_3_);fill:#B7DEE0;}
	.st31{clip-path:url(#SVGID_3_);fill:#8AC5DB;}
	.st32{clip-path:url(#SVGID_3_);fill:#90C3D1;}
	.st33{clip-path:url(#SVGID_3_);fill:#918F4A;}
	.st34{clip-path:url(#SVGID_3_);fill:#72E8C1;}
	.st35{clip-path:url(#SVGID_3_);fill:#29DCA0;}
	.st36{clip-path:url(#SVGID_3_);fill:#B5904A;}
	.st37{clip-path:url(#SVGID_3_);fill:#B38C44;}
	.st38{clip-path:url(#SVGID_3_);fill:#B89551;}
	.st39{clip-path:url(#SVGID_3_);fill:#B6914B;}
	.st40{clip-path:url(#SVGID_3_);fill:#BF9F62;}
	.st41{clip-path:url(#SVGID_3_);fill:#BD9C5D;}
	.st42{clip-path:url(#SVGID_8_);}
	.st43{clip-path:url(#SVGID_10_);fill:#B18A40;}
	.st44{clip-path:url(#SVGID_12_);fill:#4FC585;}
	.st45{clip-path:url(#SVGID_12_);fill:#B18A40;}
	.st46{clip-path:url(#SVGID_14_);fill:#BA9857;}
	.st47{clip-path:url(#SVGID_14_);fill:#B18A40;}
	.st48{clip-path:url(#SVGID_14_);fill:#0959AA;}
	.st49{clip-path:url(#SVGID_14_);fill:#A08741;}
	.st50{clip-path:url(#SVGID_14_);fill:#095BA0;}
</style>
<g>
	
		<linearGradient id="SVGID_1_" gradientUnits="userSpaceOnUse" x1="0" y1="600.0006" x2="1" y2="600.0006" gradientTransform="matrix(-581.588 -454.2971 454.2971 -581.588 -271840.5 349576.7188)">
		<stop  offset="0" style="stop-color:#CFEDF9"/>
		<stop  offset="0.1575" style="stop-color:#CFEDF9"/>
		<stop  offset="0.6526" style="stop-color:#E7F6FC"/>
		<stop  offset="1" style="stop-color:#F3FAFD"/>
	</linearGradient>
	<path class="st0" d="M490.5,318.5v55.1c1.2-0.8,2.5-1.3,4.1-1.5c0.3,0,0.6,0,0.9,0c6.1,0,13.3,5.9,20.1,10.6
		c3.6,1.2,7,2.5,10.4,3.9v-43.7C513,338.2,499.8,328.7,490.5,318.5 M490.5,208.1v44.5c2.7-2.6,5.8-5,9.2-6.9c7.1-4,14.8-6,22.4-6
		c1.3,0,2.6,0.1,3.9,0.2v-19.5C514.1,216.7,502.2,212.6,490.5,208.1 M81.4,126.2c-3,3.2-5.8,6.2-8.5,9
		c-40,41.3-60.6,101.1-47.8,161.9c11.8,56.1,28.8,99.6,56.3,132.6V126.2 M222.6,67.7c-60.3,0-95.2,18-118.9,37.3h165.5v362.3H259v0
		l-134.8,0c26.8,17.1,59.9,29.3,101.2,37.3c35,6.8,178.5,13.4,211.4,24c60.1,19.3,109.7,26.7,150.2,26.7
		c98.4,0,143.3-43.4,155.7-63.8c27.8-45.7,37.7-96.1,17.9-150.5c-8.9-24.4-27-44.4-46.9-59.5v185.8h-10.2v0H642
		c-0.8,13.7,2.9,27.5,9,39.9c4.9,10.2,11.3,24,18.5,35.7c-18.9,6.4-41.8,11-69.2,12.1c-4.3,0.2-8.7,0.3-13.2,0.3c-0.8,0-1.7,0-2.5,0
		c0,0,0,0-0.1,0c-3.9-7.8-8-13.9-12.1-16.8c-14.2-10-31.5-16.5-47.4-23.2c-0.2-0.1-0.4-0.2-0.6-0.3c-3.5-1.2-7.2-2.4-10.6-3.9
		c-12.3-4.1-18.9-6.2-18.5-26.2c0.2-14.8-2.2-29.4-4.8-43.9v26.2h-10.3v0H312.9v0h-10.2V105h19.2c-31-21-62.8-37.2-97.7-37.3
		C223.7,67.7,223.1,67.7,222.6,67.7"/>
	<polyline class="st1" points="81.4,105 269.2,105 269.2,467.3 81.4,467.3 81.4,105 	"/>
	<polyline class="st2" points="259,467.3 91.7,467.3 91.7,116.2 259,116.2 259,467.3 	"/>
	<polyline class="st3" points="259,116.2 210.3,116.2 259,116.2 259,116.2 	"/>
	<polyline class="st4" points="91.7,467.3 91.7,467.3 91.7,467.4 99.8,467.4 99.8,467.3 91.7,467.3 91.7,467.3 	"/>
	<polyline class="st3" points="91.7,116.3 91.6,116.3 91.7,467.3 91.7,467.3 91.7,116.3 	"/>
	<polyline class="st5" points="259,116.2 210.3,116.2 91.7,116.3 91.7,467.3 91.7,467.3 99.8,467.3 99.8,123.4 259,123.4 259,116.2 
			"/>
	<rect x="108.4" y="133.6" class="st6" width="133.2" height="56.6"/>
	<rect x="108.4" y="199.7" class="st6" width="61.5" height="253.6"/>
	<rect x="180.1" y="199.7" class="st6" width="61.5" height="253.6"/>
	<circle class="st7" cx="175.4" cy="267.1" r="23.4"/>
	<polygon class="st7" points="189.6,273.5 161,273.5 147.9,356.3 202.7,356.3 	"/>
	<circle class="st8" cx="175.5" cy="267.5" r="20.3"/>
	<polygon class="st8" points="187.2,277.8 163.8,277.8 151.8,353.7 199.2,353.7 	"/>
	<polyline class="st1" points="302.7,105 490.5,105 490.5,467.3 302.7,467.3 302.7,105 	"/>
	<polyline class="st2" points="480.2,467.3 312.9,467.3 312.9,116.2 480.2,116.2 480.2,467.3 	"/>
	<rect x="329.7" y="133.6" class="st6" width="133.2" height="56.6"/>
	<rect x="329.7" y="199.7" class="st6" width="61.5" height="253.6"/>
	<rect x="401.4" y="199.7" class="st6" width="61.5" height="253.6"/>
	<path class="st7" d="M396.7,243.7c12.9,0,23.4,10.5,23.4,23.4s-10.5,23.4-23.4,23.4c-12.9,0-23.4-10.5-23.4-23.4
		S383.8,243.7,396.7,243.7z"/>
	<polygon class="st7" points="410.9,273.5 382.3,273.5 369.3,356.3 424,356.3 	"/>
	<path class="st8" d="M396.9,247.2c11.2,0,20.3,9.1,20.3,20.3s-9.1,20.3-20.3,20.3s-20.3-9.1-20.3-20.3S385.7,247.2,396.9,247.2z"/>
	<polygon class="st8" points="408.5,277.8 385.1,277.8 373.1,353.7 420.5,353.7 	"/>
	<polyline class="st3" points="480.3,116.2 313,116.2 313,116.2 480.2,116.2 480.2,123.3 480.3,123.3 480.3,116.2 	"/>
	<polyline class="st5" points="480.2,116.2 313,116.2 313,467.3 321.2,467.3 321.2,123.3 480.2,123.3 480.2,116.2 	"/>
	<polyline class="st1" points="526,105 713.8,105 713.8,467.3 526,467.3 526,105 	"/>
	<polyline class="st9" points="703.6,467.3 536.3,467.3 536.3,116.2 703.6,116.2 703.6,467.3 	"/>
	<rect x="553" y="133.6" class="st10" width="133.2" height="56.6"/>
	<polyline class="st10" points="553,199.7 614.5,199.7 614.5,453.3 553,453.3 553,199.7 	"/>
	<rect x="624.7" y="199.7" class="st10" width="61.5" height="253.6"/>
	<circle class="st7" cx="620" cy="267.1" r="23.4"/>
	<polygon class="st7" points="634.2,273.5 605.6,273.5 592.6,356.3 647.3,356.3 	"/>
	<circle class="st8" cx="620.2" cy="267.5" r="20.3"/>
	<polygon class="st8" points="631.9,277.8 608.4,277.8 596.4,353.7 643.8,353.7 	"/>
	<path class="st11" d="M536.3,116.3L536.3,116.3L536.2,242c0,0,0.1,0,0.1,0V116.3 M703.6,116.3L703.6,116.3l0,7.1h0V116.3"/>
	<path class="st12" d="M703.6,116.3H536.3V242c2.8,0.9,5.5,2.1,8.1,3.6V123.4h159.2V116.3"/>
	<path class="st11" d="M536.2,345.5v45.1c0,0,0.1,0,0.1,0L536.2,345.5C536.3,345.5,536.2,345.5,536.2,345.5"/>
	<path class="st12" d="M536.3,345.5v45.1c2.6,1,5.3,1.8,8.1,2.5v-47.3c-0.9,0.1-1.8,0.1-2.7,0.1
		C539.9,345.9,538.1,345.8,536.3,345.5 M544.4,325.2c-3.1,1-5.4,3.9-5.4,7.3c0,3.4,2.2,6.4,5.4,7.4V325.2"/>
	<path class="st13" d="M509.7,93.6h37.5c4.4,0,8-3.6,8-8V48.1c0-4.4-3.6-8-8-8h-35.6c-5.5,0-10,4.5-10,10v35.6
		C501.7,90,505.3,93.6,509.7,93.6z"/>
	<path class="st13" d="M509.7,156.2h37.5c4.4,0,8-3.6,8-8v-37.5c0-4.4-3.6-8-8-8h-35.6c-5.5,0-10,4.5-10,10v35.6
		C501.7,152.6,505.3,156.2,509.7,156.2z"/>
	<path class="st13" d="M509.7,218.8h37.5c4.4,0,8-3.6,8-8v-37.5c0-4.4-3.6-8-8-8h-35.6c-5.5,0-10,4.5-10,10v35.6
		C501.7,215.2,505.3,218.8,509.7,218.8z"/>
	<path class="st2" d="M534.9,191.3h-3v-0.1c0-0.9,0-5.9,0-6.1c-0.1-2.8-2.3-5-5.2-5c-2.8,0-5.1,2.2-5.2,5c0,0.2,0,5.2,0,6.1v0.1h-3
		v-0.1c0-6.1,0-6.1,0-6.2c0.1-4.5,3.7-8,8.2-8s8.1,3.5,8.2,8C534.9,185,534.9,185.1,534.9,191.3L534.9,191.3z"/>
	<path class="st2" d="M536.9,207.7h-20.4c-0.7,0-1.2-0.6-1.2-1.2V190c0-0.7,0.6-1.2,1.2-1.2h20.4c0.7,0,1.2,0.6,1.2,1.2v16.5
		C538.2,207.2,537.6,207.7,536.9,207.7z"/>
	<path class="st2" d="M538,208.9h-22.5c-0.5,0-0.9-0.4-0.9-0.9v-3.8c0-0.5,0.4-0.9,0.9-0.9H538c0.5,0,0.9,0.4,0.9,0.9v3.8
		C538.9,208.5,538.5,208.9,538,208.9z"/>
	<path class="st2" d="M521.3,82.9c0.4,0.5,0.9,0.9,1.4,1.1c1.2,0.4,2.5-0.5,3.4-1.3c5.4-4.8,16.1-23.3,20.5-29.9
		c0.5-0.8,1-1.6,0.9-2.5c-1.4-3.1-23.3,21.3-25,21.2c-1.8-0.1-9-5.8-10.7-6.7c-0.3-0.2-0.7-0.3-1.1-0.2c-0.8,0.3-2.1,2-0.8,4.1
		C514.1,75.1,521.3,82.9,521.3,82.9z"/>
	<path class="st2" d="M521.3,145.3c0.4,0.5,0.9,0.9,1.4,1.1c1.2,0.4,2.5-0.5,3.4-1.3c5.4-4.8,16.1-23.3,20.5-29.9
		c0.5-0.8,1-1.6,0.9-2.5c-1.4-3.1-23.3,21.3-25,21.2c-1.8-0.1-9-5.8-10.7-6.7c-0.3-0.2-0.7-0.3-1.1-0.2c-0.8,0.3-2.1,2-0.8,4.1
		C514.1,137.5,521.3,145.3,521.3,145.3z"/>
	<g>
		<defs>
			<path id="SVGID_2_" d="M72.9,135.2c-40,41.3-60.6,101.1-47.8,161.9c25.3,120.7,75.2,183.3,200.4,207.5
				c35,6.8,178.5,13.4,211.4,24c206.2,66.3,288.4-8.3,305.9-37.1c27.8-45.7,37.7-96.1,17.9-150.5c-19.3-53.1-82.6-85.6-113-91.4
				c-78.8-15-159-34.2-229.6-76.3C354,135.2,295.4,68,224.2,67.7C129.8,67.2,96.8,110.5,72.9,135.2"/>
		</defs>
		<clipPath id="SVGID_3_">
			<use xlink:href="#SVGID_2_"  style="overflow:visible;"/>
		</clipPath>
		<path class="st14" d="M490,427.6c9.6-6.8,21.5-20.8,17.6-33.5c-1.1-3.7-78.7-70.4-84.2-73.8c-5.5-3.4-12.1-5.5-18.4-4
			c-2.5,0.6-5.2,2.1-5.5,4.7c-0.1,1.1,0.2,2.1,0.6,3.1c1.4,3.5,34.6,45.8,49.9,63.1C453.3,391,485.8,430.6,490,427.6"/>
		<path class="st14" d="M720.1,592.8c-14-12.5-24.3-18.7-39.6-35c-11.6-12.4-22.2-35.4-29.5-50.6c-6.7-13.8-10.6-29.3-8.5-44.5
			c1.8-13.3,8.1-25.9,7.9-39.3c-0.5-21.3-17-38.1-31.2-54c-21.2-23.6-35.4-40.9-42.2-71.8c-1.3-5.7-3.8-13-9.7-12.9
			c-1.7,0-3.3,0.8-4.7,1.7c-7.5,4.9-10.7,14.3-11.9,23.1c-1.8,13.3-0.3,27.7,4.9,40.1c3.9,9.4,19.7,35.2,17.2,41.6
			c-1.5,3.8-7.5,3.2-11.5,3.5c-13.1,1-24.5-2.2-36.6-6.7c-9.1-3.4-21-16.8-30.1-15.9c-7.8,0.8-10.5,10.8-10.5,18.7
			c0.1,31.7,11.7,62.5,11.2,94.2c-0.4,25.4,10.3,22,29.8,30.3c15.9,6.7,33.2,13.2,47.4,23.2c16,11.3,32.4,72.9,37.4,91.9
			L720.1,592.8"/>
		<path class="st15" d="M550,325.6c0.3,4.2,0.9,8.5,1.8,12.6c0,0,0,0,0.1-0.1C551,334,550.4,329.8,550,325.6
			C550.1,325.6,550.1,325.6,550,325.6"/>
		<path class="st14" d="M550.1,325.6c0.3,4.2,0.9,8.4,1.8,12.5c1.5-1.4,2.5-3.4,2.5-5.6C554.4,329.5,552.7,326.9,550.1,325.6"/>
		
			<linearGradient id="SVGID_4_" gradientUnits="userSpaceOnUse" x1="0" y1="600.0746" x2="1" y2="600.0746" gradientTransform="matrix(-581.588 -454.2971 454.2971 -581.588 -271840.5 349576.7188)">
			<stop  offset="0" style="stop-color:#CDE5EA"/>
			<stop  offset="0.1575" style="stop-color:#CDE5EA"/>
			<stop  offset="0.6526" style="stop-color:#E3EEED"/>
			<stop  offset="1" style="stop-color:#EEF1EE"/>
		</linearGradient>
		<path class="st16" d="M515.6,382.7c3.2,2.2,6.3,4.3,9.1,5.3c0.4,0.2,0.9,0.3,1.3,0.5v-1.9C522.6,385.2,519.2,383.9,515.6,382.7"/>
		<path class="st17" d="M526,386.6v1.9c3.4,1.3,6.8,2.4,10.2,3.4v-1.2C532.8,389.4,529.4,388,526,386.6"/>
		<path class="st15" d="M544.4,393.1v0.6c2.8,0.5,5.7,0.9,8.6,1v-0.2C550,394.3,547.2,393.8,544.4,393.1"/>
		<path class="st18" d="M553.3,343.4C553.3,343.4,553.3,343.4,553.3,343.4c0.6,2.1,1.3,4.1,2.2,6.1c3.9,9.4,19.7,35.2,17.2,41.6
			c-1.5,3.8-7.4,3.2-11.5,3.5c-1.3,0.1-2.7,0.2-3.9,0.2c-1.5,0-2.9-0.1-4.3-0.2v0.2c1.2,0.1,2.3,0.1,3.5,0.1c1.6,0,3.2-0.1,4.8-0.2
			c4-0.3,10,0.3,11.5-3.5c2.5-6.4-13.3-32.2-17.2-41.6C554.7,347.6,554,345.5,553.3,343.4"/>
		<path class="st19" d="M536.2,390.6v1.2c0,0,0.1,0,0.1,0L536.2,390.6C536.3,390.6,536.2,390.6,536.2,390.6"/>
		<path class="st20" d="M536.3,390.6v1.2c2.7,0.8,5.4,1.4,8.1,1.9v-0.6C541.6,392.5,538.9,391.6,536.3,390.6"/>
		
			<linearGradient id="SVGID_5_" gradientUnits="userSpaceOnUse" x1="0" y1="599.936" x2="1" y2="599.936" gradientTransform="matrix(-581.588 -454.2971 454.2971 -581.588 -271840.5 349576.7188)">
			<stop  offset="0" style="stop-color:#CDE5EA"/>
			<stop  offset="0.1575" style="stop-color:#CDE5EA"/>
			<stop  offset="0.6526" style="stop-color:#E3EEED"/>
			<stop  offset="1" style="stop-color:#EEF1EE"/>
		</linearGradient>
		<path class="st21" d="M513.8,511.2c3.4,1.4,7.1,2.6,10.6,3.9C520.6,513.4,517,512.2,513.8,511.2"/>
		<path class="st14" d="M565.7,330.5c-2.5,5-5.9,9.1-10.4,11.7c-0.6,0.4-1.3,0.8-1.9,1.1c0.7,2.1,1.4,4.2,2.3,6.2
			c3.9,9.4,19.7,35.2,17.2,41.6c-1.5,3.8-7.5,3.2-11.5,3.5c-1.6,0.1-3.2,0.2-4.8,0.2c-1.2,0-2.3,0-3.5-0.1c-2.9-0.2-5.8-0.5-8.6-1
			c-2.7-0.5-5.4-1.1-8.1-1.9c0,0-0.1,0-0.1,0c-3.4-1-6.8-2.1-10.2-3.4c-0.4-0.2-0.9-0.3-1.3-0.5c-2.8-1.1-5.9-3.1-9.1-5.3
			c-2.5-0.8-5-1.5-7.6-2.1c-0.7-0.1-1.5-0.2-2.2-0.2c-2.8,0-5.6,1-7.1,3.3c-1.3,2-1.4,4.6-1.4,7c0.2,33.9,9.6,68,3.4,101.3
			c-1.9,10.6,4.7,15.7,13.1,19.2c3.2,1,6.7,2.2,10.6,3.9c2.2,0.8,4.3,1.5,6.2,2.4c14,6.1,29.2,11.9,41.7,20.8
			c4.1,2.9,8.2,9.1,12.2,17.1c0.8,0,1.7,0,2.5,0c4.5,0,8.9-0.1,13.2-0.3c-4.3-8.3-8.6-16.5-12.7-24.8c-5.5-11.1-10.8-23.1-9.5-35.4
			c2.5-22.8,26.6-38.6,29.5-61.4c2.6-20.3-12.1-38-22.8-55.5C575.9,363.3,569.4,347.2,565.7,330.5"/>
		<path class="st22" d="M547.7,323.9c-3.6-0.2-6.7,1.9-7.9,5.1c1.3-0.7,2.7-1,4.3-0.9c4.4,0.3,7.7,4.1,7.4,8.4
			c-0.1,0.8-0.2,1.6-0.5,2.3c2.3-1.3,4-3.6,4.2-6.5C555.4,328,552.1,324.2,547.7,323.9z"/>
		<path class="st23" d="M561.6,262.7c-12.4-21.8-40.2-29.4-61.9-17c-21.8,12.4-29.4,40.2-17,61.9c12.4,21.8,50.4,47.3,72.2,34.9
			c16.8-9.6,19.1-38.8,13.6-61.6C566.8,274.1,564.5,267.8,561.6,262.7 M546.7,340.2c-4.3,0-7.7-3.5-7.7-7.7c0-4.3,3.5-7.7,7.7-7.7
			c4.3,0,7.7,3.5,7.7,7.7C554.4,336.7,550.9,340.2,546.7,340.2"/>
		<path class="st24" d="M500.6,245.4c0,0-0.1,0-0.2,0.1C500.5,245.5,500.5,245.4,500.6,245.4C500.6,245.4,500.6,245.4,500.6,245.4"
			/>
		
			<linearGradient id="SVGID_6_" gradientUnits="userSpaceOnUse" x1="0" y1="600.1208" x2="1" y2="600.1208" gradientTransform="matrix(-581.588 -454.2971 454.2971 -581.588 -271840.5 349576.7188)">
			<stop  offset="0" style="stop-color:#A9DEDE"/>
			<stop  offset="0.1575" style="stop-color:#A9DEDE"/>
			<stop  offset="0.6526" style="stop-color:#BCE5E0"/>
			<stop  offset="1" style="stop-color:#C5E9E1"/>
		</linearGradient>
		<path class="st25" d="M490.5,318.2v0.3c9.3,10.2,22.5,19.7,35.5,24.4v-0.1C512.9,338.1,499.6,328.5,490.5,318.2"/>
		<path class="st26" d="M480.2,302.6v0.7c0.6,1.4,1.3,2.7,2.1,4.1c2.1,3.7,4.9,7.4,8.2,11.1v-0.3c-3.1-3.5-5.8-7.1-7.8-10.6
			C481.8,306,481,304.3,480.2,302.6"/>
		<path class="st27" d="M479.8,268.9c-4.5,10.9-4.5,23.1,0.5,34.4v-0.7C475.6,291.6,475.7,279.5,479.8,268.9"/>
		<path class="st26" d="M526,342.7v0.1c3.4,1.2,6.9,2.1,10.2,2.6v-0.2C532.9,344.9,529.4,344,526,342.7"/>
		<path class="st28" d="M553,343.5c-2.7,1.2-5.6,1.9-8.6,2.2v0.2C547.5,345.5,550.3,344.8,553,343.5L553,343.5"/>
		<path class="st29" d="M553.3,343.3c-0.1,0-0.2,0.1-0.3,0.1v0.1C553.1,343.5,553.2,343.5,553.3,343.3
			C553.3,343.4,553.3,343.4,553.3,343.3"/>
		<path class="st30" d="M536.2,345.3v0.2c0,0,0.1,0,0.1,0L536.2,345.3C536.3,345.4,536.2,345.4,536.2,345.3"/>
		<path class="st31" d="M536.3,345.4v0.2c1.8,0.3,3.6,0.4,5.4,0.4c0.9,0,1.8,0,2.7-0.1v-0.2c-0.9,0.1-1.8,0.1-2.7,0.1
			C539.9,345.8,538.1,345.6,536.3,345.4"/>
		<path class="st32" d="M553.3,343.3C553.3,343.3,553.3,343.3,553.3,343.3C553.3,343.4,553.3,343.4,553.3,343.3
			C553.3,343.4,553.3,343.4,553.3,343.3C553.3,343.4,553.3,343.3,553.3,343.3"/>
		<path class="st33" d="M555.3,342.3c-0.1,0.1-0.2,0.1-0.4,0.2c-0.5,0.3-1,0.6-1.6,0.8c0,0,0,0,0,0.1
			C554,343,554.6,342.7,555.3,342.3"/>
		<path class="st24" d="M500.4,245.5c-9.8,5.8-16.9,14.1-20.7,23.4c-4.1,10.6-4.2,22.7,0.5,33.8c0.7,1.7,1.5,3.3,2.5,5
			c2,3.5,4.7,7.1,7.8,10.6c9.1,10.2,22.4,19.8,35.5,24.5c3.4,1.2,6.9,2.1,10.2,2.6c0,0,0.1,0,0.1,0c1.8,0.3,3.6,0.4,5.4,0.4
			c0.9,0,1.8,0,2.7-0.1c3-0.3,5.9-1,8.6-2.2c0.1,0,0.2-0.1,0.3-0.1c0,0,0,0,0.1,0c0.5-0.3,1.1-0.5,1.6-0.8c0.1-0.1,0.2-0.1,0.4-0.2
			c0,0,0.1-0.1,0.1-0.1c0,0-4.5,1.5-11,1.5c-2.3,0-4.9-0.2-7.7-0.7c-15.4-2.9-38.9-19.1-49.6-41.7
			C470.5,266.2,498.1,247,500.4,245.5"/>
		<path class="st34" d="M524,242.8c20.5,0,37.2,16.7,37.2,37.2s-16.7,37.2-37.2,37.2c-20.5,0-37.2-16.7-37.2-37.2
			S503.5,242.8,524,242.8"/>
		<path class="st35" d="M523.4,249.3c16.5,0,29.9,13.4,29.9,29.9c0,16.5-13.4,29.9-29.9,29.9c-16.5,0-29.9-13.4-29.9-29.9
			C493.5,262.7,506.9,249.3,523.4,249.3"/>
		<path class="st36" d="M489.2,427.4c-2.7-14.2-3.7-35.2-2.2-49.6c2.1-20.8,6.4-39.5,5.5-56c-0.7-12.7-1.3-25.8-7-37.2
			c-3.2-6.5-12.5-17.1-17.4-13.1c-4.1,3.3-7.8,52.1-10.9,76.3c-1.8,13.8-3.5,27.6-5.3,41.4c-0.7,5.2-1.3,10.6,0.1,15.6
			c1.5,5.4,30,39.5,45,45.7c1.4,0.6,3,1.1,4.5,0.8c2.9-0.6,4.4-3.8,4.7-6.7c1.2-9.1-3.8-17.7-8.6-25.5"/>
		<path class="st37" d="M489.2,427.4c-2.7-14.2-3.7-35.2-2.2-49.6c2.1-20.8,6.4-39.5,5.5-56c-0.5-8.6-1.2-17.1-2.9-25.5
			c-2.6-12.6-6.1-15.2-11-21c4.7,7,6.8,15.5,8.1,23.9c2,13,2.1,26.7-2.2,39.1c-4.1,11.6-11.8,21.5-17.5,32.3
			c-3.9,7.4-6.9,15.3-8.9,23.4c-1,4.2-1.8,8.6-1.3,13c1.4,10.9,9.8,17.6,16.9,24.9c6.7,6.8,14.2,14.9,23.2,18.6
			c1.4,0.6,3,1.1,4.5,0.8c2.9-0.6,4.4-3.8,4.7-6.7c1.2-9.1-3.8-17.7-8.6-25.5"/>
		<path class="st38" d="M456.8,461.6c-2.4-9.6,13.5-73.1,17.6-80.5c8.8-15.5,30.6-9.7,44.8-8.1c14.3,1.7,45.3,6.1,46.3,6.8
			c1.7,1.4,2,3.9,1.5,6.1c-1.3,6.1-6.6,10.8-12.6,12.9c-5,1.8-35.6,0.7-44.7,0.7c-2.5,0-5.3,0.1-7.2,1.8c-1.4,1.3-2,3.2-2.5,5
			c-4.3,14.7-15.5,53.3-15.8,58c-0.5,6.8,1.2,13.7,4.8,19.6c-6.2-1.5-23-8.3-25.1-10C460.2,470.8,458,466.2,456.8,461.6z"/>
		<path class="st39" d="M474.7,462.3c0.2-5,0.9-10,1.7-15c2.2-15,4.9-30.1,9.8-44.4c1.3-3.8,2.9-7.7,6-10c3.4-2.5,7.9-2.8,12.1-2.7
			c10.3,0.3,20.5,2.7,30.8,2.8c6.6,0.1,13.3-0.9,19.3-3.7c3-1.4,5.8-3.2,8.1-5.5c0.8-0.8,2.1-3.2,3.4-2.9c1.7,0.5,1.3,3.8,1,5
			c-1.3,6.1-6.6,10.8-12.6,12.9c-5,1.8-35.6,0.7-44.7,0.7c-2.5,0-5.3,0.1-7.2,1.8c-1.4,1.3-2,3.2-2.5,5c-4.3,14.7-15.5,53.3-15.8,58
			c-0.5,6.8,1.2,13.7,4.8,19.6c-0.2-0.4-3.7-1.2-4.3-1.5c-1.8-0.8-3.8-1-5.5-2c-2.9-1.8-3.9-5.5-4.2-8.9
			C474.7,468.5,474.6,465.4,474.7,462.3z"/>
		<path class="st40" d="M481.3,465.8c-2.2-16,5.7-51.4,11.9-58.3c1.6-1.8,6.9-4.2,9.4-4.2c12.3,0.3,63.6,1.9,77.2,3.4
			c1.2,0.1,2.4,0.3,3.4,1c1.9,1.2,2.3,3.8,2,6.1c-0.8,6.3-7.7,11.1-13.5,13.6c-5.8,2.6-48.3,1.9-49.8,3.5c-1.1,1.2-4,3.1-4.5,4.5
			c-3.4,10.6-1.8,37.6-0.9,41.7c2.5,12,7.8,35.6,19.8,43.3c-13.4-2.7-35.6-9.6-44.2-17.6C485.1,496.3,482.6,475.2,481.3,465.8z"/>
		<path class="st41" d="M504.8,464.2c-0.7-10.5,0.1-21,2.5-31.2c1.3-5.9,3.7-12.3,9.2-14.8c3.2-1.5,7-1.3,10.5-1
			c16.3,1.2,32.7,2.8,48.8,0.2c2-0.3,5.5,4.1,4.9,4.6c-5,4.4-9.1,5.7-15.4,6.4c-5.6,0.6-11.4,0.7-17,0.9c-6,0.2-12,0.3-18,0.6
			c-1.6,0.1-8.7,0.8-10,2.2c-1.1,1.2-2.4,1.8-2.8,3.3c-3.4,10.6-1.8,37.6-0.9,41.7c1.7,7.8,3.5,15.6,6.3,23.1
			c1.5,4.1,3.3,8.2,5.8,11.9c1.4,2.1,6.3,7.1,7.8,8.1c-7,0-19.4-12.1-20.6-14.8C509.4,492.6,505.7,478.5,504.8,464.2z"/>
	</g>
	<g>
		<defs>
			<path id="SVGID_7_" d="M72.9,135.2c-40,41.3-60.6,101.1-47.8,161.9c25.3,120.7,75.2,183.3,200.4,207.5
				c35,6.8,178.5,13.4,211.4,24c206.2,66.3,288.4-8.3,305.9-37.1c27.8-45.7,37.7-96.1,17.9-150.5c-19.3-53.1-82.6-85.6-113-91.4
				c-78.8-15-159-34.2-229.6-76.3C354,135.2,295.4,68,224.2,67.7C129.8,67.2,96.8,110.5,72.9,135.2"/>
		</defs>
		<clipPath id="SVGID_8_">
			<use xlink:href="#SVGID_7_"  style="overflow:visible;"/>
		</clipPath>
		<g class="st42">
			<defs>
				<path id="SVGID_9_" d="M523.4,249.3c16.5,0,29.9,13.4,29.9,29.9c0,16.5-13.4,29.9-29.9,29.9c-16.5,0-29.9-13.4-29.9-29.9
					C493.5,262.7,506.9,249.3,523.4,249.3"/>
			</defs>
			<clipPath id="SVGID_10_">
				<use xlink:href="#SVGID_9_"  style="overflow:visible;"/>
			</clipPath>
			<path class="st43" d="M518.4,291.3c0.7,6.7-1.1,13.6-4.9,19.2c-0.6,0.9-1.3,1.9-1.5,3c-0.1,0.9,0.1,1.8,0.4,2.6
				c1.7,5.5,5.5,11.2,11.3,11.8c3.8,0.4,7.5-1.7,10.1-4.6c2.6-2.9,4.1-6.5,5.6-10c-6.3-7.5-8.1-18.6-4.5-27.7L518.4,291.3"/>
		</g>
		<g class="st42">
			<defs>
				<path id="SVGID_11_" d="M523.4,249.3c16.5,0,29.9,13.4,29.9,29.9c0,16.5-13.4,29.9-29.9,29.9c-16.5,0-29.9-13.4-29.9-29.9
					C493.5,262.7,506.9,249.3,523.4,249.3"/>
			</defs>
			<clipPath id="SVGID_12_">
				<use xlink:href="#SVGID_11_"  style="overflow:visible;"/>
			</clipPath>
			<path class="st44" d="M533.1,295.7C533.1,295.7,533.1,295.7,533.1,295.7C533.1,295.7,533.1,295.7,533.1,295.7
				c0,2.6,0.4,5.2,1.1,7.7c-0.3-1-0.5-2-0.7-3.1C533.2,298.8,533.1,297.2,533.1,295.7"/>
			<path class="st45" d="M528.3,293.2c-1.5,1.5-3.2,2.7-5.5,3.6c-0.5,0.2-1.1,0.4-1.7,0.6c-1,3.1-2.5,6.1-4,9
				c-0.3,0.6-0.6,1.2-1,1.8c2.3,0.6,4.8,0.9,7.3,0.9c4.2,0,8.3-0.9,11.9-2.5c-0.4-1.1-0.8-2.2-1.1-3.3c-0.7-2.5-1.1-5.1-1.1-7.7
				c-0.2,0.1-0.5,0.1-0.7,0.1C530.9,295.8,529.3,294.6,528.3,293.2"/>
		</g>
	</g>
	<g>
		<defs>
			<path id="SVGID_13_" d="M72.9,135.2c-40,41.3-60.6,101.1-47.8,161.9c25.3,120.7,75.2,183.3,200.4,207.5
				c35,6.8,178.5,13.4,211.4,24c206.2,66.3,288.4-8.3,305.9-37.1c27.8-45.7,37.7-96.1,17.9-150.5c-19.3-53.1-82.6-85.6-113-91.4
				c-78.8-15-159-34.2-229.6-76.3C354,135.2,295.4,68,224.2,67.7C129.8,67.2,96.8,110.5,72.9,135.2"/>
		</defs>
		<clipPath id="SVGID_14_">
			<use xlink:href="#SVGID_13_"  style="overflow:visible;"/>
		</clipPath>
		<path class="st46" d="M508.1,296.3c2.7,3.2,10.7,2.1,14.7,0.5c4-1.6,6-4,8.7-7.3c4.2-5.2,7.3-12.1,5.3-18.6
			c-1.6-5.2-6.4-9.1-11.6-10.7c-9.2-2.9-17.3,0.7-17.2,9.7c0.1,5-2.3,7.3-2.5,13.6C505.3,288.9,507.2,295.3,508.1,296.3"/>
		<path class="st47" d="M520.6,297.3c4.6-0.5,8.1-4.5,10.8-7.8c4.2-5.2,7.3-12.1,5.3-18.6c-1.6-5.2-6.4-9.1-11.6-10.7
			c-4-1.3-8.9-1.6-12.6,0.7c-1.8,1.1-2.2,2.5-3,4.3c-1,2.4-1.6,4.9-1.6,7.5c2-0.8,4.3-0.6,6.3,0.5c1.9,1,3.4,2.7,4.4,4.6
			c1.1,1.9,1.7,4,2.3,6.1c0.6,2.2,1.1,4.5,1.1,6.8C522,292.9,521.6,295.3,520.6,297.3"/>
		<path class="st48" d="M535.1,253.9c-1.2-1.3-2.7-2.3-4.5-2.7c-2.1-0.5-4.2-0.3-6.3,0c-3,0.3-6,0.7-8.8,2c-2.7,1.2-4.9,3.2-7.4,4.8
			c-3.7,2.3-6.5,2.3-10.6,1.4c-1.3-0.3-2.8-0.3-3.9,0.4c-1.1,0.7-1.7,2.4-0.9,3.5c0.1,0.2,0.3,0.3,0.5,0.4c0.4,0.1,0.9-0.2,1.3-0.3
			c1.3-0.3,2.3,1.2,3.1,2.3c3.3,4.7,7.6,4.4,12,4.1c3.1-0.2,6.3-0.4,9.2,1.1c1.4,0.7,2.6,2,3.2,3.6c0.6,1.6,0.1,3.2,0.1,4.9
			c0,0.5,0.1,1,0.4,1.4c0.5,0.7,1.7,0.6,2.5,0.2c0.8-0.4,1.6-0.9,2.5-1c1.3,0,2.3,1.1,2.6,2.3c0.3,1.2-1.3,2.9-1.8,4
			c-0.4,1.2-1,2.4-1.1,3.6c-0.3,2.5,3.3,6.7,5.9,5.8c2.6-0.8,4.3-4.7,5.8-6.8c2-2.9,4.4-5.5,6.2-8.5c2.1-3.4,3.5-7.6,2.5-11.5
			c-1-3.9-5.1-7.2-9-6.1C538.6,259.5,537.3,256.2,535.1,253.9"/>
		<path class="st49" d="M529.5,281.1c0.3,0.7,0.4,1.4,0.5,2.1c0.1-0.3,0.1-0.6,0.1-0.9C530,281.9,529.8,281.4,529.5,281.1"/>
		<path class="st50" d="M496.7,259.8c-0.5,0-1.1,0.1-1.6,0.3c-0.5,0.3-1.1,0.8-0.9,1.3c1.7,0.4,3.5,0.8,4.9,1.8
			c1.4,1,1.9,2.6,3.3,3.5c1.4,1,3.2,1.1,4.9,1.2c0.4,0,0.8,0,1.2,0c0.8,0,1.6,0,2.4,0c0.8,0,1.6,0,2.4,0c0.7,0,1.4,0,2.1,0.1
			c2.2,0.2,4.4,1.6,6.1,3c1.1,1,2.2,2.1,2.5,3.5c0.2,1.2-0.1,2.7,0.8,3.6c0.1,0,0.1,0,0.2,0c0.5,0,0.7-0.8,1.2-0.9
			c0.3,0,0.5,0.2,0.7,0.3c1.2,1,2.1,2.2,2.7,3.7c0.3,0.4,0.5,0.8,0.6,1.2c0.1,0.3,0,0.6-0.1,0.9c0,0.3,0.1,0.6,0.1,0.9
			c0,1.3-0.3,2.5-0.4,3.8c-0.1,1.3,0.1,2.7,1,3.6c0.5,0.6,1.2,0.9,1.9,0.9c0.5,0,1.1-0.2,1.5-0.6c0.6-0.7,0.6-1.8,0.8-2.7
			c0.5-3,2.8-5.4,3.5-8.3c0.2-1,0.2-2-0.1-3c-0.5-2-1.9-3.8-3.4-5.4c-0.4-0.3-0.8-0.6-1-1c-0.1-0.3-0.2-0.7-0.3-1.1
			c-0.5-2-1.3-4-2.8-5.4c-1.9-1.8-4.5-2.4-7.1-2.7c-1.2-0.1-2.5-0.2-3.7-0.2c-1.6,0-3.2,0.1-4.8,0.4c-2.5,0.4-5,1.1-7.5,1.1
			c-1.1,0-2.2-0.1-3.2-0.5c-1.6-0.6-2.9-1.5-4.5-2.3C498.9,260.2,497.8,259.8,496.7,259.8"/>
		<path class="st47" d="M525.5,280.9c0.8-1,1.6-2,2.6-2.7c1.1-0.6,2.5-0.8,3.6-0.1c1.1,0.8,1.3,2.3,1.2,3.6
			c-0.1,1.4-0.6,2.9-1.6,3.9s-2.5,1.6-3.9,1.3c-0.2,0-0.4-0.2-0.4-0.4"/>
	</g>
</g>
</svg>
