<?xml version="1.0" encoding="utf-8" ?>
<!-- Generator: Adobe Illustrator 24.0.3, SVG Export Plug-In . SVG Version: 6.00 Build 0)  -->
<svg
  version="1.1"
  xmlns="http://www.w3.org/2000/svg"
  xmlns:xlink="http://www.w3.org/1999/xlink"
  x="0px"
  y="0px"
  viewBox="0 0 615 390"
  style="enable-background:new 0 0 615 390;"
  xml:space="preserve"
>
<style type="text/css">
	.st0{fill:url(#SVGID_1_);}
	.st1{clip-path:url(#SVGID_3_);fill:#E5F0FC;}
	.st2{clip-path:url(#SVGID_3_);fill:#4E97EE;}
	.st3{clip-path:url(#SVGID_3_);fill:#D2E2F6;}
	.st4{clip-path:url(#SVGID_3_);fill:#488EE8;}
	.st5{clip-path:url(#SVGID_3_);fill:#5A9EEF;}
	.st6{clip-path:url(#SVGID_3_);fill:#306BC4;}
	.st7{fill:#14D997;}
	.st8{fill:#FFE07F;}
	.st9{fill:#FFFDF9;}
	.st10{fill:#FFFCF3;}
	.st11{fill:#FFF6DB;}
	.st12{fill:#10D38B;}
	.st13{fill:#D0F5E5;}
	.st14{fill:#FFDA71;}
	.st15{fill:#FFF5D8;}
	.st16{fill:#FFEFC3;}
	.st17{fill:#41E0AB;}
	.st18{fill:#4AC68D;}
	.st19{fill:#51E3B2;}
	.st20{fill:#B18A40;}
	.st21{fill:#A27833;}
	.st22{fill:#BA9857;}
	.st23{fill:#0959AA;}
	.st24{fill:#A0823B;}
	.st25{fill:#08549E;}
	.st26{fill:url(#SVGID_4_);}
	.st27{clip-path:url(#SVGID_6_);fill:#E5F0FC;}
	.st28{clip-path:url(#SVGID_6_);fill:#4E97EE;}
	.st29{clip-path:url(#SVGID_6_);fill:#D2E2F6;}
	.st30{clip-path:url(#SVGID_6_);fill:#488EE8;}
	.st31{clip-path:url(#SVGID_6_);fill:#5A9EEF;}
	.st32{clip-path:url(#SVGID_6_);fill:#306BC4;}
	.st33{fill:#C5A872;}
	.st34{fill:#8C713C;}
	.st35{fill:#E8C16F;}
	.st36{fill:#306BC4;}
	.st37{fill:#E0E9F6;}
	.st38{fill:#AD996E;}
	.st39{fill:#2A62BD;}
	.st40{fill:#0FA371;}
	.st41{fill:#6490D3;}
	.st42{fill:#457ACA;}
	.st43{fill:#C1A166;}
	.st44{fill:#FFD85F;}
	.st45{fill:url(#SVGID_7_);}
	.st46{fill:#3068AB;}
	.st47{fill:#C19C59;}
	.st48{fill:#FFD153;}
	.st49{fill:#245AA4;}
	.st50{fill:#1E4E98;}
	.st51{fill:#FFE289;}
	.st52{fill:#43E1AC;}
	.st53{fill:#D0F7EA;}
	.st54{fill:#A6F1D7;}
	.st55{fill:#38DB9F;}
	.st56{fill:#AEF0D9;}
	.st57{fill:#8BEBC7;}
	.st58{fill:#F2CF8D;}
	.st59{fill:#F0C87A;}
	.st60{fill:#366FC6;}
	.st61{fill:#ECB855;}
	.st62{fill:#EDBB5C;}
	.st63{fill:#FFDB6A;}
	.st64{fill:#0A6D4C;}
	.st65{fill:#A67D36;}
	.st66{fill:#B48F48;}
	.st67{fill:#0EA789;}
	.st68{fill:#2052B2;}
	.st69{fill:url(#SVGID_8_);}
	.st70{fill:#1C4BAC;}
	.st71{fill:url(#SVGID_9_);}
	.st72{fill:#B48B3F;}
	.st73{fill:#204F9C;}
	.st74{fill:#2A5FA5;}
	.st75{fill:#BB9959;}
	.st76{fill:#FFDE77;}
	.st77{fill:#2C65BF;}
</style>
<g id="Layer_1">
	<g>
		
			<linearGradient
        id="SVGID_1_"
        gradientUnits="userSpaceOnUse"
        x1="236.6461"
        y1="1961.7202"
        x2="237.6461"
        y2="1961.7202"
        gradientTransform="matrix(-343.0696 -395.9596 -395.9596 343.0696 858346.4375 -578967.9375)"
      >
			<stop offset="0" style="stop-color:#9EDAF2" />
			<stop offset="0.1564" style="stop-color:#9EDAF2" />
			<stop offset="0.5067" style="stop-color:#C8EAF7" />
			<stop offset="0.8238" style="stop-color:#E7F6FB" />
			<stop offset="1" style="stop-color:#F3FAFD" />
		</linearGradient>
		<path
        class="st0"
        d="M175.3,211.9c-5.1,0-9.2-4.1-9.2-9.2v-40.6c0-6.3,5.1-11.4,11.4-11.4h40.6c5.1,0,9.2,4.1,9.2,9.2v35.3l0,0
			v7.5l0,0c0,5.1-4.1,9.2-9.2,9.2H175.3 M268.7,72.2c-16.4,1.2-32.7,3.4-48.6,6.9c4.1,0.9,7.2,4.6,7.2,8.9v35.3l0,0v7.5l0,0
			c0,5.1-4.1,9.2-9.2,9.2h-42.8c-5.1,0-9.2-4.1-9.2-9.2V97c-43,20.2-76.1,53.5-86.7,103.6c-5.4,25.6-3.9,52.7,6.5,79.2
			c19.9,50.8,67,89.9,120.6,100.1c10.6,2,21.3,3,32.1,3c36.3,0,72.7-10.7,105.8-26.4c15.9-7.5,31.9-14.9,48.5-20.5
			c14.3-4.8,28.8-7.2,42.8-12.4c29.7-11,60.5-12.2,82.6-38.3c10.7-12.6,16.7-28.6,19.3-44.8c10.4-66.9-34.5-111.6-91.5-138.1
			l0,217.7c-3.2,1-6.5,2.1-9.7,3.2c-0.2,0.1-0.5,0.2-0.7,0.3c-13.9,5.2-28.5,7.6-42.8,12.4c-16.7,5.6-32.7,12.9-48.5,20.5
			c-18.6,8.8-38.3,16.1-58.4,20.7c-2.6,0.6-5.1,1.1-7.7,1.7l0,0c-3.2,0.6-6.4,1.2-9.7,1.7l0-81.8h-21c-8.1,20.2-27.9,34.5-51.1,34.5
			c-30.4,0-55-24.6-55-55c0-10.2,2.8-19.7,7.6-27.9c-0.2-0.1-0.5-0.1-0.7-0.1c-0.2,0-0.4,0-0.6,0.1c-0.6,0.1-1.2,0.5-1.9,0.5
			c-0.1,0-0.2,0-0.4,0c-0.4-0.1-0.7-0.4-0.9-0.6c-1.5-1.8-0.5-4.7,1.5-5.9c1.1-0.7,2.5-1,3.8-1c1,0,2,0.1,2.9,0.3
			c0.3,0.1,0.5,0.1,0.8,0.2c10.1-12.5,25.5-20.5,42.8-20.5c20.3,0,38,11,47.5,27.3h24.5L268.7,72.2"
      />
		<g>
			<defs>
				<path
            id="SVGID_2_"
            d="M77.9,200.3c-4.5,26.4-1.8,54,8.2,79.6c19.9,50.8,67,89.9,120.6,100.1c46.6,8.9,95-3.1,137.9-23.4
					c15.9-7.5,31.9-14.9,48.5-20.5c14.3-4.8,28.8-7.2,42.8-12.4c29.7-11,60.5-12.2,82.6-38.3c10.7-12.6,16.7-28.6,19.3-44.8
					c4.4-28.5-1.7-58.2-15-83.8c-13.3-25.6-32.9-89.4-55.9-106.8c-50-37.8-118.7-31.8-181-24.3C250,30,218.8,60.8,186.3,76.7
					c-27.1,13.3-53.2,29.4-73.6,51.7C94,148.8,82.3,173.9,77.9,200.3"
          />
			</defs>
			<clipPath id="SVGID_3_">
				<use xlink:href="#SVGID_2_" style="overflow:visible;" />
			</clipPath>
			<polyline class="st1" points="446.2,383 268.8,383 268.7,40.7 446.2,40.7 446.2,383 			" />
			<polyline class="st2" points="278.4,383.1 436.6,383 436.5,51.3 278.4,51.3 278.4,383.1 			" />
			<polyline class="st3" points="436.5,51.3 278.4,51.3 436.5,51.3 436.5,58 436.5,58 436.5,51.3 			" />
			<path
          class="st4"
          d="M286.2,298.8h-7.7l0,80.1c2.6-0.5,5.2-1.1,7.7-1.7L286.2,298.8 M436.5,51.3l-158.1,0l0,199.4h7.7l0-192.7
				l150.4,0L436.5,51.3"
        />
			<path
          class="st5"
          d="M414.2,131.8l-114.2,0l0-2.5c0-28.1,22.8-50.9,50.9-50.9l12.4,0c28.1,0,50.9,22.8,50.9,50.9L414.2,131.8z"
        />
			<rect x="300" y="140.8" class="st5" width="52.8" height="239.6" />
			<rect x="361.4" y="140.8" class="st5" width="52.8" height="239.6" />
			<path
          class="st6"
          d="M414.2,239.3h-1.1c-2.6,0-4.7-2.1-4.7-4.7v-22.5c0-2.6,2.1-4.7,4.7-4.7h1.1c2.6,0,4.7,2.1,4.7,4.7v22.5
				C418.9,237.2,416.8,239.3,414.2,239.3z"
        />
			<path
          class="st6"
          d="M423,214.9c0,5.3-4.2,9.7-9.3,9.7c-5.1,0-9.3-4.3-9.3-9.7c0-5.3,4.2-9.7,9.3-9.7
				C418.8,205.2,423,209.6,423,214.9z"
        />
		</g>
		<path
        class="st7"
        d="M175.3,68.2h42.8c5.1,0,9.2-4.1,9.2-9.2V16.2c0-5.1-4.1-9.2-9.2-9.2h-40.6c-6.3,0-11.4,5.1-11.4,11.4V59
			C166.2,64.1,170.3,68.2,175.3,68.2"
      />
		<path
        class="st7"
        d="M175.3,140h42.8c5.1,0,9.2-4.1,9.2-9.2V88c0-5.1-4.1-9.2-9.2-9.2h-40.6c-6.3,0-11.4,5.1-11.4,11.4v40.6
			C166.2,135.9,170.3,140,175.3,140"
      />
		<path
        class="st8"
        d="M175.3,211.9h42.8c5.1,0,9.2-4.1,9.2-9.2V160c0-5.1-4.1-9.2-9.2-9.2h-40.6c-6.3,0-11.4,5.1-11.4,11.4v40.6
			C166.2,207.8,170.3,211.9,175.3,211.9"
      />
		<path
        class="st9"
        d="M208,178.2h-4V178c0-1.2,0-8,0-8.2c-0.1-3.8-3.2-6.7-6.9-6.7c-3.8,0-6.8,3-6.9,6.8c0,0.2,0,7,0,8.2v0.2h-4
			V178c0-8.2,0-8.3,0-8.3c0.2-6,5-10.7,11-10.7c6,0,10.8,4.7,11,10.7c0,0,0,0.1,0,8.3V178.2z"
      />
		<path
        class="st10"
        d="M210.7,200.4h-27.4c-0.9,0-1.7-0.7-1.7-1.7v-22.2c0-0.9,0.7-1.7,1.7-1.7h27.4c0.9,0,1.7,0.7,1.7,1.7v22.2
			C212.4,199.6,211.7,200.4,210.7,200.4"
      />
		<path
        class="st11"
        d="M212.4,202h-30.7c-0.5,0-1-0.4-1-1v-3c0-0.5,0.4-1,1-1h30.7c0.5,0,1,0.4,1,1v3
			C213.3,201.5,212.9,202,212.4,202"
      />
		<path
        class="st9"
        d="M188.6,55.9c0.5,0.5,1,1,1.6,1.3c1.4,0.5,2.8-0.5,3.9-1.5c6.2-5.5,18.4-26.6,23.4-34.1c0.6-0.9,1.2-1.8,1-2.9
			c-0.8-1.9-8.2,5-15.3,11.9c-6.3,6.1-12.3,12.3-13.2,12.2c-2.1-0.1-10.3-6.7-12.2-7.6c-0.4-0.2-0.8-0.4-1.3-0.2
			c-0.9,0.3-2.4,2.3-0.9,4.7C180.4,47,188.6,55.9,188.6,55.9"
      />
		<path
        class="st9"
        d="M188.6,127.5c0.5,0.5,1,1,1.6,1.3c1.4,0.5,2.8-0.5,3.9-1.5c6.2-5.5,18.4-26.6,23.4-34.1
			c0.6-0.9,1.2-1.8,1-2.9c-0.8-1.9-8.2,5-15.3,11.9c-6.3,6.1-12.3,12.3-13.2,12.2c-2.1-0.1-10.3-6.7-12.2-7.6
			c-0.4-0.2-0.8-0.4-1.3-0.2c-0.9,0.3-2.4,2.3-0.9,4.7C180.4,118.6,188.6,127.5,188.6,127.5"
      />
		<path
        class="st12"
        d="M211.1,110.5c-0.2,0-0.4,0-0.5,0c-1.6,0.1-3.1,0.3-4.4,0.6c-4.4,6.8-8.9,13.4-12,16.1
			c-0.9,0.8-2,1.6-3.2,1.6c-0.2,0-0.5,0-0.7-0.1c-0.7-0.2-1.2-0.7-1.6-1.3c0,0-1.9-2.1-4.5-5.1c-1.8,0.6-3.8,1.1-6.1,1.4
			c-0.2,0-0.5,0-0.7,0c-5.9,0-11.1-8.9-11.1-10.2v17.2c0,5.1,4.1,9.2,9.2,9.2h42.8c5.1,0,9.2-4.1,9.2-9.2v-7.5
			C227.3,115.9,216.4,110.5,211.1,110.5"
      />
		<path
        class="st13"
        d="M206.1,111.2c-10.1,2.1-13.7,8.2-22,11.2c2.5,3,4.5,5.1,4.5,5.1c0.5,0.5,1,1,1.6,1.3
			c0.2,0.1,0.5,0.1,0.7,0.1c1.1,0,2.3-0.8,3.2-1.6C197.2,124.5,201.7,118,206.1,111.2"
      />
		<path
        class="st14"
        d="M212.4,182.6V197c0.5,0,0.9,0.4,0.9,1v3c0,0.5-0.4,1-1,1h-30.7c-0.5,0-1-0.4-1-1v-3c0-0.5,0.4-1,0.9-1v-1.9
			c-1.1,0.3-2.3,0.5-3.7,0.7c-0.2,0-0.5,0-0.7,0c-5.9,0-11.1-8.9-11.1-10.2v17.2c0,5.1,4.1,9.2,9.2,9.2h42.8c5.1,0,9.2-4.1,9.2-9.2
			v-7.5C227.3,188.4,218,183.3,212.4,182.6"
      />
		<path
        class="st15"
        d="M211.1,182.5c-0.2,0-0.4,0-0.5,0c-14.8,1.1-17.5,9.7-29,12.6v1.9c0,0,0,0,0,0h30.7c0,0,0,0,0,0v-14.4
			C211.9,182.5,211.5,182.5,211.1,182.5"
      />
		<path
        class="st16"
        d="M212.4,197h-30.7c0,0,0,0,0,0c-0.5,0-0.9,0.4-0.9,1v3c0,0.5,0.4,1,1,1h30.7c0.5,0,1-0.4,1-1v-3
			C213.3,197.5,212.9,197,212.4,197C212.4,197,212.4,197,212.4,197"
      />
		<path
        class="st12"
        d="M211.1,38.7c-0.2,0-0.4,0-0.5,0c-1.6,0.1-3,0.3-4.3,0.6c-4.5,6.9-9.1,13.6-12.2,16.3c-0.9,0.8-2,1.6-3.2,1.6
			c-0.2,0-0.5,0-0.7-0.1c-0.7-0.2-1.2-0.7-1.6-1.3c0,0-2-2.2-4.6-5.3c-1.7,0.6-3.7,1.1-6,1.4c-0.2,0-0.5,0-0.7,0
			c-5.9,0-11.1-8.9-11.1-10.2V59c0,5.1,4.1,9.2,9.2,9.2h42.8c5.1,0,9.2-4.1,9.2-9.2v-7.5C227.3,44.1,216.4,38.7,211.1,38.7"
      />
		<path
        class="st13"
        d="M206.3,39.3c-10.3,2.1-13.9,8.3-22.4,11.3c2.6,3.1,4.6,5.3,4.6,5.3c0.5,0.5,1,1,1.6,1.3
			c0.2,0.1,0.5,0.1,0.7,0.1c1.1,0,2.3-0.8,3.2-1.6C197.3,52.9,201.9,46.2,206.3,39.3"
      />
		<g>
			<path class="st17" d="M217.3,298.8h130.5c18.7,0,31.8-6.8,31.8-20.5l-162.3-0.2V298.8" />
			<path
          class="st7"
          d="M196.8,333.4c-30.4,0-55-24.6-55-55s24.6-55,55-55c30.4,0,55,24.6,55,55S227.1,333.4,196.8,333.4"
        />
			<path class="st7" d="M217.3,250.7h130.5c17,0,31.8,16.3,31.8,27.7l-162.3,0.2V250.7" />
			<path class="st17" d="M313.2,314l-18.8-22.3h49.8L325.4,314C322.2,317.8,316.4,317.8,313.2,314z" />
			<path class="st17" d="M269,314l-18.8-22.3H300L281.2,314C278,317.8,272.2,317.8,269,314z" />
			<g>
				<path
            class="st18"
            d="M213.3,313.7L213.3,313.7L213.3,313.7 M213.3,313.6L213.3,313.6L213.3,313.6 M213.2,313.5L213.2,313.5
					L213.2,313.5 M213.2,313.4L213.2,313.4L213.2,313.4 M212.9,311.3c0.1,0.7,0.2,1.4,0.4,2.1c-0.1-0.3-0.1-0.6-0.2-0.9
					C213,312.1,212.9,311.7,212.9,311.3 M212.9,311.2L212.9,311.2L212.9,311.2 M212.8,311.1L212.8,311.1L212.8,311.1 M212.8,311
					L212.8,311L212.8,311 M212.8,311L212.8,311L212.8,311 M212.8,310.9L212.8,310.9L212.8,310.9 M212.8,310.8L212.8,310.8
					L212.8,310.8 M212.8,310.7L212.8,310.7L212.8,310.7 M212.8,310.6L212.8,310.6L212.8,310.6 M212.8,310.5L212.8,310.5L212.8,310.5
					"
          />
				<g>
					<path
              class="st19"
              d="M189.1,298l26.2-9.2c-4.2,10.8-3.8,23.3,0.8,33.9c14.5-6.3,25.6-19.6,28.4-36.4
						c4.2-26.2-13.5-50.8-39.7-55.1c-26.2-4.2-50.8,13.5-55.1,39.7c-3.9,24.2,11,47.1,34,53.8C188.1,316.7,190,307.2,189.1,298z"
            />
					<path
              class="st20"
              d="M216.1,322.8c-4.6-10.6-5.1-23.1-0.8-33.9l-26.2,9.2c1,9.2-1,18.7-5.4,26.8c1.9,0.5,3.8,1,5.7,1.3
						C198.8,327.6,208,326.3,216.1,322.8z"
            />
				</g>
				<path
            class="st21"
            d="M205.9,301.4c-0.8,0.8-1.7,1.6-2.6,2.4c-2.6,2.2-5.6,4-9,4.8c-0.5,0.1-1,0.3-1.5,0.4
					c-1.6,4.6-3.8,9-6,13.3c-0.5,1-1,2-1.6,2.9c1.4,0.3,2.8,0.6,4.2,0.9c2.6,0.4,5.2,0.6,7.7,0.6c6.7,0,13.1-1.4,19-3.9
					c-1.3-2.9-2.2-6-2.8-9.1l0,0l0-0.1l0,0l0,0l0-0.1l0,0l0-0.1l0,0c-0.1-0.7-0.2-1.4-0.4-2.1l0,0l0-0.1l0,0l0-0.1l0,0l0-0.1l0,0
					l0,0l0,0l0,0l0-0.1l0,0l0-0.1l0,0l0-0.1l0,0l0-0.1l0,0c-0.2-1.5-0.3-3-0.4-4.6C210.1,305.8,207.6,303.8,205.9,301.4"
          />
			</g>
			<path
          class="st22"
          d="M171.1,307c4.7,5.5,18.4,3.5,25.1,0.9c6.7-2.6,10.3-6.9,14.8-12.5c7.2-9,12.5-20.8,9-31.8
				c-2.8-8.8-10.9-15.5-19.9-18.3c-15.8-5-29.6,1.1-29.3,16.5c0.2,8.6-4,12.4-4.2,23.2C166.5,294.3,169.7,305.3,171.1,307"
        />
			<path
          class="st20"
          d="M192.6,308.9c7.9-0.8,13.8-7.6,18.4-13.4c7.2-9,12.5-20.8,9-31.8c-2.8-8.8-10.9-15.5-19.9-18.3
				c-6.9-2.2-15.1-2.7-21.6,1.1c-3.1,1.8-3.8,4.2-5.2,7.4c-1.8,4-2.7,8.4-2.8,12.9c3.4-1.4,7.4-1,10.7,0.8c3.3,1.7,5.8,4.6,7.6,7.9
				s2.9,6.8,3.9,10.4c1,3.8,1.8,7.7,2,11.6C195,301.3,194.3,305.3,192.6,308.9"
        />
			<path
          class="st23"
          d="M217.5,234.6c-2.1-2.2-4.7-3.9-7.7-4.6c-3.5-0.9-7.2-0.5-10.9-0.1c-5.1,0.6-10.3,1.2-15,3.4
				c-4.6,2.1-8.5,5.5-12.7,8.1c-6.3,3.9-11.2,3.9-18.1,2.4c-2.2-0.5-4.8-0.6-6.7,0.6c-2,1.2-2.9,4.1-1.5,5.9
				c0.2,0.3,0.5,0.5,0.9,0.6c0.7,0.2,1.5-0.3,2.2-0.5c2.3-0.5,4,2,5.3,3.9c5.7,8.1,13.1,7.5,20.6,7c5.3-0.4,10.7-0.8,15.7,1.8
				c2.4,1.3,4.5,3.5,5.4,6.1c1,2.8,0.1,5.5,0.2,8.3c0,0.8,0.1,1.7,0.6,2.4c0.9,1.2,2.8,1,4.2,0.4c1.4-0.6,2.7-1.6,4.2-1.7
				c2.2-0.1,4,1.9,4.5,4c0.5,2.1-2.3,4.9-3,6.9c-0.8,2-1.7,4-1.9,6.2c-0.4,4.3,5.6,11.4,10,10c4.4-1.4,7.4-8,9.9-11.6
				c3.5-4.9,7.5-9.4,10.7-14.5c3.6-5.9,6-13,4.3-19.6c-1.7-6.7-8.7-12.2-15.3-10.4C223.3,244.1,221.2,238.5,217.5,234.6"
        />
			<path
          class="st24"
          d="M207.1,279.7c0.8,1.5,1.3,3.1,1.5,4.7c0.2-0.6,0.3-1.2,0.2-1.8C208.6,281.6,208,280.5,207.1,279.7"
        />
			<path
          class="st25"
          d="M151.7,245.1c-0.9,0-1.8,0.1-2.7,0.5c-0.9,0.4-1.8,1.2-1.5,2.1c2.9,0.7,5.8,1.5,8.3,3.1
				c2.3,1.6,3.2,4.3,5.6,5.9c2.4,1.7,5.4,1.9,8.3,2c0.7,0,1.4,0,2.2,0c1.3,0,2.7,0,4-0.1c1.4,0,2.7-0.1,4-0.1c1.1,0,2.3,0,3.4,0.1
				c3.8,0.3,7.6,2.7,10.5,5.1c1.9,1.6,3.7,3.5,4.2,5.9c0.5,2.1,0,4.6,1.5,6.1c0.1,0,0.2,0.1,0.3,0.1c0.7,0,1.2-1.4,2.1-1.6l0.2,0
				c0.4,0,0.7,0.2,1,0.4c1.7,1.2,3.1,2.9,4.1,4.8c0.9,0.8,1.5,1.8,1.7,2.9c0.1,0.6,0,1.2-0.2,1.8c0.1,0.6,0.1,1.3,0.1,1.9
				c0,2.2-0.5,4.3-0.7,6.4s0.2,4.5,1.7,6.1c0.8,0.9,2.1,1.4,3.3,1.4c0.9,0,1.8-0.3,2.4-1c1.1-1.2,1.1-3,1.4-4.6
				c0.8-5,4.9-9.1,6-14.1c0.4-1.7,0.3-3.5-0.1-5.1c-0.9-3.4-3.2-6.5-5.9-8.8c-0.6-0.5-1.3-1.1-1.7-1.8c-0.3-0.6-0.4-1.2-0.6-1.9
				c-0.8-3.4-2.2-6.9-4.7-9.3c-3.2-3-7.7-4.1-12.1-4.6c-1.9-0.2-3.8-0.3-5.7-0.3c-3,0-5.9,0.2-8.8,0.7c-4.2,0.7-8.5,1.8-12.7,1.8
				c-1.9,0-3.7-0.2-5.6-0.9c-2.7-0.9-5.1-2.6-7.7-3.9C155.6,245.8,153.7,245.1,151.7,245.1"
        />
			<path
          class="st20"
          d="M201,280.7c1.3-1.7,2.7-3.5,4.5-4.5s4.4-1.4,6.1-0.1c1.9,1.3,2.3,3.9,2.1,6.2c-0.2,2.5-1.1,4.9-2.8,6.7
				s-4.3,2.8-6.7,2.2c-0.3-0.1-0.7-0.3-0.7-0.6"
        />
		</g>
	</g>
</g>
<g id="Layer_2">
</g>
</svg>
