<?xml version="1.0" encoding="utf-8"?>
<!-- Generator: Adobe Illustrator 24.0.3, SVG Export Plug-In . SVG Version: 6.00 Build 0)  -->
<svg version="1.1" xmlns="http://www.w3.org/2000/svg" xmlns:xlink="http://www.w3.org/1999/xlink" x="0px" y="0px"
	 viewBox="0 0 615 390" style="enable-background:new 0 0 615 390;" xml:space="preserve">
<style type="text/css">
	.st0{fill:url(#SVGID_1_);}
	.st1{clip-path:url(#SVGID_3_);fill:#E5F0FC;}
	.st2{clip-path:url(#SVGID_3_);fill:#4E97EE;}
	.st3{clip-path:url(#SVGID_3_);fill:#D2E2F6;}
	.st4{clip-path:url(#SVGID_3_);fill:#488EE8;}
	.st5{clip-path:url(#SVGID_3_);fill:#5A9EEF;}
	.st6{clip-path:url(#SVGID_3_);fill:#306BC4;}
	.st7{fill:#14D997;}
	.st8{fill:#FFE07F;}
	.st9{fill:#FFFDF9;}
	.st10{fill:#FFFCF3;}
	.st11{fill:#FFF6DB;}
	.st12{fill:#10D38B;}
	.st13{fill:#D0F5E5;}
	.st14{fill:#FFDA71;}
	.st15{fill:#FFF5D8;}
	.st16{fill:#FFEFC3;}
	.st17{fill:#41E0AB;}
	.st18{clip-path:url(#SVGID_5_);fill:#51E3B2;}
	.st19{clip-path:url(#SVGID_5_);fill:#B18A40;}
	.st20{clip-path:url(#SVGID_5_);fill:#4AC68D;}
	.st21{clip-path:url(#SVGID_5_);fill:#A27833;}
	.st22{fill:#BA9857;}
	.st23{fill:#B18A40;}
	.st24{fill:#0959AA;}
	.st25{fill:#A0823B;}
	.st26{fill:#08549E;}
	.st27{fill:url(#SVGID_6_);}
	.st28{clip-path:url(#SVGID_8_);fill:#E5F0FC;}
	.st29{clip-path:url(#SVGID_8_);fill:#4E97EE;}
	.st30{clip-path:url(#SVGID_8_);fill:#D2E2F6;}
	.st31{clip-path:url(#SVGID_8_);fill:#488EE8;}
	.st32{clip-path:url(#SVGID_8_);fill:#5A9EEF;}
	.st33{clip-path:url(#SVGID_8_);fill:#306BC4;}
	.st34{fill:#C5A872;}
	.st35{fill:#8C713C;}
	.st36{fill:#E8C16F;}
	.st37{fill:#306BC4;}
	.st38{fill:#E0E9F6;}
	.st39{fill:#AD996E;}
	.st40{fill:#2A62BD;}
	.st41{fill:#0FA371;}
	.st42{fill:#6490D3;}
	.st43{fill:#457ACA;}
	.st44{fill:#C1A166;}
	.st45{fill:#FFD85F;}
	.st46{fill:url(#SVGID_9_);}
	.st47{fill:#3068AB;}
	.st48{fill:#C19C59;}
	.st49{fill:#FFD153;}
	.st50{fill:#245AA4;}
	.st51{fill:#1E4E98;}
	.st52{fill:#FFE289;}
	.st53{fill:#43E1AC;}
	.st54{fill:#D0F7EA;}
	.st55{fill:#A6F1D7;}
	.st56{fill:#38DB9F;}
	.st57{fill:#AEF0D9;}
	.st58{fill:#8BEBC7;}
	.st59{fill:#F2CF8D;}
	.st60{fill:#F0C87A;}
	.st61{fill:#366FC6;}
	.st62{fill:#ECB855;}
	.st63{fill:#EDBB5C;}
	.st64{fill:#FFDB6A;}
	.st65{fill:#0A6D4C;}
	.st66{fill:#A67D36;}
	.st67{fill:#B48F48;}
	.st68{fill:#0EA789;}
	.st69{fill:#2052B2;}
	.st70{fill:url(#SVGID_10_);}
	.st71{fill:#1C4BAC;}
	.st72{fill:url(#SVGID_11_);}
	.st73{fill:#B48B3F;}
	.st74{fill:#204F9C;}
	.st75{fill:#2A5FA5;}
	.st76{fill:#BB9959;}
	.st77{fill:#FFDE77;}
	.st78{fill:#2C65BF;}
</style>
<g id="Layer_1">
</g>
<g id="Layer_2">
	<g>
		
			<linearGradient id="SVGID_1_" gradientUnits="userSpaceOnUse" x1="-482.5903" y1="1961.7202" x2="-481.5903" y2="1961.7202" gradientTransform="matrix(209.0508 -282.5291 -282.5291 -209.0508 655318.3125 274103.0625)">
			<stop  offset="0" style="stop-color:#9EDAF2"/>
			<stop  offset="0.1564" style="stop-color:#9EDAF2"/>
			<stop  offset="0.5067" style="stop-color:#C8EAF7"/>
			<stop  offset="0.8238" style="stop-color:#E7F6FB"/>
			<stop  offset="1" style="stop-color:#F3FAFD"/>
		</linearGradient>
		<path class="st0" d="M365.4,282.7c-2.4,6.6-5.5,15.4-5.8,18c-0.2,1.3-0.3,2.6-0.3,3.9c0,8.6,3.4,17.1,3.8,25.7l0,0
			c0.1,1.9,0.1,3.8,0.5,5.6c0.1,0.3,0.1,0.5,0.2,0.8c0.3,0.7,0.7,1.4,1,2.1c0.3,0.8,0.6,1.6,0.9,2.4c0.3,0.6,0.6,1.2,0.8,1.9
			c0.5,1.2,0.9,2.5,1.1,3.8c0.2-2.1,0.5-4.3,0.7-6.4c0.8-7,1.5-14,1.5-21c0-0.9,0-1.7,0-2.6C369.5,305.5,366.8,294.1,365.4,282.7
			 M174.3,277.2c0,0.1,0,0.2,0,0.3c11.3,9.1,23.1,17.3,34.9,24.6c-9.3-5.8-18.6-12.2-27.7-19.2c-2.1-1.7-4.3-3.3-6.4-5l0,0
			C174.8,277.6,174.6,277.4,174.3,277.2 M125.7,211.4c-0.5,0.3-1,0.5-1.5,0.7c-1.6,0.6-3.3,0.9-4.9,0.9c-0.5,0-1,0-1.4-0.1
			c1.7,3.2,3.6,6.4,5.6,9.5c0.4-0.8,0.8-1.5,1-2.3c0.2-0.9,1.6-2.4,1.6-3.3c0,0,0,0,0,0C125.9,214.9,125.8,213.1,125.7,211.4
			 M441.8,157C441.8,157,441.7,157,441.8,157c-1,1.6-2,3-3.5,3.9c-2.1,1.3-1,3-1.6,3.7c0.3,2.3,1.1,5.3,1.5,6.8c0.5,0,1.1,0,1.6,0
			c0.1,0,0.1,0,0.2,0c0.2-0.5,0.5-1,0.7-1.5c1.8-3.9,2.6-8.4,1.3-12.5C441.8,157.2,441.8,157.1,441.8,157 M418.9,143.6
			c-1.1-1-3.2-3.5-2.9-8c0.1-1.6,0.5-3.3,1.6-4.4c0.7-0.7,1.6-1.1,2.6-1.4c1.4-0.4,2.7-0.6,3.9-0.6c1.8,0,3.4,0.5,5,1.9
			c2.7,2.3,1,5.3,2.6,6.4c1.9,1.3,5.6,1.6,9,4.2c1.8,1.4,2.3,3.8,2.6,6c0.4,2.4,0.3,5-0.6,7.3c0.2,0,0.5,0.1,0.8,0.2l0,0
			c6.3,1.4,11,6.7,14.5,12.4c0.7,1.2,1.4,2.5,1.7,3.8c0,0.2-0.1,0.3-0.2,0.3c-0.1,0-0.2,0-0.2-0.1c-1.3-2.6-3-5.2-4.9-7.6
			c0,0.1,0.1,0.1,0.1,0.2c2.6,4.2,3.9,9,4.3,13.9c0.2,2.7,0.2,5.6-1.1,8c-0.2,0.4-0.5,0.9-0.8,1.2c0.2,1.9,0.3,3.9,0.4,5.7
			c0.4,6.3,2,12.5,3.9,18.6c0.6,1.9,1.2,4,0.4,5.8c-0.7,1.6-2.4,2.7-3.9,3.7c-1.1,0.7-2.1,1.3-3.4,1.7c-0.5,0.1-0.9,0.2-1.4,0.2
			c-0.8,0-1.6-0.2-2.2-0.7c-0.8-0.6-1.2-1.5-1.6-2.4c-0.8-2-1.4-4.1-1.7-6.2c-0.8,7.9,0.4,15.1,3.1,23c0.1,0.3,0.2,0.7,0.1,1
			c-0.1,0.2-0.2,0.4-0.4,0.6c-3.6,4.1-7.4,8.6-12.7,9.8c-0.9,0.2-1.9,0.3-2.8,0.3c-4.7,0-9.4-2.5-13.3-5.3c-2.1-1.6-4.6-3.3-7.1-3.3
			c-0.5,0-0.9,0.1-1.4,0.2c0.2-3,2.1-5.7,3-8.6c1.7-5.3,0.2-11-1.7-16.2c-3.2-8.6-2.5-15.3-4-24.4c-0.5-2.9-0.7-5.9,0.6-8.5
			c0.8-1.6,0-3.5,1.4-4.7c2.7-2.3,6.4-5.2,13.1-5.8c-0.1-1.6-0.3-3.3-0.5-4.6c-0.5-1.1-0.8-1.9-1-2.3c-0.6,0.3-1.7,0.6-2.7,0.6
			c0,0,0,0-0.1,0c0,0,0,0-0.1,0c-0.5,0-1-0.1-1.5-0.4c-1.6-0.8-2.8-4.9-3-6.7c-0.3-3.1,0.5-5,1.2-8.1
			C417.9,148.2,418.2,145.8,418.9,143.6 M343,94.3c-9.7,0-19.4,0.2-29.1,0.5l0,248.9c12,2.4,24.1,4,36.1,4.7
			c-4.4-13.8-13-40.8-13.1-44c-0.1-4,0.6-8,1.2-12c1.5-8.8,3.7-17.6,5.8-26.4c-0.2,0-0.3,0-0.5,0c-1.1,0-2.2,0.5-1.8,2
			c-2.8-12.9-0.8-26.3,1.9-39.2c0.7-3.2,1.4-6.4,1.5-9.6c0.1-2.1-0.1-4.1-0.3-6.2c-0.2-3.4-0.2-6.8-0.1-10.1
			c0.1-2.9,0.1-5.7,0.1-8.5c0-2.1,0.3-4.4,1.5-6.1c1.1-1.6,2.7-3.3,4.4-4.2c4.7-1.6,9.1-2.8,14.3-3c0.6-3.2,0.5-6.6-0.1-9.8
			c0,0-0.9,0.7-1.9,0.7c-0.4,0-0.8-0.1-1.3-0.5c-1.2-1-4.3-5.8-4.7-7.4c-0.6-2.5-1.1-4.7-1.3-6.8c-0.3-0.1-0.5-0.1-0.8-0.1
			c-1.2-0.1-2.5,0.1-3.3-0.8c-0.6-0.7-0.5-1.7-0.8-2.5c-0.4-0.9-1.3-1.5-2-2.2c-2.3-2.2-2.3-5.7-0.8-8.4c0.6-1.1,1.5-2.1,2.5-2.7
			c0.6-0.4,1.3-0.7,2.1-0.8c0.2,0,0.4,0,0.6,0c0.4,0,0.8,0,1.2,0.1c1.5,0.2,3,0.4,4.5,0.4c1.2,0,2.4-0.1,3.7-0.5
			c2.1-0.6,4-2.3,6.3-2.4c0.2,0,0.5,0,0.7,0c1.4,0,2.9,0.3,4.2,0.8c0.5,0.2,1.2,0.4,1.6,0.7c0.6,0.5,0.8,1.2,1.6,1.6
			c0.6,0.3,1.3,0.2,1.9,0.3c1.8,0.2,3.2,1.7,3.8,3.4c0.6,1.7,0.6,3.5,0.5,5.3c-0.1,1.8-0.4,3.6-0.2,5.4c0.2,1.9-0.1,3.8-1,5.5
			c-0.7,1.4-1.8,2.5-2.4,4c-0.5,1.2-0.6,2.6-1,3.9c-0.3,1-0.8,1.9-1.6,2.5c0.3,3.6,1.7,10,1.8,10.3l-1.6,0.4c2.1,0.3,4.2,0.7,6.1,1
			c2.6,0.4,5.3,0.9,7.8,1.8c3.7,1.3,6.9,4.1,8.5,7.6c1,2.2,1.5,4.6,1.8,7c0.7,5.6,0.5,11.3,1.9,16.7c0.6,2.2,1.4,4.3,1.6,6.5
			c0.1,0.9,0.1,1.7,0.4,2.6c0.2,0.9,0.7,1.7,1.1,2.6c1.9,4.5,1.4,9.6,0.6,14.5c0.1,0.2,0.1,0.5-0.1,0.6c0-0.2,0.1-0.4,0.1-0.6
			c-0.1-0.2-0.3-0.4-0.5-0.4c-0.1,0-0.1,0-0.2,0c-0.4,0-0.8,0.2-1.1,0.4c-2.3,1.3-4.8,2.2-7.3,2.6c-0.5,0.1-1.1,0.1-1.7,0.1
			c-1.3,0-2.6-0.3-3.5-1.3c-0.8-1-1-2.3-1.1-3.5c-0.4-4.3-0.9-8.6-0.9-12.9c-0.2,2.1-0.4,4.3-0.4,6.4c0,0.2,0,0.4,0,0.7
			c0.1,7.4,1.8,14.8,1.8,22.1c0,2.6-0.2,5.2-0.8,7.7c-0.1,0.3-0.2,0.6-0.3,0.9c0.3,1.8,0.5,3.7,0.5,5.5c0,2.5-0.2,5-0.4,7.6
			c-1,11.1-2.1,22.2-4.5,33c-0.7,2.9-1.4,5.8-1.7,8.8c-0.3,3.1-0.1,6.2-0.2,9.2c-0.1,6.6-1.3,13.2-2.5,19.7
			c47.4-4.3,90.1-25.7,115.5-72.4c37.2-68.5-0.2-133.6-52.3-161.9h-27.1c-3.5,0-6.2-2.8-6.2-6.2v-6.3c-6.4-1.5-12.8-2.8-19.2-3.7
			v12.9l0,0v5.2l0,0c0,3.5-2.9,6.4-6.4,6.4h-29.9c-3.5,0-6.4-2.9-6.4-6.4V94.4C347.7,94.3,345.3,94.3,343,94.3 M167.1,81.9
			c-3.6,0.2-7.1,0.6-10.5,1.3v19.1l0,0v5.4l0,0c0,3.6-2.9,6.6-6.6,6.6h-30.7c-3.4,0-6.1-2.5-6.5-5.8c-13.8,16.4-15.6,34.6-11.5,56.2
			c0.4-0.7,0.9-1.3,1.4-1.9c1.8-2.3,4.1-4.2,6.6-5.8c1.9-1.2,4-2.3,5.7-3.8c3.3-3,5.5-10.9,8.2-13.4c1.8-1.6,4.1-2.1,6.2-2.1
			c1.4,0,2.7,0.2,3.5,0.4c0.3,0.1,0.7,0.2,1,0.2c0.1,0,0.2,0,0.3,0c0.5-0.1,0.9-0.3,1.3-0.6c1.5-1,3.2-1.7,5-2.2
			c1.4-0.4,2.9-0.6,4.4-0.6c0.6,0,1.2,0,1.8,0.1c1.4,0.2,2.7,0.6,3.7,1.5c0.6,0.6,1,1.3,1.4,2.1c0.9,2,1.1,4.4,0.4,6.4
			c-0.8,2.1-2.7,3.7-4.9,3.9c-0.1,0-0.2,0-0.3,0c-0.5,0-1-0.1-1.5-0.1c-0.1,0-0.2,0-0.3,0c0.1,0.8,0.2,1.2,0.2,1.2c0,0-0.1,0-0.1,0
			c2.3,4.8,2.9,9.2,3,15.9c0,1-0.3,3.6-0.7,4.5c-0.7,1.2-3.2,1.3-4.8,1.4c0.1,0,0.2,0,0.2,0.1c0.1,1.3,0.2,2.5,0.5,3.8
			c0,0,0,0.1,0,0.1c0.7,0.3,1.3,0.7,1.9,1.2c2.4,0.4,4.5,1,5.5,1.5c4.2,2.3,3.9,5.3,6.4,9.2c3,4.7,5.7,9.7,8.4,14.6
			c0.5,0.9,1,1.8,1.5,2.7L167.1,81.9"/>
		<g>
			<defs>
				<path id="SVGID_7_" d="M511.2,290.7c13.3-21,20.9-45.7,20.4-72.8c-0.9-51.9-30-102.4-74.3-129.2C418.7,65.3,371.5,13,326.6,16.9
					c-16.6,1.4-33.3,2.7-50,2.2c-14.3-0.5-28.1-3.1-42.3-3.1c-8.1,0-16-0.7-23.8-1.3c-21.3-1.8-41.8-3.6-62.6,8.1
					c-13.7,7.7-24.4,66.9-32,80.6c-44.4,79.3,24,155.6,93.3,198.8C299,358,448.1,390.7,511.2,290.7"/>
			</defs>
			<clipPath id="SVGID_3_">
				<use xlink:href="#SVGID_7_"  style="overflow:visible;"/>
			</clipPath>
			<polyline class="st1" points="313.9,346.6 167.1,346.6 167.1,42.7 313.8,42.7 313.9,346.6 			"/>
			<polyline class="st2" points="175.1,346.6 305.9,346.6 305.8,51.4 175.1,51.4 175.1,346.6 			"/>
			<polyline class="st3" points="305.8,51.4 175.1,51.4 305.8,51.4 305.8,57 305.8,57 305.8,51.4 			"/>
			<path class="st4" d="M305.8,51.4l-130.8,0l0,170.7c2.1,5,5,10.4,5.4,15.5c0.2,2.2,0.2,4.5-0.5,6.6l0,0c-0.7,2.1-2.3,2.7-4.7,3.4
				c0.5,3.6,0.7,7.1,0.7,10.7c0,4.1-0.3,8.4-0.8,13.3c0,0.1,0,0.3,0,0.4l0,5.8c2.1,1.7,4.2,3.4,6.4,5l0-225.8l124.4,0L305.8,51.4"/>
			<path class="st5" d="M292.3,119.6l-104.1,0c0-24.4,19.8-44.2,44.2-44.2l15.7,0C272.5,75.3,292.3,95.1,292.3,119.6z"/>
			<rect x="188.2" y="127" class="st5" width="48.1" height="219"/>
			<rect x="244.2" y="127" class="st5" width="48.1" height="219"/>
			<path class="st6" d="M287.4,206.9h-0.9c-2.1,0-3.9-1.7-3.9-3.9v-18.6c0-2.1,1.7-3.9,3.9-3.9h0.9c2.1,0,3.9,1.7,3.9,3.9V203
				C291.2,205.2,289.5,206.9,287.4,206.9z"/>
			<path class="st6" d="M294.6,186.8c0,4.4-3.4,8-7.7,8s-7.7-3.6-7.7-8s3.4-8,7.7-8S294.6,182.4,294.6,186.8z"/>
		</g>
		<path class="st34" d="M142,171.5c1.6-0.1,4.7,0,5.4-1.4c0.5-0.9,0.7-3.5,0.7-4.5c-0.1-7.4-0.9-11.9-3.7-17.3
			c-0.9-1.8-2-3.5-3.4-4.9c-1.2-1.2-5.2-1.1-7.7-1.1c-0.5,0-0.9,0-1.3,0c-2,0-3.9,0.9-5.6,2c-1.4,1-2.8,2.1-3.7,3.6
			c-0.8,1.3-1.1,2.8-1.3,4.3c-0.7,4.7-0.7,9.6,0.2,14.3c0.4,2,0.9,4,2,5.8c1.1,1.7,2.9,3.1,4.9,3.4c1.2,2.8,1.6,6,1,9.1
			c1.5-1,3.3-1.6,5.1-1.6c3.6-0.1,7.3-0.1,9.9-3C144.5,180.1,142.7,174.4,142,171.5"/>
		<path class="st35" d="M205.8,162.4c0.2,0.2-0.5,1.9-0.6,2.2c-0.2,0.8-0.4,1.6-0.6,2.3c-0.3,1.1-1.4,3.2-0.5,4.3
			c0.9,1,1.9,0,2.4-0.9c0.6-1.1,0.8-2.6,0.7-3.8C207.1,165,206.6,163.6,205.8,162.4z"/>
		<path class="st36" d="M172,235.6c2.8,1,4.9,3.4,6.6,5.9c0.7,1.1,1.7,1.5,1.3,2.7c-0.8,2.4-2.7,2.9-5.6,3.6
			c-1.6,0.4-42.6-7-43.8-7.9c-3.5-2.6-9.2-1.9-9.1-4.5c0.1-2,0.7-3,2.1-4.4c1.5-1.5,3.7-1.9,5.8-2.1c8.2-1,17-0.5,24.2,3.6
			L172,235.6"/>
		<path class="st34" d="M116.2,334.1c-1.5,6.2-3.8,14.8-1.2,20.7c1,2.3,2.4,4.4,4.3,5.9c0.6,0.5,1.2,1,1.6,1.6
			c0.4,0.7,0.3,1.6-0.3,2.1c-0.5,0.3-1,0.2-1.6,0.1c-2.4-0.5-4.6-2-6.5-3.6c-1.2-1.1-2.4-2.2-3.5-3.5c-1-1.1-2.3-0.9-2.6-2.3
			c-0.4-1.7,0.5-5,0.9-6.7c0.4-1.7,0.5-3.3,0.7-5c0.3-1.8-0.2-13.6,0.1-15.4L116.2,334.1"/>
		<path class="st37" d="M151.8,251.8c0.5,16.4-5.9,32.2-13.8,46.5c-7.9,14.3-14.7,28.2-21.5,43c-3,0.9-8.6-1.4-11-1.8
			c0.1-1.9,0.2-3.9,0.3-5.8c0.6-9.2,1.8-18.4,4.5-27.2c1.4-4.6,8.1-15.7,8.7-17.3c0.8-2.1,6.4-26.3,6.2-27.5c-0.2-0.7-0.4-1.3-0.7-2
			c-3-8-3.4-17.4,1-24.7c0.9-1.5,2-2.9,3.4-3.8c1.9-1.2,4.6-1.2,6.9-1.6c2.6-0.4,5.3-1.2,7.9-0.1c2.5,1.1,4.1,3.6,5,6.1
			c1.1,2.9,2.2,5.9,2.5,9c0.3,3.6,1.1,7.1,0.7,10.7L151.8,251.8"/>
		<path class="st38" d="M107.9,340.1c0.1,0,0.1,0.1,0.2,0.1c0,0,0,0,0,0C108,340.2,107.9,340.1,107.9,340.1 M118.1,338
			c-0.3,0.7-0.6,1.3-0.9,2C117.5,339.5,117.8,338.8,118.1,338 M118.8,336.6c0,0.1-0.1,0.2-0.1,0.2
			C118.7,336.8,118.7,336.7,118.8,336.6 M122.1,329.5c-1.1,2.4-2.2,4.7-3.4,7.1C119.9,334.3,121,331.9,122.1,329.5 M122.2,329.3
			c0,0,0,0.1-0.1,0.2C122.2,329.4,122.2,329.3,122.2,329.3 M136.5,301.2c-3.5,6.5-6.8,12.9-10,19.4
			C129.6,314.1,133,307.6,136.5,301.2 M144.8,284.7C144.8,284.7,144.7,284.7,144.8,284.7C144.7,284.7,144.8,284.7,144.8,284.7
			 M146.4,280.7c-0.5,1.3-1.1,2.7-1.6,4C145.3,283.3,145.9,282,146.4,280.7L146.4,280.7"/>
		<path class="st39" d="M108.1,340.2C108.1,340.2,108.1,340.2,108.1,340.2c1.9,1,3.9,1.4,6,1.4c0,0,0,0,0,0c0,0,0.1,0,0.1,0
			C112.3,341.4,109.9,340.7,108.1,340.2"/>
		<path class="st40" d="M126.6,235.5c-0.2,0.3-0.4,0.7-0.6,1c-1.4,3.1-1.5,6.6-1.5,10c0,5.7,0.6,11.9,4.1,16.3
			c-0.3-0.3-0.5-0.6-0.8-0.9c0.5,8.6-1,17.2-4.2,25.2c-2.8,6.8-6.9,13-9.7,19.8c-4.3,10.4-5.5,21.8-6.7,33c0.2,0.1,0.4,0.2,0.5,0.3
			c0.1,0,0.1,0,0.2,0.1c1.9,0.5,4.2,1.2,6.2,1.4c1.7,0,2.4-0.5,3-1.5c0.3-0.7,0.6-1.3,0.9-2c0,0,0-0.1,0.1-0.1
			c0.2-0.3,0.3-0.7,0.5-1c0-0.1,0.1-0.2,0.1-0.2c0,0,0,0,0,0c1.1-2.4,2.2-4.8,3.4-7.1c0,0,0-0.1,0-0.1c0,0,0-0.1,0.1-0.2
			c0.8-1.6,1.5-3.2,2.3-4.9c0.6-1.3,1.2-2.5,1.9-3.8c3.2-6.5,6.5-12.9,10-19.4c0.5-1,1.1-1.9,1.6-2.9c2.4-4.4,4.7-8.9,6.7-13.6
			c0,0,0,0,0-0.1c0,0,0,0,0,0c0.6-1.3,1.1-2.7,1.6-4c-0.2-0.7-0.3-1.4-0.5-2.1c-1-4.6-2.4-8.9-3.8-13.1c0,0-6.9-7-6.9-23.6
			c0-0.7,0.1-1.4,0.3-2.1C133.2,238.2,129.7,236.1,126.6,235.5"/>
		<path class="st41" d="M106,359.1c-0.6-0.6-1.3-1.2-1.7-2c-0.2-0.5-0.5-1.4-0.5-1.9c0.1-1.3,0.2-3.9,3.3-4.7
			c-0.6,1.9,1.3,4.4,2.7,6.6c1.8,2.8,3.8,5.5,6.8,6.9c0.7,0.3,1.5,0.6,2.2,0.3c1.3-0.4,0.8-1.5,0.2-2.2c3.1,1.7,4.6,2.7,6.8,4
			c2,1.1,0.9,3.9-0.6,4.3c-1.4,0.4-6.1-0.4-7-0.6c-1-0.2-2-0.4-2.9-1C114.8,368.4,107.4,360.4,106,359.1z"/>
		<path class="st41" d="M162.8,363.5c2.1,0.6,10,0.9,11.9,0.7c1.3-0.1,2.4-0.5,3.1-1.6c0.1-0.1,0.2-0.3,0.4-0.3l0.3,0
			c1.9,0.6,8,2.3,8.4,3.2c0.3,0.7,0,1.6-0.4,2.2c-1.2,1.6-3.4,1.8-5.3,1.9c-6.1,0.3-12.1,0.1-18.2-0.3c-1.3-0.1-2.6-0.2-3.9,0
			c-0.5,0.1-1,0.2-1.4,0c-0.5-0.2-0.8-0.6-1-1.1c-0.7-1.2-1.2-2.5-1.3-3.9c-0.1-1,0.5-4.2,1.4-4.8c0.9-0.6,1.7,0.5,2.3,1
			C160.3,361.4,161.3,363.1,162.8,363.5z"/>
		<path class="st7" d="M106,357.6c-0.6-0.6-1.3-1.2-1.7-2c-0.2-0.5-0.5-1.4-0.5-1.9c0.1-1.3,0.2-3.9,3.3-4.7
			c-0.6,1.9,1.3,4.4,2.7,6.6c1.8,2.8,3.8,5.5,6.8,6.9c0.7,0.3,1.5,0.6,2.2,0.3c1.3-0.4,0.8-1.5,0.2-2.2c3.1,1.7,4.6,2.7,6.8,4
			c2,1.1,0.9,3.9-0.6,4.3c-1.4,0.4-6.1-0.4-7-0.6c-1-0.2-2-0.4-2.9-1C114.8,366.9,107.4,358.9,106,357.6z"/>
		<path class="st34" d="M162.7,331c-0.1,6,0.7,12.1,2.5,17.8c1.2,4,1.5,7.6,5.1,9.7c3.3,1.9,9.8,3.3,13.3,4.6
			c-4.2,5.8-17.9,0.8-26.1-1.3c0.2-2.8-0.1-5.7-0.4-8.5c-0.6-5.8-0.9-11.7-1.1-17.5L162.7,331"/>
		<path class="st7" d="M162.8,362c2.1,0.6,10,0.9,11.9,0.7c1.3-0.1,2.4-0.5,3.1-1.6c0.1-0.1,0.2-0.3,0.4-0.3l0.3,0
			c1.9,0.6,8,2.3,8.4,3.2c0.3,0.7,0,1.6-0.4,2.2c-1.2,1.6-3.4,1.8-5.3,1.9c-6.1,0.3-12.1,0.1-18.2-0.3c-1.3-0.1-2.6-0.2-3.9,0
			c-0.5,0.1-1,0.2-1.4,0c-0.5-0.2-0.8-0.6-1-1.1c-0.7-1.2-1.2-2.5-1.3-3.9c-0.1-1,0.5-4.2,1.4-4.8c0.9-0.6,1.7,0.5,2.3,1
			C160.3,359.9,161.3,361.6,162.8,362z"/>
		<path class="st37" d="M165.7,344.1c-0.2-8.2,0.6-25.9,1-30.3c1.1-13.3,7-29,8.4-42.3c1.4-13.3,1.1-21.5-1.8-34.6
			c-0.2-0.9-4.8-0.8-5.3-1.5c-0.5-0.7-1.3-1.2-2.1-1.6c-3.4-1.9-6.9-3.6-10.5-5.1c-1.6-0.7-3.3-1.3-4.9-0.7c-1,0.4-1.7,1.1-2.4,1.9
			c-1.7,1.7-3.4,3.5-5.1,5.2c-0.3,0.3-1.2,0.1-2.1-0.2c-1-0.3-1.9-0.5-2.1-0.1c-0.6,1.1-3.4,3.4-3.4,7.1c0,16.6,6.9,23.6,6.9,23.6
			c1.4,4.2,2.8,8.5,3.8,13.1c1.2,5.3,3.4,16.1,3.4,16.1c-0.1,5.7-0.9,11.3-1,17c-0.2,10.8,3.7,21.4,6.7,31.7
			C155.5,344.8,165.8,345.6,165.7,344.1"/>
		<path class="st42" d="M165.7,341.2c0,1.1,0,2.1,0,3c0,0.1,0,0.2-0.1,0.3c0,0,0,0,0,0c0.1,0,0.1-0.1,0.1-0.3
			C165.7,343.2,165.7,342.2,165.7,341.2"/>
		<path class="st43" d="M174.6,243.3c-1.2,0.6-2.7,1.6-4.6,3.3c-1.2,1-3.1,1.9-5.3,2.6c0.7,0.7,1.1,1.1,1.1,1.1
			c1.4,4.2,1.3,14.7,0.6,22.8c-0.5,5.4-6.1,30.8-6.3,36.4c-0.2,10.8-0.3,20.2,2.8,30.5c0.3,1.1,2.1,4.2,2.7,4.4
			c0.1-0.1,0.2-0.2,0.1-0.3c0-0.9,0-1.9,0-3c0-8.9,0.7-23.4,1-27.3c1.1-13.3,7-29,8.4-42.3c0.5-5,0.8-9.2,0.8-13.3
			C175.9,253.3,175.5,248.6,174.6,243.3"/>
		<path class="st44" d="M142.9,171.6c-2-0.5-3.7-1.8-5-3.5c-1.3-1.6-2.2-3.5-2.8-5.5c-0.3-0.9-0.6-1.9-0.5-2.9c0-1,0.4-2,1.2-2.6
			c0.7-0.5,1.6-0.6,2.3-0.3c0.8,0.3,2.2,1.8,2.4,2.6c-0.3-3.7,0.3-5.4,0.8-7.1c0.2-0.8,0.7-2.3,4-2.6c0,0-0.2-0.6-0.4-2.5
			c-0.7-0.3-0.8-0.2-1.2-0.1c-0.2,0.1-0.4,0.1-0.8,0.1c-1.1,0-2.2,0-3.2,0.4c-0.8,0.3-1.5,0.9-2.2,1.5c-0.9,0.8-1.8,1.8-2.4,2.8
			c-1.7,2.6-2,5.9-2,9c0,1.8,0,3.7,0.5,5.4c0.5,1.9,1.5,3.7,2.5,5.4c0.9,1.6,1.8,3.3,3,4.8c0.8,1,3.4,3.5,4.5,1.5
			c0.5-0.8-0.1-2-0.2-2.8C143.1,174.1,142.9,172.9,142.9,171.6"/>
		<path class="st45" d="M134.2,176.4c3.1-1.2,13.7,0.2,16.6,1.8c4.2,2.3,3.9,5.3,6.4,9.2c3,4.7,5.7,9.7,8.4,14.6
			c3,5.6,6.1,11.3,8.3,17.2c2.1,5.7,6,12.3,6.5,18.4c0.2,2.2,0.2,4.5-0.5,6.6c0,0-1.8-5-9.9,2.3c-4.2,3.8-18.3,5.8-23.4,2.6
			c-3.6-2.2-6.4-5.5-9.7-8.2c-3.3-2.7-11.5-8-15.1-4.5c-1.4-2.1-1.6-4.7-1.1-7.2c0.5-2.4,1.6-4.7,2.7-6.9c0.4-0.8,0.8-1.5,1-2.4
			c0.2-0.9,1.6-2.4,1.6-3.3c-0.1-8.2-1.7-16.1-0.9-24.3C125.8,185.1,127,179.1,134.2,176.4"/>
		
			<linearGradient id="SVGID_5_" gradientUnits="userSpaceOnUse" x1="-482.5903" y1="1962.1169" x2="-481.5903" y2="1962.1169" gradientTransform="matrix(209.0508 -282.5291 -282.5291 -209.0508 655318.3125 274103.0625)">
			<stop  offset="0" style="stop-color:#9ED3D4"/>
			<stop  offset="0.1564" style="stop-color:#9ED3D4"/>
			<stop  offset="0.5192" style="stop-color:#C9E3D9"/>
			<stop  offset="0.8268" style="stop-color:#E8EEDC"/>
			<stop  offset="1" style="stop-color:#F3F2DD"/>
		</linearGradient>
		<path style="fill:url(#SVGID_5_);" d="M143.4,175.5c0.1,0.3,0.2,0.6,0.2,0.9c0.6,0.1,1.1,0.2,1.6,0.2
			C144.6,176.2,144,175.8,143.4,175.5"/>
		<path class="st47" d="M150.1,250.4c1.3,0.3,2.7,0.3,4,0.3c0.2,0,0.4,0,0.6,0c-0.2,0-0.3,0-0.5,0
			C152.8,250.8,151.4,250.6,150.1,250.4 M164.5,249.2c-2.9,0.9-6.3,1.4-9.4,1.5c0.1,0,0.1,0,0.2,0c3.3-0.1,6.4-0.5,9.6-1.1
			C164.7,249.5,164.6,249.4,164.5,249.2"/>
		<path class="st48" d="M141.5,174.8c0.2,0.5,0.4,0.9,0.5,1.4c0.5,0.1,1.1,0.1,1.6,0.2c-0.1-0.3-0.2-0.6-0.2-0.9
			C142.8,175.2,142.2,175,141.5,174.8"/>
		<path class="st49" d="M142,176.2c0,0.1,0.1,0.2,0.1,0.3c0.3,1.4,0.2,2.8-0.1,4.1c-0.3,1.7-0.8,3.4-1.6,5c-0.9,1.7-2.3,3.2-3.4,4.8
			c-1.4,2-2.1,3.7-2.6,6c-0.5,2.4-0.8,4.8-1.7,7.1c-1.3,3.4-3.9,6.2-7.1,7.8c0.1,1.8,0.2,3.5,0.2,5.3c0,0,0,0,0,0
			c0,0.9-1.3,2.4-1.6,3.3c-0.2,0.8-0.6,1.6-1,2.4c-1.1,2.2-2.3,4.5-2.7,6.9c-0.1,0.7-0.2,1.5-0.2,2.3c0,1.7,0.4,3.5,1.4,4.9
			c0.8-0.8,1.9-1.1,3.2-1.1c4,0,9.5,3.6,12,5.7c3.3,2.7,6.1,6,9.7,8.2c0.9,0,2.5,1,3.6,1.2c0,0,0,0,0,0c1.3,0.2,2.7,0.3,4.1,0.3
			c0.2,0,0.3,0,0.5,0c0.1,0,0.2,0,0.3,0c3.2-0.1,6.6-0.6,9.4-1.5c-3.5-4.9-7-9.8-9.5-15.3c-5.2-11.6-5.3-24.8-4.6-37.6
			c0.3-4.9,0.6-9.9-1.2-14.5c-0.8-2-2.3-3.9-4-5.3c-0.5-0.1-1.1-0.2-1.6-0.2C143.1,176.3,142.5,176.3,142,176.2"/>
		<path class="st17" d="M203.2,159.5l3.8-17.2c0.5-2.5,0-4.4-1.8-4.8l-4.7,21.3L203.2,159.5z"/>
		<path class="st7" d="M207.1,163.2c-0.9,4-4.8,6.5-8.8,5.6c-4-0.9-6.5-4.8-5.6-8.8c0.9-4,4.8-6.5,8.8-5.6
			C205.5,155.3,208,159.2,207.1,163.2z"/>
		<path class="st7" d="M196.8,158.1l3.8-17.2c0.5-2.2,3.1-3.7,4.6-3.4l-4.7,21.3L196.8,158.1z"/>
		<path class="st17" d="M207.9,147.4l-3.5,1.8l1.4-6.6l2.4,3.1C208.7,146.3,208.5,147.1,207.9,147.4z"/>
		<path class="st17" d="M206.6,153.2l-3.5,1.8l1.4-6.6l2.4,3.1C207.4,152.1,207.2,152.9,206.6,153.2z"/>
		<path class="st34" d="M204.2,177.9c1.5-1.4,3-2.6,4.3-4.2c0.4-0.4,0.4-2,0.4-2.1c0,0,0.3-0.6,0.3-0.8c0.3-1.1-0.4-1.9-0.5-2
			c0,0,0.3-0.8,0.3-1.2c0.1-0.8-1.1-4.3-1.2-4.6c-0.1-0.2-0.5-0.9-0.4-1c-0.3,0.8-0.9,2.8-0.9,2.8c0.2,2.3,0,3.8-3.2,6.7
			c-3.1-0.2,0.2-8.6-1.9-8.4c-1.7,1.5-1,4.2-1.7,6.3c-0.5,1.6-2.3,3-3.1,4.5c-1.3,2.4-1.3,5.2-2.4,7.7c-1.1,2.7-2.7,5.2-4.4,7.6
			c-2.8,3.8-5.9,7.3-8.4,11.3c-0.7,1.1-1.3,2.4-1.1,3.7c0.2,0.9,0.7,1.7,1.3,2.4c1.4,1.6,2.9,3.1,4.6,4.3c3.1-2.9,5.6-6.5,7.4-10.5
			c2-4.7,2.9-9.7,4.2-14.6c0.4-1.7,1-3.6,2.1-4.9C201.1,179.4,202.9,179,204.2,177.9z"/>
		<path class="st45" d="M160.1,183.6c2.5,2.7,4.5,5.9,6.8,8.9c2.4,3.2,5.3,5,8.5,7.3c0.7,0.5,1.5,1.1,2.4,1.2c2.9,0.3,5-3.9,7.8-3.1
			c0.8,0.2,5,4.7,6.4,6.2c0.2,0.2,0.5,0.5,0.5,0.8c0,0.3-0.1,0.6-0.3,0.9c-1.1,1.9-9.1,13-13,13.2c-8.9,0.4-24-10.9-27-14.9
			c-2.5-3.3-8.2-23.2-4.5-25.8C151.5,175.8,159.2,182.6,160.1,183.6z"/>
		<path class="st50" d="M140.5,135.4c2-0.6,4.1-0.8,6.2-0.5c1.4,0.2,2.7,0.6,3.7,1.5c0.6,0.6,1,1.3,1.4,2.1c0.9,2,1.1,4.4,0.4,6.4
			c-0.8,2.1-2.7,3.7-4.9,3.9c-0.6,0-1.3,0-1.9-0.1c-1.6-0.2-2.9-0.4-3.8,1.5c-0.7,1.5-1.6,3.4-1.6,5.1c-0.1,2.1,0.5,3.7,0.6,4.2
			c0,0.2-0.3,0.4-0.5,0.5c-0.6,0.1-0.9-0.6-1.4-0.8c-0.5-0.2-1.1,0.1-1.4,0.6c-0.3,0.5-0.3,1.1-0.3,1.6c-0.2,3,0.4,6.3,2.1,8.9
			c1.1,2.1,2.7,4,3.2,6.3c0.3,1.4,0.2,2.8-0.1,4.1c-0.3,1.7-0.8,3.4-1.6,5c-0.9,1.7-2.3,3.2-3.4,4.8c-1.4,2-2.1,3.7-2.6,6
			c-0.5,2.4-0.8,4.8-1.7,7.1c-1.5,3.9-4.7,7.1-8.6,8.5c-3.9,1.4-8.4,1.1-12.1-1c-4.6-2.6-7.5-7.4-9.7-12.2c-2.6-5.8-4.7-11.9-5-18.2
			c-0.3-6.3,1.2-12.9,5.2-17.9c1.8-2.3,4.1-4.2,6.6-5.8c1.9-1.2,4-2.3,5.7-3.8c3.3-3,5.5-10.9,8.2-13.4c2.9-2.7,7.6-2.2,9.8-1.7
			c0.4,0.1,0.9,0.2,1.3,0.1c0.5-0.1,0.9-0.3,1.3-0.6C137,136.7,138.7,135.9,140.5,135.4"/>
		<path class="st51" d="M148.2,138.3c-0.1,0-0.1,0-0.2,0c-1.2,0.1-1.7,1.6-2.4,2.6c-0.1,0.2-0.3,0.4-0.4,0.5
			c-0.8,0.9-1.9,1.5-3.1,1.6c-0.2,0-0.3,0-0.5,0c-0.8,0-1.6-0.2-2.4-0.3c-0.8-0.2-1.6-0.3-2.4-0.3c-0.7,0-1.4,0.1-2,0.6
			c-0.9,0.6-1.4,1.7-1.8,2.7c-1.5,3.6-3,8.2-6.7,10.2c-1.2,0.7-2.6,1-3.9,1.4c-6.2,2-11.1,7.9-11.9,14.4c-2.2,2.4-4.5,3.8-5.4,7.1
			c-0.6,2.4-0.5,4.9,0,7.4c0.7,3.8,2.3,7.5,5.1,10c0.6,0.5,1.3,1,2,1c0.2,0,0.3,0,0.5-0.1c-0.3,2.9,0.4,5.9,2,8.4
			c1.1,1.8,2.8,3.4,4.8,4c0.6,0.2,1.3,0.3,2,0.3c2,0,4.1-0.8,5.6-2.2c2.1-1.7,3.4-4.2,4.3-6.8c0.9-2.6,1.4-5.2,2-7.9
			c0.1-0.5,0.3-1,0.5-1.5c0.3-0.6,0.9-1.1,1.4-1.6c2.6-2.4,5.1-5.5,5.1-9c0-1.4-0.4-2.9-0.9-4.2c-1.3-3.5-3.8-6.6-3.7-10.4
			c0-3.7,1.1-7.3,2.2-10.8c1-3.3,2.5-7.5,6.3-8.4c1.1-0.3,2.2-0.2,3.2-0.6c1.4-0.6,2.4-2,2.8-3.5c0.4-1.6,0.2-3.6-1.2-4.4
			C148.9,138.4,148.6,138.3,148.2,138.3"/>
		<path class="st34" d="M139,159.7c0-0.3-0.2-0.5-0.5-0.7c-0.3-0.2-1-0.4-1.5-0.3c-0.6,0.1-1.1,0.7-1.2,1.3c-0.2,1.1-0.1,2,0.3,3
			c0.2,0.6,0.7,1.3,1.1,1.8s1,1.1,1.7,0.9l0.1-0.1c0.1-0.1,0.1-0.2,0.1-0.3"/>
		<path class="st50" d="M144.7,178.1c1.3,4.4,0.8,9.2-0.7,13.6c-0.1,0.4-0.7,0.2-0.6-0.1c0.2-1.2,0.5-2.5,0.7-3.7
			c1-5.6-0.3-11.5-3.6-16.1c-0.8-1.2-2.7-3-3.5-4.2c-0.4-0.7-0.9-3.3-0.2-2.1C137,165.8,142.6,171.4,144.7,178.1z"/>
		<path class="st52" d="M180.2,200.3c0.9-0.9,2.3-1,3.5-0.6c1.2,0.4,2.1,1.3,2.9,2.3c1.1,1.3,2,2.8,2.6,4.4c0.5,1.4,0.8,3.1-0.3,4.1
			c1.3,0.1,2.3-1.1,3-2.2c0.5-0.7,1-1.5,1.4-2.2c0.5-0.8,1-1.6,1.1-2.6c0.2-1.7-1-3.2-2.1-4.5c-1.3-1.5-2.7-3.1-4.6-3.5
			c-1.7-0.4-3.5,0.2-4.9,1.2c-1.4,1-2.5,2.5-3.4,3.9c0.8-0.5,1.6-0.9,2.4-1.4"/>
		<path class="st53" d="M119.2,62.6h30.7c3.6,0,6.6-2.9,6.6-6.6V25.3c0-3.6-2.9-6.6-6.6-6.6h-29.2c-4.5,0-8.2,3.7-8.2,8.2V56
			C112.6,59.7,115.6,62.6,119.2,62.6"/>
		<path class="st53" d="M119.2,114.3h30.7c3.6,0,6.6-2.9,6.6-6.6V77c0-3.6-2.9-6.6-6.6-6.6h-29.2c-4.5,0-8.2,3.7-8.2,8.2v29.2
			C112.6,111.3,115.6,114.3,119.2,114.3"/>
		<path class="st54" d="M142.7,90.1h-2.9v-0.1c0-0.9,0-5.7,0-5.9c-0.1-2.7-2.3-4.8-5-4.8c-2.7,0-4.9,2.1-5,4.9c0,0.2,0,5,0,5.9v0.1
			h-2.9v-0.1c0-5.9,0-5.9,0-6c0.1-4.3,3.6-7.7,7.9-7.7c4.3,0,7.8,3.4,7.9,7.7c0,0,0,0.1,0,6V90.1z"/>
		<path class="st55" d="M144.6,106h-19.7c-0.7,0-1.2-0.5-1.2-1.2V88.8c0-0.7,0.5-1.2,1.2-1.2h19.7c0.7,0,1.2,0.5,1.2,1.2v15.9
			C145.8,105.4,145.3,106,144.6,106"/>
		<path class="st55" d="M145.8,107.1h-22.1c-0.4,0-0.7-0.3-0.7-0.7v-2.2c0-0.4,0.3-0.7,0.7-0.7h22.1c0.4,0,0.7,0.3,0.7,0.7v2.2
			C146.5,106.8,146.2,107.1,145.8,107.1"/>
		<path class="st54" d="M128.7,53.6c0.3,0.4,0.7,0.7,1.2,0.9c1,0.3,2-0.4,2.8-1.1c4.5-4,13.2-19.1,16.8-24.5
			c0.4-0.6,0.8-1.3,0.7-2.1c-0.6-1.3-5.9,3.6-11,8.6c-4.5,4.4-8.8,8.8-9.5,8.8c-1.5-0.1-7.4-4.8-8.8-5.5c-0.3-0.1-0.6-0.3-0.9-0.2
			c-0.6,0.2-1.7,1.7-0.6,3.4C122.8,47.3,128.7,53.6,128.7,53.6"/>
		<path class="st56" d="M144.9,41.5c-0.1,0-0.3,0-0.4,0c-1.2,0.1-2.2,0.2-3.2,0.4c-3.2,4.9-6.4,9.6-8.6,11.5
			c-0.7,0.6-1.5,1.2-2.3,1.2c-0.2,0-0.4,0-0.5-0.1c-0.5-0.2-0.8-0.5-1.2-0.9c0,0-1.4-1.5-3.2-3.7c-1.3,0.5-2.7,0.8-4.4,1
			c-0.2,0-0.3,0-0.5,0c-4.3,0-8-6.4-8-7.3V56c0,3.6,2.9,6.6,6.6,6.6h30.7c3.6,0,6.6-2.9,6.6-6.6v-5.4
			C156.5,45.3,148.7,41.5,144.9,41.5"/>
		<path class="st57" d="M141.3,41.9c-7.3,1.5-9.8,5.9-15.8,8c1.8,2.2,3.2,3.7,3.2,3.7c0.3,0.4,0.7,0.7,1.2,0.9
			c0.2,0.1,0.4,0.1,0.5,0.1c0.8,0,1.6-0.6,2.3-1.2C134.9,51.5,138.2,46.8,141.3,41.9"/>
		<path class="st56" d="M145.8,93.2v10.4c0.4,0,0.7,0.3,0.7,0.7v2.2c0,0.4-0.3,0.7-0.7,0.7h-22.1c-0.4,0-0.7-0.3-0.7-0.7v-2.2
			c0-0.4,0.3-0.7,0.7-0.7v-1.4c-0.8,0.2-1.7,0.4-2.6,0.5c-0.2,0-0.3,0-0.5,0c-4.3,0-8-6.4-8-7.3v12.3c0,3.6,2.9,6.6,6.6,6.6h30.7
			c3.6,0,6.6-2.9,6.6-6.6v-5.4C156.5,97.4,149.8,93.7,145.8,93.2"/>
		<path class="st58" d="M144.9,93.1c-0.1,0-0.3,0-0.4,0c-10.7,0.8-12.6,7-20.8,9v1.4c0,0,0,0,0,0h22.1c0,0,0,0,0,0V93.2
			C145.5,93.1,145.2,93.1,144.9,93.1"/>
		<path class="st58" d="M145.8,103.6h-22.1c0,0,0,0,0,0c-0.4,0-0.7,0.3-0.7,0.7v2.2c0,0.4,0.3,0.7,0.7,0.7h22.1
			c0.4,0,0.7-0.3,0.7-0.7v-2.2C146.5,103.9,146.2,103.6,145.8,103.6C145.8,103.6,145.8,103.6,145.8,103.6"/>
		<path class="st53" d="M418.1,64.6h29.2c3.4,0,6.2-2.8,6.2-6.2V29.1c0-3.5-2.8-6.2-6.2-6.2h-27.7c-4.3,0-7.7,3.5-7.7,7.7v27.7
			C411.9,61.8,414.7,64.6,418.1,64.6"/>
		<path class="st53" d="M418.1,113.7h29.2c3.4,0,6.2-2.8,6.2-6.2V78.2c0-3.5-2.8-6.2-6.2-6.2h-27.7c-4.3,0-7.7,3.5-7.7,7.7v27.7
			C411.9,110.9,414.7,113.7,418.1,113.7"/>
		<path class="st54" d="M440.4,90.7h-2.8v-0.1c0-0.8,0-5.4,0-5.6c-0.1-2.6-2.2-4.6-4.7-4.6c-2.6,0-4.7,2-4.7,4.6c0,0.2,0,4.7,0,5.6
			v0.1h-2.8v-0.1c0-5.6,0-5.6,0-5.7c0.1-4.1,3.4-7.3,7.5-7.3c4.1,0,7.4,3.2,7.5,7.3c0,0,0,0.1,0,5.7V90.7z"/>
		<path class="st55" d="M442.3,105.8h-18.7c-0.6,0-1.1-0.5-1.1-1.1V89.5c0-0.6,0.5-1.1,1.1-1.1h18.7c0.6,0,1.1,0.5,1.1,1.1v15.1
			C443.4,105.3,442.9,105.8,442.3,105.8"/>
		<path class="st55" d="M443.4,106.9h-21c-0.4,0-0.7-0.3-0.7-0.7v-2.1c0-0.4,0.3-0.7,0.7-0.7h21c0.4,0,0.7,0.3,0.7,0.7v2.1
			C444,106.6,443.7,106.9,443.4,106.9"/>
		<path class="st54" d="M427.2,56c0.3,0.4,0.7,0.7,1.1,0.9c1,0.3,1.9-0.4,2.7-1c4.2-3.8,12.5-18.1,15.9-23.3c0.4-0.6,0.8-1.3,0.7-2
			c-0.6-1.3-5.6,3.4-10.4,8.1c-4.3,4.2-8.4,8.4-9,8.3c-1.4-0.1-7-4.5-8.3-5.2c-0.3-0.1-0.6-0.3-0.9-0.2c-0.6,0.2-1.7,1.6-0.6,3.2
			C421.6,50,427.1,56,427.2,56"/>
		<path class="st56" d="M442.5,44.5c-0.1,0-0.2,0-0.4,0c-1.1,0.1-2.1,0.2-3,0.4c-3,4.7-6.1,9.1-8.2,11c-0.6,0.5-1.4,1.1-2.2,1.1
			c-0.2,0-0.3,0-0.5-0.1c-0.4-0.2-0.8-0.5-1.1-0.9c0,0-1.3-1.4-3.1-3.5c-1.2,0.4-2.6,0.8-4.2,1c-0.2,0-0.3,0-0.5,0
			c-4.1,0-7.6-6.1-7.6-6.9v11.7c0,3.5,2.8,6.2,6.2,6.2h29.2c3.4,0,6.2-2.8,6.2-6.2v-5.1C453.6,48.2,446.1,44.5,442.5,44.5"/>
		<path class="st57" d="M439.1,44.9c-6.9,1.4-9.3,5.6-15,7.6c1.7,2,3,3.5,3.1,3.5c0.3,0.4,0.7,0.7,1.1,0.9c0.2,0.1,0.3,0.1,0.5,0.1
			c0.8,0,1.6-0.6,2.2-1.1C433,54,436.1,49.6,439.1,44.9"/>
		<path class="st56" d="M443.4,93.6v9.9c0.4,0,0.6,0.3,0.6,0.7v2.1c0,0.4-0.3,0.7-0.7,0.7h-21c-0.4,0-0.7-0.3-0.7-0.7v-2.1
			c0-0.4,0.3-0.7,0.6-0.7v-1.3c-0.8,0.2-1.6,0.3-2.5,0.5c-0.2,0-0.3,0-0.5,0c-4.1,0-7.6-6.1-7.6-6.9v11.7c0,3.5,2.8,6.2,6.2,6.2
			h29.2c3.4,0,6.2-2.8,6.2-6.2v-5.1C453.6,97.6,447.2,94.1,443.4,93.6"/>
		<path class="st58" d="M442.5,93.6c-0.1,0-0.2,0-0.4,0c-10.1,0.8-11.9,6.6-19.7,8.6v1.3c0,0,0,0,0,0h21c0,0,0,0,0,0v-9.9
			C443.1,93.6,442.8,93.6,442.5,93.6"/>
		<path class="st58" d="M443.4,103.5h-21c0,0,0,0,0,0c-0.4,0-0.6,0.3-0.6,0.7v2.1c0,0.4,0.3,0.7,0.7,0.7h21c0.4,0,0.7-0.3,0.7-0.7
			v-2.1C444,103.8,443.8,103.5,443.4,103.5C443.4,103.5,443.4,103.5,443.4,103.5"/>
		<path class="st59" d="M436.5,162.2c0.5-3.3,2.7-6.1,3.4-9.4c0.6-2.5,0.5-6-0.9-8.1c-1.5-2.3-4.2-3.5-6.6-4.5
			c-2.6-1.2-5.4-2.4-8.2-1.9c-5.5,1-5.8,7.5-6.7,12c-0.6,3-1.4,4.9-1.2,8.1c0.2,1.8,1.4,5.9,3,6.7c2,1,4.2-0.6,4.2-0.6
			s1.8,4.2,4,9.7c0.3,0.9,0.4,0.3,0.4-0.2c0-0.6,0-1.1,0.3-0.2c0.9-0.1,2.4,0.1,3.9,0.4c2.6,0.5,5.4,1,6.3-0.7
			C438.4,173.6,436.2,164.8,436.5,162.2"/>
		<path class="st60" d="M436.5,162.2c0.5-3.3,2.7-6.1,3.4-9.4c0.6-2.5,0.5-6-0.9-8.1c-1.5-2.3-4.2-3.5-6.6-4.5
			c-2.6-1.2-5.4-2.4-8.2-1.9c-5.5,1-5.2,5.8-4.2,10.3c1.6,7.4,4.3,7.2,4.3,13.4c0,1.8-4.9,3.1-4.9,3.1c2,1,4.9-0.6,4.9-0.6
			s0.9,5.8,1,9.7c0,1,0.6,0.4,1.3-0.2c0.6-0.6,1.3-1.1,1.6-0.2c0.8-0.1,1.9-0.1,3.1-0.1c2.8,0.1,6.1,0.2,7.1-1.6
			C438.3,172.2,436.2,164.8,436.5,162.2"/>
		<path class="st60" d="M456.4,218.2c-4,6.7-4.2,14.8-5.4,22.5c-0.2,1.5-0.5,3-1.1,4.4c-0.6,1.2-1.4,2.4-2.1,3.5
			c-1.6,2.4-2.9,4.9-4.3,7.4c-0.1,0.2-0.2,0.5-0.2,0.7c0.1,0.4,0.8,0.5,1.1,0.2c0.3-0.3,0.5-0.7,0.7-1.1c0.3-0.7,0.8-1.3,1.5-1.8
			c0.1-0.1,0.4-0.2,0.5,0l0,0.2c-0.3,2.4-1.4,4.9-3.4,6.3c-0.1,0.1-0.2,0.2-0.3,0.3c-0.2,0.4,0.1,0.9,0.5,1c0.1,0,0.2,0,0.3,0.1
			c0.1,0.1,0.1,0.2,0.1,0.3c0.3,1.2,1.9,0.6,2.4,0c0.3,0.2,0.5,0.4,0.9,0.4c0.4,0,0.8-0.2,1.1-0.5c0.6-0.5,1.2-0.9,1.8-1.4
			c1-0.7,1.5-1.5,1.9-2.6c0.9-2.4,1.8-4.9,2-7.5c0.2-1.8,0-3.8,0.5-5.5c0.3-1,0.8-2,1.3-2.9c2.8-5,5.8-10,7.1-15.6
			c0.3-1.3,0.5-2.7,0.4-4c-0.2-2-1.3-3.9-2.7-5.4c-0.3-0.3-0.6-0.6-0.8-1c-0.2-0.4-0.2-0.9,0.1-1.2"/>
		<path class="st37" d="M447.1,235c2.9,5.3,5.2,11.3,4.3,17.2c-0.8,5.2-4,9.6-6.7,14.1c-5.1,8.3-9.1,17.2-13.1,26
			c-0.6,1.3-1.2,2.6-1.5,3.9c-0.5,1.8-0.6,3.8-0.6,5.7c-0.8,18.1-2.1,36.3-6.7,53.8c-0.1,0.3-0.2,0.6-0.4,0.8
			c-0.3,0.2-0.6,0.2-1,0.2c-2.1,0-4.3,0.1-6.4,0.1c1.4-18.5,1.2-37.1-0.5-55.6c-0.3-3.3-0.7-6.6-0.4-9.8c0.3-2.9,1.1-5.8,2-8.6
			c1.6-5.3,3.6-10.4,5.5-15.6c3.7-10,7.4-19.9,11.2-29.9c0.3-0.7,0.5-1.4,1.1-1.8c0.5-0.4,1.2-0.6,1.8-0.7c2.8-0.5,5.7-0.5,8.5-0.1"
			/>
		<path class="st61" d="M413.6,237c-3.5,18.3-1.3,37.1,1.6,55.5c0.6,3.4,1.1,6.9,2.7,10c2.4,4.9,6.9,8.4,11.2,11.8
			c11.4,9.1,22.1,19,32.2,29.4c2.9-2.3,5.8-4.5,8.7-6.8c-3.6-2.4-7.1-4.9-9.7-8.3c-2-2.6-3.3-5.7-4.9-8.6c-3.2-5.8-7.4-11-12.4-15.2
			c-1.1-1-2.4-1.9-3.2-3.2c-0.8-1.3-1.2-3-1.4-4.5c-1-5.7-1.5-11.5-1.7-17.3c-0.1-2.8,0.1-5.5,0.2-8.3c0-2.6-0.5-5.2,0.6-7.7
			c0.5-1,1.2-1.9,1.8-2.9c4.3-6.1,6.3-13.7,5.6-21"/>
		<path class="st60" d="M406.4,221.9c-3.3,10.1-3.6,20.9-6.3,31.2c-0.3,1.1-0.6,2.2-0.6,3.3c0,1,0.2,2,0.4,2.9
			c0.2,1.3,0.3,2.7,1,3.8c1,1.6,2.9,2.2,4.7,2.7c0.1-0.5-0.3-1.1-0.8-1.3c1,0,1.9,0,2.9,0c0.2,0,0.5,0,0.6-0.2c0.1-0.2,0-0.5,0-0.7
			c0.1-0.5,0.7-0.7,0.8-1.2c0.1-0.5-0.8-0.8-1.1-0.3c0-0.4-0.4-0.6-0.8-0.6c-0.4,0-0.7,0.2-1.1,0.2c-0.9-0.1-1.1-1.3-0.9-2.2
			c0.4-2.3,1.5-4.6,1.3-6.9c-0.1-1.3-0.7-2.5-0.7-3.8c0-1,0.3-2,0.7-2.9c1.3-3.3,3.3-6.2,4.9-9.4c1.6-3.1,2.9-6.6,2.7-10.1
			c-0.1,0.2-0.2,0.4-0.3,0.6"/>
		<path class="st62" d="M447.1,173.2c2.1,0.2,4.1,1.3,5.4,2.9c4.3,4.8,4.4,11.1,4.8,16.9c0.4,6.3,2,12.5,3.9,18.6
			c0.6,1.9,1.2,4,0.4,5.8c-0.7,1.6-2.4,2.7-3.9,3.7c-1.1,0.7-2.1,1.3-3.4,1.7c-1.2,0.3-2.6,0.3-3.7-0.5c-0.8-0.6-1.2-1.5-1.6-2.4
			c-1.9-4.7-2.6-9.7-2-14.7c0.5-4.2,1.9-8.3,2.3-12.6c0.5-5.1-0.5-10.3-2.7-14.9c-0.6-1.3-1.3-2.9-0.3-3.9L447.1,173.2"/>
		<path class="st63" d="M450,223.1c0.9,1.3,1.8,2.6,2.7,3.9c0.2-0.6,0.8-1.1,1.5-1.3s1.4-0.3,2.1-0.5c2.5-0.7,4.3-2.7,6.5-3.9
			c0.3-0.2,0.7-0.3,1-0.3c0.4,0.1,0.6,0.5,0.4,0.8c0.9-0.3,1.1-1.5,0.5-2.1c-0.2-0.2-0.4-0.3-0.6-0.5c-0.4-0.5-0.5-1.2-0.5-1.8
			c0-1.8-0.4-3.7-1.9-4.8c0,0.9-0.8,1.6-1.6,2.1c-1.4,1-2.8,2-4.5,2.5c-1,0.3-2,0.4-3,0.7C449.3,218.8,447.9,220,450,223.1z"/>
		<path class="st45" d="M427.5,171.6c-8.2,0-12.5,3.3-15.4,5.9c-1.3,1.2-0.6,3.1-1.4,4.7c-1.3,2.6-1.1,5.7-0.6,8.5
			c1.5,9.1,0.7,15.8,4,24.4c2,5.2,3.4,10.9,1.7,16.2c-0.9,2.9-2.8,5.5-3,8.6c3-0.9,6,1.3,8.5,3.1c4.7,3.4,10.5,6.3,16.1,5
			c5.3-1.2,9.1-5.7,12.7-9.8c0.2-0.2,0.3-0.4,0.4-0.6c0.1-0.3,0-0.7-0.1-1c-3.2-9.4-4.3-17.9-2.4-27.6c1.3-6.3,2.5-12.7,3.8-19
			c0.8-4.2,1.6-8.7-0.2-12.5c-1.3-2.7-3.9-4.7-6.7-5.8c-1.7-0.7-6.9-0.5-11.2-0.3C431,171.6,428.7,171.7,427.5,171.6"/>
		<path class="st45" d="M420.4,199.1c-0.6-4.3-1.1-8.6-1.5-12.8c-0.4-3.9,0.1-8.8-1-12.5c-4.1,1.2-6.9,4.2-8.2,8.2
			c-0.9,2.9-1.1,6-1.4,9c-0.6,9.1-1.5,18.1-2.7,27.2c-0.1,0.5-0.1,1,0.1,1.4c0.2,0.3,0.4,0.4,0.7,0.6c3.1,2,6.7,3.2,10.4,3.5
			c0.7-2.6,1.4-5.1,2.2-7.7c1-3.5,2-7.1,2-10.8C421,203.1,420.7,201.1,420.4,199.1z"/>
		<path class="st64" d="M403.1,221.4c0,0.9,0,1.8,0,2.7c1.2-0.5,2.4,0.6,3.4,1.2c2.3,1.4,5.2,1.1,7.6,2.3c0.7,0.3,1.3,0.8,2.1,0.7
			c0.9-0.1,1.5-1.1,1.6-2s0-1.9,0.2-2.8c0.2-0.8,0.7-1.5,0.8-2.4c0.1-0.8-0.3-1.8-1.1-1.9c-0.3,0.4-1,0.4-1.5,0.2
			c-3.4-0.9-6.5-3.1-9.9-3.9c-1.2-0.3-2.2-0.2-2.8,1c-0.5,0.9,0.1,1.5,0,2.3C403.5,219.9,403,220.5,403.1,221.4z"/>
		<path class="st41" d="M414.6,366.1c-1.2-0.3-2.3-0.8-3.6-1c-1.5-0.3-3.1-0.3-4.7-0.4c-1.4-0.1-2.8-0.4-4.1-0.8
			c-1.1-0.3-2.3-0.8-3-1.7c-0.7-0.9-0.9-2.4,0-3.2c2.7,0.3,5.3,0.5,8,0.8c1.5,0.2,3,0.3,4.5,0.2c1,0,2.1-0.2,3.1-0.2
			c1.9,0,3.8,0.6,5.6,1.2c1.3,0.4,1,5.2,0.4,5.3C418.4,366.9,416,366.6,414.6,366.1z"/>
		<path class="st7" d="M471,338.1c-0.8-1.6-2.4-2.9-4.2-2.8c-2,0.1-3.6,1.9-4.2,3.9c-0.6,2-0.4,4-0.4,6.1c0,4.8-1.1,9.5-1.7,14.3
			c-0.2,1.2-0.3,2.3,0,3.5s1.1,2.2,2.2,2.5"/>
		<path class="st65" d="M399,359.1c-0.6,0.8-0.4,2,0.2,2.8s1.6,1.2,2.6,1.5c3.4,1,7,0.4,10.5,0.8c2.7,0.3,5.5,1.3,8.2,0.9
			c0.2,0,0.4-0.1,0.5-0.2c0.2-0.1,0.2-0.4,0.3-0.6c0.2-1,0.2-2-0.2-3"/>
		<path class="st7" d="M398.3,360.2c0,0.3,0.1,0.6,0.4,0.9c0.6,0.7,2.5,1.4,3.4,1.6c1.7,0.5,3.6,0.6,5.4,0.6c2.5,0,5-0.2,7.4,0.2
			c1.5,0.3,3,0.9,4.6,1c0.4,0,0.8,0,1.2-0.2c0.5-0.3,0.7-0.9,0.8-1.5c0.4-1.8,0.5-3.8-0.4-5.5c-0.2-0.4-0.4-0.8-0.8-1
			c-0.5-0.4-1.2-0.5-1.8-0.5c-1.9,0.1-3.6,1.1-5.4,1.7c-1.5,0.5-3.1,0.6-4.6,0.6c-1.8,0.1-3.6,0.2-5.3-0.1c-1.6-0.2-3.2-0.9-4.4,0.6
			C398.4,359.2,398.2,359.7,398.3,360.2z"/>
		<path class="st65" d="M463.9,365.9c-0.8,0.2-1.6-0.5-1.8-1.3c-0.2-0.8,0-1.6,0.3-2.4c1.8-5.3,4.4-10.3,5-15.9
			c0.2-1.7,0.2-3.4,0.6-5c0.4-1.6,1.4-3.2,2.9-3.9c0.6,0.6,1.2,1.3,1.6,2.1c0.4,0.8,0.4,1.8-0.1,2.6"/>
		<path class="st41" d="M469.3,341.7c-0.6,2.1-0.8,4.4-1.2,6.5c-0.9,5.1-3.3,9.8-5.1,14.7c-0.2,0.7-0.5,1.4-0.3,2.1
			c0.1,0.7,0.8,1.3,1.5,1.2c0.3-0.1,0.6-0.3,0.8-0.5c3.7-3.1,6-7.8,6.2-12.6c0.1-1.6,0-3.2,0.1-4.8c0.3-2.6,1.3-5.1,1.5-7.7
			c0.1-1.2-0.5-2.1-1.7-1.6C470.2,339.5,469.6,340.8,469.3,341.7z"/>
		<path class="st23" d="M427.3,160.7c-0.2-1-0.2-2-0.5-3.1c-0.2-1,0.1-5-0.7-5.6c-0.8-0.6-1.1-1.6-2.5,0.4c-0.2,0.3-0.7,0.4-1,0.4
			c-0.3,0-0.5-0.3-0.7-0.6c-1.1-2.2-0.8-6.7-2.7-8.3c-0.8-0.6-3.7-3.1-3.3-8.4c0.1-1.6,0.5-3.3,1.6-4.4c0.7-0.7,1.6-1.1,2.6-1.4
			c3.4-1,6.2-1.1,8.9,1.2c2.7,2.3,1,5.3,2.6,6.4c1.9,1.3,5.6,1.6,9,4.2c1.8,1.4,2.3,3.8,2.6,6c0.5,3.2,0.1,6.7-1.6,9.5
			c-0.9,1.5-2,3-3.5,3.8c-2.2,1.3-0.9,3.2-1.7,3.8C431.9,167.8,427.9,163.6,427.3,160.7"/>
		<path class="st23" d="M454.5,164.1c2.6,4.2,3.9,9,4.3,13.9c0.2,2.7,0.2,5.6-1.1,8c-1.3,2.4-4,4.2-6.7,3.6c-2.2-0.5-3.7-2.3-5-4.2
			c-0.9-1.3-1.7-2.8-1.2-4.3c-1-0.2-1.9-0.5-2.9-0.7c-0.5-0.1-1-0.2-1.4-0.5c-1.7-0.9-2.3-3.1-2-4.9c0.3-1.9,1.3-3.6,2.1-5.3
			c1.8-3.9,2.6-8.4,1.3-12.5c-0.5-1.5-0.1-2.9,1.7-2.2c1.5,0.6,2.9,1.3,4.2,2.1C450.5,159,452.8,161.4,454.5,164.1"/>
		<path class="st23" d="M443.5,155.1c6.3,1.4,11,6.7,14.5,12.4c0.7,1.2,1.4,2.5,1.7,3.8c0.1,0.3-0.3,0.4-0.4,0.2
			c-3-6-8.2-12.2-13.8-15.5L443.5,155.1"/>
		<path class="st23" d="M420.3,144.8c-0.8-0.1-1.6-0.3-2.3-0.6c-0.6-0.3-1.2-0.6-1.7-1c-1.5-1.3-2.3-3.4-1.8-5.4
			c0.4,0,0.5,0.5,0.5,0.9c0.1,1.1,0.5,2.3,1.3,3.1c0.8,0.7,1.8,0.9,2.8,1"/>
		<path class="st60" d="M423,153.4c0.1-0.2,0.9-1.3,1-1.5c0.3-0.5,0.7-1.1,1.3-1.4c0.9-0.4,2,0,2.6,0.8s0.8,1.8,0.8,2.8
			c0,0.7-0.1,1.3-0.3,1.9c-0.4,1-1.3,1.8-2.3,2.1c-0.4,0.1-0.9,0.2-1.3,0c-0.4-0.1-0.8-0.5-0.8-0.9"/>
		<path class="st66" d="M420.4,139.9c-0.3,0-0.6,0.3-0.6,0.7c0,0.3,0.2,0.7,0.4,1c1.1,1.6,2.6,2.9,4.1,4.1c1.5,1.2,3.1,2.4,4.2,4
			c1.2,1.6,1.9,3.5,1.6,5.5c-0.2,1.4-1,2.7-1.1,4.2c0,1.2,0.4,2.5,1.3,3.3c0.6,0.6,1.6,1,2.3,1.5c0.5,0.3,1.1,0.6,1.7,0.6
			c0.2,0,0.4,0,0.6-0.1c0.6-0.3,1-1,1.1-1.7c0.2-0.7,0.2-1.4,0.6-2c0.3-0.5,0.9-0.8,1.3-1.1c0.3-0.2,3.9-3.1,3.4-3.4
			c0.1,0,0.2,0.1,0.2,0.2c0-0.6,0.1-1.1,0.4-1.3c-0.4-3.1-2.7-6-5.7-6.9c-1.3-0.4-2.7-0.5-4.1-0.7c-1.6-0.3-3.3-0.8-4.7-1.6
			c-2.5-1.5-4.3-4-6.7-5.8C420.8,140,420.7,139.9,420.4,139.9C420.5,139.9,420.5,139.9,420.4,139.9"/>
		<path class="st66" d="M442.1,155.1c-0.3,0.2-0.5,0.7-0.4,1.3c1.7,1.3,2.3,4.5,2.5,6.5c0.2,2.4-0.1,4.8-0.6,7.1
			c-0.3,1.2-0.7,2.5-0.8,3.7c-0.1,1.3,0.1,2.6,0.9,3.6c0.3,0.5,0.9,0.9,1.4,0.9c0.1,0,0.2,0,0.3,0c0.3-0.1,0.6-0.3,0.8-0.6
			c1.2-1.4,1.3-3.3,1.2-5.1c0.2-0.2,0.4-0.3,0.7-0.3c0.3,0,0.5,0.1,0.8,0.3c0.4,0.3,0.6,0.9,0.9,1.4c0.3,0.7,0.6,1.4,1,2.1
			c0.3,0.5,0.5,1.1,1,1.5c0.3,0.3,0.8,0.5,1.3,0.5c0.1,0,0.2,0,0.4,0c0.5-0.1,0.9-0.6,1.1-1.1c0.2-0.5,0.2-1.1,0.2-1.6
			c-0.1-2.6-0.9-5-2.1-7.3c-1.2-2.3-2.6-4.4-4.1-6.5c-0.6-0.9-1.2-1.8-1.9-2.6c-1.1-1.2-2.5-2.4-4-3.2l-0.2-0.2L442.1,155.1
			C442.1,155.1,442.1,155.1,442.1,155.1"/>
		<path class="st53" d="M356.4,71.7h29.9c3.5,0,6.4-2.9,6.4-6.4V35.4c0-3.5-2.9-6.4-6.4-6.4h-28.3c-4.4,0-7.9,3.5-7.9,7.9v28.3
			C350,68.8,352.9,71.7,356.4,71.7"/>
		<path class="st53" d="M356.4,121.9h29.9c3.5,0,6.4-2.9,6.4-6.4V85.6c0-3.5-2.9-6.4-6.4-6.4h-28.3c-4.4,0-7.9,3.5-7.9,7.9v28.3
			C350,119,352.9,121.9,356.4,121.9"/>
		<path class="st54" d="M379.2,98.4h-2.8v-0.1c0-0.9,0-5.6,0-5.7c-0.1-2.6-2.2-4.7-4.8-4.7c-2.6,0-4.8,2.1-4.8,4.7
			c0,0.2,0,4.9,0,5.7v0.1h-2.8v-0.1c0-5.7,0-5.8,0-5.8c0.1-4.2,3.5-7.5,7.7-7.5c4.2,0,7.6,3.3,7.7,7.5c0,0,0,0.1,0,5.8V98.4z"/>
		<path class="st55" d="M381.1,113.8h-19.1c-0.6,0-1.2-0.5-1.2-1.2V97.2c0-0.6,0.5-1.2,1.2-1.2h19.1c0.6,0,1.2,0.5,1.2,1.2v15.5
			C382.2,113.3,381.7,113.8,381.1,113.8"/>
		<path class="st55" d="M382.2,114.9h-21.4c-0.4,0-0.7-0.3-0.7-0.7v-2.1c0-0.4,0.3-0.7,0.7-0.7h21.4c0.4,0,0.7,0.3,0.7,0.7v2.1
			C382.9,114.6,382.6,114.9,382.2,114.9"/>
		<path class="st54" d="M365.6,63c0.3,0.4,0.7,0.7,1.1,0.9c1,0.3,2-0.4,2.7-1.1c4.3-3.8,12.8-18.5,16.3-23.8c0.4-0.6,0.8-1.3,0.7-2
			c-0.6-1.3-5.7,3.5-10.7,8.3c-4.4,4.3-8.6,8.6-9.2,8.5c-1.5-0.1-7.2-4.6-8.5-5.3c-0.3-0.1-0.6-0.3-0.9-0.2
			c-0.6,0.2-1.7,1.6-0.6,3.3C359.9,56.8,365.6,63,365.6,63"/>
		<path class="st56" d="M381.3,51.1c-0.1,0-0.2,0-0.4,0c-1.1,0.1-2.2,0.2-3.1,0.4c-3.1,4.8-6.2,9.3-8.4,11.2
			c-0.6,0.6-1.4,1.1-2.2,1.1c-0.2,0-0.3,0-0.5-0.1c-0.5-0.2-0.8-0.5-1.1-0.9c0,0-1.4-1.5-3.1-3.6c-1.2,0.4-2.6,0.8-4.3,1
			c-0.2,0-0.3,0-0.5,0c-4.1,0-7.7-6.2-7.7-7.1v12c0,3.5,2.9,6.4,6.4,6.4h29.9c3.5,0,6.4-2.9,6.4-6.4v-5.2
			C392.6,54.9,385,51.1,381.3,51.1"/>
		<path class="st57" d="M377.9,51.6c-7.1,1.5-9.6,5.7-15.4,7.8c1.8,2.1,3.1,3.6,3.1,3.6c0.3,0.4,0.7,0.7,1.1,0.9
			c0.2,0.1,0.3,0.1,0.5,0.1c0.8,0,1.6-0.6,2.2-1.1C371.7,60.9,374.8,56.3,377.9,51.6"/>
		<path class="st56" d="M382.2,101.4v10.1c0.4,0,0.7,0.3,0.7,0.7v2.1c0,0.4-0.3,0.7-0.7,0.7h-21.4c-0.4,0-0.7-0.3-0.7-0.7v-2.1
			c0-0.4,0.3-0.7,0.7-0.7v-1.4c-0.8,0.2-1.6,0.4-2.6,0.5c-0.2,0-0.3,0-0.5,0c-4.1,0-7.7-6.2-7.7-7.1v12c0,3.5,2.9,6.4,6.4,6.4h29.9
			c3.5,0,6.4-2.9,6.4-6.4v-5.2C392.6,105.5,386.1,101.9,382.2,101.4"/>
		<path class="st58" d="M381.3,101.3c-0.1,0-0.2,0-0.4,0c-10.4,0.8-12.2,6.8-20.2,8.8v1.4c0,0,0,0,0,0h21.4c0,0,0,0,0,0v-10.1
			C381.9,101.4,381.6,101.3,381.3,101.3"/>
		<path class="st58" d="M382.2,111.5h-21.4c0,0,0,0,0,0c-0.4,0-0.7,0.3-0.7,0.7v2.1c0,0.4,0.3,0.7,0.7,0.7h21.4
			c0.4,0,0.7-0.3,0.7-0.7v-2.1C382.9,111.8,382.6,111.5,382.2,111.5C382.2,111.5,382.2,111.5,382.2,111.5"/>
		<path class="st62" d="M343.4,264c-1,0.9-2,2-1.9,3.4c0.1,0.9,0.7,1.6,1.4,2.1s1.6,0.7,2.5,0.9c0.8-2.1,1.3-4.4,1.6-6.6
			c0.2-1.2,0.2-1.9-1.2-1.3C344.9,262.8,344.1,263.4,343.4,264z"/>
		<path class="st67" d="M364,184.3c1.4-4.2,1.7-8.8,0.7-13.2c0,0-1.8,1.4-3.2,0.3c-1.2-1-4.3-5.8-4.7-7.4c-1.3-5.2-1.8-8.8-1.3-13.4
			c0.1-1.2,5-6.3,6.6-7.3c1.7-0.9,3.5-1.5,5.4-1.9c2.2-0.5,4.6-0.9,6.6,0.2c0.9,0.5,1.7,1.3,2.3,2.2c1.3,2,2.1,4.3,2.5,6.6
			c1.1,6,0.4,12.3-2,17.8c-0.7,1.6,1.6,12.1,1.7,12.5L364,184.3"/>
		<path class="st67" d="M395.3,229.6c-2.5,8.7-0.4,18,0.5,27c0.2,1.7,0.3,3.5,0,5.3c-0.3,1.6-0.8,3.1-1.4,4.6
			c-1.1,3.2-1.9,6.4-2.6,9.7c-0.1,0.3-0.1,0.6,0,0.8c0.3,0.4,1,0.3,1.3-0.1c0.3-0.4,0.3-1,0.4-1.5c0.2-0.9,0.5-1.7,1.1-2.4
			c0.1-0.2,0.4-0.3,0.5-0.2l0.1,0.2c0.4,2.8-0.2,5.9-1.9,8.2c-0.1,0.1-0.2,0.3-0.3,0.4c-0.1,0.5,0.3,1,0.8,1c0.1,0,0.2,0,0.3,0.1
			c0.1,0.1,0.1,0.2,0.2,0.3c0.7,1.2,2.3,0.1,2.8-0.7c0.4,0.1,0.7,0.3,1.1,0.2c0.5-0.1,0.8-0.5,1.1-0.8c0.6-0.7,1.1-1.4,1.7-2.1
			c0.9-1.1,1.3-2.1,1.4-3.5c0.3-3,0.6-6.1,0.1-9.1c-0.4-2.1-1.1-4.2-1.1-6.4c0-1.2,0.3-2.5,0.7-3.7c1.7-6.5,3.6-13.1,3.4-19.8
			c0-1.6-0.2-3.2-0.8-4.6c-0.9-2.2-2.6-4-4.6-5.3c-0.4-0.3-0.9-0.5-1.2-0.9c-0.3-0.4-0.5-1-0.2-1.4"/>
		<path class="st62" d="M390.4,183.7c3.9,1.2,7.3,4.1,9,7.8c1,2.2,1.5,4.6,1.8,7c0.7,5.6,0.5,11.3,1.9,16.7c0.6,2.2,1.4,4.3,1.6,6.5
			c0.1,0.9,0.1,1.7,0.4,2.6c0.2,0.9,0.7,1.7,1.1,2.6c2,4.7,1.3,10,0.5,15.1c0.4-0.3,0-0.9-0.4-1s-0.9,0.2-1.3,0.4
			c-2.3,1.3-4.8,2.2-7.3,2.6c-1.8,0.3-4,0.3-5.2-1.2c-0.8-1-1-2.3-1.1-3.5c-0.7-6.7-1.3-13.4-0.5-20c0.7-5.5,2.5-10.9,3.4-16.4
			c0.9-5.5,0.9-11.5-1.8-16.4L390.4,183.7"/>
		<path class="st41" d="M366.4,376.6c-0.4,1-0.2,2.4-0.3,3.5s-0.4,1.6,0.3,2.4c1,1.3,2.8,1.6,4.5,1.7c0.6,0,1.3,0.1,1.9,0
			c1.7-0.2,3.3-0.9,4.4-2.2c0.3-0.3,0.5-0.6,0.6-0.9c0.1-0.3,0.1-0.7,0.1-1.1c-0.1-0.9-0.1-1.7-0.2-2.6c0-0.3-0.1-0.7-0.4-0.7"/>
		<path class="st7" d="M366.8,366.9c-1,3.8-1.1,7.8-0.6,11.7c0.2,1.1,0.5,2.3,1.4,2.8c0.4,0.2,1,0.3,1.5,0.3
			c1.3,0.1,2.6,0.2,3.9,0.2c0.6,0,1.2,0,1.8-0.2c0.8-0.3,1.5-1,2-1.7c1.6-2.3,2-5.3,1.5-8.1c-0.4-2.8-1.7-5.4-3.3-7.7
			c-0.4,0.1-0.8,0.4-1.1,0.7L366.8,366.9"/>
		<path class="st37" d="M364.7,264.9c-1.2,17.4,4.6,34.6,5.1,52c0.2,7.9-0.6,15.8-1.5,23.6c-1,8.7-1.9,17.4-2.9,26.1
			c-0.1,0.8-0.2,1.7,0.2,2.4c0.5,0.9,1.6,1.3,2.6,1.6c2.6,0.8,5.5,1.6,7.9,0.2c3-1.7,3.4-5.7,3.8-9.1c1.1-11.3,4.5-22.3,4.7-33.6
			c0.1-3.1-0.1-6.2,0.2-9.2c0.3-3,1.1-5.9,1.7-8.8c2.4-10.8,3.5-22,4.5-33c0.2-2.5,0.5-5,0.4-7.6c-0.1-6.2-1.8-12.4-5-17.7
			L364.7,264.9"/>
		<path class="st68" d="M369.3,371c1.5,0.6,3.1,1.1,3.9,1.1c0.3,0,0.4-0.1,0.4-0.2c0-0.1,0.1-0.2,0.1-0.3c-0.2,0-0.4,0-0.6,0
			C371.9,371.6,370.6,371.3,369.3,371"/>
		<path class="st69" d="M389.1,265.8c-0.1,0-0.1,0.1-0.2,0.1c-3.7,2.3-6.3,6-9.9,8.4l0,0c0,0,0,0-0.1,0c0,0,0,0,0,0
			c-2.3,1.5-5.1,2.5-8.2,2.8c-0.7,0.1-1.4,0.1-2.2,0.1c-0.4,0-0.9,0-1.3,0c-0.5,1.4-1.2,3.3-2,5.3c1.4,11.4,4,22.8,4.4,34.3
			c0,0.9,0,1.7,0,2.6c0,7-0.8,14-1.5,21c-0.2,2.1-0.5,4.3-0.7,6.4c0,0.1,0,0.2,0,0.4c0,0.1,0.1,0.3,0.1,0.4c0-0.1-0.1-0.2-0.1-0.4
			c0.1,1.1,0,2.3-0.4,3.3c0,0,0,0,0-0.1c-0.6,5.3-1.2,10.7-1.8,16c0,0.3-0.1,0.7-0.1,1c0,0.5,0.1,1,0.3,1.4c0.2,0.4,1.9,1.2,3.7,1.9
			c1.2,0.4,2.5,0.6,3.8,0.6c0.2,0,0.4,0,0.6,0c3.3-10.4,5.2-21.2,5.5-32.1c0.2-4.8,0-9.5,0.5-14.2c0.7-6.1,2.4-12.1,3.9-18.1
			c2.9-12,4.7-24.2,5.2-36.5C389,269,389.1,267.4,389.1,265.8"/>
		<path class="st7" d="M350.5,367.4c-1.6,2.8-3.9,5.6-3.6,8.8c0.1,0.8,0.6,1.7,1.4,1.6c0.3-0.1,0.6-0.4,0.8-0.7
			c5.1-6.9,10.8-13.1,17.2-18.7c0.8-0.7,2.6-1.8,3.6-1.4c-0.7-2.1-0.8-3.2-1.8-4.7c-1.1-1.8-2.3-3.7-4.2-4.4c-1.4-0.5-3-0.3-4.5,0.2
			c-1.7,0.6-3.7,1.5-4.8,3c-0.8,1.1-0.7,2.3-0.7,3.6C353.8,359.1,352.7,363.5,350.5,367.4z"/>
		<path class="st37" d="M347.4,249.3c-2.4,14.3-6.9,28.7-9.2,43.1c-0.7,4-1.3,8-1.2,12c0.1,4.3,14.7,49.1,15.6,51.9
			c3.4-2.2,5.4-3.7,8.8-5.9c1-0.7,2-1.3,3.2-1.4c1.2-0.1,2.5,0.6,2.7,1.8c1-2.4,0.3-5.1-0.7-7.5c-1-2.4-2.4-4.6-2.9-7.2
			c-0.4-1.8-0.4-3.8-0.5-5.6c-0.5-10-4.9-19.8-3.5-29.7c0.5-3.7,6.6-20.1,8.3-24.7c0.8-2.1,1.6-4.3,2-6.5c0.4-2.3,0.5-4.6,0.5-7
			c0-4.8-0.2-9.7-0.7-14.5c-0.7-0.3-1.4-0.6-2-1L347.4,249.3"/>
		
			<linearGradient id="SVGID_6_" gradientUnits="userSpaceOnUse" x1="-482.5903" y1="1961.3369" x2="-481.5903" y2="1961.3369" gradientTransform="matrix(209.0508 -282.5291 -282.5291 -209.0508 655318.3125 274103.0625)">
			<stop  offset="0" style="stop-color:#8BC7EA"/>
			<stop  offset="0.1564" style="stop-color:#8BC7EA"/>
			<stop  offset="0.4634" style="stop-color:#ACD4EE"/>
			<stop  offset="0.8071" style="stop-color:#CAE0F2"/>
			<stop  offset="1" style="stop-color:#D6E4F4"/>
		</linearGradient>
		<path class="st27" d="M363.8,336.8c0.5,1.6,1.2,3,1.9,4.5c-0.3-0.8-0.6-1.6-0.9-2.4C364.5,338.2,364.1,337.5,363.8,336.8"/>
		<path class="st71" d="M367.6,347.3C367.6,347.4,367.6,347.4,367.6,347.3c0,0.2,0.1,0.3,0.1,0.4
			C367.7,347.6,367.7,347.5,367.6,347.3"/>
		<path class="st40" d="M351.3,270.4c-0.1,0.6-0.3,1.3-0.4,1.9c-1,5.6-1.5,11.3-2,16.9c-0.5,6.7-1,13.4-0.2,20
			c1.5,12.5,8,22.3,15.3,32.2c1.4,1.9,2.8,3.8,3.6,5.9c0,0,0,0,0,0c-0.7-2-1.3-4-2-6c-0.7-1.5-1.4-3-1.9-4.5
			c-0.1-0.3-0.2-0.5-0.3-0.8c-0.1-0.3-0.2-0.7-0.2-1c-0.2-1.5-0.1-3.1-0.2-4.6l0,0c-0.4-8.7-3.8-17.2-3.8-25.7
			c0-1.3,0.1-2.6,0.3-3.9c0.5-3.4,5.6-17.5,7.8-23.4c-1.3-0.1-2.7-0.3-3.9-0.6c-3.3-0.8-6.3-2.4-9.1-4.3
			C352.7,271.5,351.4,270.6,351.3,270.4C351.4,270.4,351.4,270.4,351.3,270.4"/>
		<path class="st65" d="M357.3,376.4c1.2-1.7,2-3.6,3.3-5.3c1-1.4,9-8.9,9.6-10.8c0.4-1.3,0.1-3.7-0.3-4c-0.6-0.4-1.8-0.3-2.5-0.1
			c-3,0.8-5.5,2.9-7.6,5.3s-3.9,5-6.1,7.2c-2.1,2-8.5,5.6-5.9,10.3C350.1,383.1,355.5,379,357.3,376.4z"/>
		<path class="st41" d="M357.6,377.7c1.2-1.7,2-3.6,3.3-5.3c1-1.4,8.1-9.3,9.1-11c0.4-0.7,1-3.1-0.2-3.6c-0.7-0.3-1.3-0.4-2-0.2
			c-3,0.8-5.5,2.9-7.6,5.3c-2.1,2.4-3.9,5-6.1,7.2c-2.1,2-7.8,6-5.6,9.7C350.7,383.7,355.8,380.3,357.6,377.7z"/>
		<path class="st45" d="M341.6,267.8c-0.6-2.6,2.9-2.1,4.1-1.4c2,1.2,3.8,2.6,5.7,4c3.7,2.7,7.5,5.2,12,6.3
			c5.3,1.3,11.1,0.7,15.6-2.4c3.6-2.4,6.2-6.2,9.9-8.4c0.6-0.4,1.2-0.7,1.7-1.3c0.3-0.5,0.5-1,0.6-1.6c2.2-9.7-0.9-19.8-1-29.8
			c-0.2-14.3,5.5-28,7.9-42.1l-0.3-1.4c-1.2-2.6-3.5-4.6-6.2-5.7c-2.6-1.1-5.5-1.6-8.4-2.1c-5.8-0.9-12.1-1.4-18-1.2
			c-5.2,0.2-9.7,1.4-14.5,3c-1.7,0.9-3.4,2.6-4.4,4.2c-1.2,1.8-1.5,4-1.5,6.1c0,2.8,0,5.6-0.1,8.5c-0.1,3.4-0.1,6.8,0.1,10.1
			c0.1,2.1,0.3,4.1,0.3,6.2c-0.1,3.3-0.8,6.5-1.5,9.6C340.8,241.5,338.8,255,341.6,267.8"/>
		
			<linearGradient id="SVGID_8_" gradientUnits="userSpaceOnUse" x1="-482.5903" y1="1961.5585" x2="-481.5903" y2="1961.5585" gradientTransform="matrix(209.0508 -282.5291 -282.5291 -209.0508 655318.3125 274103.0625)">
			<stop  offset="0" style="stop-color:#9ED3D4"/>
			<stop  offset="0.1564" style="stop-color:#9ED3D4"/>
			<stop  offset="0.5192" style="stop-color:#C9E3D9"/>
			<stop  offset="0.8268" style="stop-color:#E8EEDC"/>
			<stop  offset="1" style="stop-color:#F3F2DD"/>
		</linearGradient>
		<path style="fill:url(#SVGID_8_);" d="M377.1,181.1l-0.6,0.1c2.3,0.2,4.5,0.5,6.6,0.8c2.6,0.4,5.3,0.9,7.8,1.8l0,0
			c-2.5-1-5.1-1.4-7.8-1.8C381.3,181.7,379.2,181.4,377.1,181.1"/>
		<path class="st73" d="M370.6,180.5c-1.3,0-2.5,0.1-3.7,0.3c0.4,0,0.7,0,1.1,0c2.8,0,5.7,0.1,8.6,0.4l0.6-0.1
			C374.9,180.8,372.7,180.5,370.6,180.5"/>
		<path class="st74" d="M379,274.4c-2.4,1.6-5.3,2.5-8.2,2.8C374,277,376.7,276,379,274.4 M379.1,274.4
			C379.1,274.4,379,274.4,379.1,274.4C379,274.4,379.1,274.4,379.1,274.4"/>
		<path class="st75" d="M351.4,270.4c0,0.2,1.2,1,2.9,2.1C353.4,271.8,352.4,271.1,351.4,270.4L351.4,270.4"/>
		<path class="st49" d="M367.9,180.8c-0.4,0-0.7,0-1.1,0c-0.6,0.1-1.3,0.2-1.9,0.4c4.7,2.4,8.2,6.8,10.1,11.7
			c1.9,4.9,2.5,10.2,2.3,15.5c-0.3,8.4-3.5,16.7-7.6,24c-2.7,4.8-6.1,9.2-8.8,14c-4.3,7.4-8.6,15.5-9.6,24.1l0,0l0,0
			c1,0.7,1.9,1.4,2.9,2.1c2.4,1.4,5.7,3.2,7.4,3.7c2.5,0.8,4.9,1.2,7.2,1.2c0.7,0,1.3,0,1.9-0.1c2.9-0.3,5.7-1.2,8.2-2.8
			c0,0,0,0,0,0c0,0,0,0,0.1,0l0,0c3.6-2.4,6.2-6.2,9.9-8.4c0.6-0.4,1.2-0.7,1.7-1.3c0.3-0.5,0.5-1,0.6-1.6c0.6-2.5,0.8-5.1,0.8-7.7
			c0-7.3-1.7-14.7-1.8-22.1c0-0.2,0-0.4,0-0.7c0-14.1,5.5-27.5,7.9-41.5l-0.3-1.4c-1.2-2.6-3.5-4.6-6.2-5.7
			c-0.2-0.1-0.4-0.2-0.6-0.2c-2.5-1-5.1-1.4-7.8-1.8c-2.2-0.3-4.4-0.6-6.6-0.8C373.6,181,370.7,180.8,367.9,180.8"/>
		<path class="st76" d="M344.6,237.6c1.1-3.6,1.7-7.7,0-11.1l-4.7-1.9c-3.8,3.5-5.5,8.8-6.2,14c-0.7,5.2-0.5,10.4-1.4,15.5
			c-1.2,6.3-4,12.3-4,18.7c0,1.2-0.1,2.6,0.7,3.4c1.5,1.5,1.6,1.8,3,1.4c1.3,0.6,3,1.8,4.6,1.9c0.4-0.3-0.2-1.6-0.6-1.8
			c0.8-0.2,1.4-0.7,1.9-1.5c0.2-0.4,0.3-0.8,0.3-1.2c0.2-1.7,0.5-3.5,0.7-5.2c0.2-1.1,0.3-2.3,0.2-3.4c-0.3-2.1-1.6-4-1.9-6.1
			c-0.4-2.2,0.4-4.4,1.2-6.5C340.3,248.4,343,243.1,344.6,237.6z M337.1,275.6c0,0-2.6-1.3-3.1-2.2c-0.1-0.1-0.1-0.2-0.1-0.3
			c0-0.1,0-0.3,0.1-0.4c0.4-0.7,0.7-1.5,1.1-2.2c0.1-0.2,0.3-0.5,0.5-0.4c0.1,0,0.2,0.1,0.3,0.1C336.9,271,336.3,273.4,337.1,275.6z
			"/>
		<path class="st67" d="M344.6,237.6c1-3.3,1.4-6.5,0-9.7c-0.1-0.3-0.3-0.6-0.6-0.8c-0.6-0.5-1.5-0.3-2,0.3s-0.7,1.3-0.8,2
			c-0.4,2.2-0.1,4.4-0.3,6.7c-0.4,4.3-2.4,8.2-4,12.1c-1.6,4-3,8.3-1.9,12.5c0.4,1.5,1,2.9,1.5,4.3c1.1,2.9,1.5,6,1.3,9.1
			c0.9-2.2,1.5-5.1,1.2-7.5c-0.3-2.1-1.6-4-1.9-6.1c-0.4-2.2,0.4-4.4,1.2-6.5C340.3,248.4,343,243.1,344.6,237.6z"/>
		<path class="st45" d="M343.3,191.2c-0.2,0.3-0.3,0.6-0.5,0.9c-4.1,8.9-3.7,19.5-7.2,28.7c-1.7,4.5-4.4,8.9-3.7,13.7
			c2.2,1.2,4.5,2.4,7,2.9c2.5,0.4,5.3,0,7.1-1.8c0.2,0.3,0.5,0.6,0.7,1c1.5-6.1,3.4-12.3,4.2-18.5c0.8-6,0.5-11.4-0.3-17.4
			c-0.8-5.8-1.3-12.1,1.5-17.3C348.2,184.5,345.2,187.6,343.3,191.2z"/>
		<path class="st77" d="M363.5,177.9c5,0.4,10.1,0.3,15.1-0.4c0.8,1.5,1.5,3,2.1,4.5c-2.9,1.6-6.3,2.1-9.7,1.9
			c-2.5-0.2-5-0.8-7.4-1.6c-1.2-0.4-2-0.3-1.8-1.6C361.9,180.2,363,177.8,363.5,177.9z"/>
		<path class="st37" d="M363.6,161c0.6,0.6,1,1.1,1.3,2.3c0.3,1.4,0.3,2.9,0.8,4.3c0.6,1.6,1.8,3,3.4,3.7c0.8,0.3,1.6,0.5,2.4,0.3
			c0.5-0.1,0.9-0.4,1.4-0.6c0.5-0.1,1-0.1,1.5-0.1c0.5,0,1,0,1.5-0.1c1.3-0.4,2.1-1.6,2.5-2.9c0.4-1.3,0.5-2.6,1-3.9
			c0.6-1.4,1.7-2.6,2.4-4c0.9-1.7,1.2-3.6,1-5.5c-0.2-1.8,0.1-3.6,0.2-5.4c0.1-1.8,0.1-3.6-0.5-5.3c-0.6-1.7-2.1-3.1-3.8-3.4
			c-0.6-0.1-1.3,0-1.9-0.3c-0.8-0.3-1-1.1-1.6-1.6c-0.4-0.3-1.1-0.5-1.6-0.7c-1.6-0.6-3.2-0.9-4.9-0.8c-2.3,0.2-4.1,1.8-6.3,2.4
			c-2.7,0.8-5.4,0.5-8.2,0.1c-0.6-0.1-1.2-0.1-1.8-0.1c-0.7,0.1-1.4,0.4-2.1,0.8c-1.1,0.7-1.9,1.6-2.5,2.7c-1.4,2.7-1.4,6.1,0.8,8.4
			c0.7,0.7,1.6,1.3,2,2.2c0.3,0.8,0.2,1.8,0.8,2.5c0.7,0.9,2.1,0.7,3.3,0.8c0.8,0.1,1.9,0.4,2.5,1c0.5,0.5,0.7,1.4,1.1,2
			c0.2,0.3,0.4,0.5,0.7,0.5c0.6,0.1,0.9-0.5,1.1-1c0.2-0.6,0.5-1.1,1.3-1c0.9,0.2,1,1.2,1.5,1.8C363.2,160.6,363.4,160.8,363.6,161"
			/>
		<path class="st78" d="M354.2,143c-0.2,0-0.5,0-0.8,0.1c-2.2,0.5-2.7,4.3-2.3,6c0.4,1.8,1.7,3.5,3.4,4.2c0.5,0.2,1.1,0.4,1.5,0.7
			c1,0.7,1.2,2.2,2.2,2.9c0.9,0.6,2.1,0.5,3.1,0.7c1.6,0.3,3.1,1.3,3.9,2.7c0.9,1.5,1.1,3.2,1.7,4.9c0.6,1.6,1.7,3.3,3.4,3.4
			c0.1,0,0.2,0,0.3,0c0.5,0,1-0.1,1.5-0.3c1.1-0.3,2.1-0.8,2.9-1.6c1.1-1.1,1.4-2.7,2.2-4c0.5-0.9,1.3-1.8,1.8-2.8
			c0.6-1.2,0.7-2.6,0.8-3.9c0.1-2.1,0.2-4.1,0.2-6.2c0-0.8-0.1-1.7-0.8-2.1c-0.2-0.1-0.4-0.1-0.6-0.1c-0.6,0-1.2,0.4-1.5,1
			c-0.4,0.7-0.4,1.6-0.5,2.4c-0.1,2-0.7,4-1.5,5.8c-0.3,0.7-0.7,1.4-1.3,1.9c-0.5,0.4-1.2,0.6-1.9,0.6c-1.1,0-2.1-0.5-2.8-1.3
			c-0.5-0.6-0.8-1.4-1.1-2.1c-0.9-2.2-2.5-4.4-4.7-5.3c-1.1-0.4-2.3-0.5-3.5-0.7c-1.2-0.3-2.4-0.8-2.9-1.9
			C356.2,146.6,356.7,143,354.2,143"/>
		<path class="st67" d="M362.1,164.1c0.3,0.5,0.6,1,1,1.1c0.5,0.1,0.9-0.2,1.1-0.7c0.2-0.5,0.3-1,0.3-1.6c0-1.4-0.3-2.9-0.9-4.1
			c-0.2-0.4-0.4-0.8-0.7-1.1c-0.3-0.3-0.7-0.4-1.1-0.3c-0.4,0.1-0.8,0.6-0.9,1c-0.2,0.5-0.1,1-0.1,1.6"/>
		<path class="st64" d="M331.2,232c0,1,0,2,0,3c1.3-0.5,2.6,0.6,3.8,1.3c2.5,1.5,5.7,1.2,8.3,2.5c0.7,0.4,1.5,0.9,2.3,0.7
			c1-0.1,1.6-1.2,1.8-2.2s0-2,0.3-3c0.2-0.9,0.7-1.7,0.8-2.6c0.1-0.9-0.3-2-1.2-2.1c-0.3,0.5-1.1,0.4-1.6,0.3
			c-3.7-1-7.1-3.4-10.8-4.2c-1.3-0.3-2.4-0.2-3.1,1.1c-0.5,1,0.1,1.6,0,2.6C331.7,230.2,331.2,231,331.2,232z"/>
	</g>
</g>
</svg>
