<svg xmlns="http://www.w3.org/2000/svg" viewBox="0 0 24 24">
  <title>apis</title>
  <path
    fill-rule="evenodd"
    d="M6.41 7.101C6.852 4.162 9.464 2 12.5 2c2.31 0 4.24 1.216 5.262 3.113a4.478 4.478 0 014.321 4.478c0 1.969-1.02 3.11-2.03 3.737a5.576 5.576 0 01-1.975.742l-.011.002h-.006l-.065-.495.064.495a.5.5 0 01-.13-.991h.004l.022-.004.096-.018a4.575 4.575 0 001.474-.581c.784-.486 1.557-1.338 1.557-2.887 0-1.95-1.61-3.552-3.61-3.478a.5.5 0 01-.47-.286C16.188 4.11 14.53 3 12.5 3 9.778 3 7.51 5.047 7.352 7.691a.5.5 0 01-.601.46c-1.55-.324-3.001.855-3.001 2.436 0 .667.173 1.13.406 1.46.237.334.557.563.898.72.341.157.69.236.957.275a3.59 3.59 0 00.4.034H6.431l.007.5.008.5a.5.5 0 00-.015-1M6.41 7.102a3.489 3.489 0 00-3.66 3.486c0 .852.225 1.521.59 2.037.361.511.838.84 1.295 1.05.455.21.904.31 1.234.357a4.554 4.554 0 00.56.046h.016l-.007-.5"
    clip-rule="evenodd"
  />
  <path
    fill-rule="evenodd"
    d="M9.5 13.5a.5.5 0 01.5.5v7.5a.5.5 0 01-1 0V14a.5.5 0 01.5-.5z"
    clip-rule="evenodd"
  />
  <path
    fill-rule="evenodd"
    d="M6.646 18.646a.5.5 0 01.708 0L9.5 20.793l2.146-2.147a.5.5 0 01.708.708l-2.5 2.5a.5.5 0 01-.708 0l-2.5-2.5a.5.5 0 010-.708zM14.5 9.5a.5.5 0 01.5.5v8.333a.5.5 0 11-1 0V10a.5.5 0 01.5-.5z"
    clip-rule="evenodd"
  />
  <path
    fill-rule="evenodd"
    d="M14.146 9.646a.5.5 0 01.708 0l2.5 2.5a.5.5 0 01-.708.708L14.5 10.707l-2.146 2.147a.5.5 0 01-.708-.708l2.5-2.5z"
    clip-rule="evenodd"
  />
</svg>
