<svg xmlns="http://www.w3.org/2000/svg" viewBox="0 0 24 24">
  <title>media</title>
  <path
    fill-rule="evenodd"
    d="M2 2.5a.5.5 0 01.5-.5h6.333a.5.5 0 01.5.5v3H19a.5.5 0 01.5.5v2h2a.5.5 0 01.5.5V19c0 .732-.121 1.469-.485 2.037-.386.604-1.011.963-1.862.963H5c-.712 0-1.446-.308-2-.767-.553-.456-1-1.126-1-1.9V2.5zM7.051 21h12.602c.528 0 .827-.2 1.02-.502.215-.336.327-.85.327-1.498V9H7.667v10.333A2.63 2.63 0 017.05 21zM18.5 8H7.167a.5.5 0 00-.5.5v10.833C6.667 20.208 5.874 21 5 21c-.44 0-.956-.2-1.363-.537-.41-.34-.637-.752-.637-1.13V3h5.333v3a.5.5 0 00.5.5H18.5V8z"
    clip-rule="evenodd"
  />
  <path
    fill-rule="evenodd"
    d="M16.82 13.005a.5.5 0 01.385.288l2.084 4.583a.5.5 0 01-.456.707H10.5a.5.5 0 01-.384-.82l2.083-2.5a.5.5 0 01.608-.127l1.317.659 2.246-2.62a.5.5 0 01.45-.17zm-.2 1.416l-1.99 2.321a.5.5 0 01-.604.122l-1.312-.656-1.146 1.375h6.489l-1.438-3.162zM12.167 11.917a.75.75 0 100 1.5.75.75 0 000-1.5zm-1.75.75a1.75 1.75 0 113.5 0 1.75 1.75 0 01-3.5 0z"
    clip-rule="evenodd"
  />
</svg>
