<svg xmlns="http://www.w3.org/2000/svg" viewBox="0 0 24 24">
  <title>settings</title>
  <path
    fill-rule="evenodd"
    d="M10.25 2.417a.5.5 0 01.5-.5h2.5a.5.5 0 01.5.5v2.315c.284.072.598.158.908.256.315.1.642.218.933.356l1.653-1.653a.5.5 0 01.707 0L20.31 6.05a.5.5 0 010 .707l-1.653 1.651c.138.292.256.62.356.935.098.31.184.624.257.908h2.314a.5.5 0 01.5.5v2.5a.5.5 0 01-.5.5H19.27a16.63 16.63 0 01-.257.908c-.1.316-.218.642-.356.934l1.653 1.653a.5.5 0 010 .707l-2.357 2.357a.5.5 0 01-.707 0l-1.654-1.652a7.695 7.695 0 01-.933.355c-.31.099-.624.185-.908.257v2.314a.5.5 0 01-.5.5h-2.5a.5.5 0 01-.5-.5V19.27a16.74 16.74 0 01-.908-.257 7.684 7.684 0 01-.935-.356l-1.652 1.652a.5.5 0 01-.707 0l-2.357-2.356a.5.5 0 010-.707l1.653-1.653a7.71 7.71 0 01-.356-.934 16.72 16.72 0 01-.257-.908H2.417a.5.5 0 01-.5-.5v-2.5a.5.5 0 01.5-.5H4.73c.072-.284.158-.598.257-.908.1-.316.218-.642.355-.934L3.691 6.756a.5.5 0 010-.707L6.048 3.69a.5.5 0 01.707 0l1.653 1.653c.292-.138.619-.256.934-.356.31-.098.624-.184.908-.256V2.417zm1 .5v2.206a.5.5 0 01-.383.486 18.32 18.32 0 00-1.223.332c-.43.137-.812.288-1.068.444a.5.5 0 01-.614-.073l-1.56-1.56-1.65 1.65 1.56 1.56a.5.5 0 01.073.614c-.156.256-.307.637-.444 1.069-.135.424-.247.864-.333 1.223a.5.5 0 01-.486.382H2.917v1.5h2.205a.5.5 0 01.486.382c.086.359.198.8.333 1.223.137.432.288.813.444 1.069a.5.5 0 01-.073.614l-1.56 1.56 1.65 1.65 1.56-1.56a.5.5 0 01.614-.073c.256.156.637.307 1.069.444.424.135.864.246 1.223.333a.5.5 0 01.382.486v2.205h1.5v-2.205a.5.5 0 01.382-.486 18.38 18.38 0 001.223-.333c.431-.137.812-.288 1.067-.444a.5.5 0 01.615.073l1.561 1.56 1.65-1.65-1.56-1.56a.5.5 0 01-.073-.614c.156-.256.307-.637.444-1.069.135-.424.247-.864.333-1.223a.5.5 0 01.486-.382h2.205v-1.5h-2.205a.5.5 0 01-.487-.383 18.199 18.199 0 00-.332-1.223c-.137-.43-.288-.813-.444-1.069a.5.5 0 01.073-.614l1.56-1.559-1.65-1.65-1.561 1.56a.5.5 0 01-.614.073c-.256-.156-.637-.307-1.068-.444a18.27 18.27 0 00-1.222-.332.5.5 0 01-.383-.486V2.917h-1.5z"
    clip-rule="evenodd"
  />
  <path
    fill-rule="evenodd"
    d="M12 8.75a3.25 3.25 0 100 6.5 3.25 3.25 0 000-6.5zM7.75 12a4.25 4.25 0 118.5 0 4.25 4.25 0 01-8.5 0z"
    clip-rule="evenodd"
  />
</svg>
