<svg viewBox="0 0 24 24" fill="none" xmlns="http://www.w3.org/2000/svg"><path fill-rule="evenodd" clip-rule="evenodd" d="M2 6.47c0-.26.187-.47.417-.47H8.25c.23 0 .417.21.417.47s-.187.471-.417.471H2.833V21.06h18.334V6.94H15.75c-.23 0-.417-.21-.417-.47S15.52 6 15.75 6h5.833c.23 0 .417.21.417.47v15.06c0 .26-.187.47-.417.47H2.417c-.23 0-.417-.21-.417-.47V6.47z" fill="#0EB87F"/><path fill-rule="evenodd" clip-rule="evenodd" d="M2 10.417c0-.23.187-.417.417-.417h19.166a.417.417 0 110 .833H2.417A.417.417 0 012 10.417zM12 14.083c0-.23.187-.416.417-.416h3.333a.417.417 0 110 .833h-3.333a.417.417 0 01-.417-.417zM12 15.75c0-.23.187-.417.417-.417h5a.417.417 0 010 .834h-5A.417.417 0 0112 15.75zM12 17.417c0-.23.187-.417.417-.417h4.166a.417.417 0 110 .833h-4.166a.417.417 0 01-.417-.416z" fill="#0EB87F"/><path d="M12 2.25c-1.15 0-2.083.933-2.083 2.083v3.75h4.166v-3.75c0-1.15-.932-2.083-2.083-2.083z" fill="#F4FFFB"/><path fill-rule="evenodd" clip-rule="evenodd" d="M9.5 4.5a2.5 2.5 0 115 0v3.75c0 .23-.187.417-.417.417H9.917A.417.417 0 019.5 8.25V4.5zM12 2.833c-.92 0-1.667.746-1.667 1.667v3.333h3.334V4.5c0-.92-.746-1.667-1.667-1.667z" fill="#0EB87F"/><path d="M7.833 15.75a1.25 1.25 0 100-2.5 1.25 1.25 0 000 2.5z" fill="#F4FFFB"/><path fill-rule="evenodd" clip-rule="evenodd" d="M7.833 13.667a.833.833 0 100 1.666.833.833 0 000-1.666zm-1.666.833a1.667 1.667 0 113.333 0 1.667 1.667 0 01-3.333 0z" fill="#0EB87F"/><path d="M9.917 18.25H5.75c0-1.38.933-2.5 2.083-2.5 1.151 0 2.084 1.12 2.084 2.5z" fill="#F4FFFB"/><path fill-rule="evenodd" clip-rule="evenodd" d="M6.2 17.833h3.267c-.16-.998-.881-1.666-1.634-1.666-.752 0-1.474.668-1.634 1.666zm-.867.417c0-1.537 1.051-2.917 2.5-2.917 1.45 0 2.5 1.38 2.5 2.917 0 .23-.186.417-.416.417H5.75a.417.417 0 01-.417-.417z" fill="#0EB87F"/></svg>