<svg viewBox="0 0 24 24" fill="none" xmlns="http://www.w3.org/2000/svg">
  <path d="M21.583 6H19.5V4.5c0-.25-.208-.5-.417-.5H8.667V2.5c0-.25-.209-.5-.417-.5H2.417C2.208 2 2 2.25 2 2.5V19c0 1.65 1.125 3 2.5 3h14.583C20.708 22 22 20.45 22 18.5v-12c0-.25-.208-.5-.417-.5zm-15.416.5V19c0 1.1-.75 2-1.667 2S3 20.1 3 19V3h4.833v1.5c0 .25.209.5.417.5h10.417v1H6.583c-.208 0-.416.25-.416.5zm15 12c0 1.4-.917 2.5-2.084 2.5H6.375c.417-.55.625-1.25.625-2V7h14.167v11.5z" fill="#0EB87F"/>
  <path d="M19 5.043v1H6.79c-.211 0-.422.25-.422.5v12.5c0 1.1-.757 2-1.684 2-1.184 0-1.684-.9-1.684-2v-16h5.053v1.5c0 .25.21.5.42.5H19z" fill="#F4FFFB"/>
</svg>