<svg viewBox="0 0 24 24" fill="none" xmlns="http://www.w3.org/2000/svg">
  <path fill-rule="evenodd" clip-rule="evenodd" d="M0 12a6 6 0 016-6 5.995 5.995 0 015.652 4H19a.5.5 0 01.354.146l1.5 1.5a.5.5 0 010 .708l-1.5 1.5A.5.5 0 0119 14h-1.293l-.853.854a.5.5 0 01-.708 0L15.293 14h-.586l-.853.854a.5.5 0 01-.708 0L12.293 14h-.64A5.996 5.996 0 010 12zm6-5a5 5 0 000 10 4.998 4.998 0 004.806-3.636.5.5 0 01.481-.364H12.5a.5.5 0 01.354.146l.646.647.646-.647A.5.5 0 0114.5 13h1a.5.5 0 01.354.146l.646.647.646-.647A.5.5 0 0117.5 13h1.293l1-1-1-1h-7.506a.5.5 0 01-.481-.364A4.996 4.996 0 006 7z" />
  <path fill-rule="evenodd" clip-rule="evenodd" d="M4 11a1 1 0 100 2 1 1 0 000-2zm-2 1a2 2 0 114 0 2 2 0 01-4 0zM10 1.5a.5.5 0 01.5-.5h13a.5.5 0 01.5.5v21a.5.5 0 01-.5.5h-13a.5.5 0 01-.5-.5v-2.979a.5.5 0 011 0V22h12V2H11v3a.5.5 0 01-1 0V1.5z" />
</svg>