<svg xmlns="http://www.w3.org/2000/svg" width="29" height="29" viewBox="0 0 29 29"><g fill="none" transform="translate(4 3)"><path fill="#FAE501" d="M7.024 16.725c-1.23-1.2-1.955-2.85-1.955-4.725 0-1.875.723-3.525 1.882-4.725 1.014-1.05 1.014-2.7 0-3.75-1.014-1.05-2.607-1.05-3.62 0C1.3 5.7 0 8.7 0 12s1.303 6.3 3.403 8.475c1.014 1.05 2.607 1.05 3.62 0 .943-1.05.943-2.7 0-3.75z"/><path fill="#4FB5E1" d="M7.024 7.275C8.184 6 9.776 5.25 11.586 5.25c1.81 0 3.404.75 4.562 1.95 1.014 1.05 2.607 1.05 3.62 0 1.015-1.05 1.015-2.7 0-3.75C17.67 1.35 14.773 0 11.587 0S5.503 1.35 3.403 3.525c-1.013 1.05-1.013 2.7 0 3.75 1.014.975 2.607.975 3.62 0z"/><path fill="#F05751" d="M16.148 16.725C14.99 18 13.398 18.75 11.586 18.75c-1.81 0-3.403-.75-4.562-1.95-1.014-1.05-2.607-1.05-3.62 0-1.014 1.05-1.014 2.7 0 3.75C5.503 22.65 8.4 24 11.585 24s6.083-1.35 8.183-3.525c1.013-1.05 1.013-2.7 0-3.75-1.015-.975-2.608-.975-3.622 0z"/><ellipse cx="5.214" cy="5.4" fill="#0681B6" rx="2.534" ry="2.625"/><ellipse cx="5.214" cy="18.6" fill="#CD4739" rx="2.534" ry="2.625"/></g></svg>