<svg xmlns="http://www.w3.org/2000/svg" width="18" height="18" viewBox="0 0 18 18" xmlns:xlink="http://www.w3.org/1999/xlink">
  <defs>
    <rect id="a" width="16" height="15.59" y=".2" rx="2"/>
    <mask id="c" width="16" height="15.59" x="0" y="0" fill="white">
      <use xlink:href="#a"/>
    </mask>
    <path id="b" d="M2,4.56713867 L2,3.9974074 C2,2.89426975 2.89494724,2 4.00364246,2 L15.4807129,2 L15.9905282,2 C17.1003288,2 18,2.89451376 18,3.99406028 L18,16.0059397 C18,17.1072288 17.0998457,18 16.0058288,18 L15.6498108,18"/>
    <mask id="d" width="16" height="16" x="0" y="0" fill="white">
      <use xlink:href="#b"/>
    </mask>
  </defs>
  <g fill="none" fill-rule="evenodd" stroke="#A9B9C0">
    <use fill="#FFFFFF" fill-opacity="0" stroke-width="2" mask="url(#c)" xlink:href="#a"/>
    <polyline fill="none" points=".5 9.574 5.501 5.573 12.516 15.287" stroke-linecap="round" stroke-linejoin="round"/>
    <polyline fill="none" points="9.501 10.074 11.501 8.074 15.338 11.709" stroke-linecap="round" stroke-linejoin="round"/>
    <ellipse cx="10.251" cy="4.323" fill="none" rx="1.25" ry="1.25"/>
    <use stroke-width="2" mask="url(#d)" transform="rotate(90 10 10)" xlink:href="#b"/>
  </g>
</svg>
