<svg xmlns="http://www.w3.org/2000/svg" width="26" height="6" viewBox="0 0 26 6">
  <path fill="#8091A5" fill-rule="evenodd" d="M67,106 C68.6568542,106 70,104.656854 70,103 C70,101.343146 68.6568542,100 67,100 C65.3431458,100 64,101.343146 64,103 C64,104.656854 65.3431458,106 67,106 Z M77,106 C78.6568542,106 80,104.656854 80,103 C80,101.343146 78.6568542,100 77,100 C75.3431458,100 74,101.343146 74,103 C74,104.656854 75.3431458,106 77,106 Z M87,106 C88.6568542,106 90,104.656854 90,103 C90,101.343146 88.6568542,100 87,100 C85.3431458,100 84,101.343146 84,103 C84,104.656854 85.3431458,106 87,106 Z" transform="translate(-64 -100)"/>
</svg>
