<svg xmlns="http://www.w3.org/2000/svg" width="18" height="18" viewBox="0 0 18 18" xmlns:xlink="http://www.w3.org/1999/xlink">
  <defs>
    <path id="a" d="M2,4.56713867 L2,3.9974074 C2,2.89426975 2.89494724,2 4.00364246,2 L15.4807129,2 L15.9905282,2 C17.1003288,2 18,2.89451376 18,3.99406028 L18,16.0059397 C18,17.1072288 17.0998457,18 16.0058288,18 L15.6498108,18"/>
    <mask id="c" width="16" height="16" x="0" y="0" fill="white">
      <use xlink:href="#a"/>
    </mask>
    <rect id="b" width="16" height="16" rx="2"/>
    <mask id="d" width="16" height="16" x="0" y="0" fill="white">
      <use xlink:href="#b"/>
    </mask>
  </defs>
  <g fill="none" fill-rule="evenodd" stroke="#A9B9C0">
    <use stroke-width="2" mask="url(#c)" transform="rotate(90 10 10)" xlink:href="#a"/>
    <use stroke-width="2" mask="url(#d)" xlink:href="#b"/>
    <path d="M3.70001221 4.20000458L12.2999878 4.20000458M3.70001221 6.90000153L12.2999878 6.90000153M3.70001221 9.59999847L12.2999878 9.59999847M3.70001221 12.0999985L10.1999512 12.0999985" stroke-linecap="round" stroke-linejoin="round"/>
  </g>
</svg>
