<svg xmlns="http://www.w3.org/2000/svg" width="16" height="16" viewBox="0 0 16 16" xmlns:xlink="http://www.w3.org/1999/xlink">
  <defs>
    <path id="a" d="M15,6.5 L13.7,6.2 C13.6,5.9 13.45,5.55 13.3,5.3 L14,4.15 C14.25,3.75 14.4,3.15 14,2.75 L13.35,2 C12.95,1.6 12.3,1.7 11.9,1.95 L10.75,2.65 C10.45,2.5 10.15,2.35 9.85,2.25 L9.55,1 C9.45,0.5 9.05,0 8.5,0 L7.5,0 C6.95,0 6.6,0.5 6.5,1 L6.2,2.3 C5.85,2.4 5.55,2.55 5.25,2.7 L4.05,1.95 C3.65,1.7 3,1.6 2.6,2 L1.9,2.7 C1.5,3.1 1.65,3.7 1.9,4.1 L2.65,5.3 C2.5,5.6 2.4,5.85 2.3,6.15 L1,6.5 C0.5,6.6 0,7 0,7.55 L0,8.55 C0,9.1 0.5,9.45 1,9.55 L2.3,9.85 C2.4,10.15 2.5,10.4 2.65,10.65 L1.9,11.85 C1.65,12.25 1.5,12.85 1.9,13.25 L2.6,14 C3,14.4 3.65,14.3 4.05,14.05 L5.2,13.3 C5.5,13.45 5.85,13.6 6.2,13.7 L6.5,15 C6.6,15.5 6.95,16 7.5,16 L8.5,16 C9.05,16 9.45,15.5 9.55,15 L9.85,13.7 C10.15,13.6 10.45,13.45 10.75,13.3 L11.9,14 C12.3,14.3 12.95,14.35 13.35,13.95 L14.05,13.25 C14.45,12.85 14.3,12.25 14.05,11.85 L13.35,10.7 C13.5,10.45 13.6,10.15 13.7,9.85 L15,9.55 C15.5,9.45 16,9.1 16,8.55 L16,7.55 C16,7 15.5,6.55 15,6.5 L15,6.5 L15,6.5 Z"/>
    <mask id="b" width="16" height="16" x="0" y="0" fill="white">
      <use xlink:href="#a"/>
    </mask>
  </defs>
  <g fill="none" fill-rule="evenodd" stroke="#A9B9C0">
    <path d="M7.90002441,10.5 C6.52502441,10.5 5.40002441,9.375 5.40002441,8 C5.40002441,6.625 6.52502441,5.5 7.90002441,5.5 C9.27502441,5.5 10.4000244,6.625 10.4000244,8 C10.4000244,9.375 9.27502441,10.5 7.90002441,10.5 L7.90002441,10.5 L7.90002441,10.5 Z"/>
    <use stroke-width="2" mask="url(#b)" xlink:href="#a"/>
  </g>
</svg>
