<svg xmlns="http://www.w3.org/2000/svg" width="18" height="18" viewBox="0 0 18 18">
  <path fill="none" stroke="#A9B9C0" d="M3.20250926,7.15524586 L1.23141472,8.35302414 C0.935542542,8.53281728 1.23141472,9.00393979 1.23141472,9.00393979 L8.46918832,13.4021297 C8.74612171,13.5704142 9.18392516,13.5811443 9.48138872,13.4344373 C9.18381237,13.5861405 8.7395574,13.5770063 8.45964827,13.4069134 L3.23975884,10.2349346 L1.13149875,11.5160645 C0.835626566,11.6958576 1.13149875,12.1669801 1.13149875,12.1669801 L8.36927235,16.56517 C8.66514453,16.7449631 9.14464215,16.7449154 9.44043575,16.56517 L16.6782094,12.1669801 C16.9740815,11.987187 16.974003,11.6958099 16.6782094,11.5160645 L14.6611591,10.2903602 L16.7781253,9.00393979 C17.0739975,8.82414665 17.0739189,8.53276954 16.7781253,8.35302414 L14.7974404,7.14941806 L16.7685853,5.93890617 C17.0644575,5.75720629 17.0643789,5.46273905 16.7685853,5.28108742 L9.53081168,0.836253767 C9.2349395,0.654553883 8.75544188,0.654602136 8.45964827,0.836253767 L1.22187467,5.28108742 C0.926002491,5.46278731 0.926081064,5.75725454 1.22187467,5.93890617 L3.20250926,7.15524586 Z M14.6611591,10.2903602 L14.6603252,10.2898535 L9.53081168,13.4069134 C9.51485287,13.4166112 9.49835932,13.4257858 9.48138872,13.4344373 C9.50173152,13.4244044 9.52141797,13.4136352 9.54035173,13.4021297 L14.6611591,10.2903602 Z M3.20250926,7.15524586 L3.2048726,7.15380973 L8.45964827,10.346988 C8.75552045,10.5267811 9.23501807,10.5267334 9.53081168,10.346988 L14.7951274,7.14801251 L14.7974404,7.14941806 L9.53081168,10.3837398 C9.23501807,10.5653915 8.75552045,10.5654397 8.45964827,10.3837398 L3.20250926,7.15524586 Z"/>
</svg>
