<?xml version="1.0" encoding="UTF-8" standalone="no"?>
<svg width="16px" height="17px" viewBox="0 0 16 17" version="1.1" xmlns="http://www.w3.org/2000/svg" xmlns:xlink="http://www.w3.org/1999/xlink">
    <!-- Generator: Sketch 3.7.2 (28276) - http://www.bohemiancoding.com/sketch -->
    <g id="Widgets" stroke="none" stroke-width="1" fill="none" fill-rule="evenodd">
        <g id="date" fill="#536171">
            <path d="M2.07142857,14.9285714 L2.07142857,12.5178571 L4.48214286,12.5178571 L4.48214286,14.9285714 L2.07142857,14.9285714 Z M5.01785714,14.9285714 L5.01785714,12.5178571 L7.69642857,12.5178571 L7.69642857,14.9285714 L5.01785714,14.9285714 Z M2.07142857,11.9821429 L2.07142857,9.30357143 L4.48214286,9.30357143 L4.48214286,11.9821429 L2.07142857,11.9821429 Z M5.01785714,11.9821429 L5.01785714,9.30357143 L7.69642857,9.30357143 L7.69642857,11.9821429 L5.01785714,11.9821429 Z M2.07142857,8.76785714 L2.07142857,6.35714286 L4.48214286,6.35714286 L4.48214286,8.76785714 L2.07142857,8.76785714 Z M8.23214286,14.9285714 L8.23214286,12.5178571 L10.9107143,12.5178571 L10.9107143,14.9285714 L8.23214286,14.9285714 Z M5.01785714,8.76785714 L5.01785714,6.35714286 L7.69642857,6.35714286 L7.69642857,8.76785714 L5.01785714,8.76785714 Z M11.4464286,14.9285714 L11.4464286,12.5178571 L13.8571429,12.5178571 L13.8571429,14.9285714 L11.4464286,14.9285714 Z M8.23214286,11.9821429 L8.23214286,9.30357143 L10.9107143,9.30357143 L10.9107143,11.9821429 L8.23214286,11.9821429 Z M5.28571429,4.75 C5.28571429,4.89229911 5.16015625,5.01785714 5.01785714,5.01785714 L4.48214286,5.01785714 C4.33984375,5.01785714 4.21428571,4.89229911 4.21428571,4.75 L4.21428571,2.33928571 C4.21428571,2.19698661 4.33984375,2.07142857 4.48214286,2.07142857 L5.01785714,2.07142857 C5.16015625,2.07142857 5.28571429,2.19698661 5.28571429,2.33928571 L5.28571429,4.75 Z M11.4464286,11.9821429 L11.4464286,9.30357143 L13.8571429,9.30357143 L13.8571429,11.9821429 L11.4464286,11.9821429 Z M8.23214286,8.76785714 L8.23214286,6.35714286 L10.9107143,6.35714286 L10.9107143,8.76785714 L8.23214286,8.76785714 Z M11.4464286,8.76785714 L11.4464286,6.35714286 L13.8571429,6.35714286 L13.8571429,8.76785714 L11.4464286,8.76785714 Z M11.7142857,4.75 C11.7142857,4.89229911 11.5887277,5.01785714 11.4464286,5.01785714 L10.9107143,5.01785714 C10.7684152,5.01785714 10.6428571,4.89229911 10.6428571,4.75 L10.6428571,2.33928571 C10.6428571,2.19698661 10.7684152,2.07142857 10.9107143,2.07142857 L11.4464286,2.07142857 C11.5887277,2.07142857 11.7142857,2.19698661 11.7142857,2.33928571 L11.7142857,4.75 Z M14.9285714,4.21428571 C14.9285714,3.62834821 14.4430804,3.14285714 13.8571429,3.14285714 L12.7857143,3.14285714 L12.7857143,2.33928571 C12.7857143,1.60267857 12.1830357,1 11.4464286,1 L10.9107143,1 C10.1741071,1 9.57142857,1.60267857 9.57142857,2.33928571 L9.57142857,3.14285714 L6.35714286,3.14285714 L6.35714286,2.33928571 C6.35714286,1.60267857 5.75446429,1 5.01785714,1 L4.48214286,1 C3.74553571,1 3.14285714,1.60267857 3.14285714,2.33928571 L3.14285714,3.14285714 L2.07142857,3.14285714 C1.48549107,3.14285714 1,3.62834821 1,4.21428571 L1,14.9285714 C1,15.5145089 1.48549107,16 2.07142857,16 L13.8571429,16 C14.4430804,16 14.9285714,15.5145089 14.9285714,14.9285714 L14.9285714,4.21428571 Z" id="ï³-copy"></path>
        </g>
    </g>
</svg>
