<?xml version="1.0" encoding="UTF-8" standalone="no"?>
<svg
   xmlns:dc="http://purl.org/dc/elements/1.1/"
   xmlns:cc="http://creativecommons.org/ns#"
   xmlns:rdf="http://www.w3.org/1999/02/22-rdf-syntax-ns#"
   xmlns:svg="http://www.w3.org/2000/svg"
   xmlns="http://www.w3.org/2000/svg"
   id="svg4337"
   version="1.1"
   viewBox="0 0 63 40"
   height="40"
   width="63">
  <metadata
     id="metadata4368">
    <rdf:RDF>
      <cc:Work
         rdf:about="">
        <dc:format>image/svg+xml</dc:format>
        <dc:type
           rdf:resource="http://purl.org/dc/dcmitype/StillImage" />
        <dc:title>Group 3</dc:title>
      </cc:Work>
    </rdf:RDF>
  </metadata>
  <!-- Generator: Sketch 3.6.1 (26313) - http://www.bohemiancoding.com/sketch -->
  <title
     id="title4339">Group 3</title>
  <desc
     id="desc4341">Created with Sketch.</desc>
  <defs
     id="defs4343" />
  <g
     id="9---Field-preview-icons"
     transform="translate(-917,-528)"
     style="fill:none;fill-rule:evenodd;stroke:none;stroke-width:1">
    <g
       id="Group-Copy-2"
       transform="translate(899.42855,508.99245)">
      <g
         id="Group-3"
         transform="translate(18,17)">
        <g
           id="Breakfast"
           style="fill:#a3a9b2">
          <path
             id="path5480"
             style=""
             d="m 11.034,3.7717744 2.321,0 q 0.44,0 0.891,0.099 0.451,0.088 0.803,0.319 0.363,0.22 0.583,0.605 0.231,0.385 0.231,0.968 0,0.616 -0.374,1.078 -0.374,0.451 -1.001,0.594 l 0,0.022 q 0.759,0.088 1.254,0.594 0.506,0.495 0.506,1.353 0,0.484 -0.209,0.8909996 -0.198,0.396 -0.572,0.682 -0.374,0.275 -0.913,0.429 -0.539,0.154 -1.21,0.154 l -2.31,0 0,-7.7879996 z m 0.792,3.41 1.595,0 q 0.286,0 0.572,-0.066 0.297,-0.066 0.539,-0.22 0.242,-0.165 0.385,-0.429 0.154,-0.264 0.154,-0.649 0,-0.374 -0.154,-0.627 -0.143,-0.264 -0.396,-0.429 -0.253,-0.165 -0.594,-0.231 -0.341,-0.077 -0.726,-0.077 l -1.375,0 0,2.728 z m 0,3.6959996 1.474,0 q 0.429,0 0.814,-0.077 0.396,-0.088 0.682,-0.264 0.297,-0.187 0.473,-0.473 0.176,-0.2969996 0.176,-0.7039996 0,-0.77 -0.528,-1.144 -0.517,-0.385 -1.474,-0.385 l -1.617,0 0,3.0469996 z" />
          <path
             id="path5482"
             style=""
             d="m 17.993906,7.5447744 q 0,-0.209 -0.011,-0.539 -0.011,-0.33 -0.033,-0.594 l 0.715,0 q 0.022,0.209 0.033,0.462 0.011,0.253 0.011,0.418 l 0.022,0 q 0.22,-0.451 0.66,-0.726 0.44,-0.286 0.99,-0.286 0.143,0 0.253,0.011 0.121,0.011 0.242,0.044 l -0.099,0.704 q -0.066,-0.022 -0.22,-0.044 -0.154,-0.022 -0.308,-0.022 -0.297,0 -0.572,0.11 -0.275,0.11 -0.484,0.352 -0.198,0.231 -0.33,0.605 -0.121,0.363 -0.121,0.88 l 0,2.6399996 -0.748,0 0,-4.0149996 0,0 z" />
          <path
             id="path5484"
             style=""
             d="m 25.680672,8.5897744 q -0.033,-0.726 -0.473,-1.199 -0.429,-0.484 -1.232,-0.484 -0.374,0 -0.693,0.143 -0.319,0.132 -0.561,0.374 -0.242,0.231 -0.385,0.539 -0.143,0.297 -0.165,0.627 l 3.509,0 z m 0.759,0.242 q 0,0.077 0,0.165 0,0.088 -0.011,0.187 l -4.268,0 q 0.011,0.385 0.154,0.726 0.143,0.3409996 0.396,0.5939996 0.253,0.253 0.594,0.407 0.341,0.143 0.737,0.143 0.583,0 1.001,-0.264 0.429,-0.275 0.649,-0.627 l 0.561,0.44 q -0.462,0.583 -1.023,0.836 -0.55,0.253 -1.188,0.253 -0.572,0 -1.067,-0.198 -0.484,-0.209 -0.836,-0.572 -0.352,-0.363 -0.561,-0.858 -0.198,-0.4949996 -0.198,-1.0779996 0,-0.583 0.198,-1.078 0.198,-0.495 0.55,-0.858 0.352,-0.363 0.825,-0.561 0.473,-0.209 1.023,-0.209 0.605,0 1.067,0.209 0.462,0.198 0.77,0.55 0.308,0.341 0.462,0.803 0.165,0.462 0.165,0.99 z" />
          <path
             id="path5486"
             style=""
             d="m 31.229141,8.2377744 q 0,-0.671 -0.352,-1.001 -0.352,-0.33 -1.023,-0.33 -0.462,0 -0.858,0.165 -0.396,0.165 -0.671,0.44 l -0.418,-0.495 q 0.319,-0.319 0.836,-0.528 0.528,-0.209 1.188,-0.209 0.418,0 0.781,0.121 0.363,0.11 0.638,0.341 0.275,0.231 0.429,0.583 0.154,0.352 0.154,0.825 l 0,2.2549996 q 0,0.297 0.022,0.616 0.022,0.319 0.066,0.539 l -0.671,0 q -0.033,-0.187 -0.055,-0.407 -0.022,-0.22 -0.022,-0.429 l -0.022,0 q -0.352,0.517 -0.803,0.748 -0.44,0.22 -1.067,0.22 -0.297,0 -0.616,-0.088 -0.308,-0.077 -0.572,-0.264 -0.253,-0.187 -0.429,-0.484 -0.165,-0.297 -0.165,-0.726 0,-0.5939996 0.297,-0.9349996 0.308,-0.352 0.814,-0.517 0.506,-0.176 1.155,-0.22 0.66,-0.055 1.364,-0.055 l 0,-0.165 z m -0.22,0.748 q -0.462,0 -0.935,0.044 -0.462,0.033 -0.847,0.154 -0.374,0.11 -0.616,0.33 -0.242,0.22 -0.242,0.5829996 0,0.275 0.099,0.462 0.11,0.187 0.286,0.308 0.176,0.11 0.385,0.165 0.22,0.044 0.44,0.044 0.396,0 0.704,-0.132 0.308,-0.143 0.517,-0.374 0.209,-0.242 0.319,-0.55 0.11,-0.3079996 0.11,-0.6489996 l 0,-0.385 -0.22,0 z" />
          <path
             id="path5488"
             style=""
             d="m 34.619375,8.7327744 0.033,0 2.376,-2.321 1.078,0 -2.596,2.354 2.86,2.7939996 -1.1,0 -2.618,-2.7059996 -0.033,0 0,2.7059996 -0.748,0 0,-8.3159996 0.748,0 0,5.489 z" />
          <path
             id="path5490"
             style=""
             d="m 41.634797,7.0387744 -1.21,0 0,4.5209996 -0.748,0 0,-4.5209996 -1.078,0 0,-0.627 1.078,0 0,-1.408 q 0,-0.88 0.429,-1.386 0.429,-0.506 1.32,-0.506 0.143,0 0.308,0.022 0.165,0.011 0.308,0.055 l -0.132,0.66 q -0.121,-0.033 -0.242,-0.055 -0.121,-0.022 -0.275,-0.022 -0.297,0 -0.495,0.099 -0.187,0.099 -0.297,0.286 -0.099,0.176 -0.143,0.418 -0.033,0.242 -0.033,0.517 l 0,1.32 1.21,0 0,0.627 z" />
          <path
             id="path5492"
             style=""
             d="m 45.945937,8.2377744 q 0,-0.671 -0.351999,-1.001 -0.352001,-0.33 -1.023001,-0.33 -0.461999,0 -0.857999,0.165 -0.396,0.165 -0.671,0.44 l -0.418001,-0.495 q 0.319,-0.319 0.836001,-0.528 0.527999,-0.209 1.187999,-0.209 0.418,0 0.781001,0.121 0.363,0.11 0.638,0.341 0.274999,0.231 0.428999,0.583 0.154,0.352 0.154,0.825 l 0,2.2549996 q 0,0.297 0.022,0.616 0.022,0.319 0.066,0.539 l -0.670999,0 q -0.033,-0.187 -0.055,-0.407 -0.022,-0.22 -0.022,-0.429 l -0.022,0 q -0.352,0.517 -0.803,0.748 -0.439999,0.22 -1.067,0.22 -0.296999,0 -0.616,-0.088 -0.308,-0.077 -0.572,-0.264 -0.253,-0.187 -0.428999,-0.484 -0.165001,-0.297 -0.165001,-0.726 0,-0.5939996 0.297,-0.9349996 0.308,-0.352 0.814,-0.517 0.506001,-0.176 1.155001,-0.22 0.659999,-0.055 1.363999,-0.055 l 0,-0.165 z m -0.22,0.748 q -0.462,0 -0.935,0.044 -0.461999,0.033 -0.847,0.154 -0.373999,0.11 -0.616,0.33 -0.242,0.22 -0.242,0.5829996 0,0.275 0.099,0.462 0.11,0.187 0.285999,0.308 0.176,0.11 0.385001,0.165 0.22,0.044 0.439999,0.044 0.396001,0 0.704001,-0.132 0.308,-0.143 0.516999,-0.374 0.209,-0.242 0.319,-0.55 0.11,-0.3079996 0.11,-0.6489996 l 0,-0.385 -0.22,0 z" />
          <path
             id="path5494"
             style=""
             d="m 51.305172,7.6327744 q -0.165,-0.319 -0.506,-0.517 -0.33,-0.209 -0.759,-0.209 -0.198,0 -0.396,0.044 -0.198,0.044 -0.352,0.143 -0.154,0.099 -0.253,0.253 -0.088,0.154 -0.088,0.363 0,0.363 0.297,0.561 0.297,0.187 0.935,0.319 0.913,0.187 1.342,0.55 0.44,0.352 0.44,0.9569996 0,0.44 -0.176,0.748 -0.165,0.297 -0.44,0.495 -0.275,0.187 -0.627,0.264 -0.341,0.088 -0.693,0.088 -0.583,0 -1.133,-0.242 -0.55,-0.242 -0.902,-0.759 l 0.594,-0.44 q 0.198,0.341 0.583,0.572 0.385,0.231 0.847,0.231 0.242,0 0.462,-0.044 0.22,-0.044 0.385,-0.154 0.165,-0.11 0.264,-0.275 0.099,-0.176 0.099,-0.429 0,-0.4069996 -0.396,-0.6049996 -0.385,-0.209 -1.122,-0.385 -0.231,-0.055 -0.495,-0.132 -0.253,-0.088 -0.473,-0.242 -0.22,-0.165 -0.363,-0.407 -0.143,-0.242 -0.143,-0.605 0,-0.396 0.154,-0.671 0.154,-0.286 0.407,-0.462 0.264,-0.187 0.594,-0.275 0.33,-0.088 0.682,-0.088 0.539,0 1.045,0.242 0.506,0.242 0.759,0.682 l -0.572,0.429 z" />
          <path
             id="path5496"
             style=""
             d="m 55.764125,7.0387744 -1.452,0 0,3.0029996 q 0,0.286 0.055,0.473 0.055,0.187 0.154,0.297 0.11,0.099 0.253,0.143 0.143,0.033 0.308,0.033 0.154,0 0.319,-0.044 0.176,-0.044 0.33,-0.121 l 0.033,0.649 q -0.198,0.077 -0.418,0.11 -0.209,0.044 -0.462,0.044 -0.209,0 -0.44,-0.055 -0.231,-0.055 -0.429,-0.209 -0.198,-0.154 -0.33,-0.418 -0.121,-0.264 -0.121,-0.693 l 0,-3.2119996 -1.067,0 0,-0.627 1.067,0 0,-1.452 0.748,0 0,1.452 1.452,0 0,0.627 z" />
          <path
             id="path5498"
             style=""
             d="m 11.826,25.855774 3.63,0 0,0.704 -4.422,0 0,-7.788 0.792,0 0,7.084 z" />
          <path
             id="path5500"
             style=""
             d="m 20.208516,26.559774 q -0.022,-0.209 -0.033,-0.462 -0.011,-0.253 -0.011,-0.418 l -0.022,0 q -0.22,0.451 -0.715,0.737 -0.495,0.275 -1.045,0.275 -0.979,0 -1.474,-0.583 -0.484,-0.583 -0.484,-1.54 l 0,-3.157 0.748,0 0,2.849 q 0,0.407 0.066,0.737 0.066,0.33 0.22,0.572 0.165,0.231 0.429,0.363 0.275,0.132 0.682,0.132 0.297,0 0.572,-0.121 0.286,-0.121 0.506,-0.363 0.22,-0.253 0.352,-0.627 0.132,-0.385 0.132,-0.902 l 0,-2.64 0.748,0 0,4.015 q 0,0.209 0.011,0.539 0.011,0.33 0.033,0.594 l -0.715,0 z" />
          <path
             id="path5502"
             style=""
             d="m 23.520375,21.411774 q 0.022,0.209 0.033,0.462 0.011,0.253 0.011,0.418 l 0.022,0 q 0.22,-0.451 0.715,-0.726 0.495,-0.286 1.045,-0.286 0.979,0 1.463,0.583 0.495,0.583 0.495,1.54 l 0,3.157 -0.748,0 0,-2.849 q 0,-0.407 -0.066,-0.737 -0.066,-0.33 -0.231,-0.561 -0.154,-0.242 -0.429,-0.374 -0.264,-0.132 -0.671,-0.132 -0.297,0 -0.583,0.121 -0.275,0.121 -0.495,0.374 -0.22,0.242 -0.352,0.627 -0.132,0.374 -0.132,0.891 l 0,2.64 -0.748,0 0,-4.015 q 0,-0.209 -0.011,-0.539 -0.011,-0.33 -0.033,-0.594 l 0.715,0 z" />
          <path
             id="path5504"
             style=""
             d="m 32.937234,22.588774 q -0.187,-0.297 -0.55,-0.484 -0.352,-0.198 -0.77,-0.198 -0.451,0 -0.814,0.165 -0.363,0.154 -0.627,0.44 -0.253,0.275 -0.396,0.66 -0.132,0.374 -0.132,0.814 0,0.44 0.132,0.814 0.143,0.374 0.396,0.66 0.253,0.275 0.616,0.44 0.363,0.154 0.814,0.154 0.495,0 0.836,-0.187 0.341,-0.187 0.561,-0.484 l 0.561,0.418 q -0.33,0.407 -0.814,0.649 -0.473,0.242 -1.144,0.242 -0.627,0 -1.133,-0.198 -0.506,-0.209 -0.869,-0.572 -0.352,-0.363 -0.55,-0.858 -0.198,-0.495 -0.198,-1.078 0,-0.583 0.198,-1.078 0.198,-0.495 0.55,-0.858 0.363,-0.363 0.869,-0.561 0.506,-0.209 1.133,-0.209 0.517,0 1.045,0.231 0.539,0.22 0.869,0.66 l -0.583,0.418 z" />
          <path
             id="path5506"
             style=""
             d="m 35.522234,22.258774 q 0.209,-0.451 0.693,-0.715 0.484,-0.264 1.034,-0.264 0.979,0 1.463,0.583 0.495,0.583 0.495,1.54 l 0,3.157 -0.748,0 0,-2.849 q 0,-0.407 -0.066,-0.737 -0.066,-0.33 -0.231,-0.561 -0.154,-0.242 -0.429,-0.374 -0.264,-0.132 -0.671,-0.132 -0.297,0 -0.583,0.121 -0.275,0.121 -0.495,0.374 -0.22,0.242 -0.352,0.627 -0.132,0.374 -0.132,0.891 l 0,2.64 -0.748,0 0,-8.316 0.748,0 0,4.015 0.022,0 z" />
          <path
             id="path5508"
             style=""
             d="m 11.034,33.771776 2.585,0 q 0.726,0 1.452,0.242 0.737,0.242 1.32,0.737 0.594,0.484 0.957,1.221 0.363,0.726 0.363,1.694 0,0.979 -0.363,1.705 -0.363,0.726 -0.957,1.221 -0.583,0.484 -1.32,0.726 -0.726,0.242 -1.452,0.242 l -2.585,0 0,-7.788 z m 0.792,7.084 1.573,0 q 0.88,0 1.529,-0.275 0.66,-0.275 1.089,-0.715 0.429,-0.451 0.638,-1.023 0.22,-0.572 0.22,-1.177 0,-0.605 -0.22,-1.177 -0.209,-0.572 -0.638,-1.012 -0.429,-0.451 -1.089,-0.726 -0.649,-0.275 -1.529,-0.275 l -1.573,0 0,6.38 z" />
          <path
             id="path5510"
             style=""
             d="m 20.084937,41.559776 -0.748,0 0,-5.148 0.748,0 0,5.148 z m 0.154,-7.128 q 0,0.231 -0.165,0.385 -0.165,0.143 -0.363,0.143 -0.198,0 -0.363,-0.143 -0.164999,-0.154 -0.164999,-0.385 0,-0.231 0.164999,-0.374 0.165,-0.154 0.363,-0.154 0.198,0 0.363,0.154 0.165,0.143 0.165,0.374 z" />
          <path
             id="path5512"
             style=""
             d="m 22.746938,36.411776 q 0.022,0.209 0.033,0.462 0.011,0.253 0.011,0.418 l 0.022,0 q 0.22,-0.451 0.715,-0.726 0.495,-0.286 1.045001,-0.286 0.978999,0 1.462999,0.583 0.495,0.583 0.495,1.54 l 0,3.157 -0.748,0 0,-2.849 q 0,-0.407 -0.066,-0.737 -0.066,-0.33 -0.231,-0.561 -0.153999,-0.242 -0.429,-0.374 -0.264,-0.132 -0.671,-0.132 -0.297,0 -0.583,0.121 -0.275,0.121 -0.494999,0.374 -0.220001,0.242 -0.352001,0.627 -0.132,0.374 -0.132,0.891 l 0,2.64 -0.748,0 0,-4.015 q 0,-0.209 -0.011,-0.539 -0.011,-0.33 -0.033,-0.594 l 0.715,0 z" />
          <path
             id="path5514"
             style=""
             d="m 29.127797,36.411776 q 0.022,0.209 0.033,0.462 0.011,0.253 0.011,0.418 l 0.022,0 q 0.22,-0.451 0.715,-0.726 0.495,-0.286 1.045,-0.286 0.979,0 1.463,0.583 0.495,0.583 0.495,1.54 l 0,3.157 -0.748,0 0,-2.849 q 0,-0.407 -0.066,-0.737 -0.066,-0.33 -0.231,-0.561 -0.154,-0.242 -0.429,-0.374 -0.264,-0.132 -0.671,-0.132 -0.297,0 -0.583,0.121 -0.275,0.121 -0.495,0.374 -0.22,0.242 -0.352,0.627 -0.132,0.374 -0.132,0.891 l 0,2.64 -0.748,0 0,-4.015 q 0,-0.209 -0.011,-0.539 -0.011,-0.33 -0.033,-0.594 l 0.715,0 z" />
          <path
             id="path5516"
             style=""
             d="m 38.764656,38.589776 q -0.033,-0.726 -0.473,-1.199 -0.429,-0.484 -1.232,-0.484 -0.374,0 -0.693,0.143 -0.319,0.132 -0.561,0.374 -0.242,0.231 -0.385,0.539 -0.143,0.297 -0.165,0.627 l 3.509,0 z m 0.759,0.242 q 0,0.077 0,0.165 0,0.088 -0.011,0.187 l -4.268,0 q 0.011,0.385 0.154,0.726 0.143,0.341 0.396,0.594 0.253,0.253 0.594,0.407 0.341,0.143 0.737,0.143 0.583,0 1.001,-0.264 0.429,-0.275 0.649,-0.627 l 0.561,0.44 q -0.462,0.583 -1.023,0.836 -0.55,0.253 -1.188,0.253 -0.572,0 -1.067,-0.198 -0.484,-0.209 -0.836,-0.572 -0.352,-0.363 -0.561,-0.858 -0.198,-0.495 -0.198,-1.078 0,-0.583 0.198,-1.078 0.198,-0.495 0.55,-0.858 0.352,-0.363 0.825,-0.561 0.473,-0.209 1.023,-0.209 0.605,0 1.067,0.209 0.462,0.198 0.77,0.55 0.308,0.341 0.462,0.803 0.165,0.462 0.165,0.99 z" />
          <path
             id="path5518"
             style=""
             d="m 41.132578,37.544776 q 0,-0.209 -0.011,-0.539 -0.011,-0.33 -0.033,-0.594 l 0.715,0 q 0.022,0.209 0.033,0.462 0.011,0.253 0.011,0.418 l 0.022,0 q 0.22,-0.451 0.66,-0.726 0.44,-0.286 0.99,-0.286 0.143,0 0.253,0.011 0.121,0.011 0.242,0.044 l -0.099,0.704 q -0.066,-0.022 -0.22,-0.044 -0.154,-0.022 -0.308,-0.022 -0.297,0 -0.572,0.11 -0.275,0.11 -0.484,0.352 -0.198,0.231 -0.33,0.605 -0.121,0.363 -0.121,0.88 l 0,2.64 -0.748,0 0,-4.015 0,0 z" />
        </g>
        <g
           id="Group-2"
           transform="translate(0.071453,5.507549)"
           style="stroke:#b7c2cc">
          <rect
             id="Rectangle-213"
             x="0"
             y="0"
             width="7"
             height="7"
             rx="2"
             style="fill:#ffffff" />
          <path
             d="m 2.99612,2.0196755 0,2.2239063 1.2043507,0"
             id="Line"
             transform="matrix(-0.70710678,-0.70710678,-0.70710678,0.70710678,8.3570699,3.4616117)"
             style="stroke-linecap:square" />
        </g>
        <g
           id="Group-2-Copy"
           transform="translate(0.071453,19.507549)"
           style="stroke:#b7c2cc">
          <rect
             id="rect4360"
             x="0"
             y="0"
             width="7"
             height="7"
             rx="2"
             style="fill:#ffffff" />
          <path
             d="m 2.99612,2.0196755 0,2.2239063 1.2043507,0"
             id="Line-Copy-2"
             transform="matrix(-0.70710678,-0.70710678,-0.70710678,0.70710678,8.3570699,3.4616117)"
             style="stroke-linecap:square" />
        </g>
        <g
           id="Group-2-Copy-2"
           transform="translate(0.071453,34.507549)"
           style="fill:#ffffff;stroke:#b7c2cc">
          <rect
             id="rect4364"
             x="0"
             y="0"
             width="7"
             height="7"
             rx="2" />
        </g>
      </g>
    </g>
  </g>
</svg>
