<?xml version="1.0" encoding="UTF-8" standalone="no"?>
<svg width="14px" height="12px" viewBox="0 0 14 12" version="1.1" xmlns="http://www.w3.org/2000/svg" xmlns:xlink="http://www.w3.org/1999/xlink" xmlns:sketch="http://www.bohemiancoding.com/sketch/ns">
    <!-- Generator: Sketch 3.3.2 (12043) - http://www.bohemiancoding.com/sketch -->
    <title>checkmark</title>
    <desc>Created with Sketch.</desc>
    <defs></defs>
    <g id="Page-1" stroke="none" stroke-width="1" fill="none" fill-rule="evenodd" sketch:type="MSPage">
        <g id="contentful_icons" sketch:type="MSArtboardGroup" transform="translate(-51.000000, -350.000000)" fill="#16B86F">
            <g id="checkmark" sketch:type="MSLayerGroup" transform="translate(50.000000, 350.000000)">
                <path d="M14.9196606,2.76784682 C14.9196606,2.54463227 14.8303748,2.32141771 14.6696603,2.16070324 L13.4553732,0.946416076 C13.2946587,0.785701598 13.0714442,0.696415778 12.8482296,0.696415778 C12.6250151,0.696415778 12.4018005,0.785701598 12.241086,0.946416076 L6.38393618,6.8124945 L3.75893305,4.17856279 C3.59821858,4.01784831 3.37500402,3.92856249 3.15178947,3.92856249 C2.92857492,3.92856249 2.70536037,4.01784831 2.54464589,4.17856279 L1.33035873,5.39284995 C1.16964425,5.55356443 1.08035843,5.77677898 1.08035843,5.99999353 C1.08035843,6.22320808 1.16964425,6.44642263 1.33035873,6.60713711 L4.56250544,9.83928382 L5.7767926,11.053571 C5.93750708,11.2142855 6.16072163,11.3035713 6.38393618,11.3035713 C6.60715073,11.3035713 6.83036529,11.2142855 6.99107976,11.053571 L8.20536692,9.83928382 L14.6696603,3.3749904 C14.8303748,3.21427592 14.9196606,2.99106137 14.9196606,2.76784682 L14.9196606,2.76784682 Z" id="Checkmark" sketch:type="MSShapeGroup"></path>
            </g>
        </g>
    </g>
</svg>