<?xml version="1.0" encoding="UTF-8" standalone="no"?>
<svg width="404px" height="498px" viewBox="0 0 404 498" version="1.1" xmlns="http://www.w3.org/2000/svg" xmlns:xlink="http://www.w3.org/1999/xlink" xmlns:sketch="http://www.bohemiancoding.com/sketch/ns">
    <!-- Generator: Sketch 3.3 (11970) - http://www.bohemiancoding.com/sketch -->
    <title>ContentfulIcons</title>
    <desc>Created with Sketch.</desc>
    <defs>
        <path d="M24.5,0 C10.9690236,0 0,10.9660485 0,24.5 C0,38.0309764 10.9660485,49 24.5,49 C38.0309764,49 49,38.0339515 49,24.5 C49,10.9690236 38.0339515,0 24.5,0 Z M29.5380859,14.797526 C29.5380859,15.5479638 29.2542075,16.1873075 28.6864421,16.7155762 C28.1186766,17.2438449 27.4348998,17.5079753 26.6350911,17.5079753 C25.8352825,17.5079753 25.1490372,17.2438449 24.5763346,16.7155762 C24.0036321,16.1873075 23.7172852,15.5479638 23.7172852,14.797526 C23.7172852,14.0470883 24.0036321,13.4052761 24.5763346,12.8720703 C25.1490372,12.3388645 25.8352825,12.0722656 26.6350911,12.0722656 C27.4348998,12.0722656 28.1186766,12.3388645 28.6864421,12.8720703 C29.2542075,13.4052761 29.5380859,14.0470883 29.5380859,14.797526 Z M29.2270508,32.8819987 L28.9012044,34.2150065 C27.9236605,34.6000996 27.1436119,34.8938521 26.5610352,35.0962728 C25.9784585,35.2986935 25.3020872,35.3999023 24.531901,35.3999023 C23.3469993,35.3999023 22.4262457,35.1110869 21.7696126,34.5334473 C21.1129796,33.9558077 20.784668,33.2226607 20.784668,32.3339844 C20.784668,31.988388 20.8093531,31.6353913 20.858724,31.2749837 C20.9080949,30.9145761 20.9870871,30.5072722 21.0957031,30.0530599 L22.3102214,25.7281901 C22.4188373,25.3134745 22.5101722,24.9209817 22.5842285,24.5506999 C22.6582849,24.1804181 22.6953125,23.8422324 22.6953125,23.5361328 C22.6953125,22.9831787 22.5817611,22.5980914 22.3546549,22.3808594 C22.1275488,22.1636274 21.6930913,22.055013 21.0512695,22.055013 C20.7352957,22.055013 20.4119211,22.1043832 20.0811361,22.203125 C19.750351,22.3018668 19.4664725,22.3956701 19.2294922,22.4845378 L19.5553385,21.1515299 C20.3551472,20.825682 21.1203848,20.5467405 21.8510742,20.3146973 C22.5817636,20.082654 23.272946,19.9666341 23.9246419,19.9666341 C25.0996695,19.9666341 26.005612,20.2505126 26.6424967,20.818278 C27.2793814,21.3860434 27.597819,22.1241274 27.597819,23.0325521 C27.597819,23.2201615 27.5756024,23.5509416 27.5311686,24.0249023 C27.4867348,24.498863 27.405274,24.9333205 27.2867839,25.3282878 L26.0722656,29.6383464 C25.9735238,29.9839427 25.8846575,30.378904 25.8056641,30.8232422 C25.7266706,31.2675803 25.6871745,31.6032975 25.6871745,31.8304036 C25.6871745,32.4031062 25.8155369,32.7931305 26.0722656,33.0004883 C26.3289943,33.2078461 26.7733258,33.3115234 27.4052734,33.3115234 C27.7014989,33.3115234 28.037216,33.2596848 28.4124349,33.1560059 C28.7876538,33.052327 29.0591897,32.9609921 29.2270508,32.8819987 Z" id="path-1"></path>
        <rect id="path-2" x="0" y="12" width="30" height="3" rx="2"></rect>
        <rect id="path-3" x="6" y="0" width="18" height="9" rx="2"></rect>
        <rect id="path-4" x="6" y="19" width="18" height="9" rx="2"></rect>
    </defs>
    <g id="Page-1" stroke="none" stroke-width="1" fill="none" fill-rule="evenodd" sketch:type="MSPage">
        <g id="ContentfulIcons" sketch:type="MSArtboardGroup">
            <g id="nav-settings" sketch:type="MSLayerGroup" transform="translate(201.000000, 100.000000)" stroke="#21304A" stroke-width="1.5" fill="#D8D8D8" fill-opacity="0">
                <path d="M46.8199234,19.4401305 C46.2643791,17.0772079 45.3473661,14.7820001 44.0688845,12.6426254 L37.6888397,13.9184446 L34.6414277,10.8710326 L35.9301555,4.42657503 L35.9301555,4.42657503 C33.8141994,3.13449085 31.5417747,2.19919571 29.1992944,1.62068966 L29.1992944,1.62068966 L25.5645219,7.07251058 L21.2548305,7.07251058 L17.6201722,1.62081171 C15.2776775,2.19937436 13.0052468,3.13473407 10.8892959,4.42689087 L10.8892959,4.42689087 L12.1779399,10.8710694 L9.13052793,13.9184814 L2.75103499,12.6427449 C1.47253054,14.7821957 0.5555189,17.0774887 2.98316927e-13,19.4404963 L2.98649994e-13,19.4404963 L5.3320059,22.9953873 L5.3320059,27.3050786 L0.0762327815,30.8091128 C0.667719523,33.1812729 1.6254218,35.4808654 2.94933955,37.6180304 L9.13056473,36.3819692 L12.1779767,39.4293812 L10.9544756,45.547664 L10.9544756,45.547664 C13.1151006,46.8576496 15.4374682,47.7967365 17.8299892,48.3649248 L17.8299892,48.3649248 L21.2548826,43.2279032 L25.5645739,43.2279032 L28.9895268,48.3650607 C31.3820313,47.7969377 33.7043903,46.8579241 35.8650176,45.5480199 L34.6414645,39.4293444 L37.6888765,36.3819324 L43.8706566,37.6181314 L43.8706566,37.6181314 C45.1945364,35.4810419 46.1522246,33.181534 46.7437211,30.8094588 L41.4873985,27.3050265 L41.4873985,22.9953352 L46.8199234,19.4401305 L46.8199234,19.4401305 Z M23.4098757,34.8264963 C28.8550614,34.8264963 33.2692566,30.412309 33.2692566,24.9671332 C33.2692566,19.5219573 28.8550614,15.10777 23.4098757,15.10777 C17.9646899,15.10777 13.5504947,19.5219573 13.5504947,24.9671332 C13.5504947,30.412309 17.9646899,34.8264963 23.4098757,34.8264963 Z" id="Settings" sketch:type="MSShapeGroup"></path>
            </g>
            <g id="nav-api" sketch:type="MSLayerGroup" transform="translate(151.000000, 101.000000)" fill="#21304A">
                <path d="M11.8926202,21.0619813 L18.2741059,21.0619813 C18.325563,21.2325479 18.4159095,21.394246 18.5456248,21.5333486 L33.5879296,37.6642456 L33.5879296,37.6642456 L29.1856395,37.5105142 C28.5225968,37.4873603 27.9663244,38.0060927 27.9431704,38.6691355 C27.9200164,39.3321783 28.4387488,39.8884506 29.1017916,39.9116046 L36.4280401,40.1674428 C37.0910829,40.1905968 37.6473553,39.6718644 37.6705093,39.0088216 L37.9466115,31.1022874 C37.9697655,30.4392446 37.4510331,29.8829723 36.7879903,29.8598183 C36.1249475,29.8366643 35.5686751,30.3553967 35.5455212,31.0184395 L35.3697388,36.0521872 L21.3911456,21.0619813 L21.3911456,21.0619813 L44.916687,21.0619813 L44.916687,21.0619813 L41.3551202,24.623548 C40.8859924,25.0926759 40.8859924,25.8532824 41.3551202,26.3224102 C41.824248,26.791538 42.5848545,26.791538 43.0539824,26.3224102 L48.6481541,20.7282384 C49.117282,20.2591106 49.117282,19.4985041 48.6481541,19.0293763 L43.4645564,13.8457786 C42.9954286,13.3766507 42.2348221,13.3766507 41.7656942,13.8457786 C41.2965664,14.3149064 41.2965664,15.0755129 41.7656942,15.5446407 L44.8804808,18.6594273 L21.8077748,18.6594273 L35.3697388,4.11600152 L35.3697388,4.11600152 L35.5455212,9.14974924 C35.5686751,9.81279204 36.1249475,10.3315244 36.7879903,10.3083705 C37.4510331,10.2852165 37.9697655,9.72894412 37.9466115,9.06590132 L37.6705093,1.15936714 C37.6473553,0.496324348 37.0910829,-0.0224080417 36.4280401,0.000745922963 L29.1017916,0.256584158 C28.4387488,0.279738122 27.9200164,0.836010506 27.9431704,1.4990533 C27.9663244,2.1620961 28.5225968,2.68082849 29.1856395,2.65767452 L33.5879296,2.50394317 L18.5456248,18.6348402 C18.5380531,18.6429598 18.5306155,18.6511564 18.523312,18.6594273 L18.523312,18.6594273 L11.8926202,18.6594273 C11.3361042,15.9178246 8.91222326,13.8543194 6.00638484,13.8543194 C2.68915009,13.8543194 0,16.5434695 0,19.8607043 C0,23.177939 2.68915009,25.8670891 6.00638484,25.8670891 C8.91222326,25.8670891 11.3361042,23.803584 11.8926202,21.0619813 Z M2.40255394,19.8607043 C2.40255394,17.8703634 4.01604399,16.2568734 6.00638484,16.2568734 C7.99672569,16.2568734 9.61021574,17.8703634 9.61021574,19.8607043 C9.61021574,21.8510451 7.99672569,23.4645352 6.00638484,23.4645352 C4.01604399,23.4645352 2.40255394,21.8510451 2.40255394,19.8607043 Z" id="API" sketch:type="MSShapeGroup"></path>
            </g>
            <g id="nav-media" sketch:type="MSLayerGroup" transform="translate(100.000000, 101.000000)">
                <path d="M11.1651842,11.3301619 L11.1651842,1.71150672 C11.1651842,1.71150672 11.5827898,0.876015138 12.0155023,0.559049901 C12.3274197,0.330567979 13.3990737,0.0751652376 13.3990737,0.0751652376 L46.3122111,0.0751652376 C46.3122111,0.0751652376 46.8744679,0.331870289 47.0241551,0.559049901 C47.2087974,0.839280825 47.3151996,1.59739685 47.3151996,1.59739685 L47.3151996,33.5164262 C47.3151996,33.5164262 47.2220884,34.2777513 47.0241551,34.5544869 C46.8161481,34.8453068 46.0973786,35.2190927 46.0973786,35.2190927 L38.0352992,35.2190927" id="Path-121" stroke="#21304A" stroke-width="1.5" fill-opacity="0" fill="#D8D8D8" sketch:type="MSShapeGroup"></path>
                <rect id="Film-Hole-5" fill="#21304A" sketch:type="MSShapeGroup" x="14.8965517" y="3.57173591" width="3.72413793" height="3.72413793" rx="1"></rect>
                <rect id="Film-Hole-4" fill="#21304A" sketch:type="MSShapeGroup" x="40.9655172" y="3.57173591" width="3.72413793" height="3.72413793" rx="1"></rect>
                <rect id="Film-Hole-3" fill="#21304A" sketch:type="MSShapeGroup" x="40.9655172" y="11.0200118" width="3.72413793" height="3.72413793" rx="1"></rect>
                <rect id="Film-Hole-2" fill="#21304A" sketch:type="MSShapeGroup" x="40.9655172" y="18.4682876" width="3.72413793" height="3.72413793" rx="1"></rect>
                <rect id="Film-Hole-1" fill="#21304A" sketch:type="MSShapeGroup" x="40.9655172" y="25.9165635" width="3.72413793" height="3.72413793" rx="1"></rect>
                <rect id="Picture" stroke="#21304A" stroke-width="1.5" fill-opacity="0" fill="#FFFFFF" sketch:type="MSShapeGroup" x="0" y="10.0143342" width="38.7732414" height="37.7790557" rx="2"></rect>
                <path d="M1.24137931,33.2834483 L13.6551724,23.3524138 L29.7931034,45.6972414" id="Line" stroke="#21304A" stroke-width="1.5" stroke-linecap="round" stroke-linejoin="round" fill-opacity="0" fill="#D8D8D8" sketch:type="MSShapeGroup"></path>
                <path d="M23.5862069,34.5248276 L28.5517241,29.5593103 L37.2413793,37.317931" id="Line-13" stroke="#21304A" stroke-width="1.5" stroke-linecap="round" stroke-linejoin="round" fill-opacity="0" fill="#D8D8D8" sketch:type="MSShapeGroup"></path>
                <circle id="Oval-2" stroke="#21304A" stroke-width="1.5" fill-opacity="0" fill="#D8D8D8" sketch:type="MSShapeGroup" cx="25.4482759" cy="20.2489655" r="3.10344828"></circle>
            </g>
            <g id="nav-entries" sketch:type="MSLayerGroup" transform="translate(50.000000, 100.000000)" stroke="#21304A">
                <rect id="Rectangle-3" stroke-width="1.5" fill="#FFFFFF" sketch:type="MSShapeGroup" x="0" y="0.60483871" width="32.6612903" height="44.7580645" rx="2"></rect>
                <g id="Pencil" transform="translate(29.826031, 25.315399) rotate(-315.000000) translate(-29.826031, -25.315399) translate(20.326031, 8.315399)" sketch:type="MSShapeGroup">
                    <path d="M9.67741913,33.5100796 L0.473646616,18.6906515 L3.98917498,12.7096774 L15.3656637,12.7096774 L18.8811921,18.6906515 L9.67741913,33.5100796 L9.67741913,33.5100796 Z" id="Polygon-1" stroke-width="1.5" stroke-linecap="round" stroke-linejoin="round" fill="#FFFFFF"></path>
                    <rect id="Rectangle-31" stroke-width="1.5" fill="#FFFFFF" x="1.20967742" y="7.87096774" width="16.9354839" height="6.0483871" rx="2"></rect>
                    <path d="M3.62903226,8.47580645 L2.41935484,0.612903226" id="Line" stroke-width="1.5" stroke-linecap="round" stroke-linejoin="round"></path>
                    <path d="M15.7258065,8.47580645 L16.9354839,0.612903226" id="Line-14" stroke-width="1.5" stroke-linecap="round" stroke-linejoin="round"></path>
                    <path d="M9.67741935,32.6547082 L9.67741935,24.0989627" id="Line" stroke-linecap="square"></path>
                    <ellipse id="Oval-9" cx="9.67741935" cy="21.0736454" rx="1.81451613" ry="1.81451613"></ellipse>
                </g>
                <path d="M7.52193487,9.27419355 L25.0622574,9.27419355" id="Line" stroke-width="1.5" stroke-linecap="round" stroke-linejoin="round" sketch:type="MSShapeGroup"></path>
                <path d="M7.52193487,15.7258065 L25.0622574,15.7258065" id="Line-15" stroke-width="1.5" stroke-linecap="round" stroke-linejoin="round" sketch:type="MSShapeGroup"></path>
                <path d="M7.52193487,22.1774194 L15.4158179,22.1774194" id="Line-16" stroke-width="1.5" stroke-linecap="round" stroke-linejoin="round" sketch:type="MSShapeGroup"></path>
                <path d="M7.52193487,28.6290323 L15.4158179,28.6290323" id="Line-17" stroke-width="1.5" stroke-linecap="round" stroke-linejoin="round" sketch:type="MSShapeGroup"></path>
            </g>
            <g id="nav-ct" sketch:type="MSLayerGroup" transform="translate(0.000000, 100.000000)" stroke="#21304A" stroke-width="2">
                <path d="M10,29.5 L1.5,34.5 L22.6510542,47.479056 C23.119914,47.7667654 23.8905297,47.7656822 24.3545518,47.4872689 L46.000001,34.5 L37.5,29.5" id="Path-124-Copy" stroke-linejoin="round" sketch:type="MSShapeGroup"></path>
                <path d="M10,19.5 L1.5,24.5 L22.6510542,37.479056 C23.119914,37.7667654 23.8905297,37.7656822 24.3545518,37.4872689 L46.000001,24.5 L37.5,19.5" id="Path-124" stroke-linejoin="round" sketch:type="MSShapeGroup"></path>
                <path d="M1.14145181,15.3631384 C0.282989249,14.8477804 0.282761211,14.0123571 1.14145181,13.4968623 L22.1471716,0.886569774 C23.0056341,0.37121186 24.3972489,0.371074963 25.2559395,0.886569774 L46.2616592,13.4968623 C47.1201218,14.0122202 47.1203498,14.8476435 46.2616592,15.3631384 L25.2559395,27.9734308 C24.3974769,28.4887888 23.0058622,28.4889256 22.1471716,27.9734308 L1.14145181,15.3631384 L1.14145181,15.3631384 Z" id="Rectangle-16" sketch:type="MSShapeGroup"></path>
            </g>
            <g id="page-settings" sketch:type="MSLayerGroup" transform="translate(202.000000, 52.000000)" stroke="#21304A" stroke-width="2" fill="#D8D8D8">
                <path d="M35.5529957,13.5313016 C35.1311398,11.7370019 34.4348004,9.9941217 33.4639775,8.36957448 L28.6192514,9.33837556 L26.3051804,7.02430461 L27.2837838,2.13066625 L27.2837838,2.13066625 C25.6770195,1.14951422 23.9514399,0.439292119 22.1726632,7.77156117e-16 L22.1726632,1.44328993e-15 L19.4125763,4.13987363 L16.1399858,4.13987363 L13.3799858,9.26800839e-05 C11.601198,0.439427781 9.87561383,1.1496989 8.26885358,2.13090609 L8.26885358,2.13090609 L9.24739328,7.02433256 L6.93332233,9.33840351 L2.08901528,8.36966517 C1.11817509,9.9942703 0.421836681,11.7372151 1.23734356e-13,13.5315794 L1.24789068e-13,13.5315794 L4.04889135,16.2310076 L4.04889135,19.5035981 L0.0578878298,22.164408 C0.507036911,23.9657223 1.234274,25.7119319 2.23959906,27.3348013 L6.93335028,26.3961907 L9.24742123,28.7102616 L8.31834815,33.3562172 L8.31834815,33.3562172 C9.95903199,34.3509627 11.7225361,35.0640642 13.5393116,35.4955214 L13.5393116,35.4955214 L16.1400253,31.5946926 L19.4126159,31.5946926 L22.0133748,35.4956246 C23.8301378,35.0642169 25.5936353,34.3511712 27.2343209,33.3564874 L26.3052084,28.7102337 L28.6192793,26.3961627 L33.3134519,27.334878 L33.3134519,27.334878 C34.3187482,25.712066 35.0459746,23.9659205 35.4951311,22.1646707 L31.5037103,19.5035586 L31.5037103,16.2309681 L35.5529957,13.5313016 L35.5529957,13.5313016 Z M17.7764325,25.2150327 C21.9112677,25.2150327 25.2632139,21.8630926 25.2632139,17.7282649 C25.2632139,13.5934373 21.9112677,10.2414971 17.7764325,10.2414971 C13.6415974,10.2414971 10.2896512,13.5934373 10.2896512,17.7282649 C10.2896512,21.8630926 13.6415974,25.2150327 17.7764325,25.2150327 Z" id="Settings" sketch:type="MSShapeGroup"></path>
            </g>
            <g id="page-api" sketch:type="MSLayerGroup" transform="translate(151.000000, 51.000000)">
                <circle id="Oval-18" fill="#16C98D" sketch:type="MSShapeGroup" cx="4.5" cy="17.5" r="4.5"></circle>
                <path d="M9.89998188,18.30225 L15.2122337,18.30225 C15.255069,18.4442378 15.3302777,18.578843 15.4382588,18.6946386 L27.9601878,32.1227633 L27.9601878,32.1227633 L24.2955125,31.9947901 C23.7435642,31.9755156 23.2804966,32.4073331 23.2612222,32.9592814 C23.2419477,33.5112297 23.6737652,33.9742972 24.2257135,33.9935717 L30.3244307,34.2065436 C30.876379,34.2258181 31.3394465,33.7940006 31.358721,33.2420523 L31.5885616,26.6602777 C31.6078361,26.1083294 31.1760186,25.6452619 30.6240703,25.6259874 C30.072122,25.6067129 29.6090544,26.0385304 29.58978,26.5904787 L29.4434504,30.7808094 L17.8070055,18.30225 L17.8070055,18.30225 L37.3907834,18.30225 L37.3907834,18.30225 L34.4259661,21.2670673 C34.0354418,21.6575916 34.0354418,22.2907566 34.4259661,22.6812809 C34.8164904,23.0718052 35.4496554,23.0718052 35.8401797,22.6812809 L40.4970339,18.0244266 C40.8875582,17.6339023 40.8875582,17.0007374 40.4970339,16.6102131 L36.181961,12.2951402 C35.7914367,11.9046159 35.1582718,11.9046159 34.7677475,12.2951402 C34.3772232,12.6856645 34.3772232,13.3188294 34.7677475,13.7093537 L37.3606437,16.30225 L18.1538275,16.30225 L29.4434504,4.19561165 L29.4434504,4.19561165 L29.58978,8.38594233 C29.6090544,8.93789064 30.072122,9.36970812 30.6240703,9.35043366 C31.1760186,9.3311592 31.6078361,8.86809165 31.5885616,8.31614334 L31.358721,1.73436878 C31.3394465,1.18242047 30.876379,0.750602991 30.3244307,0.76987745 L24.2257135,0.982849348 C23.6737652,1.00212381 23.2419477,1.46519136 23.2612222,2.01713967 C23.2804966,2.56908798 23.7435642,3.00090546 24.2955125,2.981631 L27.9601878,2.85365772 L15.4382588,16.2817825 C15.4319558,16.2885417 15.4257644,16.2953649 15.4196847,16.30225 L15.4196847,16.30225 L9.89998188,16.30225 C9.43671155,14.0200097 7.41895791,12.30225 5,12.30225 C2.23857625,12.30225 0,14.5408263 0,17.30225 C0,20.0636737 2.23857625,22.30225 5,22.30225 C7.41895791,22.30225 9.43671155,20.5844903 9.89998188,18.30225 Z M2,17.30225 C2,15.6453958 3.34314575,14.30225 5,14.30225 C6.65685425,14.30225 8,15.6453958 8,17.30225 C8,18.9591042 6.65685425,20.30225 5,20.30225 C3.34314575,20.30225 2,18.9591042 2,17.30225 Z" id="API-2" fill="#21304A" sketch:type="MSShapeGroup"></path>
            </g>
            <g id="page-media" sketch:type="MSLayerGroup" transform="translate(101.000000, 51.000000)">
                <rect id="Rectangle-6" stroke="#21304A" stroke-width="2" fill="#21304A" sketch:type="MSShapeGroup" x="8" y="0.400435897" width="31.234" height="30.4331282" rx="2"></rect>
                <rect id="Rectangle-8" fill="#FFFFFF" sketch:type="MSShapeGroup" x="12" y="4.21056504" width="3" height="3" rx="1"></rect>
                <rect id="Rectangle-11" fill="#FFFFFF" sketch:type="MSShapeGroup" x="33" y="4.21056504" width="3" height="3" rx="1"></rect>
                <rect id="Rectangle-19" fill="#FFFFFF" sketch:type="MSShapeGroup" x="33" y="10.210565" width="3" height="3" rx="1"></rect>
                <rect id="Rectangle-20" fill="#FFFFFF" sketch:type="MSShapeGroup" x="33" y="16.210565" width="3" height="3" rx="1"></rect>
                <rect id="Rectangle-21" fill="#FFFFFF" sketch:type="MSShapeGroup" x="33" y="22.210565" width="3" height="3" rx="1"></rect>
                <rect id="Rectangle-61" fill="#A8E2FF" sketch:type="MSShapeGroup" x="2" y="11" width="28" height="21"></rect>
                <path d="M1,28 L11,20 L18,30 L23,25 L30,31 L30,38 L29,39 L2,39 L1,38 L1,28 Z" id="Line-19" fill="#16C98D" sketch:type="MSShapeGroup"></path>
                <rect id="Rectangle-3" stroke="#21304A" stroke-width="2" sketch:type="MSShapeGroup" x="0" y="9.4004359" width="31.234" height="30.4331282" rx="2"></rect>
                <path d="M1,28.145 L11,20.145 L24,38.145" id="Line" stroke="#21304A" stroke-width="2" stroke-linecap="round" stroke-linejoin="round" sketch:type="MSShapeGroup"></path>
                <path d="M19,29.145 L23,25.145 L30,31.395" id="Line-13" stroke="#21304A" stroke-width="2" stroke-linecap="round" stroke-linejoin="round" sketch:type="MSShapeGroup"></path>
                <circle id="Oval-2" stroke="#21304A" stroke-width="2" fill="#F8E81C" sketch:type="MSShapeGroup" cx="20.5" cy="17.645" r="2.5"></circle>
            </g>
            <g id="page-entries" sketch:type="MSLayerGroup" transform="translate(51.000000, 49.000000)">
                <rect id="Rectangle-3" stroke="#21304A" stroke-width="2" fill="#F3EFBC" sketch:type="MSShapeGroup" x="0" y="2.5" width="27" height="37" rx="2"></rect>
                <g id="Pencil" transform="translate(26.914214, 20.169680) rotate(-315.000000) translate(-26.914214, -20.169680) translate(17.414214, 2.169680)" sketch:type="MSShapeGroup">
                    <polygon id="Polygon-1" stroke="#21304A" stroke-width="2" stroke-linecap="round" stroke-linejoin="round" fill="#F8F8F8" transform="translate(10.000000, 26.597500) rotate(-180.000000) translate(-10.000000, -26.597500) " points="10.0000002 18 17.6084521 30.2507272 14.702282 35.1949992 5.29771798 35.1949992 2.39154787 30.2507272 "></polygon>
                    <path d="M16.3154788,12.589565 C16.3154788,12.589565 17.1206031,4.69056539 8.12060356,3.69056539 C5.12060356,7.69056539 3.3154788,9.55078422 3.3154788,9.55078422 L10.3154788,16.5895654 L16.3154788,12.589565 Z" id="Path-127" fill="#16C98D" transform="translate(9.824751, 10.140065) rotate(-45.000000) translate(-9.824751, -10.140065) "></path>
                    <rect id="Rectangle-31" stroke="#21304A" stroke-width="2" fill="#16C98D" x="3" y="14" width="14" height="5" rx="2"></rect>
                    <path d="M5,14.5 L4,8" id="Line" stroke="#21304A" stroke-width="2" stroke-linecap="round" stroke-linejoin="round"></path>
                    <path d="M16,14.5 L15,8" id="Line-14" stroke="#21304A" stroke-width="2" stroke-linecap="round" stroke-linejoin="round" transform="translate(15.500000, 11.250000) scale(-1, 1) translate(-15.500000, -11.250000) "></path>
                    <path d="M10,34.4878922 L10,27.4151425" id="Line" stroke="#21304A" stroke-linecap="square"></path>
                    <circle id="Oval-9" stroke="#21304A" fill="#F3EFBB" cx="10" cy="24.9142136" r="1.5"></circle>
                </g>
                <path d="M6.21813282,8.791 L20.7181328,8.791" id="Line" stroke="#21304A" stroke-width="2" stroke-linecap="round" stroke-linejoin="round" sketch:type="MSShapeGroup"></path>
                <path d="M6.21813282,13.791 L20.7181328,13.791" id="Line-15" stroke="#21304A" stroke-width="2" stroke-linecap="round" stroke-linejoin="round" sketch:type="MSShapeGroup"></path>
                <path d="M6.21813282,18.791 L18.2181328,18.791" id="Line-16" stroke="#21304A" stroke-width="2" stroke-linecap="round" stroke-linejoin="round" sketch:type="MSShapeGroup"></path>
                <path d="M6.21813282,23.791 L16.2181328,23.791" id="Line-17" stroke="#21304A" stroke-width="2" stroke-linecap="round" stroke-linejoin="round" sketch:type="MSShapeGroup"></path>
                <path d="M6.21813282,28.791 L15.2181328,28.791" id="Line-18" stroke="#21304A" stroke-width="2" stroke-linecap="round" stroke-linejoin="round" sketch:type="MSShapeGroup"></path>
            </g>
            <g id="page-ct" sketch:type="MSLayerGroup" transform="translate(0.000000, 50.000000)" stroke="#21304A" stroke-width="2">
                <path d="M1.02193965,31.6325337 C0.241588607,31.1640682 0.241381319,30.40466 1.02193965,29.9360701 L20.1163488,18.4731882 C20.8966998,18.0047227 22.1616915,18.0045983 22.9422499,18.4731882 L42.036659,29.9360701 C42.81701,30.4045356 42.8172173,31.1639438 42.036659,31.6325337 L22.9422499,43.0954155 C22.1618988,43.563881 20.8969071,43.5640055 20.1163488,43.0954155 L1.02193965,31.6325337 L1.02193965,31.6325337 Z" id="Rectangle-18" fill="#61BCEA" sketch:type="MSShapeGroup"></path>
                <path d="M1.02193965,22.9909878 C0.241588607,22.5225223 0.241381319,21.7631141 1.02193965,21.2945242 L20.1163488,9.83164235 C20.8966998,9.36317685 22.1616915,9.36305241 22.9422499,9.83164235 L42.036659,21.2945242 C42.81701,21.7629897 42.8172173,22.5223979 42.036659,22.9909878 L22.9422499,34.4538697 C22.1618988,34.9223352 20.8969071,34.9224596 20.1163488,34.4538697 L1.02193965,22.9909878 L1.02193965,22.9909878 Z" id="Rectangle-17" fill="#83CBF0" sketch:type="MSShapeGroup"></path>
                <path d="M1.02193965,14.3494419 C0.241588607,13.8809764 0.241381319,13.1215683 1.02193965,12.6529783 L20.1163488,1.19009647 C20.8966998,0.721630978 22.1616915,0.721506537 22.9422499,1.19009647 L42.036659,12.6529783 C42.81701,13.1214438 42.8172173,13.880852 42.036659,14.3494419 L22.9422499,25.8123238 C22.1618988,26.2807893 20.8969071,26.2809137 20.1163488,25.8123238 L1.02193965,14.3494419 L1.02193965,14.3494419 Z" id="Rectangle-16" fill="#A8E2FF" sketch:type="MSShapeGroup"></path>
            </g>
            <g id="field-media" sketch:type="MSLayerGroup" transform="translate(151.000000, 202.000000)">
                <path d="M9,9.54813095 L9,1.71601734 C9,1.71601734 9.33500855,1.03570758 9.68213596,0.777614562 C9.93236005,0.591570219 10.7920545,0.383605253 10.7920545,0.383605253 L37.19539,0.383605253 C37.19539,0.383605253 37.6464395,0.592630642 37.7665204,0.777614562 C37.9146428,1.00579619 38,1.62310191 38,1.62310191 L38,27.6135819 C38,27.6135819 37.925305,28.2335007 37.7665204,28.4588362 C37.5996546,28.69564 37.0230486,29 37.0230486,29 L30.5555465,29" id="Path-122" stroke="#21304A" stroke-width="2" fill-opacity="0" fill="#D8D8D8" sketch:type="MSShapeGroup"></path>
                <rect id="Rectangle-8" fill="#21304A" sketch:type="MSShapeGroup" x="12" y="3.21056504" width="3" height="3" rx="1"></rect>
                <rect id="Rectangle-11" fill="#21304A" sketch:type="MSShapeGroup" x="33" y="3.21056504" width="3" height="3" rx="1"></rect>
                <rect id="Rectangle-19" fill="#21304A" sketch:type="MSShapeGroup" x="33" y="9.21056504" width="3" height="3" rx="1"></rect>
                <rect id="Rectangle-20" fill="#21304A" sketch:type="MSShapeGroup" x="33" y="15.210565" width="3" height="3" rx="1"></rect>
                <rect id="Rectangle-21" fill="#21304A" sketch:type="MSShapeGroup" x="33" y="21.210565" width="3" height="3" rx="1"></rect>
                <rect id="Rectangle-3" stroke="#21304A" stroke-width="2" fill-opacity="0" fill="#FFFFFF" sketch:type="MSShapeGroup" x="0" y="8.4004359" width="31.234" height="30.4331282" rx="2"></rect>
                <path d="M1,27.145 L11,19.145 L24,37.145" id="Line" stroke="#21304A" stroke-width="2" stroke-linecap="round" stroke-linejoin="round" fill-opacity="0" fill="#D8D8D8" sketch:type="MSShapeGroup"></path>
                <path d="M19,28.145 L23,24.145 L30,30.395" id="Line-13" stroke="#21304A" stroke-width="2" stroke-linecap="round" stroke-linejoin="round" fill-opacity="0" fill="#D8D8D8" sketch:type="MSShapeGroup"></path>
                <circle id="Oval-2" stroke="#21304A" stroke-width="2" sketch:type="MSShapeGroup" cx="20.5" cy="16.645" r="2.5"></circle>
            </g>
            <g id="field-location" sketch:type="MSLayerGroup" transform="translate(202.000000, 152.000000)" stroke="#21304A" stroke-width="2">
                <path d="M15,38 C15.8823529,38 30,23.3203709 30,15.0232558 C30,6.72614074 23.2842712,0 15,0 C6.71572875,0 0,6.72614074 0,15.0232558 C0,23.3203709 14.1176471,38 15,38 Z M15,23.8604651 C19.8731007,23.8604651 23.8235294,19.9039117 23.8235294,15.0232558 C23.8235294,10.1425999 19.8731007,6.18604651 15,6.18604651 C10.1268993,6.18604651 6.17647059,10.1425999 6.17647059,15.0232558 C6.17647059,19.9039117 10.1268993,23.8604651 15,23.8604651 Z" id="Location" sketch:type="MSShapeGroup"></path>
            </g>
            <g id="field-reference" sketch:type="MSLayerGroup" transform="translate(51.000000, 200.000000)" stroke="#21304A" stroke-width="2">
                <rect id="Rectangle-6" sketch:type="MSShapeGroup" x="16" y="12.4004359" width="24" height="26" rx="2"></rect>
                <rect id="Rectangle-3" fill="#FFFFFF" sketch:type="MSShapeGroup" x="0" y="0.400435897" width="24" height="26" rx="2"></rect>
                <path d="M12,12.291 L27,22.291" id="Line" stroke-linecap="round" stroke-linejoin="round" sketch:type="MSShapeGroup"></path>
                <circle id="Oval-7" sketch:type="MSShapeGroup" cx="9.5" cy="9.791" r="3.5"></circle>
                <circle id="Oval-8" sketch:type="MSShapeGroup" cx="30.5" cy="24.791" r="3.5"></circle>
            </g>
            <g id="field-calendar" sketch:type="MSLayerGroup" transform="translate(0.000000, 152.000000)">
                <rect id="Rectangle-3" stroke="#21304A" stroke-width="2" sketch:type="MSShapeGroup" x="0" y="1.5" width="39" height="37" rx="2"></rect>
                <path d="M0.999173939,9.21056504 L37.0008736,9.21056504" id="Line" stroke="#21304A" stroke-width="2" stroke-linecap="square" sketch:type="MSShapeGroup"></path>
                <path d="M8,4.26014031 L8,0.260140313" id="Line-3" stroke="#21304A" stroke-width="2" stroke-linecap="round" stroke-linejoin="round" sketch:type="MSShapeGroup"></path>
                <path d="M31,4.26014031 L31,0.260140313" id="Line-4" stroke="#21304A" stroke-width="2" stroke-linecap="round" stroke-linejoin="round" sketch:type="MSShapeGroup"></path>
                <rect id="Rectangle-4" fill="#21304A" sketch:type="MSShapeGroup" x="7" y="14.210565" width="3" height="3" rx="1"></rect>
                <rect id="Rectangle-5" fill="#21304A" sketch:type="MSShapeGroup" x="18" y="14.210565" width="3" height="3" rx="1"></rect>
                <rect id="Rectangle-9" fill="#21304A" sketch:type="MSShapeGroup" x="7" y="30.210565" width="3" height="3" rx="1"></rect>
                <rect id="Rectangle-7" fill="#21304A" sketch:type="MSShapeGroup" x="18" y="30.210565" width="3" height="3" rx="1"></rect>
                <rect id="Rectangle-12" fill="#21304A" sketch:type="MSShapeGroup" x="7" y="22.210565" width="3" height="3" rx="1"></rect>
                <rect id="Rectangle-10" fill="#21304A" sketch:type="MSShapeGroup" x="16" y="20.210565" width="7" height="7" rx="4"></rect>
                <rect id="Rectangle-15" fill="#21304A" sketch:type="MSShapeGroup" x="29" y="14.210565" width="3" height="3" rx="1"></rect>
                <rect id="Rectangle-13" fill="#21304A" sketch:type="MSShapeGroup" x="29" y="30.210565" width="3" height="3" rx="1"></rect>
                <rect id="Rectangle-14" fill="#21304A" sketch:type="MSShapeGroup" x="29" y="22.210565" width="3" height="3" rx="1"></rect>
            </g>
            <g id="field-longtext" sketch:type="MSLayerGroup" transform="translate(51.000000, 152.000000)" fill="#21304A">
                <path d="M3.91653187,2 L1,2 C0.44771525,2 0,1.55228475 0,1 C0,0.44771525 0.44771525,0 1,0 L9.06175961,0 C9.61404436,0 10.0617596,0.44771525 10.0617596,1 C10.0617596,1.55228475 9.61404436,2 9.06175961,2 L5.91653187,2 L5.91653182,10.7255808 C5.91653181,11.2778656 5.46881656,11.7255808 4.91653181,11.7255808 C4.36424706,11.7255808 3.91653181,11.2778656 3.91653182,10.7255808 L3.91653187,2 Z M14.0291064,0 C13.4768217,0 13.0291064,0.44771525 13.0291064,1 C13.0291064,1.55228475 13.4768217,2 14.0291064,2 L35.9835936,2 C36.5358783,2 36.9835936,1.55228475 36.9835936,1 C36.9835936,0.44771525 36.5358783,0 35.9835936,0 L14.0291064,0 Z M14.0272094,6 C13.4749247,6 13.0272094,6.44771525 13.0272094,7 C13.0272094,7.55228475 13.4749247,8 14.0272094,8 L35.9835936,8 C36.5358783,8 36.9835936,7.55228475 36.9835936,7 C36.9835936,6.44771525 36.5358783,6 35.9835936,6 L14.0272094,6 Z M14.0272094,12 C13.4749247,12 13.0272094,12.4477153 13.0272094,13 C13.0272094,13.5522847 13.4749247,14 14.0272094,14 L35.9835936,14 C36.5358783,14 36.9835936,13.5522847 36.9835936,13 C36.9835936,12.4477153 36.5358783,12 35.9835936,12 L14.0272094,12 Z M1.02496301,18 C0.47267826,18 0.0249630101,18.4477153 0.0249630101,19 C0.0249630101,19.5522847 0.47267826,20 1.02496301,20 L35.9826666,20 C36.5349514,20 36.9826666,19.5522847 36.9826666,19 C36.9826666,18.4477153 36.5349514,18 35.9826666,18 L1.02496301,18 Z M1.02496301,24 C0.47267826,24 0.0249630101,24.4477153 0.0249630101,25 C0.0249630101,25.5522847 0.47267826,26 1.02496301,26 L35.9811064,26 C36.5333912,26 36.9811064,25.5522847 36.9811064,25 C36.9811064,24.4477153 36.5333912,24 35.9811064,24 L1.02496301,24 Z M1.02496301,30 C0.47267826,30 0.0249630101,30.4477153 0.0249630101,31 C0.0249630101,31.5522847 0.47267826,32 1.02496301,32 L35.9826666,32 C36.5349514,32 36.9826666,31.5522847 36.9826666,31 C36.9826666,30.4477153 36.5349514,30 35.9826666,30 L1.02496301,30 Z" id="Long-text-field" sketch:type="MSShapeGroup"></path>
            </g>
            <g id="field-shorttext" sketch:type="MSLayerGroup" transform="translate(100.000000, 151.000000)" fill="#21304A">
                <path d="M2.16201423,21.223377 L0,21.223377 L8.37438424,1.84735068 L10.290093,1.84735068 L18.6097427,21.223377 L16.4203612,21.223377 L14.2857143,16.133065 L4.26929392,16.133065 L2.16201423,21.223377 Z M5.00821018,14.3268252 L13.546798,14.3268252 L9.27750411,4.03673218 L5.00821018,14.3268252 Z M23.2621784,19.0613627 L23.2621784,21.223377 L21.4012042,21.223377 L21.4012042,0.533721779 L23.2621784,0.533721779 L23.2621784,10.6322439 L23.316913,10.6322439 C23.8642611,9.79297684 24.575803,9.15897479 25.4515599,8.73021877 C26.3273169,8.30146275 27.2304278,8.08708795 28.1609195,8.08708795 C29.1643911,8.08708795 30.0720631,8.26041226 30.8839628,8.60706606 C31.6958625,8.95371986 32.3891597,9.42808111 32.9638752,10.030164 C33.5385907,10.632247 33.985585,11.3437888 34.3048714,12.164811 C34.6241578,12.9858332 34.7837986,13.8706993 34.7837986,14.8194361 C34.7837986,15.7681728 34.6241578,16.653039 34.3048714,17.4740611 C33.985585,18.2950833 33.5385907,19.0066252 32.9638752,19.6087081 C32.3891597,20.210791 31.6958625,20.6851523 30.8839628,21.0318061 C30.0720631,21.3784599 29.1643911,21.5517842 28.1609195,21.5517842 C27.2304278,21.5517842 26.3273169,21.3419705 25.4515599,20.922337 C24.575803,20.5027034 23.8642611,19.8823849 23.316913,19.0613627 L23.2621784,19.0613627 Z M32.8133552,14.8194361 C32.8133552,14.1078835 32.7038872,13.4373921 32.484948,12.8079418 C32.2660088,12.1784915 31.9512883,11.6311516 31.5407772,11.1659057 C31.1302661,10.7006598 30.6239767,10.3312054 30.0218938,10.0575313 C29.4198109,9.78385725 28.735636,9.64702227 27.9693487,9.64702227 C27.2577961,9.64702227 26.6009882,9.77929608 25.9989053,10.0438477 C25.3968224,10.3083993 24.8768495,10.6732925 24.438971,11.1385384 C24.0010925,11.6037843 23.6590051,12.1511242 23.4126984,12.7805745 C23.1663918,13.4100249 23.0432403,14.0896386 23.0432403,14.8194361 C23.0432403,15.5492335 23.1663918,16.2288473 23.4126984,16.8582976 C23.6590051,17.4877479 24.0010925,18.0305267 24.438971,18.4866501 C24.8768495,18.9427735 25.3968224,19.3031056 25.9989053,19.5676572 C26.6009882,19.8322088 27.2577961,19.9644826 27.9693487,19.9644826 C28.735636,19.9644826 29.4198109,19.8322088 30.0218938,19.5676572 C30.6239767,19.3031056 31.1302661,18.9382123 31.5407772,18.4729664 C31.9512883,18.0077205 32.2660088,17.4603806 32.484948,16.8309303 C32.7038872,16.20148 32.8133552,15.5309886 32.8133552,14.8194361 L32.8133552,14.8194361 Z M48.0021894,11.3437929 C47.6920255,10.8511796 47.24047,10.4452359 46.6475096,10.1259495 C46.0545491,9.80666308 45.4114247,9.64702227 44.7181171,9.64702227 C43.9700747,9.64702227 43.2950222,9.77929608 42.6929392,10.0438477 C42.0908563,10.3083993 41.5754446,10.6732925 41.1466886,11.1385384 C40.7179325,11.6037843 40.3895286,12.1511242 40.1614669,12.7805745 C39.9334052,13.4100249 39.819376,14.0896386 39.819376,14.8194361 C39.819376,15.5492335 39.9334052,16.2242861 40.1614669,16.844614 C40.3895286,17.4649418 40.7133714,18.0077205 41.1330049,18.4729664 C41.5526385,18.9382123 42.0634891,19.3031056 42.665572,19.5676572 C43.2676549,19.8322088 43.9427074,19.9644826 44.6907499,19.9644826 C45.511772,19.9644826 46.2050692,19.809403 46.7706623,19.499239 C47.3362553,19.1890751 47.8014943,18.7876925 48.166393,18.2950792 L49.5621237,19.3350354 C49.0147756,20.0100981 48.3442842,20.5483156 47.5506294,20.9497043 C46.7569747,21.3510929 45.803691,21.5517842 44.6907499,21.5517842 C43.6507885,21.5517842 42.7111883,21.383021 41.8719212,21.0454897 C41.0326541,20.7079584 40.316551,20.2381583 39.7235906,19.6360754 C39.1306301,19.0339924 38.6699524,18.3224506 38.3415435,17.5014284 C38.0131346,16.6804062 37.8489327,15.7864177 37.8489327,14.8194361 C37.8489327,13.8524544 38.0131346,12.9584659 38.3415435,12.1374437 C38.6699524,11.3164216 39.1306301,10.6048797 39.7235906,10.0027968 C40.316551,9.40071384 41.0326541,8.93091376 41.8719212,8.59338242 C42.7111883,8.25585109 43.6507885,8.08708795 44.6907499,8.08708795 C45.5482619,8.08708795 46.4194446,8.27409575 47.304324,8.64811696 C48.1892035,9.02213817 48.9053065,9.57403924 49.4526546,10.3038367 L48.0021894,11.3437929 Z" id="Abc" sketch:type="MSShapeGroup"></path>
            </g>
            <g id="field-number" sketch:type="MSLayerGroup" transform="translate(150.000000, 151.000000)" fill="#21304A">
                <path d="M7.304,20.496 L5.288,20.496 L5.288,3.164 L1.704,6.216 L0.472,4.816 L5.512,0.672 L7.304,0.672 L7.304,20.496 Z M27.632,20.496 L14.948,20.496 L14.948,18.396 L23.068,10.192 C23.3666682,9.89333184 23.6606652,9.57133506 23.95,9.226 C24.2393348,8.88066494 24.4959989,8.5213352 24.72,8.148 C24.9440011,7.7746648 25.1213327,7.3780021 25.252,6.958 C25.3826673,6.5379979 25.448,6.10400224 25.448,5.656 C25.448,5.07733044 25.3453344,4.554669 25.14,4.088 C24.9346656,3.621331 24.6500018,3.2246683 24.286,2.898 C23.9219982,2.5713317 23.5020024,2.31933422 23.026,2.142 C22.5499976,1.96466578 22.0506693,1.876 21.528,1.876 C20.4639947,1.876 19.5680036,2.20733002 18.84,2.87 C18.1119964,3.53266998 17.6453344,4.3773282 17.44,5.404 L15.452,5.012 C15.5826673,4.32132988 15.8299982,3.67733632 16.194,3.08 C16.5580018,2.48266368 17.0059973,1.96933548 17.538,1.54 C18.0700027,1.11066452 18.6719966,0.77466788 19.344,0.532 C20.0160034,0.28933212 20.7439961,0.168 21.528,0.168 C22.3306707,0.168 23.0913297,0.2846655 23.81,0.518 C24.5286703,0.7513345 25.158664,1.09666438 25.7,1.554 C26.241336,2.01133562 26.6753317,2.58066326 27.002,3.262 C27.3286683,3.94333674 27.492,4.73199552 27.492,5.628 C27.492,6.26266984 27.4033342,6.85066396 27.226,7.392 C27.0486658,7.93333604 26.8153348,8.44666424 26.526,8.932 C26.2366652,9.41733576 25.896002,9.87933114 25.504,10.318 C25.111998,10.7566689 24.7013355,11.1906645 24.272,11.62 L17.132,18.704 L27.632,18.704 L27.632,20.496 Z M35.752,9.24 L36.62,9.24 C37.2546698,9.24 37.8519972,9.17466732 38.412,9.044 C38.9720028,8.91333268 39.4619979,8.70333478 39.882,8.414 C40.3020021,8.12466522 40.6333321,7.746669 40.876,7.28 C41.1186679,6.813331 41.24,6.2533366 41.24,5.6 C41.24,5.0399972 41.1373344,4.53133562 40.932,4.074 C40.7266656,3.61666438 40.4420018,3.2246683 40.078,2.898 C39.7139982,2.5713317 39.2940024,2.31933422 38.818,2.142 C38.3419976,1.96466578 37.8426693,1.876 37.32,1.876 C36.4799958,1.876 35.7380032,2.07199804 35.094,2.464 C34.4499968,2.85600196 33.932002,3.43466284 33.54,4.2 L31.832,3.304 C32.4480031,2.23999468 33.2319952,1.4513359 34.184,0.938 C35.1360048,0.4246641 36.2186606,0.168 37.432,0.168 C38.2160039,0.168 38.9579965,0.2846655 39.658,0.518 C40.3580035,0.7513345 40.9739973,1.09199776 41.506,1.54 C42.0380027,1.98800224 42.4579985,2.54333002 42.766,3.206 C43.0740015,3.86866998 43.228,4.62932904 43.228,5.488 C43.228,6.66400588 42.9013366,7.6486627 42.248,8.442 C41.5946634,9.2353373 40.7733383,9.76266536 39.784,10.024 L39.784,10.08 C40.9226724,10.3226679 41.8746628,10.8686624 42.64,11.718 C43.4053372,12.5673376 43.788,13.6639933 43.788,15.008 C43.788,15.9600048 43.6153351,16.804663 43.27,17.542 C42.9246649,18.279337 42.4626696,18.9046641 41.884,19.418 C41.3053304,19.9313359 40.6286705,20.323332 39.854,20.594 C39.0793295,20.864668 38.262671,21 37.404,21 C35.9479927,21 34.6786721,20.6500035 33.596,19.95 C32.5133279,19.2499965 31.6920028,18.2466732 31.132,16.94 L33.036,16.24 C33.3720017,17.1920048 33.9319961,17.9339973 34.716,18.466 C35.5000039,18.9980027 36.395995,19.264 37.404,19.264 C37.9640028,19.264 38.5099973,19.166001 39.042,18.97 C39.5740027,18.773999 40.0406647,18.4940018 40.442,18.13 C40.8433353,17.7659982 41.1653321,17.3226693 41.408,16.8 C41.6506679,16.2773307 41.772,15.6800034 41.772,15.008 C41.772,14.2613296 41.6273348,13.6313359 41.338,13.118 C41.0486652,12.6046641 40.6613358,12.1893349 40.176,11.872 C39.6906642,11.5546651 39.1400031,11.3260007 38.524,11.186 C37.9079969,11.0459993 37.2733366,10.976 36.62,10.976 L35.752,10.976 L35.752,9.24 Z" id="number" sketch:type="MSShapeGroup"></path>
            </g>
            <g id="field-decimal" sketch:type="MSLayerGroup" transform="translate(0.000000, 206.000000)" fill="#21304A">
                <path d="M10.061287,12.1041879 L12.7170582,12.1041879 L12.7170582,13.7129724 L10.061287,13.7129724 L10.061287,18.0796731 L8.27374872,18.0796731 L8.27374872,13.7129724 L0,13.7129724 L0,11.9254341 L7.66087845,0 L10.061287,0 L10.061287,12.1041879 Z M8.27374872,2.06843718 L8.2226762,2.06843718 L1.91521961,12.1041879 L8.27374872,12.1041879 L8.27374872,2.06843718 Z M16.3432074,21.6547497 L14.8876404,21.6547497 L16.59857,15.6537283 L18.4116445,15.6537283 L16.3432074,21.6547497 Z M32.5076609,1.63432074 L24.9744637,1.63432074 L24.8467824,7.226762 C25.2383404,7.09056793 25.6511725,6.9884239 26.0852911,6.92032686 C26.5194097,6.85222983 26.9407538,6.81818182 27.3493361,6.81818182 C28.200549,6.81818182 28.9836532,6.95437385 29.6986721,7.226762 C30.413691,7.49915015 31.0350672,7.88644625 31.5628192,8.3886619 C32.0905712,8.89087755 32.4991473,9.4909737 32.7885598,10.1889683 C33.0779722,10.886963 33.2226762,11.6530432 33.2226762,12.4872319 C33.2226762,13.3554691 33.0779722,14.1598533 32.7885598,14.9004086 C32.4991473,15.6409639 32.0905712,16.279364 31.5628192,16.8156282 C31.0350672,17.3518924 30.400923,17.7732365 29.6603677,18.0796731 C28.9198124,18.3861098 28.1069162,18.5393258 27.2216547,18.5393258 C25.9107868,18.5393258 24.8042265,18.2414058 23.9019408,17.6455567 C22.999655,17.0497076 22.3016708,16.2495794 21.8079673,15.2451481 L23.4678243,14.5045965 C23.7912852,15.2536639 24.2807254,15.8495041 24.9361593,16.2921348 C25.5915933,16.7347656 26.3193695,16.9560776 27.1195097,16.9560776 C27.732383,16.9560776 28.2984312,16.8496776 28.8176711,16.6368744 C29.336911,16.4240711 29.7837911,16.126151 30.1583248,15.7431052 C30.5328585,15.3600594 30.8265226,14.9046673 31.0393258,14.3769152 C31.2521291,13.8491632 31.3585291,13.278859 31.3585291,12.6659857 C31.3585291,12.0020396 31.2436171,11.4019434 31.0137896,10.8656793 C30.7839621,10.3294151 30.469018,9.87402298 30.0689479,9.49948927 C29.6688778,9.12495557 29.1964617,8.8355475 28.6516854,8.63125638 C28.1069091,8.42696527 27.5110689,8.32482125 26.8641471,8.32482125 C26.2172252,8.32482125 25.5745691,8.41419727 24.9361593,8.59295199 C24.2977496,8.77170672 23.6891415,9.01429877 23.1103166,9.32073544 L23.2890705,0 L32.5076609,0 L32.5076609,1.63432074 Z M40.3217569,7.8907048 L40.3728294,7.94177732 C40.6452176,7.73748621 41.0282577,7.57575817 41.5219612,7.45658836 C42.0156647,7.33741854 42.4923368,7.27783453 42.9519918,7.27783453 C43.7351078,7.27783453 44.4628839,7.41402656 45.1353422,7.68641471 C45.8078004,7.95880286 46.3908726,8.33758695 46.8845761,8.82277835 C47.3782796,9.30796974 47.7655757,9.89529788 48.046476,10.5847804 C48.3273763,11.2742629 48.4678243,12.0275751 48.4678243,12.8447395 C48.4678243,13.6959525 48.3231203,14.4705447 48.0337079,15.1685393 C47.7442955,15.866534 47.3357194,16.4623741 46.8079673,16.9560776 C46.2802153,17.4497812 45.6588391,17.8370772 44.9438202,18.1179775 C44.2288013,18.3988778 43.4456971,18.5393258 42.5944842,18.5393258 C41.7432712,18.5393258 40.960167,18.3988778 40.2451481,18.1179775 C39.5301292,17.8370772 38.9087531,17.4497812 38.381001,16.9560776 C37.853249,16.4623741 37.4446729,15.866534 37.1552605,15.1685393 C36.8658481,14.4705447 36.721144,13.6959525 36.721144,12.8447395 C36.721144,11.9084053 36.8828721,11.0401811 37.206333,10.2400409 C37.5297939,9.43990066 37.912834,8.67382048 38.3554648,7.94177732 L43.2839632,0 L45.4034729,0 L40.3217569,7.8907048 Z M38.5597549,12.8447395 C38.5597549,13.4405886 38.6576429,13.9896127 38.8534219,14.4918284 C39.0492008,14.9940441 39.3258409,15.4281562 39.6833504,15.7941777 C40.0408598,16.1601993 40.4664599,16.4496074 40.9601634,16.6624106 C41.453867,16.8752139 41.9986351,16.9816139 42.5944842,16.9816139 C43.1903332,16.9816139 43.7351014,16.8752139 44.2288049,16.6624106 C44.7225084,16.4496074 45.1481085,16.1601993 45.505618,15.7941777 C45.8631274,15.4281562 46.1397675,14.9940441 46.3355465,14.4918284 C46.5313255,13.9896127 46.6292135,13.4405886 46.6292135,12.8447395 C46.6292135,12.2659147 46.5355815,11.7254026 46.3483146,11.2231869 C46.1610478,10.7209713 45.8929197,10.2868592 45.5439224,9.92083759 C45.1949251,9.55481601 44.7693249,9.26966394 44.2671093,9.06537283 C43.7648936,8.86108172 43.2073575,8.75893769 42.5944842,8.75893769 C41.9816108,8.75893769 41.4240747,8.86108172 40.921859,9.06537283 C40.4196434,9.26966394 39.9940433,9.55481601 39.645046,9.92083759 C39.2960486,10.2868592 39.0279206,10.7209713 38.8406537,11.2231869 C38.6533869,11.7254026 38.5597549,12.2659147 38.5597549,12.8447395 L38.5597549,12.8447395 Z" id="dec" sketch:type="MSShapeGroup"></path>
            </g>
            <g id="field-yn" sketch:type="MSLayerGroup" transform="translate(101.000000, 200.000000)" fill="#21304A">
                <path d="M9.436,21.1507497 L7.42,21.1507497 L7.42,12.6107497 L0,1.32674974 L2.52,1.32674974 L8.484,10.9307497 L14.504,1.32674974 L16.856,1.32674974 L9.436,12.6107497 L9.436,21.1507497 Z M18.62,21.6547497 L16.996,21.1227497 L25.48,0.822749745 L27.076,1.38274974 L18.62,21.6547497 Z M43.904,18.2107497 L43.96,18.2107497 L43.96,1.32674974 L45.976,1.32674974 L45.976,21.1507497 L43.456,21.1507497 L31.92,4.09874974 L31.864,4.09874974 L31.864,21.1507497 L29.848,21.1507497 L29.848,1.32674974 L32.368,1.32674974 L43.904,18.2107497 Z" id="Y/N" sketch:type="MSShapeGroup"></path>
            </g>
            <g id="field-json" sketch:type="MSLayerGroup" transform="translate(201.000000, 201.000000)" fill="#21304A">
                <path d="M0.552995725,12.16 C1.28099937,12.16 1.83166053,11.889336 2.20499573,11.348 C2.57833093,10.806664 2.76499573,10.0413383 2.76499573,9.052 L2.76499573,4.068 C2.76499573,3.4146634 2.84899489,2.86400224 3.01699573,2.416 C3.18499657,1.96799776 3.40899433,1.60866802 3.68899573,1.338 C3.96899713,1.06733198 4.29099391,0.87133394 4.65499573,0.75 C5.01899755,0.62866606 5.39699377,0.568 5.78899573,0.568 L7.55299573,0.568 L7.55299573,2.08 L6.20899573,2.08 C5.87299405,2.08 5.59766347,2.1499993 5.38299573,2.29 C5.16832799,2.4300007 5.00499629,2.61199888 4.89299573,2.836 C4.78099517,3.06000112 4.70632925,3.3119986 4.66899573,3.592 C4.63166221,3.8720014 4.61299573,4.14266536 4.61299573,4.404 L4.61299573,9.388 C4.61299573,10.0600034 4.51499671,10.6246644 4.31899573,11.082 C4.12299475,11.5393356 3.88966375,11.903332 3.61899573,12.174 C3.34832771,12.444668 3.07299713,12.6406661 2.79299573,12.762 C2.51299433,12.8833339 2.28899657,12.9533332 2.12099573,12.972 L2.12099573,13.028 C2.28899657,13.0466668 2.51299433,13.1166661 2.79299573,13.238 C3.07299713,13.3593339 3.34832771,13.555332 3.61899573,13.826 C3.88966375,14.096668 4.12299475,14.4606644 4.31899573,14.918 C4.51499671,15.3753356 4.61299573,15.9399966 4.61299573,16.612 L4.61299573,21.596 C4.61299573,21.8573346 4.63166221,22.1279986 4.66899573,22.408 C4.70632925,22.6880014 4.78099517,22.9399989 4.89299573,23.164 C5.00499629,23.3880011 5.16832799,23.5699993 5.38299573,23.71 C5.59766347,23.8500007 5.87299405,23.92 6.20899573,23.92 L7.55299573,23.92 L7.55299573,25.432 L5.78899573,25.432 C5.39699377,25.432 5.01899755,25.3713339 4.65499573,25.25 C4.29099391,25.1286661 3.96899713,24.932668 3.68899573,24.662 C3.40899433,24.391332 3.18499657,24.0320022 3.01699573,23.584 C2.84899489,23.1359978 2.76499573,22.5853366 2.76499573,21.932 L2.76499573,16.948 C2.76499573,15.9586617 2.57833093,15.193336 2.20499573,14.652 C1.83166053,14.110664 1.28099937,13.84 0.552995725,13.84 L0.552995725,12.16 Z M15.1409957,19.72 C15.1409957,20.112002 15.0009971,20.4619985 14.7209957,20.77 C14.4409943,21.0780015 14.076998,21.232 13.6289957,21.232 C13.1809935,21.232 12.8169971,21.0780015 12.5369957,20.77 C12.2569943,20.4619985 12.1169957,20.112002 12.1169957,19.72 C12.1169957,19.327998 12.2569943,18.9780015 12.5369957,18.67 C12.8169971,18.3619985 13.1809935,18.208 13.6289957,18.208 C14.076998,18.208 14.4409943,18.3619985 14.7209957,18.67 C15.0009971,18.9780015 15.1409957,19.327998 15.1409957,19.72 L15.1409957,19.72 Z M24.4649957,19.72 C24.4649957,20.112002 24.3249971,20.4619985 24.0449957,20.77 C23.7649943,21.0780015 23.400998,21.232 22.9529957,21.232 C22.5049935,21.232 22.1409971,21.0780015 21.8609957,20.77 C21.5809943,20.4619985 21.4409957,20.112002 21.4409957,19.72 C21.4409957,19.327998 21.5809943,18.9780015 21.8609957,18.67 C22.1409971,18.3619985 22.5049935,18.208 22.9529957,18.208 C23.400998,18.208 23.7649943,18.3619985 24.0449957,18.67 C24.3249971,18.9780015 24.4649957,19.327998 24.4649957,19.72 L24.4649957,19.72 Z M33.7889957,19.72 C33.7889957,20.112002 33.6489971,20.4619985 33.3689957,20.77 C33.0889943,21.0780015 32.724998,21.232 32.2769957,21.232 C31.8289935,21.232 31.4649971,21.0780015 31.1849957,20.77 C30.9049943,20.4619985 30.7649957,20.112002 30.7649957,19.72 C30.7649957,19.327998 30.9049943,18.9780015 31.1849957,18.67 C31.4649971,18.3619985 31.8289935,18.208 32.2769957,18.208 C32.724998,18.208 33.0889943,18.3619985 33.3689957,18.67 C33.6489971,18.9780015 33.7889957,19.327998 33.7889957,19.72 L33.7889957,19.72 Z M45.3529957,13.84 C44.6249921,13.84 44.0743309,14.110664 43.7009957,14.652 C43.3276605,15.193336 43.1409957,15.9586617 43.1409957,16.948 L43.1409957,21.932 C43.1409957,22.5853366 43.0569966,23.1359978 42.8889957,23.584 C42.7209949,24.0320022 42.4969971,24.391332 42.2169957,24.662 C41.9369943,24.932668 41.6149975,25.1286661 41.2509957,25.25 C40.8869939,25.3713339 40.5089977,25.432 40.1169957,25.432 L38.3529957,25.432 L38.3529957,23.92 L39.6969957,23.92 C40.0329974,23.92 40.308328,23.8500007 40.5229957,23.71 C40.7376635,23.5699993 40.9009952,23.3880011 41.0129957,23.164 C41.1249963,22.9399989 41.1996622,22.6880014 41.2369957,22.408 C41.2743292,22.1279986 41.2929957,21.8573346 41.2929957,21.596 L41.2929957,16.612 C41.2929957,15.9399966 41.3909947,15.3753356 41.5869957,14.918 C41.7829967,14.4606644 42.0163277,14.096668 42.2869957,13.826 C42.5576637,13.555332 42.8329943,13.3593339 43.1129957,13.238 C43.3929971,13.1166661 43.6169949,13.0466668 43.7849957,13.028 L43.7849957,12.972 C43.6169949,12.9533332 43.3929971,12.8833339 43.1129957,12.762 C42.8329943,12.6406661 42.5576637,12.444668 42.2869957,12.174 C42.0163277,11.903332 41.7829967,11.5393356 41.5869957,11.082 C41.3909947,10.6246644 41.2929957,10.0600034 41.2929957,9.388 L41.2929957,4.404 C41.2929957,4.14266536 41.2743292,3.8720014 41.2369957,3.592 C41.1996622,3.3119986 41.1249963,3.06000112 41.0129957,2.836 C40.9009952,2.61199888 40.7376635,2.4300007 40.5229957,2.29 C40.308328,2.1499993 40.0329974,2.08 39.6969957,2.08 L38.3529957,2.08 L38.3529957,0.568 L40.1169957,0.568 C40.5089977,0.568 40.8869939,0.62866606 41.2509957,0.75 C41.6149975,0.87133394 41.9369943,1.06733198 42.2169957,1.338 C42.4969971,1.60866802 42.7209949,1.96799776 42.8889957,2.416 C43.0569966,2.86400224 43.1409957,3.4146634 43.1409957,4.068 L43.1409957,9.052 C43.1409957,10.0413383 43.3276605,10.806664 43.7009957,11.348 C44.0743309,11.889336 44.6249921,12.16 45.3529957,12.16 L45.3529957,13.84 Z" id="json" sketch:type="MSShapeGroup"></path>
            </g>
            <g id="field-longtext-small" sketch:type="MSLayerGroup" transform="translate(1.000000, 251.000000)">
                <rect id="frame" stroke="#21304A" fill="#FFFFFF" sketch:type="MSShapeGroup" x="0" y="0" width="30" height="30" rx="5"></rect>
                <path d="M5.75,23.5714436 L20.75,23.5714436 C21.164,23.5714436 21.5,23.1700553 21.5,22.6734833 C21.5,22.1778092 21.164,21.775523 20.75,21.775523 L5.75,21.775523 C5.336,21.775523 5,22.1778092 5,22.6734833 C5,23.1700553 5.336,23.5714436 5.75,23.5714436 L5.75,23.5714436 Z M5.75,13.7959205 L25.25,13.7959205 C25.664,13.7959205 26,13.3945323 26,12.8979603 C26,12.4022862 25.664,12 25.25,12 L5.75,12 C5.336,12 5,12.4022862 5,12.8979603 C5,13.3945323 5.336,13.7959205 5.75,13.7959205 L5.75,13.7959205 Z M5.75,18.7959205 L25.25,18.7959205 C25.664,18.7959205 26,18.3945323 26,17.8979603 C26,17.4022862 25.664,17 25.25,17 L5.75,17 C5.336,17 5,17.4022862 5,17.8979603 C5,18.3945323 5.336,18.7959205 5.75,18.7959205 L5.75,18.7959205 Z M5.75,8.79592051 L25.25,8.79592051 C25.664,8.79592051 26,8.39453227 26,7.89796025 C26,7.40228619 25.664,7 25.25,7 L5.75,7 C5.336,7 5,7.40228619 5,7.89796025 C5,8.39453227 5.336,8.79592051 5.75,8.79592051 L5.75,8.79592051 Z" id="LongText" fill="#000000" sketch:type="MSShapeGroup"></path>
            </g>
            <g id="field-calendar-small" sketch:type="MSLayerGroup" transform="translate(201.000000, 251.000000)" stroke="#000000">
                <rect id="Frame" fill="#FFFFFF" sketch:type="MSShapeGroup" x="0" y="0" width="30" height="30" rx="5"></rect>
                <g id="Calendar" transform="translate(5.000000, 5.000000)" sketch:type="MSShapeGroup">
                    <rect id="Rectangle-3" x="0" y="0.769230769" width="20" height="18.974359" rx="2"></rect>
                    <path d="M0.512396892,4.5 L18.974807,4.5" id="Line" stroke-linecap="square"></path>
                    <path d="M3.5,2.18468734 L3.5,0.133405289" id="Line-3" stroke-linecap="round" stroke-linejoin="round"></path>
                    <path d="M15.5,2.18468734 L15.5,0.133405289" id="Line-4" stroke-linecap="round" stroke-linejoin="round"></path>
                </g>
            </g>
            <g id="field-location-small" sketch:type="MSLayerGroup" transform="translate(1.000000, 301.000000)" stroke="#21304A">
                <rect id="frame" fill="#FFFFFF" sketch:type="MSShapeGroup" x="0" y="0" width="30" height="30" rx="5"></rect>
                <path d="M14.8947368,25 C15.3591331,25 22.7894737,17.2738794 22.7894737,12.9069767 C22.7894737,8.54007407 19.2548796,5 14.8947368,5 C10.5345941,5 7,8.54007407 7,12.9069767 C7,17.2738794 14.4303406,25 14.8947368,25 Z M14.8947368,17.5581395 C17.4595267,17.5581395 19.5386997,15.475743 19.5386997,12.9069767 C19.5386997,10.3382105 17.4595267,8.25581395 14.8947368,8.25581395 C12.329947,8.25581395 10.250774,10.3382105 10.250774,12.9069767 C10.250774,15.475743 12.329947,17.5581395 14.8947368,17.5581395 Z" id="Location" sketch:type="MSShapeGroup"></path>
            </g>
            <g id="field-media-small" sketch:type="MSLayerGroup" transform="translate(51.000000, 301.000000)" stroke="#21304A">
                <rect id="frame" fill="#FFFFFF" sketch:type="MSShapeGroup" x="0" y="0" width="30" height="30" rx="5"></rect>
                <g id="media" transform="translate(6.000000, 6.000000)" sketch:type="MSShapeGroup">
                    <rect id="Rectangle-3" fill="#FFFFFF" x="0" y="0.250272436" width="19.52125" height="19.0207051" rx="2"></rect>
                    <path d="M0.625,11.965625 L6.875,6.965625 L15,18.215625" id="Line" stroke-linecap="round" stroke-linejoin="round"></path>
                    <path d="M11.875,12.590625 L14.375,10.090625 L18.75,13.996875" id="Line-13" stroke-linecap="round" stroke-linejoin="round"></path>
                    <circle id="Oval-2" cx="12.8125" cy="5.403125" r="1.5625"></circle>
                </g>
            </g>
            <g id="field-reference-small" sketch:type="MSLayerGroup" transform="translate(201.000000, 301.000000)" stroke="#21304A">
                <rect id="frame" fill="#FFFFFF" sketch:type="MSShapeGroup" x="0" y="0" width="30" height="30" rx="5"></rect>
                <g id="Reference" transform="translate(5.000000, 5.000000)" sketch:type="MSShapeGroup">
                    <rect id="Rectangle-6" x="8" y="6.20021795" width="12" height="13" rx="2"></rect>
                    <rect id="Rectangle-3" fill="#FFFFFF" x="0" y="0.200217949" width="12" height="13" rx="2"></rect>
                    <path d="M6,6.1455 L13.5,11.1455" id="Line" stroke-linecap="round" stroke-linejoin="round"></path>
                    <circle id="Oval-7" cx="4.75" cy="4.8955" r="1.75"></circle>
                    <circle id="Oval-8" cx="15.25" cy="12.3955" r="1.75"></circle>
                </g>
            </g>
            <g id="field-shorttext-small" sketch:type="MSLayerGroup" transform="translate(51.000000, 251.000000)">
                <rect id="frame" stroke="#21304A" fill="#FFFFFF" sketch:type="MSShapeGroup" x="0" y="0" width="30" height="30" rx="5"></rect>
                <path d="M6.76,21.096 L5,21.096 L9.912,9.768 L11.352,9.768 L16.216,21.096 L14.424,21.096 L13.272,18.312 L7.896,18.312 L6.76,21.096 Z M8.456,16.92 L12.696,16.92 L10.584,11.608 L8.456,16.92 Z M19.08,19.896 L19.08,21.096 L17.624,21.096 L17.624,9 L19.128,9 L19.128,14.648 L19.176,14.648 C19.4320013,14.2746648 19.789331,13.9573346 20.248,13.696 C20.706669,13.4346654 21.2506635,13.304 21.88,13.304 C22.4453362,13.304 22.9599977,13.4053323 23.424,13.608 C23.8880023,13.8106677 24.2879983,14.0933315 24.624,14.456 C24.9600017,14.8186685 25.2186658,15.2426642 25.4,15.728 C25.5813342,16.2133358 25.672,16.7333306 25.672,17.288 C25.672,17.8426694 25.5813342,18.3653309 25.4,18.856 C25.2186658,19.3466691 24.9626683,19.7733315 24.632,20.136 C24.3013317,20.4986685 23.9013357,20.783999 23.432,20.992 C22.9626643,21.200001 22.4346696,21.304 21.848,21.304 C21.3039973,21.304 20.7866691,21.1840012 20.296,20.944 C19.8053309,20.7039988 19.4106682,20.354669 19.112,19.896 L19.08,19.896 Z M24.12,17.288 C24.12,16.9359982 24.0666672,16.5946683 23.96,16.264 C23.8533328,15.9333317 23.6933344,15.6400013 23.48,15.384 C23.2666656,15.1279987 23.0026682,14.9253341 22.688,14.776 C22.3733318,14.6266659 22.0080021,14.552 21.592,14.552 C21.2079981,14.552 20.8586682,14.6266659 20.544,14.776 C20.2293318,14.9253341 19.9600011,15.1279987 19.736,15.384 C19.5119989,15.6400013 19.3386673,15.9333317 19.216,16.264 C19.0933327,16.5946683 19.032,16.9413315 19.032,17.304 C19.032,17.6666685 19.0933327,18.0133317 19.216,18.344 C19.3386673,18.6746683 19.5119989,18.9653321 19.736,19.216 C19.9600011,19.4666679 20.2293318,19.6666659 20.544,19.816 C20.8586682,19.9653341 21.2079981,20.04 21.592,20.04 C22.0080021,20.04 22.3733318,19.9626674 22.688,19.808 C23.0026682,19.6533326 23.2666656,19.4480013 23.48,19.192 C23.6933344,18.9359987 23.8533328,18.6426683 23.96,18.312 C24.0666672,17.9813317 24.12,17.6400018 24.12,17.288 L24.12,17.288 Z" id="Ab" fill="#000000" sketch:type="MSShapeGroup"></path>
            </g>
            <g id="field-number-small" sketch:type="MSLayerGroup" transform="translate(101.000000, 251.000000)">
                <rect id="frame" stroke="#21304A" fill="#FFFFFF" sketch:type="MSShapeGroup" x="0" y="0" width="30" height="30" rx="5"></rect>
                <path d="M10.608,20.616 L9.056,20.616 L9.056,11.176 L6.912,12.968 L6,11.896 L9.216,9.288 L10.608,9.288 L10.608,20.616 Z M22.416,20.616 L15.024,20.616 L15.024,19.128 L19.536,14.648 C19.877335,14.2959982 20.1706654,13.9280019 20.416,13.544 C20.6613346,13.1599981 20.784,12.7280024 20.784,12.248 C20.784,11.9493318 20.7306672,11.6800012 20.624,11.44 C20.5173328,11.1999988 20.3733342,10.9946675 20.192,10.824 C20.0106658,10.6533325 19.7973346,10.5226671 19.552,10.432 C19.3066654,10.3413329 19.0453347,10.296 18.768,10.296 C18.1919971,10.296 17.7173352,10.4799982 17.344,10.848 C16.9706648,11.2160018 16.7360005,11.6879971 16.64,12.264 L15.12,12.008 C15.1840003,11.5813312 15.319999,11.1840018 15.528,10.816 C15.736001,10.4479982 15.9999984,10.1280014 16.32,9.856 C16.6400016,9.58399864 17.0106646,9.37333408 17.432,9.224 C17.8533354,9.07466592 18.3039976,9 18.784,9 C19.2533357,9 19.7039978,9.06933264 20.136,9.208 C20.5680022,9.34666736 20.9493317,9.549332 21.28,9.816 C21.6106683,10.082668 21.8746657,10.4186646 22.072,10.824 C22.2693343,11.2293354 22.368,11.6933307 22.368,12.216 C22.368,12.5786685 22.3200005,12.9146651 22.224,13.224 C22.1279995,13.5333349 21.9973342,13.8266653 21.832,14.104 C21.6666658,14.3813347 21.4720011,14.6453321 21.248,14.896 C21.0239989,15.1466679 20.7893346,15.3946654 20.544,15.64 L16.864,19.224 L22.416,19.224 L22.416,20.616 Z" id="number" fill="#000000" sketch:type="MSShapeGroup"></path>
            </g>
            <g id="field-decimal-small" sketch:type="MSLayerGroup" transform="translate(151.000000, 251.000000)">
                <rect id="frame" stroke="#21304A" fill="#FFFFFF" sketch:type="MSShapeGroup" x="0" y="0" width="30" height="30" rx="5"></rect>
                <path d="M11.72,17.456 L13.352,17.456 L13.352,18.784 L11.72,18.784 L11.72,21.328 L10.216,21.328 L10.216,18.784 L5,18.784 L5,17.376 L9.816,10 L11.72,10 L11.72,17.456 Z M10.216,11.776 L10.184,11.776 L6.6,17.456 L10.216,17.456 L10.216,11.776 Z M14.8479999,23.456 L13.5679999,23.456 L14.6719999,19.456 L16.1759999,19.456 L14.8479999,23.456 Z M24.0239998,11.376 L19.3519998,11.376 L19.2559998,14.352 C19.4693342,14.277333 19.7066651,14.2240002 19.9679998,14.192 C20.2293344,14.1599998 20.4773319,14.144 20.7119998,14.144 C21.2560025,14.144 21.7599974,14.2266658 22.2239998,14.392 C22.6880021,14.5573342 23.0879981,14.7946651 23.4239998,15.104 C23.7600014,15.4133349 24.0239988,15.7893311 24.2159998,16.232 C24.4080007,16.6746689 24.5039998,17.1679973 24.5039998,17.712 C24.5039998,18.3093363 24.4026674,18.8479976 24.1999998,19.328 C23.9973321,19.8080024 23.7200015,20.2159983 23.3679998,20.552 C23.015998,20.8880017 22.6000022,21.1493324 22.1199998,21.336 C21.6399974,21.5226676 21.1173359,21.616 20.5519998,21.616 C19.666662,21.616 18.9200028,21.4106687 18.3119998,21 C17.7039967,20.5893313 17.2453346,20.0373368 16.9359998,19.344 L18.3439998,18.784 C18.525334,19.242669 18.8106645,19.6106653 19.1999998,19.888 C19.589335,20.1653347 20.0399972,20.304 20.5519998,20.304 C20.8826681,20.304 21.1919983,20.2453339 21.4799998,20.128 C21.7680012,20.0106661 22.0186654,19.8453344 22.2319998,19.632 C22.4453342,19.4186656 22.6133325,19.1626682 22.7359998,18.864 C22.858667,18.5653318 22.9199998,18.2346685 22.9199998,17.872 C22.9199998,17.4453312 22.8480005,17.0746682 22.7039998,16.76 C22.559999,16.4453318 22.3653343,16.1866677 22.1199998,15.984 C21.8746652,15.7813323 21.5920014,15.6320005 21.2719998,15.536 C20.9519982,15.4399995 20.6160015,15.392 20.2639998,15.392 C19.837331,15.392 19.400002,15.4506661 18.9519998,15.568 C18.5039975,15.6853339 18.1040015,15.8346658 17.7519998,16.016 L17.9119998,10 L24.0239998,10 L24.0239998,11.376 Z" id="Decimal" fill="#000000" sketch:type="MSShapeGroup"></path>
            </g>
            <g id="field-yn-small" sketch:type="MSLayerGroup" transform="translate(101.000000, 301.000000)">
                <rect id="frame" stroke="#21304A" fill="#FFFFFF" sketch:type="MSShapeGroup" x="0" y="0" width="30" height="30" rx="5"></rect>
                <path d="M9.84,21.328 L8.24,21.328 L8.24,16.432 L4,10 L5.952,10 L9.088,15.12 L12.24,10 L14.08,10 L9.84,16.432 L9.84,21.328 Z M23.392,19.056 L23.424,19.056 L23.424,10 L25.008,10 L25.008,21.328 L23.008,21.328 L17.024,12.08 L16.992,12.08 L16.992,21.328 L15.408,21.328 L15.408,10 L17.472,10 L23.392,19.056 Z" id="YN" fill="#000000" sketch:type="MSShapeGroup"></path>
            </g>
            <g id="field-json-small" sketch:type="MSLayerGroup" transform="translate(151.000000, 301.000000)">
                <rect id="frame" stroke="#21304A" fill="#FFFFFF" sketch:type="MSShapeGroup" x="0" y="0" width="30" height="30" rx="5"></rect>
                <path d="M6,14.512 C6.3200016,14.512 6.59733216,14.4000011 6.832,14.176 C7.06666784,13.9519989 7.184,13.5840026 7.184,13.072 L7.184,10.064 C7.184,9.70133152 7.23466616,9.38933464 7.336,9.128 C7.43733384,8.86666536 7.57599912,8.65066752 7.752,8.48 C7.92800088,8.30933248 8.13066552,8.18666704 8.36,8.112 C8.58933448,8.03733296 8.82666544,8 9.072,8 L10.16,8 L10.16,9.104 L9.344,9.104 C9.16266576,9.104 9.0186672,9.13866632 8.912,9.208 C8.8053328,9.27733368 8.7253336,9.36799944 8.672,9.48 C8.6186664,9.59200056 8.58133344,9.714666 8.56,9.848 C8.53866656,9.981334 8.528,10.1173326 8.528,10.256 L8.528,13.184 C8.528,13.5360018 8.47200056,13.8293322 8.36,14.064 C8.24799944,14.2986678 8.1120008,14.4879993 7.952,14.632 C7.7919992,14.7760007 7.62666752,14.885333 7.456,14.96 C7.28533248,15.034667 7.1466672,15.0773333 7.04,15.088 L7.04,15.12 C7.1466672,15.1306667 7.28533248,15.1679997 7.456,15.232 C7.62666752,15.2960003 7.7919992,15.3999993 7.952,15.544 C8.1120008,15.6880007 8.24799944,15.8826654 8.36,16.128 C8.47200056,16.3733346 8.528,16.6879981 8.528,17.072 L8.528,19.952 C8.528,20.0906674 8.53866656,20.226666 8.56,20.36 C8.58133344,20.493334 8.6186664,20.6159994 8.672,20.728 C8.7253336,20.8400006 8.8053328,20.9306663 8.912,21 C9.0186672,21.0693337 9.16266576,21.104 9.344,21.104 L10.16,21.104 L10.16,22.208 L9.072,22.208 C8.82666544,22.208 8.58933448,22.170667 8.36,22.096 C8.13066552,22.021333 7.92800088,21.8986675 7.752,21.728 C7.57599912,21.5573325 7.43733384,21.3440013 7.336,21.088 C7.23466616,20.8319987 7.184,20.5173352 7.184,20.144 L7.184,17.2 C7.184,16.6559973 7.06666784,16.2693345 6.832,16.04 C6.59733216,15.8106655 6.3200016,15.696 6,15.696 L6,14.512 Z M14.112,18.752 C14.112,19.0293347 14.0106677,19.2746656 13.808,19.488 C13.6053323,19.7013344 13.3493349,19.808 13.04,19.808 C12.7413318,19.808 12.488001,19.704001 12.28,19.496 C12.071999,19.287999 11.968,19.0453347 11.968,18.768 C11.968,18.4799986 12.0693323,18.232001 12.272,18.024 C12.4746677,17.815999 12.7306651,17.712 13.04,17.712 C13.3493349,17.712 13.6053323,17.8133323 13.808,18.016 C14.0106677,18.2186677 14.112,18.4639986 14.112,18.752 L14.112,18.752 Z M18.272,18.752 C18.272,19.0293347 18.1706677,19.2746656 17.968,19.488 C17.7653323,19.7013344 17.5093349,19.808 17.2,19.808 C16.9013318,19.808 16.648001,19.704001 16.44,19.496 C16.231999,19.287999 16.128,19.0453347 16.128,18.768 C16.128,18.4799986 16.2293323,18.232001 16.432,18.024 C16.6346677,17.815999 16.8906651,17.712 17.2,17.712 C17.5093349,17.712 17.7653323,17.8133323 17.968,18.016 C18.1706677,18.2186677 18.272,18.4639986 18.272,18.752 L18.272,18.752 Z M24.24,15.696 C23.9199984,15.696 23.6426678,15.8106655 23.408,16.04 C23.1733322,16.2693345 23.056,16.6559973 23.056,17.2 L23.056,20.144 C23.056,20.5173352 23.0053338,20.8319987 22.904,21.088 C22.8026662,21.3440013 22.6640009,21.5573325 22.488,21.728 C22.3119991,21.8986675 22.1093345,22.021333 21.88,22.096 C21.6506655,22.170667 21.4133346,22.208 21.168,22.208 L20.08,22.208 L20.08,21.104 L20.912,21.104 C21.0826675,21.104 21.2213328,21.0693337 21.328,21 C21.4346672,20.9306663 21.5146664,20.8400006 21.568,20.728 C21.6213336,20.6159994 21.6586666,20.493334 21.68,20.36 C21.7013334,20.226666 21.712,20.0906674 21.712,19.952 L21.712,17.072 C21.712,16.6879981 21.7679994,16.3733346 21.88,16.128 C21.9920006,15.8826654 22.1279992,15.6880007 22.288,15.544 C22.4480008,15.3999993 22.6133325,15.2960003 22.784,15.232 C22.9546675,15.1679997 23.0986661,15.1306667 23.216,15.12 L23.216,15.088 C23.0986661,15.0773333 22.9546675,15.034667 22.784,14.96 C22.6133325,14.885333 22.4480008,14.7760007 22.288,14.632 C22.1279992,14.4879993 21.9920006,14.2986678 21.88,14.064 C21.7679994,13.8293322 21.712,13.5360018 21.712,13.184 L21.712,10.256 C21.712,10.1173326 21.7013334,9.981334 21.68,9.848 C21.6586666,9.714666 21.6213336,9.59200056 21.568,9.48 C21.5146664,9.36799944 21.4346672,9.27733368 21.328,9.208 C21.2213328,9.13866632 21.0826675,9.104 20.912,9.104 L20.08,9.104 L20.08,8 L21.168,8 C21.4133346,8 21.6506655,8.03733296 21.88,8.112 C22.1093345,8.18666704 22.3119991,8.30933248 22.488,8.48 C22.6640009,8.65066752 22.8026662,8.86666536 22.904,9.128 C23.0053338,9.38933464 23.056,9.70133152 23.056,10.064 L23.056,13.072 C23.056,13.5840026 23.1733322,13.9519989 23.408,14.176 C23.6426678,14.4000011 23.9199984,14.512 24.24,14.512 L24.24,15.696 Z" id="json" fill="#000000" sketch:type="MSShapeGroup"></path>
            </g>
            <g id="plus" sketch:type="MSLayerGroup" transform="translate(100.000000, 350.000000)">
                <circle id="Oval-20" fill="#000000" sketch:type="MSShapeGroup" cx="24.5" cy="24.5" r="24.5"></circle>
                <path d="M11.6052632,24.5 L37.3947368,24.5" id="Path" stroke="#FFFFFF" stroke-width="5" fill="#FFFFFF" sketch:type="MSShapeGroup"></path>
                <path d="M24.5,11.6052632 L24.5,37.3947368" id="Path" stroke="#FFFFFF" stroke-width="5" fill="#FFFFFF" sketch:type="MSShapeGroup"></path>
            </g>
            <g id="info" sketch:type="MSLayerGroup" transform="translate(150.000000, 350.000000)">
                <g>
                    <use fill="#000000" fill-rule="evenodd" sketch:type="MSShapeGroup" xlink:href="#path-1"></use>
                    <use fill="none" xlink:href="#path-1"></use>
                </g>
            </g>
            <g id="close" sketch:type="MSLayerGroup" transform="translate(200.000000, 350.000000)" fill="#000000">
                <path d="M17.3372846,24.8757461 L4.14497689,11.6834384 L0.375746116,7.91420765 L7.91420765,0.375746116 L11.6834384,4.14497689 L24.8757461,17.3372846 L38.0680538,4.14497689 L41.8372846,0.375746116 L49.3757461,7.91420765 L45.6065153,11.6834384 L32.4142077,24.8757461 L45.6065153,38.0680538 L49.3757461,41.8372846 L41.8372846,49.3757461 L38.0680538,45.6065153 L24.8757461,32.4142077 L11.6834384,45.6065153 L7.91420765,49.3757461 L0.375746116,41.8372846 L4.14497689,38.0680538 L17.3372846,24.8757461 L17.3372846,24.8757461 Z" sketch:type="MSShapeGroup"></path>
            </g>
            <g id="lock" sketch:type="MSLayerGroup" transform="translate(1.000000, 451.000000)" fill="#000000">
                <path d="M2.85714626,5.71429253 L2.85714626,4.00000477 C2.85714626,2.7410747 3.8839332,1.71428776 5.14286327,1.71428776 C6.40179335,1.71428776 7.42858028,2.7410747 7.42858028,4.00000477 L7.42858028,5.71429253 L2.85714626,5.71429253 Z M10.2857265,6.57143641 C10.2857265,6.09822156 9.90179752,5.71429253 9.42858267,5.71429253 L9.14286804,5.71429253 L9.14286804,4.00000477 C9.14286804,1.80357358 7.33929446,0 5.14286327,0 C2.94643208,0 1.14285851,1.80357358 1.14285851,4.00000477 L1.14285851,5.71429253 L0.857143879,5.71429253 C0.383929029,5.71429253 0,6.09822156 0,6.57143641 L0,11.7142997 C0,12.1875145 0.383929029,12.5714436 0.857143879,12.5714436 L9.42858267,12.5714436 C9.90179752,12.5714436 10.2857265,12.1875145 10.2857265,11.7142997 L10.2857265,6.57143641 Z" sketch:type="MSShapeGroup"></path>
            </g>
            <g id="drag-handle" sketch:type="MSLayerGroup" transform="translate(151.000000, 401.000000)" fill="#000000">
                <path d="M0.25,3 L2.75,3 L3,3 L3,0 L2.75,0 L0.25,0 L0,0 L0,3 L0.25,3 Z M0.25,8.8 L2.75,8.8 L3,8.8 L3,5.8 L2.75,5.8 L0.25,5.8 L0,5.8 L0,8.8 L0.25,8.8 Z M0.25,14.6 L2.75,14.6 L3,14.6 L3,11.6 L2.75,11.6 L0.25,11.6 L0,11.6 L0,14.6 L0.25,14.6 Z" id="Handle" sketch:type="MSShapeGroup" transform="translate(1.500000, 7.300000) scale(-1, 1) translate(-1.500000, -7.300000) "></path>
            </g>
            <g id="arrow-up" sketch:type="MSLayerGroup" transform="translate(56.000000, 452.000000)" stroke="#A2A9B1" stroke-width="2" fill="#E8F7FF">
                <path d="M0.382852249,34.5400085 L19.4024672,0.874207299 L38.5519287,34.769989" id="Path-123" sketch:type="MSShapeGroup"></path>
            </g>
            <g id="dd-arrow-down" sketch:type="MSLayerGroup" transform="translate(2.000000, 362.000000)" fill="#000000">
                <path d="M44.4406222,7.66602476 C45.1381676,6.96847929 45.1381676,5.82450471 44.4406222,5.12695924 L39.8089202,0.523159106 C39.1113747,-0.174386369 37.995302,-0.174386369 37.2977565,0.523159106 L22.4818906,15.339025 L7.66602476,0.523159106 C6.96847929,-0.174386369 5.85240653,-0.174386369 5.15486106,0.523159106 L0.523159106,5.12695924 C-0.174386369,5.82450471 -0.174386369,6.96847929 0.523159106,7.66602476 L21.2263088,28.3412726 C21.9238543,29.0388181 23.039927,29.0388181 23.7374725,28.3412726 L44.4406222,7.66602476 Z" sketch:type="MSShapeGroup"></path>
            </g>
            <g id="checkmark" sketch:type="MSLayerGroup" transform="translate(50.000000, 350.000000)" fill="#16B86F">
                <path d="M46.6239395,8.64952131 C46.6239395,7.95197583 46.3449213,7.25443036 45.8426886,6.75219762 L42.0480412,2.95755024 C41.5458085,2.4553175 40.848263,2.17629931 40.1507175,2.17629931 C39.453172,2.17629931 38.7556266,2.4553175 38.2533938,2.95755024 L19.9498006,21.2890453 L11.7466658,13.0580087 C11.244433,12.555776 10.5468876,12.2767578 9.8493421,12.2767578 C9.15179662,12.2767578 8.45425115,12.555776 7.95201841,13.0580087 L4.15737103,16.8526561 C3.65513829,17.3548888 3.3761201,18.0524343 3.3761201,18.7499798 C3.3761201,19.4475253 3.65513829,20.1450707 4.15737103,20.6473035 L14.2578295,30.7477619 L18.0524769,34.5424093 C18.5547096,35.0446421 19.2522551,35.3236602 19.9498006,35.3236602 C20.647346,35.3236602 21.3448915,35.0446421 21.8471243,34.5424093 L25.6417716,30.7477619 L45.8426886,10.546845 C46.3449213,10.0446123 46.6239395,9.34706678 46.6239395,8.64952131 L46.6239395,8.64952131 Z" id="Checkmark" sketch:type="MSShapeGroup"></path>
            </g>
            <g id="fd-headings" sketch:type="MSLayerGroup" transform="translate(0.000000, 394.000000)" font-size="30" font-family="Georgia" fill="#2D2F31" font-weight="normal">
                <text id="Headings" sketch:type="MSTextLayer">
                    <tspan x="0" y="28">H</tspan>
                </text>
            </g>
            <g id="fd-info-text" sketch:type="MSLayerGroup" transform="translate(51.000000, 396.000000)" font-weight="normal" font-family="Georgia" fill="#2D2F31" font-size="30" font-style="italic">
                <text id="i" sketch:type="MSTextLayer">
                    <tspan x="0" y="28">i</tspan>
                </text>
            </g>
            <g id="fd-separator" sketch:type="MSLayerGroup" transform="translate(101.000000, 402.000000)">
                <g id="Middle">
                    <use fill="#2D2F31" fill-rule="evenodd" sketch:type="MSShapeGroup" xlink:href="#path-2"></use>
                    <use fill="none" xlink:href="#path-2"></use>
                </g>
                <g id="Top">
                    <use fill="#D6DDE5" fill-rule="evenodd" sketch:type="MSShapeGroup" xlink:href="#path-3"></use>
                    <use fill="none" xlink:href="#path-3"></use>
                </g>
                <g id="Bottom">
                    <use fill="#D6DDE5" fill-rule="evenodd" sketch:type="MSShapeGroup" xlink:href="#path-4"></use>
                    <use fill="none" xlink:href="#path-4"></use>
                </g>
            </g>
            <text id="Page-icons" sketch:type="MSTextLayer" font-family="Avenir Next" font-size="12" font-weight="normal" fill="#979797">
                <tspan x="263" y="79">Page icons</tspan>
            </text>
            <text id="Top-bar/nav-icons" sketch:type="MSTextLayer" font-family="Avenir Next" font-size="12" font-weight="normal" fill="#979797">
                <tspan x="263" y="119">Top bar/nav icons</tspan>
            </text>
            <text id="Fields-big-icons" sketch:type="MSTextLayer" font-family="Avenir Next" font-size="12" font-weight="normal" fill="#979797">
                <tspan x="263" y="169">Fields big icons</tspan>
            </text>
            <text id="Fields-small-icons" sketch:type="MSTextLayer" font-family="Avenir Next" font-size="12" font-weight="normal" fill="#979797">
                <tspan x="263" y="269">Fields small icons</tspan>
            </text>
        </g>
    </g>
</svg>