<?xml version="1.0" encoding="UTF-8" standalone="no"?>
<svg width="500px" height="200px" viewBox="0 0 500 200" version="1.1" xmlns="http://www.w3.org/2000/svg" xmlns:xlink="http://www.w3.org/1999/xlink" xmlns:sketch="http://www.bohemiancoding.com/sketch/ns">
    <!-- Generator: Sketch 3.2.2 (9983) - http://www.bohemiancoding.com/sketch -->
    <title>ContentfulIcons</title>
    <desc>Created with Sketch.</desc>
    <defs>
        <rect id="path-1" x="0" y="0" width="15.3207547" height="14.2040816" rx="40"></rect>
    </defs>
    <g id="Page-1" stroke="none" stroke-width="1" fill="none" fill-rule="evenodd" sketch:type="MSPage">
        <g id="ContentfulIcons" sketch:type="MSArtboardGroup">
            <g id="contentTypes" sketch:type="MSLayerGroup">
                <rect id="Rectangle-250" stroke="#28A8E9" fill="#21304A" sketch:type="MSShapeGroup" x="0" y="2.16275862" width="16.7261663" height="21.3572414" rx="2"></rect>
                <rect id="Rectangle-251" stroke="#28A8E9" fill="#21304A" sketch:type="MSShapeGroup" x="3.64198783" y="0" width="18.6146045" height="23.52" rx="2"></rect>
                <path d="M7.28397566,7.84 L18.8969222,7.84 C19.1949095,7.84 19.4364759,7.597925 19.4364759,7.29931034 C19.4364759,7.00069569 19.1949095,6.75862069 18.8969222,6.75862069 L7.28397566,6.75862069 C6.98598835,6.75862069 6.74442191,7.00069569 6.74442191,7.29931034 C6.74442191,7.597925 6.98598835,7.84 7.28397566,7.84 Z M7.28397566,11.0841379 L18.8969222,11.0841379 C19.1949095,11.0841379 19.4364759,10.8420629 19.4364759,10.5434483 C19.4364759,10.2448336 19.1949095,10.0027586 18.8969222,10.0027586 L7.28397566,10.0027586 C6.98598835,10.0027586 6.74442191,10.2448336 6.74442191,10.5434483 C6.74442191,10.8420629 6.98598835,11.0841379 7.28397566,11.0841379 Z M7.28397566,14.3282759 L18.8969222,14.3282759 C19.1949095,14.3282759 19.4364759,14.0862009 19.4364759,13.7875862 C19.4364759,13.4889716 19.1949095,13.2468966 18.8969222,13.2468966 L7.28397566,13.2468966 C6.98598835,13.2468966 6.74442191,13.4889716 6.74442191,13.7875862 C6.74442191,14.0862009 6.98598835,14.3282759 7.28397566,14.3282759 Z M7.28397566,17.5724138 L12.0127724,17.5724138 C12.3107597,17.5724138 12.5523261,17.3303388 12.5523261,17.0317241 C12.5523261,16.7331095 12.3107597,16.4910345 12.0127724,16.4910345 L7.28397566,16.4910345 C6.98598835,16.4910345 6.74442191,16.7331095 6.74442191,17.0317241 C6.74442191,17.3303388 6.98598835,17.5724138 7.28397566,17.5724138 Z M7.28397566,4.59586207 L18.8969222,4.59586207 C19.1949095,4.59586207 19.4364759,4.35378706 19.4364759,4.05517241 C19.4364759,3.75655776 19.1949095,3.51448276 18.8969222,3.51448276 L7.28397566,3.51448276 C6.98598835,3.51448276 6.74442191,3.75655776 6.74442191,4.05517241 C6.74442191,4.35378706 6.98598835,4.59586207 7.28397566,4.59586207 Z" id="Line-3" fill="#28A8E9" sketch:type="MSShapeGroup"></path>
                <path d="M23.7250031,16.2143134 L23.7249203,16.2143134 C23.2103984,16.2143134 22.7171975,16.0102643 22.3534138,15.6470189 L18.2700687,11.5697158 C17.8484903,11.1488025 17.6284481,10.5654271 17.6676541,9.97142759 C17.7369167,8.92406368 17.370856,7.85342594 16.5691821,7.05285562 C15.5113651,5.99668652 13.982869,5.69759913 12.6581448,6.1549734 L15.0632491,8.55656032 C15.118477,9.49346653 13.6676891,10.9420664 12.7293945,10.8869202 L10.324373,8.48541597 C9.86623815,9.80818004 10.1658101,11.3344971 11.2235444,12.3906663 C12.0252182,13.1911952 13.0974425,13.5567143 14.1463999,13.4875542 C14.7418592,13.4483236 15.3251883,13.6677094 15.747098,14.0890361 L19.7315793,18.0675804 C20.1259992,18.4614167 20.344758,18.997831 20.3378441,19.5547908 C20.3376785,19.5688047 20.3375957,19.5828187 20.3375957,19.5968739 C20.3375957,21.4649402 21.85421,22.9793103 23.7250445,22.9793103 C25.595879,22.9793103 27.1125761,21.4649402 27.1125761,19.5968739 C27.1125761,17.7286836 25.595879,16.2143134 23.7250031,16.2143134 L23.7250031,16.2143134 Z M24.2212675,21.4546468 L22.3695599,20.9591993 L21.8732541,19.1101903 L23.2288629,17.7566701 L25.0806533,18.2520762 L25.5767935,20.1010852 L24.2212675,21.4546468 L24.2212675,21.4546468 Z" id="wrench-4-icon" fill="#FFFFFF" sketch:type="MSShapeGroup"></path>
            </g>
            <g id="entries" sketch:type="MSLayerGroup" transform="translate(28.000000, 0.000000)">
                <rect id="Rectangle-250" stroke="#FFFFFF" fill="#21304A" sketch:type="MSShapeGroup" x="0" y="2.16275862" width="16.7261663" height="21.3572414" rx="2"></rect>
                <rect id="Rectangle-251" stroke="#FFFFFF" fill="#21304A" sketch:type="MSShapeGroup" x="3.64198783" y="0" width="18.6146045" height="23.52" rx="2"></rect>
                <path d="M7.28397566,7.84 L18.8969222,7.84 C19.1949095,7.84 19.4364759,7.597925 19.4364759,7.29931034 C19.4364759,7.00069569 19.1949095,6.75862069 18.8969222,6.75862069 L7.28397566,6.75862069 C6.98598835,6.75862069 6.74442191,7.00069569 6.74442191,7.29931034 C6.74442191,7.597925 6.98598835,7.84 7.28397566,7.84 Z M7.28397566,11.0841379 L18.8969222,11.0841379 C19.1949095,11.0841379 19.4364759,10.8420629 19.4364759,10.5434483 C19.4364759,10.2448336 19.1949095,10.0027586 18.8969222,10.0027586 L7.28397566,10.0027586 C6.98598835,10.0027586 6.74442191,10.2448336 6.74442191,10.5434483 C6.74442191,10.8420629 6.98598835,11.0841379 7.28397566,11.0841379 Z M7.28397566,14.3282759 L18.8969222,14.3282759 C19.1949095,14.3282759 19.4364759,14.0862009 19.4364759,13.7875862 C19.4364759,13.4889716 19.1949095,13.2468966 18.8969222,13.2468966 L7.28397566,13.2468966 C6.98598835,13.2468966 6.74442191,13.4889716 6.74442191,13.7875862 C6.74442191,14.0862009 6.98598835,14.3282759 7.28397566,14.3282759 Z M7.28397566,17.5724138 L12.0127724,17.5724138 C12.3107597,17.5724138 12.5523261,17.3303388 12.5523261,17.0317241 C12.5523261,16.7331095 12.3107597,16.4910345 12.0127724,16.4910345 L7.28397566,16.4910345 C6.98598835,16.4910345 6.74442191,16.7331095 6.74442191,17.0317241 C6.74442191,17.3303388 6.98598835,17.5724138 7.28397566,17.5724138 Z M7.28397566,4.59586207 L18.8969222,4.59586207 C19.1949095,4.59586207 19.4364759,4.35378706 19.4364759,4.05517241 C19.4364759,3.75655776 19.1949095,3.51448276 18.8969222,3.51448276 L7.28397566,3.51448276 C6.98598835,3.51448276 6.74442191,3.75655776 6.74442191,4.05517241 C6.74442191,4.35378706 6.98598835,4.59586207 7.28397566,4.59586207 Z" id="Line-3" fill="#FFFFFF" sketch:type="MSShapeGroup"></path>
                <g id="Group-8" transform="translate(20.436476, 14.164152) rotate(-315.000000) translate(-20.436476, -14.164152) translate(17.364068, 5.419606)" sketch:type="MSShapeGroup">
                    <path d="M5.81279985,3.65252537 L5.81279985,14.3332668 L5.14758023,14.9984864 L3.12491036,17.0211563 L0.437020868,14.3332668 L0.437020868,3.58170882 L0.443482141,1.58466062 C0.437020868,1.28098079 0.559785052,0.977300972 0.779468328,0.757617696 C0.999151604,0.537934421 1.30283143,0.415170237 1.61297252,0.415170237 L4.64330947,0.408708964 C4.9469893,0.415170237 5.25066912,0.537934421 5.47035239,0.757617696 C5.69003567,0.977300972 5.81279985,1.28098079 5.81279985,1.57819934 L5.81279985,3.65252537 Z" id="Path" fill="#FFFFFF"></path>
                    <path id="Path" fill="#21304A" d="M2.08516033,5.30040738 C2.12392797,5.33917502 2.14977306,5.3908652 2.14977306,5.45547793 L2.14977306,12.4594977 C2.14977306,12.5241104 2.12392797,12.5758006 2.08516033,12.6145682 C2.00116379,12.6985648 1.88486088,12.6985648 1.80086433,12.6145682 C1.76209669,12.5758006 1.7362516,12.5241104 1.7362516,12.4594977 L1.7362516,5.45547793 C1.7362516,5.3908652 1.76209669,5.33917502 1.80086433,5.30040738 C1.88486088,5.21641084 2.00116379,5.21641084 2.08516033,5.30040738 L2.08516033,5.30040738 Z"></path>
                </g>
            </g>
            <g id="mediaAssets" sketch:type="MSLayerGroup" transform="translate(57.000000, 0.000000)">
                <path d="M0.448631047,10.8978982 C-0.339468874,9.51815183 0.128564655,7.75367852 1.49325374,6.95727999 L12.2029001,0.707397368 C13.5679292,-0.0891995876 15.3135815,0.383880125 16.1014851,1.76328284 L22.2847023,12.5883971 C23.0728022,13.9681435 22.6047687,15.7326168 21.2400796,16.5290153 L10.5304332,22.7788979 C9.16540412,23.5754949 7.41975187,23.1024152 6.63184826,21.7230125 L0.448631047,10.8978982 L0.448631047,10.8978982 Z" id="Rectangle-253" stroke="#FFFFFF" fill="#21304A" sketch:type="MSShapeGroup"></path>
                <path d="M4.62543618,9.26981246 C4.21745411,7.73078637 5.12132227,6.14878165 6.64343516,5.73653543 L18.5884935,2.50135813 C20.1109857,2.0890092 21.6760203,3.00264841 22.0838692,4.54117222 L25.284538,16.6150183 C25.6924885,18.1539254 24.7885948,19.7358337 23.2664819,20.14808 L11.3214235,23.3832573 C9.79893136,23.7956062 8.23456942,22.8845045 7.82623366,21.3441442 L6.14562752,15.0044129 L4.62543618,9.26981246 Z" id="Rectangle-252" stroke="#FFFFFF" fill="#21304A" sketch:type="MSShapeGroup"></path>
                <g id="camera" transform="translate(10.200000, 7.490566)" sketch:type="MSShapeGroup">
                    <path d="M13.20795,2.88066038 L12.487125,1.02087701 C12.24615,0.400768693 11.6718,0 11.025,0 L5.775,0 C5.1282,0 4.55385,0.400768693 4.31235,1.02141859 L3.59205,2.88066038 L1.317225,3.27222222 C0.553875,3.40274284 0,4.07646751 0,4.87421384 L0,12.9979036 C0,13.8936758 0.70665,14.6226415 1.575,14.6226415 L15.225,14.6226415 C16.09335,14.6226415 16.8,13.8936758 16.8,12.9979036 L16.8,4.87421384 C16.8,4.07646751 16.246125,3.40274284 15.4833,3.27222222 L13.20795,2.88066038 Z" id="Path" fill="#FFFFFF"></path>
                    <path d="M15.225,13.5394829 L1.575,13.5394829 C1.284675,13.5394829 1.05,13.2973969 1.05,12.9979036 L1.05,4.87421384 C1.05,4.60938155 1.23585,4.38354298 1.4889,4.34021663 L4.347,3.84900419 L5.287275,1.42381202 C5.3676,1.21855346 5.560275,1.08315863 5.775,1.08315863 L11.025,1.08315863 C11.2392,1.08315863 11.431875,1.21801188 11.5122,1.42381202 L12.452475,3.84900419 L15.3111,4.34021663 C15.56415,4.38354298 15.75,4.60938155 15.75,4.87421384 L15.75,12.9979036 C15.75,13.2973969 15.515325,13.5394829 15.225,13.5394829 Z" id="Path" fill="#21304A"></path>
                    <path d="M8.4,3.79159679 C6.080025,3.79159679 4.2,5.73099231 4.2,8.12423131 C4.2,10.5169287 6.080025,12.4568658 8.4,12.4568658 C10.71945,12.4568658 12.6,10.5169287 12.6,8.12423131 C12.6,5.73153389 10.71945,3.79159679 8.4,3.79159679 L8.4,3.79159679 Z" id="Path" fill="#FFFFFF"></path>
                    <path d="M10.791375,10.2390985 C9.659475,11.6017121 7.6713,11.7593117 6.3504,10.5911251 C5.028975,9.42348008 4.876725,7.37197764 6.00915,6.00990566 C7.140525,4.64675052 9.129225,4.48969252 10.450125,5.65787911 C11.7705,6.82498253 11.923275,8.87702655 10.791375,10.2390985 L10.791375,10.2390985 Z" id="Path" fill="#21304A"></path>
                    <path d="M10.6039514,3.28401441 C10.3682885,3.56772616 9.95434811,3.60054019 9.6793352,3.35731037 C9.40421297,3.11419331 9.37251435,2.68704702 9.60828655,2.40344803 C9.84384014,2.11962353 10.2578898,2.08692225 10.5329027,2.33015207 C10.8078063,2.57315637 10.8396143,3.00041543 10.6039514,3.28401441 L10.6039514,3.28401441 Z" id="Path-5" fill="#FFFFFF"></path>
                </g>
            </g>
            <g id="newEntity" sketch:type="MSLayerGroup" transform="translate(91.000000, 0.000000)">
                <rect id="Rectangle-254" stroke="#32363C" stroke-width="2" fill="#A8E2FF" sketch:type="MSShapeGroup" x="0" y="0" width="20.3706992" height="24" rx="6"></rect>
                <g id="Rectangle-2-+-Line-+-Line" transform="translate(12.679245, 9.795918)">
                    <g id="Rectangle-2">
                        <use stroke="#32363C" stroke-width="2" fill="#FFFFFF" fill-rule="evenodd" sketch:type="MSShapeGroup" xlink:href="#path-1"></use>
                        <use stroke="none" fill="none" xlink:href="#path-1"></use>
                    </g>
                    <path d="M4.22641509,7.07755102 L11.1207547,7.07755102" id="Line" stroke="#32363C" stroke-width="3" stroke-linecap="square" sketch:type="MSShapeGroup"></path>
                    <path d="M7.63396226,10.3102041 L7.63396226,3.91836735" id="Line" stroke="#32363C" stroke-width="3" stroke-linecap="square" sketch:type="MSShapeGroup"></path>
                </g>
            </g>
        </g>
    </g>
</svg>
