<?xml version="1.0" encoding="UTF-8" standalone="no"?>
<svg width="9px" height="20px" viewBox="0 0 5 17" version="1.1" xmlns="http://www.w3.org/2000/svg" xmlns:xlink="http://www.w3.org/1999/xlink">
	<g fill="currentColor">
		<path d="M1.25,4 L3.75,4 L4,4 L4,1 L3.75,1 L1.25,1 L1,1 L1,4 L1.25,4 Z M1.25,9.8 L3.75,9.8 L4,9.8 L4,6.8 L3.75,6.8 L1.25,6.8 L1,6.8 L1,9.8 L1.25,9.8 Z M1.25,15.6 L3.75,15.6 L4,15.6 L4,12.6 L3.75,12.6 L1.25,12.6 L1,12.6 L1,15.6 L1.25,15.6 Z"
			transform="translate(2.500000, 8.300000) scale(-1, 1) translate(-2.500000, -8.300000)"
			/>
	</g>
</svg>