<?xml version="1.0" encoding="UTF-8" standalone="no"?>
<svg width="3px" height="15px" viewBox="0 0 3 15" version="1.1" xmlns="http://www.w3.org/2000/svg" xmlns:xlink="http://www.w3.org/1999/xlink" xmlns:sketch="http://www.bohemiancoding.com/sketch/ns">
    <!-- Generator: Sketch 3.3.2 (12043) - http://www.bohemiancoding.com/sketch -->
    <title>drag-handle</title>
    <desc>Created with Sketch.</desc>
    <defs></defs>
    <g id="Page-1" stroke="none" stroke-width="1" fill="none" fill-rule="evenodd" sketch:type="MSPage">
        <g id="drag-handle" sketch:type="MSLayerGroup" fill="#000000">
            <path d="M0.25,3 L2.75,3 L3,3 L3,0 L2.75,0 L0.25,0 L0,0 L0,3 L0.25,3 Z M0.25,8.8 L2.75,8.8 L3,8.8 L3,5.8 L2.75,5.8 L0.25,5.8 L0,5.8 L0,8.8 L0.25,8.8 Z M0.25,14.6 L2.75,14.6 L3,14.6 L3,11.6 L2.75,11.6 L0.25,11.6 L0,11.6 L0,14.6 L0.25,14.6 Z" id="Handle" sketch:type="MSShapeGroup" transform="translate(1.500000, 7.300000) scale(-1, 1) translate(-1.500000, -7.300000) "></path>
        </g>
    </g>
</svg>