<?xml version="1.0" encoding="UTF-8" standalone="no"?>
<svg width="72px" height="51px" viewBox="0 0 72 51" version="1.1" xmlns="http://www.w3.org/2000/svg" xmlns:xlink="http://www.w3.org/1999/xlink" xmlns:sketch="http://www.bohemiancoding.com/sketch/ns">
    <!-- Generator: Sketch 3.3.2 (12043) - http://www.bohemiancoding.com/sketch -->
    <title>dropdown-widget</title>
    <desc>Created with Sketch.</desc>
    <defs></defs>
    <g id="Page-1" stroke="none" stroke-width="1" fill="none" fill-rule="evenodd" sketch:type="MSPage">
        <g id="contentful_icons" sketch:type="MSArtboardGroup" transform="translate(-100.000000, -549.000000)">
            <g id="dropdown-widget" sketch:type="MSLayerGroup" transform="translate(100.000000, 549.000000)">
                <rect id="Rectangle-289" stroke="#9FAAC0" sketch:type="MSShapeGroup" x="0" y="9.55977455" width="72" height="41"></rect>
                <rect id="Rectangle-290" stroke="#9FAAC0" sketch:type="MSShapeGroup" x="0" y="0.559774554" width="72" height="10"></rect>
                <path d="M65,5.55977455 L68,5.55977455 L66.5,7.55977455 L65,5.55977455 Z" id="Triangle-5" fill="#9FAAC0" sketch:type="MSShapeGroup"></path>
                <path d="M5.846,15.1877746 L7.745,15.1877746 C7.9850012,15.1877746 8.22799877,15.2132743 8.474,15.2642746 C8.72000123,15.3152748 8.94049903,15.4022739 9.1355,15.5252746 C9.33050098,15.6482752 9.48949939,15.8147735 9.6125,16.0247746 C9.73550062,16.2347756 9.797,16.498773 9.797,16.8167746 C9.797,17.1527762 9.69500102,17.4452733 9.491,17.6942746 C9.28699898,17.9432758 9.01400171,18.1067742 8.672,18.1847746 L8.672,18.2027746 C9.08600207,18.2507748 9.42949864,18.4112732 9.7025,18.6842746 C9.97550137,18.9572759 10.112,19.3277722 10.112,19.7957746 C10.112,20.0597759 10.0565006,20.3012735 9.9455,20.5202746 C9.83449945,20.7392756 9.67700102,20.9252738 9.473,21.0782746 C9.26899898,21.2312753 9.02000147,21.3497741 8.726,21.4337746 C8.43199853,21.517775 8.10200183,21.5597746 7.736,21.5597746 L5.846,21.5597746 L5.846,15.1877746 Z M6.494,17.9777746 L7.799,17.9777746 C7.95500078,17.9777746 8.11249921,17.9597747 8.2715,17.9237746 C8.4305008,17.8877744 8.57599934,17.826275 8.708,17.7392746 C8.84000066,17.6522741 8.9464996,17.5367753 9.0275,17.3927746 C9.10850041,17.2487738 9.149,17.0717756 9.149,16.8617746 C9.149,16.6577735 9.10850041,16.4852753 9.0275,16.3442746 C8.9464996,16.2032738 8.83700069,16.087775 8.699,15.9977746 C8.56099931,15.9077741 8.39900093,15.8432747 8.213,15.8042746 C8.02699907,15.7652744 7.82900105,15.7457746 7.619,15.7457746 L6.494,15.7457746 L6.494,17.9777746 Z M6.494,21.0017746 L7.7,21.0017746 C7.93400117,21.0017746 8.15749894,20.9792748 8.3705,20.9342746 C8.58350107,20.8892743 8.76949921,20.817275 8.9285,20.7182746 C9.0875008,20.6192741 9.21499952,20.4902753 9.311,20.3312746 C9.40700048,20.1722738 9.455,19.9817757 9.455,19.7597746 C9.455,19.3397725 9.31250143,19.0262756 9.0275,18.8192746 C8.74249858,18.6122735 8.33900261,18.5087746 7.817,18.5087746 L6.494,18.5087746 L6.494,21.0017746 Z M11.534,18.2747746 C11.534,18.160774 11.531,18.0137755 11.525,17.8337746 C11.519,17.6537737 11.5100001,17.4917753 11.498,17.3477746 L12.083,17.3477746 C12.0950001,17.4617751 12.104,17.5877739 12.11,17.7257746 C12.116,17.8637752 12.119,17.9777741 12.119,18.0677746 L12.137,18.0677746 C12.2570006,17.8217733 12.4369988,17.6222753 12.677,17.4692746 C12.9170012,17.3162738 13.1869985,17.2397746 13.487,17.2397746 C13.5650004,17.2397746 13.6354997,17.2427745 13.6985,17.2487746 C13.7615003,17.2547746 13.8259997,17.2667745 13.892,17.2847746 L13.811,17.8607746 C13.7749998,17.8487745 13.7150004,17.8367746 13.631,17.8247746 C13.5469996,17.8127745 13.4630004,17.8067746 13.379,17.8067746 C13.2169992,17.8067746 13.0610008,17.8367743 12.911,17.8967746 C12.7609993,17.9567749 12.6305006,18.0512739 12.5195,18.1802746 C12.4084994,18.3092752 12.3185003,18.4742735 12.2495,18.6752746 C12.1804997,18.8762756 12.146,19.1177731 12.146,19.3997746 L12.146,21.5597746 L11.534,21.5597746 L11.534,18.2747746 Z M17.825,19.1297746 C17.8069999,18.7337726 17.6795012,18.4052759 17.4425,18.1442746 C17.2054988,17.8832732 16.8680022,17.7527746 16.43,17.7527746 C16.225999,17.7527746 16.0370009,17.7902742 15.863,17.8652746 C15.6889991,17.9402749 15.5360007,18.0422739 15.404,18.1712746 C15.2719993,18.3002752 15.1670004,18.4472737 15.089,18.6122746 C15.0109996,18.7772754 14.9660001,18.9497737 14.954,19.1297746 L17.825,19.1297746 Z M18.446,19.3277746 L18.446,19.4627746 C18.446,19.5107748 18.443,19.5617743 18.437,19.6157746 L14.945,19.6157746 C14.951,19.8257756 14.9929996,20.0237736 15.071,20.2097746 C15.1490004,20.3957755 15.2569993,20.5577739 15.395,20.6957746 C15.5330007,20.8337752 15.6949991,20.9432741 15.881,21.0242746 C16.0670009,21.105275 16.2679989,21.1457746 16.484,21.1457746 C16.8020016,21.1457746 17.0764988,21.0722753 17.3075,20.9252746 C17.5385012,20.7782738 17.7139994,20.6087755 17.834,20.4167746 L18.293,20.7767746 C18.0409987,21.0947761 17.7635015,21.3227739 17.4605,21.4607746 C17.1574985,21.5987752 16.8320017,21.6677746 16.484,21.6677746 C16.1719984,21.6677746 15.8825013,21.6122751 15.6155,21.5012746 C15.3484987,21.390274 15.119001,21.2357755 14.927,21.0377746 C14.734999,20.8397736 14.5835006,20.6057759 14.4725,20.3357746 C14.3614994,20.0657732 14.306,19.7717761 14.306,19.4537746 C14.306,19.135773 14.3599995,18.8417759 14.468,18.5717746 C14.5760005,18.3017732 14.725999,18.0677755 14.918,17.8697746 C15.110001,17.6717736 15.3349987,17.5172751 15.593,17.4062746 C15.8510013,17.295274 16.1299985,17.2397746 16.43,17.2397746 C16.7600016,17.2397746 17.0509987,17.295274 17.303,17.4062746 C17.5550013,17.5172751 17.7649992,17.6672736 17.933,17.8562746 C18.1010008,18.0452755 18.2284996,18.2657733 18.3155,18.5177746 C18.4025004,18.7697758 18.446,19.0397731 18.446,19.3277746 L18.446,19.3277746 Z M22.361,18.8417746 C22.361,18.4757727 22.265001,18.2027755 22.073,18.0227746 C21.880999,17.8427737 21.6020018,17.7527746 21.236,17.7527746 C20.9839987,17.7527746 20.7500011,17.7977741 20.534,17.8877746 C20.3179989,17.977775 20.1350008,18.0977738 19.985,18.2477746 L19.643,17.8427746 C19.8170009,17.6687737 20.0464986,17.5247751 20.3315,17.4107746 C20.6165014,17.296774 20.9389982,17.2397746 21.299,17.2397746 C21.5270011,17.2397746 21.739999,17.2712742 21.938,17.3342746 C22.136001,17.3972749 22.3099993,17.4917739 22.46,17.6177746 C22.6100008,17.7437752 22.7269996,17.9027736 22.811,18.0947746 C22.8950004,18.2867755 22.937,18.5117733 22.937,18.7697746 L22.937,20.6147746 C22.937,20.7767754 22.9429999,20.9447737 22.955,21.1187746 C22.9670001,21.2927754 22.9849999,21.439774 23.009,21.5597746 L22.46,21.5597746 C22.4419999,21.457774 22.4270001,21.3467752 22.415,21.2267746 C22.4029999,21.106774 22.397,20.9897751 22.397,20.8757746 L22.379,20.8757746 C22.186999,21.157776 21.9695012,21.3602739 21.7265,21.4832746 C21.4834988,21.6062752 21.1910017,21.6677746 20.849,21.6677746 C20.6869992,21.6677746 20.5205009,21.6452748 20.3495,21.6002746 C20.1784991,21.5552743 20.0225007,21.4817751 19.8815,21.3797746 C19.7404993,21.277774 19.6235005,21.1457754 19.5305,20.9837746 C19.4374995,20.8217737 19.391,20.6237757 19.391,20.3897746 C19.391,20.0657729 19.4734992,19.8092755 19.6385,19.6202746 C19.8035008,19.4312736 20.0239986,19.290275 20.3,19.1972746 C20.5760014,19.1042741 20.8924982,19.0442747 21.2495,19.0172746 C21.6065018,18.9902744 21.9769981,18.9767746 22.361,18.9767746 L22.361,18.8417746 Z M22.181,19.4537746 C21.9289987,19.4537746 21.6755013,19.4642744 21.4205,19.4852746 C21.1654987,19.5062747 20.934501,19.5482742 20.7275,19.6112746 C20.520499,19.6742749 20.3510007,19.765774 20.219,19.8857746 C20.0869993,20.0057752 20.021,20.1647736 20.021,20.3627746 C20.021,20.5127753 20.0494997,20.638774 20.1065,20.7407746 C20.1635003,20.8427751 20.2399995,20.9252742 20.336,20.9882746 C20.4320005,21.0512749 20.5384994,21.0962744 20.6555,21.1232746 C20.7725006,21.1502747 20.8909994,21.1637746 21.011,21.1637746 C21.2270011,21.1637746 21.4189992,21.1262749 21.587,21.0512746 C21.7550008,20.9762742 21.8959994,20.8742752 22.01,20.7452746 C22.1240006,20.6162739 22.2109997,20.4677754 22.271,20.2997746 C22.3310003,20.1317737 22.361,19.9547755 22.361,19.7687746 L22.361,19.4537746 L22.181,19.4537746 Z M25.142,19.2467746 L25.169,19.2467746 L27.113,17.3477746 L27.995,17.3477746 L25.871,19.2737746 L28.211,21.5597746 L27.311,21.5597746 L25.169,19.3457746 L25.142,19.3457746 L25.142,21.5597746 L24.53,21.5597746 L24.53,14.7557746 L25.142,14.7557746 L25.142,19.2467746 Z M30.884,17.8607746 L29.894,17.8607746 L29.894,21.5597746 L29.282,21.5597746 L29.282,17.8607746 L28.4,17.8607746 L28.4,17.3477746 L29.282,17.3477746 L29.282,16.1957746 C29.282,15.7157722 29.3989988,15.3377759 29.633,15.0617746 C29.8670012,14.7857732 30.2269976,14.6477746 30.713,14.6477746 C30.7910004,14.6477746 30.8749996,14.6522745 30.965,14.6612746 C31.0550005,14.6702746 31.1389996,14.6867744 31.217,14.7107746 L31.109,15.2507746 C31.0429997,15.2327745 30.9770003,15.2177746 30.911,15.2057746 C30.8449997,15.1937745 30.7700004,15.1877746 30.686,15.1877746 C30.5239992,15.1877746 30.3905005,15.2147743 30.2855,15.2687746 C30.1804995,15.3227748 30.0995003,15.3992741 30.0425,15.4982746 C29.9854997,15.597275 29.9465001,15.7127739 29.9255,15.8447746 C29.9044999,15.9767752 29.894,16.1177738 29.894,16.2677746 L29.894,17.3477746 L30.884,17.3477746 L30.884,17.8607746 Z M34.412,18.8417746 C34.412,18.4757727 34.316001,18.2027755 34.124,18.0227746 C33.931999,17.8427737 33.6530018,17.7527746 33.287,17.7527746 C33.0349987,17.7527746 32.8010011,17.7977741 32.585,17.8877746 C32.3689989,17.977775 32.1860008,18.0977738 32.036,18.2477746 L31.694,17.8427746 C31.8680009,17.6687737 32.0974986,17.5247751 32.3825,17.4107746 C32.6675014,17.296774 32.9899982,17.2397746 33.35,17.2397746 C33.5780011,17.2397746 33.790999,17.2712742 33.989,17.3342746 C34.187001,17.3972749 34.3609993,17.4917739 34.511,17.6177746 C34.6610007,17.7437752 34.7779996,17.9027736 34.862,18.0947746 C34.9460004,18.2867755 34.988,18.5117733 34.988,18.7697746 L34.988,20.6147746 C34.988,20.7767754 34.9939999,20.9447737 35.006,21.1187746 C35.0180001,21.2927754 35.0359999,21.439774 35.06,21.5597746 L34.511,21.5597746 C34.4929999,21.457774 34.4780001,21.3467752 34.466,21.2267746 C34.4539999,21.106774 34.448,20.9897751 34.448,20.8757746 L34.43,20.8757746 C34.237999,21.157776 34.0205012,21.3602739 33.7775,21.4832746 C33.5344988,21.6062752 33.2420017,21.6677746 32.9,21.6677746 C32.7379992,21.6677746 32.5715009,21.6452748 32.4005,21.6002746 C32.2294991,21.5552743 32.0735007,21.4817751 31.9325,21.3797746 C31.7914993,21.277774 31.6745005,21.1457754 31.5815,20.9837746 C31.4884995,20.8217737 31.442,20.6237757 31.442,20.3897746 C31.442,20.0657729 31.5244992,19.8092755 31.6895,19.6202746 C31.8545008,19.4312736 32.0749986,19.290275 32.351,19.1972746 C32.6270014,19.1042741 32.9434982,19.0442747 33.3005,19.0172746 C33.6575018,18.9902744 34.0279981,18.9767746 34.412,18.9767746 L34.412,18.8417746 Z M34.232,19.4537746 C33.9799987,19.4537746 33.7265013,19.4642744 33.4715,19.4852746 C33.2164987,19.5062747 32.985501,19.5482742 32.7785,19.6112746 C32.571499,19.6742749 32.4020007,19.765774 32.27,19.8857746 C32.1379993,20.0057752 32.072,20.1647736 32.072,20.3627746 C32.072,20.5127753 32.1004997,20.638774 32.1575,20.7407746 C32.2145003,20.8427751 32.2909995,20.9252742 32.387,20.9882746 C32.4830005,21.0512749 32.5894994,21.0962744 32.7065,21.1232746 C32.8235006,21.1502747 32.9419994,21.1637746 33.062,21.1637746 C33.2780011,21.1637746 33.4699992,21.1262749 33.638,21.0512746 C33.8060008,20.9762742 33.9469994,20.8742752 34.061,20.7452746 C34.1750006,20.6162739 34.2619997,20.4677754 34.322,20.2997746 C34.3820003,20.1317737 34.412,19.9547755 34.412,19.7687746 L34.412,19.4537746 L34.232,19.4537746 Z M38.804,18.3467746 C38.7139995,18.1727737 38.5775009,18.0302751 38.3945,17.9192746 C38.2114991,17.808274 38.0030012,17.7527746 37.769,17.7527746 C37.6609995,17.7527746 37.5530005,17.7647744 37.445,17.7887746 C37.3369995,17.8127747 37.2410004,17.8517743 37.157,17.9057746 C37.0729996,17.9597748 37.0055003,18.0287741 36.9545,18.1127746 C36.9034997,18.196775 36.878,18.295774 36.878,18.4097746 C36.878,18.6077755 36.9589992,18.759274 37.121,18.8642746 C37.2830008,18.9692751 37.5379983,19.0577742 37.886,19.1297746 C38.3840025,19.2317751 38.7514988,19.3802736 38.9885,19.5752746 C39.2255012,19.7702755 39.344,20.0327729 39.344,20.3627746 C39.344,20.6027758 39.2975005,20.8052737 39.2045,20.9702746 C39.1114995,21.1352754 38.9900008,21.270274 38.84,21.3752746 C38.6899992,21.4802751 38.5205009,21.5552743 38.3315,21.6002746 C38.1424991,21.6452748 37.952001,21.6677746 37.76,21.6677746 C37.4419984,21.6677746 37.1330015,21.6017752 36.833,21.4697746 C36.5329985,21.3377739 36.287001,21.130776 36.095,20.8487746 L36.581,20.4887746 C36.6890005,20.6747755 36.847999,20.8307739 37.058,20.9567746 C37.268001,21.0827752 37.4989987,21.1457746 37.751,21.1457746 C37.8830007,21.1457746 38.0089994,21.1337747 38.129,21.1097746 C38.2490006,21.0857744 38.3539995,21.0437749 38.444,20.9837746 C38.5340005,20.9237743 38.6059997,20.847275 38.66,20.7542746 C38.7140003,20.6612741 38.741,20.5457752 38.741,20.4077746 C38.741,20.1857734 38.6345011,20.0192751 38.4215,19.9082746 C38.2084989,19.797274 37.901002,19.693775 37.499,19.5977746 C37.3729994,19.5677744 37.2395007,19.5302748 37.0985,19.4852746 C36.9574993,19.4402743 36.8270006,19.374275 36.707,19.2872746 C36.5869994,19.2002741 36.4880004,19.0907752 36.41,18.9587746 C36.3319996,18.8267739 36.293,18.6617755 36.293,18.4637746 C36.293,18.2477735 36.3349996,18.0632753 36.419,17.9102746 C36.5030004,17.7572738 36.6154993,17.631275 36.7565,17.5322746 C36.8975007,17.4332741 37.0579991,17.3597748 37.238,17.3117746 C37.4180009,17.2637743 37.603999,17.2397746 37.796,17.2397746 C38.0900015,17.2397746 38.3749986,17.3057739 38.651,17.4377746 C38.9270014,17.5697752 39.1339993,17.7557734 39.272,17.9957746 L38.804,18.3467746 Z M42.458,17.8607746 L41.27,17.8607746 L41.27,20.3177746 C41.27,20.4737753 41.2849999,20.602774 41.315,20.7047746 C41.3450002,20.8067751 41.3884997,20.8862743 41.4455,20.9432746 C41.5025003,21.0002748 41.5699996,21.0392744 41.648,21.0602746 C41.7260004,21.0812747 41.8099996,21.0917746 41.9,21.0917746 C41.9840004,21.0917746 42.0724995,21.0797747 42.1655,21.0557746 C42.2585005,21.0317744 42.3469996,20.9987748 42.431,20.9567746 L42.458,21.4877746 C42.3499995,21.5297748 42.2375006,21.5612744 42.1205,21.5822746 C42.0034994,21.6032747 41.8760007,21.6137746 41.738,21.6137746 C41.6239994,21.6137746 41.5040006,21.5987747 41.378,21.5687746 C41.2519994,21.5387744 41.1350005,21.481775 41.027,21.3977746 C40.9189995,21.3137741 40.8305003,21.1997753 40.7615,21.0557746 C40.6924997,20.9117738 40.658,20.7227757 40.658,20.4887746 L40.658,17.8607746 L39.785,17.8607746 L39.785,17.3477746 L40.658,17.3477746 L40.658,16.1597746 L41.27,16.1597746 L41.27,17.3477746 L42.458,17.3477746 L42.458,17.8607746 Z M6.494,32.9837746 L9.464,32.9837746 L9.464,33.5597746 L5.846,33.5597746 L5.846,27.1877746 L6.494,27.1877746 L6.494,32.9837746 Z M13.352,33.5597746 C13.3399999,33.445774 13.331,33.3197752 13.325,33.1817746 C13.319,33.0437739 13.316,32.929775 13.316,32.8397746 L13.298,32.8397746 C13.1779994,33.0857758 12.9830014,33.2852738 12.713,33.4382746 C12.4429987,33.5912753 12.1580015,33.6677746 11.858,33.6677746 C11.3239973,33.6677746 10.9235013,33.5087761 10.6565,33.1907746 C10.3894987,32.872773 10.256,32.4527772 10.256,31.9307746 L10.256,29.3477746 L10.868,29.3477746 L10.868,31.6787746 C10.868,31.9007757 10.8859998,32.1017737 10.922,32.2817746 C10.9580002,32.4617755 11.0194996,32.6162739 11.1065,32.7452746 C11.1935004,32.8742752 11.3104993,32.9747742 11.4575,33.0467746 C11.6045007,33.1187749 11.7889989,33.1547746 12.011,33.1547746 C12.1730008,33.1547746 12.3304992,33.1217749 12.4835,33.0557746 C12.6365008,32.9897742 12.7729994,32.8892752 12.893,32.7542746 C13.0130006,32.6192739 13.1089996,32.4482756 13.181,32.2412746 C13.2530004,32.0342735 13.289,31.789776 13.289,31.5077746 L13.289,29.3477746 L13.901,29.3477746 L13.901,32.6327746 C13.901,32.7467751 13.904,32.8937737 13.91,33.0737746 C13.916,33.2537755 13.9249999,33.4157738 13.937,33.5597746 L13.352,33.5597746 Z M16.07,29.3477746 C16.0820001,29.4617751 16.091,29.5877739 16.097,29.7257746 C16.103,29.8637752 16.106,29.9777741 16.106,30.0677746 L16.124,30.0677746 C16.2440006,29.8217733 16.4389987,29.6222753 16.709,29.4692746 C16.9790014,29.3162738 17.2639985,29.2397746 17.564,29.2397746 C18.0980027,29.2397746 18.4984987,29.398773 18.7655,29.7167746 C19.0325013,30.0347761 19.166,30.4547719 19.166,30.9767746 L19.166,33.5597746 L18.554,33.5597746 L18.554,31.2287746 C18.554,31.0067734 18.5360002,30.8057755 18.5,30.6257746 C18.4639998,30.4457737 18.4025004,30.2912752 18.3155,30.1622746 C18.2284996,30.0332739 18.1115007,29.9327749 17.9645,29.8607746 C17.8174993,29.7887742 17.6330011,29.7527746 17.411,29.7527746 C17.2489992,29.7527746 17.0915008,29.7857742 16.9385,29.8517746 C16.7854992,29.9177749 16.6490006,30.0182739 16.529,30.1532746 C16.4089994,30.2882752 16.3130004,30.4592735 16.241,30.6662746 C16.1689996,30.8732756 16.133,31.1177731 16.133,31.3997746 L16.133,33.5597746 L15.521,33.5597746 L15.521,30.2747746 C15.521,30.160774 15.518,30.0137755 15.512,29.8337746 C15.506,29.6537737 15.4970001,29.4917753 15.485,29.3477746 L16.07,29.3477746 Z M23.783,30.3107746 C23.6809995,30.1487737 23.532501,30.0152751 23.3375,29.9102746 C23.142499,29.805274 22.9310011,29.7527746 22.703,29.7527746 C22.4569988,29.7527746 22.235001,29.7962741 22.037,29.8832746 C21.838999,29.970275 21.6695007,30.0902738 21.5285,30.2432746 C21.3874993,30.3962753 21.2795004,30.5762735 21.2045,30.7832746 C21.1294996,30.9902756 21.092,31.2137734 21.092,31.4537746 C21.092,31.6937758 21.1294996,31.9157735 21.2045,32.1197746 C21.2795004,32.3237756 21.3859993,32.5022738 21.524,32.6552746 C21.6620007,32.8082753 21.829999,32.9282741 22.028,33.0152746 C22.226001,33.102275 22.4479988,33.1457746 22.694,33.1457746 C22.9640014,33.1457746 23.1919991,33.0947751 23.378,32.9927746 C23.5640009,32.890774 23.7169994,32.7587754 23.837,32.5967746 L24.296,32.9387746 C24.1159991,33.1607757 23.8955013,33.3377739 23.6345,33.4697746 C23.3734987,33.6017752 23.0600018,33.6677746 22.694,33.6677746 C22.3519983,33.6677746 22.0430014,33.6122751 21.767,33.5012746 C21.4909986,33.390274 21.255501,33.2357755 21.0605,33.0377746 C20.865499,32.8397736 20.7140005,32.6057759 20.606,32.3357746 C20.4979995,32.0657732 20.444,31.7717761 20.444,31.4537746 C20.444,31.135773 20.4979995,30.8417759 20.606,30.5717746 C20.7140005,30.3017732 20.865499,30.0677755 21.0605,29.8697746 C21.255501,29.6717736 21.4909986,29.5172751 21.767,29.4062746 C22.0430014,29.295274 22.3519983,29.2397746 22.694,29.2397746 C22.9760014,29.2397746 23.2624985,29.3012739 23.5535,29.4242746 C23.8445015,29.5472752 24.0799991,29.7287734 24.26,29.9687746 L23.783,30.3107746 Z M25.898,30.0407746 C26.0120006,29.7947733 26.2009987,29.5997753 26.465,29.4557746 C26.7290013,29.3117738 27.0109985,29.2397746 27.311,29.2397746 C27.8450027,29.2397746 28.2454987,29.398773 28.5125,29.7167746 C28.7795013,30.0347761 28.913,30.4547719 28.913,30.9767746 L28.913,33.5597746 L28.301,33.5597746 L28.301,31.2287746 C28.301,31.0067734 28.2830002,30.8057755 28.247,30.6257746 C28.2109998,30.4457737 28.1495004,30.2912752 28.0625,30.1622746 C27.9754996,30.0332739 27.8585007,29.9327749 27.7115,29.8607746 C27.5644993,29.7887742 27.3800011,29.7527746 27.158,29.7527746 C26.9959992,29.7527746 26.8385008,29.7857742 26.6855,29.8517746 C26.5324992,29.9177749 26.3960006,30.0182739 26.276,30.1532746 C26.1559994,30.2882752 26.0600004,30.4592735 25.988,30.6662746 C25.9159996,30.8732756 25.88,31.1177731 25.88,31.3997746 L25.88,33.5597746 L25.268,33.5597746 L25.268,26.7557746 L25.88,26.7557746 L25.88,30.0407746 L25.898,30.0407746 Z M5.846,39.1877746 L7.961,39.1877746 C8.35700198,39.1877746 8.75449801,39.2537739 9.1535,39.3857746 C9.552502,39.5177752 9.9124984,39.7172732 10.2335,39.9842746 C10.5545016,40.2512759 10.813999,40.5842726 11.012,40.9832746 C11.210001,41.3822765 11.309,41.8457719 11.309,42.3737746 C11.309,42.9077772 11.210001,43.3727726 11.012,43.7687746 C10.813999,44.1647765 10.5545016,44.4962732 10.2335,44.7632746 C9.9124984,45.0302759 9.552502,45.2297739 9.1535,45.3617746 C8.75449801,45.4937752 8.35700198,45.5597746 7.961,45.5597746 L5.846,45.5597746 L5.846,39.1877746 Z M6.494,44.9837746 L7.781,44.9837746 C8.2610024,44.9837746 8.67949822,44.9087753 9.0365,44.7587746 C9.39350179,44.6087738 9.68899883,44.4122758 9.923,44.1692746 C10.1570012,43.9262733 10.3324994,43.6487761 10.4495,43.3367746 C10.5665006,43.024773 10.625,42.7037762 10.625,42.3737746 C10.625,42.0437729 10.5665006,41.7227761 10.4495,41.4107746 C10.3324994,41.098773 10.1570012,40.8212758 9.923,40.5782746 C9.68899883,40.3352733 9.39350179,40.1387753 9.0365,39.9887746 C8.67949822,39.8387738 8.2610024,39.7637746 7.781,39.7637746 L6.494,39.7637746 L6.494,44.9837746 Z M13.244,45.5597746 L12.632,45.5597746 L12.632,41.3477746 L13.244,41.3477746 L13.244,45.5597746 Z M13.37,39.7277746 C13.37,39.8537752 13.3250005,39.9572741 13.235,40.0382746 C13.1449996,40.119275 13.0460005,40.1597746 12.938,40.1597746 C12.8299995,40.1597746 12.7310005,40.119275 12.641,40.0382746 C12.5509996,39.9572741 12.506,39.8537752 12.506,39.7277746 C12.506,39.6017739 12.5509996,39.498275 12.641,39.4172746 C12.7310005,39.3362741 12.8299995,39.2957746 12.938,39.2957746 C13.0460005,39.2957746 13.1449996,39.3362741 13.235,39.4172746 C13.3250005,39.498275 13.37,39.6017739 13.37,39.7277746 L13.37,39.7277746 Z M15.422,41.3477746 C15.4340001,41.4617751 15.443,41.5877739 15.449,41.7257746 C15.455,41.8637752 15.458,41.9777741 15.458,42.0677746 L15.476,42.0677746 C15.5960006,41.8217733 15.7909987,41.6222753 16.061,41.4692746 C16.3310014,41.3162738 16.6159985,41.2397746 16.916,41.2397746 C17.4500027,41.2397746 17.8504987,41.398773 18.1175,41.7167746 C18.3845013,42.0347761 18.518,42.4547719 18.518,42.9767746 L18.518,45.5597746 L17.906,45.5597746 L17.906,43.2287746 C17.906,43.0067734 17.8880002,42.8057755 17.852,42.6257746 C17.8159998,42.4457737 17.7545004,42.2912752 17.6675,42.1622746 C17.5804996,42.0332739 17.4635007,41.9327749 17.3165,41.8607746 C17.1694993,41.7887742 16.9850011,41.7527746 16.763,41.7527746 C16.6009992,41.7527746 16.4435008,41.7857742 16.2905,41.8517746 C16.1374992,41.9177749 16.0010006,42.0182739 15.881,42.1532746 C15.7609994,42.2882752 15.6650004,42.4592735 15.593,42.6662746 C15.5209996,42.8732756 15.485,43.1177731 15.485,43.3997746 L15.485,45.5597746 L14.873,45.5597746 L14.873,42.2747746 C14.873,42.160774 14.87,42.0137755 14.864,41.8337746 C14.858,41.6537737 14.8490001,41.4917753 14.837,41.3477746 L15.422,41.3477746 Z M20.651,41.3477746 C20.6630001,41.4617751 20.672,41.5877739 20.678,41.7257746 C20.684,41.8637752 20.687,41.9777741 20.687,42.0677746 L20.705,42.0677746 C20.8250006,41.8217733 21.0199986,41.6222753 21.29,41.4692746 C21.5600014,41.3162738 21.8449985,41.2397746 22.145,41.2397746 C22.6790027,41.2397746 23.0794987,41.398773 23.3465,41.7167746 C23.6135013,42.0347761 23.747,42.4547719 23.747,42.9767746 L23.747,45.5597746 L23.135,45.5597746 L23.135,43.2287746 C23.135,43.0067734 23.1170002,42.8057755 23.081,42.6257746 C23.0449998,42.4457737 22.9835004,42.2912752 22.8965,42.1622746 C22.8094996,42.0332739 22.6925007,41.9327749 22.5455,41.8607746 C22.3984993,41.7887742 22.2140011,41.7527746 21.992,41.7527746 C21.8299992,41.7527746 21.6725008,41.7857742 21.5195,41.8517746 C21.3664992,41.9177749 21.2300006,42.0182739 21.11,42.1532746 C20.9899994,42.2882752 20.8940004,42.4592735 20.822,42.6662746 C20.7499996,42.8732756 20.714,43.1177731 20.714,43.3997746 L20.714,45.5597746 L20.102,45.5597746 L20.102,42.2747746 C20.102,42.160774 20.099,42.0137755 20.093,41.8337746 C20.087,41.6537737 20.0780001,41.4917753 20.066,41.3477746 L20.651,41.3477746 Z M28.544,43.1297746 C28.5259999,42.7337726 28.3985012,42.4052759 28.1615,42.1442746 C27.9244988,41.8832732 27.5870022,41.7527746 27.149,41.7527746 C26.944999,41.7527746 26.7560009,41.7902742 26.582,41.8652746 C26.4079991,41.9402749 26.2550007,42.0422739 26.123,42.1712746 C25.9909993,42.3002752 25.8860004,42.4472737 25.808,42.6122746 C25.7299996,42.7772754 25.6850001,42.9497737 25.673,43.1297746 L28.544,43.1297746 Z M29.165,43.3277746 L29.165,43.4627746 C29.165,43.5107748 29.162,43.5617743 29.156,43.6157746 L25.664,43.6157746 C25.67,43.8257756 25.7119996,44.0237736 25.79,44.2097746 C25.8680004,44.3957755 25.9759993,44.5577739 26.114,44.6957746 C26.2520007,44.8337752 26.4139991,44.9432741 26.6,45.0242746 C26.7860009,45.105275 26.9869989,45.1457746 27.203,45.1457746 C27.5210016,45.1457746 27.7954988,45.0722753 28.0265,44.9252746 C28.2575012,44.7782738 28.4329994,44.6087755 28.553,44.4167746 L29.012,44.7767746 C28.7599987,45.0947761 28.4825015,45.3227739 28.1795,45.4607746 C27.8764985,45.5987752 27.5510017,45.6677746 27.203,45.6677746 C26.8909984,45.6677746 26.6015013,45.6122751 26.3345,45.5012746 C26.0674987,45.390274 25.838001,45.2357755 25.646,45.0377746 C25.453999,44.8397736 25.3025006,44.6057759 25.1915,44.3357746 C25.0804994,44.0657732 25.025,43.7717761 25.025,43.4537746 C25.025,43.135773 25.0789995,42.8417759 25.187,42.5717746 C25.2950005,42.3017732 25.444999,42.0677755 25.637,41.8697746 C25.829001,41.6717736 26.0539987,41.5172751 26.312,41.4062746 C26.5700013,41.295274 26.8489985,41.2397746 27.149,41.2397746 C27.4790017,41.2397746 27.7699987,41.295274 28.022,41.4062746 C28.2740013,41.5172751 28.4839992,41.6672736 28.652,41.8562746 C28.8200008,42.0452755 28.9474996,42.2657733 29.0345,42.5177746 C29.1215004,42.7697758 29.165,43.0397731 29.165,43.3277746 L29.165,43.3277746 Z M30.479,42.2747746 C30.479,42.160774 30.476,42.0137755 30.47,41.8337746 C30.464,41.6537737 30.4550001,41.4917753 30.443,41.3477746 L31.028,41.3477746 C31.0400001,41.4617751 31.049,41.5877739 31.055,41.7257746 C31.061,41.8637752 31.064,41.9777741 31.064,42.0677746 L31.082,42.0677746 C31.2020006,41.8217733 31.3819988,41.6222753 31.622,41.4692746 C31.8620012,41.3162738 32.1319985,41.2397746 32.432,41.2397746 C32.5100004,41.2397746 32.5804997,41.2427745 32.6435,41.2487746 C32.7065003,41.2547746 32.7709997,41.2667745 32.837,41.2847746 L32.756,41.8607746 C32.7199998,41.8487745 32.6600004,41.8367746 32.576,41.8247746 C32.4919996,41.8127745 32.4080004,41.8067746 32.324,41.8067746 C32.1619992,41.8067746 32.0060007,41.8367743 31.856,41.8967746 C31.7059993,41.9567749 31.5755006,42.0512739 31.4645,42.1802746 C31.3534994,42.3092752 31.2635003,42.4742735 31.1945,42.6752746 C31.1254997,42.8762756 31.091,43.1177731 31.091,43.3997746 L31.091,45.5597746 L30.479,45.5597746 L30.479,42.2747746 Z" id="Breakfast" fill="#A3A9B2" sketch:type="MSShapeGroup"></path>
            </g>
        </g>
    </g>
</svg>