<?xml version="1.0" encoding="utf-8"?>
<!-- Generator: Adobe Illustrator 20.1.0, SVG Export Plug-In . SVG Version: 6.00 Build 0)  -->
<svg version="1.1" id="Layer_1" xmlns="http://www.w3.org/2000/svg" xmlns:xlink="http://www.w3.org/1999/xlink" x="0px" y="0px"
	 width="220px" height="200px" viewBox="0 0 220 200" enable-background="new 0 0 220 200" xml:space="preserve">
<circle fill="#F4FFFB" cx="119" cy="100" r="100"/>
<circle fill="#E6FFF4" cx="119" cy="100" r="70"/>
<path fill="#0EB87F" d="M119,112c-0.2,0-0.4,0-0.6-0.1l-34.5-15c-0.8-0.3-1.1-1.2-0.8-2c0.3-0.8,1.2-1.1,2-0.8l33.9,14.7l33.9-14.7
	c0.8-0.3,1.6,0,2,0.8c0.3,0.8,0,1.6-0.8,2l-34.5,15C119.4,112,119.2,112,119,112z"/>
<path fill="#0EB87F" d="M119,121c-0.2,0-0.4,0-0.6-0.1l-34.5-15c-0.8-0.3-1.1-1.2-0.8-2c0.3-0.8,1.2-1.1,2-0.8l33.9,14.7l33.9-14.7
	c0.8-0.3,1.6,0,2,0.8c0.3,0.8,0,1.6-0.8,2l-34.5,15C119.4,121,119.2,121,119,121z"/>
<path fill="#0EB87F" d="M119,130c-0.2,0-0.4,0-0.6-0.1l-34.5-15c-0.8-0.3-1.1-1.2-0.8-2c0.3-0.8,1.2-1.1,2-0.8l33.9,14.7l33.9-14.7
	c0.8-0.3,1.6,0,2,0.8c0.3,0.8,0,1.6-0.8,2l-34.5,15C119.4,130,119.2,130,119,130z"/>
<polygon fill="#C0F2D6" points="119,101.5 84.5,86.5 119,71.5 153.5,86.5 "/>
<path fill="#0EB87F" d="M119,103c-0.2,0-0.4,0-0.6-0.1l-34.5-15c-0.5-0.2-0.9-0.8-0.9-1.4s0.4-1.1,0.9-1.4l34.5-15
	c0.4-0.2,0.8-0.2,1.2,0l34.5,15c0.5,0.2,0.9,0.8,0.9,1.4s-0.4,1.1-0.9,1.4l-34.5,15C119.4,103,119.2,103,119,103z M88.3,86.5
	L119,99.9l30.7-13.4L119,73.1L88.3,86.5z"/>
<path fill="#C0F2D6" d="M5.5,111c-0.8-0.8-1.9-1-2.9-0.6c-1,0.4-1.6,1.4-1.6,2.4v11.6c0,1.5,1.2,2.7,2.7,2.7c1.5,0,2.6-1.2,2.6-2.7
	V119c1,0.4,2.2,0.3,3-0.5c1-1,1-2.7,0-3.7L5.5,111z"/>
<path fill="#C0F2D6" d="M190.7,143.4c-1-0.4-2.1-0.2-2.9,0.6l-3.8,3.8c-1,1-1,2.7,0,3.7c0.5,0.5,1.2,0.8,1.9,0.8
	c0.4,0,0.8-0.1,1.1-0.2v5.4c0,1.5,1.2,2.7,2.7,2.7c1.5,0,2.6-1.2,2.6-2.7v-11.6C192.3,144.8,191.7,143.8,190.7,143.4z"/>
<path fill="#C0F2D6" d="M211.4,23.2l1.6-1.6c1.1-1.1,1.1-2.9,0-4c-1.1-1.1-2.9-1.1-4,0l-1.6,1.6l-1.6-1.6c-1.1-1.1-2.9-1.1-4,0
	c-0.5,0.5-0.8,1.3-0.8,2c0,0.8,0.3,1.5,0.8,2l1.6,1.6l-1.6,1.6c-1.1,1.1-1.1,2.9,0,4c0.6,0.6,1.3,0.8,2,0.8c0.7,0,1.5-0.3,2-0.8
	l1.6-1.6l1.6,1.6c0.5,0.5,1.2,0.8,2,0.8c0.8,0,1.5-0.3,2-0.8c1.1-1.1,1.1-2.9,0-4L211.4,23.2z"/>
<path fill="#C0F2D6" d="M86,149.7L86,149.7c-1.5,0-2.7,1.2-2.7,2.7c0,1.5,1.2,2.7,2.6,2.7H86c0.5,0,1,0.4,1,1v4.4c0,0.5-0.4,1-1,1
	h-0.1c-0.5,0-1-0.4-1-1c0-1.5-1.2-2.7-2.7-2.7s-2.7,1.2-2.7,2.7c0,3.5,2.8,6.3,6.3,6.3H86c3.5,0,6.3-2.8,6.3-6.3v-4.4
	C92.2,152.5,89.4,149.7,86,149.7z"/>
<path fill="#C0F2D6" d="M63.5,28.4h-5.6c-2.6,0-4.7-2.1-4.7-4.7v-5.6c0-2.6,2.1-4.7,4.7-4.7h5.6c2.6,0,4.7,2.1,4.7,4.7v5.6
	C68.3,26.3,66.1,28.4,63.5,28.4z M57.9,17.2c-0.5,0-0.9,0.4-0.9,0.9v5.6c0,0.5,0.4,0.9,0.9,0.9h5.6c0.5,0,0.9-0.4,0.9-0.9v-5.6
	c0-0.5-0.4-0.9-0.9-0.9H57.9z"/>
</svg>
