<?xml version="1.0" encoding="utf-8"?>
<!-- Generator: Adobe Illustrator 20.1.0, SVG Export Plug-In . SVG Version: 6.00 Build 0)  -->
<svg version="1.1" id="Layer_1" xmlns="http://www.w3.org/2000/svg" xmlns:xlink="http://www.w3.org/1999/xlink" x="0px" y="0px"
	 width="200px" height="200px" viewBox="0 0 200 200" enable-background="new 0 0 200 200" xml:space="preserve">
<circle fill="#F3FAFF" cx="100" cy="100" r="100"/>
<circle fill="#E6F5FF" cx="100" cy="100" r="70"/>
<path fill="#B9D4EF" d="M30,117.3c-0.8-0.8-1.9-1-2.9-0.6c-1,0.4-1.6,1.4-1.6,2.4v11.6c0,1.5,1.2,2.7,2.7,2.7c1.5,0,2.6-1.2,2.6-2.7
	v-5.4c1,0.4,2.2,0.3,3-0.5c1-1,1-2.7,0-3.7L30,117.3z"/>
<path fill="#B9D4EF" d="M25,176c-1-0.4-2.1-0.2-2.9,0.6l-3.8,3.8c-1,1-1,2.7,0,3.7c0.5,0.5,1.2,0.8,1.9,0.8c0.4,0,0.8-0.1,1.1-0.2
	v5.4c0,1.5,1.2,2.7,2.7,2.7c1.5,0,2.6-1.2,2.6-2.7v-11.6C26.6,177.4,25.9,176.4,25,176z"/>
<path fill="#B9D4EF" d="M38.2,41.5l1.6-1.6c1.1-1.1,1.1-2.9,0-4c-1.1-1.1-2.9-1.1-4,0l-1.6,1.6l-1.6-1.6c-1.1-1.1-2.9-1.1-4,0
	c-0.5,0.5-0.8,1.3-0.8,2c0,0.8,0.3,1.5,0.8,2l1.6,1.6l-1.6,1.6c-1.1,1.1-1.1,2.9,0,4c0.6,0.6,1.3,0.8,2,0.8c0.7,0,1.5-0.3,2-0.8
	l1.6-1.6l1.6,1.6c0.5,0.5,1.2,0.8,2,0.8c0.8,0,1.5-0.3,2-0.8c1.1-1.1,1.1-2.9,0-4L38.2,41.5z"/>
<path fill="#B9D4EF" d="M176,173.9L176,173.9c-1.5,0-2.7,1.2-2.7,2.7c0,1.5,1.2,2.7,2.6,2.7h0.1c0.5,0,1,0.4,1,1v4.4
	c0,0.5-0.4,1-1,1h-0.1c-0.5,0-1-0.4-1-1c0-1.5-1.2-2.7-2.7-2.7c-1.5,0-2.7,1.2-2.7,2.7c0,3.5,2.8,6.3,6.3,6.3h0.1
	c3.5,0,6.3-2.8,6.3-6.3v-4.4C182.3,176.7,179.4,173.9,176,173.9z"/>
<path fill="#B9D4EF" d="M155.1,63h-5.6c-2.6,0-4.7-2.1-4.7-4.7v-5.6c0-2.6,2.1-4.7,4.7-4.7h5.6c2.6,0,4.7,2.1,4.7,4.7v5.6
	C159.8,60.9,157.7,63,155.1,63z M149.5,51.8c-0.5,0-0.9,0.4-0.9,0.9v5.6c0,0.5,0.4,0.9,0.9,0.9h5.6c0.5,0,0.9-0.4,0.9-0.9v-5.6
	c0-0.5-0.4-0.9-0.9-0.9H149.5z"/>
<path fill="none" stroke="#3C80CF" stroke-width="3" stroke-linecap="round" stroke-linejoin="round" stroke-miterlimit="10" d="
	M73,128.5h52.5c5,0,9-4,9-9v-36h-54V121C80.5,125.1,77.1,128.5,73,128.5c-4.1,0-7.5-3.4-7.5-7.5V71.5h21v6h39v6"/>
<path fill="#3C80CF" d="M122.5,118h-30c-0.6,0-1.1-0.3-1.4-0.9c-0.2-0.5-0.2-1.1,0.2-1.6l7.5-9c0.4-0.5,1.2-0.7,1.8-0.4l5,2.5
	l8.2-9.6c0.3-0.4,0.8-0.6,1.3-0.5c0.5,0.1,0.9,0.4,1.2,0.9l7.5,16.5c0.2,0.5,0.2,1-0.1,1.4C123.5,117.7,123,118,122.5,118z
	 M95.7,115h24.5l-5.6-12.2l-7.5,8.7c-0.4,0.5-1.2,0.7-1.8,0.4l-4.9-2.5L95.7,115z"/>
<path fill="#3C80CF" d="M98.5,103c-3.3,0-6-2.7-6-6s2.7-6,6-6s6,2.7,6,6S101.8,103,98.5,103z M98.5,94c-1.7,0-3,1.3-3,3s1.3,3,3,3
	s3-1.3,3-3S100.2,94,98.5,94z"/>
<path fill="#B9D4EF" d="M125.5,77.5v6h-45V121c0,4.1-3.4,7.5-7.5,7.5c-4.2,0-7.5-3.4-7.5-7.5V71.5h21v6H125.5z"/>
<path fill="#3C80CF" d="M73,130c-5,0-9-4-9-9V71.5c0-0.8,0.7-1.5,1.5-1.5h21c0.8,0,1.5,0.7,1.5,1.5V76h37.5c0.8,0,1.5,0.7,1.5,1.5v6
	c0,0.8-0.7,1.5-1.5,1.5H82v36C82,126,78,130,73,130z M67,73v48c0,3.3,2.7,6,6,6s6-2.7,6-6V83.5c0-0.8,0.7-1.5,1.5-1.5H124v-3H86.5
	c-0.8,0-1.5-0.7-1.5-1.5V73H67z"/>
</svg>
