<?xml version="1.0" encoding="utf-8"?>
<!-- Generator: Adobe Illustrator 20.1.0, SVG Export Plug-In . SVG Version: 6.00 Build 0)  -->
<svg version="1.1" id="Layer_1" xmlns="http://www.w3.org/2000/svg" xmlns:xlink="http://www.w3.org/1999/xlink" x="0px" y="0px"
	 width="200px" height="200px" viewBox="0 0 200 200" enable-background="new 0 0 200 200" xml:space="preserve">
<circle fill="#FFF8F8" cx="100" cy="100" r="100"/>
<circle fill="#FFEBEB" cx="100" cy="100" r="70"/>
<path fill="#FFC5C5" d="M48,120.5c-0.8-0.8-1.9-1-2.9-0.6c-1,0.4-1.6,1.4-1.6,2.4v11.6c0,1.5,1.2,2.7,2.7,2.7c1.5,0,2.6-1.2,2.6-2.7
	v-5.4c1,0.4,2.2,0.3,3-0.5c1-1,1-2.7,0-3.7L48,120.5z"/>
<path fill="#FFC5C5" d="M154.4,45.6c-1-0.4-2.1-0.2-2.9,0.6l-3.8,3.8c-1,1-1,2.7,0,3.7c0.5,0.5,1.2,0.8,1.9,0.8
	c0.4,0,0.8-0.1,1.1-0.2v5.4c0,1.5,1.2,2.7,2.7,2.7c1.5,0,2.6-1.2,2.6-2.7V48C156,46.9,155.4,46,154.4,45.6z"/>
<path fill="#FFC5C5" d="M187.4,188.1l1.6-1.6c1.1-1.1,1.1-2.9,0-4c-1.1-1.1-2.9-1.1-4,0l-1.6,1.6l-1.6-1.6c-1.1-1.1-2.9-1.1-4,0
	c-0.5,0.5-0.8,1.3-0.8,2c0,0.8,0.3,1.5,0.8,2l1.6,1.6l-1.6,1.6c-1.1,1.1-1.1,2.9,0,4c0.6,0.6,1.3,0.8,2,0.8c0.7,0,1.5-0.3,2-0.8
	l1.6-1.6l1.6,1.6c0.5,0.5,1.2,0.8,2,0.8c0.8,0,1.5-0.3,2-0.8c1.1-1.1,1.1-2.9,0-4L187.4,188.1z"/>
<path fill="#FFC5C5" d="M14.5,13.1L14.5,13.1c-1.5,0-2.7,1.2-2.7,2.7s1.2,2.7,2.6,2.7h0.1c0.5,0,1,0.4,1,1v4.4c0,0.5-0.4,1-1,1h-0.1
	c-0.5,0-1-0.4-1-1c0-1.5-1.2-2.7-2.7-2.7s-2.7,1.2-2.7,2.7c0,3.5,2.8,6.3,6.3,6.3h0.1c3.5,0,6.3-2.8,6.3-6.3v-4.4
	C20.8,15.9,18,13.1,14.5,13.1z"/>
<path fill="#FFC5C5" d="M37,188.1h-5.6c-2.6,0-4.7-2.1-4.7-4.7v-5.6c0-2.6,2.1-4.7,4.7-4.7H37c2.6,0,4.7,2.1,4.7,4.7v5.6
	C41.7,186,39.6,188.1,37,188.1z M31.3,176.8c-0.5,0-0.9,0.4-0.9,0.9v5.6c0,0.5,0.4,0.9,0.9,0.9H37c0.5,0,0.9-0.4,0.9-0.9v-5.6
	c0-0.5-0.4-0.9-0.9-0.9H31.3z"/>
<path fill="#D9453F" d="M122.6,135.3H65.5c-0.8,0-1.5-0.7-1.5-1.5V70.7c0-0.8,0.7-1.5,1.5-1.5H103c0.8,0,1.5,0.7,1.5,1.5
	s-0.7,1.5-1.5,1.5H67v60.1h54.1v-30c0-0.8,0.7-1.5,1.5-1.5s1.5,0.7,1.5,1.5v31.5C124.1,134.6,123.4,135.3,122.6,135.3z"/>
<path fill="#FFC5C5" d="M107.5,75.4c-3,0.4-19.7,16.3-9.2,26.8c3.7,3.7,11.9,3.1,21.8-6.8c9.9-9.9,14.3-29.1,14.3-29.1
	s-9.7,1.4-18.6,5.3c0,0-2.3,10.8-8.3,10.8C107.5,79.8,107.5,75.4,107.5,75.4z"/>
<path fill="#D9453F" d="M103.9,105.8c-2.8,0-5-0.9-6.6-2.5c-3.8-3.8-4.9-8.8-3-14.4c2.6-7.5,10.3-14.7,13-15c0.4,0,0.9,0.1,1.2,0.4
	c0.3,0.3,0.5,0.7,0.5,1.1v5.1c3.6-1.7,5.3-9.1,5.3-9.2c0.1-0.5,0.4-0.9,0.9-1.1c9-4,18.6-5.3,19-5.4c0.5-0.1,1,0.1,1.3,0.5
	s0.5,0.9,0.4,1.3c-0.2,0.8-4.6,19.7-14.7,29.8C114.6,103.1,108.5,105.8,103.9,105.8z M106,77.9c-2.7,2.1-7.5,7.1-9.1,12.8
	c-1.2,4.1-0.3,7.6,2.5,10.5c3.1,3.1,10.6,2.3,19.7-6.8c7.5-7.5,11.8-20.9,13.3-26.2c-3.2,0.6-9.4,2-15.3,4.5
	c-0.7,2.7-3.4,11.2-9.6,11.2c-0.8,0-1.5-0.7-1.5-1.5V77.9z"/>
<path fill="#D9453F" d="M86.9,115.3c-0.4,0-0.8-0.1-1.1-0.4c-0.6-0.6-0.6-1.5,0-2.1l27.4-27.4c0.6-0.6,1.5-0.6,2.1,0
	c0.6,0.6,0.6,1.5,0,2.1L88,114.9C87.7,115.2,87.3,115.3,86.9,115.3z"/>
</svg>
