<?xml version="1.0" encoding="UTF-8" standalone="no"?>
<svg width="22px" height="21px" viewBox="0 0 22 21" version="1.1" xmlns="http://www.w3.org/2000/svg" xmlns:xlink="http://www.w3.org/1999/xlink" xmlns:sketch="http://www.bohemiancoding.com/sketch/ns">
    <!-- Generator: Sketch 3.3.2 (12043) - http://www.bohemiancoding.com/sketch -->
    <title>fd-headings</title>
    <desc>Created with Sketch.</desc>
    <defs></defs>
    <g id="Page-1" stroke="none" stroke-width="1" fill="none" fill-rule="evenodd" sketch:type="MSPage">
        <g id="fd-headings" sketch:type="MSLayerGroup" fill="#2D2F31">
            <path d="M21.9541016,21 L13.3261719,21 L13.3261719,19.9599609 C13.560548,19.9404296 13.8999001,19.911133 14.3442383,19.8720703 C14.7885764,19.8330076 15.0937492,19.7744145 15.2597656,19.6962891 C15.5527358,19.579101 15.7675774,19.4008801 15.9042969,19.1616211 C16.0410163,18.9223621 16.109375,18.6123066 16.109375,18.2314453 L16.109375,10.8339844 L6.33886719,10.8339844 L6.33886719,18.0703125 C6.33886719,18.4121111 6.39501897,18.7001941 6.50732422,18.9345703 C6.61962947,19.1689465 6.84179521,19.3740226 7.17382812,19.5498047 C7.33984458,19.6376958 7.63525178,19.7255855 8.06005859,19.8134766 C8.48486541,19.9013676 8.81933472,19.9501953 9.06347656,19.9599609 L9.06347656,21 L0.435546875,21 L0.435546875,19.9599609 C0.669923047,19.9404296 1.00927512,19.911133 1.45361328,19.8720703 C1.89795144,19.8330076 2.20312417,19.7744145 2.36914062,19.6962891 C2.66211084,19.579101 2.87695244,19.4008801 3.01367188,19.1616211 C3.15039131,18.9223621 3.21875,18.6123066 3.21875,18.2314453 L3.21875,3.23144531 C3.21875,2.91894375 3.15527407,2.63330208 3.02832031,2.37451172 C2.90136655,2.11572136 2.68164219,1.91308667 2.36914062,1.76660156 C2.10546743,1.6396478 1.78564641,1.52734424 1.40966797,1.4296875 C1.03368953,1.33203076 0.708985742,1.2734376 0.435546875,1.25390625 L0.435546875,0.213867188 L9.06347656,0.213867188 L9.06347656,1.25390625 C8.7900377,1.26367192 8.45556838,1.3076168 8.06005859,1.38574219 C7.6645488,1.46386758 7.3691416,1.53710903 7.17382812,1.60546875 C6.84179521,1.72265684 6.61962947,1.91796738 6.50732422,2.19140625 C6.39501897,2.46484512 6.33886719,2.7626937 6.33886719,3.08496094 L6.33886719,9.53027344 L16.109375,9.53027344 L16.109375,3.23144531 C16.109375,2.91894375 16.0458991,2.63330208 15.9189453,2.37451172 C15.7919916,2.11572136 15.5722672,1.91308667 15.2597656,1.76660156 C14.9960924,1.6396478 14.6762714,1.52734424 14.300293,1.4296875 C13.9243145,1.33203076 13.5996107,1.2734376 13.3261719,1.25390625 L13.3261719,0.213867188 L21.9541016,0.213867188 L21.9541016,1.25390625 C21.6806627,1.26367192 21.3461934,1.3076168 20.9506836,1.38574219 C20.5551738,1.46386758 20.2597666,1.53710903 20.0644531,1.60546875 C19.7324202,1.72265684 19.5102545,1.91796738 19.3979492,2.19140625 C19.285644,2.46484512 19.2294922,2.7626937 19.2294922,3.08496094 L19.2294922,18.0703125 C19.2294922,18.4121111 19.285644,18.7001941 19.3979492,18.9345703 C19.5102545,19.1689465 19.7324202,19.3740226 20.0644531,19.5498047 C20.2304696,19.6376958 20.5258768,19.7255855 20.9506836,19.8134766 C21.3754904,19.9013676 21.7099597,19.9501953 21.9541016,19.9599609 L21.9541016,21 Z" id="Headings" sketch:type="MSShapeGroup"></path>
        </g>
    </g>
</svg>