<?xml version="1.0" encoding="UTF-8" standalone="no"?>
<svg width="9px" height="24px" viewBox="0 0 9 24" version="1.1" xmlns="http://www.w3.org/2000/svg" xmlns:xlink="http://www.w3.org/1999/xlink" xmlns:sketch="http://www.bohemiancoding.com/sketch/ns">
    <!-- Generator: Sketch 3.3.2 (12043) - http://www.bohemiancoding.com/sketch -->
    <title>fd-info-text</title>
    <desc>Created with Sketch.</desc>
    <defs></defs>
    <g id="Page-1" stroke="none" stroke-width="1" fill="none" fill-rule="evenodd" sketch:type="MSPage">
        <g id="fd-info-text" sketch:type="MSLayerGroup" fill="#2D2F31">
            <path d="M7.07128906,21.4033203 L6.8515625,22.3408203 C5.95312051,22.7021502 5.23535425,22.9536126 4.69824219,23.0952148 C4.16113013,23.2368171 3.70215034,23.3076172 3.32128906,23.3076172 C2.54003516,23.3076172 1.95410352,23.1049825 1.56347656,22.699707 C1.17284961,22.2944316 0.977539062,21.7939483 0.977539062,21.1982422 C0.977539062,20.9736317 0.997070117,20.739259 1.03613281,20.4951172 C1.07519551,20.2509753 1.13867144,19.9433612 1.2265625,19.5722656 L2.77929688,13.3466797 C2.85742227,13.0048811 2.9331051,12.6386738 3.00634766,12.2480469 C3.07959021,11.8574199 3.11621094,11.525392 3.11621094,11.2519531 C3.11621094,10.7050754 3.02587981,10.3413095 2.84521484,10.1606445 C2.66454988,9.97997957 2.29590122,9.88964844 1.73925781,9.88964844 C1.52441299,9.88964844 1.23877131,9.92382778 0.882324219,9.9921875 C0.525877124,10.0605472 0.25488374,10.1191404 0.0693359375,10.1679688 L0.2890625,9.23046875 C1.05078506,8.88867017 1.73437197,8.63476646 2.33984375,8.46875 C2.94531553,8.30273354 3.42382637,8.21972656 3.77539062,8.21972656 C4.57617588,8.21972656 5.15722476,8.41015435 5.51855469,8.79101562 C5.87988462,9.1718769 6.06054688,9.68456709 6.06054688,10.3291016 C6.06054688,10.5048837 6.04101582,10.7441391 6.00195312,11.046875 C5.96289043,11.3496109 5.90429727,11.6523422 5.82617188,11.9550781 L4.25878906,18.1806641 C4.16113232,18.5615253 4.07568396,18.9350568 4.00244141,19.3012695 C3.92919885,19.6674823 3.89257812,19.9677723 3.89257812,20.2021484 C3.89257812,20.7587918 4.0170886,21.1396474 4.26611328,21.3447266 C4.51513796,21.5498057 4.91796597,21.6523438 5.47460938,21.6523438 C5.66015718,21.6523438 5.9262678,21.6279299 6.27294922,21.5791016 C6.61963064,21.5302732 6.88574126,21.47168 7.07128906,21.4033203 L7.07128906,21.4033203 Z M8.11132812,2.68261719 C8.11132812,3.2392606 7.93066587,3.72509558 7.56933594,4.14013672 C7.20800601,4.55517786 6.75879175,4.76269531 6.22167969,4.76269531 C5.72363032,4.76269531 5.29394712,4.56494338 4.93261719,4.16943359 C4.57128726,3.7739238 4.390625,3.32226816 4.390625,2.81445312 C4.390625,2.27734106 4.57128726,1.80859575 4.93261719,1.40820312 C5.29394712,1.0078105 5.72363032,0.807617188 6.22167969,0.807617188 C6.7783231,0.807617188 7.23242012,0.995603589 7.58398438,1.37158203 C7.93554863,1.74756047 8.11132812,2.18456782 8.11132812,2.68261719 L8.11132812,2.68261719 Z" id="i" sketch:type="MSShapeGroup"></path>
        </g>
    </g>
</svg>