<?xml version="1.0" encoding="UTF-8" standalone="no"?>
<svg width="44px" height="21px" viewBox="0 0 44 21" version="1.1" xmlns="http://www.w3.org/2000/svg" xmlns:xlink="http://www.w3.org/1999/xlink" xmlns:sketch="http://www.bohemiancoding.com/sketch/ns">
    <!-- Generator: Sketch 3.3.2 (12043) - http://www.bohemiancoding.com/sketch -->
    <title>field-number</title>
    <desc>Created with Sketch.</desc>
    <defs></defs>
    <g id="Page-1" stroke="none" stroke-width="1" fill="none" fill-rule="evenodd" sketch:type="MSPage">
        <g id="field-number" sketch:type="MSLayerGroup" fill="#21304A">
            <path d="M7.304,20.496 L5.288,20.496 L5.288,3.164 L1.704,6.216 L0.472,4.816 L5.512,0.672 L7.304,0.672 L7.304,20.496 Z M27.632,20.496 L14.948,20.496 L14.948,18.396 L23.068,10.192 C23.3666682,9.89333184 23.6606652,9.57133506 23.95,9.226 C24.2393348,8.88066494 24.4959989,8.5213352 24.72,8.148 C24.9440011,7.7746648 25.1213327,7.3780021 25.252,6.958 C25.3826673,6.5379979 25.448,6.10400224 25.448,5.656 C25.448,5.07733044 25.3453344,4.554669 25.14,4.088 C24.9346656,3.621331 24.6500018,3.2246683 24.286,2.898 C23.9219982,2.5713317 23.5020024,2.31933422 23.026,2.142 C22.5499976,1.96466578 22.0506693,1.876 21.528,1.876 C20.4639947,1.876 19.5680036,2.20733002 18.84,2.87 C18.1119964,3.53266998 17.6453344,4.3773282 17.44,5.404 L15.452,5.012 C15.5826673,4.32132988 15.8299982,3.67733632 16.194,3.08 C16.5580018,2.48266368 17.0059973,1.96933548 17.538,1.54 C18.0700027,1.11066452 18.6719966,0.77466788 19.344,0.532 C20.0160034,0.28933212 20.7439961,0.168 21.528,0.168 C22.3306707,0.168 23.0913297,0.2846655 23.81,0.518 C24.5286703,0.7513345 25.158664,1.09666438 25.7,1.554 C26.241336,2.01133562 26.6753317,2.58066326 27.002,3.262 C27.3286683,3.94333674 27.492,4.73199552 27.492,5.628 C27.492,6.26266984 27.4033342,6.85066396 27.226,7.392 C27.0486658,7.93333604 26.8153348,8.44666424 26.526,8.932 C26.2366652,9.41733576 25.896002,9.87933114 25.504,10.318 C25.111998,10.7566689 24.7013355,11.1906645 24.272,11.62 L17.132,18.704 L27.632,18.704 L27.632,20.496 Z M35.752,9.24 L36.62,9.24 C37.2546698,9.24 37.8519972,9.17466732 38.412,9.044 C38.9720028,8.91333268 39.4619979,8.70333478 39.882,8.414 C40.3020021,8.12466522 40.6333321,7.746669 40.876,7.28 C41.1186679,6.813331 41.24,6.2533366 41.24,5.6 C41.24,5.0399972 41.1373344,4.53133562 40.932,4.074 C40.7266656,3.61666438 40.4420018,3.2246683 40.078,2.898 C39.7139982,2.5713317 39.2940024,2.31933422 38.818,2.142 C38.3419976,1.96466578 37.8426693,1.876 37.32,1.876 C36.4799958,1.876 35.7380032,2.07199804 35.094,2.464 C34.4499968,2.85600196 33.932002,3.43466284 33.54,4.2 L31.832,3.304 C32.4480031,2.23999468 33.2319952,1.4513359 34.184,0.938 C35.1360048,0.4246641 36.2186606,0.168 37.432,0.168 C38.2160039,0.168 38.9579965,0.2846655 39.658,0.518 C40.3580035,0.7513345 40.9739973,1.09199776 41.506,1.54 C42.0380027,1.98800224 42.4579985,2.54333002 42.766,3.206 C43.0740015,3.86866998 43.228,4.62932904 43.228,5.488 C43.228,6.66400588 42.9013366,7.6486627 42.248,8.442 C41.5946634,9.2353373 40.7733383,9.76266536 39.784,10.024 L39.784,10.08 C40.9226724,10.3226679 41.8746628,10.8686624 42.64,11.718 C43.4053372,12.5673376 43.788,13.6639933 43.788,15.008 C43.788,15.9600048 43.6153351,16.804663 43.27,17.542 C42.9246649,18.279337 42.4626696,18.9046641 41.884,19.418 C41.3053304,19.9313359 40.6286705,20.323332 39.854,20.594 C39.0793295,20.864668 38.262671,21 37.404,21 C35.9479927,21 34.6786721,20.6500035 33.596,19.95 C32.5133279,19.2499965 31.6920028,18.2466732 31.132,16.94 L33.036,16.24 C33.3720017,17.1920048 33.9319961,17.9339973 34.716,18.466 C35.5000039,18.9980027 36.395995,19.264 37.404,19.264 C37.9640028,19.264 38.5099973,19.166001 39.042,18.97 C39.5740027,18.773999 40.0406647,18.4940018 40.442,18.13 C40.8433353,17.7659982 41.1653321,17.3226693 41.408,16.8 C41.6506679,16.2773307 41.772,15.6800034 41.772,15.008 C41.772,14.2613296 41.6273348,13.6313359 41.338,13.118 C41.0486652,12.6046641 40.6613358,12.1893349 40.176,11.872 C39.6906642,11.5546651 39.1400031,11.3260007 38.524,11.186 C37.9079969,11.0459993 37.2733366,10.976 36.62,10.976 L35.752,10.976 L35.752,9.24 Z" id="number" sketch:type="MSShapeGroup"></path>
        </g>
    </g>
</svg>