<?xml version="1.0" encoding="UTF-8" standalone="no"?>
<svg width="49px" height="22px" viewBox="0 0 49 22" version="1.1" xmlns="http://www.w3.org/2000/svg" xmlns:xlink="http://www.w3.org/1999/xlink" xmlns:sketch="http://www.bohemiancoding.com/sketch/ns">
    <!-- Generator: Sketch 3.3.2 (12043) - http://www.bohemiancoding.com/sketch -->
    <title>field-decimal</title>
    <desc>Created with Sketch.</desc>
    <defs></defs>
    <g id="Page-1" stroke="none" stroke-width="1" fill="none" fill-rule="evenodd" sketch:type="MSPage">
        <g id="contentful_icons" sketch:type="MSArtboardGroup" transform="translate(0.000000, -206.000000)" fill="#21304A">
            <g id="field-decimal" sketch:type="MSLayerGroup" transform="translate(0.000000, 206.000000)">
                <path d="M10.061287,12.1041879 L12.7170582,12.1041879 L12.7170582,13.7129724 L10.061287,13.7129724 L10.061287,18.0796731 L8.27374872,18.0796731 L8.27374872,13.7129724 L0,13.7129724 L0,11.9254341 L7.66087845,0 L10.061287,0 L10.061287,12.1041879 Z M8.27374872,2.06843718 L8.2226762,2.06843718 L1.91521961,12.1041879 L8.27374872,12.1041879 L8.27374872,2.06843718 Z M16.3432074,21.6547497 L14.8876404,21.6547497 L16.59857,15.6537283 L18.4116445,15.6537283 L16.3432074,21.6547497 Z M32.5076609,1.63432074 L24.9744637,1.63432074 L24.8467824,7.226762 C25.2383404,7.09056793 25.6511725,6.9884239 26.0852911,6.92032686 C26.5194097,6.85222983 26.9407538,6.81818182 27.3493361,6.81818182 C28.200549,6.81818182 28.9836532,6.95437385 29.6986721,7.226762 C30.413691,7.49915015 31.0350672,7.88644625 31.5628192,8.3886619 C32.0905712,8.89087755 32.4991473,9.4909737 32.7885598,10.1889683 C33.0779722,10.886963 33.2226762,11.6530432 33.2226762,12.4872319 C33.2226762,13.3554691 33.0779722,14.1598533 32.7885598,14.9004086 C32.4991473,15.6409639 32.0905712,16.279364 31.5628192,16.8156282 C31.0350672,17.3518924 30.400923,17.7732365 29.6603677,18.0796731 C28.9198124,18.3861098 28.1069162,18.5393258 27.2216547,18.5393258 C25.9107868,18.5393258 24.8042265,18.2414058 23.9019408,17.6455567 C22.999655,17.0497076 22.3016708,16.2495794 21.8079673,15.2451481 L23.4678243,14.5045965 C23.7912852,15.2536639 24.2807254,15.8495041 24.9361593,16.2921348 C25.5915933,16.7347656 26.3193695,16.9560776 27.1195097,16.9560776 C27.732383,16.9560776 28.2984312,16.8496776 28.8176711,16.6368744 C29.336911,16.4240711 29.7837911,16.126151 30.1583248,15.7431052 C30.5328585,15.3600594 30.8265226,14.9046673 31.0393258,14.3769152 C31.2521291,13.8491632 31.3585291,13.278859 31.3585291,12.6659857 C31.3585291,12.0020396 31.2436171,11.4019434 31.0137896,10.8656793 C30.7839621,10.3294151 30.469018,9.87402298 30.0689479,9.49948927 C29.6688778,9.12495557 29.1964617,8.8355475 28.6516854,8.63125638 C28.1069091,8.42696527 27.5110689,8.32482125 26.8641471,8.32482125 C26.2172252,8.32482125 25.5745691,8.41419727 24.9361593,8.59295199 C24.2977496,8.77170672 23.6891415,9.01429877 23.1103166,9.32073544 L23.2890705,0 L32.5076609,0 L32.5076609,1.63432074 Z M40.3217569,7.8907048 L40.3728294,7.94177732 C40.6452176,7.73748621 41.0282577,7.57575817 41.5219612,7.45658836 C42.0156647,7.33741854 42.4923368,7.27783453 42.9519918,7.27783453 C43.7351078,7.27783453 44.4628839,7.41402656 45.1353422,7.68641471 C45.8078004,7.95880286 46.3908726,8.33758695 46.8845761,8.82277835 C47.3782796,9.30796974 47.7655757,9.89529788 48.046476,10.5847804 C48.3273763,11.2742629 48.4678243,12.0275751 48.4678243,12.8447395 C48.4678243,13.6959525 48.3231203,14.4705447 48.0337079,15.1685393 C47.7442955,15.866534 47.3357194,16.4623741 46.8079673,16.9560776 C46.2802153,17.4497812 45.6588391,17.8370772 44.9438202,18.1179775 C44.2288013,18.3988778 43.4456971,18.5393258 42.5944842,18.5393258 C41.7432712,18.5393258 40.960167,18.3988778 40.2451481,18.1179775 C39.5301292,17.8370772 38.9087531,17.4497812 38.381001,16.9560776 C37.853249,16.4623741 37.4446729,15.866534 37.1552605,15.1685393 C36.8658481,14.4705447 36.721144,13.6959525 36.721144,12.8447395 C36.721144,11.9084053 36.8828721,11.0401811 37.206333,10.2400409 C37.5297939,9.43990066 37.912834,8.67382048 38.3554648,7.94177732 L43.2839632,0 L45.4034729,0 L40.3217569,7.8907048 Z M38.5597549,12.8447395 C38.5597549,13.4405886 38.6576429,13.9896127 38.8534219,14.4918284 C39.0492008,14.9940441 39.3258409,15.4281562 39.6833504,15.7941777 C40.0408598,16.1601993 40.4664599,16.4496074 40.9601634,16.6624106 C41.453867,16.8752139 41.9986351,16.9816139 42.5944842,16.9816139 C43.1903332,16.9816139 43.7351014,16.8752139 44.2288049,16.6624106 C44.7225084,16.4496074 45.1481085,16.1601993 45.505618,15.7941777 C45.8631274,15.4281562 46.1397675,14.9940441 46.3355465,14.4918284 C46.5313255,13.9896127 46.6292135,13.4405886 46.6292135,12.8447395 C46.6292135,12.2659147 46.5355815,11.7254026 46.3483146,11.2231869 C46.1610478,10.7209713 45.8929197,10.2868592 45.5439224,9.92083759 C45.1949251,9.55481601 44.7693249,9.26966394 44.2671093,9.06537283 C43.7648936,8.86108172 43.2073575,8.75893769 42.5944842,8.75893769 C41.9816108,8.75893769 41.4240747,8.86108172 40.921859,9.06537283 C40.4196434,9.26966394 39.9940433,9.55481601 39.645046,9.92083759 C39.2960486,10.2868592 39.0279206,10.7209713 38.8406537,11.2231869 C38.6533869,11.7254026 38.5597549,12.2659147 38.5597549,12.8447395 L38.5597549,12.8447395 Z" id="dec" sketch:type="MSShapeGroup"></path>
            </g>
        </g>
    </g>
</svg>