<?xml version="1.0" encoding="UTF-8" standalone="no"?>
<svg width="30px" height="30px" viewBox="0 0 30 30" version="1.1" xmlns="http://www.w3.org/2000/svg" xmlns:xlink="http://www.w3.org/1999/xlink" xmlns:sketch="http://www.bohemiancoding.com/sketch/ns">
    <!-- Generator: Sketch 3.3.2 (12043) - http://www.bohemiancoding.com/sketch -->
    <title>field-number-small</title>
    <desc>Created with Sketch.</desc>
    <defs></defs>
    <g id="Page-1" stroke="none" stroke-width="1" fill="none" fill-rule="evenodd" sketch:type="MSPage">
        <g id="contentful_icons" sketch:type="MSArtboardGroup" transform="translate(-101.000000, -251.000000)">
            <g id="field-number-small" sketch:type="MSLayerGroup" transform="translate(101.000000, 251.000000)">
                <rect id="frame" stroke="#21304A" fill-opacity="0" fill="#FFFFFF" sketch:type="MSShapeGroup" x="0" y="0" width="30" height="30" rx="5"></rect>
                <path d="M10.608,20.616 L9.056,20.616 L9.056,11.176 L6.912,12.968 L6,11.896 L9.216,9.288 L10.608,9.288 L10.608,20.616 Z M22.416,20.616 L15.024,20.616 L15.024,19.128 L19.536,14.648 C19.877335,14.2959982 20.1706654,13.9280019 20.416,13.544 C20.6613346,13.1599981 20.784,12.7280024 20.784,12.248 C20.784,11.9493318 20.7306672,11.6800012 20.624,11.44 C20.5173328,11.1999988 20.3733342,10.9946675 20.192,10.824 C20.0106658,10.6533325 19.7973346,10.5226671 19.552,10.432 C19.3066654,10.3413329 19.0453347,10.296 18.768,10.296 C18.1919971,10.296 17.7173352,10.4799982 17.344,10.848 C16.9706648,11.2160018 16.7360005,11.6879971 16.64,12.264 L15.12,12.008 C15.1840003,11.5813312 15.319999,11.1840018 15.528,10.816 C15.736001,10.4479982 15.9999984,10.1280014 16.32,9.856 C16.6400016,9.58399864 17.0106646,9.37333408 17.432,9.224 C17.8533354,9.07466592 18.3039976,9 18.784,9 C19.2533357,9 19.7039978,9.06933264 20.136,9.208 C20.5680022,9.34666736 20.9493317,9.549332 21.28,9.816 C21.6106683,10.082668 21.8746657,10.4186646 22.072,10.824 C22.2693343,11.2293354 22.368,11.6933307 22.368,12.216 C22.368,12.5786685 22.3200005,12.9146651 22.224,13.224 C22.1279995,13.5333349 21.9973342,13.8266653 21.832,14.104 C21.6666658,14.3813347 21.4720011,14.6453321 21.248,14.896 C21.0239989,15.1466679 20.7893346,15.3946654 20.544,15.64 L16.864,19.224 L22.416,19.224 L22.416,20.616 Z" id="number" fill="#000000" sketch:type="MSShapeGroup"></path>
            </g>
        </g>
    </g>
</svg>