<?xml version="1.0" encoding="UTF-8" standalone="no"?>
<svg width="30px" height="30px" viewBox="0 0 30 30" version="1.1" xmlns="http://www.w3.org/2000/svg" xmlns:xlink="http://www.w3.org/1999/xlink" xmlns:sketch="http://www.bohemiancoding.com/sketch/ns">
    <!-- Generator: Sketch 3.3.2 (12043) - http://www.bohemiancoding.com/sketch -->
    <title>field-location-small</title>
    <desc>Created with Sketch.</desc>
    <defs></defs>
    <g id="Page-1" stroke="none" stroke-width="1" fill="none" fill-rule="evenodd" sketch:type="MSPage">
        <g id="contentful_icons" sketch:type="MSArtboardGroup" transform="translate(-1.000000, -301.000000)" stroke="#21304A" fill-opacity="0">
            <g id="field-location-small" sketch:type="MSLayerGroup" transform="translate(1.000000, 301.000000)">
                <rect id="frame" fill="#FFFFFF" sketch:type="MSShapeGroup" x="0" y="0" width="30" height="30" rx="5"></rect>
                <path d="M14.8947368,25 C15.3591331,25 22.7894737,17.2738794 22.7894737,12.9069767 C22.7894737,8.54007407 19.2548796,5 14.8947368,5 C10.5345941,5 7,8.54007407 7,12.9069767 C7,17.2738794 14.4303406,25 14.8947368,25 Z M14.8947368,17.5581395 C17.4595267,17.5581395 19.5386997,15.475743 19.5386997,12.9069767 C19.5386997,10.3382105 17.4595267,8.25581395 14.8947368,8.25581395 C12.329947,8.25581395 10.250774,10.3382105 10.250774,12.9069767 C10.250774,15.475743 12.329947,17.5581395 14.8947368,17.5581395 Z" id="Location" fill="#D8D8D8" sketch:type="MSShapeGroup"></path>
            </g>
        </g>
    </g>
</svg>