<?xml version="1.0" encoding="UTF-8" standalone="no"?>
<svg width="20px" height="20px" viewBox="0 0 20 20" version="1.1" xmlns="http://www.w3.org/2000/svg" xmlns:xlink="http://www.w3.org/1999/xlink" xmlns:sketch="http://www.bohemiancoding.com/sketch/ns">
    <!-- Generator: Sketch 3.3.2 (12043) - http://www.bohemiancoding.com/sketch -->
    <title>field-reference copy 2</title>
    <desc>Created with Sketch.</desc>
    <defs></defs>
    <g id="Page-1" stroke="none" stroke-width="1" fill="none" fill-rule="evenodd" sketch:type="MSPage">
        <g id="contentful_icons" sketch:type="MSArtboardGroup" transform="translate(-106.000000, -507.000000)" stroke="#21304A">
            <g id="field-reference-array-small" sketch:type="MSLayerGroup" transform="translate(101.000000, 501.000000)">
                <g id="field-reference-copy-2" transform="translate(5.000000, 6.000000)" sketch:type="MSShapeGroup">
                    <path d="M0,2.19920954 C0,1.09803229 0.901950359,0.205351742 2.0085302,0.205351742 L9.9914698,0.205351742 C11.1007504,0.205351742 12,1.10282056 12,2.20385912 L12,7.17948741 L11.0010434,7.17948741 C9.89589766,7.17948741 9,8.0743094 9,9.17746475 L9,13.3333331 L1.9973917,13.3333331 C0.894262725,13.3333331 0,12.4309938 0,11.3394753 L0,2.19920954 Z" id="Rectangle-3" fill-opacity="0" fill="#FFFFFF"></path>
                    <path d="M8,8.15152576 C8,7.04823778 8.90195036,6.15384615 10.0085302,6.15384615 L17.9914698,6.15384615 C19.1007504,6.15384615 20,7.04215709 20,8.15152576 L20,17.6948516 C20,18.7981396 19.0980496,19.6925312 17.9914698,19.6925312 L10.0085302,19.6925312 C8.8992496,19.6925312 8,18.8042203 8,17.6948516 L8,8.15152576 Z" id="Rectangle-6-Copy" fill-opacity="0" fill="#D8D8D8"></path>
                    <path d="M6.5,6.15384615 L13.5,11.4312821" id="Line" stroke-linecap="round" stroke-linejoin="round"></path>
                    <ellipse id="Oval-7" fill-opacity="0" fill="#D8D8D8" cx="4.75" cy="5.02102564" rx="1.75" ry="1.79487179"></ellipse>
                    <ellipse id="Oval-8" fill-opacity="0" fill="#D8D8D8" cx="15.25" cy="12.7133333" rx="1.75" ry="1.79487179"></ellipse>
                </g>
            </g>
        </g>
    </g>
</svg>