<?xml version="1.0" encoding="UTF-8" standalone="no"?>
<svg width="30px" height="30px" viewBox="0 0 30 30" version="1.1" xmlns="http://www.w3.org/2000/svg" xmlns:xlink="http://www.w3.org/1999/xlink" xmlns:sketch="http://www.bohemiancoding.com/sketch/ns">
    <!-- Generator: Sketch 3.3.2 (12043) - http://www.bohemiancoding.com/sketch -->
    <title>field-json-small</title>
    <desc>Created with Sketch.</desc>
    <defs></defs>
    <g id="Page-1" stroke="none" stroke-width="1" fill="none" fill-rule="evenodd" sketch:type="MSPage">
        <g id="contentful_icons" sketch:type="MSArtboardGroup" transform="translate(-151.000000, -301.000000)">
            <g id="field-json-small" sketch:type="MSLayerGroup" transform="translate(151.000000, 301.000000)">
                <rect id="frame" stroke="#21304A" fill-opacity="0" fill="#FFFFFF" sketch:type="MSShapeGroup" x="0" y="0" width="30" height="30" rx="5"></rect>
                <path d="M6,14.512 C6.3200016,14.512 6.59733216,14.4000011 6.832,14.176 C7.06666784,13.9519989 7.184,13.5840026 7.184,13.072 L7.184,10.064 C7.184,9.70133152 7.23466616,9.38933464 7.336,9.128 C7.43733384,8.86666536 7.57599912,8.65066752 7.752,8.48 C7.92800088,8.30933248 8.13066552,8.18666704 8.36,8.112 C8.58933448,8.03733296 8.82666544,8 9.072,8 L10.16,8 L10.16,9.104 L9.344,9.104 C9.16266576,9.104 9.0186672,9.13866632 8.912,9.208 C8.8053328,9.27733368 8.7253336,9.36799944 8.672,9.48 C8.6186664,9.59200056 8.58133344,9.714666 8.56,9.848 C8.53866656,9.981334 8.528,10.1173326 8.528,10.256 L8.528,13.184 C8.528,13.5360018 8.47200056,13.8293322 8.36,14.064 C8.24799944,14.2986678 8.1120008,14.4879993 7.952,14.632 C7.7919992,14.7760007 7.62666752,14.885333 7.456,14.96 C7.28533248,15.034667 7.1466672,15.0773333 7.04,15.088 L7.04,15.12 C7.1466672,15.1306667 7.28533248,15.1679997 7.456,15.232 C7.62666752,15.2960003 7.7919992,15.3999993 7.952,15.544 C8.1120008,15.6880007 8.24799944,15.8826654 8.36,16.128 C8.47200056,16.3733346 8.528,16.6879981 8.528,17.072 L8.528,19.952 C8.528,20.0906674 8.53866656,20.226666 8.56,20.36 C8.58133344,20.493334 8.6186664,20.6159994 8.672,20.728 C8.7253336,20.8400006 8.8053328,20.9306663 8.912,21 C9.0186672,21.0693337 9.16266576,21.104 9.344,21.104 L10.16,21.104 L10.16,22.208 L9.072,22.208 C8.82666544,22.208 8.58933448,22.170667 8.36,22.096 C8.13066552,22.021333 7.92800088,21.8986675 7.752,21.728 C7.57599912,21.5573325 7.43733384,21.3440013 7.336,21.088 C7.23466616,20.8319987 7.184,20.5173352 7.184,20.144 L7.184,17.2 C7.184,16.6559973 7.06666784,16.2693345 6.832,16.04 C6.59733216,15.8106655 6.3200016,15.696 6,15.696 L6,14.512 Z M14.112,18.752 C14.112,19.0293347 14.0106677,19.2746656 13.808,19.488 C13.6053323,19.7013344 13.3493349,19.808 13.04,19.808 C12.7413318,19.808 12.488001,19.704001 12.28,19.496 C12.071999,19.287999 11.968,19.0453347 11.968,18.768 C11.968,18.4799986 12.0693323,18.232001 12.272,18.024 C12.4746677,17.815999 12.7306651,17.712 13.04,17.712 C13.3493349,17.712 13.6053323,17.8133323 13.808,18.016 C14.0106677,18.2186677 14.112,18.4639986 14.112,18.752 L14.112,18.752 Z M18.272,18.752 C18.272,19.0293347 18.1706677,19.2746656 17.968,19.488 C17.7653323,19.7013344 17.5093349,19.808 17.2,19.808 C16.9013318,19.808 16.648001,19.704001 16.44,19.496 C16.231999,19.287999 16.128,19.0453347 16.128,18.768 C16.128,18.4799986 16.2293323,18.232001 16.432,18.024 C16.6346677,17.815999 16.8906651,17.712 17.2,17.712 C17.5093349,17.712 17.7653323,17.8133323 17.968,18.016 C18.1706677,18.2186677 18.272,18.4639986 18.272,18.752 L18.272,18.752 Z M24.24,15.696 C23.9199984,15.696 23.6426678,15.8106655 23.408,16.04 C23.1733322,16.2693345 23.056,16.6559973 23.056,17.2 L23.056,20.144 C23.056,20.5173352 23.0053338,20.8319987 22.904,21.088 C22.8026662,21.3440013 22.6640009,21.5573325 22.488,21.728 C22.3119991,21.8986675 22.1093345,22.021333 21.88,22.096 C21.6506655,22.170667 21.4133346,22.208 21.168,22.208 L20.08,22.208 L20.08,21.104 L20.912,21.104 C21.0826675,21.104 21.2213328,21.0693337 21.328,21 C21.4346672,20.9306663 21.5146664,20.8400006 21.568,20.728 C21.6213336,20.6159994 21.6586666,20.493334 21.68,20.36 C21.7013334,20.226666 21.712,20.0906674 21.712,19.952 L21.712,17.072 C21.712,16.6879981 21.7679994,16.3733346 21.88,16.128 C21.9920006,15.8826654 22.1279992,15.6880007 22.288,15.544 C22.4480008,15.3999993 22.6133325,15.2960003 22.784,15.232 C22.9546675,15.1679997 23.0986661,15.1306667 23.216,15.12 L23.216,15.088 C23.0986661,15.0773333 22.9546675,15.034667 22.784,14.96 C22.6133325,14.885333 22.4480008,14.7760007 22.288,14.632 C22.1279992,14.4879993 21.9920006,14.2986678 21.88,14.064 C21.7679994,13.8293322 21.712,13.5360018 21.712,13.184 L21.712,10.256 C21.712,10.1173326 21.7013334,9.981334 21.68,9.848 C21.6586666,9.714666 21.6213336,9.59200056 21.568,9.48 C21.5146664,9.36799944 21.4346672,9.27733368 21.328,9.208 C21.2213328,9.13866632 21.0826675,9.104 20.912,9.104 L20.08,9.104 L20.08,8 L21.168,8 C21.4133346,8 21.6506655,8.03733296 21.88,8.112 C22.1093345,8.18666704 22.3119991,8.30933248 22.488,8.48 C22.6640009,8.65066752 22.8026662,8.86666536 22.904,9.128 C23.0053338,9.38933464 23.056,9.70133152 23.056,10.064 L23.056,13.072 C23.056,13.5840026 23.1733322,13.9519989 23.408,14.176 C23.6426678,14.4000011 23.9199984,14.512 24.24,14.512 L24.24,15.696 Z" id="json" fill="#000000" sketch:type="MSShapeGroup"></path>
            </g>
        </g>
    </g>
</svg>