<?xml version="1.0" encoding="UTF-8" standalone="no"?>
<svg width="30px" height="30px" viewBox="0 0 30 30" version="1.1" xmlns="http://www.w3.org/2000/svg" xmlns:xlink="http://www.w3.org/1999/xlink" xmlns:sketch="http://www.bohemiancoding.com/sketch/ns">
    <!-- Generator: Sketch 3.3.2 (12043) - http://www.bohemiancoding.com/sketch -->
    <title>field-decimal-small</title>
    <desc>Created with Sketch.</desc>
    <defs></defs>
    <g id="Page-1" stroke="none" stroke-width="1" fill="none" fill-rule="evenodd" sketch:type="MSPage">
        <g id="field-decimal-small" sketch:type="MSLayerGroup">
            <rect id="frame" stroke="#21304A" fill-opacity="0" fill="#FFFFFF" sketch:type="MSShapeGroup" x="0" y="0" width="30" height="30" rx="5"></rect>
            <path d="M11.72,17.456 L13.352,17.456 L13.352,18.784 L11.72,18.784 L11.72,21.328 L10.216,21.328 L10.216,18.784 L5,18.784 L5,17.376 L9.816,10 L11.72,10 L11.72,17.456 Z M10.216,11.776 L10.184,11.776 L6.6,17.456 L10.216,17.456 L10.216,11.776 Z M14.8479999,23.456 L13.5679999,23.456 L14.6719999,19.456 L16.1759999,19.456 L14.8479999,23.456 Z M24.0239998,11.376 L19.3519998,11.376 L19.2559998,14.352 C19.4693342,14.277333 19.7066651,14.2240002 19.9679998,14.192 C20.2293344,14.1599998 20.4773319,14.144 20.7119998,14.144 C21.2560025,14.144 21.7599974,14.2266658 22.2239998,14.392 C22.6880021,14.5573342 23.0879981,14.7946651 23.4239998,15.104 C23.7600014,15.4133349 24.0239988,15.7893311 24.2159998,16.232 C24.4080007,16.6746689 24.5039998,17.1679973 24.5039998,17.712 C24.5039998,18.3093363 24.4026674,18.8479976 24.1999998,19.328 C23.9973321,19.8080024 23.7200015,20.2159983 23.3679998,20.552 C23.015998,20.8880017 22.6000022,21.1493324 22.1199998,21.336 C21.6399974,21.5226676 21.1173359,21.616 20.5519998,21.616 C19.666662,21.616 18.9200028,21.4106687 18.3119998,21 C17.7039967,20.5893313 17.2453346,20.0373368 16.9359998,19.344 L18.3439998,18.784 C18.525334,19.242669 18.8106645,19.6106653 19.1999998,19.888 C19.589335,20.1653347 20.0399972,20.304 20.5519998,20.304 C20.8826681,20.304 21.1919983,20.2453339 21.4799998,20.128 C21.7680012,20.0106661 22.0186654,19.8453344 22.2319998,19.632 C22.4453342,19.4186656 22.6133325,19.1626682 22.7359998,18.864 C22.858667,18.5653318 22.9199998,18.2346685 22.9199998,17.872 C22.9199998,17.4453312 22.8480005,17.0746682 22.7039998,16.76 C22.559999,16.4453318 22.3653343,16.1866677 22.1199998,15.984 C21.8746652,15.7813323 21.5920014,15.6320005 21.2719998,15.536 C20.9519982,15.4399995 20.6160015,15.392 20.2639998,15.392 C19.837331,15.392 19.400002,15.4506661 18.9519998,15.568 C18.5039975,15.6853339 18.1040015,15.8346658 17.7519998,16.016 L17.9119998,10 L24.0239998,10 L24.0239998,11.376 Z" id="Decimal" fill="#000000" sketch:type="MSShapeGroup"></path>
        </g>
    </g>
</svg>