<?xml version="1.0" encoding="UTF-8" standalone="no"?>
<svg width="33px" height="33px" viewBox="0 0 33 33" version="1.1" xmlns="http://www.w3.org/2000/svg" xmlns:xlink="http://www.w3.org/1999/xlink" xmlns:sketch="http://www.bohemiancoding.com/sketch/ns">
    <!-- Generator: Sketch 3.3.2 (12043) - http://www.bohemiancoding.com/sketch -->
    <title>field-media-array-small</title>
    <desc>Created with Sketch.</desc>
    <defs></defs>
    <g id="Page-1" stroke="none" stroke-width="1" fill="none" fill-rule="evenodd" sketch:type="MSPage">
        <g id="contentful_icons" sketch:type="MSArtboardGroup" transform="translate(-51.000000, -501.000000)">
            <g id="field-media-array-small" sketch:type="MSLayerGroup" transform="translate(51.000000, 501.000000)">
                <rect id="frame" stroke="#21304A" fill-opacity="0" fill="#FFFFFF" sketch:type="MSShapeGroup" x="0" y="0" width="30" height="30" rx="5"></rect>
                <path d="M32.746931,6.31383247 C31.7204695,5.49186085 30.4181899,5 29.001155,5 L10.998845,5 C7.68870147,5 5,7.68577437 5,10.998845 L5,29.001155 C5,30.417054 5.49140595,31.7192501 6.31311522,32.7459534 C6.11065419,32.2016832 6,31.6120497 6,30.9955644 L6,11.0044356 C6,8.24056212 8.2303666,6 11.0044356,6 L30.9955644,6 C31.611701,6 32.2018313,6.11083933 32.746931,6.31383247 Z" id="Rectangle-75-Copy" fill="#21304A" sketch:type="MSShapeGroup" transform="translate(18.873465, 18.872977) rotate(-180.000000) translate(-18.873465, -18.872977) "></path>
                <g id="media" transform="translate(6.000000, 6.000000)" stroke="#21304A" sketch:type="MSShapeGroup" fill-opacity="0">
                    <rect id="Rectangle-3" fill="#FFFFFF" x="0" y="0.250272436" width="19.52125" height="19.0207051" rx="2"></rect>
                    <path d="M0.625,11.965625 L6.875,6.965625 L15,18.215625" id="Line" stroke-linecap="round" stroke-linejoin="round" fill="#D8D8D8"></path>
                    <path d="M11.875,12.590625 L14.375,10.090625 L18.75,13.996875" id="Line-13" stroke-linecap="round" stroke-linejoin="round" fill="#D8D8D8"></path>
                    <circle id="Oval-2" fill="#D8D8D8" cx="12.8125" cy="5.403125" r="1.5625"></circle>
                </g>
            </g>
        </g>
    </g>
</svg>