<?xml version="1.0" encoding="UTF-8" standalone="no"?>
<svg width="46px" height="26px" viewBox="0 0 46 26" version="1.1" xmlns="http://www.w3.org/2000/svg" xmlns:xlink="http://www.w3.org/1999/xlink" xmlns:sketch="http://www.bohemiancoding.com/sketch/ns">
    <!-- Generator: Sketch 3.3.2 (12043) - http://www.bohemiancoding.com/sketch -->
    <title>field-json</title>
    <desc>Created with Sketch.</desc>
    <defs></defs>
    <g id="Page-1" stroke="none" stroke-width="1" fill="none" fill-rule="evenodd" sketch:type="MSPage">
        <g id="field-json" sketch:type="MSLayerGroup" fill="#21304A">
            <path d="M0.552995725,12.16 C1.28099937,12.16 1.83166053,11.889336 2.20499573,11.348 C2.57833093,10.806664 2.76499573,10.0413383 2.76499573,9.052 L2.76499573,4.068 C2.76499573,3.4146634 2.84899489,2.86400224 3.01699573,2.416 C3.18499657,1.96799776 3.40899433,1.60866802 3.68899573,1.338 C3.96899713,1.06733198 4.29099391,0.87133394 4.65499573,0.75 C5.01899755,0.62866606 5.39699377,0.568 5.78899573,0.568 L7.55299573,0.568 L7.55299573,2.08 L6.20899573,2.08 C5.87299405,2.08 5.59766347,2.1499993 5.38299573,2.29 C5.16832799,2.4300007 5.00499629,2.61199888 4.89299573,2.836 C4.78099517,3.06000112 4.70632925,3.3119986 4.66899573,3.592 C4.63166221,3.8720014 4.61299573,4.14266536 4.61299573,4.404 L4.61299573,9.388 C4.61299573,10.0600034 4.51499671,10.6246644 4.31899573,11.082 C4.12299475,11.5393356 3.88966375,11.903332 3.61899573,12.174 C3.34832771,12.444668 3.07299713,12.6406661 2.79299573,12.762 C2.51299433,12.8833339 2.28899657,12.9533332 2.12099573,12.972 L2.12099573,13.028 C2.28899657,13.0466668 2.51299433,13.1166661 2.79299573,13.238 C3.07299713,13.3593339 3.34832771,13.555332 3.61899573,13.826 C3.88966375,14.096668 4.12299475,14.4606644 4.31899573,14.918 C4.51499671,15.3753356 4.61299573,15.9399966 4.61299573,16.612 L4.61299573,21.596 C4.61299573,21.8573346 4.63166221,22.1279986 4.66899573,22.408 C4.70632925,22.6880014 4.78099517,22.9399989 4.89299573,23.164 C5.00499629,23.3880011 5.16832799,23.5699993 5.38299573,23.71 C5.59766347,23.8500007 5.87299405,23.92 6.20899573,23.92 L7.55299573,23.92 L7.55299573,25.432 L5.78899573,25.432 C5.39699377,25.432 5.01899755,25.3713339 4.65499573,25.25 C4.29099391,25.1286661 3.96899713,24.932668 3.68899573,24.662 C3.40899433,24.391332 3.18499657,24.0320022 3.01699573,23.584 C2.84899489,23.1359978 2.76499573,22.5853366 2.76499573,21.932 L2.76499573,16.948 C2.76499573,15.9586617 2.57833093,15.193336 2.20499573,14.652 C1.83166053,14.110664 1.28099937,13.84 0.552995725,13.84 L0.552995725,12.16 Z M15.1409957,19.72 C15.1409957,20.112002 15.0009971,20.4619985 14.7209957,20.77 C14.4409943,21.0780015 14.076998,21.232 13.6289957,21.232 C13.1809935,21.232 12.8169971,21.0780015 12.5369957,20.77 C12.2569943,20.4619985 12.1169957,20.112002 12.1169957,19.72 C12.1169957,19.327998 12.2569943,18.9780015 12.5369957,18.67 C12.8169971,18.3619985 13.1809935,18.208 13.6289957,18.208 C14.076998,18.208 14.4409943,18.3619985 14.7209957,18.67 C15.0009971,18.9780015 15.1409957,19.327998 15.1409957,19.72 L15.1409957,19.72 Z M24.4649957,19.72 C24.4649957,20.112002 24.3249971,20.4619985 24.0449957,20.77 C23.7649943,21.0780015 23.400998,21.232 22.9529957,21.232 C22.5049935,21.232 22.1409971,21.0780015 21.8609957,20.77 C21.5809943,20.4619985 21.4409957,20.112002 21.4409957,19.72 C21.4409957,19.327998 21.5809943,18.9780015 21.8609957,18.67 C22.1409971,18.3619985 22.5049935,18.208 22.9529957,18.208 C23.400998,18.208 23.7649943,18.3619985 24.0449957,18.67 C24.3249971,18.9780015 24.4649957,19.327998 24.4649957,19.72 L24.4649957,19.72 Z M33.7889957,19.72 C33.7889957,20.112002 33.6489971,20.4619985 33.3689957,20.77 C33.0889943,21.0780015 32.724998,21.232 32.2769957,21.232 C31.8289935,21.232 31.4649971,21.0780015 31.1849957,20.77 C30.9049943,20.4619985 30.7649957,20.112002 30.7649957,19.72 C30.7649957,19.327998 30.9049943,18.9780015 31.1849957,18.67 C31.4649971,18.3619985 31.8289935,18.208 32.2769957,18.208 C32.724998,18.208 33.0889943,18.3619985 33.3689957,18.67 C33.6489971,18.9780015 33.7889957,19.327998 33.7889957,19.72 L33.7889957,19.72 Z M45.3529957,13.84 C44.6249921,13.84 44.0743309,14.110664 43.7009957,14.652 C43.3276605,15.193336 43.1409957,15.9586617 43.1409957,16.948 L43.1409957,21.932 C43.1409957,22.5853366 43.0569966,23.1359978 42.8889957,23.584 C42.7209949,24.0320022 42.4969971,24.391332 42.2169957,24.662 C41.9369943,24.932668 41.6149975,25.1286661 41.2509957,25.25 C40.8869939,25.3713339 40.5089977,25.432 40.1169957,25.432 L38.3529957,25.432 L38.3529957,23.92 L39.6969957,23.92 C40.0329974,23.92 40.308328,23.8500007 40.5229957,23.71 C40.7376635,23.5699993 40.9009952,23.3880011 41.0129957,23.164 C41.1249963,22.9399989 41.1996622,22.6880014 41.2369957,22.408 C41.2743292,22.1279986 41.2929957,21.8573346 41.2929957,21.596 L41.2929957,16.612 C41.2929957,15.9399966 41.3909947,15.3753356 41.5869957,14.918 C41.7829967,14.4606644 42.0163277,14.096668 42.2869957,13.826 C42.5576637,13.555332 42.8329943,13.3593339 43.1129957,13.238 C43.3929971,13.1166661 43.6169949,13.0466668 43.7849957,13.028 L43.7849957,12.972 C43.6169949,12.9533332 43.3929971,12.8833339 43.1129957,12.762 C42.8329943,12.6406661 42.5576637,12.444668 42.2869957,12.174 C42.0163277,11.903332 41.7829967,11.5393356 41.5869957,11.082 C41.3909947,10.6246644 41.2929957,10.0600034 41.2929957,9.388 L41.2929957,4.404 C41.2929957,4.14266536 41.2743292,3.8720014 41.2369957,3.592 C41.1996622,3.3119986 41.1249963,3.06000112 41.0129957,2.836 C40.9009952,2.61199888 40.7376635,2.4300007 40.5229957,2.29 C40.308328,2.1499993 40.0329974,2.08 39.6969957,2.08 L38.3529957,2.08 L38.3529957,0.568 L40.1169957,0.568 C40.5089977,0.568 40.8869939,0.62866606 41.2509957,0.75 C41.6149975,0.87133394 41.9369943,1.06733198 42.2169957,1.338 C42.4969971,1.60866802 42.7209949,1.96799776 42.8889957,2.416 C43.0569966,2.86400224 43.1409957,3.4146634 43.1409957,4.068 L43.1409957,9.052 C43.1409957,10.0413383 43.3276605,10.806664 43.7009957,11.348 C44.0743309,11.889336 44.6249921,12.16 45.3529957,12.16 L45.3529957,13.84 Z" id="json" sketch:type="MSShapeGroup"></path>
        </g>
    </g>
</svg>