<?xml version="1.0" encoding="UTF-8" standalone="no"?>
<svg width="30px" height="30px" viewBox="0 0 30 30" version="1.1" xmlns="http://www.w3.org/2000/svg" xmlns:xlink="http://www.w3.org/1999/xlink" xmlns:sketch="http://www.bohemiancoding.com/sketch/ns">
    <!-- Generator: Sketch 3.3.2 (12043) - http://www.bohemiancoding.com/sketch -->
    <title>field-calendar-small</title>
    <desc>Created with Sketch.</desc>
    <defs></defs>
    <g id="Page-1" stroke="none" stroke-width="1" fill="none" fill-rule="evenodd" sketch:type="MSPage">
        <g id="field-calendar-small" sketch:type="MSLayerGroup">
            <rect id="Frame" stroke="#000000" fill-opacity="0" fill="#FFFFFF" sketch:type="MSShapeGroup" x="0" y="0" width="30" height="30" rx="5"></rect>
            <g id="Calendar" transform="translate(5.000000, 5.000000)" stroke="#000000" sketch:type="MSShapeGroup">
                <rect id="Rectangle-3" fill-opacity="0" fill="#D8D8D8" x="0" y="0.769230769" width="20" height="18.974359" rx="2"></rect>
                <path d="M0.512396892,4.5 L18.974807,4.5" id="Line" stroke-linecap="square"></path>
                <path d="M3.5,2.18468734 L3.5,0.133405289" id="Line-3" stroke-linecap="round" stroke-linejoin="round"></path>
                <path d="M15.5,2.18468734 L15.5,0.133405289" id="Line-4" stroke-linecap="round" stroke-linejoin="round"></path>
            </g>
            <path d="M12.14,15.98 L12.45,15.98 C12.6766678,15.98 12.889999,15.9566669 13.09,15.91 C13.290001,15.8633331 13.4649993,15.7883339 13.615,15.685 C13.7650008,15.5816661 13.8833329,15.4466675 13.97,15.28 C14.0566671,15.1133325 14.1,14.9133345 14.1,14.68 C14.1,14.479999 14.0633337,14.2983342 13.99,14.135 C13.9166663,13.9716659 13.8150007,13.8316673 13.685,13.715 C13.5549994,13.5983327 13.4050008,13.5083336 13.235,13.445 C13.0649992,13.3816663 12.8866676,13.35 12.7,13.35 C12.3999985,13.35 12.1350011,13.4199993 11.905,13.56 C11.6749989,13.7000007 11.4900007,13.9066653 11.35,14.18 L10.74,13.86 C10.9600011,13.4799981 11.2399983,13.1983343 11.58,13.015 C11.9200017,12.8316658 12.3066645,12.74 12.74,12.74 C13.0200014,12.74 13.2849987,12.7816663 13.535,12.865 C13.7850012,12.9483338 14.0049991,13.0699992 14.195,13.23 C14.385001,13.3900008 14.5349994,13.5883321 14.645,13.825 C14.7550006,14.0616678 14.81,14.3333318 14.81,14.64 C14.81,15.0600021 14.6933345,15.4116652 14.46,15.695 C14.2266655,15.9783347 13.9333351,16.1666662 13.58,16.26 L13.58,16.28 C13.9866687,16.3666671 14.3266653,16.5616652 14.6,16.865 C14.8733347,17.1683349 15.01,17.5599976 15.01,18.04 C15.01,18.3800017 14.948334,18.6816654 14.825,18.945 C14.7016661,19.2083346 14.5366677,19.4316657 14.33,19.615 C14.1233323,19.7983342 13.8816681,19.9383328 13.605,20.035 C13.328332,20.1316671 13.0366682,20.18 12.73,20.18 C12.2099974,20.18 11.7566686,20.0550012 11.37,19.805 C10.9833314,19.5549987 10.690001,19.196669 10.49,18.73 L11.17,18.48 C11.2900006,18.8200017 11.4899986,19.0849991 11.77,19.275 C12.0500014,19.4650009 12.3699982,19.56 12.73,19.56 C12.930001,19.56 13.1249991,19.5250004 13.315,19.455 C13.505001,19.3849996 13.671666,19.2850007 13.815,19.155 C13.958334,19.0249993 14.0733329,18.8666676 14.16,18.68 C14.2466671,18.4933324 14.29,18.2800012 14.29,18.04 C14.29,17.773332 14.2383339,17.5483342 14.135,17.365 C14.0316662,17.1816657 13.8933342,17.0333339 13.72,16.92 C13.5466658,16.8066661 13.3500011,16.7250002 13.13,16.675 C12.9099989,16.6249997 12.6833345,16.6 12.45,16.6 L12.14,16.6 L12.14,15.98 Z M19.38,20 L18.66,20 L18.66,13.81 L17.38,14.9 L16.94,14.4 L18.74,12.92 L19.38,12.92 L19.38,20 Z" id="31" fill="#000000" sketch:type="MSShapeGroup"></path>
        </g>
    </g>
</svg>