<?xml version="1.0" encoding="UTF-8" standalone="no"?>
<svg width="50px" height="22px" viewBox="0 0 50 22" version="1.1" xmlns="http://www.w3.org/2000/svg" xmlns:xlink="http://www.w3.org/1999/xlink" xmlns:sketch="http://www.bohemiancoding.com/sketch/ns">
    <!-- Generator: Sketch 3.3.2 (12043) - http://www.bohemiancoding.com/sketch -->
    <title>field-shorttext</title>
    <desc>Created with Sketch.</desc>
    <defs></defs>
    <g id="Page-1" stroke="none" stroke-width="1" fill="none" fill-rule="evenodd" sketch:type="MSPage">
        <g id="contentful_icons" sketch:type="MSArtboardGroup" transform="translate(-100.000000, -151.000000)" fill="#21304A">
            <g id="field-shorttext" sketch:type="MSLayerGroup" transform="translate(100.000000, 151.000000)">
                <path d="M2.16201423,21.223377 L0,21.223377 L8.37438424,1.84735068 L10.290093,1.84735068 L18.6097427,21.223377 L16.4203612,21.223377 L14.2857143,16.133065 L4.26929392,16.133065 L2.16201423,21.223377 Z M5.00821018,14.3268252 L13.546798,14.3268252 L9.27750411,4.03673218 L5.00821018,14.3268252 Z M23.2621784,19.0613627 L23.2621784,21.223377 L21.4012042,21.223377 L21.4012042,0.533721779 L23.2621784,0.533721779 L23.2621784,10.6322439 L23.316913,10.6322439 C23.8642611,9.79297684 24.575803,9.15897479 25.4515599,8.73021877 C26.3273169,8.30146275 27.2304278,8.08708795 28.1609195,8.08708795 C29.1643911,8.08708795 30.0720631,8.26041226 30.8839628,8.60706606 C31.6958625,8.95371986 32.3891597,9.42808111 32.9638752,10.030164 C33.5385907,10.632247 33.985585,11.3437888 34.3048714,12.164811 C34.6241578,12.9858332 34.7837986,13.8706993 34.7837986,14.8194361 C34.7837986,15.7681728 34.6241578,16.653039 34.3048714,17.4740611 C33.985585,18.2950833 33.5385907,19.0066252 32.9638752,19.6087081 C32.3891597,20.210791 31.6958625,20.6851523 30.8839628,21.0318061 C30.0720631,21.3784599 29.1643911,21.5517842 28.1609195,21.5517842 C27.2304278,21.5517842 26.3273169,21.3419705 25.4515599,20.922337 C24.575803,20.5027034 23.8642611,19.8823849 23.316913,19.0613627 L23.2621784,19.0613627 Z M32.8133552,14.8194361 C32.8133552,14.1078835 32.7038872,13.4373921 32.484948,12.8079418 C32.2660088,12.1784915 31.9512883,11.6311516 31.5407772,11.1659057 C31.1302661,10.7006598 30.6239767,10.3312054 30.0218938,10.0575313 C29.4198109,9.78385725 28.735636,9.64702227 27.9693487,9.64702227 C27.2577961,9.64702227 26.6009882,9.77929608 25.9989053,10.0438477 C25.3968224,10.3083993 24.8768495,10.6732925 24.438971,11.1385384 C24.0010925,11.6037843 23.6590051,12.1511242 23.4126984,12.7805745 C23.1663918,13.4100249 23.0432403,14.0896386 23.0432403,14.8194361 C23.0432403,15.5492335 23.1663918,16.2288473 23.4126984,16.8582976 C23.6590051,17.4877479 24.0010925,18.0305267 24.438971,18.4866501 C24.8768495,18.9427735 25.3968224,19.3031056 25.9989053,19.5676572 C26.6009882,19.8322088 27.2577961,19.9644826 27.9693487,19.9644826 C28.735636,19.9644826 29.4198109,19.8322088 30.0218938,19.5676572 C30.6239767,19.3031056 31.1302661,18.9382123 31.5407772,18.4729664 C31.9512883,18.0077205 32.2660088,17.4603806 32.484948,16.8309303 C32.7038872,16.20148 32.8133552,15.5309886 32.8133552,14.8194361 L32.8133552,14.8194361 Z M48.0021894,11.3437929 C47.6920255,10.8511796 47.24047,10.4452359 46.6475096,10.1259495 C46.0545491,9.80666308 45.4114247,9.64702227 44.7181171,9.64702227 C43.9700747,9.64702227 43.2950222,9.77929608 42.6929392,10.0438477 C42.0908563,10.3083993 41.5754446,10.6732925 41.1466886,11.1385384 C40.7179325,11.6037843 40.3895286,12.1511242 40.1614669,12.7805745 C39.9334052,13.4100249 39.819376,14.0896386 39.819376,14.8194361 C39.819376,15.5492335 39.9334052,16.2242861 40.1614669,16.844614 C40.3895286,17.4649418 40.7133714,18.0077205 41.1330049,18.4729664 C41.5526385,18.9382123 42.0634891,19.3031056 42.665572,19.5676572 C43.2676549,19.8322088 43.9427074,19.9644826 44.6907499,19.9644826 C45.511772,19.9644826 46.2050692,19.809403 46.7706623,19.499239 C47.3362553,19.1890751 47.8014943,18.7876925 48.166393,18.2950792 L49.5621237,19.3350354 C49.0147756,20.0100981 48.3442842,20.5483156 47.5506294,20.9497043 C46.7569747,21.3510929 45.803691,21.5517842 44.6907499,21.5517842 C43.6507885,21.5517842 42.7111883,21.383021 41.8719212,21.0454897 C41.0326541,20.7079584 40.316551,20.2381583 39.7235906,19.6360754 C39.1306301,19.0339924 38.6699524,18.3224506 38.3415435,17.5014284 C38.0131346,16.6804062 37.8489327,15.7864177 37.8489327,14.8194361 C37.8489327,13.8524544 38.0131346,12.9584659 38.3415435,12.1374437 C38.6699524,11.3164216 39.1306301,10.6048797 39.7235906,10.0027968 C40.316551,9.40071384 41.0326541,8.93091376 41.8719212,8.59338242 C42.7111883,8.25585109 43.6507885,8.08708795 44.6907499,8.08708795 C45.5482619,8.08708795 46.4194446,8.27409575 47.304324,8.64811696 C48.1892035,9.02213817 48.9053065,9.57403924 49.4526546,10.3038367 L48.0021894,11.3437929 Z" id="Abc" sketch:type="MSShapeGroup"></path>
            </g>
        </g>
    </g>
</svg>