<?xml version="1.0" encoding="UTF-8" standalone="no"?>
<svg width="30px" height="30px" viewBox="0 0 30 30" version="1.1" xmlns="http://www.w3.org/2000/svg" xmlns:xlink="http://www.w3.org/1999/xlink" xmlns:sketch="http://www.bohemiancoding.com/sketch/ns">
    <!-- Generator: Sketch 3.3.2 (12043) - http://www.bohemiancoding.com/sketch -->
    <title>field-decimal-small</title>
    <desc>Created with Sketch.</desc>
    <defs></defs>
    <g id="Page-1" stroke="none" stroke-width="1" fill="none" fill-rule="evenodd" sketch:type="MSPage">
        <g id="contentful_icons" sketch:type="MSArtboardGroup" transform="translate(-151.000000, -251.000000)">
            <g id="field-decimal-small" sketch:type="MSLayerGroup" transform="translate(151.000000, 251.000000)">
                <rect id="frame" stroke="#21304A" fill-opacity="0" fill="#FFFFFF" sketch:type="MSShapeGroup" x="0" y="0" width="30" height="30" rx="5"></rect>
                <path d="M10.765,17.37 L12.295,17.37 L12.295,18.615 L10.765,18.615 L10.765,21 L9.355,21 L9.355,18.615 L4.465,18.615 L4.465,17.295 L8.98,10.38 L10.765,10.38 L10.765,17.37 Z M9.355,12.045 L9.325,12.045 L5.965,17.37 L9.355,17.37 L9.355,12.045 Z M15.88,20.1 C15.88,20.3600013 15.7850009,20.589999 15.595,20.79 C15.404999,20.990001 15.1650014,21.09 14.875,21.09 C14.5949986,21.09 14.357501,20.992501 14.1625,20.7975 C13.967499,20.602499 13.87,20.3750013 13.87,20.115 C13.87,19.8449986 13.964999,19.612501 14.155,19.4175 C14.3450009,19.222499 14.5849985,19.125 14.875,19.125 C15.1650014,19.125 15.404999,19.219999 15.595,19.41 C15.7850009,19.6000009 15.88,19.8299986 15.88,20.1 L15.88,20.1 Z M24.175,11.67 L19.795,11.67 L19.705,14.46 C19.905001,14.3899996 20.1274988,14.3400001 20.3725,14.31 C20.6175012,14.2799998 20.8499989,14.265 21.07,14.265 C21.5800025,14.265 22.0524978,14.3424992 22.4875,14.4975 C22.9225022,14.6525008 23.2974984,14.8749985 23.6125,15.165 C23.9275016,15.4550014 24.1749991,15.8074979 24.355,16.2225 C24.5350009,16.6375021 24.625,17.0999974 24.625,17.61 C24.625,18.1700028 24.5300009,18.6749977 24.34,19.125 C24.149999,19.5750022 23.8900016,19.9574984 23.56,20.2725 C23.2299983,20.5875016 22.8400022,20.8324991 22.39,21.0075 C21.9399977,21.1825009 21.4500026,21.27 20.92,21.27 C20.0899958,21.27 19.3900028,21.0775019 18.82,20.6925 C18.2499971,20.3074981 17.8200014,19.7900032 17.53,19.14 L18.85,18.615 C19.0200008,19.0450021 19.2874982,19.3899987 19.6525,19.65 C20.0175018,19.9100013 20.4399976,20.04 20.92,20.04 C21.2300015,20.04 21.5199986,19.9850005 21.79,19.875 C22.0600013,19.7649994 22.294999,19.610001 22.495,19.41 C22.695001,19.209999 22.8524994,18.9700014 22.9675,18.69 C23.0825006,18.4099986 23.14,18.1000017 23.14,17.76 C23.14,17.359998 23.0725007,17.0125015 22.9375,16.7175 C22.8024993,16.4224985 22.6200011,16.1800009 22.39,15.99 C22.1599988,15.799999 21.8950015,15.6600004 21.595,15.57 C21.2949985,15.4799995 20.9800016,15.435 20.65,15.435 C20.249998,15.435 19.8400021,15.4899994 19.42,15.6 C18.9999979,15.7100005 18.6250016,15.8499991 18.295,16.02 L18.445,10.38 L24.175,10.38 L24.175,11.67 Z" id="4.5" fill="#000000" sketch:type="MSShapeGroup"></path>
            </g>
        </g>
    </g>
</svg>