<?xml version="1.0" encoding="UTF-8" standalone="no"?>
<svg width="33px" height="33px" viewBox="0 0 33 33" version="1.1" xmlns="http://www.w3.org/2000/svg" xmlns:xlink="http://www.w3.org/1999/xlink" xmlns:sketch="http://www.bohemiancoding.com/sketch/ns">
    <!-- Generator: Sketch 3.3.2 (12043) - http://www.bohemiancoding.com/sketch -->
    <title>field-shorttext-array-small</title>
    <desc>Created with Sketch.</desc>
    <defs></defs>
    <g id="Page-1" stroke="none" stroke-width="1" fill="none" fill-rule="evenodd" sketch:type="MSPage">
        <g id="contentful_icons" sketch:type="MSArtboardGroup" transform="translate(-1.000000, -501.000000)">
            <g id="field-shorttext-array-small" sketch:type="MSLayerGroup" transform="translate(1.000000, 501.000000)">
                <rect id="frame" stroke="#21304A" fill-opacity="0" fill="#FFFFFF" sketch:type="MSShapeGroup" x="0" y="0" width="30" height="30" rx="5"></rect>
                <path d="M32.746931,6.31383247 C31.7204695,5.49186085 30.4181899,5 29.001155,5 L10.998845,5 C7.68870147,5 5,7.68577437 5,10.998845 L5,29.001155 C5,30.417054 5.49140595,31.7192501 6.31311522,32.7459534 C6.11065419,32.2016832 6,31.6120497 6,30.9955644 L6,11.0044356 C6,8.24056212 8.2303666,6 11.0044356,6 L30.9955644,6 C31.611701,6 32.2018313,6.11083933 32.746931,6.31383247 Z" id="Rectangle-75" fill="#21304A" sketch:type="MSShapeGroup" transform="translate(18.873465, 18.872977) rotate(-180.000000) translate(-18.873465, -18.872977) "></path>
                <path d="M6.76,21.096 L5,21.096 L9.912,9.768 L11.352,9.768 L16.216,21.096 L14.424,21.096 L13.272,18.312 L7.896,18.312 L6.76,21.096 Z M8.456,16.92 L12.696,16.92 L10.584,11.608 L8.456,16.92 Z M19.08,19.896 L19.08,21.096 L17.624,21.096 L17.624,9 L19.128,9 L19.128,14.648 L19.176,14.648 C19.4320013,14.2746648 19.789331,13.9573346 20.248,13.696 C20.706669,13.4346654 21.2506635,13.304 21.88,13.304 C22.4453362,13.304 22.9599977,13.4053323 23.424,13.608 C23.8880023,13.8106677 24.2879983,14.0933315 24.624,14.456 C24.9600017,14.8186685 25.2186658,15.2426642 25.4,15.728 C25.5813342,16.2133358 25.672,16.7333306 25.672,17.288 C25.672,17.8426694 25.5813342,18.3653309 25.4,18.856 C25.2186658,19.3466691 24.9626683,19.7733315 24.632,20.136 C24.3013317,20.4986685 23.9013357,20.783999 23.432,20.992 C22.9626643,21.200001 22.4346696,21.304 21.848,21.304 C21.3039973,21.304 20.7866691,21.1840012 20.296,20.944 C19.8053309,20.7039988 19.4106682,20.354669 19.112,19.896 L19.08,19.896 Z M24.12,17.288 C24.12,16.9359982 24.0666672,16.5946683 23.96,16.264 C23.8533328,15.9333317 23.6933344,15.6400013 23.48,15.384 C23.2666656,15.1279987 23.0026682,14.9253341 22.688,14.776 C22.3733318,14.6266659 22.0080021,14.552 21.592,14.552 C21.2079981,14.552 20.8586682,14.6266659 20.544,14.776 C20.2293318,14.9253341 19.9600011,15.1279987 19.736,15.384 C19.5119989,15.6400013 19.3386673,15.9333317 19.216,16.264 C19.0933327,16.5946683 19.032,16.9413315 19.032,17.304 C19.032,17.6666685 19.0933327,18.0133317 19.216,18.344 C19.3386673,18.6746683 19.5119989,18.9653321 19.736,19.216 C19.9600011,19.4666679 20.2293318,19.6666659 20.544,19.816 C20.8586682,19.9653341 21.2079981,20.04 21.592,20.04 C22.0080021,20.04 22.3733318,19.9626674 22.688,19.808 C23.0026682,19.6533326 23.2666656,19.4480013 23.48,19.192 C23.6933344,18.9359987 23.8533328,18.6426683 23.96,18.312 C24.0666672,17.9813317 24.12,17.6400018 24.12,17.288 L24.12,17.288 Z" id="Ab" fill="#000000" sketch:type="MSShapeGroup"></path>
            </g>
        </g>
    </g>
</svg>