<?xml version="1.0" encoding="UTF-8" standalone="no"?>
<svg width="37px" height="32px" viewBox="0 0 37 32" version="1.1" xmlns="http://www.w3.org/2000/svg" xmlns:xlink="http://www.w3.org/1999/xlink" xmlns:sketch="http://www.bohemiancoding.com/sketch/ns">
    <!-- Generator: Sketch 3.3.2 (12043) - http://www.bohemiancoding.com/sketch -->
    <title>field-longtext</title>
    <desc>Created with Sketch.</desc>
    <defs></defs>
    <g id="Page-1" stroke="none" stroke-width="1" fill="none" fill-rule="evenodd" sketch:type="MSPage">
        <g id="contentful_icons" sketch:type="MSArtboardGroup" transform="translate(-51.000000, -152.000000)" fill="#21304A">
            <g id="field-longtext" sketch:type="MSLayerGroup" transform="translate(51.000000, 152.000000)">
                <path d="M3.91653187,2 L1,2 C0.44771525,2 0,1.55228475 0,1 C0,0.44771525 0.44771525,0 1,0 L9.06175961,0 C9.61404436,0 10.0617596,0.44771525 10.0617596,1 C10.0617596,1.55228475 9.61404436,2 9.06175961,2 L5.91653187,2 L5.91653182,10.7255808 C5.91653181,11.2778656 5.46881656,11.7255808 4.91653181,11.7255808 C4.36424706,11.7255808 3.91653181,11.2778656 3.91653182,10.7255808 L3.91653187,2 Z M14.0291064,0 C13.4768217,0 13.0291064,0.44771525 13.0291064,1 C13.0291064,1.55228475 13.4768217,2 14.0291064,2 L35.9835936,2 C36.5358783,2 36.9835936,1.55228475 36.9835936,1 C36.9835936,0.44771525 36.5358783,0 35.9835936,0 L14.0291064,0 Z M14.0272094,6 C13.4749247,6 13.0272094,6.44771525 13.0272094,7 C13.0272094,7.55228475 13.4749247,8 14.0272094,8 L35.9835936,8 C36.5358783,8 36.9835936,7.55228475 36.9835936,7 C36.9835936,6.44771525 36.5358783,6 35.9835936,6 L14.0272094,6 Z M14.0272094,12 C13.4749247,12 13.0272094,12.4477153 13.0272094,13 C13.0272094,13.5522847 13.4749247,14 14.0272094,14 L35.9835936,14 C36.5358783,14 36.9835936,13.5522847 36.9835936,13 C36.9835936,12.4477153 36.5358783,12 35.9835936,12 L14.0272094,12 Z M1.02496301,18 C0.47267826,18 0.0249630101,18.4477153 0.0249630101,19 C0.0249630101,19.5522847 0.47267826,20 1.02496301,20 L35.9826666,20 C36.5349514,20 36.9826666,19.5522847 36.9826666,19 C36.9826666,18.4477153 36.5349514,18 35.9826666,18 L1.02496301,18 Z M1.02496301,24 C0.47267826,24 0.0249630101,24.4477153 0.0249630101,25 C0.0249630101,25.5522847 0.47267826,26 1.02496301,26 L35.9811064,26 C36.5333912,26 36.9811064,25.5522847 36.9811064,25 C36.9811064,24.4477153 36.5333912,24 35.9811064,24 L1.02496301,24 Z M1.02496301,30 C0.47267826,30 0.0249630101,30.4477153 0.0249630101,31 C0.0249630101,31.5522847 0.47267826,32 1.02496301,32 L35.9826666,32 C36.5349514,32 36.9826666,31.5522847 36.9826666,31 C36.9826666,30.4477153 36.5349514,30 35.9826666,30 L1.02496301,30 Z" id="Long-text-field" sketch:type="MSShapeGroup"></path>
            </g>
        </g>
    </g>
</svg>