<svg width="98" height="98" viewBox="0 0 98 98" xmlns="http://www.w3.org/2000/svg"><title>welcome-illustration</title><g fill="none" fill-rule="evenodd"><path d="M93.51 97.194H1.017a.884.884 0 0 1-.884-.885c0-.489.395-.886.884-.886H93.51a.885.885 0 0 1 0 1.771" fill="#DDDFE4"/><path d="M22.963 3.562a.838.838 0 0 0 1.187 0 .843.843 0 0 0 0-1.187L22.025.245a.84.84 0 0 0-1.432.595v6.567a.839.839 0 1 0 1.677 0V2.868l.693.694zM6.452 23.353a2.888 2.888 0 0 0 2.882-2.887.84.84 0 1 0-1.678 0c0 .666-.54 1.207-1.204 1.207h-.041c-.664 0-1.205-.541-1.205-1.207v-2.472c0-.666.541-1.207 1.205-1.207h.041a.84.84 0 0 0 0-1.68h-.041a2.887 2.887 0 0 0-2.882 2.887v2.472a2.888 2.888 0 0 0 2.882 2.887h.041zM58.093 43.757a1.656 1.656 0 0 0 0 3.311c.912 0 1.655-.742 1.655-1.656 0-.912-.743-1.655-1.655-1.655M47.569 52.827a.807.807 0 0 0 .805-.806v-7.168a.807.807 0 0 0-.805-.807.807.807 0 0 0-.805.807v7.168c0 .445.362.806.805.806M55.064 62.52a.806.806 0 0 0-1.056-.426c-1.937.821-4.218 1.257-6.595 1.257-2.378 0-4.659-.436-6.598-1.259a.806.806 0 0 0-.63 1.485c2.119.9 4.616 1.375 7.226 1.375 2.608 0 5.106-.476 7.225-1.374a.81.81 0 0 0 .428-1.058M50.56 67.307a.806.806 0 0 0-.806-.806h-4.68a.805.805 0 0 0-.805.806c0 .445.36.807.804.807h4.681a.806.806 0 0 0 .805-.807M52.465 55.429c0 .33-.128.643-.364.878a.812.812 0 0 0 0 1.142.797.797 0 0 0 .568.235.796.796 0 0 0 .568-.235c.54-.54.837-1.258.837-2.02 0-.763-.296-1.48-.834-2.02a.806.806 0 1 0-1.139 1.138c.235.236.364.55.364.882" fill="#DFE1E5"/><path d="M52.838 91.18h-2.253l-.052.167a3.268 3.268 0 0 1-3.123 2.32 3.268 3.268 0 0 1-3.123-2.32l-.052-.167H41.98a.807.807 0 0 1 0-1.612h2.255l.052-.166c.432-1.39 1.687-2.323 3.123-2.323 1.435 0 2.69.933 3.123 2.323l.052.166h2.253a.806.806 0 0 1 0 1.612m0-1.848h-2.08c-.447-1.435-1.77-2.489-3.348-2.489-1.58 0-2.902 1.054-3.348 2.49H41.98a1.04 1.04 0 0 0-1.04 1.04 1.04 1.04 0 0 0 1.04 1.043h2.082c.446 1.436 1.769 2.49 3.348 2.49 1.578 0 2.901-1.054 3.348-2.49h2.08a1.041 1.041 0 0 0 0-2.084" fill="#42B988"/><path d="M47.41 91.82a1.446 1.446 0 0 1 0-2.893 1.446 1.446 0 0 1 0 2.893m0-3.13a1.684 1.684 0 0 0 0 3.367 1.684 1.684 0 0 0 0-3.366" fill="#42B988"/><path d="M81.429 46.256c0-2.155-.209-4.26-.593-6.304 1.84 1.2 3.088 3.601 3.088 6.303 0 2.701-1.248 5.1-3.088 6.305.384-2.045.593-4.15.593-6.304zm-.927 6.805l.462-.304c1.97-1.288 3.195-3.78 3.195-6.502 0-2.723-1.224-5.215-3.195-6.502l-.462-.302.102.544c.391 2.084.589 4.19.589 6.261 0 2.07-.198 4.176-.59 6.26l-.1.545z" fill="#DFE1E5"/><path d="M47.41 78.486c-17.464 0-31.583-13.696-32.145-31.18l-.008-.244h5.393l-.012.248a59.73 59.73 0 0 0-.066 2.875c0 14.827 12.04 26.888 26.849 26.888 14.793-.006 26.828-12.067 26.828-26.888 0-.931-.02-1.898-.065-2.876l-.012-.247h5.395l-.009.245c-.564 17.483-14.686 31.18-32.148 31.18zm-16.828.111v-3.012l.35.197a33.675 33.675 0 0 0 16.478 4.316 33.67 33.67 0 0 0 16.477-4.316l.351-.197v3.012c0 2.31-7.197 4.895-16.83 4.895-9.63 0-16.826-2.585-16.826-4.895zm35.489.302c.525.132 1.058.294 1.63.498l.354.127-.268.265c-4.016 3.937-7.372 10.248-8.164 15.347l-.032.2H35.233l-.03-.2c-.793-5.11-4.155-11.425-8.175-15.358l-.27-.265.355-.127c.502-.18 1.037-.341 1.637-.494l.245-.063.045.25c.695 3.957 9.77 6.025 18.372 6.025 8.595 0 17.665-2.067 18.369-6.017l.045-.248.245.06zm5.189.114a1.272 1.272 0 0 1 1.763.382 1.277 1.277 0 0 1-.38 1.768c-3.77 2.435-7.807 8.838-8.819 13.983l-.037.19H61.22l.05-.277c1.041-5.872 5.615-13.22 9.989-16.046zm2.167 3.791c3.613 3.188 5.755 7.55 6.033 12.282l.015.25h-8.987l-.016-.22a13.43 13.43 0 0 0-2.191-6.386l-.083-.125.078-.128c1.498-2.484 3.222-4.504 4.858-5.686l.152-.11.141.123zm-8.006 12.532l.065-.289c.304-1.339.864-2.866 1.622-4.417l.204-.417.215.41a11.754 11.754 0 0 1 1.32 4.456l.024.257h-3.45zm-34.382 0L31 95.145c-1.011-5.144-5.048-11.547-8.813-13.982a1.28 1.28 0 0 1 .69-2.356c.244 0 .484.071.691.205 4.374 2.825 8.947 10.174 9.987 16.044l.05.28h-2.567zm-5.08 0l.021-.257c.14-1.563.584-3.063 1.32-4.457l.216-.41.204.417c.753 1.543 1.313 3.07 1.62 4.418l.064.29h-3.446zm-1.62 0h-8.985l.015-.251c.278-4.738 2.416-9.102 6.02-12.29l.142-.124.152.11c1.639 1.18 3.366 3.204 4.868 5.696l.076.128-.08.125a13.467 13.467 0 0 0-2.19 6.387l-.017.218zm44.08-37.8v-1.698h.697c1.087 0 1.958-.346 2.661-1.056l.547-.553-.147.764C70.82 62.017 66.51 68.17 60.353 71.87l-2.79 1.388 2.52-1.772c5.22-4.295 8.337-9.509 8.337-13.948zm-40.402 0l.001-14.488c0-4.711 7.562-7.76 19.181-7.76h.116l.05-.021h.054c11.78 0 19.392 3.055 19.392 7.781v14.49c0 8.13-11.91 17.916-19.398 17.922-7.483-.001-19.396-9.79-19.396-17.923zm-4.976-2.765c.705.718 1.578 1.067 2.67 1.067h.696v1.7c0 4.443 3.12 9.66 8.35 13.957l1.33 1.108-1.602-.723c-6.171-3.703-10.488-9.863-11.843-16.897l-.148-.769.547.557zm45.86-12.764l-.097.236h-.436l-.032-.199c-.851-5.253-8.67-8.389-20.917-8.389h-.009c-12.246 0-20.065 3.136-20.917 8.39l-.128.198h-.438V36.12l.072-.069c.381-.375.722-.661 1.074-.9 4.51-3.061 11.35-4.613 20.337-4.613s15.831 1.552 20.34 4.615c.355.24.7.529 1.082.906l.07.07v5.877zm1.61.253v-3.944l.45.95c.389.896.708 1.895.95 2.97l.1.446-.42-.177a3.297 3.297 0 0 0-.873-.22l-.208-.025zm1.732 3.783c0 8.183-2.354 8.183-3.127 8.183h-.696V47.06h.509c.408 0 .49.255.49.664 0 .248-.03.643-.03.643a.8.8 0 0 0 .195.585c.141.161.337.26.61.277.419 0 .77-.33.8-.752 0-.002.034-.438.034-.753 0-1.383-.824-2.276-2.1-2.276h-.508v-1.594h1.911c1.055 0 1.912.983 1.912 2.19zm-49.436-3.356l.1-.448c.25-1.1.574-2.105.96-2.992l.453-1.018v4.034l-.21.023a3.187 3.187 0 0 0-.88.222l-.423.179zm1.688 1.167h1.912v1.594h-.51c-1.255 0-2.098.914-2.098 2.276 0 .316.033.75.034.755.03.418.377.748.852.748h.007a.795.795 0 0 0 .55-.275.796.796 0 0 0 .195-.585s-.03-.394-.03-.643c0-.409.083-.664.49-.664h.51v7.166h-.695c-.773 0-3.128 0-3.128-8.183 0-1.206.857-2.189 1.911-2.189zm-9.23 1.351c.468-14.536 10.67-27.007 24.808-30.324l.29-.069v5.658c0 .445.36.807.803.807a.806.806 0 0 0 .805-.807v-5.979l.197-.033a32.57 32.57 0 0 1 4.195-.407l.244-.009v7.653c0 .445.36.806.803.806a.807.807 0 0 0 .805-.806v-7.653l.243.009c1.425.047 2.84.184 4.203.408l.198.033v5.978c0 .445.36.807.805.807a.806.806 0 0 0 .804-.807v-5.655l.288.068c14.136 3.319 24.334 15.789 24.801 30.322l.008.246h-5.513l-.021-.214c-.56-5.605-2.32-9.34-5.38-11.418-4.778-3.244-11.924-4.89-21.24-4.89-9.315 0-16.46 1.646-21.24 4.89-3.062 2.076-4.821 5.81-5.381 11.418l-.021.214h-5.512l.008-.246zm-1.008 7.527l.096.493-.44-.24c-2.153-1.176-3.544-3.817-3.544-6.73 0-2.912 1.39-5.553 3.544-6.73l.44-.241-.096.493a33.954 33.954 0 0 0-.627 6.478c0 2.16.211 4.341.627 6.477zm66.347-12.737l-.102-.544.462.302c1.97 1.287 3.195 3.78 3.195 6.502 0 2.723-1.224 5.214-3.195 6.502l-.462.304.102-.545c.391-2.084.589-4.19.589-6.26a34.02 34.02 0 0 0-.59-6.261zm-14.65 34.528c6.92-4.572 11.917-11.477 14.067-19.446l.035-.126.122-.038c3.29-1.039 5.589-4.598 5.589-8.658 0-2.27-.707-4.431-1.99-6.084l-.051-.065v-8.209l.11-.07c.501-.317.8-.858.8-1.446 0-.948-.769-1.718-1.714-1.718s-1.715.77-1.715 1.718c0 .588.3 1.129.8 1.447l.11.07v6.655l-.36-.226a6.949 6.949 0 0 0-1.579-.73l-.122-.038-.035-.127c-3.976-14.731-17.387-25.02-32.61-25.02-15.175 0-28.573 10.247-32.581 24.921l-.035.131-.132.035c-3.42.905-5.903 4.588-5.903 8.756s2.482 7.852 5.901 8.756l.132.034.036.133A33.888 33.888 0 0 0 28.867 74.52l.106.07v2.566l-.183.042c-1.096.253-2.2.618-3.276 1.08l-.126.055-.109-.083a13.338 13.338 0 0 0-.839-.594 2.864 2.864 0 0 0-1.563-.461 2.87 2.87 0 0 0-2.428 1.33 2.872 2.872 0 0 0-.39 2.172c.043.206.12.419.24.667l.079.16-.132.12c-4.142 3.698-6.517 8.981-6.517 14.495 0 .445.362.807.805.807h65.762a.8.8 0 0 0 .805-.807c0-5.517-2.376-10.799-6.516-14.493l-.135-.12.078-.16c.124-.254.202-.469.245-.674a2.869 2.869 0 0 0-.4-2.178 2.853 2.853 0 0 0-2.421-1.32c-.555 0-1.096.161-1.565.465-.283.182-.566.386-.849.6l-.108.083-.126-.054a19.576 19.576 0 0 0-3.273-1.085l-.183-.041v-2.57l.106-.07z" fill="#DFE1E5"/><path d="M47.414 57.68c1.3 0 2.52-.505 3.438-1.422a.81.81 0 0 0 0-1.14.802.802 0 0 0-1.139-.001 3.226 3.226 0 0 1-2.3.953c-.869 0-1.685-.339-2.297-.953a.798.798 0 0 0-.57-.236.804.804 0 0 0-.568 1.376 4.817 4.817 0 0 0 3.436 1.424M47.57 41.752c-1.3 0-2.522.505-3.439 1.423a.81.81 0 0 0 0 1.14.802.802 0 0 0 1.139.001 3.226 3.226 0 0 1 2.3-.954c.87 0 1.685.34 2.297.953a.798.798 0 0 0 .57.236.804.804 0 0 0 .568-1.376 4.817 4.817 0 0 0-3.436-1.423M36.731 43.757a1.656 1.656 0 0 0 0 3.311 1.656 1.656 0 0 0 0-3.31M42.725 53.407a.8.8 0 0 0-1.138.003 2.843 2.843 0 0 0-.834 2.02c0 .763.297 1.48.836 2.02a.796.796 0 0 0 .568.235.792.792 0 0 0 .57-.237.804.804 0 0 0-.001-1.14 1.234 1.234 0 0 1-.365-.878c0-.33.13-.644.366-.883a.795.795 0 0 0 .234-.57.8.8 0 0 0-.236-.57" fill="#DFE1E5"/><path d="M34.005 41.414a4.133 4.133 0 0 0 0 8.266h6.076a4.134 4.134 0 0 0 4.127-4.133 4.134 4.134 0 0 0-4.127-4.133h-6.076zm6.076 9.446h-6.076c-2.924 0-5.304-2.384-5.304-5.313 0-2.93 2.38-5.313 5.304-5.313h6.076c2.926 0 5.305 2.384 5.305 5.313 0 2.93-2.38 5.313-5.305 5.313zM55.055 41.414a4.133 4.133 0 0 0 0 8.266h6.077a4.134 4.134 0 0 0 4.126-4.133 4.134 4.134 0 0 0-4.126-4.133h-6.077zm6.077 9.446h-6.077c-2.924 0-5.303-2.384-5.303-5.313 0-2.93 2.38-5.313 5.303-5.313h6.077c2.925 0 5.305 2.384 5.305 5.313 0 2.93-2.38 5.313-5.305 5.313z" fill="#DFE1E5"/><path d="M67.821 46.975h-1.896a.708.708 0 0 1 0-1.417h1.896a.708.708 0 1 1 0 1.417M28.993 46.975h-1.897a.708.708 0 0 1 0-1.417h1.897a.708.708 0 1 1 0 1.417" fill="#DFE1E5"/><g><path d="M28.872 25.109c0-1.077.871-1.95 1.946-1.95 1.074 0 1.945.873 1.945 1.95s-.871 1.95-1.945 1.95a1.947 1.947 0 0 1-1.946-1.95" fill="#13B58A"/><path d="M47.41 92.056a1.683 1.683 0 0 1 0-3.366 1.683 1.683 0 0 1 0 3.366m5.428-2.487h-2.253l-.051-.167c-.433-1.39-1.688-2.322-3.124-2.322a3.268 3.268 0 0 0-3.124 2.322l-.052.167h-2.253a.805.805 0 0 0 0 1.611h2.253l.052.166a3.268 3.268 0 0 0 3.124 2.322c1.436 0 2.691-.933 3.124-2.322l.051-.166h2.253a.806.806 0 0 0 0-1.611" fill="#42B988"/><path d="M65.396 19.23c0-8.598 6.957-15.568 15.54-15.568 8.583 0 15.54 6.97 15.54 15.568 0 8.598-6.957 15.567-15.54 15.567-8.583 0-15.54-6.97-15.54-15.567" fill="#FFF"/><path d="M80.936 4.488c-8.115 0-14.715 6.613-14.715 14.741 0 8.13 6.6 14.743 14.715 14.743 8.114 0 14.714-6.613 14.714-14.743 0-8.128-6.6-14.741-14.714-14.741m0 31.137c-9.025 0-16.366-7.355-16.366-16.396 0-9.04 7.341-16.394 16.366-16.394 9.024 0 16.365 7.355 16.365 16.394 0 9.041-7.341 16.396-16.365 16.396" fill="#42B988"/><path d="M75.536 23.188c.559 0 1 .442 1 1.003a.99.99 0 0 1-1 .985h-.983a.99.99 0 0 1-.696-.289c-.067-.068-.373-.39-.678-1.002a6.027 6.027 0 0 1-.61-2.668c0-.204-.475-.781-1.034-1.172l-.272-.272a.987.987 0 0 1 .272-1.376s.322-.203.61-.51c.356-.356.424-.594.424-.645 0-.952.219-1.886.61-2.667.305-.612.61-.935.678-1.003a.99.99 0 0 1 .696-.289h.983a.99.99 0 0 1 1 .986.993.993 0 0 1-1 1.002h-.491c-.205.34-.492 1.003-.492 1.971 0 .782-.458 1.478-.95 1.987.492.51.95 1.207.95 1.988 0 .969.287 1.631.492 1.971h.491zM86.319 15.271a.99.99 0 0 1-.984-1.002c0-.543.442-.986.984-.986h1c.254 0 .51.103.696.29.05.068.372.39.677 1.001.39.782.594 1.716.594 2.668 0 .204.492.781 1.05 1.172l.273.272a.989.989 0 0 1-.272 1.377c-.017 0-.322.203-.61.51-.357.355-.44.593-.44.644 0 .952-.206 1.886-.595 2.667-.305.612-.627.936-.677 1.003a.987.987 0 0 1-.697.29h-1a.987.987 0 0 1-.983-.987.99.99 0 0 1 .984-1.002h.491c.22-.339.508-1.003.508-1.97 0-.782.459-1.479.95-1.988-.491-.51-.95-1.207-.95-1.988 0-.968-.288-1.63-.508-1.97h-.491z" fill="#42B988"/><path d="M78.528 19.514a.996.996 0 1 1-1.992.001.996.996 0 0 1 1.992-.001M82.011 19.514a.996.996 0 1 1-1.992.001.996.996 0 0 1 1.992-.001M85.334 19.514a.996.996 0 1 1-1.991.001.996.996 0 0 1 1.991-.001" fill="#42B988"/></g></g></svg>