<svg xmlns="http://www.w3.org/2000/svg" width="163" height="89" viewBox="0 0 163 89">
  <g fill="none" fill-rule="evenodd" transform="translate(0 -18)">
    <path fill="#CCECFF" d="M36.7019868,34.005726 L36.7019868,54.040404 L43.5515142,54.040404 L43.5515142,44.6357463 C43.5515142,41.5417058 46.0041834,39.0297125 49.025154,39.0297125 L127.121731,39.0297125 C130.142702,39.0297125 132.595371,41.5417058 132.595371,44.6357463 L132.595371,54.040404 L132.774834,54.040404 L132.774834,24.9074089 C132.774834,22.8855607 131.159662,21.2313212 129.155652,21.2313212 L118.896316,21.2313212 C118.417746,20.649274 117.909266,20.2203971 117.430697,19.9446905 C117.370875,19.9140564 117.311054,19.8527883 117.251233,19.8221542 C117.191412,19.7915202 117.10168,19.730252 117.041859,19.699618 C116.892306,19.6077158 116.712842,19.5464476 116.533379,19.4545455 L112.645001,19.4545455 C111.538308,19.9446905 110.730722,20.8024443 110.371795,21.2313212 L102.953966,21.2313212 C100.949956,21.2313212 99.3347835,22.8855607 99.3347835,24.9074089 L99.3347835,27.5725725 C99.3347835,28.6141307 98.4972867,29.4718845 97.4803263,29.4718845 L42.0559842,29.4718845 C39.3939408,29.4718845 37.1805564,31.4018305 36.7019868,34.005726 Z"/>
    <path fill="#707493" d="M162.428564 100.515152L123.631039 100.515152C123.330283 100.515152 123.059603 100.287613 123.059603 99.9747475 123.059603 99.6903243 123.300207 99.4343434 123.631039 99.4343434L162.428564 99.4343434C162.72932 99.4343434 163 99.661882 163 99.9747475 163 100.287613 162.759395 100.515152 162.428564 100.515152zM98.9709672 100.285447L.340291056 100.285447C.1611905 100.285447 0 100.106267 0 99.8598953 0 99.6359207.143280445 99.4343434.340291056 99.4343434L98.9709672 99.4343434C99.1500678 99.4343434 99.3112583 99.6135232 99.3112583 99.8598953 99.3112583 100.106267 99.1500678 100.285447 98.9709672 100.285447z"/>
    <rect width="11.874" height="14.051" x="132.775" y="57.283" fill="#CBEBFF" transform="rotate(180 138.712 64.308)"/>
    <path fill="#E4F2FE" d="M51.8145695,72.3853366 L51.8145695,97.2727273 L78.8013245,97.2727273 L78.8013245,85.219776 C78.7097405,85.1596615 78.6181565,85.1296043 78.4960445,85.1296043 L76.8780603,85.1296043 L76.8170043,85.1296043 L76.7864763,85.1296043 C76.6338363,85.1596615 76.5117243,85.2498332 76.4201402,85.3700622 C76.0232762,85.9110924 75.3821881,86.241722 74.7105721,86.241722 C73.4589239,86.241722 72.4514998,85.1296043 72.6346678,83.8672004 C72.7873078,82.8753116 73.6726199,82.0938235 74.7105721,82.0938235 C75.3211321,82.0938235 75.9011642,82.3342814 76.3285562,82.8151972 L76.3285562,82.8151972 C76.3590842,82.8452544 76.3896122,82.8753116 76.4201402,82.8753116 C76.4506682,82.9053689 76.4811962,82.9053689 76.4811962,82.9354261 C76.5117243,82.9354261 76.5422523,82.9654833 76.5727803,82.9654833 C76.6033083,82.9654833 76.6338363,82.9654833 76.6643643,82.9955406 L78.4655165,82.9955406 C78.5571005,82.9955406 78.6792125,82.9654833 78.7402685,82.9354261 L78.7402685,72.1749359 C78.7402685,71.6940202 78.3434045,71.3333333 77.8854844,71.3333333 L66.1932591,71.3333333 L66.1932591,72.3252221 C66.1932591,72.445451 66.2237871,72.5356227 66.2848431,72.6257944 C66.2848431,72.6257944 66.2848431,72.6257944 66.2848431,72.6558517 C66.3153711,72.6859089 66.3458991,72.7159662 66.3764271,72.7460234 C66.3764271,72.7460234 66.4069551,72.7760806 66.4069551,72.8061379 C67.1396272,73.3171109 67.4754353,74.2188279 67.2006832,75.0904877 C66.9564592,75.9320903 66.1627311,76.533235 65.277419,76.5632923 C64.0868269,76.6234067 63.0794028,75.6615752 63.0794028,74.489343 C63.0794028,73.8881983 63.3541548,73.3171109 63.8120749,72.9263668 C63.8426029,72.8963096 63.8426029,72.8662523 63.8731309,72.8662523 C64.0868269,72.8061379 64.2699949,72.5957372 64.2699949,72.3552793 L64.2699949,71.3633906 L52.8219936,71.3633906 C52.2724896,71.3333333 51.8145695,71.8142491 51.8145695,72.3853366 Z"/>
    <ellipse cx="112.805" cy="74.576" fill="#CBEBFF" rx="5.937" ry="4.323"/>
    <path fill="#707493" d="M112.23435 82.1414141C111.07341 82.1414141 109.91247 81.8362448 108.934837 81.2259061 106.97957 80.0662626 105.788079 77.9300772 105.788079 75.6718241 105.788079 75.3666548 106.032488 75.0920024 106.368549 75.0920024 106.67406 75.0920024 106.949019 75.3361378 106.949019 75.6718241 106.949019 77.563874 107.926653 79.2728223 109.545858 80.2493642 110.370736 80.7376352 111.317818 80.9817706 112.264901 80.9817706 113.181432 80.9817706 114.097963 80.7376352 114.922841 80.2798812 116.572598 79.3338562 117.611333 77.563874 117.611333 75.6413072 117.611333 72.7116815 115.228352 70.3008437 112.264901 70.3008437 111.07341 70.3008437 109.91247 70.6975639 108.965388 71.4299703 108.72098 71.6130719 108.354367 71.582555 108.171061 71.3384195 107.987755 71.094284 108.018306 70.7280808 108.262714 70.5449792 109.393103 69.6599881 110.798451 69.1717172 112.264901 69.1717172 115.839373 69.1717172 118.741722 72.0708259 118.741722 75.6413072 118.741722 77.9605942 117.489129 80.0967796 115.47276 81.2564231 114.464576 81.8667617 113.364738 82.1414141 112.23435 82.1414141zM116.043046 105.919192C115.758975 105.919192 115.503311 105.676994 115.503311 105.343972L115.503311 95.6863311C115.503311 95.3835837 115.730568 95.1111111 116.043046 95.1111111 116.327117 95.1111111 116.582781 95.353309 116.582781 95.6863311L116.582781 105.343972C116.582781 105.646719 116.355525 105.919192 116.043046 105.919192zM109.566225 107C109.282154 107 109.02649 106.755058 109.02649 106.418262L109.02649 96.7736573C109.02649 96.4674793 109.253747 96.1919192 109.566225 96.1919192 109.850296 96.1919192 110.10596 96.4368615 110.10596 96.7736573L110.10596 106.418262C110.077553 106.755058 109.850296 107 109.566225 107z"/>
    <path fill="#CCECFF" d="M104.708609,92.4377127 C104.708609,96.3213051 107.603778,99.4343434 111.18543,99.4343434 C114.767083,99.4343434 117.662252,96.2904829 117.662252,92.4377127 C117.662252,89.6637182 115.065554,84.2081955 113.006104,81.6191339 C112.200232,82.1122885 112.021149,81.064335 111.006348,81.064335 C109.961699,81.064335 109.006592,80.9410464 108.61858,82.1122885 C106.3502,84.7013501 104.708609,89.6637182 104.708609,92.4377127 Z"/>
    <path fill="#707493" d="M111.725166,98.3535354 C107.868959,98.3535354 104.708609,94.9892598 104.708609,90.815066 C104.708609,87.9492017 106.361269,82.8716376 108.73878,80.1615268 C108.912744,79.9746226 109.173691,79.9123212 109.405643,80.0680747 C110.188482,80.5664859 111.087297,80.8156915 112.015106,80.8156915 L112.0441,80.8156915 C113.000903,80.8156915 113.261849,80.8156915 113.957706,80.4107324 C114.189658,80.2861296 114.450605,80.3172803 114.624569,80.5353352 C116.85711,83.3077474 118.741722,88.0115031 118.741722,90.815066 C118.741722,94.9892598 115.581372,98.3535354 111.725166,98.3535354 Z M109.260673,81.3141026 C107.260084,83.8373093 105.781389,88.2918594 105.781389,90.8462167 C105.781389,94.3662458 108.44884,97.2321102 111.725166,97.2321102 C115.001491,97.2321102 117.668943,94.3662458 117.668943,90.8462167 C117.668943,88.4164622 116.016283,84.2734191 114.102676,81.687911 C113.40682,82.0305687 112.913921,82.0305687 112.073094,82.0305687 L112.0441,82.0305687 C111.058303,81.999418 110.130494,81.7813631 109.260673,81.3141026 Z"/>
    <path fill="#707493" d="M133.310075,96.1919192 C133.009135,96.1919192 132.73829,95.9494522 132.73829,95.6160601 L132.73829,45.0010742 C132.73829,42.2430121 130.511341,40.0305008 127.802889,40.0305008 L49.2577782,40.0305008 C46.5192322,40.0305008 44.3223766,42.2733205 44.3223766,45.0010742 L44.3223766,54.3057453 C44.3223766,54.608829 44.0816253,54.8816044 43.7505923,54.8816044 C43.4496532,54.8816044 43.1788079,54.6391374 43.1788079,54.3057453 L43.1788079,45.0010742 C43.1788079,41.6368446 45.88726,38.9090909 49.2276843,38.9090909 L127.802889,38.9090909 C131.143313,38.9090909 133.851765,41.6368446 133.851765,45.0010742 L133.851765,95.6463684 C133.881859,95.9494522 133.641108,96.1919192 133.310075,96.1919192 Z"/>
    <path fill="#707493" d="M36.1918855,60.5252525 C35.8922176,60.5252525 35.6225166,60.2799157 35.6225166,59.9425776 L35.6225166,34.9182236 C35.6225166,34.5195513 35.6524833,34.120879 35.7423837,33.7835409 C36.251819,30.9008335 38.7390622,28.7848036 41.6458404,28.7848036 L96.964526,28.7848036 C97.6837289,28.7848036 98.2530978,28.2021286 98.2530978,27.4661182 L98.2530978,24.7980805 C98.2530978,22.4367138 100.111038,20.5353535 102.418481,20.5353535 L128.609451,20.5353535 C130.916894,20.5353535 132.774834,22.4367138 132.774834,24.7980805 L132.774834,34.7955552 C132.774834,35.1022263 132.5351,35.3782302 132.205466,35.3782302 C131.905798,35.3782302 131.636097,35.1328934 131.636097,34.7955552 L131.636097,24.7980805 C131.636097,23.0807229 130.257624,21.6700363 128.579484,21.6700363 L102.388514,21.6700363 C100.710374,21.6700363 99.3319021,23.0807229 99.3319021,24.7980805 L99.3319021,27.4661182 C99.3319021,28.8154707 98.2530978,29.9194863 96.9345592,29.9194863 L41.6458404,29.9194863 C39.3084311,29.9194863 37.2706897,31.6368439 36.8511548,33.9982106 C36.7912212,34.2742145 36.7612544,34.5808855 36.7612544,34.9182236 L36.7612544,59.9425776 C36.7612544,60.2492486 36.4915533,60.5252525 36.1918855,60.5252525 Z"/>
    <g fill="#707493" transform="translate(97.152 46.475)">
      <path d="M19.5989931 7.75188811C19.4502906 7.75188811 19.3015881 7.69202797 19.2123665 7.60223776 19.004183 7.39272727 19.004183 7.03356643 19.2123665 6.82405594L19.5989931 6.43496503 14.6918097 1.4965035 9.04111366 7.18321678C8.92215164 7.27300699 8.80318962 7.33286713 8.65448709 7.33286713 8.50578457 7.33286713 8.35708204 7.27300699 8.26786052 7.15328671L7.43512637 6.31524476C7.22694283 6.10573427 7.22694283 5.74657343 7.43512637 5.53706294 7.64330991 5.32755245 8.00019597 5.32755245 8.20837951 5.53706294L8.65448709 5.98601399 14.3051831.299300699C14.5133667.0897902098 14.8702527.0897902098 15.0784363.299300699L20.7588728 6.01594406C20.8480943 6.10573427 20.9075753 6.25538462 20.9075753 6.40503497 20.9075753 6.55468531 20.8480943 6.70433566 20.7588728 6.79412587L19.9856197 7.57230769C19.8963982 7.69202797 19.7476956 7.75188811 19.5989931 7.75188811zM24.8035816 18.5267133C24.654879 18.5267133 24.5061765 18.4668531 24.416955 18.3770629 24.2087715 18.1675524 24.2087715 17.8083916 24.416955 17.5988811L27.5991891 14.3963636 22.5433031 9.30825175 22.1269361 9.72727273C21.9187525 9.93678322 21.5618665 9.93678322 21.3536829 9.72727273 21.1454994 9.51776224 21.1454994 9.1586014 21.3536829 8.94909091L22.1864171 8.14097902C22.3946006 7.93146853 22.7514867 7.93146853 22.9596702 8.14097902L28.8185498 14.0372028C29.0267333 14.2467133 29.0267333 14.6058741 28.8185498 14.8153846L25.2496891 18.406993C25.0712461 18.4668531 24.9225436 18.5267133 24.8035816 18.5267133zM4.75848088 19.1851748C4.60977835 19.1851748 4.46107582 19.1253147 4.3718543 19.0355245L.386626571 15.0248951C.178443033 14.8153846.178443033 14.4562238.386626571 14.2467133L5.76965806 8.82937063 5.35329099 8.41034965C5.14510745 8.20083916 5.14510745 7.84167832 5.35329099 7.63216783 5.56147452 7.42265734 5.91836059 7.42265734 6.12654413 7.63216783L6.92953778 8.44027972C7.13772131 8.64979021 7.13772131 9.00895105 6.92953778 9.21846154L1.54650628 14.6358042 5.14510745 18.2573427C5.35329099 18.4668531 5.35329099 18.826014 5.14510745 19.0355245 5.02614543 19.1253147 4.8774429 19.1851748 4.75848088 19.1851748z"/>
      <path d="M5.65069604 8.41034965C4.22315178 8.41034965 3.03353156 7.24307692 3.03353156 5.83636364 3.03353156 4.39972028 4.19341127 3.26237762 5.65069604 3.26237762 7.10798081 3.26237762 8.26786052 4.42965035 8.26786052 5.83636364 8.26786052 6.10573427 8.02993648 6.34517483 7.76227193 6.34517483 7.49460738 6.34517483 7.25668334 6.10573427 7.25668334 5.83636364 7.25668334 4.96839161 6.5429112 4.28 5.65069604 4.28 4.75848088 4.28 4.04470874 4.96839161 4.04470874 5.83636364 4.04470874 6.70433566 4.75848088 7.39272727 5.65069604 7.39272727 5.91836059 7.39272727 6.15628463 7.63216783 6.15628463 7.90153846 6.15628463 8.20083916 5.94810109 8.41034965 5.65069604 8.41034965zM19.4800311 12.001958C18.0524868 12.001958 16.9223476 10.8346853 16.9223476 9.36811189 16.9223476 7.90153846 18.0822273 6.73426573 19.4800311 6.73426573 19.7476956 6.73426573 19.9856197 6.97370629 19.9856197 7.24307692 19.9856197 7.51244755 19.7476956 7.75188811 19.4800311 7.75188811 18.6175564 7.75188811 17.9335248 8.47020979 17.9335248 9.36811189 17.9335248 10.266014 18.6175564 10.9843357 19.4800311 10.9843357 20.3425057 10.9843357 21.0265374 10.266014 21.0265374 9.36811189 21.0265374 9.09874126 21.2644614 8.8593007 21.532126 8.8593007 21.7997905 8.8593007 22.0377146 9.09874126 22.0377146 9.36811189 22.0674551 10.8346853 20.9075753 12.001958 19.4800311 12.001958z"/>
    </g>
    <path fill="#CBEBFF" d="M47.4966887,68.2800635 C47.4966887,68.2800635 46.8732947,63.4051741 41.0549503,62.6960993 C41.0549503,62.6960993 36.0974834,62.2233827 35.6225166,68.0437052 L35.6225166,77.3207674 L37.4926987,79.979798 L37.4926987,68.3982426 C37.4926987,68.3686978 42.0939404,63.3756293 47.4966887,68.2800635 Z"/>
    <path fill="#707493" d="M40.7038637,74.5757576 C38.7181996,74.5757576 37.0991196,73.7790285 37.0074735,73.7152902 C36.8241815,73.6196827 36.7019868,73.3965986 36.7019868,73.1735145 L36.7019868,67.7876262 C36.7019868,67.6282804 36.7630841,67.4689346 36.8547302,67.3733271 C38.5349075,65.6205233 40.3678282,64.7600559 42.2312977,64.8556634 C45.2556169,65.0150092 47.2718297,67.5645421 47.3634757,67.6601496 C47.4856705,67.8194954 47.5162191,68.0107104 47.4856705,68.2019253 C46.7525022,71.102019 45.3778116,73.0460378 43.4532448,73.9702435 C42.5062358,74.4482809 41.5592267,74.5757576 40.7038637,74.5757576 Z M37.8017392,72.8229537 C38.6265535,73.1416453 40.9177045,73.9065052 42.964466,72.9185612 C44.4918999,72.1855705 45.622201,70.5921124 46.294272,68.2337945 C45.7749444,67.6601496 44.1864131,66.162299 42.1702003,66.0666915 C40.7038637,66.0029532 39.2375271,66.6722056 37.8322879,68.0744487 L37.8322879,72.8229537 L37.8017392,72.8229537 Z"/>
    <path fill="#707493" d="M37.2417219,81.0606061 C36.9576507,81.0606061 36.7019868,80.8184082 36.7019868,80.4853861 L36.7019868,70.8277452 C36.7019868,70.5249979 36.9292436,70.2525253 37.2417219,70.2525253 C37.5542001,70.2525253 37.781457,70.4947231 37.781457,70.8277452 L37.781457,80.4853861 C37.781457,80.8184082 37.525793,81.0606061 37.2417219,81.0606061 Z"/>
    <path fill="#707493" d="M35.0885581,77.8181818 C34.8018764,77.8181818 34.5438628,77.5804319 34.5438628,77.2535258 L34.5438628,67.7732481 C34.5151947,66.1981549 35.231899,62.9588124 38.213389,62.0078127 C38.5860753,61.859219 41.3668881,60.7596257 44.0616964,62.9885311 C44.2910418,63.1668435 44.3197099,63.5234684 44.1477009,63.7612183 C43.9756919,63.9989682 43.6316738,64.028687 43.4023284,63.8503745 C41.0802064,61.9186565 38.6434116,63.0182498 38.6147434,63.0182498 C38.5860753,63.0182498 38.5860753,63.0479686 38.5574071,63.0479686 C35.5759171,63.9692495 35.6332534,67.7138106 35.6332534,67.7435293 L35.6332534,77.2535258 C35.6332534,77.5507132 35.3752399,77.8181818 35.0885581,77.8181818 Z"/>
    <g transform="translate(103.63 18.374)">
      <path fill="#FFCC7B" d="M0.818124782,14.0418586 L7.9691414,4.53939394 C7.9691414,4.53939394 14.7868479,3.26836364 16.1806901,10.5919192 C16.1806901,10.5919192 17.7866388,7.74723232 16.1806901,4.47886869 L16.1806901,4.47886869 C15.9382828,3.96440404 15.6049727,3.48020202 15.1807598,2.96573737 C14.9383525,2.66311111 14.6656442,2.36048485 14.3626351,2.08812121 C14.3626351,2.08812121 14.1808296,1.90654545 13.8172185,1.69470707 C13.7566167,1.66444444 13.6960149,1.60391919 13.635413,1.57365657 C13.5748112,1.54339394 13.4839084,1.48286869 13.4233066,1.45260606 C13.271802,1.36181818 13.0899965,1.30129293 12.908191,1.21050505 C12.6051818,1.08945455 12.2718717,0.998666667 11.9082607,0.907878788 L11.8779598,0.907878788 C11.0901359,0.756565657 10.1811084,0.786828283 9.18117811,1.21050505 C8.42365516,1.54339394 7.60553038,2.08812121 6.7874056,2.96573737 C6.72680376,3.02626263 6.69650285,3.05652525 6.63590101,3.11705051 L0.909027536,10.7129697 L0.818124782,14.0418586 Z"/>
      <g transform="translate(4.545 3.934)">
        <path fill="#FFFFFF" d="M0.545416521,4.87228283 L0.545416521,4.87228283 C0.606018357,4.99333333 1.15143488,5.96173737 2.12106425,6.89987879 C3.36340188,8.11038384 5.36326246,9.26036364 7.99944231,8.44327273 C8.96907169,8.14064646 9.99930289,7.59591919 11.1204369,6.71830303 C11.1204369,6.71830303 10.8174277,-0.24210101 3.57550831,0.786828283 L0.545416521,4.87228283 Z"/>
        <path fill="#707493" d="M6.27229,9.26036364 C4.27242942,9.26036364 2.75738353,8.26169697 1.75745324,7.29329293 C0.818124782,6.38541414 0.242407343,5.4170101 0.0909027536,5.14464646 C0.0303009179,5.05385859 0,4.93280808 0,4.8420202 C0,4.7209697 0.0303009179,4.59991919 0.121203671,4.50913131 L3.18159638,0.423676768 C3.27249913,0.302626263 3.3937028,0.211838384 3.54520739,0.211838384 C5.90867898,-0.121050505 7.81763681,0.302626263 9.24177995,1.51313131 C11.5446497,3.41967677 11.6961543,6.5669899 11.6961543,6.6880404 C11.6961543,6.86961616 11.6355525,7.05119192 11.4840479,7.1419798 C10.3629139,8.01959596 9.24177995,8.62484848 8.18124782,8.95773737 C7.51462763,9.19983838 6.84800744,9.26036364 6.27229,9.26036364 Z M1.24233763,4.90254545 C1.45444406,5.26569697 1.90895783,5.90121212 2.5452771,6.50646465 C4.12092483,8.04985859 5.9389799,8.50379798 7.87823864,7.89854545 C8.75696526,7.62618182 9.6659928,7.1419798 10.5750203,6.44593939 C10.4841176,5.68937374 10.0902056,3.63151515 8.54485884,2.36048485 C7.42372488,1.42234343 5.87837806,1.05919192 3.93911932,1.30129293 L1.24233763,4.90254545 Z"/>
      </g>
      <path fill="#707493" d="M0.909027536,14.9497374 C0.787823864,14.9497374 0.666620193,14.9194747 0.575717439,14.8286869 C0.333310096,14.6471111 0.272708261,14.2839596 0.454513768,14.0418586 L6.27229,6.32488889 C6.4540955,6.08278788 6.81770652,6.02226263 7.06011386,6.20383838 C7.3025212,6.38541414 7.36312304,6.74856566 7.18131753,6.99066667 L1.3635413,14.7076364 C1.24233763,14.8589495 1.09083304,14.9497374 0.909027536,14.9497374 Z"/>
      <path fill="#707493" d="M0.636319275,11.5300606 C0.515115604,11.5300606 0.393911932,11.499798 0.303009179,11.4090101 C0.0606018357,11.2274343 8.42520498e-14,10.8642828 0.181805507,10.6221818 L5.99958174,2.90521212 C6.02988265,2.84468687 6.12078541,2.72363636 6.27229,2.57232323 C6.66620193,2.11838384 7.54492855,1.21050505 8.75696526,0.696040404 C9.81749739,0.211838384 10.9083304,0.0907878788 11.9991635,0.363151515 L12.0294644,0.363151515 L12.0597653,0.363151515 C12.2718717,0.393414141 12.4536772,0.48420202 12.6354827,0.544727273 C12.6960846,0.574989899 12.8475892,0.605252525 13.0899965,0.696040404 C13.2415011,0.756565657 13.4536075,0.847353535 13.6960149,0.96840404 C13.6960149,0.96840404 13.7263158,0.96840404 13.7263158,0.998666667 C13.7869176,1.02892929 13.8778204,1.08945455 13.9384222,1.11971717 C14.029325,1.1499798 14.0899268,1.21050505 14.1505286,1.24076768 C14.756547,1.60391919 15.3019635,2.05785859 15.7564773,2.63284848 C16.1503892,3.14731313 16.4836993,3.6920404 16.7261067,4.29729293 C16.7261067,4.32755556 16.7261067,4.32755556 16.7564076,4.35781818 C16.8473103,4.56965657 16.9079122,4.81175758 16.9988149,5.08412121 C17.0594168,5.38674747 16.8776112,5.68937374 16.5746021,5.74989899 C16.2715929,5.81042424 15.9685837,5.62884848 15.9079819,5.32622222 C15.84738,5.11438384 15.7867782,4.90254545 15.6958755,4.69070707 C15.6958755,4.66044444 15.6958755,4.66044444 15.6655745,4.63018182 C15.483769,4.1459798 15.2110608,3.6920404 14.9080516,3.29862626 C14.5444406,2.84468687 14.0899268,2.45127273 13.5748112,2.14864646 C13.5748112,2.14864646 13.5445103,2.14864646 13.5445103,2.11838384 C13.5142094,2.08812121 13.4536075,2.05785859 13.4233066,2.02759596 C13.4233066,2.02759596 13.3930057,2.02759596 13.3930057,1.99733333 C13.3324039,1.96707071 13.271802,1.93680808 13.2112002,1.87628283 C13.0293947,1.78549495 12.8475892,1.7249697 12.7263855,1.66444444 C12.5142791,1.57365657 12.3627745,1.54339394 12.3627745,1.54339394 C12.3324736,1.54339394 12.3324736,1.54339394 12.3021727,1.51313131 C12.1506681,1.45260606 11.9991635,1.39208081 11.8476589,1.36181818 C11.8476589,1.36181818 11.8476589,1.36181818 11.817358,1.36181818 L11.787057,1.36181818 C10.9386313,1.1499798 10.0902056,1.24076768 9.24177995,1.63418182 C8.21154874,2.08812121 7.48432671,2.84468687 7.15101661,3.23810101 C7.02981294,3.38941414 6.96921111,3.48020202 6.96921111,3.48020202 C6.96921111,3.48020202 6.96921111,3.51046465 6.93891019,3.51046465 L1.12113396,11.2274343 C0.969629371,11.4392727 0.787823864,11.5300606 0.636319275,11.5300606 Z"/>
    </g>
    <path fill="#707493" d="M50.1724827,78.8989899 L39.4235438,78.8989899 C39.1274298,78.8989899 38.8609272,78.6714514 38.8609272,78.3585859 C38.8609272,78.0741627 39.0978184,77.8181818 39.4235438,77.8181818 L50.1724827,77.8181818 C50.4685967,77.8181818 50.7350993,78.0457204 50.7350993,78.3585859 C50.7350993,78.6714514 50.4982081,78.8989899 50.1724827,78.8989899 Z"/>
    <path fill="#707493" d="M35.6435182,89.7070707 C33.8435906,89.7070707 32.0436631,89.0811243 30.670837,87.7994246 C30.6403298,87.7696177 30.5793153,87.7100037 30.5488081,87.6801967 C29.3590255,86.5475319 28.8709095,84.8187276 29.298011,83.2091512 C31.0064168,76.6218108 34.7283008,75.7276017 34.880837,75.6679878 C35.1859095,75.6083738 35.4909819,75.7872157 35.5519964,76.0852854 C35.6130109,76.3833551 35.4299674,76.6814248 35.124895,76.7410387 C35.0638805,76.7410387 31.8911269,77.6352478 30.3962718,83.447607 C30.0911994,84.6994997 30.4267791,86.0110064 31.3419965,86.8754085 C31.3725037,86.9052155 31.403011,86.9350225 31.4640254,86.9648295 C33.7215617,89.0215104 37.2604022,89.1109313 39.5484457,87.1734782 C41.0433007,85.8917785 41.8669964,83.9841324 42.0195326,81.45054 C42.0500398,81.1524703 42.2940978,80.9140145 42.6296775,80.9140145 C42.93475,80.9438215 43.1788079,81.1822773 43.1788079,81.5101539 C43.0262717,84.3418161 42.0805471,86.5177249 40.3416341,88.0080734 C38.9383007,89.1705452 37.2909095,89.7070707 35.6435182,89.7070707 Z"/>
    <path fill="#707493" d="M25.3714647 97.2727273C25.2538466 97.2727273 25.1362286 97.2438191 25.0480151 97.1570946 24.8127791 96.9836455 24.75397 96.6367475 24.9303971 96.4054821L31.3993883 87.7619382C31.5758153 87.5306728 31.9286694 87.4728565 32.1639054 87.6463055 32.3991415 87.8197546 32.4579505 88.1666526 32.2815235 88.397918L25.8125322 97.0414619C25.7243187 97.2149109 25.5478917 97.2727273 25.3714647 97.2727273zM38.6014276 98.3535354C38.4679948 98.3535354 38.3612485 98.2955877 38.2545022 98.2086661 38.0676962 98.0058492 38.0676962 97.658163 38.2545022 97.4553461 39.5354577 96.0356276 40.1492489 94.5869352 40.015816 93.1961906 39.82901 91.023152 38.014323 89.6034335 37.9876364 89.6034335 37.7741438 89.4295904 37.7207707 89.1108781 37.8542036 88.8501135 38.014323 88.6183227 38.3078753 88.560375 38.5480545 88.7052443 38.6281142 88.763192 40.76304 90.4147012 41.0032192 93.0802952 41.1366521 94.818726 40.4694877 96.528183 38.9483531 98.1796923 38.8682933 98.2955877 38.7348605 98.3535354 38.6014276 98.3535354z"/>
    <g transform="translate(105.788 28.101)">
      <path fill="#FFFFFF" d="M0.865872904,10.0274972 L13.4658165,10.0274972 C13.4658165,10.0274972 11.1070593,2.49186308 10.3009018,2.37177329 C7.67342539,3.18237935 5.73267578,2.04152637 4.50851064,0.840628507 C4.47865295,0.840628507 0.836015218,6.69500561 0.865872904,10.0274972 Z"/>
      <path fill="#707493" d="M13.4658165,10.5979237 L0.865872904,10.5979237 C0.567296041,10.5979237 0.298576863,10.3577441 0.298576863,10.0575196 C0.268719177,6.57491582 3.85164154,0.810606061 4.00092997,0.570426487 C4.09050303,0.420314254 4.23979146,0.330246914 4.41893758,0.300224467 C4.5980837,0.27020202 4.74737213,0.330246914 4.86680287,0.4503367 C6.41940256,1.98148148 8.21086375,2.43181818 10.1217557,1.83136925 C10.2113287,1.8013468 10.3009018,1.8013468 10.3606172,1.8013468 C10.6890517,1.86139169 11.4952092,1.98148148 13.9733972,9.84736251 C14.0331126,10.0274972 14.0032549,10.2076319 13.8838242,10.3577441 C13.7942511,10.5078563 13.6449627,10.5979237 13.4658165,10.5979237 Z M1.46302663,9.48709315 L12.7193744,9.48709315 C11.8236438,6.69500561 10.6890517,3.72278339 10.181471,3.00224467 C7.76299845,3.63271605 5.9118219,2.7620651 4.62794138,1.71127946 C3.79192617,3.12233446 1.70188812,6.90516274 1.46302663,9.48709315 Z"/>
    </g>
    <path fill="#707493" d="M52.3543046 96.1919192C52.0702335 96.1919192 51.8145695 95.9454191 51.8145695 95.6064815L51.8145695 82.7268519C51.8145695 82.4187267 52.0418264 82.1414141 52.3543046 82.1414141 52.6383757 82.1414141 52.8940397 82.3879142 52.8940397 82.7268519L52.8940397 95.6064815C52.8940397 95.9454191 52.6383757 96.1919192 52.3543046 96.1919192zM51.8173884 73.8221905C51.7876377 74.1220529 51.995893 74.3919289 52.3231513 74.4219152L52.3231513 74.4219152 52.352902 74.4219152C52.6206588 74.4219152 52.8884157 74.2120116 52.8884157 73.9121492 52.8884157 73.8521768 53.0371694 72.4728101 54.0486952 72.4728101L63.3606819 72.4728101 63.3606819 72.8326449C63.3309312 72.8326449 63.3011804 72.8626311 63.3011804 72.8626311 62.616913 73.4623558 62.2004024 74.3619427 62.2004024 75.2615297 62.2004024 77.0307173 63.6284387 78.4400702 65.3539826 78.4400702 67.1092772 78.4400702 68.5075628 77.0007311 68.5075628 75.2615297 68.5075628 74.3019702 68.0910522 73.4323695 67.377034 72.8326449L67.377034 72.4428239 76.6890208 72.4428239C77.0162791 72.4428239 77.2542852 72.5327826 77.403039 72.7127 77.760048 73.102521 77.7005465 73.7922043 77.7005465 73.7922043L77.7005465 82.6381426 76.7187716 82.6381426C76.1237564 82.0684042 75.3502368 81.7385556 74.5172156 81.7385556 72.7619209 81.7385556 71.3636354 83.1778947 71.3636354 84.9170962 71.3636354 86.6862838 72.7916717 88.0956367 74.5172156 88.0956367 75.439489 88.0956367 76.3320117 87.6758295 76.9270268 86.9861461L77.6707958 86.9861461 77.6707958 95.6221808C77.6707958 95.9220431 77.9088018 96.1919192 78.2360601 96.1919192 78.3550632 96.1919192 78.4443154 96.161933 78.5335677 96.1019605 78.6823215 96.0120018 78.8013245 95.8320844 78.8013245 95.6221808L78.8013245 86.446394C78.8013245 86.2364904 78.7120722 86.056573 78.5335677 85.9666143 78.4443154 85.9066418 78.3550632 85.8766556 78.2360601 85.8766556L76.65927 85.8766556 76.5997685 85.8766556 76.5700178 85.8766556C76.421264 85.9066418 76.302261 85.9966005 76.2130087 86.1165454 75.8262489 86.6562976 75.201483 86.9861461 74.5469663 86.9861461 73.4164376 86.9861461 72.4941641 86.056573 72.4941641 84.9170962 72.4941641 83.7776194 73.4164376 82.8480462 74.5469663 82.8480462 75.1419815 82.8480462 75.7072458 83.0879361 76.1237564 83.5677158L76.1237564 83.5677158C76.1535072 83.597702 76.1832579 83.6276882 76.2130087 83.6276882 76.2427595 83.6576745 76.2725102 83.6576745 76.2725102 83.6876607 76.302261 83.6876607 76.3320117 83.7176469 76.3617625 83.7176469 76.3915132 83.7176469 76.421264 83.7176469 76.4510147 83.7476331L78.2063094 83.7476331C78.2955616 83.7476331 78.4145647 83.7176469 78.4740662 83.6876607 78.6525707 83.597702 78.741823 83.4177846 78.741823 83.207881L78.741823 73.8521768C78.741823 73.7922043 78.8013245 73.0725348 78.4740662 72.4128377 78.4145647 72.322879 78.3550632 72.202934 78.2955616 72.1129754 78.2658109 72.0530029 78.2063094 71.9930304 78.1765586 71.9630442 77.9088018 71.6931681 77.4327897 71.3333333 76.6295193 71.3333333L66.7522682 71.3333333C66.4547606 71.3333333 66.1870038 71.5732232 66.1870038 71.9030717L66.1870038 73.102521C66.1870038 73.2224659 66.2167545 73.3124246 66.276256 73.4023833 66.276256 73.4023833 66.276256 73.4023833 66.276256 73.4323695 66.3060068 73.4623558 66.3357576 73.492342 66.3655083 73.5223282 66.3655083 73.5223282 66.3952591 73.5523145 66.3952591 73.5823007 66.9307727 73.9721217 67.258031 74.6018326 67.258031 75.2615297 67.258031 76.4010064 66.3357576 77.3305796 65.2052288 77.3305796 64.0747001 77.3305796 63.1524266 76.4010064 63.1524266 75.2615297 63.1524266 74.661805 63.4201834 74.0920666 63.8664448 73.7022456 63.8961955 73.6722594 63.8961955 73.6422732 63.9259463 73.6422732 64.1342016 73.5823007 64.3127061 73.3723971 64.3127061 73.1325072L64.3127061 71.933058C64.3127061 71.6331956 64.0747001 71.3633196 63.7474418 71.3633196L53.8701906 71.3633196C53.1264217 71.3633196 52.6206588 71.6931681 52.2636498 72.1429616 52.2041483 72.202934 52.1743975 72.2629065 52.114896 72.3528652 51.995893 72.8626311 51.8471392 73.4323695 51.8173884 73.8221905zM116.043046 46.4747475C115.758975 46.4747475 115.503311 46.2363738 115.503311 45.9086099L115.503311 35.1519962C115.503311 34.854029 115.730568 34.5858586 116.043046 34.5858586 116.355525 34.5858586 116.582781 34.8242323 116.582781 35.1519962L116.582781 45.9086099C116.582781 46.2363738 116.355525 46.4747475 116.043046 46.4747475zM109.566225 46.4747475C109.282154 46.4747475 109.02649 46.2363738 109.02649 45.9086099L109.02649 35.1519962C109.02649 34.854029 109.253747 34.5858586 109.566225 34.5858586 109.878703 34.5858586 110.10596 34.8242323 110.10596 35.1519962L110.10596 45.9086099C110.10596 46.2363738 109.878703 46.4747475 109.566225 46.4747475zM113.868231 28.1010101C113.757109 28.1010101 113.645988 28.0766832 113.534866 28.0037026 113.312622 27.8577414 113.284841 27.565819 113.451524 27.371204L114.590524 26.1062068C114.757207 25.9115918 115.090573 25.8872649 115.312817 26.0332262 115.53506 26.1791874 115.562841 26.4711098 115.396158 26.6657248L114.257158 27.930722C114.173817 28.0523564 114.007134 28.1010101 113.868231 28.1010101zM116.099333 31.3434343L116.043046 31.3434343C115.846044 31.3434343 115.677184 31.2273744 115.564612 31.0532845 115.423895 30.7921497 115.536468 30.4729849 115.789757 30.32791 115.958617 30.240865 116.155619 30.240865 116.296335 30.32791 116.549624 30.4729849 116.662197 30.7921497 116.521481 31.0532845 116.465195 31.2563894 116.296335 31.3434343 116.099333 31.3434343zM107.460022 84.3030303C107.319937 84.3030303 107.207869 84.2434597 107.095801 84.1243184 107.039767 84.0647477 101.296278 77.0354112 104.714354 66.2829093 104.798405 66.0148413 105.078576 65.8659147 105.330729 65.9552707 105.582882 66.0446267 105.722967 66.3424799 105.638916 66.6105478 102.416959 76.7971286 107.768209 83.3796853 107.824243 83.4392559 107.992345 83.6477532 107.992345 83.9753917 107.796226 84.1541037 107.684158 84.2434597 107.57209 84.3030303 107.460022 84.3030303zM117.127749 85.3838384C116.999065 85.3838384 116.870381 85.3534346 116.773868 85.2622232 116.548671 85.0798004 116.5165 84.7453586 116.709526 84.532532 116.773868 84.4717244 123.433266 77.0227934 119.7336 66.6246937 119.637087 66.3510595 119.797943 66.0470215 120.087482 65.9558101 120.377021 65.8645987 120.698731 66.0166177 120.795244 66.2902519 124.720106 77.2660238 117.642485 85.140608 117.578143 85.2014156 117.417288 85.3230308 117.288604 85.3838384 117.127749 85.3838384z"/>
    <g fill="#707493" transform="translate(91.755 54.04)">
      <path d="M1.15858673,1.94545455 C1.01239192,1.94545455 0.890562914,1.81035354 0.890562914,1.64823232 L0.890562914,0.297222222 C0.890562914,0.13510101 1.01239192,0 1.15858673,0 C1.30478154,0 1.42661054,0.13510101 1.42661054,0.297222222 L1.42661054,1.64823232 C1.40224474,1.83737374 1.30478154,1.94545455 1.15858673,1.94545455 Z"/>
      <path d="M1.86208609,1.23923725 L0.512748344,1.23923725 C0.350827815,1.23923725 0.21589404,1.11725725 0.21589404,0.970881253 C0.21589404,0.824505253 0.350827815,0.702525253 0.512748344,0.702525253 L1.86208609,0.702525253 C2.02400662,0.702525253 2.1589404,0.824505253 2.1589404,0.970881253 C2.13195364,1.11725725 1.99701987,1.23923725 1.86208609,1.23923725 Z"/>
    </g>
    <g fill="#707493" transform="translate(99.311 45.394)">
      <path d="M0.982648918,1.03757576 C0.894046004,1.03757576 0.827593819,0.972727273 0.827593819,0.886262626 L0.827593819,0.172929293 C0.827593819,0.0864646465 0.894046004,0.0216161616 0.982648918,0.0216161616 C1.07125183,0.0216161616 1.13770402,0.0864646465 1.13770402,0.172929293 L1.13770402,0.886262626 C1.13770402,0.972727273 1.07125183,1.03757576 0.982648918,1.03757576 Z"/>
      <path d="M1.65518764,0.699585455 L0.467770419,0.699585455 C0.32384106,0.699585455 0.21589404,0.633050909 0.21589404,0.544338182 C0.21589404,0.455625455 0.32384106,0.389090909 0.467770419,0.389090909 L1.65518764,0.389090909 C1.799117,0.389090909 1.90706402,0.455625455 1.90706402,0.544338182 C1.90706402,0.633050909 1.799117,0.699585455 1.65518764,0.699585455 Z"/>
    </g>
    <g fill="#707493" transform="translate(121.98 48.636)">
      <path d="M1.05925772,2.10757576 C0.926353348,2.10757576 0.815599706,1.97247475 0.815599706,1.81035354 L0.815599706,0.459343434 C0.815599706,0.297222222 0.926353348,0.162121212 1.05925772,0.162121212 C1.19216209,0.162121212 1.30291573,0.297222222 1.30291573,0.459343434 L1.30291573,1.81035354 C1.280765,1.97247475 1.19216209,2.10757576 1.05925772,2.10757576 Z"/>
      <path d="M1.67917586,1.37433826 L0.479764533,1.37433826 C0.335835173,1.37433826 0.21589404,1.25235826 0.21589404,1.10598226 C0.21589404,0.959606263 0.335835173,0.837626263 0.479764533,0.837626263 L1.67917586,0.837626263 C1.82310522,0.837626263 1.94304636,0.959606263 1.94304636,1.10598226 C1.94304636,1.25235826 1.82310522,1.37433826 1.67917586,1.37433826 Z"/>
    </g>
    <path fill="#707493" d="M154.890427,83.2222222 C154.584343,83.2222222 154.308868,82.9826299 154.308868,82.6531904 L154.308868,51.4462885 C154.308868,49.3498555 152.564191,47.6128111 150.390998,47.6128111 L135.515334,47.6128111 C135.20925,47.6128111 134.933775,47.3732187 134.933775,47.0437793 C134.933775,46.7442889 135.178642,46.4747475 135.515334,46.4747475 L150.390998,46.4747475 C153.176359,46.4747475 155.441377,48.6909766 155.441377,51.4163394 L155.441377,82.6232414 C155.471986,82.9526808 155.19651,83.2222222 154.890427,83.2222222 Z"/>
    <path fill="#707493" d="M150.592588 90.7878788L133.512324 90.7878788C133.217328 90.7878788 132.951832 90.5444091 132.951832 90.2096382 132.951832 89.9053011 133.187829 89.6313977 133.512324 89.6313977L150.032096 89.6313977 150.032096 51.9544609 133.335327 51.9544609C133.040331 51.9544609 132.774834 51.7109912 132.774834 51.3762203 132.774834 51.0718832 133.010831 50.7979798 133.335327 50.7979798L150.091095 50.7979798C150.651588 50.7979798 151.123581 51.2849192 151.123581 51.8631598L151.123581 90.2096382C151.153081 90.5444091 150.887584 90.7878788 150.592588 90.7878788zM154.903974 95.1111111C154.619902 95.1111111 154.364238 94.8758332 154.364238 94.552326L154.364238 87.0234316C154.364238 86.7293342 154.591495 86.4646465 154.903974 86.4646465 155.188045 86.4646465 155.443709 86.6999244 155.443709 87.0234316L155.443709 94.552326C155.443709 94.8758332 155.188045 95.1111111 154.903974 95.1111111zM139.251656 96.1919192C138.061471 96.1919192 137.092715 95.2219632 137.092715 94.030303 137.092715 92.8386428 138.061471 91.8686869 139.251656 91.8686869 140.441841 91.8686869 141.410596 92.8386428 141.410596 94.030303 141.382917 95.2496762 140.414162 96.1919192 139.251656 96.1919192zM139.251656 92.9494949C138.642724 92.9494949 138.144507 93.4483294 138.144507 94.0580161 138.144507 94.6677027 138.642724 95.1665372 139.251656 95.1665372 139.860588 95.1665372 140.358805 94.6677027 140.358805 94.0580161 140.358805 93.4483294 139.860588 92.9494949 139.251656 92.9494949z"/>
    <path fill="#707493" d="M145.154772 76.7373737L137.66642 76.7373737C137.36447 76.7373737 137.092715 76.5098352 137.092715 76.1969697 137.092715 75.9125465 137.334275 75.6565657 137.66642 75.6565657L145.154772 75.6565657C145.456722 75.6565657 145.728477 75.8841042 145.728477 76.1969697 145.728477 76.5098352 145.486917 76.7373737 145.154772 76.7373737zM145.118062 81.0606061L140.941541 81.0606061C140.62027 81.0606061 140.331126 80.8330675 140.331126 80.520202 140.331126 80.2357788 140.588143 79.979798 140.941541 79.979798L145.118062 79.979798C145.439333 79.979798 145.728477 80.2073365 145.728477 80.520202 145.728477 80.8046252 145.47146 81.0606061 145.118062 81.0606061zM145.154772 85.3838384L137.66642 85.3838384C137.36447 85.3838384 137.092715 85.1562998 137.092715 84.8434343 137.092715 84.5590112 137.334275 84.3030303 137.66642 84.3030303L145.154772 84.3030303C145.456722 84.3030303 145.728477 84.5305688 145.728477 84.8434343 145.728477 85.1562998 145.486917 85.3838384 145.154772 85.3838384z"/>
  </g>
</svg>
