<svg xmlns="http://www.w3.org/2000/svg" width="14" height="32" viewBox="0 0 14 32" enable-background="new 0 0 14 32"><g fill-rule="evenodd" clip-rule="evenodd" fill="#19CD91"><path d="M8.9 26.5c0 .5-.2.9-.5 1.3-.4.4-.8.5-1.4.5s-1-.2-1.3-.6-.5-.7-.5-1.2.2-.9.5-1.3c.3-.3.8-.5 1.3-.5s1 .2 1.3.6c.4.3.6.7.6 1.2zM8 21.6H5.6v-2c0-.6.1-1.2.2-1.7s.4-1 .6-1.4c.3-.4.6-.8.9-1.1l1-1 1-.9c.6-.5 1-1 1.4-1.6.4-.6.6-1.3.6-2.2 0-.6-.1-1.2-.3-1.7s-.6-.8-1-1.2c-.4-.3-.8-.6-1.4-.8-.5-.1-1-.2-1.6-.2-1.2 0-2.2.4-3 1.1-.7.7-1.2 1.7-1.4 2.8L.3 9.3c.3-1.8 1.1-3.2 2.3-4.2 1.2-1 2.7-1.5 4.5-1.5.9.1 1.8.2 2.6.4.8.3 1.5.6 2.1 1.2.6.5 1.1 1.1 1.4 1.9.4.7.5 1.6.5 2.5 0 .7-.1 1.4-.2 1.9-.2.5-.4 1-.7 1.5s-.6.8-1 1.2c-.4.4-.8.7-1.2 1.1-.5.4-.9.7-1.2 1.1-.3.3-.6.7-.8 1-.2.4-.4.7-.4 1.2-.2.3-.2.8-.2 1.4v1.6z"/></g></svg>
