<?xml version="1.0" encoding="UTF-8" standalone="no"?>
<svg width="18px" height="18px" viewBox="0 0 18 18" version="1.1" xmlns="http://www.w3.org/2000/svg" xmlns:xlink="http://www.w3.org/1999/xlink" xmlns:sketch="http://www.bohemiancoding.com/sketch/ns">
    <!-- Generator: Sketch 3.3.2 (12043) - http://www.bohemiancoding.com/sketch -->
    <title>info</title>
    <desc>Created with Sketch.</desc>
    <defs>
        <path d="M9,0 C4.02943725,0 0,4.02834436 0,9 C0,13.9705627 4.02834436,18 9,18 C13.9705627,18 18,13.9716556 18,9 C18,4.02943725 13.9716556,0 9,0 Z M11.1382533,5.00111607 C11.1382533,5.27678709 11.0339715,5.51164803 10.8254046,5.70570592 C10.6168377,5.89976381 10.3656544,5.99679129 10.0718471,5.99679129 C9.77803983,5.99679129 9.52594971,5.89976381 9.3155692,5.70570592 C9.10518868,5.51164803 9,5.27678709 9,5.00111607 C9,4.72544505 9.10518868,4.48967732 9.3155692,4.2938058 C9.52594971,4.09793429 9.77803983,4 10.0718471,4 C10.3656544,4 10.6168377,4.09793429 10.8254046,4.2938058 C11.0339715,4.48967732 11.1382533,4.72544505 11.1382533,5.00111607 Z M10.6700001,11.7444196 L10.5503853,12.234096 C10.191539,12.3755587 9.90519125,12.4834678 9.69133339,12.5578265 C9.47747553,12.6321851 9.22918665,12.6693638 8.9464593,12.6693638 C8.51149415,12.6693638 8.17349506,12.5632684 7.93245187,12.3510742 C7.69140869,12.1388801 7.5708889,11.8695608 7.5708889,11.5431083 C7.5708889,11.4161545 7.57995054,11.2864822 7.59807409,11.1540876 C7.61619763,11.021693 7.64519488,10.8720711 7.68506668,10.7052176 L8.13090373,9.11648996 C8.17077553,8.96414544 8.20430359,8.81996441 8.23148891,8.68394252 C8.25867424,8.54792064 8.27226669,8.42368918 8.27226669,8.31124442 C8.27226669,8.1081184 8.23058316,7.96665777 8.14721484,7.88685826 C8.06384652,7.80705875 7.90436169,7.7671596 7.66875557,7.7671596 C7.55276486,7.7671596 7.43405741,7.78529558 7.31262964,7.82156808 C7.19120187,7.85784058 7.08699303,7.89229894 7,7.9249442 L7.11961482,7.43526786 C7.41321629,7.3155686 7.69412707,7.21310031 7.96235558,7.12785993 C8.23058408,7.04261955 8.48430995,7 8.72354078,7 C9.15488121,7 9.48744333,7.10428188 9.72123709,7.31284877 C9.95503086,7.52141566 10.071926,7.79254855 10.071926,8.12625558 C10.071926,8.19517334 10.0637705,8.3166844 10.0474593,8.49079241 C10.0311481,8.66490042 10.0012447,8.82449704 9.95774821,8.96958705 L9.51191116,10.5528739 C9.47566407,10.6798276 9.44304217,10.8249155 9.41404449,10.9881417 C9.38504682,11.151368 9.3705482,11.2746927 9.3705482,11.3581194 C9.3705482,11.5684999 9.41766871,11.7117742 9.51191116,11.7879464 C9.60615361,11.8641187 9.7692631,11.9022042 10.0012445,11.9022042 C10.1099858,11.9022042 10.2332241,11.8831615 10.370963,11.8450753 C10.508702,11.8069892 10.60838,11.7734376 10.6700001,11.7444196 Z" id="path-1"></path>
    </defs>
    <g id="Page-1" stroke="none" stroke-width="1" fill="none" fill-rule="evenodd" sketch:type="MSPage">
        <g id="info" sketch:type="MSLayerGroup">
            <g>
                <use fill="#21304A" fill-rule="evenodd" sketch:type="MSShapeGroup" xlink:href="#path-1"></use>
                <use fill="none" xlink:href="#path-1"></use>
            </g>
        </g>
    </g>
</svg>