<?xml version="1.0" encoding="utf-8"?>
<!-- Generator: Adobe Illustrator 19.2.1, SVG Export Plug-In . SVG Version: 6.00 Build 0)  -->
<svg version="1.1" id="Layer_1" xmlns="http://www.w3.org/2000/svg" xmlns:xlink="http://www.w3.org/1999/xlink" x="0px" y="0px"
	 width="32" height="32" viewBox="0 0 32 32" enable-background="new 0 0 32 32" xml:space="preserve">
<path fill-rule="evenodd" clip-rule="evenodd" fill="#8091A5" d="M32,16c0,8.8-7.2,16-16,16S0,24.8,0,16S7.2,0,16,0S32,7.2,32,16z
	 M7.7,15.2c0.1-2.2,0.5-4.4,1.1-6.4l-5.3,0c-1.1,1.9-1.8,4.1-1.9,6.4H7.7z M15.2,8.8h-4.8c-0.7,2-1.1,4.1-1.2,6.4h6L15.2,8.8
	L15.2,8.8z M15.2,1.6c-1.7,1.5-3.1,3.4-4.1,5.7h4.1V1.6z M4.5,7.3h4.9c0.8-2,2-3.8,3.3-5.3C9.3,2.7,6.4,4.7,4.5,7.3z M30.4,15.2
	c-0.1-2.3-0.8-4.5-1.9-6.4l-5.3,0c0.7,2,1,4.1,1.1,6.4H30.4z M16.8,15.2h6c-0.1-2.2-0.5-4.4-1.2-6.4h-4.8V15.2z M16.8,7.3h4.1
	c-1-2.2-2.4-4.2-4.1-5.7V7.3z M19.3,2c1.3,1.5,2.4,3.3,3.3,5.3h4.9C25.6,4.7,22.7,2.7,19.3,2z M1.6,16.8c0.1,2.3,0.8,4.5,1.9,6.4
	l5.3,0c-0.7-2-1-4.1-1.1-6.4L1.6,16.8L1.6,16.8z M15.2,16.8h-6c0.1,2.2,0.5,4.4,1.2,6.4h4.8V16.8z M15.2,24.7h-4.1
	c1,2.2,2.4,4.2,4.1,5.7L15.2,24.7L15.2,24.7z M12.7,30c-1.3-1.5-2.4-3.3-3.3-5.3H4.5C6.4,27.3,9.3,29.3,12.7,30z M24.3,16.8
	c-0.1,2.2-0.5,4.4-1.1,6.4l5.3,0c1.1-1.9,1.8-4.1,1.9-6.4L24.3,16.8L24.3,16.8z M16.8,23.2h4.8c0.7-2,1.1-4.1,1.2-6.4h-6V23.2z
	 M16.8,30.4c1.7-1.5,3.1-3.4,4.1-5.7h-4.1V30.4z M27.5,24.7h-4.9c-0.8,2-2,3.8-3.3,5.3C22.7,29.3,25.6,27.3,27.5,24.7z"/>
</svg>
