<?xml version="1.0" encoding="utf-8"?>
<!-- Generator: Adobe Illustrator 19.2.1, SVG Export Plug-In . SVG Version: 6.00 Build 0)  -->
<svg version="1.1" id="Layer_1" xmlns="http://www.w3.org/2000/svg" xmlns:xlink="http://www.w3.org/1999/xlink" x="0px" y="0px"
	 width="27" height="32" viewBox="0 0 27 32" enable-background="new 0 0 27 32" xml:space="preserve">
<g>
	<path fill-rule="evenodd" clip-rule="evenodd" fill="#8091A5" d="M26.6,19.4c0,1-0.8,1.8-1.8,1.8c-1,0-1.8-0.8-1.8-1.8v-8.1
		c0-1,0.8-1.8,1.8-1.8c1,0,1.8,0.8,1.8,1.8V19.4z M4,19.4c0,1-0.8,1.8-1.8,1.8c-1,0-1.8-0.8-1.8-1.8v-8.1c0-1,0.8-1.8,1.8-1.8
		c1,0,1.8,0.8,1.8,1.8V19.4z M17.6,2.7L19,0.6c0-0.1,0-0.1-0.1-0.2c-0.1-0.1-0.2-0.1-0.2,0l-1.5,2.1c-1-0.4-2.2-0.6-3.7-0.6
		c-1.5,0-2.8,0.2-3.8,0.6L8.2,0.4c0-0.1-0.1,0-0.2,0C7.9,0.5,7.8,0.5,7.8,0.6l1.5,2C5.1,4.5,5,9,5,9h17C21.9,9,21.8,4.5,17.6,2.7z
		 M9.7,6.4c-0.6,0-1-0.4-1-1s0.4-1,1-1c0.6,0,1,0.4,1,1C10.8,5.9,10.3,6.4,9.7,6.4z M17.2,6.4c-0.6,0-1-0.4-1-1s0.4-1,1-1
		c0.6,0,1,0.4,1,1C18.2,5.9,17.7,6.4,17.2,6.4z"/>
	<path fill-rule="evenodd" clip-rule="evenodd" fill="#8091A5" d="M22,10.1H4.9v14.3c0,0.6,0.4,1,1,1h2.2v4.5c0,1,0.8,1.8,1.8,1.8
		c1,0,1.8-0.8,1.8-1.8v-4.5h3.4v4.5c0,1,0.8,1.8,1.8,1.8c1,0,1.8-0.8,1.8-1.8v-4.5H21c0.6,0,1-0.4,1-1V10.1"/>
</g>
</svg>
