<?xml version="1.0" encoding="utf-8"?>
<!-- Generator: Adobe Illustrator 19.2.1, SVG Export Plug-In . SVG Version: 6.00 Build 0)  -->
<svg version="1.1" id="Layer_1" xmlns="http://www.w3.org/2000/svg" xmlns:xlink="http://www.w3.org/1999/xlink" x="0px" y="0px"
	 width="42" height="32" viewBox="0 0 42 32" enable-background="new 0 0 42 32" xml:space="preserve">
<path fill-rule="evenodd" clip-rule="evenodd" fill="#8091A5" d="M31.4,12.8h-1.7l-0.9,4.8h1.5c1,0,1.7-0.2,2.3-0.6
	c0.5-0.4,0.9-1,1-1.9c0.2-0.9,0.1-1.5-0.2-1.8C33,12.9,32.4,12.8,31.4,12.8 M12,12.8h-1.7l-0.9,4.8h1.5c1,0,1.7-0.2,2.3-0.6
	c0.6-0.4,0.9-1,1-1.9c0.2-0.9,0.1-1.5-0.2-1.8C13.6,12.9,13,12.8,12,12.8"/>
<path fill-rule="evenodd" clip-rule="evenodd" fill="#8091A5" d="M21,5.4C9.6,5.4,0.2,10.1,0.2,16c0,5.9,9.3,10.6,20.8,10.6
	c11.4,0,20.8-4.8,20.8-10.6C41.8,10.1,32.4,5.4,21,5.4z M15.1,18.1c-0.5,0.4-1,0.8-1.6,1c-0.6,0.2-1.4,0.3-2.3,0.3H9l-0.6,3.1H6
	l2.2-11.5h4.8c1.5,0,2.4,0.4,3.1,1.1c0.7,0.8,0.9,1.8,0.6,3.2c-0.1,0.6-0.3,1-0.5,1.5C15.9,17.2,15.6,17.7,15.1,18.1z M22.3,19.4
	l1-5.1c0.1-0.6,0.1-1-0.1-1.2c-0.2-0.2-0.6-0.4-1.2-0.4h-2l-1.2,6.6h-2.4l2.2-11.5H21l-0.6,3.1h2.2c1.4,0,2.4,0.2,2.9,0.7
	c0.5,0.5,0.7,1.3,0.4,2.4l-1,5.3H22.3z M36,15.3c-0.1,0.6-0.3,1-0.6,1.5c-0.3,0.4-0.6,0.9-1,1.3c-0.5,0.4-1,0.8-1.7,1
	c-0.6,0.2-1.4,0.3-2.3,0.3h-2.1l-0.6,3.1h-2.4l2.2-11.5h4.8c1.5,0,2.4,0.4,3.1,1.1C36.1,12.8,36.3,13.9,36,15.3z"/>
</svg>
