<?xml version="1.0" encoding="utf-8"?>
<!-- Generator: Adobe Illustrator 19.2.1, SVG Export Plug-In . SVG Version: 6.00 Build 0)  -->
<svg version="1.1" id="Layer_1" xmlns="http://www.w3.org/2000/svg" xmlns:xlink="http://www.w3.org/1999/xlink" x="0px" y="0px"
	 width="38" height="32" viewBox="0 0 38 32" enable-background="new 0 0 38 32" xml:space="preserve">
<path fill-rule="evenodd" clip-rule="evenodd" fill="#8091A5" d="M35,1H3C1.3,1,0,2.3,0,4v24c0,1.7,1.3,3,3,3h32c1.7,0,3-1.3,3-3V4
	C38,2.3,36.7,1,35,1z M36,28c0,0.6-0.4,1-1,1H3c-0.6,0-1-0.4-1-1V7h34V28z M2,5V4c0-0.6,0.4-1,1-1h32c0.6,0,1,0.4,1,1v1H2z
	 M10.9,13.2L7.4,9.8C7,9.4,6.4,9.4,6,9.8c-0.4,0.4-0.4,1,0,1.4L8.8,14L6,16.7c-0.4,0.4-0.4,1,0,1.4c0.4,0.4,1,0.4,1.4,0l3.5-3.5
	C11.2,14.4,11.2,13.6,10.9,13.2z M18,19h-6c-0.6,0-1-0.4-1-1s0.4-1,1-1h6c0.6,0,1,0.4,1,1S18.6,19,18,19z"/>
</svg>
