<?xml version="1.0" encoding="utf-8"?>
<!-- Generator: Adobe Illustrator 19.2.1, SVG Export Plug-In . SVG Version: 6.00 Build 0)  -->
<svg version="1.1" id="Layer_1" xmlns="http://www.w3.org/2000/svg" xmlns:xlink="http://www.w3.org/1999/xlink" x="0px" y="0px"
	 width="30" height="32" viewBox="0 0 30 32" enable-background="new 0 0 30 32" xml:space="preserve">
<path fill-rule="evenodd" clip-rule="evenodd" fill="#8091A5" d="M1.2,16.5c0.2-0.6,0.4-1.8,0.9-2.8C4.6,8.5,8.6,4.8,13.7,2.5
	c1-0.5,2.2-0.6,3.3-0.6c1.4,0,2.3,0.9,2.4,2.4c0.1,0.7,0.1,1.5-0.2,2.2c-2.4,6.6-7.1,11-13.7,13.6c-0.2,0.1-0.6,0.2-0.8,0.2
	C2.6,20.6,1.2,19.3,1.2,16.5 M18.3,11.5c3.5-0.2,7.2-0.6,10.9-0.8l-0.6-0.6c-3.2-2.5-6.5-5.1-9.7-7.8C18.6,2.1,18.3,1.7,18,1h3.6
	c1.3,0,2.8-0.2,4,0.2c2.8,0.6,4.4,2.4,4.3,5.3c-0.1,2.8-0.3,5.4-0.6,8.2c-0.3,4.2-0.6,8.3-0.9,12.5c-0.1,0.7-0.2,1.5-0.2,2.3
	c-1.5-1.3-2.9-2.7-4.4-3.9c-0.2-0.2-0.3-0.4-0.6-0.6c-1.7-1.1-2.4-2.8-2.8-4.8c-0.6-2.6-1.3-5.2-1.9-7.8
	C18.4,12.2,18.4,11.9,18.3,11.5 M4.8,27.5c0.8-0.2,1.5-0.2,2.2-0.3c0.2-0.1,0.6-0.4,0.6-0.6c0.6-2,1.3-4.1,1.9-6.2
	C9.6,20,9.7,20,9.8,19.6c3.8,1.2,7.5,2.4,11.4,3.6c-2,2-4.1,3.7-6.5,5.3c4.3,0.3,8.5,0.6,12.7,1v0.2c-0.9,0.1-1.9,0.2-2.8,0.2
	c-5.4,0.3-10.7,0.7-16.2,1c-0.9-0.1-1.7,0-2.6,0c-3.6-0.1-5.7-2-5.7-5.7c0-2,0.2-4.1,0.3-6.1c0-0.2,0.2-0.2,0.3-0.5
	c0.2,0.2,0.5,0.2,0.6,0.5l3.2,7.6C4.6,27,4.6,27.1,4.8,27.5"/>
</svg>
