<?xml version="1.0" encoding="utf-8"?>
<!-- Generator: Adobe Illustrator 19.2.1, SVG Export Plug-In . SVG Version: 6.00 Build 0)  -->
<svg version="1.1" id="Layer_1" xmlns="http://www.w3.org/2000/svg" xmlns:xlink="http://www.w3.org/1999/xlink" x="0px" y="0px"
	 width="26" height="32" viewBox="0 0 26 32" enable-background="new 0 0 26 32" xml:space="preserve">
<path fill-rule="evenodd" clip-rule="evenodd" fill="#8091A5" d="M14.3,3c2.1-2.8,5.1-2.8,5.1-2.8s0.4,2.5-1.7,5
	C15.5,7.9,13,7.4,13,7.4S12.4,5.4,14.3,3 M13.2,9.3c1.1,0,3.1-1.4,5.7-1.4c4.4,0,6.2,3.2,6.2,3.2s-3.4,1.7-3.4,5.9
	c0,4.8,4.3,6.5,4.3,6.5s-3.1,8.3-7.1,8.3c-1.8,0-3.3-1.3-5.3-1.3c-2,0-4,1.3-5.3,1.3c-3.6,0-8.3-8-8.3-14.3c0-6.2,4-9.6,7.7-9.6
	C10.1,7.9,11.9,9.3,13.2,9.3"/>
</svg>
