<svg xmlns="http://www.w3.org/2000/svg" width="32" height="32" viewBox="0 0 32 32" enable-background="new 0 0 32 32"><path fill="#16C98D" d="M30 13l-2.6-.6c-.2-.6-.5-1.3-.8-1.8L28 8.3c.5-.8.8-2 0-2.8L26.7 4c-.8-.8-2.1-.6-2.9-.1l-2.3 1.4c-.6-.3-1.2-.6-1.8-.8L19.1 2c-.2-1-1-2-2.1-2h-2c-1.1 0-1.8 1-2 2l-.6 2.6c-.7.2-1.3.5-1.9.8L8.1 3.9c-.8-.5-2.1-.7-2.9.1L3.8 5.4c-.8.8-.5 2 0 2.8l1.5 2.4c-.3.6-.5 1.1-.7 1.7L2 13c-1 .2-2 1-2 2.1v2c0 1.1 1 1.8 2 2l2.6.6c.2.6.4 1.1.7 1.6l-1.5 2.4c-.5.8-.8 2 0 2.8L5.2 28c.8.8 2.1.6 2.9.1l2.3-1.5c.6.3 1.3.6 2 .8L13 30c.2 1 .9 2 2 2h2c1.1 0 1.9-1 2.1-2l.6-2.6c.6-.2 1.2-.5 1.8-.8l2.3 1.4c.8.6 2.1.7 2.9-.1l1.4-1.4c.8-.8.5-2 0-2.8l-1.4-2.3c.3-.5.5-1.1.7-1.7l2.6-.6c1-.2 2-.9 2-2v-2c0-1.1-1-2-2-2.1zm0 3.9c-.1.1-.2.1-.4.2l-3.7.9-.3 1.1c-.2.5-.4 1-.6 1.4l-.5 1 2 3.3c.1.2.2.4.2.5l-1.3 1.3c-.1 0-.3-.1-.3-.1l-3.3-2.1-1 .5c-.5.3-1 .5-1.5.6l-1.3.4-.8 3.7c0 .2-.1.4-.2.4h-1.8c-.1-.1-.1-.2-.2-.4l-1-3.7-1-.4c-.5-.2-1.1-.4-1.6-.7l-1-.5L7 26.4c-.1.1-.3.1-.4.1l-1.3-1.3c0-.1.1-.3.2-.4l2-3.4-.5-1c-.2-.5-.4-.9-.5-1.3L6.2 18l-3.7-.9c-.2 0-.4-.1-.5-.2V15s.2-.1.3-.1l3.8-.8.4-1.1c.1-.4.3-.9.6-1.4l.5-1-2-3.4c-.2-.2-.3-.4-.3-.5l1.3-1.3c.1 0 .3.1.3.1l3.4 2.1 1-.5c.5-.3 1.1-.5 1.6-.7l1.1-.3.9-3.6c.1-.2.2-.4.2-.5H17s.1.2.1.3l.9 3.8 1.1.4 1.5.6 1 .5 3.2-2.1c.1-.1.3-.1.4-.1l1.3 1.3c0 .1-.1.3-.2.5l-2 3.3.5 1c.3.5.5 1 .6 1.5l.3 1.1 3.7.8c.2 0 .4.2.4.2l.2 1.8zM16 10c-3.3 0-6 2.7-6 6s2.7 6 6 6 6-2.7 6-6-2.7-6-6-6zm0 10c-2.2 0-4-1.8-4-4s1.8-4 4-4 4 1.8 4 4-1.8 4-4 4z"/></svg>
