<?xml version="1.0" encoding="utf-8"?>
<!-- Generator: Adobe Illustrator 19.2.1, SVG Export Plug-In . SVG Version: 6.00 Build 0)  -->
<svg version="1.1" id="Layer_1" xmlns="http://www.w3.org/2000/svg" xmlns:xlink="http://www.w3.org/1999/xlink" x="0px" y="0px"
	 width="33" height="32" viewBox="0 0 33 32" enable-background="new 0 0 33 32" xml:space="preserve">
<path fill-rule="evenodd" clip-rule="evenodd" fill="#19CD91" d="M16.5,0C7.4,0,0.1,7.3,0.1,16.4c0,7.2,4.7,13.4,11.2,15.6
	c0.8,0.2,1.1-0.4,1.1-0.8c0-0.4,0-1.7,0-3.1c-4.6,1-5.5-1.9-5.5-1.9c-0.7-1.9-1.8-2.4-1.8-2.4c-1.5-1,0.1-1,0.1-1
	c1.6,0.1,2.5,1.7,2.5,1.7c1.5,2.5,3.8,1.8,4.8,1.4c0.1-1.1,0.6-1.8,1-2.2C9.9,23.2,6,21.8,6,15.5c0-1.8,0.6-3.3,1.7-4.4
	C7.6,10.7,7,9.1,7.9,6.8c0,0,1.4-0.4,4.5,1.7c1.3-0.4,2.7-0.5,4.1-0.6c1.4,0,2.8,0.2,4.1,0.6c3.1-2.1,4.5-1.7,4.5-1.7
	c0.9,2.3,0.3,3.9,0.2,4.3c1.1,1.1,1.7,2.6,1.7,4.4c0,6.3-3.8,7.7-7.5,8.1c0.6,0.5,1.1,1.5,1.1,3c0,2.2,0,4,0,4.5
	c0,0.4,0.3,0.9,1.1,0.8c6.5-2.2,11.2-8.3,11.2-15.6C32.9,7.3,25.6,0,16.5,0 M6.2,23.4c0,0.1-0.2,0.1-0.3,0c-0.1-0.1-0.2-0.2-0.1-0.2
	c0-0.1,0.2-0.1,0.3-0.1C6.2,23.2,6.3,23.3,6.2,23.4 M7,24.1c-0.1,0.1-0.2,0-0.3-0.1c-0.1-0.1-0.1-0.3,0-0.3c0.1-0.1,0.2,0,0.3,0.1
	C7.1,23.9,7.1,24,7,24.1 M7.6,25c-0.1,0.1-0.3,0-0.4-0.1c-0.1-0.1-0.1-0.3,0-0.4c0.1-0.1,0.3,0,0.4,0.1C7.7,24.8,7.7,24.9,7.6,25
	 M8.5,26.1c-0.1,0.1-0.3,0.1-0.4-0.1C8,25.9,7.9,25.7,8,25.6c0.1-0.1,0.3-0.1,0.4,0.1C8.6,25.8,8.6,26,8.5,26.1 M9.7,26.4
	c0,0.1-0.2,0.2-0.4,0.1c-0.2-0.1-0.3-0.2-0.3-0.3c0-0.1,0.2-0.2,0.4-0.1C9.7,26.2,9.8,26.3,9.7,26.4 M11.1,26.6
	c0,0.1-0.2,0.2-0.3,0.2c-0.2,0-0.4-0.1-0.4-0.2c0-0.1,0.2-0.2,0.4-0.3C11,26.3,11.1,26.5,11.1,26.6 M12.5,26.5
	c0,0.1-0.1,0.3-0.3,0.3c-0.2,0-0.4,0-0.4-0.2c0-0.1,0.1-0.3,0.3-0.3C12.3,26.3,12.5,26.4,12.5,26.5"/>
</svg>
