<svg xmlns="http://www.w3.org/2000/svg" width="32" height="32" viewBox="0 0 32 32" enable-background="new 0 0 32 32"><path fill="#16C98D" d="M6.6 27.6c-.6 1.3-1 2.2-4.5 2.3.1-3.4.7-3.7 2-4.4.5-.3 1.2-.6 1.9-1.2l-1.2-1.6c-.6.4-1.1.7-1.6.9C1 24.8 0 25.9 0 30.9v1h1c5.3 0 6.3-1.2 7.3-3.3.2-.5.3-.8.7-1.4l-1.5-1.3c-.4.6-.7 1.2-.9 1.7zM22 5.9c-2.2 0-4 1.8-4 4s1.8 4 4 4 4-1.8 4-4-1.8-4-4-4zm0 6c-1.1 0-2-.9-2-2s.9-2 2-2 2 .9 2 2-.9 2-2 2zm10-11c0-.5-.4-.9-.9-.9 0 0-5.6-.4-11 1.6-2 .7-3.6 1.9-5.1 3.7-1.3 1.5-2.5 4.1-3.6 6.3-.4.9-.8 1.7-1.2 2.3H4.6c-.3 0-.6.1-.7.3l-3.7 4c-.2.3-.3.6-.2 1 .1.3.4.6.7.7l6 1.4c.4.5 1.1 1.3 2.2 2.5l2.3 2.5 1.2 5.1c.1.3.3.6.7.7h.3c.2 0 .5-.1.7-.2l3.7-3.7c.2-.2.3-.5.3-.8v-5.2c.5-.3 1.4-.8 2.2-1.3 2.3-1.3 5.6-2.8 7-4.1 2-1.8 2.7-3 3.4-4.9C32.4 7.4 32 1.2 32 .9zm-3.2 10.3c-.6 1.7-1.2 2.7-2.9 4.1-1.2 1.1-4.6 2.7-6.7 3.8-1.5.9-2.5 1.4-2.9 1.7-.2.2-.4.5-.4.8v5.2l-2.1 2.3-.8-3.7c0-.2-.1-.3-.2-.4-1.8-2-4.6-5.1-4.8-5.4-.1-.2-.3-.3-.5-.3l-4.6-1 2.2-2.4h5.7c.3 0 .7-.2.9-.5.4-.7 1-1.7 1.5-2.9 1-2 2.2-4.6 3.3-5.9 1.3-1.5 2.6-2.5 4.3-3.1C24.5 2.1 28.3 2 30 2c.1 1.8 0 6.1-1.2 9.2z"/></svg>
