<?xml version="1.0" encoding="UTF-8" standalone="no"?>
<svg width="11px" height="13px" viewBox="0 0 11 13" version="1.1" xmlns="http://www.w3.org/2000/svg" xmlns:xlink="http://www.w3.org/1999/xlink" xmlns:sketch="http://www.bohemiancoding.com/sketch/ns">
    <!-- Generator: Sketch 3.3.2 (12043) - http://www.bohemiancoding.com/sketch -->
    <title>lock</title>
    <desc>Created with Sketch.</desc>
    <defs></defs>
    <g id="Page-1" stroke="none" stroke-width="1" fill="none" fill-rule="evenodd" sketch:type="MSPage">
        <g id="contentful_icons" sketch:type="MSArtboardGroup" transform="translate(-1.000000, -451.000000)" fill="#000000">
            <g id="lock" sketch:type="MSLayerGroup" transform="translate(1.000000, 451.000000)">
                <path d="M2.85714626,5.71429253 L2.85714626,4.00000477 C2.85714626,2.7410747 3.8839332,1.71428776 5.14286327,1.71428776 C6.40179335,1.71428776 7.42858028,2.7410747 7.42858028,4.00000477 L7.42858028,5.71429253 L2.85714626,5.71429253 Z M10.2857265,6.57143641 C10.2857265,6.09822156 9.90179752,5.71429253 9.42858267,5.71429253 L9.14286804,5.71429253 L9.14286804,4.00000477 C9.14286804,1.80357358 7.33929446,0 5.14286327,0 C2.94643208,0 1.14285851,1.80357358 1.14285851,4.00000477 L1.14285851,5.71429253 L0.857143879,5.71429253 C0.383929029,5.71429253 0,6.09822156 0,6.57143641 L0,11.7142997 C0,12.1875145 0.383929029,12.5714436 0.857143879,12.5714436 L9.42858267,12.5714436 C9.90179752,12.5714436 10.2857265,12.1875145 10.2857265,11.7142997 L10.2857265,6.57143641 Z" sketch:type="MSShapeGroup"></path>
            </g>
        </g>
    </g>
</svg>