<?xml version="1.0" encoding="utf-8"?>
<!-- Generator: Adobe Illustrator 19.1.0, SVG Export Plug-In . SVG Version: 6.00 Build 0)  -->
<svg version="1.1" id="Layer_1" xmlns="http://www.w3.org/2000/svg" xmlns:xlink="http://www.w3.org/1999/xlink" x="0px" y="0px"
	 viewBox="0 0 23 14" enable-background="new 0 0 23 14" xml:space="preserve">
<path fill-rule="evenodd" clip-rule="evenodd" fill="#546272" d="M20.2,7H18V3.3h-2.2V7h-2.2l3.3,3.8L20.2,7z M5.6,10.7V6.5l2.2,2.7
	L10,6.5v4.3h2.2V3.3H10L7.8,6L5.6,3.3H3.4v7.4H5.6z M21.2,14H1.8c-0.9,0-1.6-0.7-1.6-1.6V1.6C0.2,0.7,0.9,0,1.8,0h19.4
	c0.9,0,1.6,0.7,1.6,1.6v10.7C22.8,13.3,22.1,14,21.2,14z"/>
</svg>
