<?xml version="1.0" encoding="UTF-8" standalone="no"?>
<svg width="72px" height="49px" viewBox="0 0 72 49" version="1.1" xmlns="http://www.w3.org/2000/svg" xmlns:xlink="http://www.w3.org/1999/xlink" xmlns:sketch="http://www.bohemiancoding.com/sketch/ns">
    <!-- Generator: Sketch 3.3.2 (12043) - http://www.bohemiancoding.com/sketch -->
    <title>markdown-widget</title>
    <desc>Created with Sketch.</desc>
    <defs></defs>
    <g id="Page-1" stroke="none" stroke-width="1" fill="none" fill-rule="evenodd" sketch:type="MSPage">
        <g id="contentful_icons" sketch:type="MSArtboardGroup" transform="translate(-200.000000, -651.000000)">
            <g id="markdown-widget" sketch:type="MSLayerGroup" transform="translate(200.000000, 651.000000)">
                <rect id="Rectangle-291" stroke="#9FAAC0" sketch:type="MSShapeGroup" x="0" y="11" width="72" height="38"></rect>
                <rect id="Rectangle-291-Copy-4" stroke="#9FAAC0" fill="#E7EBF0" sketch:type="MSShapeGroup" transform="translate(36.000000, 6.000000) scale(1, -1) translate(-36.000000, -6.000000) " x="0" y="0" width="72" height="12"></rect>
                <path d="M6.733,22.6787746 L5.923,22.6787746 L5.923,21.9227746 L6.832,21.9227746 L6.994,20.8247746 L6.184,20.8247746 L6.184,20.0687746 L7.093,20.0687746 L7.363,18.1877746 L8.155,18.1877746 L7.885,20.0687746 L8.812,20.0687746 L9.082,18.1877746 L9.865,18.1877746 L9.595,20.0687746 L10.405,20.0687746 L10.405,20.8247746 L9.487,20.8247746 L9.334,21.9227746 L10.144,21.9227746 L10.144,22.6787746 L9.244,22.6787746 L8.965,24.5597746 L8.182,24.5597746 L8.452,22.6787746 L7.516,22.6787746 L7.246,24.5597746 L6.463,24.5597746 L6.733,22.6787746 Z M7.777,20.8247746 L7.624,21.9227746 L8.551,21.9227746 L8.704,20.8247746 L7.777,20.8247746 Z M13.78,18.1877746 L16.264,18.1877746 C16.5040012,18.1877746 16.7409988,18.2162743 16.975,18.2732746 C17.2090012,18.3302748 17.4174991,18.4232739 17.6005,18.5522746 C17.7835009,18.6812752 17.9319994,18.8477735 18.046,19.0517746 C18.1600006,19.2557756 18.217,19.5017731 18.217,19.7897746 C18.217,20.1497764 18.115001,20.4467734 17.911,20.6807746 C17.706999,20.9147757 17.4400016,21.082774 17.11,21.1847746 L17.11,21.2027746 C17.512002,21.2567748 17.8419987,21.4127733 18.1,21.6707746 C18.3580013,21.9287758 18.487,22.2737724 18.487,22.7057746 C18.487,23.0537763 18.4180007,23.3462734 18.28,23.5832746 C18.1419993,23.8202757 17.9605011,24.0107738 17.7355,24.1547746 C17.5104989,24.2987753 17.2525015,24.4022742 16.9615,24.4652746 C16.6704985,24.5282749 16.3750015,24.5597746 16.075,24.5597746 L13.78,24.5597746 L13.78,18.1877746 Z M14.914,20.7797746 L15.922,20.7797746 C16.3000019,20.7797746 16.587999,20.7047753 16.786,20.5547746 C16.984001,20.4047738 17.083,20.1917759 17.083,19.9157746 C17.083,19.6277731 16.981001,19.4237752 16.777,19.3037746 C16.572999,19.183774 16.2550022,19.1237746 15.823,19.1237746 L14.914,19.1237746 L14.914,20.7797746 Z M14.914,23.6057746 L15.931,23.6057746 C16.0750007,23.6057746 16.2309992,23.5952747 16.399,23.5742746 C16.5670008,23.5532744 16.7214993,23.5097749 16.8625,23.4437746 C17.0035007,23.3777742 17.1204995,23.2817752 17.2135,23.1557746 C17.3065005,23.0297739 17.353,22.8617756 17.353,22.6517746 C17.353,22.3157729 17.2390011,22.0817752 17.011,21.9497746 C16.7829989,21.8177739 16.4380023,21.7517746 15.976,21.7517746 L14.914,21.7517746 L14.914,23.6057746 Z M19.549,20.2397746 L20.584,20.2397746 L20.584,20.9597746 L20.602,20.9597746 C20.7220006,20.7077733 20.8899989,20.5037753 21.106,20.3477746 C21.3220011,20.1917738 21.5739986,20.1137746 21.862,20.1137746 C21.9040002,20.1137746 21.9489998,20.1152745 21.997,20.1182746 C22.0450002,20.1212746 22.0869998,20.1287745 22.123,20.1407746 L22.123,21.1307746 C22.0509996,21.1127745 21.9895003,21.1007746 21.9385,21.0947746 C21.8874997,21.0887745 21.8380002,21.0857746 21.79,21.0857746 C21.5439988,21.0857746 21.3460007,21.1307741 21.196,21.2207746 C21.0459993,21.310775 20.9290004,21.4187739 20.845,21.5447746 C20.7609996,21.6707752 20.7040001,21.7997739 20.674,21.9317746 C20.6439999,22.0637752 20.629,22.1687742 20.629,22.2467746 L20.629,24.5597746 L19.549,24.5597746 L19.549,20.2397746 Z M25.705,21.9677746 C25.705,21.8297739 25.6855002,21.6977752 25.6465,21.5717746 C25.6074998,21.4457739 25.5460004,21.334775 25.462,21.2387746 C25.3779996,21.1427741 25.2715006,21.0662748 25.1425,21.0092746 C25.0134994,20.9522743 24.8620009,20.9237746 24.688,20.9237746 C24.3639984,20.9237746 24.0895011,21.0212736 23.8645,21.2162746 C23.6394989,21.4112755 23.5150001,21.661773 23.491,21.9677746 L25.705,21.9677746 Z M26.785,22.4537746 L26.785,22.5977746 C26.785,22.6457748 26.782,22.6937743 26.776,22.7417746 L23.491,22.7417746 C23.5030001,22.8977753 23.5434997,23.0402739 23.6125,23.1692746 C23.6815003,23.2982752 23.7729994,23.4092741 23.887,23.5022746 C24.0010006,23.595275 24.1299993,23.6687743 24.274,23.7227746 C24.4180007,23.7767748 24.5679992,23.8037746 24.724,23.8037746 C24.9940014,23.8037746 25.2219991,23.754275 25.408,23.6552746 C25.5940009,23.5562741 25.7469994,23.4197754 25.867,23.2457746 L26.587,23.8217746 C26.1609979,24.3977774 25.5430041,24.6857746 24.733,24.6857746 C24.3969983,24.6857746 24.0880014,24.6332751 23.806,24.5282746 C23.5239986,24.423274 23.279501,24.2747755 23.0725,24.0827746 C22.865499,23.8907736 22.7035006,23.6552759 22.5865,23.3762746 C22.4694994,23.0972732 22.411,22.7807763 22.411,22.4267746 C22.411,22.0787728 22.4694994,21.762276 22.5865,21.4772746 C22.7035006,21.1922731 22.863999,20.9492756 23.068,20.7482746 C23.272001,20.5472735 23.5134986,20.3912751 23.7925,20.2802746 C24.0715014,20.169274 24.3729984,20.1137746 24.697,20.1137746 C24.9970015,20.1137746 25.2744987,20.1632741 25.5295,20.2622746 C25.7845013,20.361275 26.0049991,20.5082736 26.191,20.7032746 C26.3770009,20.8982755 26.5224995,21.1412731 26.6275,21.4322746 C26.7325005,21.723276 26.785,22.0637726 26.785,22.4537746 L26.785,22.4537746 Z M30.457,24.0107746 L30.43,24.0107746 C30.3219995,24.2027755 30.1480012,24.3602739 29.908,24.4832746 C29.6679988,24.6062752 29.3950015,24.6677746 29.089,24.6677746 C28.9149991,24.6677746 28.7335009,24.6452748 28.5445,24.6002746 C28.3554991,24.5552743 28.1815008,24.4802751 28.0225,24.3752746 C27.8634992,24.270274 27.7315005,24.1322754 27.6265,23.9612746 C27.5214995,23.7902737 27.469,23.5787758 27.469,23.3267746 C27.469,23.0027729 27.5604991,22.7447755 27.7435,22.5527746 C27.9265009,22.3607736 28.1619986,22.2137751 28.45,22.1117746 C28.7380014,22.009774 29.0574982,21.9422747 29.4085,21.9092746 C29.7595018,21.8762744 30.1029983,21.8597746 30.439,21.8597746 L30.439,21.7517746 C30.439,21.4817732 30.341501,21.2822752 30.1465,21.1532746 C29.951499,21.0242739 29.7190013,20.9597746 29.449,20.9597746 C29.2209989,20.9597746 29.0020011,21.0077741 28.792,21.1037746 C28.5819989,21.199775 28.4080007,21.3167739 28.27,21.4547746 L27.712,20.7977746 C27.9580012,20.5697734 28.2414984,20.3987751 28.5625,20.2847746 C28.8835016,20.170774 29.2089984,20.1137746 29.539,20.1137746 C29.9230019,20.1137746 30.2394988,20.167774 30.4885,20.2757746 C30.7375012,20.3837751 30.9339993,20.5247737 31.078,20.6987746 C31.2220007,20.8727754 31.3224997,21.0677735 31.3795,21.2837746 C31.4365003,21.4997756 31.465,21.7157735 31.465,21.9317746 L31.465,24.5597746 L30.457,24.5597746 L30.457,24.0107746 Z M30.439,22.5887746 L30.196,22.5887746 C30.0219991,22.5887746 29.839001,22.5962745 29.647,22.6112746 C29.454999,22.6262746 29.2780008,22.6592743 29.116,22.7102746 C28.9539992,22.7612748 28.8190005,22.8332741 28.711,22.9262746 C28.6029995,23.019275 28.549,23.1467737 28.549,23.3087746 C28.549,23.4107751 28.5714998,23.4962742 28.6165,23.5652746 C28.6615002,23.6342749 28.7199996,23.6897743 28.792,23.7317746 C28.8640004,23.7737748 28.9449995,23.8037745 29.035,23.8217746 C29.1250005,23.8397746 29.2149996,23.8487746 29.305,23.8487746 C29.6770019,23.8487746 29.958999,23.7497755 30.151,23.5517746 C30.343001,23.3537736 30.439,23.0837763 30.439,22.7417746 L30.439,22.5887746 Z M32.743,17.7557746 L33.823,17.7557746 L33.823,22.0577746 L33.85,22.0577746 L35.488,20.2397746 L36.874,20.2397746 L35.002,22.1927746 L36.991,24.5597746 L35.56,24.5597746 L33.85,22.3457746 L33.823,22.3457746 L33.823,24.5597746 L32.743,24.5597746 L32.743,17.7557746 Z M37.783,21.1037746 L36.964,21.1037746 L36.964,20.2397746 L37.783,20.2397746 L37.783,19.6007746 C37.783,19.3427733 37.8114997,19.0952757 37.8685,18.8582746 C37.9255003,18.6212734 38.0214993,18.4127755 38.1565,18.2327746 C38.2915007,18.0527737 38.4699989,17.9102751 38.692,17.8052746 C38.9140011,17.700274 39.1929983,17.6477746 39.529,17.6477746 C39.6490006,17.6477746 39.7494996,17.6522745 39.8305,17.6612746 C39.9115004,17.6702746 39.9939996,17.6867744 40.078,17.7107746 L40.006,18.6287746 C39.9459997,18.6107745 39.8815003,18.5957746 39.8125,18.5837746 C39.7434997,18.5717745 39.6700004,18.5657746 39.592,18.5657746 C39.4359992,18.5657746 39.3100005,18.5957743 39.214,18.6557746 C39.1179995,18.7157749 39.0445003,18.7937741 38.9935,18.8897746 C38.9424997,18.985775 38.9080001,19.090774 38.89,19.2047746 C38.8719999,19.3187751 38.863,19.429774 38.863,19.5377746 L38.863,20.2397746 L39.862,20.2397746 L39.862,21.1037746 L38.863,21.1037746 L38.863,24.5597746 L37.783,24.5597746 L37.783,21.1037746 Z M43.21,24.0107746 L43.183,24.0107746 C43.0749995,24.2027755 42.9010012,24.3602739 42.661,24.4832746 C42.4209988,24.6062752 42.1480015,24.6677746 41.842,24.6677746 C41.6679991,24.6677746 41.4865009,24.6452748 41.2975,24.6002746 C41.1084991,24.5552743 40.9345008,24.4802751 40.7755,24.3752746 C40.6164992,24.270274 40.4845005,24.1322754 40.3795,23.9612746 C40.2744995,23.7902737 40.222,23.5787758 40.222,23.3267746 C40.222,23.0027729 40.3134991,22.7447755 40.4965,22.5527746 C40.6795009,22.3607736 40.9149986,22.2137751 41.203,22.1117746 C41.4910014,22.009774 41.8104982,21.9422747 42.1615,21.9092746 C42.5125018,21.8762744 42.8559983,21.8597746 43.192,21.8597746 L43.192,21.7517746 C43.192,21.4817732 43.094501,21.2822752 42.8995,21.1532746 C42.704499,21.0242739 42.4720013,20.9597746 42.202,20.9597746 C41.9739989,20.9597746 41.755001,21.0077741 41.545,21.1037746 C41.3349989,21.199775 41.1610007,21.3167739 41.023,21.4547746 L40.465,20.7977746 C40.7110012,20.5697734 40.9944984,20.3987751 41.3155,20.2847746 C41.6365016,20.170774 41.9619983,20.1137746 42.292,20.1137746 C42.6760019,20.1137746 42.9924988,20.167774 43.2415,20.2757746 C43.4905012,20.3837751 43.6869993,20.5247737 43.831,20.6987746 C43.9750007,20.8727754 44.0754997,21.0677735 44.1325,21.2837746 C44.1895003,21.4997756 44.218,21.7157735 44.218,21.9317746 L44.218,24.5597746 L43.21,24.5597746 L43.21,24.0107746 Z M43.192,22.5887746 L42.949,22.5887746 C42.7749991,22.5887746 42.592001,22.5962745 42.4,22.6112746 C42.207999,22.6262746 42.0310008,22.6592743 41.869,22.7102746 C41.7069992,22.7612748 41.5720005,22.8332741 41.464,22.9262746 C41.3559995,23.019275 41.302,23.1467737 41.302,23.3087746 C41.302,23.4107751 41.3244998,23.4962742 41.3695,23.5652746 C41.4145002,23.6342749 41.4729996,23.6897743 41.545,23.7317746 C41.6170004,23.7737748 41.6979995,23.8037745 41.788,23.8217746 C41.8780004,23.8397746 41.9679995,23.8487746 42.058,23.8487746 C42.4300019,23.8487746 42.711999,23.7497755 42.904,23.5517746 C43.096001,23.3537736 43.192,23.0837763 43.192,22.7417746 L43.192,22.5887746 Z M47.845,21.3917746 C47.7489995,21.2657739 47.6170008,21.156275 47.449,21.0632746 C47.2809992,20.9702741 47.098001,20.9237746 46.9,20.9237746 C46.7259991,20.9237746 46.5670007,20.9597742 46.423,21.0317746 C46.2789993,21.1037749 46.207,21.2237737 46.207,21.3917746 C46.207,21.5597754 46.2864992,21.6782742 46.4455,21.7472746 C46.6045008,21.8162749 46.8369985,21.8867742 47.143,21.9587746 C47.3050008,21.9947747 47.4684992,22.0427743 47.6335,22.1027746 C47.7985008,22.1627749 47.9484993,22.2422741 48.0835,22.3412746 C48.2185007,22.440275 48.3279996,22.5632738 48.412,22.7102746 C48.4960004,22.8572753 48.538,23.0357735 48.538,23.2457746 C48.538,23.5097759 48.4885005,23.7332736 48.3895,23.9162746 C48.2904995,24.0992755 48.1585008,24.247774 47.9935,24.3617746 C47.8284992,24.4757751 47.6365011,24.5582743 47.4175,24.6092746 C47.1984989,24.6602748 46.9720012,24.6857746 46.738,24.6857746 C46.4019983,24.6857746 46.0750016,24.6242752 45.757,24.5012746 C45.4389984,24.3782739 45.1750011,24.2027757 44.965,23.9747746 L45.676,23.3087746 C45.7960006,23.4647753 45.951999,23.593774 46.144,23.6957746 C46.336001,23.7977751 46.5489988,23.8487746 46.783,23.8487746 C46.8610004,23.8487746 46.9404996,23.8397746 47.0215,23.8217746 C47.1025004,23.8037745 47.1774997,23.7752747 47.2465,23.7362746 C47.3155003,23.6972744 47.3709998,23.6447749 47.413,23.5787746 C47.4550002,23.5127742 47.476,23.431775 47.476,23.3357746 C47.476,23.1557737 47.3935008,23.0267749 47.2285,22.9487746 C47.0634992,22.8707742 46.8160017,22.7927749 46.486,22.7147746 C46.3239992,22.6787744 46.1665008,22.6322748 46.0135,22.5752746 C45.8604992,22.5182743 45.7240006,22.443275 45.604,22.3502746 C45.4839994,22.2572741 45.3880004,22.1417752 45.316,22.0037746 C45.2439996,21.8657739 45.208,21.6947756 45.208,21.4907746 C45.208,21.2507734 45.2574995,21.0437754 45.3565,20.8697746 C45.4555005,20.6957737 45.5859992,20.5532751 45.748,20.4422746 C45.9100008,20.331274 46.092999,20.2487748 46.297,20.1947746 C46.501001,20.1407743 46.7109989,20.1137746 46.927,20.1137746 C47.2390016,20.1137746 47.5434985,20.167774 47.8405,20.2757746 C48.1375015,20.3837751 48.3729991,20.5487734 48.547,20.7707746 L47.845,21.3917746 Z M48.853,21.1037746 L48.853,20.2397746 L49.609,20.2397746 L49.609,18.9887746 L50.671,18.9887746 L50.671,20.2397746 L51.751,20.2397746 L51.751,21.1037746 L50.671,21.1037746 L50.671,23.1107746 C50.671,23.3027755 50.7054997,23.4617739 50.7745,23.5877746 C50.8435003,23.7137752 50.9979988,23.7767746 51.238,23.7767746 C51.3100004,23.7767746 51.3879996,23.7692746 51.472,23.7542746 C51.5560004,23.7392745 51.6309997,23.7167747 51.697,23.6867746 L51.733,24.5327746 C51.6369995,24.5687747 51.5230007,24.5972744 51.391,24.6182746 C51.2589993,24.6392747 51.1330006,24.6497746 51.013,24.6497746 C50.7249986,24.6497746 50.4910009,24.609275 50.311,24.5282746 C50.1309991,24.4472741 49.9885005,24.3362753 49.8835,24.1952746 C49.7784995,24.0542738 49.7065002,23.8922755 49.6675,23.7092746 C49.6284998,23.5262736 49.609,23.3297756 49.609,23.1197746 L49.609,21.1037746 L48.853,21.1037746 Z M6.931,38.5597746 L6.319,38.5597746 L6.319,34.3477746 L6.931,34.3477746 L6.931,38.5597746 Z M7.057,32.7277746 C7.057,32.8537752 7.01200045,32.9572741 6.922,33.0382746 C6.83199955,33.119275 6.73300054,33.1597746 6.625,33.1597746 C6.51699946,33.1597746 6.41800045,33.119275 6.328,33.0382746 C6.23799955,32.9572741 6.193,32.8537752 6.193,32.7277746 C6.193,32.6017739 6.23799955,32.498275 6.328,32.4172746 C6.41800045,32.3362741 6.51699946,32.2957746 6.625,32.2957746 C6.73300054,32.2957746 6.83199955,32.3362741 6.922,32.4172746 C7.01200045,32.498275 7.057,32.6017739 7.057,32.7277746 L7.057,32.7277746 Z M10.801,35.3467746 C10.7109996,35.1727737 10.5745009,35.0302751 10.3915,34.9192746 C10.2084991,34.808274 10.0000012,34.7527746 9.766,34.7527746 C9.65799946,34.7527746 9.55000054,34.7647744 9.442,34.7887746 C9.33399946,34.8127747 9.23800042,34.8517743 9.154,34.9057746 C9.06999958,34.9597748 9.00250026,35.0287741 8.9515,35.1127746 C8.90049975,35.196775 8.875,35.295774 8.875,35.4097746 C8.875,35.6077755 8.95599919,35.759274 9.118,35.8642746 C9.28000081,35.9692751 9.53499826,36.0577742 9.883,36.1297746 C10.3810025,36.2317751 10.7484988,36.3802736 10.9855,36.5752746 C11.2225012,36.7702755 11.341,37.0327729 11.341,37.3627746 C11.341,37.6027758 11.2945005,37.8052737 11.2015,37.9702746 C11.1084995,38.1352754 10.9870008,38.270274 10.837,38.3752746 C10.6869993,38.4802751 10.5175009,38.5552743 10.3285,38.6002746 C10.1394991,38.6452748 9.94900096,38.6677746 9.757,38.6677746 C9.43899841,38.6677746 9.1300015,38.6017752 8.83,38.4697746 C8.5299985,38.3377739 8.28400096,38.130776 8.092,37.8487746 L8.578,37.4887746 C8.68600054,37.6747755 8.84499895,37.8307739 9.055,37.9567746 C9.26500105,38.0827752 9.49599874,38.1457746 9.748,38.1457746 C9.88000066,38.1457746 10.0059994,38.1337747 10.126,38.1097746 C10.2460006,38.0857744 10.3509996,38.0437749 10.441,37.9837746 C10.5310005,37.9237743 10.6029997,37.847275 10.657,37.7542746 C10.7110003,37.6612741 10.738,37.5457752 10.738,37.4077746 C10.738,37.1857734 10.6315011,37.0192751 10.4185,36.9082746 C10.2054989,36.797274 9.89800201,36.693775 9.496,36.5977746 C9.36999937,36.5677744 9.23650071,36.5302748 9.0955,36.4852746 C8.9544993,36.4402743 8.8240006,36.374275 8.704,36.2872746 C8.5839994,36.2002741 8.48500039,36.0907752 8.407,35.9587746 C8.32899961,35.8267739 8.29,35.6617755 8.29,35.4637746 C8.29,35.2477735 8.33199958,35.0632753 8.416,34.9102746 C8.50000042,34.7572738 8.6124993,34.631275 8.7535,34.5322746 C8.89450071,34.4332741 9.0549991,34.3597748 9.235,34.3117746 C9.4150009,34.2637743 9.60099904,34.2397746 9.793,34.2397746 C10.0870015,34.2397746 10.3719986,34.3057739 10.648,34.4377746 C10.9240014,34.5697752 11.1309993,34.7557734 11.269,34.9957746 L10.801,35.3467746 Z M15.427,38.5597746 L14.815,38.5597746 L14.815,34.3477746 L15.427,34.3477746 L15.427,38.5597746 Z M15.553,32.7277746 C15.553,32.8537752 15.5080005,32.9572741 15.418,33.0382746 C15.3279996,33.119275 15.2290005,33.1597746 15.121,33.1597746 C15.0129995,33.1597746 14.9140005,33.119275 14.824,33.0382746 C14.7339996,32.9572741 14.689,32.8537752 14.689,32.7277746 C14.689,32.6017739 14.7339996,32.498275 14.824,32.4172746 C14.9140005,32.3362741 15.0129995,32.2957746 15.121,32.2957746 C15.2290005,32.2957746 15.3279996,32.3362741 15.418,32.4172746 C15.5080005,32.498275 15.553,32.6017739 15.553,32.7277746 L15.553,32.7277746 Z M17.659,35.0677746 C17.7790006,34.8217733 17.9634988,34.6222753 18.2125,34.4692746 C18.4615012,34.3162738 18.7389985,34.2397746 19.045,34.2397746 C19.1590006,34.2397746 19.2774994,34.2517744 19.4005,34.2757746 C19.5235006,34.2997747 19.6434994,34.3462742 19.7605,34.4152746 C19.8775006,34.4842749 19.9854995,34.575774 20.0845,34.6897746 C20.1835005,34.8037751 20.2689996,34.9507737 20.341,35.1307746 C20.4850007,34.8427731 20.6814988,34.6222753 20.9305,34.4692746 C21.1795012,34.3162738 21.4749983,34.2397746 21.817,34.2397746 C22.3510027,34.2397746 22.7514987,34.398773 23.0185,34.7167746 C23.2855013,35.0347761 23.419,35.4547719 23.419,35.9767746 L23.419,38.5597746 L22.807,38.5597746 L22.807,36.2287746 C22.807,35.7847723 22.7245008,35.4277759 22.5595,35.1577746 C22.3944992,34.8877732 22.114002,34.7527746 21.718,34.7527746 C21.4959989,34.7527746 21.3085008,34.7977741 21.1555,34.8877746 C21.0024992,34.977775 20.8795005,35.0962738 20.7865,35.2432746 C20.6934995,35.3902753 20.6260002,35.5567736 20.584,35.7427746 C20.5419998,35.9287755 20.521,36.1207736 20.521,36.3187746 L20.521,38.5597746 L19.909,38.5597746 L19.909,36.1027746 C19.909,35.8987735 19.8940001,35.7127754 19.864,35.5447746 C19.8339998,35.3767737 19.7815004,35.2342751 19.7065,35.1172746 C19.6314996,35.000274 19.5280007,34.9102749 19.396,34.8472746 C19.2639993,34.7842742 19.096001,34.7527746 18.892,34.7527746 C18.7479993,34.7527746 18.6025007,34.7857742 18.4555,34.8517746 C18.3084993,34.9177749 18.1765006,35.0182739 18.0595,35.1532746 C17.9424994,35.2882752 17.8480004,35.4592735 17.776,35.6662746 C17.7039996,35.8732756 17.668,36.1177731 17.668,36.3997746 L17.668,38.5597746 L17.056,38.5597746 L17.056,35.2747746 C17.056,35.160774 17.053,35.0137755 17.047,34.8337746 C17.041,34.6537737 17.0320001,34.4917753 17.02,34.3477746 L17.605,34.3477746 C17.6170001,34.4617751 17.626,34.5877739 17.632,34.7257746 C17.638,34.8637752 17.641,34.9777741 17.641,35.0677746 L17.659,35.0677746 Z M25.615,40.7197746 L25.003,40.7197746 L25.003,34.3477746 L25.615,34.3477746 L25.615,35.0767746 L25.642,35.0767746 C25.8160009,34.8007732 26.0484985,34.5922753 26.3395,34.4512746 C26.6305015,34.3102738 26.9259985,34.2397746 27.226,34.2397746 C27.5560016,34.2397746 27.8544987,34.296774 28.1215,34.4107746 C28.3885013,34.5247751 28.6164991,34.6807736 28.8055,34.8787746 C28.9945009,35.0767755 29.1414995,35.3107732 29.2465,35.5807746 C29.3515005,35.8507759 29.404,36.141773 29.404,36.4537746 C29.404,36.7657761 29.3515005,37.0567732 29.2465,37.3267746 C29.1414995,37.5967759 28.9945009,37.8307736 28.8055,38.0287746 C28.6164991,38.2267755 28.3885013,38.382774 28.1215,38.4967746 C27.8544987,38.6107751 27.5560016,38.6677746 27.226,38.6677746 C26.9259985,38.6677746 26.6305015,38.5972753 26.3395,38.4562746 C26.0484985,38.3152738 25.8160009,38.1127759 25.642,37.8487746 L25.615,37.8487746 L25.615,40.7197746 Z M28.756,36.4537746 C28.756,36.2197734 28.7200004,35.9992756 28.648,35.7922746 C28.5759996,35.5852735 28.4725007,35.4052753 28.3375,35.2522746 C28.2024993,35.0992738 28.036001,34.977775 27.838,34.8877746 C27.639999,34.7977741 27.4150013,34.7527746 27.163,34.7527746 C26.9289988,34.7527746 26.713001,34.7962741 26.515,34.8832746 C26.316999,34.970275 26.1460007,35.0902738 26.002,35.2432746 C25.8579993,35.3962753 25.7455004,35.5762735 25.6645,35.7832746 C25.5834996,35.9902756 25.543,36.2137734 25.543,36.4537746 C25.543,36.6937758 25.5834996,36.9172735 25.6645,37.1242746 C25.7455004,37.3312756 25.8579993,37.5097738 26.002,37.6597746 C26.1460007,37.8097753 26.316999,37.9282741 26.515,38.0152746 C26.713001,38.102275 26.9289988,38.1457746 27.163,38.1457746 C27.4150013,38.1457746 27.639999,38.102275 27.838,38.0152746 C28.036001,37.9282741 28.2024993,37.8082753 28.3375,37.6552746 C28.4725007,37.5022738 28.5759996,37.3222756 28.648,37.1152746 C28.7200004,36.9082735 28.756,36.6877757 28.756,36.4537746 L28.756,36.4537746 Z M34.903,36.4537746 C34.903,36.7717761 34.8475006,37.0657732 34.7365,37.3357746 C34.6254994,37.6057759 34.471001,37.8397736 34.273,38.0377746 C34.074999,38.2357755 33.8380014,38.390274 33.562,38.5012746 C33.2859986,38.6122751 32.9830016,38.6677746 32.653,38.6677746 C32.3289984,38.6677746 32.0290014,38.6122751 31.753,38.5012746 C31.4769986,38.390274 31.240001,38.2357755 31.042,38.0377746 C30.843999,37.8397736 30.6895006,37.6057759 30.5785,37.3357746 C30.4674994,37.0657732 30.412,36.7717761 30.412,36.4537746 C30.412,36.135773 30.4674994,35.8417759 30.5785,35.5717746 C30.6895006,35.3017732 30.843999,35.0677755 31.042,34.8697746 C31.240001,34.6717736 31.4769986,34.5172751 31.753,34.4062746 C32.0290014,34.295274 32.3289984,34.2397746 32.653,34.2397746 C32.9830016,34.2397746 33.2859986,34.295274 33.562,34.4062746 C33.8380014,34.5172751 34.074999,34.6717736 34.273,34.8697746 C34.471001,35.0677755 34.6254994,35.3017732 34.7365,35.5717746 C34.8475006,35.8417759 34.903,36.135773 34.903,36.4537746 L34.903,36.4537746 Z M34.255,36.4537746 C34.255,36.2197734 34.2175004,35.9992756 34.1425,35.7922746 C34.0674996,35.5852735 33.9610007,35.4052753 33.823,35.2522746 C33.6849993,35.0992738 33.517001,34.977775 33.319,34.8877746 C33.120999,34.7977741 32.8990012,34.7527746 32.653,34.7527746 C32.4069988,34.7527746 32.186501,34.7977741 31.9915,34.8877746 C31.796499,34.977775 31.6300007,35.0992738 31.492,35.2522746 C31.3539993,35.4052753 31.2475004,35.5852735 31.1725,35.7922746 C31.0974996,35.9992756 31.06,36.2197734 31.06,36.4537746 C31.06,36.6877757 31.0974996,36.9082735 31.1725,37.1152746 C31.2475004,37.3222756 31.3539993,37.5022738 31.492,37.6552746 C31.6300007,37.8082753 31.796499,37.9282741 31.9915,38.0152746 C32.186501,38.102275 32.4069988,38.1457746 32.653,38.1457746 C32.8990012,38.1457746 33.120999,38.102275 33.319,38.0152746 C33.517001,37.9282741 33.6849993,37.8082753 33.823,37.6552746 C33.9610007,37.5022738 34.0674996,37.3222756 34.1425,37.1152746 C34.2175004,36.9082735 34.255,36.6877757 34.255,36.4537746 L34.255,36.4537746 Z M36.217,35.2747746 C36.217,35.160774 36.214,35.0137755 36.208,34.8337746 C36.202,34.6537737 36.1930001,34.4917753 36.181,34.3477746 L36.766,34.3477746 C36.7780001,34.4617751 36.787,34.5877739 36.793,34.7257746 C36.799,34.8637752 36.802,34.9777741 36.802,35.0677746 L36.82,35.0677746 C36.9400006,34.8217733 37.1199988,34.6222753 37.36,34.4692746 C37.6000012,34.3162738 37.8699985,34.2397746 38.17,34.2397746 C38.2480004,34.2397746 38.3184997,34.2427745 38.3815,34.2487746 C38.4445003,34.2547746 38.5089997,34.2667745 38.575,34.2847746 L38.494,34.8607746 C38.4579998,34.8487745 38.3980004,34.8367746 38.314,34.8247746 C38.2299996,34.8127745 38.1460004,34.8067746 38.062,34.8067746 C37.8999992,34.8067746 37.7440007,34.8367743 37.594,34.8967746 C37.4439993,34.9567749 37.3135006,35.0512739 37.2025,35.1802746 C37.0914994,35.3092752 37.0015003,35.4742735 36.9325,35.6752746 C36.8634997,35.8762756 36.829,36.1177731 36.829,36.3997746 L36.829,38.5597746 L36.217,38.5597746 L36.217,35.2747746 Z M41.248,34.8607746 L40.06,34.8607746 L40.06,37.3177746 C40.06,37.4737753 40.0749998,37.602774 40.105,37.7047746 C40.1350001,37.8067751 40.1784997,37.8862743 40.2355,37.9432746 C40.2925003,38.0002748 40.3599996,38.0392744 40.438,38.0602746 C40.5160004,38.0812747 40.5999995,38.0917746 40.69,38.0917746 C40.7740004,38.0917746 40.8624995,38.0797747 40.9555,38.0557746 C41.0485005,38.0317744 41.1369996,37.9987748 41.221,37.9567746 L41.248,38.4877746 C41.1399995,38.5297748 41.0275006,38.5612744 40.9105,38.5822746 C40.7934994,38.6032747 40.6660007,38.6137746 40.528,38.6137746 C40.4139994,38.6137746 40.2940006,38.5987747 40.168,38.5687746 C40.0419994,38.5387744 39.9250005,38.481775 39.817,38.3977746 C39.7089995,38.3137741 39.6205003,38.1997753 39.5515,38.0557746 C39.4824997,37.9117738 39.448,37.7227757 39.448,37.4887746 L39.448,34.8607746 L38.575,34.8607746 L38.575,34.3477746 L39.448,34.3477746 L39.448,33.1597746 L40.06,33.1597746 L40.06,34.3477746 L41.248,34.3477746 L41.248,34.8607746 Z M44.857,35.8417746 C44.857,35.4757727 44.761001,35.2027755 44.569,35.0227746 C44.376999,34.8427737 44.0980018,34.7527746 43.732,34.7527746 C43.4799987,34.7527746 43.2460011,34.7977741 43.03,34.8877746 C42.8139989,34.977775 42.6310007,35.0977738 42.481,35.2477746 L42.139,34.8427746 C42.3130009,34.6687737 42.5424986,34.5247751 42.8275,34.4107746 C43.1125014,34.296774 43.4349982,34.2397746 43.795,34.2397746 C44.0230011,34.2397746 44.235999,34.2712742 44.434,34.3342746 C44.632001,34.3972749 44.8059992,34.4917739 44.956,34.6177746 C45.1060007,34.7437752 45.2229996,34.9027736 45.307,35.0947746 C45.3910004,35.2867755 45.433,35.5117733 45.433,35.7697746 L45.433,37.6147746 C45.433,37.7767754 45.4389999,37.9447737 45.451,38.1187746 C45.4630001,38.2927754 45.4809999,38.439774 45.505,38.5597746 L44.956,38.5597746 C44.9379999,38.457774 44.9230001,38.3467752 44.911,38.2267746 C44.8989999,38.106774 44.893,37.9897751 44.893,37.8757746 L44.875,37.8757746 C44.682999,38.157776 44.4655012,38.3602739 44.2225,38.4832746 C43.9794988,38.6062752 43.6870017,38.6677746 43.345,38.6677746 C43.1829992,38.6677746 43.0165009,38.6452748 42.8455,38.6002746 C42.6744991,38.5552743 42.5185007,38.4817751 42.3775,38.3797746 C42.2364993,38.277774 42.1195005,38.1457754 42.0265,37.9837746 C41.9334995,37.8217737 41.887,37.6237757 41.887,37.3897746 C41.887,37.0657729 41.9694992,36.8092755 42.1345,36.6202746 C42.2995008,36.4312736 42.5199986,36.290275 42.796,36.1972746 C43.0720014,36.1042741 43.3884982,36.0442747 43.7455,36.0172746 C44.1025018,35.9902744 44.4729981,35.9767746 44.857,35.9767746 L44.857,35.8417746 Z M44.677,36.4537746 C44.4249987,36.4537746 44.1715013,36.4642744 43.9165,36.4852746 C43.6614987,36.5062747 43.430501,36.5482742 43.2235,36.6112746 C43.016499,36.6742749 42.8470007,36.765774 42.715,36.8857746 C42.5829993,37.0057752 42.517,37.1647736 42.517,37.3627746 C42.517,37.5127753 42.5454997,37.638774 42.6025,37.7407746 C42.6595003,37.8427751 42.7359995,37.9252742 42.832,37.9882746 C42.9280005,38.0512749 43.0344994,38.0962744 43.1515,38.1232746 C43.2685006,38.1502747 43.3869994,38.1637746 43.507,38.1637746 C43.7230011,38.1637746 43.9149992,38.1262749 44.083,38.0512746 C44.2510008,37.9762742 44.3919994,37.8742752 44.506,37.7452746 C44.6200006,37.6162739 44.7069997,37.4677754 44.767,37.2997746 C44.8270003,37.1317737 44.857,36.9547755 44.857,36.7687746 L44.857,36.4537746 L44.677,36.4537746 Z M47.557,34.3477746 C47.5690001,34.4617751 47.578,34.5877739 47.584,34.7257746 C47.59,34.8637752 47.593,34.9777741 47.593,35.0677746 L47.611,35.0677746 C47.7310006,34.8217733 47.9259986,34.6222753 48.196,34.4692746 C48.4660013,34.3162738 48.7509985,34.2397746 49.051,34.2397746 C49.5850027,34.2397746 49.9854987,34.398773 50.2525,34.7167746 C50.5195013,35.0347761 50.653,35.4547719 50.653,35.9767746 L50.653,38.5597746 L50.041,38.5597746 L50.041,36.2287746 C50.041,36.0067734 50.0230002,35.8057755 49.987,35.6257746 C49.9509998,35.4457737 49.8895004,35.2912752 49.8025,35.1622746 C49.7154996,35.0332739 49.5985007,34.9327749 49.4515,34.8607746 C49.3044993,34.7887742 49.1200011,34.7527746 48.898,34.7527746 C48.7359992,34.7527746 48.5785008,34.7857742 48.4255,34.8517746 C48.2724992,34.9177749 48.1360006,35.0182739 48.016,35.1532746 C47.8959994,35.2882752 47.8000004,35.4592735 47.728,35.6662746 C47.6559996,35.8732756 47.62,36.1177731 47.62,36.3997746 L47.62,38.5597746 L47.008,38.5597746 L47.008,35.2747746 C47.008,35.160774 47.005,35.0137755 46.999,34.8337746 C46.993,34.6537737 46.9840001,34.4917753 46.972,34.3477746 L47.557,34.3477746 Z M54.136,34.8607746 L52.948,34.8607746 L52.948,37.3177746 C52.948,37.4737753 52.9629998,37.602774 52.993,37.7047746 C53.0230001,37.8067751 53.0664997,37.8862743 53.1235,37.9432746 C53.1805003,38.0002748 53.2479996,38.0392744 53.326,38.0602746 C53.4040004,38.0812747 53.4879995,38.0917746 53.578,38.0917746 C53.6620004,38.0917746 53.7504995,38.0797747 53.8435,38.0557746 C53.9365005,38.0317744 54.0249996,37.9987748 54.109,37.9567746 L54.136,38.4877746 C54.0279995,38.5297748 53.9155006,38.5612744 53.7985,38.5822746 C53.6814994,38.6032747 53.5540007,38.6137746 53.416,38.6137746 C53.3019994,38.6137746 53.1820006,38.5987747 53.056,38.5687746 C52.9299994,38.5387744 52.8130005,38.481775 52.705,38.3977746 C52.5969995,38.3137741 52.5085003,38.1997753 52.4395,38.0557746 C52.3704997,37.9117738 52.336,37.7227757 52.336,37.4887746 L52.336,34.8607746 L51.463,34.8607746 L51.463,34.3477746 L52.336,34.3477746 L52.336,33.1597746 L52.948,33.1597746 L52.948,34.3477746 L54.136,34.3477746 L54.136,34.8607746 Z M55.936,38.1277746 C55.936,38.2537752 55.8910004,38.3662741 55.801,38.4652746 C55.7109995,38.564275 55.5940007,38.6137746 55.45,38.6137746 C55.3059993,38.6137746 55.1890004,38.564275 55.099,38.4652746 C55.0089995,38.3662741 54.964,38.2537752 54.964,38.1277746 C54.964,38.0017739 55.0089995,37.889275 55.099,37.7902746 C55.1890004,37.6912741 55.3059993,37.6417746 55.45,37.6417746 C55.5940007,37.6417746 55.7109995,37.6912741 55.801,37.7902746 C55.8910004,37.889275 55.936,38.0017739 55.936,38.1277746 L55.936,38.1277746 Z" id="#-Breakfast" fill="#A3A9B2" sketch:type="MSShapeGroup"></path>
                <path d="M4.2185,3.32 L5.6955,3.32 C5.8821676,3.32 6.07116571,3.33983313 6.2625,3.3795 C6.45383429,3.41916686 6.62533257,3.48683285 6.777,3.5825 C6.92866742,3.67816714 7.05233285,3.80766585 7.148,3.971 C7.24366714,4.13433415 7.2915,4.33966543 7.2915,4.587 C7.2915,4.84833464 7.21216746,5.07583236 7.0535,5.2695 C6.89483254,5.46316763 6.68250133,5.59033303 6.4165,5.651 L6.4165,5.665 C6.73850161,5.70233352 7.0056656,5.8271656 7.218,6.0395 C7.43033439,6.25183439 7.5365,6.53999818 7.5365,6.904 C7.5365,7.10933436 7.49333376,7.29716581 7.407,7.4675 C7.32066623,7.63783418 7.19816746,7.7824994 7.0395,7.9015 C6.88083254,8.02050059 6.68716781,8.11266634 6.4585,8.178 C6.22983219,8.24333366 5.97316809,8.276 5.6885,8.276 L4.2185,8.276 L4.2185,3.32 Z M4.7225,5.49 L5.7375,5.49 C5.85883394,5.49 5.98133271,5.47600014 6.105,5.448 C6.22866728,5.41999986 6.34183282,5.372167 6.4445,5.3045 C6.54716718,5.23683299 6.62999968,5.14700056 6.693,5.035 C6.75600031,4.92299944 6.7875,4.78533415 6.7875,4.622 C6.7875,4.46333254 6.75600031,4.32916721 6.693,4.2195 C6.62999968,4.10983278 6.54483387,4.02000035 6.4375,3.95 C6.33016613,3.87999965 6.20416739,3.82983348 6.0595,3.7995 C5.91483261,3.76916651 5.76083415,3.754 5.5975,3.754 L4.7225,3.754 L4.7225,5.49 Z M4.7225,7.842 L5.6605,7.842 C5.84250091,7.842 6.0163325,7.82450017 6.182,7.7895 C6.34766749,7.75449982 6.49233271,7.69850038 6.616,7.6215 C6.73966728,7.54449961 6.83883296,7.44416728 6.9135,7.3205 C6.98816704,7.19683271 7.0255,7.04866753 7.0255,6.876 C7.0255,6.5493317 6.91466777,6.3055008 6.693,6.1445 C6.47133222,5.98349919 6.15750203,5.903 5.7515,5.903 L4.7225,5.903 L4.7225,7.842 Z M13.9905,8.276 L13.5215,8.276 L14.1025,5 L14.5715,5 L13.9905,8.276 Z M14.8515,3.733 C14.8515,3.8263338 14.8200003,3.90566634 14.757,3.971 C14.6939997,4.03633366 14.6158338,4.069 14.5225,4.069 C14.4338329,4.069 14.3580003,4.04100028 14.295,3.985 C14.2319997,3.92899972 14.2005,3.85200049 14.2005,3.754 C14.2005,3.65599951 14.234333,3.57433366 14.302,3.509 C14.369667,3.44366634 14.4478329,3.411 14.5365,3.411 C14.6251671,3.411 14.699833,3.44016637 14.7605,3.4985 C14.821167,3.55683362 14.8515,3.63499951 14.8515,3.733 L14.8515,3.733 Z M22.7475,8.402 C22.3741648,8.402 22.0685012,8.33783397 21.8305,8.2095 C21.5924988,8.08116602 21.4035007,7.91900098 21.2635,7.723 C21.1234993,7.52699902 21.0266669,7.31350115 20.973,7.0825 C20.9193331,6.85149884 20.8925,6.63333436 20.8925,6.428 L20.8925,3.32 L21.3965,3.32 L21.3965,6.372 C21.3965,6.57266767 21.4198331,6.76749905 21.4665,6.9565 C21.5131669,7.14550094 21.5889995,7.31349926 21.694,7.4605 C21.7990005,7.60750073 21.9378325,7.72649954 22.1105,7.8175 C22.2831675,7.90850045 22.4954987,7.954 22.7475,7.954 C22.9995013,7.954 23.2118325,7.90850045 23.3845,7.8175 C23.5571675,7.72649954 23.6959995,7.60750073 23.801,7.4605 C23.9060005,7.31349926 23.9818331,7.14550094 24.0285,6.9565 C24.0751669,6.76749905 24.0985,6.57266767 24.0985,6.372 L24.0985,3.32 L24.6025,3.32 L24.6025,6.428 C24.6025,6.63333436 24.5756669,6.85149884 24.522,7.0825 C24.4683331,7.31350115 24.3715007,7.52699902 24.2315,7.723 C24.0914993,7.91900098 23.9013345,8.08116602 23.661,8.2095 C23.4206655,8.33783397 23.1161685,8.402 22.7475,8.402 L22.7475,8.402 Z M31.6445,7.828 L33.9545,7.828 L33.9545,8.276 L31.1405,8.276 L31.1405,3.32 L31.6445,3.32 L31.6445,7.828 Z M35.1655,8.276 L34.6895,8.276 L34.6895,5 L35.1655,5 L35.1655,8.276 Z M35.2635,3.74 C35.2635,3.83800049 35.2285003,3.91849968 35.1585,3.9815 C35.0884996,4.04450031 35.0115004,4.076 34.9275,4.076 C34.8434996,4.076 34.7665003,4.04450031 34.6965,3.9815 C34.6264996,3.91849968 34.5915,3.83800049 34.5915,3.74 C34.5915,3.64199951 34.6264996,3.56150031 34.6965,3.4985 C34.7665003,3.43549968 34.8434996,3.404 34.9275,3.404 C35.0115004,3.404 35.0884996,3.43549968 35.1585,3.4985 C35.2285003,3.56150031 35.2635,3.64199951 35.2635,3.74 L35.2635,3.74 Z M36.8595,5 C36.8688334,5.08866711 36.8758333,5.18666613 36.8805,5.294 C36.8851667,5.40133387 36.8875,5.48999965 36.8875,5.56 L36.9015,5.56 C36.9948338,5.36866571 37.1464989,5.21350059 37.3565,5.0945 C37.566501,4.9754994 37.7881655,4.916 38.0215,4.916 C38.4368354,4.916 38.7483323,5.03966543 38.956,5.287 C39.1636677,5.53433457 39.2675,5.86099797 39.2675,6.267 L39.2675,8.276 L38.7915,8.276 L38.7915,6.463 C38.7915,6.29033247 38.7775001,6.1340007 38.7495,5.994 C38.7214999,5.8539993 38.673667,5.73383383 38.606,5.6335 C38.538333,5.53316616 38.4473339,5.45500028 38.333,5.399 C38.2186661,5.34299972 38.0751675,5.315 37.9025,5.315 C37.7764994,5.315 37.6540006,5.34066641 37.535,5.392 C37.4159994,5.44333359 37.3098338,5.52149947 37.2165,5.6265 C37.1231662,5.73150052 37.0485003,5.86449919 36.9925,6.0255 C36.9364997,6.1865008 36.9085,6.37666557 36.9085,6.596 L36.9085,8.276 L36.4325,8.276 L36.4325,5.721 C36.4325,5.63233289 36.4301667,5.5180007 36.4255,5.378 C36.4208333,5.2379993 36.4138334,5.11200056 36.4045,5 L36.8595,5 Z M40.9895,6.477 L41.0105,6.477 L42.5225,5 L43.2085,5 L41.5565,6.498 L43.3765,8.276 L42.6765,8.276 L41.0105,6.554 L40.9895,6.554 L40.9895,8.276 L40.5135,8.276 L40.5135,2.984 L40.9895,2.984 L40.9895,6.477 Z" id="B---i---U---Link" fill="#9FAAC0" sketch:type="MSShapeGroup"></path>
            </g>
        </g>
    </g>
</svg>