<?xml version="1.0" encoding="UTF-8" standalone="no"?>
<svg width="72px" height="41px" viewBox="0 0 72 41" version="1.1" xmlns="http://www.w3.org/2000/svg" xmlns:xlink="http://www.w3.org/1999/xlink" xmlns:sketch="http://www.bohemiancoding.com/sketch/ns">
    <!-- Generator: Sketch 3.3.2 (12043) - http://www.bohemiancoding.com/sketch -->
    <title>media-references-widget</title>
    <desc>Created with Sketch.</desc>
    <defs></defs>
    <g id="Page-1" stroke="none" stroke-width="1" fill="none" fill-rule="evenodd" sketch:type="MSPage">
        <g id="contentful_icons" sketch:type="MSArtboardGroup" transform="translate(-100.000000, -809.000000)">
            <g id="media-references-widget" sketch:type="MSLayerGroup" transform="translate(100.000000, 808.000000)">
                <rect id="Rectangle-291" fill="#E7EBEF" sketch:type="MSShapeGroup" x="0" y="1" width="72" height="19"></rect>
                <rect id="Rectangle-291-Copy-10" fill="#E7EBEF" sketch:type="MSShapeGroup" x="0" y="23" width="72" height="19"></rect>
                <path d="M9.568,13.606 L8.956,13.606 L8.956,9.394 L9.568,9.394 L9.568,13.606 Z M9.703,7.774 C9.703,7.90000063 9.65800045,8.00349959 9.568,8.0845 C9.47799955,8.1655004 9.37900054,8.206 9.271,8.206 C9.16299946,8.206 9.06400045,8.1655004 8.974,8.0845 C8.88399955,8.00349959 8.839,7.90000063 8.839,7.774 C8.839,7.64799937 8.88399955,7.5445004 8.974,7.4635 C9.06400045,7.38249959 9.16299946,7.342 9.271,7.342 C9.37900054,7.342 9.47799955,7.38249959 9.568,7.4635 C9.65800045,7.5445004 9.703,7.64799937 9.703,7.774 L9.703,7.774 Z M8.092,9.907 L7.102,9.907 L7.102,13.606 L6.49,13.606 L6.49,9.907 L5.608,9.907 L5.608,9.394 L6.49,9.394 L6.49,8.242 C6.49,7.7619976 6.60699883,7.38400138 6.841,7.108 C7.07500117,6.83199862 7.43499757,6.694 7.921,6.694 C7.99900039,6.694 8.08299955,6.69849995 8.173,6.7075 C8.26300045,6.71650004 8.34699961,6.73299988 8.425,6.757 L8.317,7.297 C8.25099967,7.27899991 8.18500033,7.26400006 8.119,7.252 C8.05299967,7.23999994 7.97800042,7.234 7.894,7.234 C7.73199919,7.234 7.59850052,7.26099973 7.4935,7.315 C7.38849947,7.36900027 7.30750028,7.4454995 7.2505,7.5445 C7.19349971,7.64350049 7.1545001,7.75899934 7.1335,7.891 C7.11249989,8.02300066 7.102,8.16399925 7.102,8.314 L7.102,9.394 L8.092,9.394 L8.092,9.907 Z M11.836,13.606 L11.224,13.606 L11.224,6.802 L11.836,6.802 L11.836,13.606 Z M16.687,11.176 C16.6689999,10.779998 16.5415012,10.4515013 16.3045,10.1905 C16.0674988,9.92949869 15.7300022,9.799 15.292,9.799 C15.087999,9.799 14.8990009,9.83649962 14.725,9.9115 C14.5509991,9.98650037 14.3980007,10.0884994 14.266,10.2175 C14.1339993,10.3465006 14.0290004,10.4934992 13.951,10.6585 C13.8729996,10.8235008 13.8280001,10.9959991 13.816,11.176 L16.687,11.176 Z M17.308,11.374 L17.308,11.509 C17.308,11.5570002 17.305,11.6079997 17.299,11.662 L13.807,11.662 C13.813,11.872001 13.8549996,12.0699991 13.933,12.256 C14.0110004,12.4420009 14.1189993,12.6039993 14.257,12.742 C14.3950007,12.8800007 14.5569991,12.9894996 14.743,13.0705 C14.9290009,13.1515004 15.1299989,13.192 15.346,13.192 C15.6640016,13.192 15.9384988,13.1185007 16.1695,12.9715 C16.4005012,12.8244993 16.5759994,12.655001 16.696,12.463 L17.155,12.823 C16.9029987,13.1410016 16.6255015,13.3689993 16.3225,13.507 C16.0194985,13.6450007 15.6940017,13.714 15.346,13.714 C15.0339984,13.714 14.7445013,13.6585006 14.4775,13.5475 C14.2104987,13.4364994 13.981001,13.282001 13.789,13.084 C13.596999,12.885999 13.4455006,12.6520013 13.3345,12.382 C13.2234994,12.1119986 13.168,11.8180016 13.168,11.5 C13.168,11.1819984 13.2219995,10.8880013 13.33,10.618 C13.4380005,10.3479986 13.587999,10.114001 13.78,9.916 C13.972001,9.71799901 14.1969987,9.56350055 14.455,9.4525 C14.7130013,9.34149944 14.9919985,9.286 15.292,9.286 C15.6220016,9.286 15.9129987,9.34149944 16.165,9.4525 C16.4170013,9.56350055 16.6269992,9.71349905 16.795,9.9025 C16.9630008,10.0915009 17.0904996,10.3119987 17.1775,10.564 C17.2645004,10.8160013 17.308,11.0859986 17.308,11.374 L17.308,11.374 Z M19.468,13.174 C19.468,13.3000006 19.4230004,13.4124995 19.333,13.5115 C19.2429995,13.6105005 19.1260007,13.66 18.982,13.66 C18.8379993,13.66 18.7210004,13.6105005 18.631,13.5115 C18.5409995,13.4124995 18.496,13.3000006 18.496,13.174 C18.496,13.0479994 18.5409995,12.9355005 18.631,12.8365 C18.7210004,12.7374995 18.8379993,12.688 18.982,12.688 C19.1260007,12.688 19.2429995,12.7374995 19.333,12.8365 C19.4230004,12.9355005 19.468,13.0479994 19.468,13.174 L19.468,13.174 Z M21.574,15.766 L20.962,15.766 L20.962,9.394 L21.574,9.394 L21.574,10.123 L21.601,10.123 C21.7750009,9.84699862 22.0074985,9.6385007 22.2985,9.4975 C22.5895015,9.35649929 22.8849985,9.286 23.185,9.286 C23.5150016,9.286 23.8134987,9.34299943 24.0805,9.457 C24.3475013,9.57100057 24.5754991,9.72699901 24.7645,9.925 C24.9535009,10.123001 25.1004995,10.3569986 25.2055,10.627 C25.3105005,10.8970013 25.363,11.1879984 25.363,11.5 C25.363,11.8120016 25.3105005,12.1029986 25.2055,12.373 C25.1004995,12.6430013 24.9535009,12.876999 24.7645,13.075 C24.5754991,13.273001 24.3475013,13.4289994 24.0805,13.543 C23.8134987,13.6570006 23.5150016,13.714 23.185,13.714 C22.8849985,13.714 22.5895015,13.6435007 22.2985,13.5025 C22.0074985,13.3614993 21.7750009,13.1590013 21.601,12.895 L21.574,12.895 L21.574,15.766 Z M24.715,11.5 C24.715,11.2659988 24.6790004,11.045501 24.607,10.8385 C24.5349996,10.631499 24.4315007,10.4515008 24.2965,10.2985 C24.1614993,10.1454992 23.995001,10.0240004 23.797,9.934 C23.598999,9.84399955 23.3740013,9.799 23.122,9.799 C22.8879988,9.799 22.672001,9.84249956 22.474,9.9295 C22.275999,10.0165004 22.1050007,10.1364992 21.961,10.2895 C21.8169993,10.4425008 21.7045004,10.622499 21.6235,10.8295 C21.5424996,11.036501 21.502,11.2599988 21.502,11.5 C21.502,11.7400012 21.5424996,11.963499 21.6235,12.1705 C21.7045004,12.377501 21.8169993,12.5559992 21.961,12.706 C22.1050007,12.8560007 22.275999,12.9744996 22.474,13.0615 C22.672001,13.1485004 22.8879988,13.192 23.122,13.192 C23.3740013,13.192 23.598999,13.1485004 23.797,13.0615 C23.995001,12.9744996 24.1614993,12.8545008 24.2965,12.7015 C24.4315007,12.5484992 24.5349996,12.368501 24.607,12.1615 C24.6790004,11.954499 24.715,11.7340012 24.715,11.5 L24.715,11.5 Z M30.142,12.895 C29.9619991,13.1650013 29.7280014,13.3689993 29.44,13.507 C29.1519986,13.6450007 28.8550015,13.714 28.549,13.714 C28.2189983,13.714 27.9205013,13.6570006 27.6535,13.543 C27.3864987,13.4289994 27.1585009,13.273001 26.9695,13.075 C26.7804991,12.876999 26.6335005,12.6430013 26.5285,12.373 C26.4234995,12.1029986 26.371,11.8120016 26.371,11.5 C26.371,11.1879984 26.4234995,10.8970013 26.5285,10.627 C26.6335005,10.3569986 26.7804991,10.123001 26.9695,9.925 C27.1585009,9.72699901 27.3864987,9.57100057 27.6535,9.457 C27.9205013,9.34299943 28.2189983,9.286 28.549,9.286 C28.8550015,9.286 29.1519986,9.35649929 29.44,9.4975 C29.7280014,9.6385007 29.9619991,9.84699862 30.142,10.123 L30.16,10.123 L30.16,6.802 L30.772,6.802 L30.772,13.606 L30.16,13.606 L30.16,12.895 L30.142,12.895 Z M27.019,11.5 C27.019,11.7340012 27.0549996,11.954499 27.127,12.1615 C27.1990004,12.368501 27.3024993,12.5484992 27.4375,12.7015 C27.5725007,12.8545008 27.738999,12.9744996 27.937,13.0615 C28.135001,13.1485004 28.3599987,13.192 28.612,13.192 C28.8460012,13.192 29.061999,13.1485004 29.26,13.0615 C29.458001,12.9744996 29.6289993,12.8560007 29.773,12.706 C29.9170007,12.5559992 30.0294996,12.377501 30.1105,12.1705 C30.1915004,11.963499 30.232,11.7400012 30.232,11.5 C30.232,11.2599988 30.1915004,11.036501 30.1105,10.8295 C30.0294996,10.622499 29.9170007,10.4425008 29.773,10.2895 C29.6289993,10.1364992 29.458001,10.0165004 29.26,9.9295 C29.061999,9.84249956 28.8460012,9.799 28.612,9.799 C28.3599987,9.799 28.135001,9.84399955 27.937,9.934 C27.738999,10.0240004 27.5725007,10.1454992 27.4375,10.2985 C27.3024993,10.4515008 27.1990004,10.631499 27.127,10.8385 C27.0549996,11.045501 27.019,11.2659988 27.019,11.5 L27.019,11.5 Z M34.192,9.907 L33.202,9.907 L33.202,13.606 L32.59,13.606 L32.59,9.907 L31.708,9.907 L31.708,9.394 L32.59,9.394 L32.59,8.242 C32.59,7.7619976 32.7069988,7.38400138 32.941,7.108 C33.1750012,6.83199862 33.5349976,6.694 34.021,6.694 C34.0990004,6.694 34.1829995,6.69849995 34.273,6.7075 C34.3630004,6.71650004 34.4469996,6.73299988 34.525,6.757 L34.417,7.297 C34.3509997,7.27899991 34.2850003,7.26400006 34.219,7.252 C34.1529997,7.23999994 34.0780004,7.234 33.994,7.234 C33.8319992,7.234 33.6985005,7.26099973 33.5935,7.315 C33.4884995,7.36900027 33.4075003,7.4454995 33.3505,7.5445 C33.2934997,7.64350049 33.2545001,7.75899934 33.2335,7.891 C33.2124999,8.02300066 33.202,8.16399925 33.202,8.314 L33.202,9.394 L34.192,9.394 L34.192,9.907 Z" id="file.pdf" fill="#A3A9B2" sketch:type="MSShapeGroup"></path>
                <path d="M9.568,35.606 L8.956,35.606 L8.956,31.394 L9.568,31.394 L9.568,35.606 Z M9.703,29.774 C9.703,29.9000006 9.65800045,30.0034996 9.568,30.0845 C9.47799955,30.1655004 9.37900054,30.206 9.271,30.206 C9.16299946,30.206 9.06400045,30.1655004 8.974,30.0845 C8.88399955,30.0034996 8.839,29.9000006 8.839,29.774 C8.839,29.6479994 8.88399955,29.5445004 8.974,29.4635 C9.06400045,29.3824996 9.16299946,29.342 9.271,29.342 C9.37900054,29.342 9.47799955,29.3824996 9.568,29.4635 C9.65800045,29.5445004 9.703,29.6479994 9.703,29.774 L9.703,29.774 Z M8.092,31.907 L7.102,31.907 L7.102,35.606 L6.49,35.606 L6.49,31.907 L5.608,31.907 L5.608,31.394 L6.49,31.394 L6.49,30.242 C6.49,29.7619976 6.60699883,29.3840014 6.841,29.108 C7.07500117,28.8319986 7.43499757,28.694 7.921,28.694 C7.99900039,28.694 8.08299955,28.6985 8.173,28.7075 C8.26300045,28.7165 8.34699961,28.7329999 8.425,28.757 L8.317,29.297 C8.25099967,29.2789999 8.18500033,29.2640001 8.119,29.252 C8.05299967,29.2399999 7.97800042,29.234 7.894,29.234 C7.73199919,29.234 7.59850052,29.2609997 7.4935,29.315 C7.38849947,29.3690003 7.30750028,29.4454995 7.2505,29.5445 C7.19349971,29.6435005 7.1545001,29.7589993 7.1335,29.891 C7.11249989,30.0230007 7.102,30.1639992 7.102,30.314 L7.102,31.394 L8.092,31.394 L8.092,31.907 Z M11.836,35.606 L11.224,35.606 L11.224,28.802 L11.836,28.802 L11.836,35.606 Z M16.687,33.176 C16.6689999,32.779998 16.5415012,32.4515013 16.3045,32.1905 C16.0674988,31.9294987 15.7300022,31.799 15.292,31.799 C15.087999,31.799 14.8990009,31.8364996 14.725,31.9115 C14.5509991,31.9865004 14.3980007,32.0884994 14.266,32.2175 C14.1339993,32.3465006 14.0290004,32.4934992 13.951,32.6585 C13.8729996,32.8235008 13.8280001,32.9959991 13.816,33.176 L16.687,33.176 Z M17.308,33.374 L17.308,33.509 C17.308,33.5570002 17.305,33.6079997 17.299,33.662 L13.807,33.662 C13.813,33.872001 13.8549996,34.0699991 13.933,34.256 C14.0110004,34.4420009 14.1189993,34.6039993 14.257,34.742 C14.3950007,34.8800007 14.5569991,34.9894996 14.743,35.0705 C14.9290009,35.1515004 15.1299989,35.192 15.346,35.192 C15.6640016,35.192 15.9384988,35.1185007 16.1695,34.9715 C16.4005012,34.8244993 16.5759994,34.655001 16.696,34.463 L17.155,34.823 C16.9029987,35.1410016 16.6255015,35.3689993 16.3225,35.507 C16.0194985,35.6450007 15.6940017,35.714 15.346,35.714 C15.0339984,35.714 14.7445013,35.6585006 14.4775,35.5475 C14.2104987,35.4364994 13.981001,35.282001 13.789,35.084 C13.596999,34.885999 13.4455006,34.6520013 13.3345,34.382 C13.2234994,34.1119986 13.168,33.8180016 13.168,33.5 C13.168,33.1819984 13.2219995,32.8880013 13.33,32.618 C13.4380005,32.3479986 13.587999,32.114001 13.78,31.916 C13.972001,31.717999 14.1969987,31.5635006 14.455,31.4525 C14.7130013,31.3414994 14.9919985,31.286 15.292,31.286 C15.6220016,31.286 15.9129987,31.3414994 16.165,31.4525 C16.4170013,31.5635006 16.6269992,31.7134991 16.795,31.9025 C16.9630008,32.0915009 17.0904996,32.3119987 17.1775,32.564 C17.2645004,32.8160013 17.308,33.0859986 17.308,33.374 L17.308,33.374 Z M19.468,35.174 C19.468,35.3000006 19.4230004,35.4124995 19.333,35.5115 C19.2429995,35.6105005 19.1260007,35.66 18.982,35.66 C18.8379993,35.66 18.7210004,35.6105005 18.631,35.5115 C18.5409995,35.4124995 18.496,35.3000006 18.496,35.174 C18.496,35.0479994 18.5409995,34.9355005 18.631,34.8365 C18.7210004,34.7374995 18.8379993,34.688 18.982,34.688 C19.1260007,34.688 19.2429995,34.7374995 19.333,34.8365 C19.4230004,34.9355005 19.468,35.0479994 19.468,35.174 L19.468,35.174 Z M21.574,37.766 L20.962,37.766 L20.962,31.394 L21.574,31.394 L21.574,32.123 L21.601,32.123 C21.7750009,31.8469986 22.0074985,31.6385007 22.2985,31.4975 C22.5895015,31.3564993 22.8849985,31.286 23.185,31.286 C23.5150016,31.286 23.8134987,31.3429994 24.0805,31.457 C24.3475013,31.5710006 24.5754991,31.726999 24.7645,31.925 C24.9535009,32.123001 25.1004995,32.3569986 25.2055,32.627 C25.3105005,32.8970013 25.363,33.1879984 25.363,33.5 C25.363,33.8120016 25.3105005,34.1029986 25.2055,34.373 C25.1004995,34.6430013 24.9535009,34.876999 24.7645,35.075 C24.5754991,35.273001 24.3475013,35.4289994 24.0805,35.543 C23.8134987,35.6570006 23.5150016,35.714 23.185,35.714 C22.8849985,35.714 22.5895015,35.6435007 22.2985,35.5025 C22.0074985,35.3614993 21.7750009,35.1590013 21.601,34.895 L21.574,34.895 L21.574,37.766 Z M24.715,33.5 C24.715,33.2659988 24.6790004,33.045501 24.607,32.8385 C24.5349996,32.631499 24.4315007,32.4515008 24.2965,32.2985 C24.1614993,32.1454992 23.995001,32.0240004 23.797,31.934 C23.598999,31.8439995 23.3740013,31.799 23.122,31.799 C22.8879988,31.799 22.672001,31.8424996 22.474,31.9295 C22.275999,32.0165004 22.1050007,32.1364992 21.961,32.2895 C21.8169993,32.4425008 21.7045004,32.622499 21.6235,32.8295 C21.5424996,33.036501 21.502,33.2599988 21.502,33.5 C21.502,33.7400012 21.5424996,33.963499 21.6235,34.1705 C21.7045004,34.377501 21.8169993,34.5559992 21.961,34.706 C22.1050007,34.8560007 22.275999,34.9744996 22.474,35.0615 C22.672001,35.1485004 22.8879988,35.192 23.122,35.192 C23.3740013,35.192 23.598999,35.1485004 23.797,35.0615 C23.995001,34.9744996 24.1614993,34.8545008 24.2965,34.7015 C24.4315007,34.5484992 24.5349996,34.368501 24.607,34.1615 C24.6790004,33.954499 24.715,33.7340012 24.715,33.5 L24.715,33.5 Z M30.142,34.895 C29.9619991,35.1650013 29.7280014,35.3689993 29.44,35.507 C29.1519986,35.6450007 28.8550015,35.714 28.549,35.714 C28.2189983,35.714 27.9205013,35.6570006 27.6535,35.543 C27.3864987,35.4289994 27.1585009,35.273001 26.9695,35.075 C26.7804991,34.876999 26.6335005,34.6430013 26.5285,34.373 C26.4234995,34.1029986 26.371,33.8120016 26.371,33.5 C26.371,33.1879984 26.4234995,32.8970013 26.5285,32.627 C26.6335005,32.3569986 26.7804991,32.123001 26.9695,31.925 C27.1585009,31.726999 27.3864987,31.5710006 27.6535,31.457 C27.9205013,31.3429994 28.2189983,31.286 28.549,31.286 C28.8550015,31.286 29.1519986,31.3564993 29.44,31.4975 C29.7280014,31.6385007 29.9619991,31.8469986 30.142,32.123 L30.16,32.123 L30.16,28.802 L30.772,28.802 L30.772,35.606 L30.16,35.606 L30.16,34.895 L30.142,34.895 Z M27.019,33.5 C27.019,33.7340012 27.0549996,33.954499 27.127,34.1615 C27.1990004,34.368501 27.3024993,34.5484992 27.4375,34.7015 C27.5725007,34.8545008 27.738999,34.9744996 27.937,35.0615 C28.135001,35.1485004 28.3599987,35.192 28.612,35.192 C28.8460012,35.192 29.061999,35.1485004 29.26,35.0615 C29.458001,34.9744996 29.6289993,34.8560007 29.773,34.706 C29.9170007,34.5559992 30.0294996,34.377501 30.1105,34.1705 C30.1915004,33.963499 30.232,33.7400012 30.232,33.5 C30.232,33.2599988 30.1915004,33.036501 30.1105,32.8295 C30.0294996,32.622499 29.9170007,32.4425008 29.773,32.2895 C29.6289993,32.1364992 29.458001,32.0165004 29.26,31.9295 C29.061999,31.8424996 28.8460012,31.799 28.612,31.799 C28.3599987,31.799 28.135001,31.8439995 27.937,31.934 C27.738999,32.0240004 27.5725007,32.1454992 27.4375,32.2985 C27.3024993,32.4515008 27.1990004,32.631499 27.127,32.8385 C27.0549996,33.045501 27.019,33.2659988 27.019,33.5 L27.019,33.5 Z M34.192,31.907 L33.202,31.907 L33.202,35.606 L32.59,35.606 L32.59,31.907 L31.708,31.907 L31.708,31.394 L32.59,31.394 L32.59,30.242 C32.59,29.7619976 32.7069988,29.3840014 32.941,29.108 C33.1750012,28.8319986 33.5349976,28.694 34.021,28.694 C34.0990004,28.694 34.1829995,28.6985 34.273,28.7075 C34.3630004,28.7165 34.4469996,28.7329999 34.525,28.757 L34.417,29.297 C34.3509997,29.2789999 34.2850003,29.2640001 34.219,29.252 C34.1529997,29.2399999 34.0780004,29.234 33.994,29.234 C33.8319992,29.234 33.6985005,29.2609997 33.5935,29.315 C33.4884995,29.3690003 33.4075003,29.4454995 33.3505,29.5445 C33.2934997,29.6435005 33.2545001,29.7589993 33.2335,29.891 C33.2124999,30.0230007 33.202,30.1639992 33.202,30.314 L33.202,31.394 L34.192,31.394 L34.192,31.907 Z" id="file.pdf" fill="#A3A9B2" sketch:type="MSShapeGroup"></path>
            </g>
        </g>
    </g>
</svg>