<?xml version="1.0" encoding="UTF-8" standalone="no"?>
<svg width="72px" height="38px" viewBox="0 0 72 38" version="1.1" xmlns="http://www.w3.org/2000/svg" xmlns:xlink="http://www.w3.org/1999/xlink" xmlns:sketch="http://www.bohemiancoding.com/sketch/ns">
    <!-- Generator: Sketch 3.3.2 (12043) - http://www.bohemiancoding.com/sketch -->
    <title>multipleline-widget</title>
    <desc>Created with Sketch.</desc>
    <defs></defs>
    <g id="Page-1" stroke="none" stroke-width="1" fill="none" fill-rule="evenodd" sketch:type="MSPage">
        <g id="contentful_icons" sketch:type="MSArtboardGroup" transform="translate(-200.000000, -600.000000)">
            <g id="multipleline-widget" sketch:type="MSLayerGroup" transform="translate(200.000000, 600.000000)">
                <rect id="Rectangle-291" stroke="#9FAAC0" sketch:type="MSShapeGroup" x="0" y="0" width="72" height="38"></rect>
                <path d="M5.94,6.92 L8.05,6.92 C8.316668,6.92 8.5866653,6.94833305 8.86,7.005 C9.1333347,7.06166695 9.37833225,7.15833265 9.595,7.295 C9.81166775,7.43166735 9.98833265,7.6166655 10.125,7.85 C10.2616673,8.0833345 10.33,8.3766649 10.33,8.73 C10.33,9.1033352 10.2166678,9.42833195 9.99,9.705 C9.7633322,9.98166805 9.4600019,10.1633329 9.08,10.25 L9.08,10.27 C9.5400023,10.3233336 9.92166515,10.5016652 10.225,10.805 C10.5283348,11.1083349 10.68,11.5199974 10.68,12.04 C10.68,12.3333348 10.6183339,12.6016655 10.495,12.845 C10.371666,13.0883346 10.1966678,13.2949992 9.97,13.465 C9.7433322,13.6350009 9.4666683,13.7666662 9.14,13.86 C8.8133317,13.9533338 8.4466687,14 8.04,14 L5.94,14 L5.94,6.92 Z M6.66,10.02 L8.11,10.02 C8.2833342,10.02 8.45833245,10.0000002 8.635,9.96 C8.81166755,9.9199998 8.9733326,9.85166715 9.12,9.755 C9.2666674,9.65833285 9.38499955,9.5300008 9.475,9.37 C9.56500045,9.2099992 9.61,9.0133345 9.61,8.78 C9.61,8.5533322 9.56500045,8.36166745 9.475,8.205 C9.38499955,8.04833255 9.2633341,7.9200005 9.11,7.82 C8.9566659,7.7199995 8.7766677,7.64833355 8.57,7.605 C8.3633323,7.56166645 8.1433345,7.54 7.91,7.54 L6.66,7.54 L6.66,10.02 Z M6.66,13.38 L8,13.38 C8.2600013,13.38 8.50833215,13.3550003 8.745,13.305 C8.98166785,13.2549998 9.18833245,13.1750006 9.365,13.065 C9.54166755,12.9549995 9.6833328,12.8116676 9.79,12.635 C9.8966672,12.4583325 9.95,12.2466679 9.95,12 C9.95,11.533331 9.79166825,11.1850012 9.475,10.955 C9.15833175,10.7249989 8.7100029,10.61 8.13,10.61 L6.66,10.61 L6.66,13.38 Z M12.26,10.35 C12.26,10.2233327 12.2566667,10.060001 12.25,9.86 C12.2433333,9.659999 12.2333334,9.4800008 12.22,9.32 L12.87,9.32 C12.8833334,9.4466673 12.8933333,9.5866659 12.9,9.74 C12.9066667,9.8933341 12.91,10.0199995 12.91,10.12 L12.93,10.12 C13.063334,9.8466653 13.263332,9.62500085 13.53,9.455 C13.796668,9.28499915 14.096665,9.2 14.43,9.2 C14.5166671,9.2 14.5949996,9.2033333 14.665,9.21 C14.7350003,9.2166667 14.8066663,9.2299999 14.88,9.25 L14.79,9.89 C14.7499998,9.8766666 14.6833338,9.8633334 14.59,9.85 C14.4966662,9.8366666 14.4033338,9.83 14.31,9.83 C14.1299991,9.83 13.9566675,9.863333 13.79,9.93 C13.6233325,9.996667 13.4783339,10.101666 13.355,10.245 C13.231666,10.3883341 13.131667,10.5716656 13.055,10.795 C12.9783329,11.0183345 12.94,11.2866651 12.94,11.6 L12.94,14 L12.26,14 L12.26,10.35 Z M19.25,11.3 C19.2299999,10.8599978 19.0883346,10.4950015 18.825,10.205 C18.5616653,9.91499855 18.1866691,9.77 17.7,9.77 C17.4733322,9.77 17.2633343,9.81166625 17.07,9.895 C16.8766657,9.97833375 16.7066674,10.091666 16.56,10.235 C16.4133326,10.3783341 16.2966671,10.5416658 16.21,10.725 C16.1233329,10.9083343 16.0733334,11.099999 16.06,11.3 L19.25,11.3 Z M19.94,11.52 L19.94,11.67 C19.94,11.7233336 19.9366667,11.7799997 19.93,11.84 L16.05,11.84 C16.0566667,12.0733345 16.1033329,12.2933323 16.19,12.5 C16.2766671,12.7066677 16.3966659,12.8866659 16.55,13.04 C16.7033341,13.1933341 16.8833323,13.3149996 17.09,13.405 C17.2966677,13.4950005 17.5199988,13.54 17.76,13.54 C18.1133351,13.54 18.418332,13.4583342 18.675,13.295 C18.9316679,13.1316659 19.126666,12.9433344 19.26,12.73 L19.77,13.13 C19.4899986,13.4833351 19.1816683,13.7366659 18.845,13.89 C18.5083316,14.0433341 18.1466686,14.12 17.76,14.12 C17.4133316,14.12 17.0916681,14.058334 16.795,13.935 C16.4983318,13.8116661 16.2433344,13.6400011 16.03,13.42 C15.8166656,13.1999989 15.6483339,12.9400015 15.525,12.64 C15.401666,12.3399985 15.34,12.0133351 15.34,11.66 C15.34,11.3066649 15.3999994,10.9800015 15.52,10.68 C15.6400006,10.3799985 15.8066656,10.1200011 16.02,9.9 C16.2333344,9.6799989 16.4833319,9.50833395 16.77,9.385 C17.0566681,9.26166605 17.366665,9.2 17.7,9.2 C18.0666685,9.2 18.3899986,9.26166605 18.67,9.385 C18.9500014,9.50833395 19.1833324,9.67499895 19.37,9.885 C19.5566676,10.0950011 19.6983328,10.3399986 19.795,10.62 C19.8916671,10.9000014 19.94,11.1999984 19.94,11.52 L19.94,11.52 Z M24.29,10.98 C24.29,10.5733313 24.1833344,10.270001 23.97,10.07 C23.7566656,9.869999 23.4466687,9.77 23.04,9.77 C22.7599986,9.77 22.5000012,9.8199995 22.26,9.92 C22.0199988,10.0200005 21.8166675,10.1533325 21.65,10.32 L21.27,9.87 C21.4633343,9.6766657 21.7183317,9.5166673 22.035,9.39 C22.3516682,9.2633327 22.709998,9.2 23.11,9.2 C23.3633346,9.2 23.5999989,9.23499965 23.82,9.305 C24.0400011,9.37500035 24.2333325,9.4799993 24.4,9.62 C24.5666675,9.7600007 24.6966662,9.9366656 24.79,10.15 C24.8833338,10.3633344 24.93,10.6133319 24.93,10.9 L24.93,12.95 C24.93,13.1300009 24.9366666,13.3166657 24.95,13.51 C24.9633334,13.7033343 24.9833332,13.866666 25.01,14 L24.4,14 C24.3799999,13.8866661 24.3633334,13.763334 24.35,13.63 C24.3366666,13.496666 24.33,13.3666673 24.33,13.24 L24.31,13.24 C24.0966656,13.5533349 23.8550013,13.7783327 23.585,13.915 C23.3149986,14.0516674 22.9900019,14.12 22.61,14.12 C22.4299991,14.12 22.2450009,14.0950003 22.055,14.045 C21.864999,13.9949998 21.6916674,13.9133339 21.535,13.8 C21.3783325,13.6866661 21.2483338,13.5400009 21.145,13.36 C21.0416661,13.1799991 20.99,12.9600013 20.99,12.7 C20.99,12.3399982 21.0816657,12.0550011 21.265,11.845 C21.4483342,11.634999 21.6933318,11.4783339 22,11.375 C22.3066682,11.2716662 22.6583313,11.2050002 23.055,11.175 C23.4516686,11.1449999 23.8633312,11.13 24.29,11.13 L24.29,10.98 Z M24.09,11.66 C23.8099986,11.66 23.5283347,11.6716666 23.245,11.695 C22.9616652,11.7183335 22.7050011,11.7649997 22.475,11.835 C22.2449988,11.9050004 22.0566674,12.006666 21.91,12.14 C21.7633326,12.273334 21.69,12.4499989 21.69,12.67 C21.69,12.8366675 21.7216663,12.9766661 21.785,13.09 C21.8483336,13.2033339 21.9333328,13.2949997 22.04,13.365 C22.1466672,13.4350004 22.2649993,13.4849999 22.395,13.515 C22.5250006,13.5450002 22.656666,13.56 22.79,13.56 C23.0300012,13.56 23.2433324,13.5183338 23.43,13.435 C23.6166676,13.3516663 23.7733327,13.2383341 23.9,13.095 C24.0266673,12.951666 24.123333,12.7866676 24.19,12.6 C24.256667,12.4133324 24.29,12.2166677 24.29,12.01 L24.29,11.66 L24.09,11.66 Z M27.38,11.43 L27.41,11.43 L29.57,9.32 L30.55,9.32 L28.19,11.46 L30.79,14 L29.79,14 L27.41,11.54 L27.38,11.54 L27.38,14 L26.7,14 L26.7,6.44 L27.38,6.44 L27.38,11.43 Z M33.76,9.89 L32.66,9.89 L32.66,14 L31.98,14 L31.98,9.89 L31,9.89 L31,9.32 L31.98,9.32 L31.98,8.04 C31.98,7.506664 32.1099987,7.0866682 32.37,6.78 C32.6300013,6.4733318 33.0299973,6.32 33.57,6.32 C33.6566671,6.32 33.7499995,6.32499995 33.85,6.335 C33.9500005,6.34500005 34.0433329,6.3633332 34.13,6.39 L34.01,6.99 C33.9366663,6.9699999 33.8633337,6.9533334 33.79,6.94 C33.7166663,6.9266666 33.6333338,6.92 33.54,6.92 C33.3599991,6.92 33.2116672,6.9499997 33.095,7.01 C32.9783327,7.0700003 32.8883336,7.15499945 32.825,7.265 C32.7616663,7.37500055 32.7183334,7.5033326 32.695,7.65 C32.6716665,7.7966674 32.66,7.9533325 32.66,8.12 L32.66,9.32 L33.76,9.32 L33.76,9.89 Z M37.68,10.98 C37.68,10.5733313 37.5733344,10.270001 37.36,10.07 C37.1466656,9.869999 36.8366687,9.77 36.43,9.77 C36.1499986,9.77 35.8900012,9.8199995 35.65,9.92 C35.4099988,10.0200005 35.2066675,10.1533325 35.04,10.32 L34.66,9.87 C34.8533343,9.6766657 35.1083317,9.5166673 35.425,9.39 C35.7416682,9.2633327 36.099998,9.2 36.5,9.2 C36.7533346,9.2 36.9899989,9.23499965 37.21,9.305 C37.4300011,9.37500035 37.6233325,9.4799993 37.79,9.62 C37.9566675,9.7600007 38.0866662,9.9366656 38.18,10.15 C38.2733338,10.3633344 38.32,10.6133319 38.32,10.9 L38.32,12.95 C38.32,13.1300009 38.3266666,13.3166657 38.34,13.51 C38.3533334,13.7033343 38.3733332,13.866666 38.4,14 L37.79,14 C37.7699999,13.8866661 37.7533334,13.763334 37.74,13.63 C37.7266666,13.496666 37.72,13.3666673 37.72,13.24 L37.7,13.24 C37.4866656,13.5533349 37.2450013,13.7783327 36.975,13.915 C36.7049986,14.0516674 36.3800019,14.12 36,14.12 C35.8199991,14.12 35.6350009,14.0950003 35.445,14.045 C35.254999,13.9949998 35.0816674,13.9133339 34.925,13.8 C34.7683325,13.6866661 34.6383338,13.5400009 34.535,13.36 C34.4316661,13.1799991 34.38,12.9600013 34.38,12.7 C34.38,12.3399982 34.4716657,12.0550011 34.655,11.845 C34.8383342,11.634999 35.0833318,11.4783339 35.39,11.375 C35.6966682,11.2716662 36.0483313,11.2050002 36.445,11.175 C36.8416686,11.1449999 37.2533312,11.13 37.68,11.13 L37.68,10.98 Z M37.48,11.66 C37.1999986,11.66 36.9183347,11.6716666 36.635,11.695 C36.3516652,11.7183335 36.0950011,11.7649997 35.865,11.835 C35.6349988,11.9050004 35.4466674,12.006666 35.3,12.14 C35.1533326,12.273334 35.08,12.4499989 35.08,12.67 C35.08,12.8366675 35.1116663,12.9766661 35.175,13.09 C35.2383336,13.2033339 35.3233328,13.2949997 35.43,13.365 C35.5366672,13.4350004 35.6549993,13.4849999 35.785,13.515 C35.9150006,13.5450002 36.046666,13.56 36.18,13.56 C36.4200012,13.56 36.6333324,13.5183338 36.82,13.435 C37.0066676,13.3516663 37.1633327,13.2383341 37.29,13.095 C37.4166673,12.951666 37.513333,12.7866676 37.58,12.6 C37.646667,12.4133324 37.68,12.2166677 37.68,12.01 L37.68,11.66 L37.48,11.66 Z M42.56,10.43 C42.4599995,10.2366657 42.3083343,10.078334 42.105,9.955 C41.9016656,9.83166605 41.6700013,9.77 41.41,9.77 C41.2899994,9.77 41.1700006,9.7833332 41.05,9.81 C40.9299994,9.8366668 40.8233338,9.8799997 40.73,9.94 C40.6366662,10.0000003 40.5616669,10.0766662 40.505,10.17 C40.448333,10.2633338 40.42,10.3733327 40.42,10.5 C40.42,10.7200011 40.5099991,10.8883328 40.69,11.005 C40.8700009,11.1216673 41.1533314,11.2199996 41.54,11.3 C42.0933361,11.4133339 42.5016653,11.5783323 42.765,11.795 C43.0283346,12.0116678 43.16,12.3033315 43.16,12.67 C43.16,12.936668 43.1083338,13.1616658 43.005,13.345 C42.9016661,13.5283343 42.7666675,13.6783328 42.6,13.795 C42.4333325,13.9116673 42.245001,13.9949998 42.035,14.045 C41.8249989,14.0950003 41.6133344,14.12 41.4,14.12 C41.0466649,14.12 40.703335,14.0466674 40.37,13.9 C40.036665,13.7533326 39.7633344,13.5233349 39.55,13.21 L40.09,12.81 C40.2100006,13.0166677 40.3866655,13.1899993 40.62,13.33 C40.8533345,13.4700007 41.1099986,13.54 41.39,13.54 C41.5366674,13.54 41.676666,13.5266668 41.81,13.5 C41.943334,13.4733332 42.0599995,13.426667 42.16,13.36 C42.2600005,13.293333 42.3399997,13.2083339 42.4,13.105 C42.4600003,13.0016662 42.49,12.8733341 42.49,12.72 C42.49,12.4733321 42.3716678,12.288334 42.135,12.165 C41.8983321,12.0416661 41.5566689,11.9266672 41.11,11.82 C40.9699993,11.7866665 40.8216674,11.7450003 40.665,11.695 C40.5083325,11.6449998 40.363334,11.5716672 40.23,11.475 C40.096666,11.3783329 39.9866671,11.2566674 39.9,11.11 C39.8133329,10.9633326 39.77,10.7800011 39.77,10.56 C39.77,10.3199988 39.8166662,10.1150009 39.91,9.945 C40.0033338,9.77499915 40.1283325,9.63500055 40.285,9.525 C40.4416674,9.41499945 40.619999,9.3333336 40.82,9.28 C41.020001,9.2266664 41.2266656,9.2 41.44,9.2 C41.7666683,9.2 42.0833318,9.2733326 42.39,9.42 C42.6966682,9.5666674 42.9266659,9.773332 43.08,10.04 L42.56,10.43 Z M46.62,9.89 L45.3,9.89 L45.3,12.62 C45.3,12.7933342 45.3166665,12.9366661 45.35,13.05 C45.3833335,13.1633339 45.4316663,13.2516664 45.495,13.315 C45.5583336,13.3783337 45.6333329,13.4216666 45.72,13.445 C45.8066671,13.4683335 45.8999995,13.48 46,13.48 C46.0933338,13.48 46.1916661,13.4666668 46.295,13.44 C46.3983338,13.4133332 46.4966662,13.3766669 46.59,13.33 L46.62,13.92 C46.4999994,13.9666669 46.3750006,14.0016666 46.245,14.025 C46.1149993,14.0483335 45.9733341,14.06 45.82,14.06 C45.6933327,14.06 45.5600007,14.0433335 45.42,14.01 C45.2799993,13.9766665 45.1500006,13.9133338 45.03,13.82 C44.9099994,13.7266662 44.811667,13.6000008 44.735,13.44 C44.6583329,13.2799992 44.62,13.0700013 44.62,12.81 L44.62,9.89 L43.65,9.89 L43.65,9.32 L44.62,9.32 L44.62,8 L45.3,8 L45.3,9.32 L46.62,9.32 L46.62,9.89 Z M50.87,14 L50.19,14 L50.19,9.32 L50.87,9.32 L50.87,14 Z M51.01,7.52 C51.01,7.6600007 50.9600005,7.77499955 50.86,7.865 C50.7599995,7.95500045 50.6500006,8 50.53,8 C50.4099994,8 50.3000005,7.95500045 50.2,7.865 C50.0999995,7.77499955 50.05,7.6600007 50.05,7.52 C50.05,7.3799993 50.0999995,7.26500045 50.2,7.175 C50.3000005,7.08499955 50.4099994,7.04 50.53,7.04 C50.6500006,7.04 50.7599995,7.08499955 50.86,7.175 C50.9600005,7.26500045 51.01,7.3799993 51.01,7.52 L51.01,7.52 Z M55.17,10.43 C55.0699995,10.2366657 54.9183343,10.078334 54.715,9.955 C54.5116656,9.83166605 54.2800013,9.77 54.02,9.77 C53.8999994,9.77 53.7800006,9.7833332 53.66,9.81 C53.5399994,9.8366668 53.4333338,9.8799997 53.34,9.94 C53.2466662,10.0000003 53.1716669,10.0766662 53.115,10.17 C53.058333,10.2633338 53.03,10.3733327 53.03,10.5 C53.03,10.7200011 53.1199991,10.8883328 53.3,11.005 C53.4800009,11.1216673 53.7633314,11.2199996 54.15,11.3 C54.7033361,11.4133339 55.1116653,11.5783323 55.375,11.795 C55.6383346,12.0116678 55.77,12.3033315 55.77,12.67 C55.77,12.936668 55.7183338,13.1616658 55.615,13.345 C55.5116661,13.5283343 55.3766675,13.6783328 55.21,13.795 C55.0433325,13.9116673 54.855001,13.9949998 54.645,14.045 C54.4349989,14.0950003 54.2233344,14.12 54.01,14.12 C53.6566649,14.12 53.313335,14.0466674 52.98,13.9 C52.646665,13.7533326 52.3733344,13.5233349 52.16,13.21 L52.7,12.81 C52.8200006,13.0166677 52.9966655,13.1899993 53.23,13.33 C53.4633345,13.4700007 53.7199986,13.54 54,13.54 C54.1466674,13.54 54.286666,13.5266668 54.42,13.5 C54.553334,13.4733332 54.6699995,13.426667 54.77,13.36 C54.8700005,13.293333 54.9499997,13.2083339 55.01,13.105 C55.0700003,13.0016662 55.1,12.8733341 55.1,12.72 C55.1,12.4733321 54.9816678,12.288334 54.745,12.165 C54.5083321,12.0416661 54.1666689,11.9266672 53.72,11.82 C53.5799993,11.7866665 53.4316674,11.7450003 53.275,11.695 C53.1183325,11.6449998 52.973334,11.5716672 52.84,11.475 C52.706666,11.3783329 52.5966671,11.2566674 52.51,11.11 C52.4233329,10.9633326 52.38,10.7800011 52.38,10.56 C52.38,10.3199988 52.4266662,10.1150009 52.52,9.945 C52.6133338,9.77499915 52.7383325,9.63500055 52.895,9.525 C53.0516674,9.41499945 53.229999,9.3333336 53.43,9.28 C53.630001,9.2266664 53.8366656,9.2 54.05,9.2 C54.3766683,9.2 54.6933318,9.2733326 55,9.42 C55.3066682,9.5666674 55.5366659,9.773332 55.69,10.04 L55.17,10.43 Z M6.59,28 L5.91,28 L5.91,23.32 L6.59,23.32 L6.59,28 Z M6.73,21.52 C6.73,21.6600007 6.6800005,21.7749996 6.58,21.865 C6.4799995,21.9550005 6.3700006,22 6.25,22 C6.1299994,22 6.0200005,21.9550005 5.92,21.865 C5.8199995,21.7749996 5.77,21.6600007 5.77,21.52 C5.77,21.3799993 5.8199995,21.2650005 5.92,21.175 C6.0200005,21.0849996 6.1299994,21.04 6.25,21.04 C6.3700006,21.04 6.4799995,21.0849996 6.58,21.175 C6.6800005,21.2650005 6.73,21.3799993 6.73,21.52 L6.73,21.52 Z M9.07,24.12 C9.203334,23.8466653 9.40833195,23.6250009 9.685,23.455 C9.96166805,23.2849992 10.2699983,23.2 10.61,23.2 C10.7366673,23.2 10.8683326,23.2133332 11.005,23.24 C11.1416673,23.2666668 11.2749993,23.318333 11.405,23.395 C11.5350006,23.4716671 11.6549994,23.5733327 11.765,23.7 C11.8750005,23.8266673 11.9699996,23.989999 12.05,24.19 C12.2100008,23.8699984 12.4283319,23.6250009 12.705,23.455 C12.981668,23.2849992 13.3099981,23.2 13.69,23.2 C14.2833363,23.2 14.7283318,23.3766649 15.025,23.73 C15.3216681,24.0833351 15.47,24.5499971 15.47,25.13 L15.47,28 L14.79,28 L14.79,25.41 C14.79,24.9166642 14.6983342,24.5200015 14.515,24.22 C14.3316657,23.9199985 14.0200022,23.77 13.58,23.77 C13.3333321,23.77 13.1250008,23.8199995 12.955,23.92 C12.7849991,24.0200005 12.6483338,24.1516659 12.545,24.315 C12.4416661,24.4783342 12.3666669,24.6633323 12.32,24.87 C12.2733331,25.0766677 12.25,25.2899989 12.25,25.51 L12.25,28 L11.57,28 L11.57,25.27 C11.57,25.0433322 11.5533335,24.8366676 11.52,24.65 C11.4866665,24.4633324 11.4283337,24.3050007 11.345,24.175 C11.2616662,24.0449994 11.1466674,23.9450004 11,23.875 C10.8533326,23.8049997 10.6666678,23.77 10.44,23.77 C10.2799992,23.77 10.1183341,23.8066663 9.955,23.88 C9.79166585,23.9533337 9.64500065,24.0649993 9.515,24.215 C9.38499935,24.3650008 9.2800004,24.5549989 9.2,24.785 C9.1199996,25.0150012 9.08,25.2866651 9.08,25.6 L9.08,28 L8.4,28 L8.4,24.35 C8.4,24.2233327 8.3966667,24.060001 8.39,23.86 C8.3833333,23.659999 8.3733334,23.4800008 8.36,23.32 L9.01,23.32 C9.0233334,23.4466673 9.0333333,23.5866659 9.04,23.74 C9.0466667,23.8933341 9.05,24.0199995 9.05,24.12 L9.07,24.12 Z M17.91,30.4 L17.23,30.4 L17.23,23.32 L17.91,23.32 L17.91,24.13 L17.94,24.13 C18.1333343,23.8233318 18.391665,23.5916675 18.715,23.435 C19.0383349,23.2783326 19.366665,23.2 19.7,23.2 C20.0666685,23.2 20.3983318,23.2633327 20.695,23.39 C20.9916681,23.5166673 21.2449989,23.6899989 21.455,23.91 C21.665001,24.1300011 21.8283327,24.3899985 21.945,24.69 C22.0616672,24.9900015 22.12,25.3133316 22.12,25.66 C22.12,26.0066684 22.0616672,26.3299985 21.945,26.63 C21.8283327,26.9300015 21.665001,27.1899989 21.455,27.41 C21.2449989,27.6300011 20.9916681,27.8033327 20.695,27.93 C20.3983318,28.0566673 20.0666685,28.12 19.7,28.12 C19.366665,28.12 19.0383349,28.0416675 18.715,27.885 C18.391665,27.7283326 18.1333343,27.5033348 17.94,27.21 L17.91,27.21 L17.91,30.4 Z M21.4,25.66 C21.4,25.3999987 21.3600004,25.1550012 21.28,24.925 C21.1999996,24.6949989 21.0850007,24.4950009 20.935,24.325 C20.7849992,24.1549992 20.6000011,24.0200005 20.38,23.92 C20.1599989,23.8199995 19.9100014,23.77 19.63,23.77 C19.3699987,23.77 19.1300011,23.8183329 18.91,23.915 C18.6899989,24.0116672 18.5000008,24.1449992 18.34,24.315 C18.1799992,24.4850009 18.0550004,24.6849989 17.965,24.915 C17.8749995,25.1450012 17.83,25.393332 17.83,25.66 C17.83,25.926668 17.8749995,26.1749989 17.965,26.405 C18.0550004,26.6350012 18.1799992,26.8333325 18.34,27 C18.5000008,27.1666675 18.6899989,27.2983329 18.91,27.395 C19.1300011,27.4916672 19.3699987,27.54 19.63,27.54 C19.9100014,27.54 20.1599989,27.4916672 20.38,27.395 C20.6000011,27.2983329 20.7849992,27.1650009 20.935,26.995 C21.0850007,26.8249992 21.1999996,26.6250012 21.28,26.395 C21.3600004,26.1649989 21.4,25.9200013 21.4,25.66 L21.4,25.66 Z M28.23,25.66 C28.23,26.0133351 28.1683339,26.3399985 28.045,26.64 C27.921666,26.9400015 27.7500011,27.1999989 27.53,27.42 C27.3099989,27.6400011 27.0466682,27.8116661 26.74,27.935 C26.4333318,28.058334 26.0966685,28.12 25.73,28.12 C25.3699982,28.12 25.0366682,28.058334 24.73,27.935 C24.4233318,27.8116661 24.1600011,27.6400011 23.94,27.42 C23.7199989,27.1999989 23.5483339,26.9400015 23.425,26.64 C23.301666,26.3399985 23.24,26.0133351 23.24,25.66 C23.24,25.3066649 23.301666,24.9800015 23.425,24.68 C23.5483339,24.3799985 23.7199989,24.1200011 23.94,23.9 C24.1600011,23.6799989 24.4233318,23.508334 24.73,23.385 C25.0366682,23.2616661 25.3699982,23.2 25.73,23.2 C26.0966685,23.2 26.4333318,23.2616661 26.74,23.385 C27.0466682,23.508334 27.3099989,23.6799989 27.53,23.9 C27.7500011,24.1200011 27.921666,24.3799985 28.045,24.68 C28.1683339,24.9800015 28.23,25.3066649 28.23,25.66 L28.23,25.66 Z M27.51,25.66 C27.51,25.3999987 27.4683337,25.1550012 27.385,24.925 C27.3016662,24.6949989 27.1833341,24.4950009 27.03,24.325 C26.8766659,24.1549992 26.6900011,24.0200005 26.47,23.92 C26.2499989,23.8199995 26.0033347,23.77 25.73,23.77 C25.4566653,23.77 25.2116677,23.8199995 24.995,23.92 C24.7783322,24.0200005 24.5933341,24.1549992 24.44,24.325 C24.2866659,24.4950009 24.1683337,24.6949989 24.085,24.925 C24.0016662,25.1550012 23.96,25.3999987 23.96,25.66 C23.96,25.9200013 24.0016662,26.1649989 24.085,26.395 C24.1683337,26.6250012 24.2866659,26.8249992 24.44,26.995 C24.5933341,27.1650009 24.7783322,27.2983329 24.995,27.395 C25.2116677,27.4916672 25.4566653,27.54 25.73,27.54 C26.0033347,27.54 26.2499989,27.4916672 26.47,27.395 C26.6900011,27.2983329 26.8766659,27.1650009 27.03,26.995 C27.1833341,26.8249992 27.3016662,26.6250012 27.385,26.395 C27.4683337,26.1649989 27.51,25.9200013 27.51,25.66 L27.51,25.66 Z M29.69,24.35 C29.69,24.2233327 29.6866667,24.060001 29.68,23.86 C29.6733333,23.659999 29.6633334,23.4800008 29.65,23.32 L30.3,23.32 C30.3133334,23.4466673 30.3233333,23.5866659 30.33,23.74 C30.3366667,23.8933341 30.34,24.0199995 30.34,24.12 L30.36,24.12 C30.493334,23.8466653 30.693332,23.6250009 30.96,23.455 C31.226668,23.2849992 31.526665,23.2 31.86,23.2 C31.9466671,23.2 32.0249996,23.2033333 32.095,23.21 C32.1650003,23.2166667 32.2366663,23.2299999 32.31,23.25 L32.22,23.89 C32.1799998,23.8766666 32.1133338,23.8633334 32.02,23.85 C31.9266662,23.8366666 31.8333338,23.83 31.74,23.83 C31.5599991,23.83 31.3866675,23.863333 31.22,23.93 C31.0533325,23.996667 30.9083339,24.101666 30.785,24.245 C30.661666,24.3883341 30.561667,24.5716656 30.485,24.795 C30.4083329,25.0183345 30.37,25.2866651 30.37,25.6 L30.37,28 L29.69,28 L29.69,24.35 Z M35.28,23.89 L33.96,23.89 L33.96,26.62 C33.96,26.7933342 33.9766665,26.9366661 34.01,27.05 C34.0433335,27.1633339 34.0916663,27.2516664 34.155,27.315 C34.2183336,27.3783337 34.2933329,27.4216666 34.38,27.445 C34.4666671,27.4683335 34.5599995,27.48 34.66,27.48 C34.7533338,27.48 34.8516661,27.4666668 34.955,27.44 C35.0583338,27.4133332 35.1566662,27.3766669 35.25,27.33 L35.28,27.92 C35.1599994,27.9666669 35.0350006,28.0016666 34.905,28.025 C34.7749993,28.0483335 34.6333341,28.06 34.48,28.06 C34.3533327,28.06 34.2200007,28.0433335 34.08,28.01 C33.9399993,27.9766665 33.8100006,27.9133338 33.69,27.82 C33.5699994,27.7266662 33.471667,27.6000008 33.395,27.44 C33.3183329,27.2799992 33.28,27.0700013 33.28,26.81 L33.28,23.89 L32.31,23.89 L32.31,23.32 L33.28,23.32 L33.28,22 L33.96,22 L33.96,23.32 L35.28,23.32 L35.28,23.89 Z M39.29,24.98 C39.29,24.5733313 39.1833344,24.270001 38.97,24.07 C38.7566656,23.869999 38.4466687,23.77 38.04,23.77 C37.7599986,23.77 37.5000012,23.8199995 37.26,23.92 C37.0199988,24.0200005 36.8166675,24.1533325 36.65,24.32 L36.27,23.87 C36.4633343,23.6766657 36.7183317,23.5166673 37.035,23.39 C37.3516682,23.2633327 37.709998,23.2 38.11,23.2 C38.3633346,23.2 38.5999989,23.2349997 38.82,23.305 C39.0400011,23.3750004 39.2333325,23.4799993 39.4,23.62 C39.5666675,23.7600007 39.6966662,23.9366656 39.79,24.15 C39.8833338,24.3633344 39.93,24.6133319 39.93,24.9 L39.93,26.95 C39.93,27.1300009 39.9366666,27.3166657 39.95,27.51 C39.9633334,27.7033343 39.9833332,27.866666 40.01,28 L39.4,28 C39.3799999,27.8866661 39.3633334,27.763334 39.35,27.63 C39.3366666,27.496666 39.33,27.3666673 39.33,27.24 L39.31,27.24 C39.0966656,27.5533349 38.8550013,27.7783327 38.585,27.915 C38.3149986,28.0516674 37.9900019,28.12 37.61,28.12 C37.4299991,28.12 37.2450009,28.0950003 37.055,28.045 C36.864999,27.9949998 36.6916674,27.9133339 36.535,27.8 C36.3783325,27.6866661 36.2483338,27.5400009 36.145,27.36 C36.0416661,27.1799991 35.99,26.9600013 35.99,26.7 C35.99,26.3399982 36.0816657,26.0550011 36.265,25.845 C36.4483342,25.634999 36.6933318,25.4783339 37,25.375 C37.3066682,25.2716662 37.6583313,25.2050002 38.055,25.175 C38.4516686,25.1449999 38.8633312,25.13 39.29,25.13 L39.29,24.98 Z M39.09,25.66 C38.8099986,25.66 38.5283347,25.6716666 38.245,25.695 C37.9616652,25.7183335 37.7050011,25.7649997 37.475,25.835 C37.2449988,25.9050004 37.0566674,26.006666 36.91,26.14 C36.7633326,26.273334 36.69,26.4499989 36.69,26.67 C36.69,26.8366675 36.7216663,26.9766661 36.785,27.09 C36.8483336,27.2033339 36.9333328,27.2949997 37.04,27.365 C37.1466672,27.4350004 37.2649993,27.4849999 37.395,27.515 C37.5250006,27.5450002 37.656666,27.56 37.79,27.56 C38.0300012,27.56 38.2433324,27.5183338 38.43,27.435 C38.6166676,27.3516663 38.7733327,27.2383341 38.9,27.095 C39.0266673,26.951666 39.123333,26.7866676 39.19,26.6 C39.256667,26.4133324 39.29,26.2166677 39.29,26.01 L39.29,25.66 L39.09,25.66 Z M42.29,23.32 C42.3033334,23.4466673 42.3133333,23.5866659 42.32,23.74 C42.3266667,23.8933341 42.33,24.0199995 42.33,24.12 L42.35,24.12 C42.483334,23.8466653 42.6999985,23.6250009 43,23.455 C43.3000015,23.2849992 43.616665,23.2 43.95,23.2 C44.5433363,23.2 44.9883318,23.3766649 45.285,23.73 C45.5816681,24.0833351 45.73,24.5499971 45.73,25.13 L45.73,28 L45.05,28 L45.05,25.41 C45.05,25.1633321 45.0300002,24.940001 44.99,24.74 C44.9499998,24.539999 44.8816671,24.3683341 44.785,24.225 C44.6883328,24.081666 44.5583341,23.9700004 44.395,23.89 C44.2316658,23.8099996 44.0266679,23.77 43.78,23.77 C43.5999991,23.77 43.4250008,23.8066663 43.255,23.88 C43.0849991,23.9533337 42.933334,24.0649993 42.8,24.215 C42.666666,24.3650008 42.5600004,24.5549989 42.48,24.785 C42.3999996,25.0150012 42.36,25.2866651 42.36,25.6 L42.36,28 L41.68,28 L41.68,24.35 C41.68,24.2233327 41.6766667,24.060001 41.67,23.86 C41.6633333,23.659999 41.6533334,23.4800008 41.64,23.32 L42.29,23.32 Z M49.6,23.89 L48.28,23.89 L48.28,26.62 C48.28,26.7933342 48.2966665,26.9366661 48.33,27.05 C48.3633335,27.1633339 48.4116663,27.2516664 48.475,27.315 C48.5383336,27.3783337 48.6133329,27.4216666 48.7,27.445 C48.7866671,27.4683335 48.8799995,27.48 48.98,27.48 C49.0733338,27.48 49.1716661,27.4666668 49.275,27.44 C49.3783338,27.4133332 49.4766662,27.3766669 49.57,27.33 L49.6,27.92 C49.4799994,27.9666669 49.3550006,28.0016666 49.225,28.025 C49.0949993,28.0483335 48.9533341,28.06 48.8,28.06 C48.6733327,28.06 48.5400007,28.0433335 48.4,28.01 C48.2599993,27.9766665 48.1300006,27.9133338 48.01,27.82 C47.8899994,27.7266662 47.791667,27.6000008 47.715,27.44 C47.6383329,27.2799992 47.6,27.0700013 47.6,26.81 L47.6,23.89 L46.63,23.89 L46.63,23.32 L47.6,23.32 L47.6,22 L48.28,22 L48.28,23.32 L49.6,23.32 L49.6,23.89 Z M51.6,27.52 C51.6,27.6600007 51.5500005,27.7849995 51.45,27.895 C51.3499995,28.0050006 51.2200008,28.06 51.06,28.06 C50.8999992,28.06 50.7700005,28.0050006 50.67,27.895 C50.5699995,27.7849995 50.52,27.6600007 50.52,27.52 C50.52,27.3799993 50.5699995,27.2550006 50.67,27.145 C50.7700005,27.0349995 50.8999992,26.98 51.06,26.98 C51.2200008,26.98 51.3499995,27.0349995 51.45,27.145 C51.5500005,27.2550006 51.6,27.3799993 51.6,27.52 L51.6,27.52 Z" id="Breakfast-is" fill="#A3A9B2" sketch:type="MSShapeGroup"></path>
            </g>
        </g>
    </g>
</svg>