<?xml version="1.0" encoding="utf-8"?>
<!-- Generator: Adobe Illustrator 21.1.0, SVG Export Plug-In . SVG Version: 6.00 Build 0)  -->
<svg version="1.1" id="Layer_1" xmlns="http://www.w3.org/2000/svg" xmlns:xlink="http://www.w3.org/1999/xlink" x="0px" y="0px"
	 width="24px" height="21px" viewBox="0 0 24 21" enable-background="new 0 0 24 21" xml:space="preserve" fill="#FFFFFF">
<path d="M18.5,21h-18C0.2,21,0,20.8,0,20.5c0-0.1,0-3.4,0.5-4.9c0.4-1.2,2.7-2.1,5.3-3c0.4-0.1,0.8-0.3,1.2-0.4v-1.8
	C6.2,9.9,5,8.9,5,7V5c0,0,0-0.1-0.1-0.2C4.7,4,4.4,2.6,5.1,1.8c0.3-0.3,0.7-0.4,1.2-0.4C6.9,0.4,8.6,0,9.9,0c1.5,0,3.5,0.5,3.8,1.8
	C14,2.9,13.5,4,13.2,4.7c0.4,0.3,0.6,0.7,0.6,1.3c0,0.7-0.3,1.2-0.8,1.4c-0.1,1.7-0.7,2.5-1,2.8v1.9c0.5,0.2,0.9,0.3,1.3,0.5
	c2.7,1,4.8,1.7,5.2,3c0.5,1.5,0.5,4.8,0.5,4.9C19,20.8,18.8,21,18.5,21z M1,20h17c0-1-0.1-3.1-0.4-4.1c-0.3-0.8-2.4-1.6-4.6-2.3
	c-0.5-0.2-1.1-0.4-1.7-0.6c-0.2-0.1-0.3-0.3-0.3-0.5V10c0-0.2,0.1-0.3,0.2-0.4l0,0C11.2,9.5,12,9,12,7c0-0.3,0.2-0.5,0.5-0.5
	c0.2,0,0.2-0.3,0.2-0.5s-0.1-0.5-0.2-0.5C12.2,5.5,12,5.2,12,5c0-0.2,0.1-0.3,0.2-0.6c0.3-0.5,0.7-1.5,0.5-2.3c-0.1-0.6-1.4-1-2.8-1
	s-2.7,0.5-2.8,1C7,2.3,6.8,2.5,6.5,2.5C6.3,2.4,6,2.4,5.8,2.5c-0.3,0.3,0,1.6,0.1,2C6,4.7,6,4.8,6,5v2c0,2,1.6,2.5,1.7,2.5
	C7.9,9.6,8,9.7,8,10v2.5c0,0.2-0.1,0.4-0.3,0.5c-0.5,0.2-1,0.4-1.6,0.6c-2,0.7-4.4,1.6-4.7,2.4C1.1,16.9,1,19,1,20z"/>
<path d="M23.5,21H21c-0.3,0-0.5-0.2-0.5-0.5S20.7,20,21,20h2c0-1-0.1-3.1-0.4-4.1c-0.3-0.8-2.4-2-6.2-3.4C16.1,12.4,16,12.2,16,12
	v-1.5c0-0.2,0.1-0.3,0.2-0.4l0,0c0,0,0.8-0.6,0.8-2.6C17,7.2,17.2,7,17.5,7c0,0,0.1,0,0.1-0.1c0.1-0.1,0.1-0.3,0.1-0.4
	c0-0.2-0.1-0.5-0.2-0.5C17.2,6,17,5.7,17,5.5c0-0.2,0.1-0.3,0.2-0.6c0.3-0.6,0.8-1.6,0.6-2.4c-0.1-0.3-0.6-0.8-1.3-1.1
	c-0.4-0.2-1-0.3-1.6,0.1c-0.2,0.2-0.5,0.1-0.7-0.1s-0.1-0.5,0.1-0.7C15.1,0.1,16,0,16.9,0.4c0.9,0.4,1.7,1.1,1.9,1.8
	c0.3,1.1-0.3,2.3-0.6,3c0.4,0.3,0.6,0.7,0.6,1.3c0,0.4-0.1,0.7-0.3,1c-0.1,0.2-0.3,0.3-0.5,0.4c-0.1,1.7-0.7,2.5-1,2.8v0.9
	c4.2,1.6,6.1,2.8,6.5,3.9c0.5,1.5,0.5,4.8,0.5,4.9C24,20.8,23.8,21,23.5,21z"/>
</svg>
