<?xml version="1.0" encoding="utf-8"?>
<!-- Generator: Adobe Illustrator 21.1.0, SVG Export Plug-In . SVG Version: 6.00 Build 0)  -->
<svg version="1.1" id="Layer_1" xmlns="http://www.w3.org/2000/svg" xmlns:xlink="http://www.w3.org/1999/xlink" x="0px" y="0px"
	 width="24px" height="22px" viewBox="0 0 24 22" enable-background="new 0 0 24 22" xml:space="preserve" fill="#FFFFFF">
<path d="M6,17c-3.3,0-6-2.7-6-6s2.7-6,6-6c2.5,0,4.8,1.6,5.7,4H19c0.1,0,0.3,0.1,0.4,0.1l1.5,1.5c0.2,0.2,0.2,0.5,0,0.7l-1.5,1.5
	C19.3,12.9,19.1,13,19,13h-1.3l-0.9,0.9c-0.2,0.2-0.5,0.2-0.7,0L15.3,13h-0.6l-0.9,0.9c-0.2,0.2-0.5,0.2-0.7,0L12.3,13h-0.6
	C10.8,15.4,8.5,17,6,17z M6,6c-2.8,0-5,2.2-5,5s2.2,5,5,5c2.2,0,4.2-1.5,4.8-3.6c0.1-0.2,0.3-0.4,0.5-0.4h1.2c0.1,0,0.3,0.1,0.4,0.1
	l0.6,0.6l0.6-0.6c0.1-0.1,0.2-0.1,0.4-0.1h1c0.1,0,0.3,0.1,0.4,0.1l0.6,0.6l0.6-0.6c0.1-0.1,0.2-0.1,0.4-0.1h1.3l1-1l-1-1h-7.5
	c-0.2,0-0.4-0.1-0.5-0.4C10.2,7.5,8.2,6,6,6z"/>
<path d="M4,13c-1.1,0-2-0.9-2-2c0-1.1,0.9-2,2-2s2,0.9,2,2C6,12.1,5.1,13,4,13z M4,10c-0.6,0-1,0.4-1,1c0,0.6,0.4,1,1,1s1-0.4,1-1
	C5,10.4,4.6,10,4,10z"/>
<path d="M23.5,22h-13c-0.3,0-0.5-0.2-0.5-0.5v-3c0-0.3,0.2-0.5,0.5-0.5s0.5,0.2,0.5,0.5V21h12V1H11v3c0,0.3-0.2,0.5-0.5,0.5
	S10,4.3,10,4V0.5C10,0.2,10.2,0,10.5,0h13C23.8,0,24,0.2,24,0.5v21C24,21.8,23.8,22,23.5,22z"/>
</svg>
