<?xml version="1.0" encoding="utf-8"?>
<!-- Generator: Adobe Illustrator 21.1.0, SVG Export Plug-In . SVG Version: 6.00 Build 0)  -->
<svg version="1.1" id="Layer_1" xmlns="http://www.w3.org/2000/svg" xmlns:xlink="http://www.w3.org/1999/xlink" x="0px" y="0px"
	 width="24px" height="24px" viewBox="0 0 24 24" enable-background="new 0 0 24 24" xml:space="preserve" fill="#FFFFFF">
<path d="M23.5,24h-23C0.2,24,0,23.8,0,23.5S0.2,23,0.5,23h23c0.3,0,0.5,0.2,0.5,0.5S23.8,24,23.5,24z"/>
<path d="M21.5,24h-19C2.2,24,2,23.8,2,23.5v-19C2,4.2,2.2,4,2.5,4h19C21.8,4,22,4.2,22,4.5v19C22,23.8,21.8,24,21.5,24z M3,23h18V5
	H3V23z"/>
<path d="M23.5,5h-23C0.2,5,0,4.8,0,4.5S0.2,4,0.5,4h23C23.8,4,24,4.2,24,4.5S23.8,5,23.5,5z"/>
<path d="M20.5,5h-17C3.2,5,3,4.8,3,4.5v-2C3,2.2,3.2,2,3.5,2h17C20.8,2,21,2.2,21,2.5v2C21,4.8,20.8,5,20.5,5z M4,4h16V3H4V4z"/>
<path d="M14.5,3h-5C9.2,3,9,2.8,9,2.5v-2C9,0.2,9.2,0,9.5,0h5C14.8,0,15,0.2,15,0.5v2C15,2.8,14.8,3,14.5,3z M10,2h4V1h-4V2z"/>
<path d="M13.5,24h-3c-0.3,0-0.5-0.2-0.5-0.5v-4c0-0.3,0.2-0.5,0.5-0.5h3c0.3,0,0.5,0.2,0.5,0.5v4C14,23.8,13.8,24,13.5,24z M11,23h2
	v-3h-2V23z"/>
<path d="M8.5,21h-3C5.2,21,5,20.8,5,20.5S5.2,20,5.5,20h3C8.8,20,9,20.2,9,20.5S8.8,21,8.5,21z"/>
<path d="M18.5,21h-3c-0.3,0-0.5-0.2-0.5-0.5s0.2-0.5,0.5-0.5h3c0.3,0,0.5,0.2,0.5,0.5S18.8,21,18.5,21z"/>
<path d="M10.5,17h-5C5.2,17,5,16.8,5,16.5S5.2,16,5.5,16h5c0.3,0,0.5,0.2,0.5,0.5S10.8,17,10.5,17z"/>
<path d="M18.5,17h-5c-0.3,0-0.5-0.2-0.5-0.5s0.2-0.5,0.5-0.5h5c0.3,0,0.5,0.2,0.5,0.5S18.8,17,18.5,17z"/>
<path d="M10.5,14h-5C5.2,14,5,13.8,5,13.5S5.2,13,5.5,13h5c0.3,0,0.5,0.2,0.5,0.5S10.8,14,10.5,14z"/>
<path d="M18.5,14h-5c-0.3,0-0.5-0.2-0.5-0.5s0.2-0.5,0.5-0.5h5c0.3,0,0.5,0.2,0.5,0.5S18.8,14,18.5,14z"/>
<path d="M10.5,11h-5C5.2,11,5,10.8,5,10.5S5.2,10,5.5,10h5c0.3,0,0.5,0.2,0.5,0.5S10.8,11,10.5,11z"/>
<path d="M18.5,11h-5c-0.3,0-0.5-0.2-0.5-0.5s0.2-0.5,0.5-0.5h5c0.3,0,0.5,0.2,0.5,0.5S18.8,11,18.5,11z"/>
<path d="M10.5,8h-5C5.2,8,5,7.8,5,7.5S5.2,7,5.5,7h5C10.8,7,11,7.2,11,7.5S10.8,8,10.5,8z"/>
<path d="M18.5,8h-5C13.2,8,13,7.8,13,7.5S13.2,7,13.5,7h5C18.8,7,19,7.2,19,7.5S18.8,8,18.5,8z"/>
</svg>
