<?xml version="1.0" encoding="utf-8"?>
<!-- Generator: Adobe Illustrator 21.1.0, SVG Export Plug-In . SVG Version: 6.00 Build 0)  -->
<svg version="1.1" id="Layer_1" xmlns="http://www.w3.org/2000/svg" xmlns:xlink="http://www.w3.org/1999/xlink" x="0px" y="0px"
	 width="24px" height="20px" viewBox="0 0 24 20" enable-background="new 0 0 24 20" xml:space="preserve" fill="#FFFFFF">
<path d="M20.5,20H3c-1.7,0-3-1.3-3-3V0.5C0,0.2,0.2,0,0.5,0h7C7.8,0,8,0.2,8,0.5V2h12.5C20.8,2,21,2.2,21,2.5V4h2.5
	C23.8,4,24,4.2,24,4.5v12C24,18.4,22.4,20,20.5,20z M5.2,19h15.3c1.4,0,2.5-1.1,2.5-2.5V5H6v12C6,17.8,5.7,18.5,5.2,19z M1,1v16
	c0,1.1,0.9,2,2,2s2-0.9,2-2V4.5C5,4.2,5.2,4,5.5,4H20V3H7.5C7.2,3,7,2.8,7,2.5V1H1z"/>
</svg>
