<?xml version="1.0" encoding="utf-8"?>
<!-- Generator: Adobe Illustrator 21.1.0, SVG Export Plug-In . SVG Version: 6.00 Build 0)  -->
<svg version="1.1" id="Layer_1" xmlns="http://www.w3.org/2000/svg" xmlns:xlink="http://www.w3.org/1999/xlink" x="0px" y="0px"
	 width="24px" height="22px" viewBox="0 0 24 22" enable-background="new 0 0 24 22" xml:space="preserve" fill="#FFFFFF">
<path d="M23.5,5h-7C16.2,5,16,5.2,16,5.5S16.2,6,16.5,6H23v3H1V6h6.5C7.8,6,8,5.8,8,5.5S7.8,5,7.5,5h-7C0.2,5,0,5.2,0,5.5v16
	C0,21.8,0.2,22,0.5,22h23c0.3,0,0.5-0.2,0.5-0.5v-16C24,5.2,23.8,5,23.5,5z M1,21V10h22v11H1z"/>
<path d="M16.5,14h-4c-0.3,0-0.5-0.2-0.5-0.5s0.2-0.5,0.5-0.5h4c0.3,0,0.5,0.2,0.5,0.5S16.8,14,16.5,14z"/>
<path d="M18.5,16h-6c-0.3,0-0.5-0.2-0.5-0.5s0.2-0.5,0.5-0.5h6c0.3,0,0.5,0.2,0.5,0.5S18.8,16,18.5,16z"/>
<path d="M17.5,18h-5c-0.3,0-0.5-0.2-0.5-0.5s0.2-0.5,0.5-0.5h5c0.3,0,0.5,0.2,0.5,0.5S17.8,18,17.5,18z"/>
<path d="M14.5,8h-5C9.2,8,9,7.8,9,7.5V3c0-1.7,1.3-3,3-3s3,1.3,3,3v4.5C15,7.8,14.8,8,14.5,8z M10,7h4V3c0-1.1-0.9-2-2-2
	c-1.1,0-2,0.9-2,2V7z"/>
<path d="M8.4,15.4C8.8,15.1,9,14.6,9,14c0-1.1-0.9-2-2-2s-2,0.9-2,2c0,0.6,0.2,1.1,0.6,1.4C4.7,16,4,17.2,4,18.5
	C4,18.8,4.2,19,4.5,19h5c0.3,0,0.5-0.2,0.5-0.5C10,17.2,9.3,16,8.4,15.4z M6,14c0-0.6,0.4-1,1-1s1,0.4,1,1s-0.4,1-1,1S6,14.6,6,14z
	 M5,18c0.2-1.1,1-2,2-2s1.8,0.9,2,2H5z"/>
</svg>
