<?xml version="1.0" encoding="UTF-8" standalone="no"?>
<svg width="32px" height="25px" viewBox="0 0 32 25" version="1.1" xmlns="http://www.w3.org/2000/svg" xmlns:xlink="http://www.w3.org/1999/xlink" xmlns:sketch="http://www.bohemiancoding.com/sketch/ns">
    <!-- Generator: Sketch 3.3.2 (12043) - http://www.bohemiancoding.com/sketch -->
    <title>nav-api</title>
    <desc>Created with Sketch.</desc>
    <defs></defs>
    <g id="Page-1" stroke="none" stroke-width="1" fill="none" fill-rule="evenodd" sketch:type="MSPage">
        <g id="contentful_icons" sketch:type="MSArtboardGroup" transform="translate(-150.000000, -103.000000)" fill="#FFFFFF">
            <g id="nav-api" sketch:type="MSLayerGroup" transform="translate(150.000000, 103.000000)">
                <path d="M7.63061012,13.1030713 L11.9530032,13.1030713 L21.5488284,23.393334 L21.5488284,23.393334 L18.7262587,23.2947651 C18.3008338,23.2799085 17.9439158,23.6127399 17.92906,24.0381648 C17.9142043,24.4635897 18.2470363,24.8205083 18.6724611,24.8353649 L23.3731656,24.9995214 C23.7985905,25.0143779 24.1555085,24.6815465 24.1703643,24.2561216 L24.3475138,19.183091 C24.3623696,18.7576661 24.0295376,18.4007474 23.6041127,18.3858909 C23.1786879,18.3710343 22.8217699,18.7038657 22.8069141,19.1292906 L22.6940591,22.3611192 L14.0607897,13.1030713 L14.0607897,13.1030713 L28.5629306,13.1030713 L28.5629306,13.1030713 L26.4318897,15.2341083 C26.1308852,15.5351122 26.1308852,16.023136 26.4318897,16.3241399 C26.7328941,16.6251438 27.2209188,16.6251438 27.5219232,16.3241399 L31.1112873,12.7347823 C31.4122917,12.4337784 31.4122917,11.9457547 31.1112873,11.6447508 L27.7853581,8.31882756 C27.4843536,8.01782366 26.996329,8.01782366 26.6953245,8.31882756 C26.3943201,8.61983147 26.3943201,9.10785523 26.6953245,9.40885914 L28.8480031,11.5615339 L14.3755252,11.5615339 L22.6941304,2.64092201 L22.6941304,2.64092201 L22.8069141,5.87070936 C22.8217699,6.29613425 23.1786879,6.62896565 23.6041127,6.6141091 C24.0295376,6.59925256 24.3623696,6.24233393 24.3475138,5.81690904 L24.1703643,0.743878372 C24.1555085,0.318453481 23.7985905,-0.0143779211 23.3731656,0.0004786276 L18.6724611,0.164635102 C18.2470363,0.17949165 17.9142043,0.536410277 17.92906,0.961835168 C17.9439158,1.38726006 18.3008338,1.72009146 18.7262587,1.70523491 L21.5508697,1.60659477 L12.2677388,11.5615339 L7.63061012,11.5615339 C7.27353519,9.80245441 5.718311,8.47845899 3.85385055,8.47845899 C1.72542766,8.47845899 0,10.2038835 0,12.3323026 C0,14.4607216 1.72542766,16.1861461 3.85385055,16.1861461 C5.718311,16.1861461 7.27353519,14.8621507 7.63061012,13.1030713 Z M1.54154022,12.3323026 C1.54154022,11.0552511 2.57679682,10.0199964 3.85385055,10.0199964 C5.13090428,10.0199964 6.16616088,11.0552511 6.16616088,12.3323026 C6.16616088,13.609354 5.13090428,14.6446087 3.85385055,14.6446087 C2.57679682,14.6446087 1.54154022,13.609354 1.54154022,12.3323026 Z" id="API-Copy-2" sketch:type="MSShapeGroup"></path>
            </g>
        </g>
    </g>
</svg>