<?xml version="1.0" encoding="UTF-8" standalone="no"?>
<svg width="27px" height="27px" viewBox="0 0 27 27" version="1.1" xmlns="http://www.w3.org/2000/svg" xmlns:xlink="http://www.w3.org/1999/xlink" xmlns:sketch="http://www.bohemiancoding.com/sketch/ns">
    <!-- Generator: Sketch 3.3.2 (12043) - http://www.bohemiancoding.com/sketch -->
    <title>nav-settings</title>
    <desc>Created with Sketch.</desc>
    <defs></defs>
    <g id="Page-1" stroke="none" stroke-width="1" fill="none" fill-rule="evenodd" sketch:type="MSPage">
        <g id="nav-settings" sketch:type="MSLayerGroup" transform="translate(0.000000, 1.000000)" stroke="#FFFFFF" stroke-width="1.5" fill="#21304A">
            <path d="M26.0134838,9.52680067 C25.7175237,8.2619429 25.2276674,7.03350604 24.5438767,5.88883651 L21.12173,6.57581646 L19.4945317,4.94861818 L20.1874907,1.49676172 L20.1874907,1.49676172 C19.0561663,0.808226193 17.8411573,0.31060417 16.5887081,0.00385833939 L16.5887081,0.00385833939 L14.6504505,2.91576334 L12.3492446,2.91576334 L10.4167365,0.0124695841 C9.16377358,0.322810848 7.94814295,0.824062183 6.81612297,1.51618625 L6.81612297,1.51618625 L7.50517158,4.94863783 L5.87797329,6.57583612 L2.47515492,5.89272145 C1.78778705,7.03808239 1.29430782,8.26712826 0.994755448,9.53247992 L0.994755448,9.53247992 L3.85080112,11.4335557 L3.85080112,13.7347616 L1.027136,15.6142668 C1.34235013,16.8840032 1.85399288,18.1147139 2.5621032,19.2581224 L5.87799294,18.592473 L7.50519123,20.2196713 L6.84725003,23.4970924 L6.84725003,23.4970924 C8.00241955,24.1951071 9.24408518,24.6946745 10.5232385,24.9958341 L10.5232385,24.9958341 L12.3492724,22.2525262 L14.6504783,22.2525262 L16.4710323,24.9876263 C17.7506219,24.6828599 18.9928466,24.1796753 20.148672,23.4781122 L19.4945513,20.2196517 L21.1217496,18.5924534 L24.4184732,19.2542696 L24.4184732,19.2542696 C25.1301464,18.1101919 25.6454156,16.878901 25.9642421,15.6087015 L23.1489218,13.7347338 L23.1489218,11.4335279 L26.0134838,9.52680067 L26.0134838,9.52680067 Z M13.4999541,17.7592542 C16.4074694,17.7592542 18.7644762,15.398442 18.7644762,12.4862326 C18.7644762,9.57402315 16.4074694,7.21321097 13.4999541,7.21321097 C10.5924388,7.21321097 8.23543191,9.57402315 8.23543191,12.4862326 C8.23543191,15.398442 10.5924388,17.7592542 13.4999541,17.7592542 Z" id="Settings-Copy-2" sketch:type="MSShapeGroup"></path>
        </g>
    </g>
</svg>