<?xml version="1.0" encoding="UTF-8" standalone="no"?>
<svg width="28px" height="27px" viewBox="0 0 28 27" version="1.1" xmlns="http://www.w3.org/2000/svg" xmlns:xlink="http://www.w3.org/1999/xlink" xmlns:sketch="http://www.bohemiancoding.com/sketch/ns">
    <!-- Generator: Sketch 3.3.2 (12043) - http://www.bohemiancoding.com/sketch -->
    <title>nav-ct</title>
    <desc>Created with Sketch.</desc>
    <defs></defs>
    <g id="Page-1" stroke="none" stroke-width="1" fill="none" fill-rule="evenodd" sketch:type="MSPage">
        <g id="contentful_icons" sketch:type="MSArtboardGroup" transform="translate(0.000000, -103.000000)" stroke="#FFFFFF" stroke-width="1.5" fill="#21304A">
            <g id="nav-ct" sketch:type="MSLayerGroup" transform="translate(0.000000, 103.000000)">
                <path d="M0.388512327,18.8915638 C-0.129435314,18.5832616 -0.129572899,18.0834869 0.388512327,17.7751029 L13.0621728,10.2312573 C13.5801205,9.92295517 14.4197419,9.92287327 14.9378272,10.2312573 L27.6114877,17.7751029 C28.1294353,18.083405 28.1295729,18.5831797 27.6114877,18.8915638 L14.9378272,26.4354093 C14.4198795,26.7437115 13.5802581,26.7437934 13.0621728,26.4354093 L0.388512327,18.8915638 L0.388512327,18.8915638 Z" id="Rectangle-18" sketch:type="MSShapeGroup"></path>
                <path d="M0.388512327,13.8915638 C-0.129435314,13.5832616 -0.129572899,13.0834869 0.388512327,12.7751029 L13.0621728,5.23125734 C13.5801205,4.92295517 14.4197419,4.92287327 14.9378272,5.23125734 L27.6114877,12.7751029 C28.1294353,13.083405 28.1295729,13.5831797 27.6114877,13.8915638 L14.9378272,21.4354093 C14.4198795,21.7437115 13.5802581,21.7437934 13.0621728,21.4354093 L0.388512327,13.8915638 L0.388512327,13.8915638 Z" id="Rectangle-17" sketch:type="MSShapeGroup"></path>
                <path d="M0.388512327,8.89156379 C-0.129435314,8.58326162 -0.129572899,8.08348694 0.388512327,7.77510288 L13.0621728,0.231257337 C13.5801205,-0.0770448299 14.4197419,-0.0771267257 14.9378272,0.231257337 L27.6114877,7.77510288 C28.1294353,8.08340505 28.1295729,8.58317973 27.6114877,8.89156379 L14.9378272,16.4354093 C14.4198795,16.7437115 13.5802581,16.7437934 13.0621728,16.4354093 L0.388512327,8.89156379 L0.388512327,8.89156379 Z" id="Rectangle-16" sketch:type="MSShapeGroup"></path>
            </g>
        </g>
    </g>
</svg>