<?xml version="1.0" encoding="utf-8"?>
<!-- Generator: Adobe Illustrator 21.1.0, SVG Export Plug-In . SVG Version: 6.00 Build 0)  -->
<svg version="1.1" id="Layer_1" xmlns="http://www.w3.org/2000/svg" xmlns:xlink="http://www.w3.org/1999/xlink" x="0px" y="0px"
	 width="24px" height="24px" viewBox="0 0 24 24" enable-background="new 0 0 24 24" xml:space="preserve" fill="#FFFFFF">
<path d="M9.7,8.2L7.5,7.6V6.9C8.4,6.2,9,5,9,3.8C9,1.7,7.4,0,5.5,0S2,1.7,2,3.8C2,5,2.6,6.2,3.5,6.9v0.8L1.3,8.2C0.6,8.5,0,9.2,0,10
	v0.5C0,10.8,0.2,11,0.5,11H5h1h4.5c0.3,0,0.5-0.2,0.5-0.5V10C11,9.2,10.4,8.5,9.7,8.2z M5.5,1c1.1,0,2.1,0.8,2.4,2
	C7.7,3,7.5,3,7.3,3C7.1,3,6.7,2.8,6.4,2.4C6.4,2.3,6.2,2.2,6.1,2.2c-0.2,0-0.3,0-0.4,0.1C4.9,3,3.8,3.1,3.2,2.8C3.5,1.8,4.4,1,5.5,1
	z M3,3.9C3.9,4.1,5,4,5.9,3.4C6.2,3.7,6.7,3.9,7.2,4c0.1,0,0.2,0,0.4,0C7.7,4,7.8,4,8,4C7.9,5.4,6.8,6.5,5.5,6.5
	C4.1,6.5,3,5.3,3,3.9z M6,10H5H1c0-0.3,0.3-0.7,0.6-0.8l2.5-0.7C4.4,8.4,4.5,8.2,4.5,8V7.4c0.3,0.1,0.7,0.2,1,0.2s0.7-0.1,1-0.2V8
	c0,0.2,0.1,0.4,0.4,0.5l2.5,0.7C9.7,9.3,10,9.7,10,10H6z"/>
<path d="M22.7,8.2l-2.2-0.6V6.9C21.4,6.2,22,5,22,3.8C22,1.7,20.4,0,18.5,0S15,1.7,15,3.8c0,1.3,0.6,2.4,1.5,3.1v0.8l-2.2,0.6
	C13.6,8.5,13,9.2,13,10v0.5c0,0.3,0.2,0.5,0.5,0.5H18h1h4.5c0.3,0,0.5-0.2,0.5-0.5V10C24,9.2,23.4,8.5,22.7,8.2z M18.5,1
	c1.1,0,2.1,0.8,2.4,2c-0.2,0-0.4,0.1-0.6,0c-0.2,0-0.6-0.2-0.9-0.6c-0.1-0.1-0.2-0.2-0.4-0.3c-0.2,0-0.3,0-0.4,0.1
	c-0.7,0.7-1.8,0.8-2.5,0.5C16.5,1.8,17.4,1,18.5,1z M16,3.9c0.9,0.3,2,0.2,2.9-0.5c0.3,0.3,0.8,0.5,1.2,0.6c0.1,0,0.2,0,0.4,0
	C20.7,4,20.8,4,21,4c-0.1,1.4-1.2,2.6-2.5,2.6C17.1,6.5,16,5.3,16,3.9z M19,10h-1h-4c0-0.3,0.3-0.7,0.6-0.8l2.5-0.7
	c0.2-0.1,0.4-0.3,0.4-0.5V7.4c0.3,0.1,0.7,0.2,1,0.2s0.7-0.1,1-0.2V8c0,0.2,0.1,0.4,0.4,0.5l2.5,0.7C22.7,9.3,23,9.7,23,10H19z"/>
<path d="M16.2,21.2L14,20.6v-0.8c0.9-0.7,1.5-1.8,1.5-3.1c0-2.1-1.6-3.8-3.5-3.8s-3.5,1.7-3.5,3.8c0,1.3,0.6,2.4,1.5,3.1v0.8
	l-2.2,0.6c-0.7,0.2-1.3,1-1.3,1.8v0.5C6.5,23.8,6.7,24,7,24h4.5h1H17c0.3,0,0.5-0.2,0.5-0.5V23C17.5,22.2,16.9,21.5,16.2,21.2z
	 M12,14c1.1,0,2.1,0.8,2.4,1.9C14.2,16,14,16,13.8,16c-0.2,0-0.6-0.1-0.8-0.6c-0.1-0.1-0.2-0.2-0.4-0.3c-0.2,0-0.3,0-0.4,0.1
	c-0.7,0.7-1.8,0.8-2.5,0.5C10,14.8,10.9,14,12,14z M9.5,16.9c0.9,0.3,2,0.2,2.9-0.5c0.3,0.3,0.7,0.5,1.2,0.6c0.1,0,0.2,0,0.3,0
	c0.2,0,0.3,0,0.5-0.1c-0.1,1.4-1.2,2.6-2.5,2.6C10.6,19.5,9.5,18.3,9.5,16.9z M12.5,23h-1h-4c0-0.3,0.3-0.7,0.6-0.8l2.5-0.7
	c0.2-0.1,0.4-0.3,0.4-0.5v-0.6c0.3,0.1,0.7,0.2,1,0.2s0.7-0.1,1-0.2V21c0,0.2,0.1,0.4,0.4,0.5l2.5,0.7c0.3,0.1,0.6,0.5,0.6,0.8H12.5
	z"/>
<path d="M6.5,15.5c-0.1,0-0.3,0-0.4-0.1l-2.5-2.5c-0.2-0.2-0.2-0.5,0-0.7s0.5-0.2,0.7,0l2.5,2.5c0.2,0.2,0.2,0.5,0,0.7
	C6.8,15.5,6.6,15.5,6.5,15.5z"/>
<path d="M17.5,15.5c-0.1,0-0.3,0-0.4-0.1c-0.2-0.2-0.2-0.5,0-0.7l2.5-2.5c0.2-0.2,0.5-0.2,0.7,0s0.2,0.5,0,0.7l-2.5,2.5
	C17.8,15.5,17.6,15.5,17.5,15.5z"/>
</svg>
