<?xml version="1.0" encoding="UTF-8" standalone="no"?>
<svg width="30px" height="26px" viewBox="0 0 30 26" version="1.1" xmlns="http://www.w3.org/2000/svg" xmlns:xlink="http://www.w3.org/1999/xlink" xmlns:sketch="http://www.bohemiancoding.com/sketch/ns">
    <!-- Generator: Sketch 3.3.2 (12043) - http://www.bohemiancoding.com/sketch -->
    <title>nav-entries</title>
    <desc>Created with Sketch.</desc>
    <defs></defs>
    <g id="Page-1" stroke="none" stroke-width="1" fill="none" fill-rule="evenodd" sketch:type="MSPage">
        <g id="nav-entries" sketch:type="MSLayerGroup" stroke="#FFFFFF">
            <rect id="Rectangle-3" stroke-width="1.5" fill="#21304A" sketch:type="MSShapeGroup" x="0" y="0" width="20.25" height="26" rx="2"></rect>
            <g id="Pencil" transform="translate(18.396393, 15.091125) rotate(-315.000000) translate(-18.396393, -15.091125) translate(12.396393, 4.591125)" sketch:type="MSShapeGroup">
                <path d="M5.99999986,20.5799994 L0.293660902,11.3091787 L2.47328849,7.56756757 L9.52671151,7.56756757 L11.7063391,11.3091787 L5.99999986,20.5799994 L5.99999986,20.5799994 Z" id="Polygon-1" stroke-width="1.5" stroke-linecap="round" stroke-linejoin="round" fill="#21304A"></path>
                <rect id="Rectangle-31" stroke-width="1.5" fill="#21304A" x="0.75" y="4.54054054" width="10.5" height="3.78378378" rx="2"></rect>
                <path d="M2.25,4.91891892 L1.5,9.05941988e-13" id="Line" stroke-width="1.5" stroke-linecap="round" stroke-linejoin="round"></path>
                <path d="M10.5,4.91891892 L9.75,1.4033219e-13" id="Line-14" stroke-width="1.5" stroke-linecap="round" stroke-linejoin="round" transform="translate(10.125000, 2.459459) scale(-1, 1) translate(-10.125000, -2.459459) "></path>
                <path d="M6,20.0448914 L6,14.6925403" id="Line" stroke-linecap="square"></path>
                <ellipse id="Oval-9" cx="6" cy="12.7999454" rx="1.125" ry="1.13513514"></ellipse>
            </g>
            <path d="M5,5 L16,5" id="Line" stroke-width="1.5" stroke-linecap="round" stroke-linejoin="round" sketch:type="MSShapeGroup"></path>
            <path d="M5,9 L13.5146933,9" id="Line-15" stroke-width="1.5" stroke-linecap="round" stroke-linejoin="round" sketch:type="MSShapeGroup"></path>
            <path d="M5,13 L10.5226803,13" id="Line-15-Copy" stroke-width="1.5" stroke-linecap="round" stroke-linejoin="round" sketch:type="MSShapeGroup"></path>
            <path d="M5,17 L9.52769279,17" id="Line-15-Copy-2" stroke-width="1.5" stroke-linecap="round" stroke-linejoin="round" sketch:type="MSShapeGroup"></path>
        </g>
    </g>
</svg>