<?xml version="1.0" encoding="utf-8"?>
<!-- Generator: Adobe Illustrator 21.1.0, SVG Export Plug-In . SVG Version: 6.00 Build 0)  -->
<svg version="1.1" id="Layer_1" xmlns="http://www.w3.org/2000/svg" xmlns:xlink="http://www.w3.org/1999/xlink" x="0px" y="0px"
	 width="24px" height="21px" viewBox="0 0 24 21" enable-background="new 0 0 24 21" xml:space="preserve" fill="#FFFFFF">
<path d="M19,21c-1.1,0-2-0.9-2-2s0.9-2,2-2s2,0.9,2,2S20.1,21,19,21z M19,18c-0.6,0-1,0.4-1,1s0.4,1,1,1s1-0.4,1-1S19.6,18,19,18z"
	/>
<path d="M8,21c-1.1,0-2-0.9-2-2s0.9-2,2-2s2,0.9,2,2S9.1,21,8,21z M8,18c-0.6,0-1,0.4-1,1s0.4,1,1,1s1-0.4,1-1S8.6,18,8,18z"/>
<path d="M19,18H8c-0.2,0-0.4-0.2-0.5-0.4L3.6,1H0.5C0.2,1,0,0.8,0,0.5S0.2,0,0.5,0H4c0.2,0,0.4,0.2,0.5,0.4L8.4,17H19
	c0.3,0,0.5,0.2,0.5,0.5S19.3,18,19,18z"/>
<path d="M20.5,16h-13C7.3,16,7,15.8,7,15.5S7.3,15,7.5,15h12.6l2.7-8H5.4C5.1,7,4.9,6.8,4.9,6.5S5.1,6,5.4,6h18.1
	c0.2,0,0.3,0.1,0.4,0.2C24,6.3,24,6.5,24,6.7l-3,9C20.9,15.9,20.7,16,20.5,16z"/>
</svg>
