<?xml version="1.0" encoding="utf-8"?>
<!-- Generator: Adobe Illustrator 21.1.0, SVG Export Plug-In . SVG Version: 6.00 Build 0)  -->
<svg version="1.1" id="Layer_1" xmlns="http://www.w3.org/2000/svg" xmlns:xlink="http://www.w3.org/1999/xlink" x="0px" y="0px"
	 width="24px" height="24px" viewBox="0 0 24 24" enable-background="new 0 0 24 24" xml:space="preserve" fill="#FFFFFF">
<path d="M3.5,2C3.2,2,3,2.2,3,2.5S3.2,3,3.5,3S4,2.8,4,2.5S3.8,2,3.5,2L3.5,2z"/>
<path d="M5.5,2C5.2,2,5,2.2,5,2.5S5.2,3,5.5,3S6,2.8,6,2.5S5.8,2,5.5,2L5.5,2z"/>
<path d="M7.5,2C7.2,2,7,2.2,7,2.5S7.2,3,7.5,3S8,2.8,8,2.5S7.8,2,7.5,2L7.5,2z"/>
<path d="M18.5,0h-16C1.1,0,0,1.1,0,2.5v12C0,15.9,1.1,17,2.5,17h7c0.3,0,0.5-0.2,0.5-0.5S9.8,16,9.5,16h-7C1.7,16,1,15.3,1,14.5V5
	h19v3.5C20,8.8,20.2,9,20.5,9S21,8.8,21,8.5v-6C21,1.1,19.9,0,18.5,0z M1,4V2.5C1,1.7,1.7,1,2.5,1h16C19.3,1,20,1.7,20,2.5V4H1z"/>
<path d="M23.5,15H22v-0.5c0-1.9-1.6-3.5-3.5-3.5S15,12.6,15,14.5V15h-1.5c-0.3,0-0.5,0.2-0.5,0.5v8c0,0.3,0.2,0.5,0.5,0.5h10
	c0.3,0,0.5-0.2,0.5-0.5v-8C24,15.2,23.8,15,23.5,15z M16,14.5c0-1.4,1.1-2.5,2.5-2.5s2.5,1.1,2.5,2.5V15h-5V14.5z M23,23h-9v-7h9V23
	z"/>
<path d="M19.5,18.5c0-0.6-0.4-1-1-1s-1,0.4-1,1c0,0.4,0.2,0.7,0.5,0.8V21c0,0.3,0.2,0.5,0.5,0.5S19,21.3,19,21v-1.7
	C19.3,19.2,19.5,18.9,19.5,18.5z"/>
</svg>
