<?xml version="1.0" encoding="utf-8"?>
<!-- Generator: Adobe Illustrator 21.1.0, SVG Export Plug-In . SVG Version: 6.00 Build 0)  -->
<svg version="1.1" id="Layer_1" xmlns="http://www.w3.org/2000/svg" xmlns:xlink="http://www.w3.org/1999/xlink" x="0px" y="0px"
	 width="25px" height="23px" viewBox="0 0 25 23" enable-background="new 0 0 25 23" xml:space="preserve" fill="#FFFFFF">
<rect x="9" y="16" width="7.5" height="1"/>
<rect x="15.3" y="20" width="4.2" height="1"/>
<path d="M15,5h-2c-0.3,0-0.5-0.2-0.5-0.5S12.7,4,13,4h2c0.3,0,0.5,0.2,0.5,0.5S15.3,5,15,5z"/>
<path d="M19.5,7H14c-0.3,0-0.5-0.2-0.5-0.5S13.7,6,14,6h5.5C19.8,6,20,6.2,20,6.5S19.8,7,19.5,7z"/>
<path d="M19,9h-6.5C12.2,9,12,8.8,12,8.5S12.2,8,12.5,8H19c0.3,0,0.5,0.2,0.5,0.5S19.3,9,19,9z"/>
<path d="M19.5,11h-7c-0.3,0-0.5-0.2-0.5-0.5s0.2-0.5,0.5-0.5h7c0.3,0,0.5,0.2,0.5,0.5S19.8,11,19.5,11z"/>
<path d="M18.5,13h-6c-0.3,0-0.5-0.2-0.5-0.5s0.2-0.5,0.5-0.5h6c0.3,0,0.5,0.2,0.5,0.5S18.8,13,18.5,13z"/>
<path d="M19,15h-7c-0.3,0-0.5-0.2-0.5-0.5S11.7,14,12,14h7c0.3,0,0.5,0.2,0.5,0.5S19.3,15,19,15z"/>
<rect x="11" width="12.5" height="1"/>
<path d="M13.5,23H1c-0.3,0-0.5-0.2-0.5-0.5S0.7,22,1,22c0.4,0,0.7-0.1,0.9-0.3c0.5-0.5,0.5-1.6,0.5-2.6c0-1.1,0-2.1,0.6-2.7
	C3.2,16.1,3.6,16,4,16h4.6c1-5.5,0.9-13.9,0.9-14c0-0.7,0.3-2,1.5-2v1c-0.5,0-0.5,1-0.5,1c0,0.4,0.1,9.1-1,14.6
	C9.4,16.8,9.2,17,9,17H4c-0.2,0-0.3,0.1-0.4,0.1c-0.3,0.3-0.3,1.2-0.3,2c0,1,0,2.1-0.4,2.9h10.5c0.4,0,0.7-0.1,0.9-0.3
	c0.5-0.5,0.5-1.6,0.5-2.6c0-1.1,0-2.1,0.6-2.7c0.3-0.3,0.6-0.4,1.1-0.4c0.5,0,0.9,0.1,1.2,0.4c0.5,0.5,0.5,1.2,0.4,1.8
	c0,0.6,0,1.2,0.3,1.4c0.2,0.2,0.6,0.3,1.1,0.3c0.1,0,0.2,0,0.5-0.2c2-2.1,2.2-13.5,2-17.7c0-0.7,0.3-2,1.5-2C24.9,0,25,2.4,25,3.5
	C25,3.8,24.8,4,24.5,4H23c0,4.4-0.2,14.2-2.4,16.5c-0.3,0.4-0.7,0.5-1.2,0.5c-0.8,0-1.4-0.2-1.8-0.6c-0.6-0.6-0.6-1.4-0.6-2.2
	c0-0.5,0-1-0.2-1.1C16.8,17,16.6,17,16.5,17c-0.2,0-0.3,0.1-0.4,0.1c-0.3,0.3-0.3,1.2-0.3,2c0,1.2,0,2.5-0.8,3.3
	C14.7,22.8,14.2,23,13.5,23z M23,3h1c-0.1-1-0.3-1.9-0.5-2C23,1,23,2,23,2C23,2.2,23,2.5,23,3z"/>
</svg>
