<?xml version="1.0" encoding="UTF-8" standalone="no"?>
<svg width="48px" height="48px" viewBox="0 0 48 48" version="1.1" xmlns="http://www.w3.org/2000/svg" xmlns:xlink="http://www.w3.org/1999/xlink" xmlns:sketch="http://www.bohemiancoding.com/sketch/ns">
    <!-- Generator: Sketch 3.3.2 (12043) - http://www.bohemiancoding.com/sketch -->
    <title>new-ct</title>
    <desc>Created with Sketch.</desc>
    <defs></defs>
    <g id="Page-1" stroke="none" stroke-width="1" fill="none" fill-rule="evenodd" sketch:type="MSPage">
        <g id="contentful_icons" sketch:type="MSArtboardGroup" transform="translate(-201.000000, -400.000000)" stroke-width="2" stroke="#21304A">
            <g id="new-ct" sketch:type="MSLayerGroup" transform="translate(201.000000, 400.000000)">
                <g id="Rectangle-18-+-Rectangle-17-+-Rectangle-16" sketch:type="MSShapeGroup">
                    <path d="M1.09245947,31.9977396 C0.325525979,31.5737336 0.325322254,30.8863966 1.09245947,30.462278 L19.8585546,20.0872749 C20.6254881,19.6632688 21.8687292,19.6631562 22.6358664,20.0872749 L41.4019615,30.462278 C42.168895,30.886284 42.1690987,31.573621 41.4019615,31.9977396 L22.6358664,42.3727427 C21.8689329,42.7967488 20.6256918,42.7968614 19.8585546,42.3727427 L1.09245947,31.9977396 L1.09245947,31.9977396 Z" id="Rectangle-18" fill="#61BCEA"></path>
                    <path d="M1.09245947,22.5705987 C0.325525979,22.1465926 0.325322254,21.4592557 1.09245947,21.035137 L19.8585546,10.6601339 C20.6254881,10.2361279 21.8687292,10.2360153 22.6358664,10.6601339 L41.4019615,21.035137 C42.168895,21.4591431 42.1690987,22.14648 41.4019615,22.5705987 L22.6358664,32.9456018 C21.8689329,33.3696078 20.6256918,33.3697204 19.8585546,32.9456018 L1.09245947,22.5705987 L1.09245947,22.5705987 Z" id="Rectangle-17" fill="#83CBF0"></path>
                    <path d="M1.09245947,13.1434577 C0.325525979,12.7194517 0.325322254,12.0321147 1.09245947,11.6079961 L19.8585546,1.23299296 C20.6254881,0.808986933 21.8687292,0.808874302 22.6358664,1.23299296 L41.4019615,11.6079961 C42.168895,12.0320021 42.1690987,12.7193391 41.4019615,13.1434577 L22.6358664,23.5184608 C21.8689329,23.9424669 20.6256918,23.9425795 19.8585546,23.5184608 L1.09245947,13.1434577 L1.09245947,13.1434577 Z" id="Rectangle-16" fill="#A8E2FF"></path>
                </g>
                <g id="Oval-20-+-Path-+-Path" transform="translate(20.231405, 20.231405)" fill="#FFFFFF" sketch:type="MSShapeGroup">
                    <circle id="Oval-20" cx="13.8842975" cy="13.8842975" r="12.7933884"></circle>
                    <path d="M6.7768595,13.8842975 L20.9917355,13.8842975" id="Path"></path>
                    <path d="M13.8842975,6.7768595 L13.8842975,20.9917355" id="Path"></path>
                </g>
            </g>
        </g>
    </g>
</svg>