<?xml version="1.0" encoding="utf-8"?>
<!-- Generator: Adobe Illustrator 20.0.0, SVG Export Plug-In . SVG Version: 6.00 Build 0)  -->
<svg version="1.1" id="Layer_1" xmlns="http://www.w3.org/2000/svg" xmlns:xlink="http://www.w3.org/1999/xlink" x="0px" y="0px"
	 width="15px" height="15px" viewBox="0 0 15 15" enable-background="new 0 0 15 15" xml:space="preserve">
<path fill="#0EB87F" d="M7.5,0C3.4,0,0,3.4,0,7.5S3.4,15,7.5,15c4.1,0,7.5-3.4,7.5-7.5S11.6,0,7.5,0z M7.5,13.5c-3.3,0-6-2.7-6-6
	s2.7-6,6-6s6,2.7,6,6S10.8,13.5,7.5,13.5z M10.1,6.8c0.6,0,1.1-0.5,1.1-1.1s-0.5-1.1-1.1-1.1S9,5,9,5.6S9.5,6.8,10.1,6.8z M4.9,6.8
	C5.5,6.8,6,6.2,6,5.6S5.5,4.5,4.9,4.5S3.8,5,3.8,5.6S4.3,6.8,4.9,6.8z M7.5,11.6c1.7,0,3.2-1.1,3.8-2.6H3.7
	C4.3,10.5,5.8,11.6,7.5,11.6z"/>
</svg>
