<?xml version="1.0" encoding="utf-8"?>
<!-- Generator: Adobe Illustrator 20.0.0, SVG Export Plug-In . SVG Version: 6.00 Build 0)  -->
<svg version="1.1" id="Layer_1" xmlns="http://www.w3.org/2000/svg" xmlns:xlink="http://www.w3.org/1999/xlink" x="0px" y="0px"
	 width="18px" height="18px" viewBox="0 0 18 18" enable-background="new 0 0 18 18" xml:space="preserve">
<path fill="#0EB87F" d="M9,1.5C4.9,1.5,1.5,4.9,1.5,9s3.4,7.5,7.5,7.5c4.1,0,7.5-3.4,7.5-7.5S13.1,1.5,9,1.5z M9,15
	c-3.3,0-6-2.7-6-6s2.7-6,6-6s6,2.7,6,6S12.3,15,9,15z M11.6,8.2c0.6,0,1.1-0.5,1.1-1.1S12.2,6,11.6,6s-1.1,0.5-1.1,1.1
	S11,8.2,11.6,8.2z M6.4,8.2c0.6,0,1.1-0.5,1.1-1.1S7,6,6.4,6S5.2,6.5,5.2,7.1S5.8,8.2,6.4,8.2z M9,13.1c1.7,0,3.2-1.1,3.8-2.6H5.2
	C5.8,12,7.3,13.1,9,13.1z"/>
</svg>
