<?xml version="1.0" encoding="UTF-8" standalone="no"?>
<svg width="72px" height="16px" viewBox="0 0 72 16" version="1.1" xmlns="http://www.w3.org/2000/svg" xmlns:xlink="http://www.w3.org/1999/xlink" xmlns:sketch="http://www.bohemiancoding.com/sketch/ns">
    <!-- Generator: Sketch 3.3.2 (12043) - http://www.bohemiancoding.com/sketch -->
    <title>number-widget</title>
    <desc>Created with Sketch.</desc>
    <defs></defs>
    <g id="Page-1" stroke="none" stroke-width="1" fill="none" fill-rule="evenodd" sketch:type="MSPage">
        <g id="contentful_icons" sketch:type="MSArtboardGroup" transform="translate(0.000000, -558.000000)">
            <g id="number-widget" sketch:type="MSLayerGroup" transform="translate(0.000000, 558.000000)">
                <rect id="Rectangle-291" stroke="#9FAAC0" sketch:type="MSShapeGroup" x="0" y="0" width="72" height="16"></rect>
                <path d="M65,9.55977455 L68,9.55977455 L66.5,11.5597746 L65,9.55977455 Z" id="Triangle-6" fill="#9FAAC0" sketch:type="MSShapeGroup"></path>
                <path d="M65,4.55977455 L68,4.55977455 L66.5,6.55977455 L65,4.55977455 Z" id="Triangle-7" fill="#9FAAC0" sketch:type="MSShapeGroup" transform="translate(66.500000, 5.559775) rotate(-180.000000) translate(-66.500000, -5.559775) "></path>
                <path d="M45.7942735,11.5597746 L45.0742735,11.5597746 L45.0742735,5.36977455 L43.7942735,6.45977455 L43.3542735,5.95977455 L45.1542735,4.47977455 L45.7942735,4.47977455 L45.7942735,11.5597746 Z M52.3742735,9.21977455 L53.4142735,9.21977455 L53.4142735,9.84977455 L52.3742735,9.84977455 L52.3742735,11.5597746 L51.6742735,11.5597746 L51.6742735,9.84977455 L48.4342735,9.84977455 L48.4342735,9.14977455 L51.4342735,4.47977455 L52.3742735,4.47977455 L52.3742735,9.21977455 Z M51.6742735,5.28977455 L51.6542735,5.28977455 L49.1842735,9.21977455 L51.6742735,9.21977455 L51.6742735,5.28977455 Z M58.5642735,5.11977455 L55.6142735,5.11977455 L55.5642735,7.30977455 C55.7176076,7.25644095 55.8792726,7.21644135 56.0492735,7.18977455 C56.2192743,7.16310775 56.3842727,7.14977455 56.5442735,7.14977455 C56.8776085,7.14977455 57.1842721,7.20310735 57.4642735,7.30977455 C57.7442749,7.41644175 57.9876058,7.5681069 58.1942735,7.76477455 C58.4009412,7.9614422 58.5609396,8.19643985 58.6742735,8.46977455 C58.7876074,8.74310925 58.8442735,9.04310625 58.8442735,9.36977455 C58.8442735,9.70977625 58.7876074,10.0247731 58.6742735,10.3147746 C58.5609396,10.604776 58.4009412,10.8547735 58.1942735,11.0647746 C57.9876058,11.2747756 57.7392749,11.439774 57.4492735,11.5597746 C57.159272,11.6797752 56.8409419,11.7397746 56.4942735,11.7397746 C55.9809376,11.7397746 55.5476086,11.6231091 55.1942735,11.3897746 C54.8409384,11.1564401 54.5676078,10.8431099 54.3742735,10.4497746 L55.0242735,10.1597746 C55.1509408,10.4531094 55.3426055,10.6864404 55.5992735,10.8597746 C55.8559414,11.0331088 56.1409386,11.1197746 56.4542735,11.1197746 C56.6942747,11.1197746 56.9159391,11.0781083 57.1192735,10.9947746 C57.3226078,10.9114408 57.4976061,10.7947753 57.6442735,10.6447746 C57.7909409,10.4947738 57.9059397,10.3164423 57.9892735,10.1097746 C58.0726072,9.90310685 58.1142735,9.67977575 58.1142735,9.43977455 C58.1142735,9.17977325 58.0692739,8.9447756 57.9792735,8.73477455 C57.889273,8.5247735 57.7659409,8.34644195 57.6092735,8.19977455 C57.452606,8.05310715 57.2676079,7.93977495 57.0542735,7.85977455 C56.8409391,7.77977415 56.6076081,7.73977455 56.3542735,7.73977455 C56.1009389,7.73977455 55.8492747,7.7747742 55.5992735,7.84477455 C55.3492722,7.9147749 55.1109413,8.00977395 54.8842735,8.12977455 L54.9542735,4.47977455 L58.5642735,4.47977455 L58.5642735,5.11977455 Z" id="145" fill="#A3A9B2" sketch:type="MSShapeGroup"></path>
            </g>
        </g>
    </g>
</svg>