<?xml version="1.0" encoding="utf-8"?>
<!-- Generator: Adobe Illustrator 20.0.0, SVG Export Plug-In . SVG Version: 6.00 Build 0)  -->
<svg version="1.1" id="Layer_1" xmlns="http://www.w3.org/2000/svg" xmlns:xlink="http://www.w3.org/1999/xlink" x="0px" y="0px"
	 width="48px" height="48px" viewBox="0 0 48 48" enable-background="new 0 0 48 48" xml:space="preserve">
<line fill="none" stroke="#0EB87F" stroke-width="2" stroke-linecap="round" stroke-linejoin="round" stroke-miterlimit="10" x1="35" y1="8" x2="47" y2="8"/>
<line fill="none" stroke="#0EB87F" stroke-width="2" stroke-linecap="round" stroke-linejoin="round" stroke-miterlimit="10" x1="41" y1="2" x2="41" y2="14"/>
<path fill="none" stroke="#0EB87F" stroke-width="2" stroke-linejoin="round" stroke-miterlimit="10" d="M23.8,22.6
	c-0.2,0-0.5,0-0.8,0c-2.7,0.5-4.4-0.5-5.9-3c-0.9,1.7-3.7,3-6,3c-1.1,0-2.1-0.3-3-0.8C8.8,17.4,12.1,14,16,14
	C20.1,14,23.5,17.8,23.8,22.6z"/>
<path fill="#E4F7F1" stroke="#0EB87F" stroke-width="2" stroke-linejoin="round" stroke-miterlimit="10" d="M23.9,23.5
	c0,5.2-3.5,9.5-7.9,9.5s-7.9-4.2-7.9-9.5c0-0.5,0-1,0.1-1.5c0.9,0.5,2,0.8,3,0.8c2.3,0,5.1-1.4,6-3c1.5,2.6,3.2,3.6,5.9,3
	c0.3-0.1,0.5,0,0.8,0C23.9,22.9,23.9,23.2,23.9,23.5z"/>
<path fill="none" stroke="#0EB87F" stroke-width="2" stroke-linejoin="round" stroke-miterlimit="10" d="M8.2,21.9
	C8.2,21.9,8.1,21.9,8.2,21.9"/>
<path fill="none" stroke="#0EB87F" stroke-width="2" stroke-linejoin="round" stroke-miterlimit="10" d="M23.9,22.6
	C23.9,22.6,23.9,22.6,23.9,22.6"/>
<path fill="none" stroke="#0EB87F" stroke-width="2" stroke-linejoin="round" stroke-miterlimit="10" d="M29,14
	c4.4,0,7.9,4.2,7.9,9.5c0,5.2-3.5,9.5-7.9,9.5"/>
<path fill="none" stroke="#0EB87F" stroke-width="2" stroke-linejoin="round" stroke-miterlimit="10" d="M36.8,22.6
	c-0.3,0-0.5,0-0.7,0.1c-2.7,0.5-4.4-0.5-5.9-3"/>
<path fill="none" stroke="#0EB87F" stroke-width="2" stroke-linecap="round" stroke-linejoin="round" stroke-miterlimit="10" d="
	M37.1,46H44v-3c0-2-1.2-3.8-3.1-4.5L33,35.7v-4.1"/>
<path fill="none" stroke="#0EB87F" stroke-width="2" stroke-linecap="round" stroke-linejoin="round" stroke-miterlimit="10" d="
	M12,31.6L12,31.6l0,4.1l-7.9,2.8C2.2,39.2,1,41,1,43v3h5"/>
<path fill="none" stroke="#0EB87F" stroke-width="2" stroke-linecap="round" stroke-linejoin="round" stroke-miterlimit="10" d="
	M12,46h19v-3c0-2-1.2-3.8-3.1-4.5L20,35.7v-4.1h0"/>
</svg>
