<?xml version="1.0" encoding="utf-8"?>
<!-- Generator: Adobe Illustrator 20.0.0, SVG Export Plug-In . SVG Version: 6.00 Build 0)  -->
<svg version="1.1" id="Layer_1" xmlns="http://www.w3.org/2000/svg" xmlns:xlink="http://www.w3.org/1999/xlink" x="0px" y="0px"
	 width="48px" height="48px" viewBox="0 0 48 48" enable-background="new 0 0 48 48" xml:space="preserve">
<polygon fill="#E4F7F1" stroke="#0EB87F" stroke-width="2" stroke-linecap="round" stroke-linejoin="round" stroke-miterlimit="10" points="
	14,47 34,47 24,27 "/>
<line fill="none" stroke="#0EB87F" stroke-width="2" stroke-linecap="round" stroke-linejoin="round" stroke-miterlimit="10" x1="24" y1="27" x2="24" y2="23"/>
<line fill="none" stroke="#0EB87F" stroke-width="2" stroke-linecap="round" stroke-linejoin="round" stroke-miterlimit="10" x1="14" y1="47" x2="29" y2="37"/>
<line fill="none" stroke="#0EB87F" stroke-width="2" stroke-linecap="round" stroke-linejoin="round" stroke-miterlimit="10" x1="34" y1="47" x2="19" y2="37"/>
<line fill="none" stroke="#0EB87F" stroke-width="2" stroke-linecap="round" stroke-linejoin="round" stroke-miterlimit="10" x1="20.5" y1="34" x2="27.5" y2="34"/>
<path fill="none" stroke="#0EB87F" stroke-width="2" stroke-linecap="round" stroke-linejoin="round" stroke-miterlimit="10" d="
	M40.6,39.9c3.3-3.5,5.5-7.9,6.2-12.9"/>
<path fill="none" stroke="#0EB87F" stroke-width="2" stroke-linecap="round" stroke-linejoin="round" stroke-miterlimit="10" d="
	M46.8,21C45.3,9.7,35.7,1,24,1C11.3,1,1,11.3,1,24c0,6.2,2.4,11.8,6.4,15.9"/>
<path fill="none" stroke="#0EB87F" stroke-width="2" stroke-linecap="round" stroke-linejoin="round" stroke-miterlimit="10" d="
	M36.2,32.7C38,30.3,39,27.3,39,24c0-3.1-0.9-5.9-2.5-8.3"/>
<path fill="none" stroke="#0EB87F" stroke-width="2" stroke-linecap="round" stroke-linejoin="round" stroke-miterlimit="10" d="
	M32.3,11.5C29.9,9.9,27.1,9,24,9C15.7,9,9,15.7,9,24c0,3.3,1,6.3,2.8,8.7"/>
<path fill="none" stroke="#0EB87F" stroke-width="2" stroke-linecap="round" stroke-linejoin="round" stroke-miterlimit="10" d="
	M21,17.7c-2.3,1.1-4,3.5-4,6.3"/>
<path fill="none" stroke="#0EB87F" stroke-width="2" stroke-linecap="round" stroke-linejoin="round" stroke-miterlimit="10" d="
	M31,24c0-2.8-1.7-5.2-4-6.3"/>
</svg>
