<?xml version="1.0" encoding="utf-8"?>
<!-- Generator: Adobe Illustrator 20.0.0, SVG Export Plug-In . SVG Version: 6.00 Build 0)  -->
<svg version="1.1" id="Layer_1" xmlns="http://www.w3.org/2000/svg" xmlns:xlink="http://www.w3.org/1999/xlink" x="0px" y="0px"
	 width="48px" height="48px" viewBox="0 0 48 48" enable-background="new 0 0 48 48" xml:space="preserve">
<circle fill="none" stroke="#0EB87F" stroke-width="2" stroke-linejoin="round" stroke-miterlimit="10" cx="25.5" cy="16" r="14"/>
<path fill="#E4F7F1" stroke="#0EB87F" stroke-width="2" stroke-linecap="round" stroke-linejoin="round" stroke-miterlimit="10" d="
	M26.2,2c0,0,1.9,2.8,1.1,5.4c-2.1,1.3-2.6,4.3-2.1,3.9c0.4-0.4,2.6,0.9,2.6,0.9c0.9,0,1.3-1.3,1.3-1.3c2.2,0,1.3,4.7,1.7,5.2
	c0.4,0.4,1.7-0.4,1.7,0.9c0,1.3-0.4,2.1-0.4,2.1c2.2,2.2,0,4.3-0.4,4.7c-0.4,0.4-3-0.4-3.4-0.9c-0.4-0.4-0.4-1.3-0.9-1.7
	c-0.4-0.4-2.1-0.4-2.1-0.4c-1.7-1.7-2.6,0-3.9,1.3c-1.3,1.3-3-0.4-3-0.4s-3-3-1.3-5.6c1.7-2.6,2.6-1.7,2.6-1.7
	c1.7,0,2.6-2.6,3.4-3.4c0,0-2.6-3.4-3-2.1c-0.4,1.3-1.5,1.7-2.6,0.9c-1.5-1.2,1.6-5.9,1.6-5.9"/>
<line fill="#EEFFF7" stroke="#0EB87F" stroke-width="2" stroke-linecap="round" stroke-linejoin="round" stroke-miterlimit="10" x1="15.5" y1="6" x2="10.5" y2="1"/>
<path fill="none" stroke="#0EB87F" stroke-width="2" stroke-linejoin="round" stroke-miterlimit="10" d="M35.5,26l6,6
	c0,10-15,9-15,9"/>
<path fill="none" stroke="#0EB87F" stroke-width="2" stroke-linejoin="round" stroke-miterlimit="10" d="M38.9,29.4
	c-7.4,7.4-19.5,7.4-26.9,0C4.6,22,4.6,10,12.1,2.6"/>
<path fill="none" stroke="#0EB87F" stroke-width="2" stroke-linecap="round" stroke-linejoin="round" stroke-miterlimit="10" d="
	M24,47h16.5c0-2.8-6.3-6-14-6s-14,3.2-14,6H18"/>
</svg>
