<?xml version="1.0" encoding="UTF-8" standalone="no"?>
<svg width="39px" height="39px" viewBox="0 0 39 39" version="1.1" xmlns="http://www.w3.org/2000/svg" xmlns:xlink="http://www.w3.org/1999/xlink" xmlns:sketch="http://www.bohemiancoding.com/sketch/ns">
    <!-- Generator: Sketch 3.3.2 (12043) - http://www.bohemiancoding.com/sketch -->
    <title>page-settings</title>
    <desc>Created with Sketch.</desc>
    <defs></defs>
    <g id="Page-1" stroke="none" stroke-width="1" fill="none" fill-rule="evenodd" sketch:type="MSPage">
        <g id="page-settings" sketch:type="MSLayerGroup" transform="translate(2.000000, 2.000000)" stroke="#21304A" stroke-width="2" fill="#D8D8D8">
            <path d="M35.5529957,13.5313016 C35.1311398,11.7370019 34.4348004,9.9941217 33.4639775,8.36957448 L28.6192514,9.33837556 L26.3051804,7.02430461 L27.2837838,2.13066625 L27.2837838,2.13066625 C25.6770195,1.14951422 23.9514399,0.439292119 22.1726632,7.77156117e-16 L22.1726632,1.44328993e-15 L19.4125763,4.13987363 L16.1399858,4.13987363 L13.3799858,9.26800839e-05 C11.601198,0.439427781 9.87561383,1.1496989 8.26885358,2.13090609 L8.26885358,2.13090609 L9.24739328,7.02433256 L6.93332233,9.33840351 L2.08901528,8.36966517 C1.11817509,9.9942703 0.421836681,11.7372151 1.23734356e-13,13.5315794 L1.24789068e-13,13.5315794 L4.04889135,16.2310076 L4.04889135,19.5035981 L0.0578878298,22.164408 C0.507036911,23.9657223 1.234274,25.7119319 2.23959906,27.3348013 L6.93335028,26.3961907 L9.24742123,28.7102616 L8.31834815,33.3562172 L8.31834815,33.3562172 C9.95903199,34.3509627 11.7225361,35.0640642 13.5393116,35.4955214 L13.5393116,35.4955214 L16.1400253,31.5946926 L19.4126159,31.5946926 L22.0133748,35.4956246 C23.8301378,35.0642169 25.5936353,34.3511712 27.2343209,33.3564874 L26.3052084,28.7102337 L28.6192793,26.3961627 L33.3134519,27.334878 L33.3134519,27.334878 C34.3187482,25.712066 35.0459746,23.9659205 35.4951311,22.1646707 L31.5037103,19.5035586 L31.5037103,16.2309681 L35.5529957,13.5313016 L35.5529957,13.5313016 Z M17.7764325,25.2150327 C21.9112677,25.2150327 25.2632139,21.8630926 25.2632139,17.7282649 C25.2632139,13.5934373 21.9112677,10.2414971 17.7764325,10.2414971 C13.6415974,10.2414971 10.2896512,13.5934373 10.2896512,17.7282649 C10.2896512,21.8630926 13.6415974,25.2150327 17.7764325,25.2150327 Z" id="Settings" sketch:type="MSShapeGroup"></path>
        </g>
    </g>
</svg>