<?xml version="1.0" encoding="UTF-8" standalone="no"?>
<svg width="43px" height="44px" viewBox="0 0 43 44" version="1.1" xmlns="http://www.w3.org/2000/svg" xmlns:xlink="http://www.w3.org/1999/xlink" xmlns:sketch="http://www.bohemiancoding.com/sketch/ns">
    <!-- Generator: Sketch 3.3.2 (12043) - http://www.bohemiancoding.com/sketch -->
    <title>page-ct</title>
    <desc>Created with Sketch.</desc>
    <defs></defs>
    <g id="Page-1" stroke="none" stroke-width="1" fill="none" fill-rule="evenodd" sketch:type="MSPage">
        <g id="page-ct" sketch:type="MSLayerGroup" stroke="#21304A" stroke-width="2">
            <path d="M1.02193965,31.6325337 C0.241588607,31.1640682 0.241381319,30.40466 1.02193965,29.9360701 L20.1163488,18.4731882 C20.8966998,18.0047227 22.1616915,18.0045983 22.9422499,18.4731882 L42.036659,29.9360701 C42.81701,30.4045356 42.8172173,31.1639438 42.036659,31.6325337 L22.9422499,43.0954155 C22.1618988,43.563881 20.8969071,43.5640055 20.1163488,43.0954155 L1.02193965,31.6325337 L1.02193965,31.6325337 Z" id="Rectangle-18" fill="#61BCEA" sketch:type="MSShapeGroup"></path>
            <path d="M1.02193965,22.9909878 C0.241588607,22.5225223 0.241381319,21.7631141 1.02193965,21.2945242 L20.1163488,9.83164235 C20.8966998,9.36317685 22.1616915,9.36305241 22.9422499,9.83164235 L42.036659,21.2945242 C42.81701,21.7629897 42.8172173,22.5223979 42.036659,22.9909878 L22.9422499,34.4538697 C22.1618988,34.9223352 20.8969071,34.9224596 20.1163488,34.4538697 L1.02193965,22.9909878 L1.02193965,22.9909878 Z" id="Rectangle-17" fill="#83CBF0" sketch:type="MSShapeGroup"></path>
            <path d="M1.02193965,14.3494419 C0.241588607,13.8809764 0.241381319,13.1215683 1.02193965,12.6529783 L20.1163488,1.19009647 C20.8966998,0.721630978 22.1616915,0.721506537 22.9422499,1.19009647 L42.036659,12.6529783 C42.81701,13.1214438 42.8172173,13.880852 42.036659,14.3494419 L22.9422499,25.8123238 C22.1618988,26.2807893 20.8969071,26.2809137 20.1163488,25.8123238 L1.02193965,14.3494419 L1.02193965,14.3494419 Z" id="Rectangle-16" fill="#A8E2FF" sketch:type="MSShapeGroup"></path>
        </g>
    </g>
</svg>