<?xml version="1.0" encoding="UTF-8" standalone="no"?>
<svg width="41px" height="35px" viewBox="0 0 41 35" version="1.1" xmlns="http://www.w3.org/2000/svg" xmlns:xlink="http://www.w3.org/1999/xlink" xmlns:sketch="http://www.bohemiancoding.com/sketch/ns">
    <!-- Generator: Sketch 3.3.2 (12043) - http://www.bohemiancoding.com/sketch -->
    <title>page-api</title>
    <desc>Created with Sketch.</desc>
    <defs></defs>
    <g id="Page-1" stroke="none" stroke-width="1" fill="none" fill-rule="evenodd" sketch:type="MSPage">
        <g id="page-api" sketch:type="MSLayerGroup">
            <circle id="Oval-18" fill="#16C98D" sketch:type="MSShapeGroup" cx="4.5" cy="17.5" r="4.5"></circle>
            <path d="M9.89998188,18.30225 L15.2122337,18.30225 C15.255069,18.4442378 15.3302777,18.578843 15.4382588,18.6946386 L27.9601878,32.1227633 L27.9601878,32.1227633 L24.2955125,31.9947901 C23.7435642,31.9755156 23.2804966,32.4073331 23.2612222,32.9592814 C23.2419477,33.5112297 23.6737652,33.9742972 24.2257135,33.9935717 L30.3244307,34.2065436 C30.876379,34.2258181 31.3394465,33.7940006 31.358721,33.2420523 L31.5885616,26.6602777 C31.6078361,26.1083294 31.1760186,25.6452619 30.6240703,25.6259874 C30.072122,25.6067129 29.6090544,26.0385304 29.58978,26.5904787 L29.4434504,30.7808094 L17.8070055,18.30225 L17.8070055,18.30225 L37.3907834,18.30225 L37.3907834,18.30225 L34.4259661,21.2670673 C34.0354418,21.6575916 34.0354418,22.2907566 34.4259661,22.6812809 C34.8164904,23.0718052 35.4496554,23.0718052 35.8401797,22.6812809 L40.4970339,18.0244266 C40.8875582,17.6339023 40.8875582,17.0007374 40.4970339,16.6102131 L36.181961,12.2951402 C35.7914367,11.9046159 35.1582718,11.9046159 34.7677475,12.2951402 C34.3772232,12.6856645 34.3772232,13.3188294 34.7677475,13.7093537 L37.3606437,16.30225 L18.1538275,16.30225 L29.4434504,4.19561165 L29.4434504,4.19561165 L29.58978,8.38594233 C29.6090544,8.93789064 30.072122,9.36970812 30.6240703,9.35043366 C31.1760186,9.3311592 31.6078361,8.86809165 31.5885616,8.31614334 L31.358721,1.73436878 C31.3394465,1.18242047 30.876379,0.750602991 30.3244307,0.76987745 L24.2257135,0.982849348 C23.6737652,1.00212381 23.2419477,1.46519136 23.2612222,2.01713967 C23.2804966,2.56908798 23.7435642,3.00090546 24.2955125,2.981631 L27.9601878,2.85365772 L15.4382588,16.2817825 C15.4319558,16.2885417 15.4257644,16.2953649 15.4196847,16.30225 L15.4196847,16.30225 L9.89998188,16.30225 C9.43671155,14.0200097 7.41895791,12.30225 5,12.30225 C2.23857625,12.30225 0,14.5408263 0,17.30225 C0,20.0636737 2.23857625,22.30225 5,22.30225 C7.41895791,22.30225 9.43671155,20.5844903 9.89998188,18.30225 Z M2,17.30225 C2,15.6453958 3.34314575,14.30225 5,14.30225 C6.65685425,14.30225 8,15.6453958 8,17.30225 C8,18.9591042 6.65685425,20.30225 5,20.30225 C3.34314575,20.30225 2,18.9591042 2,17.30225 Z" id="API-2" fill="#21304A" sketch:type="MSShapeGroup"></path>
        </g>
    </g>
</svg>