<svg width="30" height="31" xmlns="http://www.w3.org/2000/svg" viewBox="5 -7 30 31" enable-background="new 5 -7 30 31"><path fill="#EEF2F4" d="M20-.1c2.3 0 4.4 1 5.9 2.5 1.3 1.3 3.4 1.3 4.7 0 1.3-1.3 1.3-3.5 0-4.8-2.7-2.7-6.5-4.4-10.6-4.4S12.1-5.1 9.4-2.3C8.1-1 8.1 1.1 9.4 2.4c1.3 1.3 3.4 1.3 4.7 0C15.6.9 17.7-.1 20-.1zM25.9 2.4c1.5 1.6 2.5 3.7 2.5 6.1 0 2.4-.9 4.5-2.5 6.1-1.3 1.3-1.3 3.5 0 4.8 1.3 1.3 3.4 1.3 4.7 0 2.7-2.8 4.4-6.6 4.4-10.9S33.3.4 30.6-2.4c-1.3-1.3-3.4-1.3-4.7 0-1.3 1.4-1.3 3.5 0 4.8"/><path fill="#E0534E" d="M25.9 14.6c-1.5 1.6-3.6 2.5-5.9 2.5-2.3 0-4.4-1-5.9-2.5-1.3-1.3-3.4-1.3-4.7 0-1.3 1.3-1.3 3.5 0 4.8 2.7 2.8 6.5 4.5 10.6 4.5s7.9-1.7 10.6-4.5c1.3-1.3 1.3-3.5 0-4.8-1.3-1.3-3.4-1.3-4.7 0"/><path fill="#FAEC28" d="M14.1 14.6c-1.5-1.6-2.5-3.7-2.5-6.1 0-2.4.9-4.5 2.5-6.1 1.3-1.3 1.3-3.5 0-4.8-1.3-1.3-3.4-1.3-4.7 0C6.7.4 5 4.3 5 8.5s1.7 8.1 4.4 10.9c1.3 1.3 3.4 1.3 4.7 0 1.3-1.3 1.3-3.5 0-4.8"/><path fill="#BE433B" d="M14.1 14.6c-1.3-1.3-3.4-1.3-4.7 0-1.3 1.3-1.3 3.5 0 4.8 1.3 1.3 3.3 1.3 4.6 0 1.4-1.3 1.4-3.5.1-4.8z"/></svg>
