<?xml version="1.0" encoding="UTF-8" standalone="no"?>
<svg
   xmlns:dc="http://purl.org/dc/elements/1.1/"
   xmlns:cc="http://creativecommons.org/ns#"
   xmlns:rdf="http://www.w3.org/1999/02/22-rdf-syntax-ns#"
   xmlns:svg="http://www.w3.org/2000/svg"
   xmlns="http://www.w3.org/2000/svg"
   width="32"
   height="54"
   viewBox="0 0 32 54.000001"
   version="1.1"
   id="svg4254">
  <metadata
     id="metadata4283">
    <rdf:RDF>
      <cc:Work
         rdf:about="">
        <dc:format>image/svg+xml</dc:format>
        <dc:type
           rdf:resource="http://purl.org/dc/dcmitype/StillImage" />
        <dc:title>Artboard 15</dc:title>
      </cc:Work>
    </rdf:RDF>
  </metadata>
  <!-- Generator: Sketch 3.6.1 (26313) - http://www.bohemiancoding.com/sketch -->
  <title
     id="title4256">Artboard 15</title>
  <desc
     id="desc4258">Created with Sketch.</desc>
  <defs
     id="defs4260" />
  <g
     style="fill:none;fill-rule:evenodd;stroke:none;stroke-width:1"
     transform="matrix(0.80783207,0,0,0.80783207,-0.20195802,-0.60587276)"
     id="Widgets">
    <g
       id="Other-states"
       transform="translate(-1032,-909)" />
    <g
       style="opacity:0.49521927"
       id="Artboard-15">
      <g
         id="Group-3"
         transform="translate(1,1)">
        <g
           style="stroke:#536171;stroke-width:1.5"
           id="Stroke"
           transform="translate(8,0)">
          <path
             d="m 16,45 0,4.507702 c 0,1.104356 -0.887433,1.999615 -1.999615,1.999615 l -6.00077,0 C 6.8952581,51.507317 6,50.619883 6,49.507702 L 6,45 c 1.5931437,0.330773 3.2695565,0.507317 5,0.507317 1.730444,0 3.406856,-0.176544 5,-0.507317 z"
             id="Combined-Shape" />
          <path
             style="stroke-linecap:round;stroke-linejoin:round"
             d="m 11.136719,51.5 c 0,0 -1.9990234,13.473145 8.010742,5.721191 10.009766,-7.751953 8.158203,8.61377 8.158203,8.61377"
             id="Line" />
          <path
             d="M 22,13.5 22,2.4918842 C 22,1.3933973 21.104569,0.5 20,0.5 18.88773,0.5 18,1.3917969 18,2.4918842 L 18,13.5 l 4,0 z"
             id="path4269" />
          <path
             d="M 4,13.5 4,2.4918842 C 4,1.3933973 3.1045695,0.5 2,0.5 0.88772964,0.5 0,1.3917969 0,2.4918842 L 0,13.5 l 4,0 z"
             id="path4271" />
        </g>
        <g
           id="Fill"
           transform="translate(0,12)">
          <path
             style="fill:#eef2f4;stroke:#536171;stroke-width:1.5"
             d="M 37.995848,20.193828 C 37.998606,20.132881 38,20.071577 38,20.009947 L 38,3.990053 C 38,1.7842933 36.211447,0 34.005156,0 L 3.9948438,0 C 1.7818508,0 0,1.7864076 0,3.990053 l 0,16.019894 c 0,0.0616 0.00139478,0.122865 0.00415448,0.183775 C 0.00138936,20.29556 0,20.397656 0,20.5 0,28.508129 8.5065898,35 19,35 29.49341,35 38,28.508129 38,20.5 38,20.397692 37.9986,20.295631 37.9958,20.193828 Z"
             id="path4274" />
          <path
             style="fill:#536171"
             d="M 25,23.142857 C 25,20.302536 22.313708,18 19,18 c -3.313709,0 -6,2.302536 -6,5.142857 l 12,0 z"
             id="path4276" />
          <rect
             style="fill:#536171"
             id="Rectangle-372"
             x="10"
             y="10"
             width="4"
             height="6"
             rx="8" />
          <rect
             style="fill:#536171"
             id="rect4279"
             x="24"
             y="10"
             width="4"
             height="6"
             rx="8" />
        </g>
      </g>
    </g>
  </g>
</svg>
