<?xml version="1.0" encoding="UTF-8" standalone="no"?>
<svg width="72px" height="54px" viewBox="0 0 72 54" version="1.1" xmlns="http://www.w3.org/2000/svg" xmlns:xlink="http://www.w3.org/1999/xlink" xmlns:sketch="http://www.bohemiancoding.com/sketch/ns">
    <!-- Generator: Sketch 3.3.2 (12043) - http://www.bohemiancoding.com/sketch -->
    <title>preview-widget</title>
    <desc>Created with Sketch.</desc>
    <defs></defs>
    <g id="Page-1" stroke="none" stroke-width="1" fill="none" fill-rule="evenodd" sketch:type="MSPage">
        <g id="contentful_icons" sketch:type="MSArtboardGroup" transform="translate(-100.000000, -646.000000)">
            <g id="preview-widget" sketch:type="MSLayerGroup" transform="translate(100.000000, 646.000000)">
                <rect id="Rectangle-291" stroke="#9FAAC0" sketch:type="MSShapeGroup" x="0" y="0" width="72" height="16"></rect>
                <rect id="Rectangle-291-Copy" fill="#D6DCE4" sketch:type="MSShapeGroup" x="0" y="20" width="72" height="34"></rect>
                <path d="M31,43 L31,32 L42,37.5 L31,43 Z" id="Triangle-30" fill="#FFFFFF" sketch:type="MSShapeGroup"></path>
                <path d="M5.458,6.981 C5.57200057,6.73499877 5.76099868,6.54000072 6.025,6.396 C6.28900132,6.25199928 6.5709985,6.18 6.871,6.18 C7.40500267,6.18 7.80549866,6.33899841 8.0725,6.657 C8.33950133,6.97500159 8.473,7.39499739 8.473,7.917 L8.473,10.5 L7.861,10.5 L7.861,8.169 C7.861,7.94699889 7.84300018,7.7460009 7.807,7.566 C7.77099982,7.3859991 7.70950043,7.23150065 7.6225,7.1025 C7.53549956,6.97349936 7.41850073,6.87300036 7.2715,6.801 C7.12449926,6.72899964 6.94000111,6.693 6.718,6.693 C6.55599919,6.693 6.39850076,6.72599967 6.2455,6.792 C6.09249923,6.85800033 5.9560006,6.95849933 5.836,7.0935 C5.7159994,7.22850068 5.62000036,7.39949897 5.548,7.6065 C5.47599964,7.81350104 5.44,8.05799859 5.44,8.34 L5.44,10.5 L4.828,10.5 L4.828,3.696 L5.44,3.696 L5.44,6.981 L5.458,6.981 Z M11.956,6.801 L10.768,6.801 L10.768,9.258 C10.768,9.41400078 10.7829998,9.54299949 10.813,9.645 C10.8430001,9.74700051 10.8864997,9.82649972 10.9435,9.8835 C11.0005003,9.94050029 11.0679996,9.9794999 11.146,10.0005 C11.2240004,10.0215001 11.3079995,10.032 11.398,10.032 C11.4820004,10.032 11.5704995,10.0200001 11.6635,9.996 C11.7565005,9.97199988 11.8449996,9.93900021 11.929,9.897 L11.956,10.428 C11.8479995,10.4700002 11.7355006,10.5014999 11.6185,10.5225 C11.5014994,10.5435001 11.3740007,10.554 11.236,10.554 C11.1219994,10.554 11.0020006,10.5390002 10.876,10.509 C10.7499994,10.4789999 10.6330005,10.4220004 10.525,10.338 C10.4169995,10.2539996 10.3285003,10.1400007 10.2595,9.996 C10.1904997,9.85199928 10.156,9.66300117 10.156,9.429 L10.156,6.801 L9.283,6.801 L9.283,6.288 L10.156,6.288 L10.156,5.1 L10.768,5.1 L10.768,6.288 L11.956,6.288 L11.956,6.801 Z M14.701,6.801 L13.513,6.801 L13.513,9.258 C13.513,9.41400078 13.5279998,9.54299949 13.558,9.645 C13.5880001,9.74700051 13.6314997,9.82649972 13.6885,9.8835 C13.7455003,9.94050029 13.8129996,9.9794999 13.891,10.0005 C13.9690004,10.0215001 14.0529995,10.032 14.143,10.032 C14.2270004,10.032 14.3154995,10.0200001 14.4085,9.996 C14.5015005,9.97199988 14.5899996,9.93900021 14.674,9.897 L14.701,10.428 C14.5929995,10.4700002 14.4805006,10.5014999 14.3635,10.5225 C14.2464994,10.5435001 14.1190007,10.554 13.981,10.554 C13.8669994,10.554 13.7470006,10.5390002 13.621,10.509 C13.4949994,10.4789999 13.3780005,10.4220004 13.27,10.338 C13.1619995,10.2539996 13.0735003,10.1400007 13.0045,9.996 C12.9354997,9.85199928 12.901,9.66300117 12.901,9.429 L12.901,6.801 L12.028,6.801 L12.028,6.288 L12.901,6.288 L12.901,5.1 L13.513,5.1 L13.513,6.288 L14.701,6.288 L14.701,6.801 Z M16.267,12.66 L15.655,12.66 L15.655,6.288 L16.267,6.288 L16.267,7.017 L16.294,7.017 C16.4680009,6.74099862 16.7004985,6.53250071 16.9915,6.3915 C17.2825015,6.2504993 17.5779985,6.18 17.878,6.18 C18.2080016,6.18 18.5064987,6.23699943 18.7735,6.351 C19.0405013,6.46500057 19.2684991,6.62099901 19.4575,6.819 C19.6465009,7.01700099 19.7934995,7.25099865 19.8985,7.521 C20.0035005,7.79100135 20.056,8.08199844 20.056,8.394 C20.056,8.70600156 20.0035005,8.99699865 19.8985,9.267 C19.7934995,9.53700135 19.6465009,9.77099901 19.4575,9.969 C19.2684991,10.167001 19.0405013,10.3229994 18.7735,10.437 C18.5064987,10.5510006 18.2080016,10.608 17.878,10.608 C17.5779985,10.608 17.2825015,10.5375007 16.9915,10.3965 C16.7004985,10.2554993 16.4680009,10.0530013 16.294,9.789 L16.267,9.789 L16.267,12.66 Z M19.408,8.394 C19.408,8.15999883 19.3720004,7.93950104 19.3,7.7325 C19.2279996,7.52549897 19.1245007,7.34550077 18.9895,7.1925 C18.8544993,7.03949924 18.688001,6.91800045 18.49,6.828 C18.291999,6.73799955 18.0670013,6.693 17.815,6.693 C17.5809988,6.693 17.365001,6.73649957 17.167,6.8235 C16.968999,6.91050044 16.7980007,7.03049924 16.654,7.1835 C16.5099993,7.33650077 16.3975004,7.51649897 16.3165,7.7235 C16.2354996,7.93050104 16.195,8.1539988 16.195,8.394 C16.195,8.6340012 16.2354996,8.85749897 16.3165,9.0645 C16.3975004,9.27150104 16.5099993,9.44999925 16.654,9.6 C16.7980007,9.75000075 16.968999,9.86849957 17.167,9.9555 C17.365001,10.0425004 17.5809988,10.086 17.815,10.086 C18.0670013,10.086 18.291999,10.0425004 18.49,9.9555 C18.688001,9.86849957 18.8544993,9.74850077 18.9895,9.5955 C19.1245007,9.44249924 19.2279996,9.26250104 19.3,9.0555 C19.3720004,8.84849897 19.408,8.62800117 19.408,8.394 L19.408,8.394 Z M22.396,6.72 C22.396,6.84600063 22.3510004,6.95849951 22.261,7.0575 C22.1709995,7.1565005 22.0540007,7.206 21.91,7.206 C21.7659993,7.206 21.6490004,7.1565005 21.559,7.0575 C21.4689995,6.95849951 21.424,6.84600063 21.424,6.72 C21.424,6.59399937 21.4689995,6.4815005 21.559,6.3825 C21.6490004,6.28349951 21.7659993,6.234 21.91,6.234 C22.0540007,6.234 22.1709995,6.28349951 22.261,6.3825 C22.3510004,6.4815005 22.396,6.59399937 22.396,6.72 L22.396,6.72 Z M22.396,10.068 C22.396,10.1940006 22.3510004,10.3064995 22.261,10.4055 C22.1709995,10.5045005 22.0540007,10.554 21.91,10.554 C21.7659993,10.554 21.6490004,10.5045005 21.559,10.4055 C21.4689995,10.3064995 21.424,10.1940006 21.424,10.068 C21.424,9.94199937 21.4689995,9.8295005 21.559,9.7305 C21.6490004,9.63149951 21.7659993,9.582 21.91,9.582 C22.0540007,9.582 22.1709995,9.63149951 22.261,9.7305 C22.3510004,9.8295005 22.396,9.94199937 22.396,10.068 L22.396,10.068 Z M23.827,10.662 L23.305,10.491 L26.032,3.966 L26.545,4.146 L23.827,10.662 Z M27.157,10.662 L26.635,10.491 L29.362,3.966 L29.875,4.146 L27.157,10.662 Z" id="http://" fill="#A3A9B2" sketch:type="MSShapeGroup"></path>
            </g>
        </g>
    </g>
</svg>