<?xml version="1.0" encoding="UTF-8" standalone="no"?>
<svg width="71px" height="14px" viewBox="0 0 71 14" version="1.1" xmlns="http://www.w3.org/2000/svg" xmlns:xlink="http://www.w3.org/1999/xlink" xmlns:sketch="http://www.bohemiancoding.com/sketch/ns">
    <!-- Generator: Sketch 3.3.2 (12043) - http://www.bohemiancoding.com/sketch -->
    <title>rating-widget</title>
    <desc>Created with Sketch.</desc>
    <defs></defs>
    <g id="Page-1" stroke="none" stroke-width="1" fill="none" fill-rule="evenodd" sketch:type="MSPage">
        <g id="contentful_icons" sketch:type="MSArtboardGroup" transform="translate(-101.000000, -608.000000)">
            <g id="rating-widget" sketch:type="MSLayerGroup" transform="translate(100.000000, 608.000000)">
                <polygon id="Star-1" fill="#A3A9B2" sketch:type="MSShapeGroup" points="8 10.9402254 3.88550323 13.1033444 4.67130219 8.52178493 1.34260439 5.27710649 5.94275162 4.60866597 8 0.440225446 10.0572484 4.60866597 14.6573956 5.27710649 11.3286978 8.52178493 12.1144968 13.1033444 "></polygon>
                <polygon id="Star-2" fill="#A3A9B2" sketch:type="MSShapeGroup" points="27 10.9402254 22.8855032 13.1033444 23.6713022 8.52178493 20.3426044 5.27710649 24.9427516 4.60866597 27 0.440225446 29.0572484 4.60866597 33.6573956 5.27710649 30.3286978 8.52178493 31.1144968 13.1033444 "></polygon>
                <polygon id="Star-4" fill="#A3A9B2" sketch:type="MSShapeGroup" points="46 10.9402254 41.8855032 13.1033444 42.6713022 8.52178493 39.3426044 5.27710649 43.9427516 4.60866597 46 0.440225446 48.0572484 4.60866597 52.6573956 5.27710649 49.3286978 8.52178493 50.1144968 13.1033444 "></polygon>
                <polygon id="Star-3" fill="#D6DDE5" sketch:type="MSShapeGroup" points="65 10.9402254 60.8855032 13.1033444 61.6713022 8.52178493 58.3426044 5.27710649 62.9427516 4.60866597 65 0.440225446 67.0572484 4.60866597 71.6573956 5.27710649 68.3286978 8.52178493 69.1144968 13.1033444 "></polygon>
            </g>
        </g>
    </g>
</svg>