<?xml version="1.0" encoding="UTF-8" standalone="no"?>
<svg width="72px" height="19px" viewBox="0 0 72 19" version="1.1" xmlns="http://www.w3.org/2000/svg" xmlns:xlink="http://www.w3.org/1999/xlink" xmlns:sketch="http://www.bohemiancoding.com/sketch/ns">
    <!-- Generator: Sketch 3.3.2 (12043) - http://www.bohemiancoding.com/sketch -->
    <title>reference-widget</title>
    <desc>Created with Sketch.</desc>
    <defs></defs>
    <g id="Page-1" stroke="none" stroke-width="1" fill="none" fill-rule="evenodd" sketch:type="MSPage">
        <g id="contentful_icons" sketch:type="MSArtboardGroup" transform="translate(0.000000, -774.000000)">
            <g id="reference-widget" sketch:type="MSLayerGroup" transform="translate(0.000000, 774.000000)">
                <rect id="Rectangle-291" fill="#E7EBEF" sketch:type="MSShapeGroup" x="0" y="0" width="72" height="19"></rect>
                <path d="M6.994,12.03 L10.405,12.03 L10.405,12.606 L6.346,12.606 L6.346,6.234 L10.297,6.234 L10.297,6.81 L6.994,6.81 L6.994,9.006 L10.081,9.006 L10.081,9.573 L6.994,9.573 L6.994,12.03 Z M12.187,8.394 C12.1990001,8.50800057 12.208,8.63399931 12.214,8.772 C12.22,8.91000069 12.223,9.02399955 12.223,9.114 L12.241,9.114 C12.3610006,8.86799877 12.5559987,8.66850076 12.826,8.5155 C13.0960014,8.36249923 13.3809985,8.286 13.681,8.286 C14.2150027,8.286 14.6154987,8.44499841 14.8825,8.763 C15.1495013,9.08100159 15.283,9.50099739 15.283,10.023 L15.283,12.606 L14.671,12.606 L14.671,10.275 C14.671,10.0529989 14.6530002,9.8520009 14.617,9.672 C14.5809998,9.4919991 14.5195004,9.33750064 14.4325,9.2085 C14.3454996,9.07949935 14.2285007,8.97900036 14.0815,8.907 C13.9344993,8.83499964 13.7500011,8.799 13.528,8.799 C13.3659992,8.799 13.2085008,8.83199967 13.0555,8.898 C12.9024992,8.96400033 12.7660006,9.06449932 12.646,9.1995 C12.5259994,9.33450067 12.4300004,9.50549896 12.358,9.7125 C12.2859996,9.91950103 12.25,10.1639986 12.25,10.446 L12.25,12.606 L11.638,12.606 L11.638,9.321 C11.638,9.20699943 11.635,9.0600009 11.629,8.88 C11.623,8.6999991 11.6140001,8.53800072 11.602,8.394 L12.187,8.394 Z M18.766,8.907 L17.578,8.907 L17.578,11.364 C17.578,11.5200008 17.5929998,11.6489995 17.623,11.751 C17.6530001,11.8530005 17.6964997,11.9324997 17.7535,11.9895 C17.8105003,12.0465003 17.8779996,12.0854999 17.956,12.1065 C18.0340004,12.1275001 18.1179996,12.138 18.208,12.138 C18.2920004,12.138 18.3804995,12.1260001 18.4735,12.102 C18.5665005,12.0779999 18.6549996,12.0450002 18.739,12.003 L18.766,12.534 C18.6579995,12.5760002 18.5455006,12.6074999 18.4285,12.6285 C18.3114994,12.6495001 18.1840007,12.66 18.046,12.66 C17.9319994,12.66 17.8120006,12.6450001 17.686,12.615 C17.5599994,12.5849998 17.4430005,12.5280004 17.335,12.444 C17.2269995,12.3599996 17.1385003,12.2460007 17.0695,12.102 C17.0004997,11.9579993 16.966,11.7690012 16.966,11.535 L16.966,8.907 L16.093,8.907 L16.093,8.394 L16.966,8.394 L16.966,7.206 L17.578,7.206 L17.578,8.394 L18.766,8.394 L18.766,8.907 Z M19.72,9.321 C19.72,9.20699943 19.717,9.0600009 19.711,8.88 C19.705,8.6999991 19.6960001,8.53800072 19.684,8.394 L20.269,8.394 C20.2810001,8.50800057 20.29,8.63399931 20.296,8.772 C20.302,8.91000069 20.305,9.02399955 20.305,9.114 L20.323,9.114 C20.4430006,8.86799877 20.6229988,8.66850076 20.863,8.5155 C21.1030012,8.36249923 21.3729985,8.286 21.673,8.286 C21.7510004,8.286 21.8214997,8.28899997 21.8845,8.295 C21.9475003,8.30100003 22.0119997,8.31299991 22.078,8.331 L21.997,8.907 C21.9609998,8.89499994 21.9010004,8.88300006 21.817,8.871 C21.7329996,8.85899994 21.6490004,8.853 21.565,8.853 C21.4029992,8.853 21.2470008,8.8829997 21.097,8.943 C20.9469993,9.0030003 20.8165006,9.09749935 20.7055,9.2265 C20.5944994,9.35550064 20.5045003,9.52049899 20.4355,9.7215 C20.3664997,9.922501 20.332,10.1639986 20.332,10.446 L20.332,12.606 L19.72,12.606 L19.72,9.321 Z M24.409,11.949 L24.427,11.949 L25.732,8.394 L26.398,8.394 L24.301,13.695 C24.1749994,14.0190016 24.014501,14.278499 23.8195,14.4735 C23.624499,14.668501 23.3440018,14.766 22.978,14.766 C22.7919991,14.766 22.6090009,14.7480002 22.429,14.712 L22.492,14.154 C22.6360007,14.2020002 22.7859992,14.226 22.942,14.226 C23.1520011,14.226 23.3169994,14.1615006 23.437,14.0325 C23.5570006,13.9034994 23.6619996,13.7190012 23.752,13.479 L24.094,12.597 L22.294,8.394 L22.978,8.394 L24.409,11.949 Z M31.501,8.907 L30.313,8.907 L30.313,11.364 C30.313,11.5200008 30.3279999,11.6489995 30.358,11.751 C30.3880001,11.8530005 30.4314997,11.9324997 30.4885,11.9895 C30.5455003,12.0465003 30.6129996,12.0854999 30.691,12.1065 C30.7690004,12.1275001 30.8529996,12.138 30.943,12.138 C31.0270004,12.138 31.1154995,12.1260001 31.2085,12.102 C31.3015005,12.0779999 31.3899996,12.0450002 31.474,12.003 L31.501,12.534 C31.3929995,12.5760002 31.2805006,12.6074999 31.1635,12.6285 C31.0464994,12.6495001 30.9190007,12.66 30.781,12.66 C30.6669994,12.66 30.5470006,12.6450001 30.421,12.615 C30.2949994,12.5849998 30.1780005,12.5280004 30.07,12.444 C29.9619995,12.3599996 29.8735003,12.2460007 29.8045,12.102 C29.7354997,11.9579993 29.701,11.7690012 29.701,11.535 L29.701,8.907 L28.828,8.907 L28.828,8.394 L29.701,8.394 L29.701,7.206 L30.313,7.206 L30.313,8.394 L31.501,8.394 L31.501,8.907 Z M33.076,12.606 L32.464,12.606 L32.464,8.394 L33.076,8.394 L33.076,12.606 Z M33.202,6.774 C33.202,6.90000063 33.1570004,7.00349959 33.067,7.0845 C32.9769996,7.1655004 32.8780005,7.206 32.77,7.206 C32.6619995,7.206 32.5630005,7.1655004 32.473,7.0845 C32.3829995,7.00349959 32.338,6.90000063 32.338,6.774 C32.338,6.64799937 32.3829995,6.5445004 32.473,6.4635 C32.5630005,6.38249959 32.6619995,6.342 32.77,6.342 C32.8780005,6.342 32.9769996,6.38249959 33.067,6.4635 C33.1570004,6.5445004 33.202,6.64799937 33.202,6.774 L33.202,6.774 Z M36.604,8.907 L35.416,8.907 L35.416,11.364 C35.416,11.5200008 35.4309998,11.6489995 35.461,11.751 C35.4910001,11.8530005 35.5344997,11.9324997 35.5915,11.9895 C35.6485003,12.0465003 35.7159996,12.0854999 35.794,12.1065 C35.8720004,12.1275001 35.9559996,12.138 36.046,12.138 C36.1300004,12.138 36.2184995,12.1260001 36.3115,12.102 C36.4045005,12.0779999 36.4929996,12.0450002 36.577,12.003 L36.604,12.534 C36.4959995,12.5760002 36.3835006,12.6074999 36.2665,12.6285 C36.1494994,12.6495001 36.0220007,12.66 35.884,12.66 C35.7699994,12.66 35.6500006,12.6450001 35.524,12.615 C35.3979994,12.5849998 35.2810005,12.5280004 35.173,12.444 C35.0649995,12.3599996 34.9765003,12.2460007 34.9075,12.102 C34.8384997,11.9579993 34.804,11.7690012 34.804,11.535 L34.804,8.907 L33.931,8.907 L33.931,8.394 L34.804,8.394 L34.804,7.206 L35.416,7.206 L35.416,8.394 L36.604,8.394 L36.604,8.907 Z M38.188,12.606 L37.576,12.606 L37.576,5.802 L38.188,5.802 L38.188,12.606 Z M43.039,10.176 C43.0209999,9.77999802 42.8935012,9.4515013 42.6565,9.1905 C42.4194988,8.92949869 42.0820022,8.799 41.644,8.799 C41.439999,8.799 41.2510009,8.83649962 41.077,8.9115 C40.9029991,8.98650037 40.7500007,9.08849935 40.618,9.2175 C40.4859993,9.34650064 40.3810004,9.49349917 40.303,9.6585 C40.2249996,9.82350082 40.1800001,9.9959991 40.168,10.176 L43.039,10.176 Z M43.66,10.374 L43.66,10.509 C43.66,10.5570002 43.657,10.6079997 43.651,10.662 L40.159,10.662 C40.165,10.872001 40.2069996,11.0699991 40.285,11.256 C40.3630004,11.4420009 40.4709993,11.6039993 40.609,11.742 C40.7470007,11.8800007 40.9089991,11.9894996 41.095,12.0705 C41.2810009,12.1515004 41.4819989,12.192 41.698,12.192 C42.0160016,12.192 42.2904988,12.1185007 42.5215,11.9715 C42.7525012,11.8244993 42.9279994,11.655001 43.048,11.463 L43.507,11.823 C43.2549987,12.1410016 42.9775015,12.3689993 42.6745,12.507 C42.3714985,12.6450007 42.0460017,12.714 41.698,12.714 C41.3859984,12.714 41.0965013,12.6585006 40.8295,12.5475 C40.5624987,12.4364994 40.333001,12.282001 40.141,12.084 C39.948999,11.885999 39.7975006,11.6520013 39.6865,11.382 C39.5754994,11.1119986 39.52,10.8180016 39.52,10.5 C39.52,10.1819984 39.5739995,9.88800135 39.682,9.618 C39.7900005,9.34799865 39.939999,9.11400099 40.132,8.916 C40.324001,8.71799901 40.5489987,8.56350055 40.807,8.4525 C41.0650013,8.34149944 41.3439985,8.286 41.644,8.286 C41.9740017,8.286 42.2649987,8.34149944 42.517,8.4525 C42.7690013,8.56350055 42.9789992,8.71349905 43.147,8.9025 C43.3150008,9.09150094 43.4424996,9.31199874 43.5295,9.564 C43.6165004,9.81600126 43.66,10.0859986 43.66,10.374 L43.66,10.374 Z" id="Entry-title" fill="#A3A9B2" sketch:type="MSShapeGroup"></path>
            </g>
        </g>
    </g>
</svg>