<?xml version="1.0" encoding="UTF-8" standalone="no"?>
<svg width="76px" height="44px" viewBox="0 0 76 44" version="1.1" xmlns="http://www.w3.org/2000/svg" xmlns:xlink="http://www.w3.org/1999/xlink" xmlns:sketch="http://www.bohemiancoding.com/sketch/ns">
    <!-- Generator: Sketch 3.3.2 (12043) - http://www.bohemiancoding.com/sketch -->
    <title>references-card-widget</title>
    <desc>Created with Sketch.</desc>
    <defs></defs>
    <g id="Page-1" stroke="none" stroke-width="1" fill="none" fill-rule="evenodd" sketch:type="MSPage">
        <g id="contentful_icons" sketch:type="MSArtboardGroup" transform="translate(-300.000000, -656.000000)">
            <g id="references-card-widget" sketch:type="MSLayerGroup" transform="translate(300.000000, 656.000000)">
                <rect id="Rectangle-291-Copy-6" fill="#E7EBF0" sketch:type="MSShapeGroup" transform="translate(17.000000, 28.559775) scale(1, -1) translate(-17.000000, -28.559775) " x="7" y="20.5597746" width="20" height="16"></rect>
                <rect id="Rectangle-291-Copy-7" fill="#E7EBF0" sketch:type="MSShapeGroup" transform="translate(59.000000, 28.559775) scale(1, -1) translate(-59.000000, -28.559775) " x="49" y="20.5597746" width="20" height="16"></rect>
                <rect id="Rectangle-291" stroke="#9FAAC0" sketch:type="MSShapeGroup" x="0.5" y="0" width="33.8448276" height="43.0802038"></rect>
                <rect id="Rectangle-291-Copy-5" stroke="#9FAAC0" sketch:type="MSShapeGroup" x="42.1551724" y="0" width="33.8448276" height="43.0802038"></rect>
                <path d="M11.1185,14.5597746 L10.4705,14.5597746 L10.4705,8.76377455 L8.3375,8.76377455 L8.3375,8.18777455 L13.2515,8.18777455 L13.2515,8.76377455 L11.1185,8.76377455 L11.1185,14.5597746 Z M14.6825,14.5597746 L14.0705,14.5597746 L14.0705,10.3477746 L14.6825,10.3477746 L14.6825,14.5597746 Z M14.8085,8.72777455 C14.8085,8.85377518 14.7635005,8.95727415 14.6735,9.03827455 C14.5834996,9.11927496 14.4845005,9.15977455 14.3765,9.15977455 C14.2684995,9.15977455 14.1695005,9.11927496 14.0795,9.03827455 C13.9894996,8.95727415 13.9445,8.85377518 13.9445,8.72777455 C13.9445,8.60177392 13.9894996,8.49827496 14.0795,8.41727455 C14.1695005,8.33627415 14.2684995,8.29577455 14.3765,8.29577455 C14.4845005,8.29577455 14.5834996,8.33627415 14.6735,8.41727455 C14.7635005,8.49827496 14.8085,8.60177392 14.8085,8.72777455 L14.8085,8.72777455 Z M18.2105,10.8607746 L17.0225,10.8607746 L17.0225,13.3177746 C17.0225,13.4737753 17.0374999,13.602774 17.0675,13.7047746 C17.0975002,13.8067751 17.1409997,13.8862743 17.198,13.9432746 C17.2550003,14.0002748 17.3224996,14.0392744 17.4005,14.0602746 C17.4785004,14.0812747 17.5624996,14.0917746 17.6525,14.0917746 C17.7365004,14.0917746 17.8249995,14.0797747 17.918,14.0557746 C18.0110005,14.0317744 18.0994996,13.9987748 18.1835,13.9567746 L18.2105,14.4877746 C18.1024995,14.5297748 17.9900006,14.5612744 17.873,14.5822746 C17.7559994,14.6032747 17.6285007,14.6137746 17.4905,14.6137746 C17.3764994,14.6137746 17.2565006,14.5987747 17.1305,14.5687746 C17.0044994,14.5387744 16.8875005,14.481775 16.7795,14.3977746 C16.6714995,14.3137741 16.5830003,14.1997753 16.514,14.0557746 C16.4449997,13.9117738 16.4105,13.7227757 16.4105,13.4887746 L16.4105,10.8607746 L15.5375,10.8607746 L15.5375,10.3477746 L16.4105,10.3477746 L16.4105,9.15977455 L17.0225,9.15977455 L17.0225,10.3477746 L18.2105,10.3477746 L18.2105,10.8607746 Z M19.7945,14.5597746 L19.1825,14.5597746 L19.1825,7.75577455 L19.7945,7.75577455 L19.7945,14.5597746 Z M24.6455,12.1297746 C24.6274999,11.7337726 24.5000012,11.4052759 24.263,11.1442746 C24.0259988,10.8832732 23.6885022,10.7527746 23.2505,10.7527746 C23.046499,10.7527746 22.8575009,10.7902742 22.6835,10.8652746 C22.5094991,10.9402749 22.3565007,11.0422739 22.2245,11.1712746 C22.0924993,11.3002752 21.9875004,11.4472737 21.9095,11.6122746 C21.8314996,11.7772754 21.7865001,11.9497737 21.7745,12.1297746 L24.6455,12.1297746 Z M25.2665,12.3277746 L25.2665,12.4627746 C25.2665,12.5107748 25.2635,12.5617743 25.2575,12.6157746 L21.7655,12.6157746 C21.7715,12.8257756 21.8134996,13.0237736 21.8915,13.2097746 C21.9695004,13.3957755 22.0774993,13.5577739 22.2155,13.6957746 C22.3535007,13.8337752 22.5154991,13.9432741 22.7015,14.0242746 C22.8875009,14.105275 23.0884989,14.1457746 23.3045,14.1457746 C23.6225016,14.1457746 23.8969988,14.0722753 24.128,13.9252746 C24.3590012,13.7782738 24.5344994,13.6087755 24.6545,13.4167746 L25.1135,13.7767746 C24.8614987,14.0947761 24.5840015,14.3227739 24.281,14.4607746 C23.9779985,14.5987752 23.6525017,14.6677746 23.3045,14.6677746 C22.9924984,14.6677746 22.7030013,14.6122751 22.436,14.5012746 C22.1689987,14.390274 21.939501,14.2357755 21.7475,14.0377746 C21.555499,13.8397736 21.4040006,13.6057759 21.293,13.3357746 C21.1819994,13.0657732 21.1265,12.7717761 21.1265,12.4537746 C21.1265,12.135773 21.1804995,11.8417759 21.2885,11.5717746 C21.3965005,11.3017732 21.546499,11.0677755 21.7385,10.8697746 C21.930501,10.6717736 22.1554987,10.5172751 22.4135,10.4062746 C22.6715013,10.295274 22.9504985,10.2397746 23.2505,10.2397746 C23.5805017,10.2397746 23.8714987,10.295274 24.1235,10.4062746 C24.3755013,10.5172751 24.5854992,10.6672736 24.7535,10.8562746 C24.9215008,11.0452755 25.0489996,11.2657733 25.136,11.5177746 C25.2230004,11.7697758 25.2665,12.0397731 25.2665,12.3277746 L25.2665,12.3277746 Z" id="Title" fill="#A3A9B2" sketch:type="MSShapeGroup"></path>
                <path d="M53.1185,14.5597746 L52.4705,14.5597746 L52.4705,8.76377455 L50.3375,8.76377455 L50.3375,8.18777455 L55.2515,8.18777455 L55.2515,8.76377455 L53.1185,8.76377455 L53.1185,14.5597746 Z M56.6825,14.5597746 L56.0705,14.5597746 L56.0705,10.3477746 L56.6825,10.3477746 L56.6825,14.5597746 Z M56.8085,8.72777455 C56.8085,8.85377518 56.7635005,8.95727415 56.6735,9.03827455 C56.5834996,9.11927496 56.4845005,9.15977455 56.3765,9.15977455 C56.2684995,9.15977455 56.1695005,9.11927496 56.0795,9.03827455 C55.9894996,8.95727415 55.9445,8.85377518 55.9445,8.72777455 C55.9445,8.60177392 55.9894996,8.49827496 56.0795,8.41727455 C56.1695005,8.33627415 56.2684995,8.29577455 56.3765,8.29577455 C56.4845005,8.29577455 56.5834996,8.33627415 56.6735,8.41727455 C56.7635005,8.49827496 56.8085,8.60177392 56.8085,8.72777455 L56.8085,8.72777455 Z M60.2105,10.8607746 L59.0225,10.8607746 L59.0225,13.3177746 C59.0225,13.4737753 59.0374999,13.602774 59.0675,13.7047746 C59.0975002,13.8067751 59.1409997,13.8862743 59.198,13.9432746 C59.2550003,14.0002748 59.3224996,14.0392744 59.4005,14.0602746 C59.4785004,14.0812747 59.5624996,14.0917746 59.6525,14.0917746 C59.7365004,14.0917746 59.8249995,14.0797747 59.918,14.0557746 C60.0110005,14.0317744 60.0994996,13.9987748 60.1835,13.9567746 L60.2105,14.4877746 C60.1024995,14.5297748 59.9900006,14.5612744 59.873,14.5822746 C59.7559994,14.6032747 59.6285007,14.6137746 59.4905,14.6137746 C59.3764994,14.6137746 59.2565006,14.5987747 59.1305,14.5687746 C59.0044994,14.5387744 58.8875005,14.481775 58.7795,14.3977746 C58.6714995,14.3137741 58.5830003,14.1997753 58.514,14.0557746 C58.4449997,13.9117738 58.4105,13.7227757 58.4105,13.4887746 L58.4105,10.8607746 L57.5375,10.8607746 L57.5375,10.3477746 L58.4105,10.3477746 L58.4105,9.15977455 L59.0225,9.15977455 L59.0225,10.3477746 L60.2105,10.3477746 L60.2105,10.8607746 Z M61.7945,14.5597746 L61.1825,14.5597746 L61.1825,7.75577455 L61.7945,7.75577455 L61.7945,14.5597746 Z M66.6455,12.1297746 C66.6274999,11.7337726 66.5000012,11.4052759 66.263,11.1442746 C66.0259988,10.8832732 65.6885022,10.7527746 65.2505,10.7527746 C65.046499,10.7527746 64.8575009,10.7902742 64.6835,10.8652746 C64.5094991,10.9402749 64.3565007,11.0422739 64.2245,11.1712746 C64.0924993,11.3002752 63.9875004,11.4472737 63.9095,11.6122746 C63.8314996,11.7772754 63.7865001,11.9497737 63.7745,12.1297746 L66.6455,12.1297746 Z M67.2665,12.3277746 L67.2665,12.4627746 C67.2665,12.5107748 67.2635,12.5617743 67.2575,12.6157746 L63.7655,12.6157746 C63.7715,12.8257756 63.8134996,13.0237736 63.8915,13.2097746 C63.9695004,13.3957755 64.0774993,13.5577739 64.2155,13.6957746 C64.3535007,13.8337752 64.5154991,13.9432741 64.7015,14.0242746 C64.8875009,14.105275 65.0884989,14.1457746 65.3045,14.1457746 C65.6225016,14.1457746 65.8969988,14.0722753 66.128,13.9252746 C66.3590012,13.7782738 66.5344994,13.6087755 66.6545,13.4167746 L67.1135,13.7767746 C66.8614987,14.0947761 66.5840015,14.3227739 66.281,14.4607746 C65.9779985,14.5987752 65.6525017,14.6677746 65.3045,14.6677746 C64.9924984,14.6677746 64.7030013,14.6122751 64.436,14.5012746 C64.1689987,14.390274 63.939501,14.2357755 63.7475,14.0377746 C63.555499,13.8397736 63.4040006,13.6057759 63.293,13.3357746 C63.1819994,13.0657732 63.1265,12.7717761 63.1265,12.4537746 C63.1265,12.135773 63.1804995,11.8417759 63.2885,11.5717746 C63.3965005,11.3017732 63.546499,11.0677755 63.7385,10.8697746 C63.930501,10.6717736 64.1554987,10.5172751 64.4135,10.4062746 C64.6715013,10.295274 64.9504985,10.2397746 65.2505,10.2397746 C65.5805017,10.2397746 65.8714987,10.295274 66.1235,10.4062746 C66.3755013,10.5172751 66.5854992,10.6672736 66.7535,10.8562746 C66.9215008,11.0452755 67.0489996,11.2657733 67.136,11.5177746 C67.2230004,11.7697758 67.2665,12.0397731 67.2665,12.3277746 L67.2665,12.3277746 Z" id="Title" fill="#A3A9B2" sketch:type="MSShapeGroup"></path>
            </g>
        </g>
    </g>
</svg>