<?xml version="1.0" encoding="UTF-8" standalone="no"?>
<svg width="72px" height="42px" viewBox="0 0 72 42" version="1.1" xmlns="http://www.w3.org/2000/svg" xmlns:xlink="http://www.w3.org/1999/xlink" xmlns:sketch="http://www.bohemiancoding.com/sketch/ns">
    <!-- Generator: Sketch 3.3.2 (12043) - http://www.bohemiancoding.com/sketch -->
    <title>references-widget</title>
    <desc>Created with Sketch.</desc>
    <defs></defs>
    <g id="Page-1" stroke="none" stroke-width="1" fill="none" fill-rule="evenodd" sketch:type="MSPage">
        <g id="contentful_icons" sketch:type="MSArtboardGroup" transform="translate(-100.000000, -758.000000)">
            <g id="references-widget" sketch:type="MSLayerGroup" transform="translate(100.000000, 758.000000)">
                <rect id="Rectangle-291" fill="#E7EBEF" sketch:type="MSShapeGroup" x="0" y="0" width="72" height="19"></rect>
                <rect id="Rectangle-291-Copy-8" fill="#E7EBEF" sketch:type="MSShapeGroup" x="0" y="23" width="72" height="19"></rect>
                <path d="M6.994,12.03 L10.405,12.03 L10.405,12.606 L6.346,12.606 L6.346,6.234 L10.297,6.234 L10.297,6.81 L6.994,6.81 L6.994,9.006 L10.081,9.006 L10.081,9.573 L6.994,9.573 L6.994,12.03 Z M12.187,8.394 C12.1990001,8.50800057 12.208,8.63399931 12.214,8.772 C12.22,8.91000069 12.223,9.02399955 12.223,9.114 L12.241,9.114 C12.3610006,8.86799877 12.5559987,8.66850076 12.826,8.5155 C13.0960014,8.36249923 13.3809985,8.286 13.681,8.286 C14.2150027,8.286 14.6154987,8.44499841 14.8825,8.763 C15.1495013,9.08100159 15.283,9.50099739 15.283,10.023 L15.283,12.606 L14.671,12.606 L14.671,10.275 C14.671,10.0529989 14.6530002,9.8520009 14.617,9.672 C14.5809998,9.4919991 14.5195004,9.33750064 14.4325,9.2085 C14.3454996,9.07949935 14.2285007,8.97900036 14.0815,8.907 C13.9344993,8.83499964 13.7500011,8.799 13.528,8.799 C13.3659992,8.799 13.2085008,8.83199967 13.0555,8.898 C12.9024992,8.96400033 12.7660006,9.06449932 12.646,9.1995 C12.5259994,9.33450067 12.4300004,9.50549896 12.358,9.7125 C12.2859996,9.91950103 12.25,10.1639986 12.25,10.446 L12.25,12.606 L11.638,12.606 L11.638,9.321 C11.638,9.20699943 11.635,9.0600009 11.629,8.88 C11.623,8.6999991 11.6140001,8.53800072 11.602,8.394 L12.187,8.394 Z M18.766,8.907 L17.578,8.907 L17.578,11.364 C17.578,11.5200008 17.5929998,11.6489995 17.623,11.751 C17.6530001,11.8530005 17.6964997,11.9324997 17.7535,11.9895 C17.8105003,12.0465003 17.8779996,12.0854999 17.956,12.1065 C18.0340004,12.1275001 18.1179996,12.138 18.208,12.138 C18.2920004,12.138 18.3804995,12.1260001 18.4735,12.102 C18.5665005,12.0779999 18.6549996,12.0450002 18.739,12.003 L18.766,12.534 C18.6579995,12.5760002 18.5455006,12.6074999 18.4285,12.6285 C18.3114994,12.6495001 18.1840007,12.66 18.046,12.66 C17.9319994,12.66 17.8120006,12.6450001 17.686,12.615 C17.5599994,12.5849998 17.4430005,12.5280004 17.335,12.444 C17.2269995,12.3599996 17.1385003,12.2460007 17.0695,12.102 C17.0004997,11.9579993 16.966,11.7690012 16.966,11.535 L16.966,8.907 L16.093,8.907 L16.093,8.394 L16.966,8.394 L16.966,7.206 L17.578,7.206 L17.578,8.394 L18.766,8.394 L18.766,8.907 Z M19.72,9.321 C19.72,9.20699943 19.717,9.0600009 19.711,8.88 C19.705,8.6999991 19.6960001,8.53800072 19.684,8.394 L20.269,8.394 C20.2810001,8.50800057 20.29,8.63399931 20.296,8.772 C20.302,8.91000069 20.305,9.02399955 20.305,9.114 L20.323,9.114 C20.4430006,8.86799877 20.6229988,8.66850076 20.863,8.5155 C21.1030012,8.36249923 21.3729985,8.286 21.673,8.286 C21.7510004,8.286 21.8214997,8.28899997 21.8845,8.295 C21.9475003,8.30100003 22.0119997,8.31299991 22.078,8.331 L21.997,8.907 C21.9609998,8.89499994 21.9010004,8.88300006 21.817,8.871 C21.7329996,8.85899994 21.6490004,8.853 21.565,8.853 C21.4029992,8.853 21.2470008,8.8829997 21.097,8.943 C20.9469993,9.0030003 20.8165006,9.09749935 20.7055,9.2265 C20.5944994,9.35550064 20.5045003,9.52049899 20.4355,9.7215 C20.3664997,9.922501 20.332,10.1639986 20.332,10.446 L20.332,12.606 L19.72,12.606 L19.72,9.321 Z M24.409,11.949 L24.427,11.949 L25.732,8.394 L26.398,8.394 L24.301,13.695 C24.1749994,14.0190016 24.014501,14.278499 23.8195,14.4735 C23.624499,14.668501 23.3440018,14.766 22.978,14.766 C22.7919991,14.766 22.6090009,14.7480002 22.429,14.712 L22.492,14.154 C22.6360007,14.2020002 22.7859992,14.226 22.942,14.226 C23.1520011,14.226 23.3169994,14.1615006 23.437,14.0325 C23.5570006,13.9034994 23.6619996,13.7190012 23.752,13.479 L24.094,12.597 L22.294,8.394 L22.978,8.394 L24.409,11.949 Z M31.501,8.907 L30.313,8.907 L30.313,11.364 C30.313,11.5200008 30.3279999,11.6489995 30.358,11.751 C30.3880001,11.8530005 30.4314997,11.9324997 30.4885,11.9895 C30.5455003,12.0465003 30.6129996,12.0854999 30.691,12.1065 C30.7690004,12.1275001 30.8529996,12.138 30.943,12.138 C31.0270004,12.138 31.1154995,12.1260001 31.2085,12.102 C31.3015005,12.0779999 31.3899996,12.0450002 31.474,12.003 L31.501,12.534 C31.3929995,12.5760002 31.2805006,12.6074999 31.1635,12.6285 C31.0464994,12.6495001 30.9190007,12.66 30.781,12.66 C30.6669994,12.66 30.5470006,12.6450001 30.421,12.615 C30.2949994,12.5849998 30.1780005,12.5280004 30.07,12.444 C29.9619995,12.3599996 29.8735003,12.2460007 29.8045,12.102 C29.7354997,11.9579993 29.701,11.7690012 29.701,11.535 L29.701,8.907 L28.828,8.907 L28.828,8.394 L29.701,8.394 L29.701,7.206 L30.313,7.206 L30.313,8.394 L31.501,8.394 L31.501,8.907 Z M33.076,12.606 L32.464,12.606 L32.464,8.394 L33.076,8.394 L33.076,12.606 Z M33.202,6.774 C33.202,6.90000063 33.1570004,7.00349959 33.067,7.0845 C32.9769996,7.1655004 32.8780005,7.206 32.77,7.206 C32.6619995,7.206 32.5630005,7.1655004 32.473,7.0845 C32.3829995,7.00349959 32.338,6.90000063 32.338,6.774 C32.338,6.64799937 32.3829995,6.5445004 32.473,6.4635 C32.5630005,6.38249959 32.6619995,6.342 32.77,6.342 C32.8780005,6.342 32.9769996,6.38249959 33.067,6.4635 C33.1570004,6.5445004 33.202,6.64799937 33.202,6.774 L33.202,6.774 Z M36.604,8.907 L35.416,8.907 L35.416,11.364 C35.416,11.5200008 35.4309998,11.6489995 35.461,11.751 C35.4910001,11.8530005 35.5344997,11.9324997 35.5915,11.9895 C35.6485003,12.0465003 35.7159996,12.0854999 35.794,12.1065 C35.8720004,12.1275001 35.9559996,12.138 36.046,12.138 C36.1300004,12.138 36.2184995,12.1260001 36.3115,12.102 C36.4045005,12.0779999 36.4929996,12.0450002 36.577,12.003 L36.604,12.534 C36.4959995,12.5760002 36.3835006,12.6074999 36.2665,12.6285 C36.1494994,12.6495001 36.0220007,12.66 35.884,12.66 C35.7699994,12.66 35.6500006,12.6450001 35.524,12.615 C35.3979994,12.5849998 35.2810005,12.5280004 35.173,12.444 C35.0649995,12.3599996 34.9765003,12.2460007 34.9075,12.102 C34.8384997,11.9579993 34.804,11.7690012 34.804,11.535 L34.804,8.907 L33.931,8.907 L33.931,8.394 L34.804,8.394 L34.804,7.206 L35.416,7.206 L35.416,8.394 L36.604,8.394 L36.604,8.907 Z M38.188,12.606 L37.576,12.606 L37.576,5.802 L38.188,5.802 L38.188,12.606 Z M43.039,10.176 C43.0209999,9.77999802 42.8935012,9.4515013 42.6565,9.1905 C42.4194988,8.92949869 42.0820022,8.799 41.644,8.799 C41.439999,8.799 41.2510009,8.83649962 41.077,8.9115 C40.9029991,8.98650037 40.7500007,9.08849935 40.618,9.2175 C40.4859993,9.34650064 40.3810004,9.49349917 40.303,9.6585 C40.2249996,9.82350082 40.1800001,9.9959991 40.168,10.176 L43.039,10.176 Z M43.66,10.374 L43.66,10.509 C43.66,10.5570002 43.657,10.6079997 43.651,10.662 L40.159,10.662 C40.165,10.872001 40.2069996,11.0699991 40.285,11.256 C40.3630004,11.4420009 40.4709993,11.6039993 40.609,11.742 C40.7470007,11.8800007 40.9089991,11.9894996 41.095,12.0705 C41.2810009,12.1515004 41.4819989,12.192 41.698,12.192 C42.0160016,12.192 42.2904988,12.1185007 42.5215,11.9715 C42.7525012,11.8244993 42.9279994,11.655001 43.048,11.463 L43.507,11.823 C43.2549987,12.1410016 42.9775015,12.3689993 42.6745,12.507 C42.3714985,12.6450007 42.0460017,12.714 41.698,12.714 C41.3859984,12.714 41.0965013,12.6585006 40.8295,12.5475 C40.5624987,12.4364994 40.333001,12.282001 40.141,12.084 C39.948999,11.885999 39.7975006,11.6520013 39.6865,11.382 C39.5754994,11.1119986 39.52,10.8180016 39.52,10.5 C39.52,10.1819984 39.5739995,9.88800135 39.682,9.618 C39.7900005,9.34799865 39.939999,9.11400099 40.132,8.916 C40.324001,8.71799901 40.5489987,8.56350055 40.807,8.4525 C41.0650013,8.34149944 41.3439985,8.286 41.644,8.286 C41.9740017,8.286 42.2649987,8.34149944 42.517,8.4525 C42.7690013,8.56350055 42.9789992,8.71349905 43.147,8.9025 C43.3150008,9.09150094 43.4424996,9.31199874 43.5295,9.564 C43.6165004,9.81600126 43.66,10.0859986 43.66,10.374 L43.66,10.374 Z" id="Entry-title" fill="#A3A9B2" sketch:type="MSShapeGroup"></path>
                <path d="M8.695,35.768 C8.2149976,35.768 7.82200153,35.6855008 7.516,35.5205 C7.20999847,35.3554992 6.9670009,35.1470013 6.787,34.895 C6.6069991,34.6429987 6.48250034,34.3685015 6.4135,34.0715 C6.34449965,33.7744985 6.31,33.4940013 6.31,33.23 L6.31,29.234 L6.958,29.234 L6.958,33.158 C6.958,33.4160013 6.9879997,33.6664988 7.048,33.9095 C7.1080003,34.1525012 7.20549932,34.3684991 7.3405,34.5575 C7.47550067,34.7465009 7.65399889,34.8994994 7.876,35.0165 C8.09800111,35.1335006 8.37099838,35.192 8.695,35.192 C9.01900162,35.192 9.29199889,35.1335006 9.514,35.0165 C9.73600111,34.8994994 9.91449932,34.7465009 10.0495,34.5575 C10.1845007,34.3684991 10.2819997,34.1525012 10.342,33.9095 C10.4020003,33.6664988 10.432,33.4160013 10.432,33.158 L10.432,29.234 L11.08,29.234 L11.08,33.23 C11.08,33.4940013 11.0455003,33.7744985 10.9765,34.0715 C10.9074997,34.3685015 10.7830009,34.6429987 10.603,34.895 C10.4229991,35.1470013 10.1785015,35.3554992 9.8695,35.5205 C9.56049845,35.6855008 9.16900237,35.768 8.695,35.768 L8.695,35.768 Z M13.249,31.394 C13.2610001,31.5080006 13.27,31.6339993 13.276,31.772 C13.282,31.9100007 13.285,32.0239995 13.285,32.114 L13.303,32.114 C13.4230006,31.8679988 13.6179986,31.6685008 13.888,31.5155 C14.1580013,31.3624992 14.4429985,31.286 14.743,31.286 C15.2770027,31.286 15.6774987,31.4449984 15.9445,31.763 C16.2115013,32.0810016 16.345,32.5009974 16.345,33.023 L16.345,35.606 L15.733,35.606 L15.733,33.275 C15.733,33.0529989 15.7150002,32.8520009 15.679,32.672 C15.6429998,32.4919991 15.5815004,32.3375006 15.4945,32.2085 C15.4074996,32.0794994 15.2905007,31.9790004 15.1435,31.907 C14.9964993,31.8349996 14.8120011,31.799 14.59,31.799 C14.4279992,31.799 14.2705008,31.8319997 14.1175,31.898 C13.9644992,31.9640003 13.8280006,32.0644993 13.708,32.1995 C13.5879994,32.3345007 13.4920004,32.505499 13.42,32.7125 C13.3479996,32.919501 13.312,33.1639986 13.312,33.446 L13.312,35.606 L12.7,35.606 L12.7,32.321 C12.7,32.2069994 12.697,32.0600009 12.691,31.88 C12.685,31.6999991 12.6760001,31.5380007 12.664,31.394 L13.249,31.394 Z M19.828,31.907 L18.64,31.907 L18.64,34.364 C18.64,34.5200008 18.6549998,34.6489995 18.685,34.751 C18.7150001,34.8530005 18.7584997,34.9324997 18.8155,34.9895 C18.8725003,35.0465003 18.9399996,35.0854999 19.018,35.1065 C19.0960004,35.1275001 19.1799995,35.138 19.27,35.138 C19.3540004,35.138 19.4424995,35.1260001 19.5355,35.102 C19.6285005,35.0779999 19.7169996,35.0450002 19.801,35.003 L19.828,35.534 C19.7199995,35.5760002 19.6075006,35.6074999 19.4905,35.6285 C19.3734994,35.6495001 19.2460007,35.66 19.108,35.66 C18.9939994,35.66 18.8740006,35.6450001 18.748,35.615 C18.6219994,35.5849998 18.5050005,35.5280004 18.397,35.444 C18.2889995,35.3599996 18.2005003,35.2460007 18.1315,35.102 C18.0624997,34.9579993 18.028,34.7690012 18.028,34.535 L18.028,31.907 L17.155,31.907 L17.155,31.394 L18.028,31.394 L18.028,30.206 L18.64,30.206 L18.64,31.394 L19.828,31.394 L19.828,31.907 Z M21.403,35.606 L20.791,35.606 L20.791,31.394 L21.403,31.394 L21.403,35.606 Z M21.529,29.774 C21.529,29.9000006 21.4840004,30.0034996 21.394,30.0845 C21.3039995,30.1655004 21.2050005,30.206 21.097,30.206 C20.9889995,30.206 20.8900004,30.1655004 20.8,30.0845 C20.7099995,30.0034996 20.665,29.9000006 20.665,29.774 C20.665,29.6479994 20.7099995,29.5445004 20.8,29.4635 C20.8900004,29.3824996 20.9889995,29.342 21.097,29.342 C21.2050005,29.342 21.3039995,29.3824996 21.394,29.4635 C21.4840004,29.5445004 21.529,29.6479994 21.529,29.774 L21.529,29.774 Z M24.931,31.907 L23.743,31.907 L23.743,34.364 C23.743,34.5200008 23.7579998,34.6489995 23.788,34.751 C23.8180001,34.8530005 23.8614997,34.9324997 23.9185,34.9895 C23.9755003,35.0465003 24.0429996,35.0854999 24.121,35.1065 C24.1990004,35.1275001 24.2829995,35.138 24.373,35.138 C24.4570004,35.138 24.5454995,35.1260001 24.6385,35.102 C24.7315005,35.0779999 24.8199996,35.0450002 24.904,35.003 L24.931,35.534 C24.8229995,35.5760002 24.7105006,35.6074999 24.5935,35.6285 C24.4764994,35.6495001 24.3490007,35.66 24.211,35.66 C24.0969994,35.66 23.9770006,35.6450001 23.851,35.615 C23.7249994,35.5849998 23.6080005,35.5280004 23.5,35.444 C23.3919995,35.3599996 23.3035003,35.2460007 23.2345,35.102 C23.1654997,34.9579993 23.131,34.7690012 23.131,34.535 L23.131,31.907 L22.258,31.907 L22.258,31.394 L23.131,31.394 L23.131,30.206 L23.743,30.206 L23.743,31.394 L24.931,31.394 L24.931,31.907 Z M26.515,35.606 L25.903,35.606 L25.903,28.802 L26.515,28.802 L26.515,35.606 Z M31.366,33.176 C31.3479999,32.779998 31.2205012,32.4515013 30.9835,32.1905 C30.7464988,31.9294987 30.4090022,31.799 29.971,31.799 C29.766999,31.799 29.5780009,31.8364996 29.404,31.9115 C29.2299991,31.9865004 29.0770007,32.0884994 28.945,32.2175 C28.8129993,32.3465006 28.7080004,32.4934992 28.63,32.6585 C28.5519996,32.8235008 28.5070001,32.9959991 28.495,33.176 L31.366,33.176 Z M31.987,33.374 L31.987,33.509 C31.987,33.5570002 31.984,33.6079997 31.978,33.662 L28.486,33.662 C28.492,33.872001 28.5339996,34.0699991 28.612,34.256 C28.6900004,34.4420009 28.7979993,34.6039993 28.936,34.742 C29.0740007,34.8800007 29.2359991,34.9894996 29.422,35.0705 C29.6080009,35.1515004 29.8089989,35.192 30.025,35.192 C30.3430016,35.192 30.6174988,35.1185007 30.8485,34.9715 C31.0795012,34.8244993 31.2549994,34.655001 31.375,34.463 L31.834,34.823 C31.5819987,35.1410016 31.3045015,35.3689993 31.0015,35.507 C30.6984985,35.6450007 30.3730017,35.714 30.025,35.714 C29.7129984,35.714 29.4235013,35.6585006 29.1565,35.5475 C28.8894987,35.4364994 28.660001,35.282001 28.468,35.084 C28.275999,34.885999 28.1245006,34.6520013 28.0135,34.382 C27.9024994,34.1119986 27.847,33.8180016 27.847,33.5 C27.847,33.1819984 27.9009995,32.8880013 28.009,32.618 C28.1170005,32.3479986 28.266999,32.114001 28.459,31.916 C28.651001,31.717999 28.8759987,31.5635006 29.134,31.4525 C29.3920013,31.3414994 29.6709985,31.286 29.971,31.286 C30.3010016,31.286 30.5919987,31.3414994 30.844,31.4525 C31.0960013,31.5635006 31.3059992,31.7134991 31.474,31.9025 C31.6420008,32.0915009 31.7694996,32.3119987 31.8565,32.564 C31.9435004,32.8160013 31.987,33.0859986 31.987,33.374 L31.987,33.374 Z M36.766,34.895 C36.5859991,35.1650013 36.3520014,35.3689993 36.064,35.507 C35.7759986,35.6450007 35.4790015,35.714 35.173,35.714 C34.8429983,35.714 34.5445013,35.6570006 34.2775,35.543 C34.0104987,35.4289994 33.7825009,35.273001 33.5935,35.075 C33.4044991,34.876999 33.2575005,34.6430013 33.1525,34.373 C33.0474995,34.1029986 32.995,33.8120016 32.995,33.5 C32.995,33.1879984 33.0474995,32.8970013 33.1525,32.627 C33.2575005,32.3569986 33.4044991,32.123001 33.5935,31.925 C33.7825009,31.726999 34.0104987,31.5710006 34.2775,31.457 C34.5445013,31.3429994 34.8429983,31.286 35.173,31.286 C35.4790015,31.286 35.7759986,31.3564993 36.064,31.4975 C36.3520014,31.6385007 36.5859991,31.8469986 36.766,32.123 L36.784,32.123 L36.784,28.802 L37.396,28.802 L37.396,35.606 L36.784,35.606 L36.784,34.895 L36.766,34.895 Z M33.643,33.5 C33.643,33.7340012 33.6789996,33.954499 33.751,34.1615 C33.8230004,34.368501 33.9264993,34.5484992 34.0615,34.7015 C34.1965007,34.8545008 34.362999,34.9744996 34.561,35.0615 C34.759001,35.1485004 34.9839987,35.192 35.236,35.192 C35.4700012,35.192 35.685999,35.1485004 35.884,35.0615 C36.082001,34.9744996 36.2529993,34.8560007 36.397,34.706 C36.5410007,34.5559992 36.6534996,34.377501 36.7345,34.1705 C36.8155004,33.963499 36.856,33.7400012 36.856,33.5 C36.856,33.2599988 36.8155004,33.036501 36.7345,32.8295 C36.6534996,32.622499 36.5410007,32.4425008 36.397,32.2895 C36.2529993,32.1364992 36.082001,32.0165004 35.884,31.9295 C35.685999,31.8424996 35.4700012,31.799 35.236,31.799 C34.9839987,31.799 34.759001,31.8439995 34.561,31.934 C34.362999,32.0240004 34.1965007,32.1454992 34.0615,32.2985 C33.9264993,32.4515008 33.8230004,32.631499 33.751,32.8385 C33.6789996,33.045501 33.643,33.2659988 33.643,33.5 L33.643,33.5 Z M44.497,33.176 C44.4789999,32.779998 44.3515012,32.4515013 44.1145,32.1905 C43.8774988,31.9294987 43.5400022,31.799 43.102,31.799 C42.897999,31.799 42.7090009,31.8364996 42.535,31.9115 C42.3609991,31.9865004 42.2080007,32.0884994 42.076,32.2175 C41.9439993,32.3465006 41.8390004,32.4934992 41.761,32.6585 C41.6829996,32.8235008 41.6380001,32.9959991 41.626,33.176 L44.497,33.176 Z M45.118,33.374 L45.118,33.509 C45.118,33.5570002 45.115,33.6079997 45.109,33.662 L41.617,33.662 C41.623,33.872001 41.6649996,34.0699991 41.743,34.256 C41.8210004,34.4420009 41.9289993,34.6039993 42.067,34.742 C42.2050007,34.8800007 42.3669991,34.9894996 42.553,35.0705 C42.7390009,35.1515004 42.9399989,35.192 43.156,35.192 C43.4740016,35.192 43.7484988,35.1185007 43.9795,34.9715 C44.2105012,34.8244993 44.3859994,34.655001 44.506,34.463 L44.965,34.823 C44.7129987,35.1410016 44.4355015,35.3689993 44.1325,35.507 C43.8294985,35.6450007 43.5040017,35.714 43.156,35.714 C42.8439984,35.714 42.5545013,35.6585006 42.2875,35.5475 C42.0204987,35.4364994 41.791001,35.282001 41.599,35.084 C41.406999,34.885999 41.2555006,34.6520013 41.1445,34.382 C41.0334994,34.1119986 40.978,33.8180016 40.978,33.5 C40.978,33.1819984 41.0319995,32.8880013 41.14,32.618 C41.2480005,32.3479986 41.397999,32.114001 41.59,31.916 C41.782001,31.717999 42.0069987,31.5635006 42.265,31.4525 C42.5230013,31.3414994 42.8019985,31.286 43.102,31.286 C43.4320016,31.286 43.7229987,31.3414994 43.975,31.4525 C44.2270013,31.5635006 44.4369992,31.7134991 44.605,31.9025 C44.7730008,32.0915009 44.9004996,32.3119987 44.9875,32.564 C45.0745004,32.8160013 45.118,33.0859986 45.118,33.374 L45.118,33.374 Z M46.981,31.394 C46.9930001,31.5080006 47.002,31.6339993 47.008,31.772 C47.014,31.9100007 47.017,32.0239995 47.017,32.114 L47.035,32.114 C47.1550006,31.8679988 47.3499986,31.6685008 47.62,31.5155 C47.8900013,31.3624992 48.1749985,31.286 48.475,31.286 C49.0090027,31.286 49.4094987,31.4449984 49.6765,31.763 C49.9435013,32.0810016 50.077,32.5009974 50.077,33.023 L50.077,35.606 L49.465,35.606 L49.465,33.275 C49.465,33.0529989 49.4470002,32.8520009 49.411,32.672 C49.3749998,32.4919991 49.3135004,32.3375006 49.2265,32.2085 C49.1394996,32.0794994 49.0225007,31.9790004 48.8755,31.907 C48.7284993,31.8349996 48.5440011,31.799 48.322,31.799 C48.1599992,31.799 48.0025008,31.8319997 47.8495,31.898 C47.6964992,31.9640003 47.5600006,32.0644993 47.44,32.1995 C47.3199994,32.3345007 47.2240004,32.505499 47.152,32.7125 C47.0799996,32.919501 47.044,33.1639986 47.044,33.446 L47.044,35.606 L46.432,35.606 L46.432,32.321 C46.432,32.2069994 46.429,32.0600009 46.423,31.88 C46.417,31.6999991 46.4080001,31.5380007 46.396,31.394 L46.981,31.394 Z M53.56,31.907 L52.372,31.907 L52.372,34.364 C52.372,34.5200008 52.3869998,34.6489995 52.417,34.751 C52.4470001,34.8530005 52.4904997,34.9324997 52.5475,34.9895 C52.6045003,35.0465003 52.6719996,35.0854999 52.75,35.1065 C52.8280004,35.1275001 52.9119995,35.138 53.002,35.138 C53.0860004,35.138 53.1744995,35.1260001 53.2675,35.102 C53.3605005,35.0779999 53.4489996,35.0450002 53.533,35.003 L53.56,35.534 C53.4519995,35.5760002 53.3395006,35.6074999 53.2225,35.6285 C53.1054994,35.6495001 52.9780007,35.66 52.84,35.66 C52.7259994,35.66 52.6060006,35.6450001 52.48,35.615 C52.3539994,35.5849998 52.2370005,35.5280004 52.129,35.444 C52.0209995,35.3599996 51.9325003,35.2460007 51.8635,35.102 C51.7944997,34.9579993 51.76,34.7690012 51.76,34.535 L51.76,31.907 L50.887,31.907 L50.887,31.394 L51.76,31.394 L51.76,30.206 L52.372,30.206 L52.372,31.394 L53.56,31.394 L53.56,31.907 Z M54.514,32.321 C54.514,32.2069994 54.511,32.0600009 54.505,31.88 C54.499,31.6999991 54.4900001,31.5380007 54.478,31.394 L55.063,31.394 C55.0750001,31.5080006 55.084,31.6339993 55.09,31.772 C55.096,31.9100007 55.099,32.0239995 55.099,32.114 L55.117,32.114 C55.2370006,31.8679988 55.4169988,31.6685008 55.657,31.5155 C55.8970012,31.3624992 56.1669985,31.286 56.467,31.286 C56.5450004,31.286 56.6154997,31.289 56.6785,31.295 C56.7415003,31.301 56.8059997,31.3129999 56.872,31.331 L56.791,31.907 C56.7549998,31.8949999 56.6950004,31.8830001 56.611,31.871 C56.5269996,31.8589999 56.4430004,31.853 56.359,31.853 C56.1969992,31.853 56.0410007,31.8829997 55.891,31.943 C55.7409992,32.0030003 55.6105006,32.0974994 55.4995,32.2265 C55.3884994,32.3555006 55.2985003,32.520499 55.2295,32.7215 C55.1604997,32.922501 55.126,33.1639986 55.126,33.446 L55.126,35.606 L54.514,35.606 L54.514,32.321 Z M59.203,34.949 L59.221,34.949 L60.526,31.394 L61.192,31.394 L59.095,36.695 C58.9689994,37.0190016 58.808501,37.278499 58.6135,37.4735 C58.418499,37.668501 58.1380018,37.766 57.772,37.766 C57.5859991,37.766 57.4030009,37.7480002 57.223,37.712 L57.286,37.154 C57.4300007,37.2020002 57.5799992,37.226 57.736,37.226 C57.946001,37.226 58.1109994,37.1615006 58.231,37.0325 C58.3510006,36.9034994 58.4559995,36.7190012 58.546,36.479 L58.888,35.597 L57.088,31.394 L57.772,31.394 L59.203,34.949 Z" id="Untitled-entry" fill="#A2A9B1" sketch:type="MSShapeGroup"></path>
            </g>
        </g>
    </g>
</svg>