<?xml version="1.0" encoding="utf-8"?>
<!-- Generator: Adobe Illustrator 21.1.0, SVG Export Plug-In . SVG Version: 6.00 Build 0)  -->
<svg version="1.1" id="Layer_1" xmlns="http://www.w3.org/2000/svg" xmlns:xlink="http://www.w3.org/1999/xlink" x="0px" y="0px"
	 width="48px" height="30px" viewBox="0 0 48 30" enable-background="new 0 0 48 30" xml:space="preserve">
<g>
	<path d="M11.5,29.9c-5.5,0-9.6-1.6-10.8-4.7C-1.5,19.4,7,10.9,20,5.9C24.4,4.2,28.9,3,33,2.6c0.6,0,1,0.3,1.1,0.9
		c0.1,0.5-0.3,1-0.9,1.1C29.3,5,25,6.1,20.7,7.7C7.9,12.7,1,20.4,2.6,24.5c1.6,4.1,11.9,5,24.7,0.1c12.8-5,19.8-12.7,18.2-16.7
		c-0.6-1.6-2.4-2.4-3.7-2.8c-0.5-0.2-0.8-0.7-0.7-1.2c0.2-0.5,0.7-0.8,1.2-0.7c2.6,0.8,4.3,2.1,5,4C49.5,12.8,41,21.3,28,26.4
		C22,28.7,16.2,29.9,11.5,29.9z"/>
	<path d="M15,25.2c-0.5,0-1-0.4-1-1c0-0.6,0.4-1,1-1c3.1,0,7-0.9,10.8-2.4c8-3.1,13-7.9,12.2-10.1c-0.4-1-2.3-1.6-5-1.6
		c-3.1,0-7,0.9-10.8,2.4c-5,1.9-9.3,4.7-11.2,7.3c-0.3,0.4-1,0.5-1.4,0.2c-0.4-0.3-0.5-1-0.2-1.4c2.2-2.9,6.7-5.8,12.1-7.9
		C25.6,8,29.7,7.1,33,7.1c3.8,0,6.1,1,6.8,2.9c1.6,4.2-5.6,9.7-13.3,12.7C22.4,24.2,18.4,25.1,15,25.2C15,25.2,15,25.2,15,25.2z"/>
	<path d="M23,20.1c-2.2,0-4-1.8-4-4c0-2.2,1.8-4,4-4c2.2,0,4,1.8,4,4C27,18.3,25.2,20.1,23,20.1z M23,14.1c-1.1,0-2,0.9-2,2
		c0,1.1,0.9,2,2,2c1.1,0,2-0.9,2-2C25,15,24.1,14.1,23,14.1z"/>
	<path d="M38,6.1c-1.7,0-3-1.3-3-3s1.3-3,3-3s3,1.3,3,3S39.7,6.1,38,6.1z M38,2.1c-0.6,0-1,0.4-1,1s0.4,1,1,1s1-0.4,1-1
		S38.6,2.1,38,2.1z"/>
	<path d="M10,26.1c-1.7,0-3-1.3-3-3s1.3-3,3-3s3,1.3,3,3S11.7,26.1,10,26.1z M10,22.1c-0.6,0-1,0.4-1,1s0.4,1,1,1s1-0.4,1-1
		S10.6,22.1,10,22.1z"/>
</g>
</svg>
