<?xml version="1.0" encoding="UTF-8" standalone="no"?>
<svg width="72px" height="16px" viewBox="0 0 72 16" version="1.1" xmlns="http://www.w3.org/2000/svg" xmlns:xlink="http://www.w3.org/1999/xlink" xmlns:sketch="http://www.bohemiancoding.com/sketch/ns">
    <!-- Generator: Sketch 3.3.2 (12043) - http://www.bohemiancoding.com/sketch -->
    <title>singleline-widget</title>
    <desc>Created with Sketch.</desc>
    <defs></defs>
    <g id="Page-1" stroke="none" stroke-width="1" fill="none" fill-rule="evenodd" sketch:type="MSPage">
        <g id="contentful_icons" sketch:type="MSArtboardGroup" transform="translate(0.000000, -655.000000)">
            <g id="singleline-widget" sketch:type="MSLayerGroup" transform="translate(0.000000, 655.000000)">
                <rect id="Rectangle-291" stroke="#9FAAC0" sketch:type="MSShapeGroup" x="0" y="0" width="72" height="16"></rect>
                <path d="M4.94,3.92 L7.05,3.92 C7.316668,3.92 7.5866653,3.94833305 7.86,4.005 C8.1333347,4.06166695 8.37833225,4.15833265 8.595,4.295 C8.81166775,4.43166735 8.98833265,4.6166655 9.125,4.85 C9.26166735,5.0833345 9.33,5.3766649 9.33,5.73 C9.33,6.1033352 9.2166678,6.42833195 8.99,6.705 C8.7633322,6.98166805 8.4600019,7.1633329 8.08,7.25 L8.08,7.27 C8.5400023,7.3233336 8.92166515,7.50166515 9.225,7.805 C9.52833485,8.10833485 9.68,8.5199974 9.68,9.04 C9.68,9.3333348 9.61833395,9.60166545 9.495,9.845 C9.37166605,10.0883346 9.1966678,10.2949992 8.97,10.465 C8.7433322,10.6350009 8.4666683,10.7666662 8.14,10.86 C7.8133317,10.9533338 7.4466687,11 7.04,11 L4.94,11 L4.94,3.92 Z M5.66,7.02 L7.11,7.02 C7.2833342,7.02 7.45833245,7.0000002 7.635,6.96 C7.81166755,6.9199998 7.9733326,6.85166715 8.12,6.755 C8.2666674,6.65833285 8.38499955,6.5300008 8.475,6.37 C8.56500045,6.2099992 8.61,6.0133345 8.61,5.78 C8.61,5.5533322 8.56500045,5.36166745 8.475,5.205 C8.38499955,5.04833255 8.2633341,4.9200005 8.11,4.82 C7.9566659,4.7199995 7.7766677,4.64833355 7.57,4.605 C7.3633323,4.56166645 7.1433345,4.54 6.91,4.54 L5.66,4.54 L5.66,7.02 Z M5.66,10.38 L7,10.38 C7.2600013,10.38 7.50833215,10.3550003 7.745,10.305 C7.98166785,10.2549998 8.18833245,10.1750006 8.365,10.065 C8.54166755,9.95499945 8.6833328,9.81166755 8.79,9.635 C8.8966672,9.45833245 8.95,9.2466679 8.95,9 C8.95,8.533331 8.79166825,8.18500115 8.475,7.955 C8.15833175,7.72499885 7.7100029,7.61 7.13,7.61 L5.66,7.61 L5.66,10.38 Z M11.26,7.35 C11.26,7.2233327 11.2566667,7.060001 11.25,6.86 C11.2433333,6.659999 11.2333334,6.4800008 11.22,6.32 L11.87,6.32 C11.8833334,6.4466673 11.8933333,6.5866659 11.9,6.74 C11.9066667,6.8933341 11.91,7.0199995 11.91,7.12 L11.93,7.12 C12.063334,6.8466653 12.263332,6.62500085 12.53,6.455 C12.796668,6.28499915 13.096665,6.2 13.43,6.2 C13.5166671,6.2 13.5949997,6.2033333 13.665,6.21 C13.7350004,6.2166667 13.8066663,6.2299999 13.88,6.25 L13.79,6.89 C13.7499998,6.8766666 13.6833338,6.8633334 13.59,6.85 C13.4966662,6.8366666 13.4033338,6.83 13.31,6.83 C13.1299991,6.83 12.9566675,6.863333 12.79,6.93 C12.6233325,6.996667 12.478334,7.10166595 12.355,7.245 C12.2316661,7.38833405 12.1316671,7.57166555 12.055,7.795 C11.978333,8.01833445 11.94,8.2866651 11.94,8.6 L11.94,11 L11.26,11 L11.26,7.35 Z M18.25,8.3 C18.2299999,7.8599978 18.0883347,7.49500145 17.825,7.205 C17.5616654,6.91499855 17.1866691,6.77 16.7,6.77 C16.4733322,6.77 16.2633343,6.81166625 16.07,6.895 C15.8766657,6.97833375 15.7066674,7.09166595 15.56,7.235 C15.4133326,7.37833405 15.2966671,7.54166575 15.21,7.725 C15.1233329,7.90833425 15.0733334,8.099999 15.06,8.3 L18.25,8.3 Z M18.94,8.52 L18.94,8.67 C18.94,8.7233336 18.9366667,8.7799997 18.93,8.84 L15.05,8.84 C15.0566667,9.0733345 15.1033329,9.2933323 15.19,9.5 C15.2766671,9.7066677 15.3966659,9.8866659 15.55,10.04 C15.7033341,10.1933341 15.8833323,10.3149996 16.09,10.405 C16.2966677,10.4950005 16.5199988,10.54 16.76,10.54 C17.1133351,10.54 17.4183321,10.4583342 17.675,10.295 C17.931668,10.1316659 18.126666,9.9433344 18.26,9.73 L18.77,10.13 C18.4899986,10.4833351 18.1816684,10.7366659 17.845,10.89 C17.5083317,11.0433341 17.1466686,11.12 16.76,11.12 C16.4133316,11.12 16.0916682,11.058334 15.795,10.935 C15.4983319,10.8116661 15.2433344,10.6400011 15.03,10.42 C14.8166656,10.1999989 14.648334,9.9400015 14.525,9.64 C14.4016661,9.3399985 14.34,9.0133351 14.34,8.66 C14.34,8.3066649 14.3999994,7.9800015 14.52,7.68 C14.6400006,7.3799985 14.8066656,7.1200011 15.02,6.9 C15.2333344,6.6799989 15.4833319,6.50833395 15.77,6.385 C16.0566681,6.26166605 16.366665,6.2 16.7,6.2 C17.0666685,6.2 17.3899986,6.26166605 17.67,6.385 C17.9500014,6.50833395 18.1833324,6.67499895 18.37,6.885 C18.5566676,7.09500105 18.6983329,7.3399986 18.795,7.62 C18.8916672,7.9000014 18.94,8.1999984 18.94,8.52 L18.94,8.52 Z M23.29,7.98 C23.29,7.5733313 23.1833344,7.270001 22.97,7.07 C22.7566656,6.869999 22.4466687,6.77 22.04,6.77 C21.7599986,6.77 21.5000012,6.8199995 21.26,6.92 C21.0199988,7.0200005 20.8166675,7.1533325 20.65,7.32 L20.27,6.87 C20.4633343,6.6766657 20.7183318,6.5166673 21.035,6.39 C21.3516683,6.2633327 21.709998,6.2 22.11,6.2 C22.3633346,6.2 22.5999989,6.23499965 22.82,6.305 C23.0400011,6.37500035 23.2333325,6.4799993 23.4,6.62 C23.5666675,6.7600007 23.6966662,6.9366656 23.79,7.15 C23.8833338,7.3633344 23.93,7.6133319 23.93,7.9 L23.93,9.95 C23.93,10.1300009 23.9366666,10.3166657 23.95,10.51 C23.9633334,10.7033343 23.9833332,10.866666 24.01,11 L23.4,11 C23.3799999,10.8866661 23.3633334,10.763334 23.35,10.63 C23.3366666,10.496666 23.33,10.3666673 23.33,10.24 L23.31,10.24 C23.0966656,10.5533349 22.8550014,10.7783327 22.585,10.915 C22.3149987,11.0516674 21.9900019,11.12 21.61,11.12 C21.4299991,11.12 21.245001,11.0950003 21.055,11.045 C20.8649991,10.9949998 20.6916675,10.9133339 20.535,10.8 C20.3783326,10.6866661 20.2483339,10.5400009 20.145,10.36 C20.0416662,10.1799991 19.99,9.9600013 19.99,9.7 C19.99,9.3399982 20.0816658,9.05500105 20.265,8.845 C20.4483343,8.63499895 20.6933318,8.47833385 21,8.375 C21.3066682,8.27166615 21.6583314,8.20500015 22.055,8.175 C22.4516687,8.14499985 22.8633312,8.13 23.29,8.13 L23.29,7.98 Z M23.09,8.66 C22.8099986,8.66 22.5283348,8.67166655 22.245,8.695 C21.9616653,8.71833345 21.7050012,8.76499965 21.475,8.835 C21.2449989,8.90500035 21.0566674,9.006666 20.91,9.14 C20.7633326,9.273334 20.69,9.4499989 20.69,9.67 C20.69,9.8366675 20.7216664,9.9766661 20.785,10.09 C20.8483337,10.2033339 20.9333328,10.2949997 21.04,10.365 C21.1466672,10.4350004 21.2649994,10.4849999 21.395,10.515 C21.5250007,10.5450002 21.656666,10.56 21.79,10.56 C22.0300012,10.56 22.2433324,10.5183338 22.43,10.435 C22.6166676,10.3516663 22.7733327,10.2383341 22.9,10.095 C23.0266673,9.95166595 23.123333,9.7866676 23.19,9.6 C23.256667,9.4133324 23.29,9.2166677 23.29,9.01 L23.29,8.66 L23.09,8.66 Z M26.38,8.43 L26.41,8.43 L28.57,6.32 L29.55,6.32 L27.19,8.46 L29.79,11 L28.79,11 L26.41,8.54 L26.38,8.54 L26.38,11 L25.7,11 L25.7,3.44 L26.38,3.44 L26.38,8.43 Z M32.76,6.89 L31.66,6.89 L31.66,11 L30.98,11 L30.98,6.89 L30,6.89 L30,6.32 L30.98,6.32 L30.98,5.04 C30.98,4.506664 31.1099987,4.0866682 31.37,3.78 C31.6300013,3.4733318 32.0299973,3.32 32.57,3.32 C32.6566671,3.32 32.7499995,3.32499995 32.85,3.335 C32.9500005,3.34500005 33.0433329,3.3633332 33.13,3.39 L33.01,3.99 C32.9366663,3.9699999 32.8633337,3.9533334 32.79,3.94 C32.7166663,3.9266666 32.6333338,3.92 32.54,3.92 C32.3599991,3.92 32.2116673,3.9499997 32.095,4.01 C31.9783328,4.0700003 31.8883337,4.15499945 31.825,4.265 C31.7616664,4.37500055 31.7183335,4.5033326 31.695,4.65 C31.6716666,4.7966674 31.66,4.9533325 31.66,5.12 L31.66,6.32 L32.76,6.32 L32.76,6.89 Z M36.68,7.98 C36.68,7.5733313 36.5733344,7.270001 36.36,7.07 C36.1466656,6.869999 35.8366687,6.77 35.43,6.77 C35.1499986,6.77 34.8900012,6.8199995 34.65,6.92 C34.4099988,7.0200005 34.2066675,7.1533325 34.04,7.32 L33.66,6.87 C33.8533343,6.6766657 34.1083318,6.5166673 34.425,6.39 C34.7416683,6.2633327 35.099998,6.2 35.5,6.2 C35.7533346,6.2 35.9899989,6.23499965 36.21,6.305 C36.4300011,6.37500035 36.6233325,6.4799993 36.79,6.62 C36.9566675,6.7600007 37.0866662,6.9366656 37.18,7.15 C37.2733338,7.3633344 37.32,7.6133319 37.32,7.9 L37.32,9.95 C37.32,10.1300009 37.3266666,10.3166657 37.34,10.51 C37.3533334,10.7033343 37.3733332,10.866666 37.4,11 L36.79,11 C36.7699999,10.8866661 36.7533334,10.763334 36.74,10.63 C36.7266666,10.496666 36.72,10.3666673 36.72,10.24 L36.7,10.24 C36.4866656,10.5533349 36.2450014,10.7783327 35.975,10.915 C35.7049987,11.0516674 35.3800019,11.12 35,11.12 C34.8199991,11.12 34.635001,11.0950003 34.445,11.045 C34.2549991,10.9949998 34.0816675,10.9133339 33.925,10.8 C33.7683326,10.6866661 33.6383339,10.5400009 33.535,10.36 C33.4316662,10.1799991 33.38,9.9600013 33.38,9.7 C33.38,9.3399982 33.4716658,9.05500105 33.655,8.845 C33.8383343,8.63499895 34.0833318,8.47833385 34.39,8.375 C34.6966682,8.27166615 35.0483314,8.20500015 35.445,8.175 C35.8416687,8.14499985 36.2533312,8.13 36.68,8.13 L36.68,7.98 Z M36.48,8.66 C36.1999986,8.66 35.9183348,8.67166655 35.635,8.695 C35.3516653,8.71833345 35.0950012,8.76499965 34.865,8.835 C34.6349989,8.90500035 34.4466674,9.006666 34.3,9.14 C34.1533326,9.273334 34.08,9.4499989 34.08,9.67 C34.08,9.8366675 34.1116664,9.9766661 34.175,10.09 C34.2383337,10.2033339 34.3233328,10.2949997 34.43,10.365 C34.5366672,10.4350004 34.6549994,10.4849999 34.785,10.515 C34.9150007,10.5450002 35.046666,10.56 35.18,10.56 C35.4200012,10.56 35.6333324,10.5183338 35.82,10.435 C36.0066676,10.3516663 36.1633327,10.2383341 36.29,10.095 C36.4166673,9.95166595 36.513333,9.7866676 36.58,9.6 C36.646667,9.4133324 36.68,9.2166677 36.68,9.01 L36.68,8.66 L36.48,8.66 Z M41.56,7.43 C41.4599995,7.2366657 41.3083344,7.07833395 41.105,6.955 C40.9016657,6.83166605 40.6700013,6.77 40.41,6.77 C40.2899994,6.77 40.1700006,6.7833332 40.05,6.81 C39.9299994,6.8366668 39.8233338,6.8799997 39.73,6.94 C39.6366662,7.0000003 39.561667,7.0766662 39.505,7.17 C39.4483331,7.2633338 39.42,7.3733327 39.42,7.5 C39.42,7.7200011 39.5099991,7.88833275 39.69,8.005 C39.8700009,8.12166725 40.1533314,8.2199996 40.54,8.3 C41.0933361,8.4133339 41.5016654,8.57833225 41.765,8.795 C42.0283347,9.01166775 42.16,9.3033315 42.16,9.67 C42.16,9.936668 42.1083339,10.1616658 42.005,10.345 C41.9016662,10.5283343 41.7666675,10.6783328 41.6,10.795 C41.4333325,10.9116673 41.2450011,10.9949998 41.035,11.045 C40.824999,11.0950003 40.6133344,11.12 40.4,11.12 C40.0466649,11.12 39.703335,11.0466674 39.37,10.9 C39.036665,10.7533326 38.7633344,10.5233349 38.55,10.21 L39.09,9.81 C39.2100006,10.0166677 39.3866655,10.1899993 39.62,10.33 C39.8533345,10.4700007 40.1099986,10.54 40.39,10.54 C40.5366674,10.54 40.676666,10.5266668 40.81,10.5 C40.943334,10.4733332 41.0599995,10.426667 41.16,10.36 C41.2600005,10.293333 41.3399997,10.2083339 41.4,10.105 C41.4600003,10.0016662 41.49,9.8733341 41.49,9.72 C41.49,9.4733321 41.3716679,9.28833395 41.135,9.165 C40.8983322,9.04166605 40.5566689,8.9266672 40.11,8.82 C39.9699993,8.7866665 39.8216675,8.74500025 39.665,8.695 C39.5083326,8.64499975 39.363334,8.57166715 39.23,8.475 C39.096666,8.37833285 38.9866671,8.2566674 38.9,8.11 C38.8133329,7.9633326 38.77,7.7800011 38.77,7.56 C38.77,7.3199988 38.8166662,7.11500085 38.91,6.945 C39.0033338,6.77499915 39.1283326,6.63500055 39.285,6.525 C39.4416675,6.41499945 39.619999,6.3333336 39.82,6.28 C40.020001,6.2266664 40.2266656,6.2 40.44,6.2 C40.7666683,6.2 41.0833318,6.2733326 41.39,6.42 C41.6966682,6.5666674 41.9266659,6.773332 42.08,7.04 L41.56,7.43 Z M45.62,6.89 L44.3,6.89 L44.3,9.62 C44.3,9.7933342 44.3166665,9.9366661 44.35,10.05 C44.3833335,10.1633339 44.4316664,10.2516664 44.495,10.315 C44.5583337,10.3783337 44.6333329,10.4216666 44.72,10.445 C44.8066671,10.4683335 44.8999995,10.48 45,10.48 C45.0933338,10.48 45.1916662,10.4666668 45.295,10.44 C45.3983339,10.4133332 45.4966662,10.3766669 45.59,10.33 L45.62,10.92 C45.4999994,10.9666669 45.3750007,11.0016666 45.245,11.025 C45.1149994,11.0483335 44.9733341,11.06 44.82,11.06 C44.6933327,11.06 44.5600007,11.0433335 44.42,11.01 C44.2799993,10.9766665 44.1500006,10.9133338 44.03,10.82 C43.9099994,10.7266662 43.8116671,10.6000008 43.735,10.44 C43.658333,10.2799992 43.62,10.0700013 43.62,9.81 L43.62,6.89 L42.65,6.89 L42.65,6.32 L43.62,6.32 L43.62,5 L44.3,5 L44.3,6.32 L45.62,6.32 L45.62,6.89 Z" id="Breakfast" fill="#A3A9B2" sketch:type="MSShapeGroup"></path>
            </g>
        </g>
    </g>
</svg>