<?xml version="1.0" encoding="UTF-8" standalone="no"?>
<svg width="72px" height="16px" viewBox="0 0 72 16" version="1.1" xmlns="http://www.w3.org/2000/svg" xmlns:xlink="http://www.w3.org/1999/xlink" xmlns:sketch="http://www.bohemiancoding.com/sketch/ns">
    <!-- Generator: Sketch 3.3.2 (12043) - http://www.bohemiancoding.com/sketch -->
    <title>slug-widget</title>
    <desc>Created with Sketch.</desc>
    <defs></defs>
    <g id="Page-1" stroke="none" stroke-width="1" fill="none" fill-rule="evenodd" sketch:type="MSPage">
        <g id="contentful_icons" sketch:type="MSArtboardGroup" transform="translate(0.000000, -706.000000)">
            <g id="slug-widget" sketch:type="MSLayerGroup" transform="translate(0.000000, 706.000000)">
                <rect id="Rectangle-291" stroke="#9FAAC0" sketch:type="MSShapeGroup" x="0" y="0" width="72" height="16"></rect>
                <path d="M5.035,11.346 C5.20300084,11.5620011 5.43249854,11.7449993 5.7235,11.895 C6.01450145,12.0450008 6.32199838,12.12 6.646,12.12 C6.9460015,12.12 7.20099895,12.0765004 7.411,11.9895 C7.62100105,11.9024996 7.79049935,11.7840008 7.9195,11.634 C8.04850064,11.4839993 8.1429997,11.308501 8.203,11.1075 C8.2630003,10.906499 8.293,10.6920011 8.293,10.464 L8.293,9.672 L8.275,9.672 C8.11299919,9.93600132 7.88350148,10.1399993 7.5865,10.284 C7.28949851,10.4280007 6.98800153,10.5 6.682,10.5 C6.35199835,10.5 6.05350133,10.4460005 5.7865,10.338 C5.51949866,10.2299995 5.29150094,10.0815009 5.1025,9.8925 C4.91349905,9.70349906 4.76650052,9.47700132 4.6615,9.213 C4.55649947,8.94899868 4.504,8.66400153 4.504,8.358 C4.504,8.0579985 4.55649947,7.77600132 4.6615,7.512 C4.76650052,7.24799868 4.91349905,7.01700099 5.1025,6.819 C5.29150094,6.62099901 5.51949866,6.46500057 5.7865,6.351 C6.05350133,6.23699943 6.35199835,6.18 6.682,6.18 C6.98800153,6.18 7.28799853,6.25199928 7.582,6.396 C7.87600147,6.54000072 8.10699916,6.74699865 8.275,7.017 L8.293,7.017 L8.293,6.288 L8.905,6.288 L8.905,10.464 C8.905,10.6920011 8.87350031,10.9349987 8.8105,11.193 C8.74749968,11.4510013 8.63050085,11.6879989 8.4595,11.904 C8.28849914,12.1200011 8.05600147,12.2999993 7.762,12.444 C7.46799853,12.5880007 7.08700234,12.66 6.619,12.66 C6.22899805,12.66 5.85700177,12.5850008 5.503,12.435 C5.14899823,12.2849993 4.84600126,12.0780013 4.594,11.814 L5.035,11.346 Z M5.152,8.34 C5.152,8.56200111 5.18799964,8.77199901 5.26,8.97 C5.33200036,9.16800099 5.43549932,9.34199925 5.5705,9.492 C5.70550067,9.64200075 5.87199901,9.76049957 6.07,9.8475 C6.26800099,9.93450044 6.49299874,9.978 6.745,9.978 C6.97900117,9.978 7.19499901,9.93900039 7.393,9.861 C7.59100099,9.78299961 7.76199928,9.67200072 7.906,9.528 C8.05000072,9.38399928 8.16249959,9.21150101 8.2435,9.0105 C8.3245004,8.809499 8.365,8.58600123 8.365,8.34 C8.365,8.11799889 8.3245004,7.90800099 8.2435,7.71 C8.16249959,7.51199901 8.05000072,7.33800075 7.906,7.188 C7.76199928,7.03799925 7.59100099,6.91800045 7.393,6.828 C7.19499901,6.73799955 6.97900117,6.693 6.745,6.693 C6.49299874,6.693 6.26800099,6.73799955 6.07,6.828 C5.87199901,6.91800045 5.70550067,7.03799925 5.5705,7.188 C5.43549932,7.33800075 5.33200036,7.51199901 5.26,7.71 C5.18799964,7.90800099 5.152,8.11799889 5.152,8.34 L5.152,8.34 Z M13.711,8.07 C13.6929999,7.67399802 13.5655012,7.34550131 13.3285,7.0845 C13.0914988,6.8234987 12.7540022,6.693 12.316,6.693 C12.111999,6.693 11.9230009,6.73049963 11.749,6.8055 C11.5749991,6.88050038 11.4220007,6.98249936 11.29,7.1115 C11.1579993,7.24050065 11.0530004,7.38749918 10.975,7.5525 C10.8969996,7.71750083 10.8520001,7.8899991 10.84,8.07 L13.711,8.07 Z M14.332,8.268 L14.332,8.403 C14.332,8.45100024 14.329,8.50199973 14.323,8.556 L10.831,8.556 C10.837,8.76600105 10.8789996,8.96399907 10.957,9.15 C11.0350004,9.33600093 11.1429993,9.49799931 11.281,9.636 C11.4190007,9.77400069 11.5809991,9.8834996 11.767,9.9645 C11.9530009,10.0455004 12.1539989,10.086 12.37,10.086 C12.6880016,10.086 12.9624988,10.0125007 13.1935,9.8655 C13.4245012,9.71849927 13.5999994,9.54900096 13.72,9.357 L14.179,9.717 C13.9269987,10.0350016 13.6495015,10.2629993 13.3465,10.401 C13.0434985,10.5390007 12.7180017,10.608 12.37,10.608 C12.0579984,10.608 11.7685013,10.5525006 11.5015,10.4415 C11.2344987,10.3304994 11.005001,10.176001 10.813,9.978 C10.620999,9.77999901 10.4695006,9.54600135 10.3585,9.276 C10.2474994,9.00599865 10.192,8.71200159 10.192,8.394 C10.192,8.07599841 10.2459995,7.78200135 10.354,7.512 C10.4620005,7.24199865 10.611999,7.00800099 10.804,6.81 C10.996001,6.61199901 11.2209987,6.45750056 11.479,6.3465 C11.7370013,6.23549945 12.0159985,6.18 12.316,6.18 C12.6460016,6.18 12.9369987,6.23549945 13.189,6.3465 C13.4410013,6.45750056 13.6509992,6.60749906 13.819,6.7965 C13.9870008,6.98550095 14.1144996,7.20599874 14.2015,7.458 C14.2885004,7.71000126 14.332,7.97999856 14.332,8.268 L14.332,8.268 Z M16.195,6.288 C16.2070001,6.40200057 16.216,6.52799931 16.222,6.666 C16.228,6.80400069 16.231,6.91799955 16.231,7.008 L16.249,7.008 C16.3690006,6.76199877 16.5639986,6.56250077 16.834,6.4095 C17.1040013,6.25649924 17.3889985,6.18 17.689,6.18 C18.2230027,6.18 18.6234987,6.33899841 18.8905,6.657 C19.1575013,6.97500159 19.291,7.39499739 19.291,7.917 L19.291,10.5 L18.679,10.5 L18.679,8.169 C18.679,7.94699889 18.6610002,7.7460009 18.625,7.566 C18.5889998,7.3859991 18.5275004,7.23150065 18.4405,7.1025 C18.3534996,6.97349936 18.2365007,6.87300036 18.0895,6.801 C17.9424993,6.72899964 17.7580011,6.693 17.536,6.693 C17.3739992,6.693 17.2165008,6.72599967 17.0635,6.792 C16.9104992,6.85800033 16.7740006,6.95849933 16.654,7.0935 C16.5339994,7.22850068 16.4380004,7.39949897 16.366,7.6065 C16.2939996,7.81350104 16.258,8.05799859 16.258,8.34 L16.258,10.5 L15.646,10.5 L15.646,7.215 C15.646,7.10099943 15.643,6.9540009 15.637,6.774 C15.631,6.5939991 15.6220001,6.43200072 15.61,6.288 L16.195,6.288 Z M24.088,8.07 C24.0699999,7.67399802 23.9425012,7.34550131 23.7055,7.0845 C23.4684988,6.8234987 23.1310022,6.693 22.693,6.693 C22.488999,6.693 22.3000009,6.73049963 22.126,6.8055 C21.9519991,6.88050038 21.7990007,6.98249936 21.667,7.1115 C21.5349993,7.24050065 21.4300004,7.38749918 21.352,7.5525 C21.2739996,7.71750083 21.2290001,7.8899991 21.217,8.07 L24.088,8.07 Z M24.709,8.268 L24.709,8.403 C24.709,8.45100024 24.706,8.50199973 24.7,8.556 L21.208,8.556 C21.214,8.76600105 21.2559996,8.96399907 21.334,9.15 C21.4120004,9.33600093 21.5199993,9.49799931 21.658,9.636 C21.7960007,9.77400069 21.9579991,9.8834996 22.144,9.9645 C22.3300009,10.0455004 22.5309989,10.086 22.747,10.086 C23.0650016,10.086 23.3394988,10.0125007 23.5705,9.8655 C23.8015012,9.71849927 23.9769994,9.54900096 24.097,9.357 L24.556,9.717 C24.3039987,10.0350016 24.0265015,10.2629993 23.7235,10.401 C23.4204985,10.5390007 23.0950017,10.608 22.747,10.608 C22.4349984,10.608 22.1455013,10.5525006 21.8785,10.4415 C21.6114987,10.3304994 21.382001,10.176001 21.19,9.978 C20.997999,9.77999901 20.8465006,9.54600135 20.7355,9.276 C20.6244994,9.00599865 20.569,8.71200159 20.569,8.394 C20.569,8.07599841 20.6229995,7.78200135 20.731,7.512 C20.8390005,7.24199865 20.988999,7.00800099 21.181,6.81 C21.373001,6.61199901 21.5979987,6.45750056 21.856,6.3465 C22.1140013,6.23549945 22.3929985,6.18 22.693,6.18 C23.0230016,6.18 23.3139987,6.23549945 23.566,6.3465 C23.8180013,6.45750056 24.0279992,6.60749906 24.196,6.7965 C24.3640008,6.98550095 24.4914996,7.20599874 24.5785,7.458 C24.6655004,7.71000126 24.709,7.97999856 24.709,8.268 L24.709,8.268 Z M26.023,7.215 C26.023,7.10099943 26.02,6.9540009 26.014,6.774 C26.008,6.5939991 25.9990001,6.43200072 25.987,6.288 L26.572,6.288 C26.5840001,6.40200057 26.593,6.52799931 26.599,6.666 C26.605,6.80400069 26.608,6.91799955 26.608,7.008 L26.626,7.008 C26.7460006,6.76199877 26.9259988,6.56250077 27.166,6.4095 C27.4060012,6.25649924 27.6759985,6.18 27.976,6.18 C28.0540004,6.18 28.1244997,6.18299997 28.1875,6.189 C28.2505003,6.19500003 28.3149997,6.20699991 28.381,6.225 L28.3,6.801 C28.2639998,6.78899994 28.2040004,6.77700006 28.12,6.765 C28.0359996,6.75299994 27.9520004,6.747 27.868,6.747 C27.7059992,6.747 27.5500007,6.7769997 27.4,6.837 C27.2499992,6.8970003 27.1195006,6.99149936 27.0085,7.1205 C26.8974994,7.24950065 26.8075003,7.414499 26.7385,7.6155 C26.6694997,7.81650101 26.635,8.05799859 26.635,8.34 L26.635,10.5 L26.023,10.5 L26.023,7.215 Z M31.81,7.782 C31.81,7.41599817 31.714001,7.1430009 31.522,6.963 C31.329999,6.7829991 31.0510018,6.693 30.685,6.693 C30.4329987,6.693 30.1990011,6.73799955 29.983,6.828 C29.7669989,6.91800045 29.5840007,7.03799925 29.434,7.188 L29.092,6.783 C29.2660009,6.60899913 29.4954986,6.46500057 29.7805,6.351 C30.0655014,6.23699943 30.3879982,6.18 30.748,6.18 C30.9760011,6.18 31.188999,6.21149969 31.387,6.2745 C31.585001,6.33750032 31.7589992,6.43199937 31.909,6.558 C32.0590007,6.68400063 32.1759996,6.84299904 32.26,7.035 C32.3440004,7.22700096 32.386,7.45199871 32.386,7.71 L32.386,9.555 C32.386,9.71700081 32.3919999,9.88499913 32.404,10.059 C32.4160001,10.2330009 32.4339999,10.3799994 32.458,10.5 L31.909,10.5 C31.8909999,10.3979995 31.8760001,10.2870006 31.864,10.167 C31.8519999,10.0469994 31.846,9.93000057 31.846,9.816 L31.828,9.816 C31.635999,10.0980014 31.4185012,10.3004994 31.1755,10.4235 C30.9324988,10.5465006 30.6400017,10.608 30.298,10.608 C30.1359992,10.608 29.9695009,10.5855002 29.7985,10.5405 C29.6274991,10.4954998 29.4715007,10.4220005 29.3305,10.32 C29.1894993,10.2179995 29.0725005,10.0860008 28.9795,9.924 C28.8864995,9.76199919 28.84,9.56400117 28.84,9.33 C28.84,9.00599838 28.9224992,8.74950095 29.0875,8.5605 C29.2525008,8.37149906 29.4729986,8.23050047 29.749,8.1375 C30.0250014,8.04449954 30.3414982,7.98450014 30.6985,7.9575 C31.0555018,7.93049987 31.4259981,7.917 31.81,7.917 L31.81,7.782 Z M31.63,8.394 C31.3779987,8.394 31.1245013,8.4044999 30.8695,8.4255 C30.6144987,8.44650011 30.383501,8.48849969 30.1765,8.5515 C29.969499,8.61450032 29.8000007,8.7059994 29.668,8.826 C29.5359993,8.9460006 29.47,9.10499901 29.47,9.303 C29.47,9.45300075 29.4984997,9.57899949 29.5555,9.681 C29.6125003,9.78300051 29.6889995,9.86549969 29.785,9.9285 C29.8810005,9.99150032 29.9874994,10.0364999 30.1045,10.0635 C30.2215006,10.0905001 30.3399994,10.104 30.46,10.104 C30.6760011,10.104 30.8679992,10.0665004 31.036,9.9915 C31.2040008,9.91649963 31.3449994,9.81450065 31.459,9.6855 C31.5730006,9.55649936 31.6599997,9.40800084 31.72,9.24 C31.7800003,9.07199916 31.81,8.89500093 31.81,8.709 L31.81,8.394 L31.63,8.394 Z M35.77,6.801 L34.582,6.801 L34.582,9.258 C34.582,9.41400078 34.5969998,9.54299949 34.627,9.645 C34.6570001,9.74700051 34.7004997,9.82649972 34.7575,9.8835 C34.8145003,9.94050029 34.8819996,9.9794999 34.96,10.0005 C35.0380004,10.0215001 35.1219995,10.032 35.212,10.032 C35.2960004,10.032 35.3844995,10.0200001 35.4775,9.996 C35.5705005,9.97199988 35.6589996,9.93900021 35.743,9.897 L35.77,10.428 C35.6619995,10.4700002 35.5495006,10.5014999 35.4325,10.5225 C35.3154994,10.5435001 35.1880007,10.554 35.05,10.554 C34.9359994,10.554 34.8160006,10.5390002 34.69,10.509 C34.5639994,10.4789999 34.4470005,10.4220004 34.339,10.338 C34.2309995,10.2539996 34.1425003,10.1400007 34.0735,9.996 C34.0044997,9.85199928 33.97,9.66300117 33.97,9.429 L33.97,6.801 L33.097,6.801 L33.097,6.288 L33.97,6.288 L33.97,5.1 L34.582,5.1 L34.582,6.288 L35.77,6.288 L35.77,6.801 Z M39.937,8.07 C39.9189999,7.67399802 39.7915012,7.34550131 39.5545,7.0845 C39.3174988,6.8234987 38.9800022,6.693 38.542,6.693 C38.337999,6.693 38.1490009,6.73049963 37.975,6.8055 C37.8009991,6.88050038 37.6480007,6.98249936 37.516,7.1115 C37.3839993,7.24050065 37.2790004,7.38749918 37.201,7.5525 C37.1229996,7.71750083 37.0780001,7.8899991 37.066,8.07 L39.937,8.07 Z M40.558,8.268 L40.558,8.403 C40.558,8.45100024 40.555,8.50199973 40.549,8.556 L37.057,8.556 C37.063,8.76600105 37.1049996,8.96399907 37.183,9.15 C37.2610004,9.33600093 37.3689993,9.49799931 37.507,9.636 C37.6450007,9.77400069 37.8069991,9.8834996 37.993,9.9645 C38.1790009,10.0455004 38.3799989,10.086 38.596,10.086 C38.9140016,10.086 39.1884988,10.0125007 39.4195,9.8655 C39.6505012,9.71849927 39.8259994,9.54900096 39.946,9.357 L40.405,9.717 C40.1529987,10.0350016 39.8755015,10.2629993 39.5725,10.401 C39.2694985,10.5390007 38.9440017,10.608 38.596,10.608 C38.2839984,10.608 37.9945013,10.5525006 37.7275,10.4415 C37.4604987,10.3304994 37.231001,10.176001 37.039,9.978 C36.846999,9.77999901 36.6955006,9.54600135 36.5845,9.276 C36.4734994,9.00599865 36.418,8.71200159 36.418,8.394 C36.418,8.07599841 36.4719995,7.78200135 36.58,7.512 C36.6880005,7.24199865 36.837999,7.00800099 37.03,6.81 C37.222001,6.61199901 37.4469987,6.45750056 37.705,6.3465 C37.9630013,6.23549945 38.2419985,6.18 38.542,6.18 C38.8720016,6.18 39.1629987,6.23549945 39.415,6.3465 C39.6670013,6.45750056 39.8769992,6.60749906 40.045,6.7965 C40.2130008,6.98550095 40.3404996,7.20599874 40.4275,7.458 C40.5145004,7.71000126 40.558,7.97999856 40.558,8.268 L40.558,8.268 Z M45.337,9.789 C45.1569991,10.0590014 44.9230014,10.2629993 44.635,10.401 C44.3469986,10.5390007 44.0500015,10.608 43.744,10.608 C43.4139983,10.608 43.1155013,10.5510006 42.8485,10.437 C42.5814987,10.3229994 42.3535009,10.167001 42.1645,9.969 C41.9754991,9.77099901 41.8285005,9.53700135 41.7235,9.267 C41.6184995,8.99699865 41.566,8.70600156 41.566,8.394 C41.566,8.08199844 41.6184995,7.79100135 41.7235,7.521 C41.8285005,7.25099865 41.9754991,7.01700099 42.1645,6.819 C42.3535009,6.62099901 42.5814987,6.46500057 42.8485,6.351 C43.1155013,6.23699943 43.4139983,6.18 43.744,6.18 C44.0500015,6.18 44.3469986,6.2504993 44.635,6.3915 C44.9230014,6.53250071 45.1569991,6.74099862 45.337,7.017 L45.355,7.017 L45.355,3.696 L45.967,3.696 L45.967,10.5 L45.355,10.5 L45.355,9.789 L45.337,9.789 Z M42.214,8.394 C42.214,8.62800117 42.2499996,8.84849897 42.322,9.0555 C42.3940004,9.26250104 42.4974993,9.44249924 42.6325,9.5955 C42.7675007,9.74850077 42.933999,9.86849957 43.132,9.9555 C43.330001,10.0425004 43.5549987,10.086 43.807,10.086 C44.0410012,10.086 44.256999,10.0425004 44.455,9.9555 C44.653001,9.86849957 44.8239993,9.75000075 44.968,9.6 C45.1120007,9.44999925 45.2244996,9.27150104 45.3055,9.0645 C45.3865004,8.85749897 45.427,8.6340012 45.427,8.394 C45.427,8.1539988 45.3865004,7.93050104 45.3055,7.7235 C45.2244996,7.51649897 45.1120007,7.33650077 44.968,7.1835 C44.8239993,7.03049924 44.653001,6.91050044 44.455,6.8235 C44.256999,6.73649957 44.0410012,6.693 43.807,6.693 C43.5549987,6.693 43.330001,6.73799955 43.132,6.828 C42.933999,6.91800045 42.7675007,7.03949924 42.6325,7.1925 C42.4974993,7.34550077 42.3940004,7.52549897 42.322,7.7325 C42.2499996,7.93950104 42.214,8.15999883 42.214,8.394 L42.214,8.394 Z M49.243,8.574 L47.227,8.574 L47.227,8.061 L49.243,8.061 L49.243,8.574 Z M52.726,7.287 C52.6359995,7.11299913 52.4995009,6.97050056 52.3165,6.8595 C52.1334991,6.74849945 51.9250012,6.693 51.691,6.693 C51.5829995,6.693 51.4750005,6.70499988 51.367,6.729 C51.2589995,6.75300012 51.1630004,6.79199973 51.079,6.846 C50.9949996,6.90000027 50.9275003,6.96899958 50.8765,7.053 C50.8254997,7.13700042 50.8,7.23599943 50.8,7.35 C50.8,7.54800099 50.8809992,7.69949948 51.043,7.8045 C51.2050008,7.90950053 51.4599983,7.99799964 51.808,8.07 C52.3060025,8.17200051 52.6734988,8.32049903 52.9105,8.5155 C53.1475012,8.71050098 53.266,8.97299835 53.266,9.303 C53.266,9.5430012 53.2195005,9.74549918 53.1265,9.9105 C53.0334995,10.0755008 52.9120007,10.2104995 52.762,10.3155 C52.6119992,10.4205005 52.4425009,10.4954998 52.2535,10.5405 C52.0644991,10.5855002 51.874001,10.608 51.682,10.608 C51.3639984,10.608 51.0550015,10.5420007 50.755,10.41 C50.4549985,10.2779993 50.209001,10.0710014 50.017,9.789 L50.503,9.429 C50.6110005,9.61500093 50.7699989,9.77099937 50.98,9.897 C51.190001,10.0230006 51.4209987,10.086 51.673,10.086 C51.8050007,10.086 51.9309994,10.0740001 52.051,10.05 C52.1710006,10.0259999 52.2759995,9.9840003 52.366,9.924 C52.4560004,9.8639997 52.5279997,9.78750047 52.582,9.6945 C52.6360003,9.60149954 52.663,9.48600069 52.663,9.348 C52.663,9.12599889 52.5565011,8.95950056 52.3435,8.8485 C52.1304989,8.73749945 51.823002,8.63400048 51.421,8.538 C51.2949994,8.50799985 51.1615007,8.47050023 51.0205,8.4255 C50.8794993,8.38049978 50.7490006,8.31450044 50.629,8.2275 C50.5089994,8.14049957 50.4100004,8.03100066 50.332,7.899 C50.2539996,7.76699934 50.215,7.60200099 50.215,7.404 C50.215,7.18799892 50.2569996,7.00350077 50.341,6.8505 C50.4250004,6.69749924 50.5374993,6.5715005 50.6785,6.4725 C50.8195007,6.37349951 50.9799991,6.30000024 51.16,6.252 C51.3400009,6.20399976 51.525999,6.18 51.718,6.18 C52.0120015,6.18 52.2969986,6.24599934 52.573,6.378 C52.8490014,6.51000066 53.0559993,6.6959988 53.194,6.936 L52.726,7.287 Z M55.111,10.5 L54.499,10.5 L54.499,3.696 L55.111,3.696 L55.111,10.5 Z M59.809,10.5 C59.7969999,10.3859994 59.788,10.2600007 59.782,10.122 C59.776,9.98399931 59.773,9.87000045 59.773,9.78 L59.755,9.78 C59.6349994,10.0260012 59.4400013,10.2254992 59.17,10.3785 C58.8999986,10.5315008 58.6150015,10.608 58.315,10.608 C57.7809973,10.608 57.3805013,10.4490016 57.1135,10.131 C56.8464987,9.81299841 56.713,9.39300261 56.713,8.871 L56.713,6.288 L57.325,6.288 L57.325,8.619 C57.325,8.84100111 57.3429998,9.0419991 57.379,9.222 C57.4150002,9.4020009 57.4764996,9.55649936 57.5635,9.6855 C57.6505004,9.81450065 57.7674993,9.91499964 57.9145,9.987 C58.0615007,10.0590004 58.2459989,10.095 58.468,10.095 C58.6300008,10.095 58.7874992,10.0620003 58.9405,9.996 C59.0935008,9.92999967 59.2299994,9.82950068 59.35,9.6945 C59.4700006,9.55949933 59.5659996,9.38850104 59.638,9.1815 C59.7100004,8.97449897 59.746,8.73000141 59.746,8.448 L59.746,6.288 L60.358,6.288 L60.358,9.573 C60.358,9.68700057 60.361,9.8339991 60.367,10.014 C60.373,10.1940009 60.3819999,10.3559993 60.394,10.5 L59.809,10.5 Z M62.203,11.346 C62.3710008,11.5620011 62.6004985,11.7449993 62.8915,11.895 C63.1825015,12.0450008 63.4899984,12.12 63.814,12.12 C64.1140015,12.12 64.3689989,12.0765004 64.579,11.9895 C64.789001,11.9024996 64.9584994,11.7840008 65.0875,11.634 C65.2165006,11.4839993 65.3109997,11.308501 65.371,11.1075 C65.4310003,10.906499 65.461,10.6920011 65.461,10.464 L65.461,9.672 L65.443,9.672 C65.2809992,9.93600132 65.0515015,10.1399993 64.7545,10.284 C64.4574985,10.4280007 64.1560015,10.5 63.85,10.5 C63.5199983,10.5 63.2215013,10.4460005 62.9545,10.338 C62.6874987,10.2299995 62.4595009,10.0815009 62.2705,9.8925 C62.0814991,9.70349906 61.9345005,9.47700132 61.8295,9.213 C61.7244995,8.94899868 61.672,8.66400153 61.672,8.358 C61.672,8.0579985 61.7244995,7.77600132 61.8295,7.512 C61.9345005,7.24799868 62.0814991,7.01700099 62.2705,6.819 C62.4595009,6.62099901 62.6874987,6.46500057 62.9545,6.351 C63.2215013,6.23699943 63.5199983,6.18 63.85,6.18 C64.1560015,6.18 64.4559985,6.25199928 64.75,6.396 C65.0440015,6.54000072 65.2749992,6.74699865 65.443,7.017 L65.461,7.017 L65.461,6.288 L66.073,6.288 L66.073,10.464 C66.073,10.6920011 66.0415003,10.9349987 65.9785,11.193 C65.9154997,11.4510013 65.7985009,11.6879989 65.6275,11.904 C65.4564991,12.1200011 65.2240015,12.2999993 64.93,12.444 C64.6359985,12.5880007 64.2550023,12.66 63.787,12.66 C63.396998,12.66 63.0250018,12.5850008 62.671,12.435 C62.3169982,12.2849993 62.0140013,12.0780013 61.762,11.814 L62.203,11.346 Z M62.32,8.34 C62.32,8.56200111 62.3559996,8.77199901 62.428,8.97 C62.5000004,9.16800099 62.6034993,9.34199925 62.7385,9.492 C62.8735007,9.64200075 63.039999,9.76049957 63.238,9.8475 C63.436001,9.93450044 63.6609987,9.978 63.913,9.978 C64.1470012,9.978 64.362999,9.93900039 64.561,9.861 C64.759001,9.78299961 64.9299993,9.67200072 65.074,9.528 C65.2180007,9.38399928 65.3304996,9.21150101 65.4115,9.0105 C65.4925004,8.809499 65.533,8.58600123 65.533,8.34 C65.533,8.11799889 65.4925004,7.90800099 65.4115,7.71 C65.3304996,7.51199901 65.2180007,7.33800075 65.074,7.188 C64.9299993,7.03799925 64.759001,6.91800045 64.561,6.828 C64.362999,6.73799955 64.1470012,6.693 63.913,6.693 C63.6609987,6.693 63.436001,6.73799955 63.238,6.828 C63.039999,6.91800045 62.8735007,7.03799925 62.7385,7.188 C62.6034993,7.33800075 62.5000004,7.51199901 62.428,7.71 C62.3559996,7.90800099 62.32,8.11799889 62.32,8.34 L62.32,8.34 Z" id="generated-slug" fill="#A3A9B2" sketch:type="MSShapeGroup"></path>
            </g>
        </g>
    </g>
</svg>