<?xml version="1.0" encoding="UTF-8" standalone="no"?>
<svg
   xmlns:dc="http://purl.org/dc/elements/1.1/"
   xmlns:cc="http://creativecommons.org/ns#"
   xmlns:rdf="http://www.w3.org/1999/02/22-rdf-syntax-ns#"
   xmlns:svg="http://www.w3.org/2000/svg"
   xmlns="http://www.w3.org/2000/svg"
   id="svg4206"
   version="1.1"
   viewBox="0 0 74 54"
   height="54px"
   width="74px">
  <metadata
     id="metadata4239">
    <rdf:RDF>
      <cc:Work
         rdf:about="">
        <dc:format>image/svg+xml</dc:format>
        <dc:type
           rdf:resource="http://purl.org/dc/dcmitype/StillImage" />
        <dc:title>Artboard 12 Copy</dc:title>
      </cc:Work>
    </rdf:RDF>
  </metadata>
  <!-- Generator: Sketch 3.6.1 (26313) - http://www.bohemiancoding.com/sketch -->
  <title
     id="title4208">Artboard 12 Copy</title>
  <desc
     id="desc4210">Created with Sketch.</desc>
  <defs
     id="defs4212" />
  <g
     fill-rule="evenodd"
     fill="none"
     stroke-width="1"
     stroke="none"
     id="Content-Types">
    <g
       id="Artboard-12-Copy">
      <rect
         height="16"
         width="72"
         y="1"
         x="1"
         fill="#E7EBEF"
         id="Rectangle-291-Copy-18" />
      <rect
         height="16"
         width="72"
         y="19"
         x="1"
         fill="#E7EBEF"
         id="Rectangle-291-Copy-19" />
      <rect
         height="16"
         width="72"
         y="37"
         x="1"
         fill="#E7EBEF"
         id="Rectangle-291-Copy-20" />
      <g
         id="Breakfast"
         style="font-weight:normal;font-size:9px;font-family:AvenirNext-Regular, 'Avenir Next';fill:#a2a9b1">
        <path
           id="path4253"
           style=""
           d="m 5.846,5.128 1.899,0 q 0.36,0 0.729,0.081 0.369,0.072 0.657,0.261 0.297,0.18 0.477,0.495 0.189,0.315 0.189,0.792 0,0.504 -0.306,0.882 -0.306,0.369 -0.819,0.486 l 0,0.018 q 0.621,0.072 1.026,0.486 0.414,0.405 0.414,1.107 0,0.396 -0.171,0.729 Q 9.779,10.789 9.473,11.023 9.167,11.248 8.726,11.374 8.285,11.5 7.736,11.5 l -1.89,0 0,-6.372 z m 0.648,2.79 1.305,0 q 0.234,0 0.468,-0.054 Q 8.51,7.81 8.708,7.684 8.906,7.549 9.023,7.333 9.149,7.117 9.149,6.802 9.149,6.496 9.023,6.289 8.906,6.073 8.699,5.938 8.492,5.803 8.213,5.749 7.934,5.686 7.619,5.686 l -1.125,0 0,2.232 z m 0,3.024 1.206,0 q 0.351,0 0.666,-0.063 Q 8.69,10.807 8.924,10.663 9.167,10.51 9.311,10.276 9.455,10.033 9.455,9.7 9.455,9.07 9.023,8.764 8.6,8.449 7.817,8.449 l -1.323,0 0,2.493 z" />
        <path
           id="path4255"
           style=""
           d="m 11.540469,8.215 q 0,-0.171 -0.009,-0.441 -0.009,-0.27 -0.027,-0.486 l 0.585,0 q 0.018,0.171 0.027,0.378 0.009,0.207 0.009,0.342 l 0.018,0 q 0.18,-0.369 0.54,-0.594 0.36,-0.234 0.81,-0.234 0.117,0 0.207,0.009 0.099,0.009 0.198,0.036 l -0.081,0.576 q -0.054,-0.018 -0.18,-0.036 -0.126,-0.018 -0.252,-0.018 -0.243,0 -0.468,0.09 -0.225,0.09 -0.396,0.288 -0.162,0.189 -0.27,0.495 -0.099,0.297 -0.099,0.72 l 0,2.16 -0.612,0 0,-3.285 0,0 z" />
        <path
           id="path4257"
           style=""
           d="m 17.829641,9.07 q -0.027,-0.594 -0.387,-0.981 -0.351,-0.396 -1.008,-0.396 -0.306,0 -0.567,0.117 -0.261,0.108 -0.459,0.306 -0.198,0.189 -0.315,0.441 -0.117,0.243 -0.135,0.513 l 2.871,0 z m 0.621,0.198 q 0,0.063 0,0.135 0,0.072 -0.009,0.153 l -3.492,0 q 0.009,0.315 0.126,0.594 0.117,0.279 0.324,0.486 0.207,0.207 0.486,0.333 0.279,0.117 0.603,0.117 0.477,0 0.819,-0.216 0.351,-0.225 0.531,-0.513 l 0.459,0.36 q -0.378,0.477 -0.837,0.684 -0.45,0.207 -0.972,0.207 -0.468,0 -0.873,-0.162 -0.396,-0.171 -0.684,-0.468 -0.288,-0.297 -0.459,-0.702 -0.162,-0.405 -0.162,-0.882 0,-0.477 0.162,-0.882 0.162,-0.405 0.45,-0.702 0.288,-0.297 0.675,-0.459 0.387,-0.171 0.837,-0.171 0.495,0 0.873,0.171 0.378,0.162 0.63,0.45 0.252,0.279 0.378,0.657 0.135,0.378 0.135,0.81 z" />
        <path
           id="path4259"
           style=""
           d="m 22.369297,8.782 q 0,-0.549 -0.288,-0.819 -0.288,-0.27 -0.837,-0.27 -0.378,0 -0.702,0.135 -0.324,0.135 -0.549,0.36 l -0.342,-0.405 q 0.261,-0.261 0.684,-0.432 0.432,-0.171 0.972,-0.171 0.342,0 0.639,0.099 0.297,0.09 0.522,0.279 0.225,0.189 0.351,0.477 0.126,0.288 0.126,0.675 l 0,1.845 q 0,0.243 0.018,0.504 0.018,0.261 0.054,0.441 l -0.549,0 q -0.027,-0.153 -0.045,-0.333 -0.018,-0.18 -0.018,-0.351 l -0.018,0 q -0.288,0.423 -0.657,0.612 -0.36,0.18 -0.873,0.18 -0.243,0 -0.504,-0.072 -0.252,-0.063 -0.468,-0.216 -0.207,-0.153 -0.351,-0.396 -0.135,-0.243 -0.135,-0.594 0,-0.486 0.243,-0.765 0.252,-0.288 0.666,-0.423 0.414,-0.144 0.945,-0.18 0.54,-0.045 1.116,-0.045 l 0,-0.135 z m -0.18,0.612 q -0.378,0 -0.765,0.036 -0.378,0.027 -0.693,0.126 -0.306,0.09 -0.504,0.27 -0.198,0.18 -0.198,0.477 0,0.225 0.081,0.378 0.09,0.153 0.234,0.252 0.144,0.09 0.315,0.135 0.18,0.036 0.36,0.036 0.324,0 0.576,-0.108 0.252,-0.117 0.423,-0.306 0.171,-0.198 0.261,-0.45 0.09,-0.252 0.09,-0.531 l 0,-0.315 -0.18,0 z" />
        <path
           id="path4261"
           style=""
           d="m 25.143125,9.187 0.027,0 1.944,-1.899 0.882,0 -2.124,1.926 2.34,2.286 -0.9,0 -2.142,-2.214 -0.027,0 0,2.214 -0.612,0 0,-6.804 0.612,0 0,4.491 z" />
        <path
           id="path4263"
           style=""
           d="m 30.883016,7.801 -0.99,0 0,3.699 -0.612,0 0,-3.699 -0.882,0 0,-0.513 0.882,0 0,-1.152 q 0,-0.72 0.351,-1.134 0.351,-0.414 1.08,-0.414 0.117,0 0.252,0.018 0.135,0.009 0.252,0.045 l -0.108,0.54 q -0.099,-0.027 -0.198,-0.045 -0.099,-0.018 -0.225,-0.018 -0.243,0 -0.405,0.081 -0.153,0.081 -0.243,0.234 -0.081,0.144 -0.117,0.342 -0.027,0.198 -0.027,0.423 l 0,1.08 0.99,0 0,0.513 z" />
        <path
           id="path4265"
           style=""
           d="m 34.410313,8.782 q 0,-0.549 -0.288001,-0.819 -0.287999,-0.27 -0.836999,-0.27 -0.378,0 -0.702001,0.135 -0.324,0.135 -0.549,0.36 l -0.342,-0.405 q 0.261,-0.261 0.684,-0.432 0.432,-0.171 0.972,-0.171 0.342,0 0.639001,0.099 0.296999,0.09 0.521999,0.279 0.225001,0.189 0.351,0.477 0.126,0.288 0.126,0.675 l 0,1.845 q 0,0.243 0.018,0.504 0.018,0.261 0.054,0.441 l -0.549,0 q -0.027,-0.153 -0.045,-0.333 -0.018,-0.18 -0.018,-0.351 l -0.018,0 q -0.288,0.423 -0.657,0.612 -0.36,0.18 -0.872999,0.18 -0.243001,0 -0.504001,-0.072 -0.251999,-0.063 -0.467999,-0.216 -0.207001,-0.153 -0.351001,-0.396 -0.135,-0.243 -0.135,-0.594 0,-0.486 0.243,-0.765 0.252,-0.288 0.666,-0.423 0.414,-0.144 0.945001,-0.18 0.54,-0.045 1.116,-0.045 l 0,-0.135 z m -0.180001,0.612 q -0.378,0 -0.764999,0.036 -0.378,0.027 -0.693001,0.126 -0.306,0.09 -0.504,0.27 -0.198,0.18 -0.198,0.477 0,0.225 0.081,0.378 0.09,0.153 0.233999,0.252 0.144001,0.09 0.315001,0.135 0.18,0.036 0.36,0.036 0.323999,0 0.576,-0.108 0.251999,-0.117 0.422999,-0.306 0.171,-0.198 0.261,-0.45 0.09,-0.252 0.09,-0.531 l 0,-0.315 -0.180001,0 z" />
        <path
           id="path4267"
           style=""
           d="m 38.795141,8.287 q -0.135,-0.261 -0.414,-0.423 -0.27,-0.171 -0.621,-0.171 -0.162,0 -0.324,0.036 -0.162,0.036 -0.288,0.117 -0.126,0.081 -0.207,0.207 -0.072,0.126 -0.072,0.297 0,0.297 0.243,0.459 0.243,0.153 0.765,0.261 0.747,0.153 1.098,0.45 0.36,0.288 0.36,0.783 0,0.36 -0.144,0.612 -0.135,0.243 -0.36,0.405 -0.225,0.153 -0.513,0.216 -0.279,0.072 -0.567,0.072 -0.477,0 -0.927,-0.198 -0.45,-0.198 -0.738,-0.621 l 0.486,-0.36 q 0.162,0.279 0.477,0.468 0.315,0.189 0.693,0.189 0.198,0 0.378,-0.036 0.18,-0.036 0.315,-0.126 0.135,-0.09 0.216,-0.225 0.081,-0.144 0.081,-0.351 0,-0.333 -0.324,-0.495 -0.315,-0.171 -0.918,-0.315 -0.189,-0.045 -0.405,-0.108 -0.207,-0.072 -0.387,-0.198 -0.18,-0.135 -0.297,-0.333 -0.117,-0.198 -0.117,-0.495 0,-0.324 0.126,-0.549 0.126,-0.234 0.333,-0.378 0.216,-0.153 0.486,-0.225 0.27,-0.072 0.558,-0.072 0.441,0 0.855,0.198 0.414,0.198 0.621,0.558 l -0.468,0.351 z" />
        <path
           id="path4269"
           style=""
           d="m 42.443375,7.801 -1.188,0 0,2.457 q 0,0.234 0.045,0.387 0.045,0.153 0.126,0.243 0.09,0.081 0.207,0.117 0.117,0.027 0.252,0.027 0.126,0 0.261,-0.036 0.144,-0.036 0.27,-0.099 l 0.027,0.531 q -0.162,0.063 -0.342,0.09 -0.171,0.036 -0.378,0.036 -0.171,0 -0.36,-0.045 -0.189,-0.045 -0.351,-0.171 -0.162,-0.126 -0.27,-0.342 -0.099,-0.216 -0.099,-0.567 l 0,-2.628 -0.873,0 0,-0.513 0.873,0 0,-1.188 0.612,0 0,1.188 1.188,0 0,0.513 z" />
      </g>
      <text
         fill="#9FAAC0"
         line-spacing="13.5"
         font-weight="500"
         font-size="9"
         font-family="AvenirNext-DemiBold, Avenir Next"
         id="×">
        <tspan
           id="tspan4223"
           y="11.5"
           x="61">×</tspan>
      </text>
      <g
         id="Lunch"
         style="font-weight:normal;font-size:9px;font-family:AvenirNext-Regular, 'Avenir Next';fill:#a2a9b1">
        <path
           id="path4242"
           style=""
           d="m 6.494,28.924 2.97,0 0,0.576 -3.618,0 0,-6.372 0.648,0 0,5.796 z" />
        <path
           id="path4244"
           style=""
           d="m 13.352422,29.5 q -0.018,-0.171 -0.027,-0.378 -0.009,-0.207 -0.009,-0.342 l -0.018,0 q -0.18,0.369 -0.585,0.603 -0.405,0.225 -0.855,0.225 -0.801,0 -1.206,-0.477 -0.396,-0.477 -0.396,-1.26 l 0,-2.583 0.612,0 0,2.331 q 0,0.333 0.054,0.603 0.054,0.27 0.18,0.468 0.135,0.189 0.351,0.297 0.225,0.108 0.558,0.108 0.243,0 0.468,-0.099 0.234,-0.099 0.414,-0.297 0.18,-0.207 0.288,-0.513 0.108,-0.315 0.108,-0.738 l 0,-2.16 0.612,0 0,3.285 q 0,0.171 0.009,0.441 0.009,0.27 0.027,0.486 l -0.585,0 z" />
        <path
           id="path4246"
           style=""
           d="m 16.062125,25.288 q 0.018,0.171 0.027,0.378 0.009,0.207 0.009,0.342 l 0.018,0 q 0.18,-0.369 0.585,-0.594 0.405,-0.234 0.855,-0.234 0.801,0 1.197,0.477 0.405,0.477 0.405,1.26 l 0,2.583 -0.612,0 0,-2.331 q 0,-0.333 -0.054,-0.603 -0.054,-0.27 -0.189,-0.459 -0.126,-0.198 -0.351,-0.306 -0.216,-0.108 -0.549,-0.108 -0.243,0 -0.477,0.099 -0.225,0.099 -0.405,0.306 -0.18,0.198 -0.288,0.513 -0.108,0.306 -0.108,0.729 l 0,2.16 -0.612,0 0,-3.285 q 0,-0.171 -0.009,-0.441 -0.009,-0.27 -0.027,-0.486 l 0.585,0 z" />
        <path
           id="path4248"
           style=""
           d="m 23.766828,26.251 q -0.153,-0.243 -0.45,-0.396 -0.288,-0.162 -0.63,-0.162 -0.369,0 -0.666,0.135 -0.297,0.126 -0.513,0.36 -0.207,0.225 -0.324,0.54 -0.108,0.306 -0.108,0.666 0,0.36 0.108,0.666 0.117,0.306 0.324,0.54 0.207,0.225 0.504,0.36 0.297,0.126 0.666,0.126 0.405,0 0.684,-0.153 0.279,-0.153 0.459,-0.396 l 0.459,0.342 q -0.27,0.333 -0.666,0.531 -0.387,0.198 -0.936,0.198 -0.513,0 -0.927,-0.162 -0.414,-0.171 -0.711,-0.468 -0.288,-0.297 -0.45,-0.702 -0.162,-0.405 -0.162,-0.882 0,-0.477 0.162,-0.882 0.162,-0.405 0.45,-0.702 0.297,-0.297 0.711,-0.459 0.414,-0.171 0.927,-0.171 0.423,0 0.855,0.189 0.441,0.18 0.711,0.54 l -0.477,0.342 z" />
        <path
           id="path4250"
           style=""
           d="m 25.881828,25.981 q 0.171,-0.369 0.567,-0.585 0.396,-0.216 0.846,-0.216 0.801,0 1.197,0.477 0.405,0.477 0.405,1.26 l 0,2.583 -0.612,0 0,-2.331 q 0,-0.333 -0.054,-0.603 -0.054,-0.27 -0.189,-0.459 -0.126,-0.198 -0.351,-0.306 -0.216,-0.108 -0.549,-0.108 -0.243,0 -0.477,0.099 -0.225,0.099 -0.405,0.306 -0.18,0.198 -0.288,0.513 -0.108,0.306 -0.108,0.729 l 0,2.16 -0.612,0 0,-6.804 0.612,0 0,3.285 0.018,0 z" />
      </g>
      <text
         fill="#9FAAC0"
         line-spacing="13.5"
         font-weight="500"
         font-size="9"
         font-family="AvenirNext-DemiBold, Avenir Next"
         id="×-copy">
        <tspan
           id="tspan4229"
           y="29.5"
           x="61">×</tspan>
      </text>
      <g
         id="Dinner"
         style="font-weight:normal;font-size:9px;font-family:AvenirNext-Regular, 'Avenir Next';fill:#a2a9b1">
        <path
           id="path4272"
           style=""
           d="m 5.846,41.128 2.115,0 q 0.594,0 1.188,0.198 0.603,0.198 1.08,0.603 0.486,0.396 0.783,0.999 0.297,0.594 0.297,1.386 0,0.801 -0.297,1.395 -0.297,0.594 -0.783,0.999 -0.477,0.396 -1.08,0.594 Q 8.555,47.5 7.961,47.5 l -2.115,0 0,-6.372 z m 0.648,5.796 1.287,0 q 0.72,0 1.251,-0.225 0.54,-0.225 0.891,-0.585 0.351,-0.369 0.522,-0.837 0.18,-0.468 0.18,-0.963 0,-0.495 -0.18,-0.963 Q 10.274,42.883 9.923,42.523 9.572,42.154 9.032,41.929 8.501,41.704 7.781,41.704 l -1.287,0 0,5.22 z" />
        <path
           id="path4274"
           style=""
           d="m 13.251313,47.5 -0.612001,0 0,-4.212 0.612001,0 0,4.212 z m 0.126,-5.832 q 0,0.189 -0.135,0.315 -0.135,0.117 -0.297,0.117 -0.162001,0 -0.297001,-0.117 -0.134999,-0.126 -0.134999,-0.315 0,-0.189 0.134999,-0.306 0.135,-0.126 0.297001,-0.126 0.162,0 0.297,0.126 0.135,0.117 0.135,0.306 z" />
        <path
           id="path4276"
           style=""
           d="m 15.429313,43.288 q 0.018,0.171 0.027,0.378 0.009,0.207 0.009,0.342 l 0.018,0 q 0.18,-0.369 0.584999,-0.594 0.405,-0.234 0.855001,-0.234 0.800999,0 1.196999,0.477 0.405,0.477 0.405,1.26 l 0,2.583 -0.612,0 0,-2.331 q 0,-0.333 -0.054,-0.603 -0.054,-0.27 -0.189,-0.459 -0.126001,-0.198 -0.351001,-0.306 -0.216,-0.108 -0.549,-0.108 -0.243,0 -0.477,0.099 -0.225,0.099 -0.404999,0.306 -0.18,0.198 -0.288001,0.513 -0.107999,0.306 -0.107999,0.729 l 0,2.16 -0.612,0 0,-3.285 q 0,-0.171 -0.009,-0.441 -0.009,-0.27 -0.027,-0.486 l 0.585,0 z" />
        <path
           id="path4278"
           style=""
           d="m 20.650016,43.288 q 0.018,0.171 0.027,0.378 0.009,0.207 0.009,0.342 l 0.018,0 q 0.18,-0.369 0.585,-0.594 0.405,-0.234 0.855,-0.234 0.801,0 1.197,0.477 0.405,0.477 0.405,1.26 l 0,2.583 -0.612,0 0,-2.331 q 0,-0.333 -0.054,-0.603 -0.054,-0.27 -0.189,-0.459 -0.126,-0.198 -0.351,-0.306 -0.216,-0.108 -0.549,-0.108 -0.243,0 -0.477,0.099 -0.225,0.099 -0.405,0.306 -0.18,0.198 -0.288,0.513 -0.108,0.306 -0.108,0.729 l 0,2.16 -0.612,0 0,-3.285 q 0,-0.171 -0.009,-0.441 -0.009,-0.27 -0.027,-0.486 l 0.585,0 z" />
        <path
           id="path4280"
           style=""
           d="m 28.534719,45.07 q -0.027,-0.594 -0.387,-0.981 -0.351,-0.396 -1.008,-0.396 -0.306,0 -0.567,0.117 -0.261,0.108 -0.459,0.306 -0.198,0.189 -0.315,0.441 -0.117,0.243 -0.135,0.513 l 2.871,0 z m 0.621,0.198 q 0,0.063 0,0.135 0,0.072 -0.009,0.153 l -3.492,0 q 0.009,0.315 0.126,0.594 0.117,0.279 0.324,0.486 0.207,0.207 0.486,0.333 0.279,0.117 0.603,0.117 0.477,0 0.819,-0.216 0.351,-0.225 0.531,-0.513 l 0.459,0.36 q -0.378,0.477 -0.837,0.684 -0.45,0.207 -0.972,0.207 -0.468,0 -0.873,-0.162 -0.396,-0.171 -0.684,-0.468 -0.288,-0.297 -0.459,-0.702 -0.162,-0.405 -0.162,-0.882 0,-0.477 0.162,-0.882 0.162,-0.405 0.45,-0.702 0.288,-0.297 0.675,-0.459 0.387,-0.171 0.837,-0.171 0.495,0 0.873,0.171 0.378,0.162 0.63,0.45 0.252,0.279 0.378,0.657 0.135,0.378 0.135,0.81 z" />
        <path
           id="path4282"
           style=""
           d="m 30.472109,44.215 q 0,-0.171 -0.009,-0.441 -0.009,-0.27 -0.027,-0.486 l 0.585,0 q 0.018,0.171 0.027,0.378 0.009,0.207 0.009,0.342 l 0.018,0 q 0.18,-0.369 0.54,-0.594 0.36,-0.234 0.81,-0.234 0.117,0 0.207,0.009 0.099,0.009 0.198,0.036 l -0.081,0.576 q -0.054,-0.018 -0.18,-0.036 -0.126,-0.018 -0.252,-0.018 -0.243,0 -0.468,0.09 -0.225,0.09 -0.396,0.288 -0.162,0.189 -0.27,0.495 -0.099,0.297 -0.099,0.72 l 0,2.16 -0.612,0 0,-3.285 0,0 z" />
      </g>
      <text
         fill="#9FAAC0"
         line-spacing="13.5"
         font-weight="500"
         font-size="9"
         font-family="AvenirNext-DemiBold, Avenir Next"
         id="×-copy-2">
        <tspan
           id="tspan4235"
           y="47.5"
           x="61">×</tspan>
      </text>
    </g>
  </g>
</svg>
