<?xml version="1.0" encoding="UTF-8" standalone="no"?>
<svg width="72px" height="49px" viewBox="0 0 72 49" version="1.1" xmlns="http://www.w3.org/2000/svg" xmlns:xlink="http://www.w3.org/1999/xlink" xmlns:sketch="http://www.bohemiancoding.com/sketch/ns">
    <!-- Generator: Sketch 3.3.2 (12043) - http://www.bohemiancoding.com/sketch -->
    <title>wysiwig-widget</title>
    <desc>Created with Sketch.</desc>
    <defs></defs>
    <g id="Page-1" stroke="none" stroke-width="1" fill="none" fill-rule="evenodd" sketch:type="MSPage">
        <g id="contentful_icons" sketch:type="MSArtboardGroup" transform="translate(-200.000000, -709.000000)">
            <g id="wysiwig-widget" sketch:type="MSLayerGroup" transform="translate(200.000000, 709.000000)">
                <rect id="Rectangle-291" stroke="#9FAAC0" sketch:type="MSShapeGroup" x="0" y="11" width="72" height="38"></rect>
                <rect id="Rectangle-291-Copy-4" stroke="#9FAAC0" fill="#E7EBF0" sketch:type="MSShapeGroup" transform="translate(36.000000, 6.000000) scale(1, -1) translate(-36.000000, -6.000000) " x="0" y="0" width="72" height="12"></rect>
                <path d="M5.94,18.4797746 L8.05,18.4797746 C8.316668,18.4797746 8.5866653,18.5081076 8.86,18.5647746 C9.1333347,18.6214415 9.37833225,18.7181072 9.595,18.8547746 C9.81166775,18.9914419 9.98833265,19.1764401 10.125,19.4097746 C10.2616673,19.6431091 10.33,19.9364395 10.33,20.2897746 C10.33,20.6631098 10.2166678,20.9881065 9.99,21.2647746 C9.7633322,21.5414426 9.4600019,21.7231075 9.08,21.8097746 L9.08,21.8297746 C9.5400023,21.8831082 9.92166515,22.0614397 10.225,22.3647746 C10.5283348,22.6681094 10.68,23.079772 10.68,23.5997746 C10.68,23.8931094 10.6183339,24.16144 10.495,24.4047746 C10.371666,24.6481091 10.1966678,24.8547737 9.97,25.0247746 C9.7433322,25.1947754 9.4666683,25.3264408 9.14,25.4197746 C8.8133317,25.5131084 8.4466687,25.5597746 8.04,25.5597746 L5.94,25.5597746 L5.94,18.4797746 Z M6.66,21.5797746 L8.11,21.5797746 C8.2833342,21.5797746 8.45833245,21.5597748 8.635,21.5197746 C8.81166755,21.4797744 8.9733326,21.4114417 9.12,21.3147746 C9.2666674,21.2181074 9.38499955,21.0897754 9.475,20.9297746 C9.56500045,20.7697738 9.61,20.5731091 9.61,20.3397746 C9.61,20.1131068 9.56500045,19.921442 9.475,19.7647746 C9.38499955,19.6081071 9.2633341,19.4797751 9.11,19.3797746 C8.9566659,19.2797741 8.7766677,19.2081081 8.57,19.1647746 C8.3633323,19.121441 8.1433345,19.0997746 7.91,19.0997746 L6.66,19.0997746 L6.66,21.5797746 Z M6.66,24.9397746 L8,24.9397746 C8.2600013,24.9397746 8.50833215,24.9147748 8.745,24.8647746 C8.98166785,24.8147743 9.18833245,24.7347751 9.365,24.6247746 C9.54166755,24.514774 9.6833328,24.3714421 9.79,24.1947746 C9.8966672,24.018107 9.95,23.8064425 9.95,23.5597746 C9.95,23.0931056 9.79166825,22.7447757 9.475,22.5147746 C9.15833175,22.2847734 8.7100029,22.1697746 8.13,22.1697746 L6.66,22.1697746 L6.66,24.9397746 Z M12.26,21.9097746 C12.26,21.7831073 12.2566667,21.6197756 12.25,21.4197746 C12.2433333,21.2197736 12.2333334,21.0397754 12.22,20.8797746 L12.87,20.8797746 C12.8833334,21.0064419 12.8933333,21.1464405 12.9,21.2997746 C12.9066667,21.4531087 12.91,21.5797741 12.91,21.6797746 L12.93,21.6797746 C13.063334,21.4064399 13.263332,21.1847754 13.53,21.0147746 C13.796668,20.8447737 14.096665,20.7597746 14.43,20.7597746 C14.5166671,20.7597746 14.5949996,20.7631079 14.665,20.7697746 C14.7350003,20.7764413 14.8066663,20.7897745 14.88,20.8097746 L14.79,21.4497746 C14.7499998,21.4364412 14.6833338,21.423108 14.59,21.4097746 C14.4966662,21.3964412 14.4033338,21.3897746 14.31,21.3897746 C14.1299991,21.3897746 13.9566675,21.4231076 13.79,21.4897746 C13.6233325,21.5564416 13.4783339,21.6614405 13.355,21.8047746 C13.231666,21.9481086 13.131667,22.1314401 13.055,22.3547746 C12.9783329,22.578109 12.94,22.8464397 12.94,23.1597746 L12.94,25.5597746 L12.26,25.5597746 L12.26,21.9097746 Z M19.25,22.8597746 C19.2299999,22.4197724 19.0883346,22.054776 18.825,21.7647746 C18.5616653,21.4747731 18.1866691,21.3297746 17.7,21.3297746 C17.4733322,21.3297746 17.2633343,21.3714408 17.07,21.4547746 C16.8766657,21.5381083 16.7066674,21.6514405 16.56,21.7947746 C16.4133326,21.9381086 16.2966671,22.1014403 16.21,22.2847746 C16.1233329,22.4681088 16.0733334,22.6597736 16.06,22.8597746 L19.25,22.8597746 Z M19.94,23.0797746 L19.94,23.2297746 C19.94,23.2831082 19.9366667,23.3397743 19.93,23.3997746 L16.05,23.3997746 C16.0566667,23.6331091 16.1033329,23.8531069 16.19,24.0597746 C16.2766671,24.2664423 16.3966659,24.4464405 16.55,24.5997746 C16.7033341,24.7531087 16.8833323,24.8747741 17.09,24.9647746 C17.2966677,25.054775 17.5199988,25.0997746 17.76,25.0997746 C18.1133351,25.0997746 18.418332,25.0181087 18.675,24.8547746 C18.9316679,24.6914404 19.126666,24.503109 19.26,24.2897746 L19.77,24.6897746 C19.4899986,25.0431097 19.1816683,25.2964405 18.845,25.4497746 C18.5083316,25.6031087 18.1466686,25.6797746 17.76,25.6797746 C17.4133316,25.6797746 17.0916681,25.6181085 16.795,25.4947746 C16.4983318,25.3714406 16.2433344,25.1997757 16.03,24.9797746 C15.8166656,24.7597735 15.6483339,24.4997761 15.525,24.1997746 C15.401666,23.8997731 15.34,23.5731097 15.34,23.2197746 C15.34,22.8664395 15.3999994,22.5397761 15.52,22.2397746 C15.6400006,21.9397731 15.8066656,21.6797757 16.02,21.4597746 C16.2333344,21.2397735 16.4833319,21.0681085 16.77,20.9447746 C17.0566681,20.8214406 17.366665,20.7597746 17.7,20.7597746 C18.0666685,20.7597746 18.3899986,20.8214406 18.67,20.9447746 C18.9500014,21.0681085 19.1833324,21.2347735 19.37,21.4447746 C19.5566676,21.6547756 19.6983328,21.8997732 19.795,22.1797746 C19.8916671,22.459776 19.94,22.759773 19.94,23.0797746 L19.94,23.0797746 Z M24.29,22.5397746 C24.29,22.1331059 24.1833344,21.8297756 23.97,21.6297746 C23.7566656,21.4297736 23.4466687,21.3297746 23.04,21.3297746 C22.7599986,21.3297746 22.5000012,21.3797741 22.26,21.4797746 C22.0199988,21.5797751 21.8166675,21.7131071 21.65,21.8797746 L21.27,21.4297746 C21.4633343,21.2364403 21.7183317,21.0764419 22.035,20.9497746 C22.3516682,20.8231073 22.709998,20.7597746 23.11,20.7597746 C23.3633346,20.7597746 23.5999989,20.7947742 23.82,20.8647746 C24.0400011,20.9347749 24.2333325,21.0397739 24.4,21.1797746 C24.5666675,21.3197753 24.6966662,21.4964402 24.79,21.7097746 C24.8833338,21.923109 24.93,22.1731065 24.93,22.4597746 L24.93,24.5097746 C24.93,24.6897755 24.9366666,24.8764403 24.95,25.0697746 C24.9633334,25.2631089 24.9833332,25.4264406 25.01,25.5597746 L24.4,25.5597746 C24.3799999,25.4464407 24.3633334,25.3231086 24.35,25.1897746 C24.3366666,25.0564406 24.33,24.9264419 24.33,24.7997746 L24.31,24.7997746 C24.0966656,25.1131095 23.8550013,25.3381072 23.585,25.4747746 C23.3149986,25.6114419 22.9900019,25.6797746 22.61,25.6797746 C22.4299991,25.6797746 22.2450009,25.6547748 22.055,25.6047746 C21.864999,25.5547743 21.6916674,25.4731085 21.535,25.3597746 C21.3783325,25.2464407 21.2483338,25.0997755 21.145,24.9197746 C21.0416661,24.7397737 20.99,24.5197759 20.99,24.2597746 C20.99,23.8997728 21.0816657,23.6147756 21.265,23.4047746 C21.4483342,23.1947735 21.6933318,23.0381084 22,22.9347746 C22.3066682,22.8314407 22.6583313,22.7647747 23.055,22.7347746 C23.4516686,22.7047744 23.8633312,22.6897746 24.29,22.6897746 L24.29,22.5397746 Z M24.09,23.2197746 C23.8099986,23.2197746 23.5283347,23.2314411 23.245,23.2547746 C22.9616652,23.278108 22.7050011,23.3247742 22.475,23.3947746 C22.2449988,23.4647749 22.0566674,23.5664406 21.91,23.6997746 C21.7633326,23.8331086 21.69,24.0097735 21.69,24.2297746 C21.69,24.3964421 21.7216663,24.5364407 21.785,24.6497746 C21.8483336,24.7631085 21.9333328,24.8547742 22.04,24.9247746 C22.1466672,24.9947749 22.2649993,25.0447744 22.395,25.0747746 C22.5250006,25.1047747 22.656666,25.1197746 22.79,25.1197746 C23.0300012,25.1197746 23.2433324,25.0781083 23.43,24.9947746 C23.6166676,24.9114408 23.7733327,24.7981086 23.9,24.6547746 C24.0266673,24.5114405 24.123333,24.3464422 24.19,24.1597746 C24.256667,23.973107 24.29,23.7764423 24.29,23.5697746 L24.29,23.2197746 L24.09,23.2197746 Z M27.38,22.9897746 L27.41,22.9897746 L29.57,20.8797746 L30.55,20.8797746 L28.19,23.0197746 L30.79,25.5597746 L29.79,25.5597746 L27.41,23.0997746 L27.38,23.0997746 L27.38,25.5597746 L26.7,25.5597746 L26.7,17.9997746 L27.38,17.9997746 L27.38,22.9897746 Z M33.76,21.4497746 L32.66,21.4497746 L32.66,25.5597746 L31.98,25.5597746 L31.98,21.4497746 L31,21.4497746 L31,20.8797746 L31.98,20.8797746 L31.98,19.5997746 C31.98,19.0664386 32.1099987,18.6464428 32.37,18.3397746 C32.6300013,18.0331064 33.0299973,17.8797746 33.57,17.8797746 C33.6566671,17.8797746 33.7499995,17.8847745 33.85,17.8947746 C33.9500005,17.9047746 34.0433329,17.9231078 34.13,17.9497746 L34.01,18.5497746 C33.9366663,18.5297745 33.8633337,18.513108 33.79,18.4997746 C33.7166663,18.4864412 33.6333338,18.4797746 33.54,18.4797746 C33.3599991,18.4797746 33.2116672,18.5097743 33.095,18.5697746 C32.9783327,18.6297749 32.8883336,18.714774 32.825,18.8247746 C32.7616663,18.9347751 32.7183334,19.0631072 32.695,19.2097746 C32.6716665,19.356442 32.66,19.5131071 32.66,19.6797746 L32.66,20.8797746 L33.76,20.8797746 L33.76,21.4497746 Z M37.68,22.5397746 C37.68,22.1331059 37.5733344,21.8297756 37.36,21.6297746 C37.1466656,21.4297736 36.8366687,21.3297746 36.43,21.3297746 C36.1499986,21.3297746 35.8900012,21.3797741 35.65,21.4797746 C35.4099988,21.5797751 35.2066675,21.7131071 35.04,21.8797746 L34.66,21.4297746 C34.8533343,21.2364403 35.1083317,21.0764419 35.425,20.9497746 C35.7416682,20.8231073 36.099998,20.7597746 36.5,20.7597746 C36.7533346,20.7597746 36.9899989,20.7947742 37.21,20.8647746 C37.4300011,20.9347749 37.6233325,21.0397739 37.79,21.1797746 C37.9566675,21.3197753 38.0866662,21.4964402 38.18,21.7097746 C38.2733338,21.923109 38.32,22.1731065 38.32,22.4597746 L38.32,24.5097746 C38.32,24.6897755 38.3266666,24.8764403 38.34,25.0697746 C38.3533334,25.2631089 38.3733332,25.4264406 38.4,25.5597746 L37.79,25.5597746 C37.7699999,25.4464407 37.7533334,25.3231086 37.74,25.1897746 C37.7266666,25.0564406 37.72,24.9264419 37.72,24.7997746 L37.7,24.7997746 C37.4866656,25.1131095 37.2450013,25.3381072 36.975,25.4747746 C36.7049986,25.6114419 36.3800019,25.6797746 36,25.6797746 C35.8199991,25.6797746 35.6350009,25.6547748 35.445,25.6047746 C35.254999,25.5547743 35.0816674,25.4731085 34.925,25.3597746 C34.7683325,25.2464407 34.6383338,25.0997755 34.535,24.9197746 C34.4316661,24.7397737 34.38,24.5197759 34.38,24.2597746 C34.38,23.8997728 34.4716657,23.6147756 34.655,23.4047746 C34.8383342,23.1947735 35.0833318,23.0381084 35.39,22.9347746 C35.6966682,22.8314407 36.0483313,22.7647747 36.445,22.7347746 C36.8416686,22.7047744 37.2533312,22.6897746 37.68,22.6897746 L37.68,22.5397746 Z M37.48,23.2197746 C37.1999986,23.2197746 36.9183347,23.2314411 36.635,23.2547746 C36.3516652,23.278108 36.0950011,23.3247742 35.865,23.3947746 C35.6349988,23.4647749 35.4466674,23.5664406 35.3,23.6997746 C35.1533326,23.8331086 35.08,24.0097735 35.08,24.2297746 C35.08,24.3964421 35.1116663,24.5364407 35.175,24.6497746 C35.2383336,24.7631085 35.3233328,24.8547742 35.43,24.9247746 C35.5366672,24.9947749 35.6549993,25.0447744 35.785,25.0747746 C35.9150006,25.1047747 36.046666,25.1197746 36.18,25.1197746 C36.4200012,25.1197746 36.6333324,25.0781083 36.82,24.9947746 C37.0066676,24.9114408 37.1633327,24.7981086 37.29,24.6547746 C37.4166673,24.5114405 37.513333,24.3464422 37.58,24.1597746 C37.646667,23.973107 37.68,23.7764423 37.68,23.5697746 L37.68,23.2197746 L37.48,23.2197746 Z M42.56,21.9897746 C42.4599995,21.7964403 42.3083343,21.6381085 42.105,21.5147746 C41.9016656,21.3914406 41.6700013,21.3297746 41.41,21.3297746 C41.2899994,21.3297746 41.1700006,21.3431078 41.05,21.3697746 C40.9299994,21.3964414 40.8233338,21.4397743 40.73,21.4997746 C40.6366662,21.5597749 40.5616669,21.6364408 40.505,21.7297746 C40.448333,21.8231084 40.42,21.9331073 40.42,22.0597746 C40.42,22.2797757 40.5099991,22.4481073 40.69,22.5647746 C40.8700009,22.6814418 41.1533314,22.7797742 41.54,22.8597746 C42.0933361,22.9731085 42.5016653,23.1381068 42.765,23.3547746 C43.0283346,23.5714423 43.16,23.8631061 43.16,24.2297746 C43.16,24.4964426 43.1083338,24.7214403 43.005,24.9047746 C42.9016661,25.0881088 42.7666675,25.2381073 42.6,25.3547746 C42.4333325,25.4714418 42.245001,25.5547743 42.035,25.6047746 C41.8249989,25.6547748 41.6133344,25.6797746 41.4,25.6797746 C41.0466649,25.6797746 40.703335,25.606442 40.37,25.4597746 C40.036665,25.3131072 39.7633344,25.0831095 39.55,24.7697746 L40.09,24.3697746 C40.2100006,24.5764423 40.3866655,24.7497739 40.62,24.8897746 C40.8533345,25.0297753 41.1099986,25.0997746 41.39,25.0997746 C41.5366674,25.0997746 41.676666,25.0864414 41.81,25.0597746 C41.943334,25.0331078 42.0599995,24.9864416 42.16,24.9197746 C42.2600005,24.8531076 42.3399997,24.7681084 42.4,24.6647746 C42.4600003,24.5614407 42.49,24.4331087 42.49,24.2797746 C42.49,24.0331067 42.3716678,23.8481085 42.135,23.7247746 C41.8983321,23.6014406 41.5566689,23.4864418 41.11,23.3797746 C40.9699993,23.3464411 40.8216674,23.3047748 40.665,23.2547746 C40.5083325,23.2047743 40.363334,23.1314417 40.23,23.0347746 C40.096666,22.9381074 39.9866671,22.816442 39.9,22.6697746 C39.8133329,22.5231072 39.77,22.3397757 39.77,22.1197746 C39.77,21.8797734 39.8166662,21.6747754 39.91,21.5047746 C40.0033338,21.3347737 40.1283325,21.1947751 40.285,21.0847746 C40.4416674,20.974774 40.619999,20.8931082 40.82,20.8397746 C41.020001,20.786441 41.2266656,20.7597746 41.44,20.7597746 C41.7666683,20.7597746 42.0833318,20.8331072 42.39,20.9797746 C42.6966682,21.126442 42.9266659,21.3331066 43.08,21.5997746 L42.56,21.9897746 Z M46.62,21.4497746 L45.3,21.4497746 L45.3,24.1797746 C45.3,24.3531088 45.3166665,24.4964407 45.35,24.6097746 C45.3833335,24.7231085 45.4316663,24.8114409 45.495,24.8747746 C45.5583336,24.9381082 45.6333329,24.9814411 45.72,25.0047746 C45.8066671,25.028108 45.8999995,25.0397746 46,25.0397746 C46.0933338,25.0397746 46.1916661,25.0264414 46.295,24.9997746 C46.3983338,24.9731078 46.4966662,24.9364415 46.59,24.8897746 L46.62,25.4797746 C46.4999994,25.5264415 46.3750006,25.5614411 46.245,25.5847746 C46.1149993,25.608108 45.9733341,25.6197746 45.82,25.6197746 C45.6933327,25.6197746 45.5600007,25.6031081 45.42,25.5697746 C45.2799993,25.5364411 45.1500006,25.4731084 45.03,25.3797746 C44.9099994,25.2864408 44.811667,25.1597754 44.735,24.9997746 C44.6583329,24.8397738 44.62,24.6297759 44.62,24.3697746 L44.62,21.4497746 L43.65,21.4497746 L43.65,20.8797746 L44.62,20.8797746 L44.62,19.5597746 L45.3,19.5597746 L45.3,20.8797746 L46.62,20.8797746 L46.62,21.4497746 Z M50.87,25.5597746 L50.19,25.5597746 L50.19,20.8797746 L50.87,20.8797746 L50.87,25.5597746 Z M51.01,19.0797746 C51.01,19.2197753 50.9600005,19.3347741 50.86,19.4247746 C50.7599995,19.514775 50.6500006,19.5597746 50.53,19.5597746 C50.4099994,19.5597746 50.3000005,19.514775 50.2,19.4247746 C50.0999995,19.3347741 50.05,19.2197753 50.05,19.0797746 C50.05,18.9397739 50.0999995,18.824775 50.2,18.7347746 C50.3000005,18.6447741 50.4099994,18.5997746 50.53,18.5997746 C50.6500006,18.5997746 50.7599995,18.6447741 50.86,18.7347746 C50.9600005,18.824775 51.01,18.9397739 51.01,19.0797746 L51.01,19.0797746 Z M55.17,21.9897746 C55.0699995,21.7964403 54.9183343,21.6381085 54.715,21.5147746 C54.5116656,21.3914406 54.2800013,21.3297746 54.02,21.3297746 C53.8999994,21.3297746 53.7800006,21.3431078 53.66,21.3697746 C53.5399994,21.3964414 53.4333338,21.4397743 53.34,21.4997746 C53.2466662,21.5597749 53.1716669,21.6364408 53.115,21.7297746 C53.058333,21.8231084 53.03,21.9331073 53.03,22.0597746 C53.03,22.2797757 53.1199991,22.4481073 53.3,22.5647746 C53.4800009,22.6814418 53.7633314,22.7797742 54.15,22.8597746 C54.7033361,22.9731085 55.1116653,23.1381068 55.375,23.3547746 C55.6383346,23.5714423 55.77,23.8631061 55.77,24.2297746 C55.77,24.4964426 55.7183338,24.7214403 55.615,24.9047746 C55.5116661,25.0881088 55.3766675,25.2381073 55.21,25.3547746 C55.0433325,25.4714418 54.855001,25.5547743 54.645,25.6047746 C54.4349989,25.6547748 54.2233344,25.6797746 54.01,25.6797746 C53.6566649,25.6797746 53.313335,25.606442 52.98,25.4597746 C52.646665,25.3131072 52.3733344,25.0831095 52.16,24.7697746 L52.7,24.3697746 C52.8200006,24.5764423 52.9966655,24.7497739 53.23,24.8897746 C53.4633345,25.0297753 53.7199986,25.0997746 54,25.0997746 C54.1466674,25.0997746 54.286666,25.0864414 54.42,25.0597746 C54.553334,25.0331078 54.6699995,24.9864416 54.77,24.9197746 C54.8700005,24.8531076 54.9499997,24.7681084 55.01,24.6647746 C55.0700003,24.5614407 55.1,24.4331087 55.1,24.2797746 C55.1,24.0331067 54.9816678,23.8481085 54.745,23.7247746 C54.5083321,23.6014406 54.1666689,23.4864418 53.72,23.3797746 C53.5799993,23.3464411 53.4316674,23.3047748 53.275,23.2547746 C53.1183325,23.2047743 52.973334,23.1314417 52.84,23.0347746 C52.706666,22.9381074 52.5966671,22.816442 52.51,22.6697746 C52.4233329,22.5231072 52.38,22.3397757 52.38,22.1197746 C52.38,21.8797734 52.4266662,21.6747754 52.52,21.5047746 C52.6133338,21.3347737 52.7383325,21.1947751 52.895,21.0847746 C53.0516674,20.974774 53.229999,20.8931082 53.43,20.8397746 C53.630001,20.786441 53.8366656,20.7597746 54.05,20.7597746 C54.3766683,20.7597746 54.6933318,20.8331072 55,20.9797746 C55.3066682,21.126442 55.5366659,21.3331066 55.69,21.5997746 L55.17,21.9897746 Z M6.04,39.5597746 L5.37,39.5597746 L6.2,34.8797746 L6.87,34.8797746 L6.04,39.5597746 Z M7.27,33.0697746 C7.27,33.2031086 7.22500045,33.3164408 7.135,33.4097746 C7.04499955,33.5031084 6.933334,33.5497746 6.8,33.5497746 C6.6733327,33.5497746 6.56500045,33.509775 6.475,33.4297746 C6.38499955,33.3497742 6.34,33.2397753 6.34,33.0997746 C6.34,32.9597739 6.38833285,32.8431084 6.485,32.7497746 C6.58166715,32.6564408 6.6933327,32.6097746 6.82,32.6097746 C6.9466673,32.6097746 7.0533329,32.6514408 7.14,32.7347746 C7.2266671,32.8181083 7.27,32.9297739 7.27,33.0697746 L7.27,33.0697746 Z M13.78,34.7597746 C14.2866692,34.7597746 14.6816652,34.8881066 14.965,35.1447746 C15.2483347,35.4014425 15.39,35.7497724 15.39,36.1897746 C15.39,36.269775 15.385,36.3497742 15.375,36.4297746 C15.3649999,36.509775 15.3533334,36.5964408 15.34,36.6897746 L14.83,39.5597746 L14.16,39.5597746 L14.62,36.9697746 C14.6600002,36.7631069 14.68,36.5664422 14.68,36.3797746 C14.68,36.0531063 14.6033341,35.7947755 14.45,35.6047746 C14.2966659,35.4147736 14.0266686,35.3197746 13.64,35.3197746 C13.3933321,35.3197746 13.1816675,35.3697741 13.005,35.4697746 C12.8283324,35.5697751 12.6783339,35.7031071 12.555,35.8697746 C12.431666,36.0364421 12.3350003,36.2231069 12.265,36.4297746 C12.1949996,36.6364423 12.1400002,36.8497735 12.1,37.0697746 L11.66,39.5597746 L10.99,39.5597746 L11.48,36.8397746 C11.5200002,36.6197735 11.54,36.4164422 11.54,36.2297746 C11.54,35.9497732 11.4716673,35.7281087 11.335,35.5647746 C11.1983326,35.4014404 10.9566684,35.3197746 10.61,35.3197746 C10.4499992,35.3197746 10.2833342,35.3564409 10.11,35.4297746 C9.9366658,35.5031083 9.7733341,35.6164405 9.62,35.7697746 C9.4666659,35.9231087 9.3300006,36.1147734 9.21,36.3447746 C9.0899994,36.5747757 9.0033336,36.8464397 8.95,37.1597746 L8.53,39.5597746 L7.86,39.5597746 L8.5,35.9097746 C8.5266668,35.7831073 8.55499985,35.6197756 8.585,35.4197746 C8.61500015,35.2197736 8.6366666,35.0397754 8.65,34.8797746 L9.29,34.8797746 C9.2766666,35.0064419 9.2600001,35.1464405 9.24,35.2997746 C9.2199999,35.4531087 9.2000001,35.5797741 9.18,35.6797746 L9.2,35.6797746 C9.3933343,35.3931065 9.6266653,35.1681087 9.9,35.0047746 C10.1733347,34.8414404 10.4799983,34.7597746 10.82,34.7597746 C10.9466673,34.7597746 11.0783326,34.7731078 11.215,34.7997746 C11.3516673,34.8264414 11.481666,34.8781075 11.605,34.9547746 C11.7283339,35.0314416 11.8366662,35.1331073 11.93,35.2597746 C12.0233338,35.3864419 12.0899998,35.5497736 12.13,35.7497746 C12.3100009,35.429773 12.5399986,35.1847754 12.82,35.0147746 C13.1000014,34.8447737 13.4199982,34.7597746 13.78,34.7597746 L13.78,34.7597746 Z M18.01,35.6397746 C18.0833337,35.519774 18.1799994,35.4064418 18.3,35.2997746 C18.4200006,35.1931074 18.5549992,35.099775 18.705,35.0197746 C18.8550007,34.9397742 19.0166658,34.8764415 19.19,34.8297746 C19.3633342,34.7831077 19.5433324,34.7597746 19.73,34.7597746 C20.0500016,34.7597746 20.338332,34.8081074 20.595,34.9047746 C20.8516679,35.0014417 21.0733324,35.1397737 21.26,35.3197746 C21.4466676,35.4997755 21.5899995,35.7131067 21.69,35.9597746 C21.7900005,36.2064425 21.84,36.4797731 21.84,36.7797746 C21.84,37.1797766 21.7700007,37.5564395 21.63,37.9097746 C21.4899993,38.2631097 21.2983345,38.5697733 21.055,38.8297746 C20.8116654,39.0897759 20.5216683,39.2964405 20.185,39.4497746 C19.8483316,39.6031087 19.4833353,39.6797746 19.09,39.6797746 C18.7499983,39.6797746 18.4316681,39.6031087 18.135,39.4497746 C17.8383318,39.2964405 17.6133341,39.0697761 17.46,38.7697746 L17.44,38.7697746 L16.87,41.9597746 L16.2,41.9597746 L17.46,34.8797746 L18.13,34.8797746 L17.99,35.6397746 L18.01,35.6397746 Z M21.14,36.8197746 C21.14,36.6131069 21.1083336,36.4181088 21.045,36.2347746 C20.9816663,36.0514403 20.8866673,35.8914419 20.76,35.7547746 C20.6333327,35.6181072 20.4800009,35.5114416 20.3,35.4347746 C20.1199991,35.3581075 19.9100012,35.3197746 19.67,35.3197746 C19.3766652,35.3197746 19.1033346,35.379774 18.85,35.4997746 C18.5966654,35.6197752 18.3766676,35.7847735 18.19,35.9947746 C18.0033324,36.2047756 17.8566672,36.4481065 17.75,36.7247746 C17.6433328,37.0014426 17.59,37.2931064 17.59,37.5997746 C17.59,37.8197757 17.6249996,38.0214403 17.695,38.2047746 C17.7650003,38.3881088 17.866666,38.5481072 18,38.6847746 C18.133334,38.8214419 18.2916657,38.9264409 18.475,38.9997746 C18.6583342,39.0731083 18.8666655,39.1097746 19.1,39.1097746 C19.4066682,39.1097746 19.6849987,39.0497752 19.935,38.9297746 C20.1850012,38.809774 20.3999991,38.6464423 20.58,38.4397746 C20.7600009,38.2331069 20.8983328,37.9914426 20.995,37.7147746 C21.0916671,37.4381065 21.14,37.1397762 21.14,36.8197746 L21.14,36.8197746 Z M25.02,39.6797746 C24.7066651,39.6797746 24.416668,39.6297751 24.15,39.5297746 C23.883332,39.4297741 23.6550009,39.2914421 23.465,39.1147746 C23.274999,38.938107 23.1266672,38.7247758 23.02,38.4747746 C22.9133328,38.2247733 22.86,37.9497761 22.86,37.6497746 C22.86,37.2564393 22.9283326,36.8847763 23.065,36.5347746 C23.2016673,36.1847728 23.3933321,35.8781092 23.64,35.6147746 C23.8866679,35.3514399 24.1799983,35.1431087 24.52,34.9897746 C24.8600017,34.8364405 25.2333313,34.7597746 25.64,34.7597746 C25.9600016,34.7597746 26.2516653,34.8081074 26.515,34.9047746 C26.7783346,35.0014417 27.004999,35.1397737 27.195,35.3197746 C27.3850009,35.4997755 27.5333328,35.7131067 27.64,35.9597746 C27.7466672,36.2064425 27.8,36.4797731 27.8,36.7797746 C27.8,37.1797766 27.7316673,37.5564395 27.595,37.9097746 C27.4583326,38.2631097 27.2666679,38.5697733 27.02,38.8297746 C26.7733321,39.0897759 26.4800017,39.2964405 26.14,39.4497746 C25.7999983,39.6031087 25.4266687,39.6797746 25.02,39.6797746 L25.02,39.6797746 Z M27.1,36.8197746 C27.1,36.6064402 27.066667,36.4081088 27,36.2247746 C26.933333,36.0414403 26.8350006,35.8831086 26.705,35.7497746 C26.5749993,35.6164406 26.4166676,35.5114416 26.23,35.4347746 C26.0433324,35.3581075 25.8333345,35.3197746 25.6,35.3197746 C25.3066652,35.3197746 25.0366679,35.3814406 24.79,35.5047746 C24.5433321,35.6281085 24.3300009,35.7947735 24.15,36.0047746 C23.9699991,36.2147756 23.8283338,36.4581065 23.725,36.7347746 C23.6216661,37.0114426 23.57,37.3031064 23.57,37.6097746 C23.57,37.823109 23.603333,38.0214403 23.67,38.2047746 C23.736667,38.3881088 23.8349993,38.5464406 23.965,38.6797746 C24.0950006,38.8131086 24.2516657,38.9181075 24.435,38.9947746 C24.6183342,39.0714416 24.8266655,39.1097746 25.06,39.1097746 C25.3600015,39.1097746 25.6349987,39.0481085 25.885,38.9247746 C26.1350012,38.8014406 26.3499991,38.6364423 26.53,38.4297746 C26.7100009,38.2231069 26.8499995,37.9814426 26.95,37.7047746 C27.0500005,37.4281065 27.1,37.1331095 27.1,36.8197746 L27.1,36.8197746 Z M29.48,35.9097746 C29.5066668,35.7831073 29.5349998,35.6197756 29.565,35.4197746 C29.5950001,35.2197736 29.6166666,35.0397754 29.63,34.8797746 L30.27,34.8797746 C30.2566666,35.0064419 30.2400001,35.1464405 30.22,35.2997746 C30.1999999,35.4531087 30.1800001,35.5797741 30.16,35.6797746 L30.18,35.6797746 C30.3533342,35.4064399 30.573332,35.1847754 30.84,35.0147746 C31.106668,34.8447737 31.406665,34.7597746 31.74,34.7597746 C31.8266671,34.7597746 31.903333,34.7631079 31.97,34.7697746 C32.036667,34.7764413 32.1066663,34.7897745 32.18,34.8097746 L32.02,35.4497746 C31.9866665,35.4364412 31.9250004,35.423108 31.835,35.4097746 C31.7449995,35.3964412 31.6533338,35.3897746 31.56,35.3897746 C31.3799991,35.3897746 31.2033342,35.4231076 31.03,35.4897746 C30.8566658,35.5564416 30.698334,35.6614405 30.555,35.8047746 C30.4116659,35.9481086 30.2850005,36.1314401 30.175,36.3547746 C30.0649994,36.578109 29.9833336,36.8464397 29.93,37.1597746 L29.51,39.5597746 L28.84,39.5597746 L29.48,35.9097746 Z M34.87,35.4397746 L33.6,35.4397746 L33.11,38.1797746 C33.0899999,38.2997752 33.08,38.4064408 33.08,38.4997746 C33.08,38.7197757 33.1333328,38.8664409 33.24,38.9397746 C33.3466672,39.0131083 33.4866658,39.0497746 33.66,39.0497746 C33.7533338,39.0497746 33.8566661,39.0364414 33.97,39.0097746 C34.0833339,38.9831078 34.1699997,38.9464415 34.23,38.8997746 L34.15,39.4797746 C34.0633329,39.5264415 33.9516673,39.5614411 33.815,39.5847746 C33.6783326,39.608108 33.5333341,39.6197746 33.38,39.6197746 C33.2666661,39.6197746 33.1516672,39.6064414 33.035,39.5797746 C32.9183327,39.5531078 32.8116671,39.5047749 32.715,39.4347746 C32.6183328,39.3647742 32.5383336,39.2697752 32.475,39.1497746 C32.4116663,39.029774 32.38,38.8764422 32.38,38.6897746 C32.38,38.5964408 32.3899999,38.4897752 32.41,38.3697746 L32.93,35.4397746 L31.96,35.4397746 L32.07,34.8797746 L33.02,34.8797746 L33.25,33.5597746 L33.92,33.5597746 L33.69,34.8797746 L34.98,34.8797746 L34.87,35.4397746 Z M38.74,36.6897746 C38.7600001,36.5764407 38.7733333,36.4881082 38.78,36.4247746 C38.7866667,36.3614409 38.79,36.3031082 38.79,36.2497746 C38.79,35.9097729 38.6933343,35.6697753 38.5,35.5297746 C38.3066657,35.3897739 38.0366684,35.3197746 37.69,35.3197746 C37.4099986,35.3197746 37.1400013,35.374774 36.88,35.4847746 C36.6199987,35.5947751 36.4033342,35.7264405 36.23,35.8797746 L35.93,35.4297746 C36.1566678,35.2297736 36.436665,35.0681085 36.77,34.9447746 C37.103335,34.8214406 37.4333317,34.7597746 37.76,34.7597746 C37.9800011,34.7597746 38.1916656,34.7847743 38.395,34.8347746 C38.5983343,34.8847748 38.7749992,34.964774 38.925,35.0747746 C39.0750007,35.1847751 39.1949995,35.3247737 39.285,35.4947746 C39.3750004,35.6647754 39.42,35.8697734 39.42,36.1097746 C39.42,36.1697749 39.4166667,36.2514407 39.41,36.3547746 C39.4033333,36.4581084 39.3933334,36.5431076 39.38,36.6097746 L39.04,38.5097746 C39.0066665,38.6897755 38.9800001,38.8764403 38.96,39.0697746 C38.9399999,39.2631089 38.93,39.4264406 38.93,39.5597746 L38.33,39.5597746 C38.33,39.4464407 38.3349999,39.3231086 38.345,39.1897746 C38.355,39.0564406 38.3699999,38.9264419 38.39,38.7997746 L38.37,38.7997746 C38.236666,38.9531087 38.103334,39.084774 37.97,39.1947746 C37.836666,39.3047751 37.698334,39.3931076 37.555,39.4597746 C37.4116659,39.5264416 37.2583341,39.5747744 37.095,39.6047746 C36.9316658,39.6347747 36.7533343,39.6497746 36.56,39.6497746 C36.3999992,39.6497746 36.2366675,39.6297748 36.07,39.5897746 C35.9033325,39.5497744 35.7516673,39.4814417 35.615,39.3847746 C35.4783326,39.2881074 35.3650004,39.1631087 35.275,39.0097746 C35.1849995,38.8564405 35.14,38.6664424 35.14,38.4397746 C35.14,38.0664394 35.2466656,37.7647757 35.46,37.5347746 C35.6733344,37.3047734 35.9516649,37.1281085 36.295,37.0047746 C36.638335,36.8814406 37.0233312,36.7981081 37.45,36.7547746 C37.8766688,36.711441 38.3066645,36.6897746 38.74,36.6897746 L38.74,36.6897746 Z M38.49,37.1997746 C38.1899985,37.1997746 37.8833349,37.2147744 37.57,37.2447746 C37.2566651,37.2747747 36.9716679,37.3314408 36.715,37.4147746 C36.458332,37.4981083 36.2483341,37.6147738 36.085,37.7647746 C35.9216658,37.9147753 35.84,38.1131067 35.84,38.3597746 C35.84,38.506442 35.8666664,38.6281074 35.92,38.7247746 C35.9733336,38.8214417 36.0449995,38.8981076 36.135,38.9547746 C36.2250004,39.0114415 36.3283327,39.0514411 36.445,39.0747746 C36.5616672,39.098108 36.6799994,39.1097746 36.8,39.1097746 C37.0400012,39.1097746 37.259999,39.069775 37.46,38.9897746 C37.660001,38.9097742 37.8366659,38.7997753 37.99,38.6597746 C38.1433341,38.5197739 38.2699995,38.3581088 38.37,38.1747746 C38.4700005,37.9914403 38.5399998,37.7964423 38.58,37.5897746 L38.65,37.1997746 L38.49,37.1997746 Z M42.05,34.8797746 C42.0366666,35.0064419 42.0200001,35.1464405 42,35.2997746 C41.9799999,35.4531087 41.9600001,35.5797741 41.94,35.6797746 L41.96,35.6797746 C42.1400009,35.3931065 42.3716652,35.1681087 42.655,35.0047746 C42.9383347,34.8414404 43.2399984,34.7597746 43.56,34.7597746 C44.0666692,34.7597746 44.4616652,34.8881066 44.745,35.1447746 C45.0283347,35.4014425 45.17,35.7497724 45.17,36.1897746 C45.17,36.269775 45.165,36.3497742 45.155,36.4297746 C45.1449999,36.509775 45.1333334,36.5964408 45.12,36.6897746 L44.61,39.5597746 L43.94,39.5597746 L44.4,36.9697746 C44.4400002,36.7631069 44.46,36.5664422 44.46,36.3797746 C44.46,36.0531063 44.3833341,35.7947755 44.23,35.6047746 C44.0766659,35.4147736 43.8066686,35.3197746 43.42,35.3197746 C43.2399991,35.3197746 43.0600009,35.3564409 42.88,35.4297746 C42.6999991,35.5031083 42.5316674,35.6164405 42.375,35.7697746 C42.2183325,35.9231087 42.0800006,36.1147734 41.96,36.3447746 C41.8399994,36.5747757 41.7533336,36.8464397 41.7,37.1597746 L41.28,39.5597746 L40.61,39.5597746 L41.25,35.9097746 C41.2766668,35.7831073 41.3049998,35.6197756 41.335,35.4197746 C41.3650001,35.2197736 41.3866666,35.0397754 41.4,34.8797746 L42.05,34.8797746 Z M49.05,35.4397746 L47.78,35.4397746 L47.29,38.1797746 C47.2699999,38.2997752 47.26,38.4064408 47.26,38.4997746 C47.26,38.7197757 47.3133328,38.8664409 47.42,38.9397746 C47.5266672,39.0131083 47.6666658,39.0497746 47.84,39.0497746 C47.9333338,39.0497746 48.0366661,39.0364414 48.15,39.0097746 C48.2633339,38.9831078 48.3499997,38.9464415 48.41,38.8997746 L48.33,39.4797746 C48.2433329,39.5264415 48.1316673,39.5614411 47.995,39.5847746 C47.8583326,39.608108 47.7133341,39.6197746 47.56,39.6197746 C47.4466661,39.6197746 47.3316672,39.6064414 47.215,39.5797746 C47.0983327,39.5531078 46.9916671,39.5047749 46.895,39.4347746 C46.7983328,39.3647742 46.7183336,39.2697752 46.655,39.1497746 C46.5916663,39.029774 46.56,38.8764422 46.56,38.6897746 C46.56,38.5964408 46.5699999,38.4897752 46.59,38.3697746 L47.11,35.4397746 L46.14,35.4397746 L46.25,34.8797746 L47.2,34.8797746 L47.43,33.5597746 L48.1,33.5597746 L47.87,34.8797746 L49.16,34.8797746 L49.05,35.4397746 Z M50.93,39.0797746 C50.93,39.2197753 50.8800005,39.344774 50.78,39.4547746 C50.6799995,39.5647751 50.5500008,39.6197746 50.39,39.6197746 C50.2299992,39.6197746 50.1000005,39.5647751 50,39.4547746 C49.8999995,39.344774 49.85,39.2197753 49.85,39.0797746 C49.85,38.9397739 49.8999995,38.8147751 50,38.7047746 C50.1000005,38.594774 50.2299992,38.5397746 50.39,38.5397746 C50.5500008,38.5397746 50.6799995,38.594774 50.78,38.7047746 C50.8800005,38.8147751 50.93,38.9397739 50.93,39.0797746 L50.93,39.0797746 Z" id="Breakfast-is" fill="#A2A9B1" sketch:type="MSShapeGroup"></path>
                <path d="M4.2185,3.32 L5.6955,3.32 C5.8821676,3.32 6.07116571,3.33983313 6.2625,3.3795 C6.45383429,3.41916686 6.62533257,3.48683285 6.777,3.5825 C6.92866742,3.67816714 7.05233285,3.80766585 7.148,3.971 C7.24366714,4.13433415 7.2915,4.33966543 7.2915,4.587 C7.2915,4.84833464 7.21216746,5.07583236 7.0535,5.2695 C6.89483254,5.46316763 6.68250133,5.59033303 6.4165,5.651 L6.4165,5.665 C6.73850161,5.70233352 7.0056656,5.8271656 7.218,6.0395 C7.43033439,6.25183439 7.5365,6.53999818 7.5365,6.904 C7.5365,7.10933436 7.49333376,7.29716581 7.407,7.4675 C7.32066623,7.63783418 7.19816746,7.7824994 7.0395,7.9015 C6.88083254,8.02050059 6.68716781,8.11266634 6.4585,8.178 C6.22983219,8.24333366 5.97316809,8.276 5.6885,8.276 L4.2185,8.276 L4.2185,3.32 Z M4.7225,5.49 L5.7375,5.49 C5.85883394,5.49 5.98133271,5.47600014 6.105,5.448 C6.22866728,5.41999986 6.34183282,5.372167 6.4445,5.3045 C6.54716718,5.23683299 6.62999968,5.14700056 6.693,5.035 C6.75600031,4.92299944 6.7875,4.78533415 6.7875,4.622 C6.7875,4.46333254 6.75600031,4.32916721 6.693,4.2195 C6.62999968,4.10983278 6.54483387,4.02000035 6.4375,3.95 C6.33016613,3.87999965 6.20416739,3.82983348 6.0595,3.7995 C5.91483261,3.76916651 5.76083415,3.754 5.5975,3.754 L4.7225,3.754 L4.7225,5.49 Z M4.7225,7.842 L5.6605,7.842 C5.84250091,7.842 6.0163325,7.82450017 6.182,7.7895 C6.34766749,7.75449982 6.49233271,7.69850038 6.616,7.6215 C6.73966728,7.54449961 6.83883296,7.44416728 6.9135,7.3205 C6.98816704,7.19683271 7.0255,7.04866753 7.0255,6.876 C7.0255,6.5493317 6.91466777,6.3055008 6.693,6.1445 C6.47133222,5.98349919 6.15750203,5.903 5.7515,5.903 L4.7225,5.903 L4.7225,7.842 Z M13.9905,8.276 L13.5215,8.276 L14.1025,5 L14.5715,5 L13.9905,8.276 Z M14.8515,3.733 C14.8515,3.8263338 14.8200003,3.90566634 14.757,3.971 C14.6939997,4.03633366 14.6158338,4.069 14.5225,4.069 C14.4338329,4.069 14.3580003,4.04100028 14.295,3.985 C14.2319997,3.92899972 14.2005,3.85200049 14.2005,3.754 C14.2005,3.65599951 14.234333,3.57433366 14.302,3.509 C14.369667,3.44366634 14.4478329,3.411 14.5365,3.411 C14.6251671,3.411 14.699833,3.44016637 14.7605,3.4985 C14.821167,3.55683362 14.8515,3.63499951 14.8515,3.733 L14.8515,3.733 Z M22.7475,8.402 C22.3741648,8.402 22.0685012,8.33783397 21.8305,8.2095 C21.5924988,8.08116602 21.4035007,7.91900098 21.2635,7.723 C21.1234993,7.52699902 21.0266669,7.31350115 20.973,7.0825 C20.9193331,6.85149884 20.8925,6.63333436 20.8925,6.428 L20.8925,3.32 L21.3965,3.32 L21.3965,6.372 C21.3965,6.57266767 21.4198331,6.76749905 21.4665,6.9565 C21.5131669,7.14550094 21.5889995,7.31349926 21.694,7.4605 C21.7990005,7.60750073 21.9378325,7.72649954 22.1105,7.8175 C22.2831675,7.90850045 22.4954987,7.954 22.7475,7.954 C22.9995013,7.954 23.2118325,7.90850045 23.3845,7.8175 C23.5571675,7.72649954 23.6959995,7.60750073 23.801,7.4605 C23.9060005,7.31349926 23.9818331,7.14550094 24.0285,6.9565 C24.0751669,6.76749905 24.0985,6.57266767 24.0985,6.372 L24.0985,3.32 L24.6025,3.32 L24.6025,6.428 C24.6025,6.63333436 24.5756669,6.85149884 24.522,7.0825 C24.4683331,7.31350115 24.3715007,7.52699902 24.2315,7.723 C24.0914993,7.91900098 23.9013345,8.08116602 23.661,8.2095 C23.4206655,8.33783397 23.1161685,8.402 22.7475,8.402 L22.7475,8.402 Z M31.6445,7.828 L33.9545,7.828 L33.9545,8.276 L31.1405,8.276 L31.1405,3.32 L31.6445,3.32 L31.6445,7.828 Z M35.1655,8.276 L34.6895,8.276 L34.6895,5 L35.1655,5 L35.1655,8.276 Z M35.2635,3.74 C35.2635,3.83800049 35.2285003,3.91849968 35.1585,3.9815 C35.0884996,4.04450031 35.0115004,4.076 34.9275,4.076 C34.8434996,4.076 34.7665003,4.04450031 34.6965,3.9815 C34.6264996,3.91849968 34.5915,3.83800049 34.5915,3.74 C34.5915,3.64199951 34.6264996,3.56150031 34.6965,3.4985 C34.7665003,3.43549968 34.8434996,3.404 34.9275,3.404 C35.0115004,3.404 35.0884996,3.43549968 35.1585,3.4985 C35.2285003,3.56150031 35.2635,3.64199951 35.2635,3.74 L35.2635,3.74 Z M36.8595,5 C36.8688334,5.08866711 36.8758333,5.18666613 36.8805,5.294 C36.8851667,5.40133387 36.8875,5.48999965 36.8875,5.56 L36.9015,5.56 C36.9948338,5.36866571 37.1464989,5.21350059 37.3565,5.0945 C37.566501,4.9754994 37.7881655,4.916 38.0215,4.916 C38.4368354,4.916 38.7483323,5.03966543 38.956,5.287 C39.1636677,5.53433457 39.2675,5.86099797 39.2675,6.267 L39.2675,8.276 L38.7915,8.276 L38.7915,6.463 C38.7915,6.29033247 38.7775001,6.1340007 38.7495,5.994 C38.7214999,5.8539993 38.673667,5.73383383 38.606,5.6335 C38.538333,5.53316616 38.4473339,5.45500028 38.333,5.399 C38.2186661,5.34299972 38.0751675,5.315 37.9025,5.315 C37.7764994,5.315 37.6540006,5.34066641 37.535,5.392 C37.4159994,5.44333359 37.3098338,5.52149947 37.2165,5.6265 C37.1231662,5.73150052 37.0485003,5.86449919 36.9925,6.0255 C36.9364997,6.1865008 36.9085,6.37666557 36.9085,6.596 L36.9085,8.276 L36.4325,8.276 L36.4325,5.721 C36.4325,5.63233289 36.4301667,5.5180007 36.4255,5.378 C36.4208333,5.2379993 36.4138334,5.11200056 36.4045,5 L36.8595,5 Z M40.9895,6.477 L41.0105,6.477 L42.5225,5 L43.2085,5 L41.5565,6.498 L43.3765,8.276 L42.6765,8.276 L41.0105,6.554 L40.9895,6.554 L40.9895,8.276 L40.5135,8.276 L40.5135,2.984 L40.9895,2.984 L40.9895,6.477 Z" id="B---i---U---Link" fill="#9FAAC0" sketch:type="MSShapeGroup"></path>
            </g>
        </g>
    </g>
</svg>